<?xml version="1.0" encoding="utf-8"?>
<!-- Generator: Adobe Illustrator 16.0.0, SVG Export Plug-In . SVG Version: 6.00 Build 0)  -->
<!DOCTYPE svg PUBLIC "-//W3C//DTD SVG 1.1//EN" "http://www.w3.org/Graphics/SVG/1.1/DTD/svg11.dtd">
<svg version="1.1" id="Calque_1" xmlns="http://www.w3.org/2000/svg" xmlns:xlink="http://www.w3.org/1999/xlink" x="0px" y="0px"
	 width="120px" height="120px" viewBox="0 0 120 120" enable-background="new 0 0 120 120" xml:space="preserve">
<text transform="matrix(0.9848 -0.1736 0.1736 0.9848 27.5742 58.0918)" fill="#FFFFFF" font-family="'AvantGarde-Book'" font-size="30">Age </text>
<text transform="matrix(0.9848 -0.1736 0.1736 0.9848 48.167 101.1699)" fill="#FFFFFF" font-family="'AvantGarde-Book'" font-size="40">4</text>
<text transform="matrix(0.5741 -0.1012 0.1012 0.5741 67.6768 84.2041)" fill="#FFFFFF" font-family="'AvantGarde-Book'" font-size="40">+</text>
<g>
	<path fill="#FFFFFF" d="M60.042,3.985c25.274,0,47.5,17.074,54.051,41.521c3.871,14.448,1.885,29.54-5.595,42.494
		c-7.479,12.954-19.555,22.22-34.004,26.092c-4.763,1.275-9.651,1.923-14.532,1.923c-25.276,0-47.503-17.074-54.054-41.521
		C-2.083,44.667,15.681,13.9,45.507,5.908C50.269,4.632,55.158,3.985,60.042,3.985L60.042,3.985 M60.039-0.015
		c-5.139,0-10.366,0.666-15.567,2.06C12.464,10.621-6.531,43.52,2.045,75.529c7.183,26.808,31.425,44.485,57.917,44.485
		c5.14,0,10.367-0.666,15.567-2.06c32.009-8.576,51.004-41.477,42.427-73.484C110.772,17.663,86.531-0.016,60.039-0.015
		L60.039-0.015z"/>
</g>
</svg>
