<?xml version="1.0" encoding="utf-8"?>
<!-- Generator: Adobe Illustrator 16.0.0, SVG Export Plug-In . SVG Version: 6.00 Build 0)  -->
<!DOCTYPE svg PUBLIC "-//W3C//DTD SVG 1.1//EN" "http://www.w3.org/Graphics/SVG/1.1/DTD/svg11.dtd">
<svg version="1.1" id="Calque_1" xmlns="http://www.w3.org/2000/svg" xmlns:xlink="http://www.w3.org/1999/xlink" x="0px" y="0px"
	 width="120px" height="120px" viewBox="0 0 120 120" enable-background="new 0 0 120 120" xml:space="preserve">
<path fill="#FFFFFF" d="M33.41,34.521l2.452-0.432L49.11,54.295l-2.393,0.422l-4.458-6.799l-10.163,1.792l-1.894,7.918l-2.274,0.401
	L33.41,34.521z M32.575,47.584l8.479-1.495l-5.965-9.305L32.575,47.584z"/>
<path fill="#FFFFFF" d="M66.892,48.541c0.307,1.744,0.692,3.93-0.436,6.169c-1.539,3.196-5.236,4-5.886,4.114
	c-2.304,0.406-6.951,0.312-9.319-4.48l2.188-0.385c0.766,1.235,2.845,3.702,6.774,3.009c2.718-0.479,5.573-2.597,4.786-7.058
	l-0.25-1.418l-0.059,0.01c-0.805,2.518-3.281,4.021-5.646,4.437c-4.253,0.75-9.031-1.819-9.928-6.9
	c-0.905-5.141,2.686-9.307,6.938-10.057c1.479-0.26,4.451-0.328,6.817,2.209l0.059-0.01l-0.51-2.895l2.068-0.365L66.892,48.541z
	 M58.718,51.079c4.283-0.755,5.733-4.97,5.249-7.718c-0.624-3.545-3.948-6.158-7.583-5.518c-3.663,0.646-5.834,4.228-5.209,7.772
	C51.795,49.131,55.054,51.725,58.718,51.079z"/>
<path fill="#FFFFFF" d="M71.277,42.834c0.705,3.135,4.134,5.302,7.294,4.745c2.943-0.58,4.734-2.693,5.119-4.833l2.186-0.385
	c-0.555,3.418-3.225,6.417-6.947,7.073c-4.52,0.797-9.065-2.179-9.909-6.964c-0.807-4.58,2.209-9.071,6.891-9.987
	c3.551-0.596,6.432,1.06,7.938,2.864c1.399,1.551,1.953,3.312,2.142,4.893L71.277,42.834z M83.564,38.748
	c-1.322-3.696-4.726-4.863-7.297-4.41c-2.541,0.448-5.399,2.719-5.318,6.633L83.564,38.748z"/>
<path fill="#FFFFFF" d="M62.472,93.166l-14.69,2.59l-0.465-2.64L57.72,69.435l3.466-0.61l3.734,21.188l2.64-0.466l0.465,2.64
	l-2.639,0.466l0.938,5.316l-2.914,0.514L62.472,93.166z M62.006,90.526l-3.026-17.171L58.9,73.369l-8.236,19.156L62.006,90.526z"/>
<text transform="matrix(0.9848 -0.1736 0.1736 0.9848 67.6777 84.2051)" fill="#FFFFFF" font-family="'AvantGarde-Book'" font-size="23.3181">+</text>
<path fill="#FFFFFF" d="M60.042,3.985c25.274,0,47.5,17.074,54.051,41.521c3.871,14.448,1.886,29.54-5.595,42.494
	c-7.479,12.954-19.555,22.221-34.004,26.092c-4.764,1.275-9.651,1.924-14.532,1.924c-25.276,0-47.503-17.074-54.054-41.521
	C-2.083,44.667,15.681,13.9,45.507,5.908C50.269,4.632,55.158,3.985,60.042,3.985L60.042,3.985 M60.039-0.015
	c-5.139,0-10.366,0.666-15.567,2.06C12.464,10.621-6.531,43.52,2.045,75.529c7.183,26.808,31.425,44.484,57.917,44.484
	c5.14,0,10.367-0.666,15.567-2.06c32.009-8.576,51.004-41.478,42.427-73.484C110.771,17.663,86.531-0.016,60.039-0.015L60.039-0.015
	z"/>
</svg>
