<?xml version="1.0" encoding="utf-8"?>
<!-- Generator: Adobe Illustrator 16.0.0, SVG Export Plug-In . SVG Version: 6.00 Build 0)  -->
<!DOCTYPE svg PUBLIC "-//W3C//DTD SVG 1.1//EN" "http://www.w3.org/Graphics/SVG/1.1/DTD/svg11.dtd">
<svg version="1.1" id="Layer_1" xmlns="http://www.w3.org/2000/svg" xmlns:xlink="http://www.w3.org/1999/xlink" x="0px" y="0px"
	 width="220px" height="160px" viewBox="68.1 74.5 220 160" enable-background="new 68.1 74.5 220 160" xml:space="preserve">
<g>
	<path fill="#1CA0CF" d="M272.662,164.381c-0.711-0.383-1.55-0.883-2.272-0.809c-1.952,0.204-2.706-0.988-3.515-2.372
		c-0.828-1.42-1.791-2.761-2.749-4.095c-3.088-4.312-7.164-7.579-11.173-10.988c-3.465-2.952-3.582-3.162-5.268,1.198
		c-0.26,0.667-0.457,1.364-0.661,2.05c-2.73,9.006-3.409,18.37-4.849,27.603c-0.278,1.778-0.006,2.909,1.834,3.094
		c2.119,0.21,1.742-1.477,1.872-2.767c0.877-8.9,1.877-17.781,4.373-26.422c0.647-2.261,1.364-2.298,2.995-0.871
		c5.664,4.941,10.29,10.618,13.044,17.69c0.797,2.043,2.322,3.068,5.354,3.106c0.982-0.007,3.039-0.248,3.478-2.174
		C275.514,166.901,274.342,165.283,272.662,164.381z M270.185,168.729c-0.705-0.143-1.841,0.179-1.687-0.81
		c0.18-1.111,1.148-1.958,2.391-1.951c0.951,0.013,2.105,0.723,1.951,1.538C272.612,168.742,271.155,168.538,270.185,168.729z"/>
	<path fill="#1CA0CF" d="M263.674,129.571c0.025-0.389,0.081-0.853,0.303-1.155c0.334-0.463,0.921-0.395,1.409-0.253
		c0.667,0.191,0.667,0.618,0.327,1.149c-1.162,1.815,0.172,1.803,1.377,1.859c1.612,0.074,2.946-0.574,3.44-2.075
		c0.537-1.643-0.567-2.724-1.971-3.373c-0.927-0.432-1.952-1.019-2.896-0.957c-2.101,0.148-2.174-1.31-2.983-2.631
		c-2.118-3.458-1.39-7.597-4.428-11.197c-6.158-7.294-13.724-9.61-21.717-10.111c-5.299-0.124-9.134,1.223-12.617,4.255
		c-3.336,2.903-5.893,7.14-11.143,7.288c-0.853,0.025-1.81,0.97-2.483,1.705c-1.074,1.174-2.531,2.366-1.748,4.268
		c0.804,1.952,2.36,2.817,4.466,2.397c1.038-0.21,1.451-0.037,1.507,1.136c0.421,8.918,6.628,13.915,13.236,18.108
		c7.899,5.016,16.614,3.571,25.106,1.328C258.881,139.719,263.304,136.47,263.674,129.571z M250.97,108.56
		c0.654-0.396,1.458,0.525,1.649,1.075c0.574,1.667-1.1,1.705-2.069,2.334C250.372,110.703,249.705,109.313,250.97,108.56z
		 M242.941,106.904c0.05-0.624,0.211-1.291,1.001-1.204c0.777,0.08,1.71,0.173,2.241,0.643c0.471,0.419-0.24,1.062-0.604,1.519
		c-0.741,0.927-1.507,1.834-2.261,2.749c-0.197-0.043-0.396-0.086-0.6-0.136C242.793,109.288,242.855,108.096,242.941,106.904z
		 M241.527,115.409c2.854,0.877,3.088-2.724,4.916-3.798c0.858,0.636,0.494,1.544,0.618,2.304c0.222,1.315,0.796,2.347,2.031,2.891
		c0.271,0.117,0.519,0.167,0.741,0.167c0.902,0,1.458-0.822,2.088-1.452c1.772-1.772,4.039-1.371,5.268,1.038
		c0.655,1.279,1.267,2.638,1.526,4.027c0.198,1.074,1.976,2.736-0.123,3.261c-1.52,0.376-3.749,1.007-4.435-2.069
		c-0.661-2.964-2.112-4.447-4.299-4.354v0.006c-0.97,0.031-2.082,0.39-3.336,1.056c-2.934,1.563-5.817,0.766-8.721,1.025
		c-1.05,0.093-2.692-3.706-2.05-4.737c1.049-1.699,2.26-3.298,3.785-5.485C239.785,112.006,239.075,114.655,241.527,115.409z
		 M248.018,121.622c2.348-1.204,3.298-0.241,3.786,1.89c0.587,2.569-0.686,3.613-2.965,3.978c-2.168,0.352-3.311-0.704-3.688-2.73
		c-0.092-0.476-0.03-1.068,0.538-1.31c0.42-0.179,0.79,0.025,1.049,0.396c0.891,1.272,2.138,2.1,3.2,0.575
		C251.112,122.734,248.914,122.499,248.018,121.622z M235.504,105.737c0.297-1.451,1.477-1.458,2.409-1.068
		c1.247,0.519,0.29,1.377-0.087,1.976c-0.809,1.285-1.717,2.501-2.581,3.75c-0.198-0.062-0.396-0.118-0.6-0.179
		C234.93,108.72,235.202,107.225,235.504,105.737z M233.64,118.67c0.629,1.569,0.723,3.391-1.131,4.317
		c-1.858,0.926-3.959,1.6-5.75-0.074c-1.358-1.278-0.797-2.576,0.815-3.805c0.513,1.192,0.926,3.051,2.668,1.983
		c1.976-1.211-0.327-2.106-0.797-3.323C231.169,117.602,232.836,116.675,233.64,118.67z M230.329,105.397
		c-0.777,2.292-1.562,4.151-3.459,6.232C226.618,108.467,226.692,106.151,230.329,105.397z M213.881,118.145
		c-0.734-0.136-1.945-0.074-1.835-1.155c0.105-1.093,1.205-1.673,2.212-1.859c1.229-0.229,0.654,0.958,0.933,1.458
		C215.247,117.558,215.037,118.349,213.881,118.145z M228.958,137.421c-4.317-2.297-7.591-5.898-10.142-10.092
		c-1.605-2.644-1.489-5.441-0.877-8.356c0.407-1.946,1.407-2.236,3.094-1.754c0.988,0.278,2.316,1.439,2.965-0.043
		c0.673-1.55-1.057-1.933-2.026-2.563c-0.507-0.333-1.087-0.556-1.68-0.846c0.587-1.594,1.668-2.637,3.2-3.972
		c0.45,2.156,0.542,4.243,2.377,5.528c0.89,0.617-0.117,1.248-0.457,1.791c-2.761,4.434-2.822,6.157-0.216,8.227
		c2.562,2.044,7.714,1.68,10.104-1.099c1.34-1.55,2.828-1.896,4.576-1.927c1.39-0.025,2.538,0.191,2.477,2.187
		c-0.08,2.606,1.427,4.626,3.762,5.484c2.495,0.914,5.071,0.476,7.232-1.315c0.697-0.575,1.118-1.445,2.112-1.717
		c3.663-0.988,5.23,0.427,4.521,4.157c-0.445,2.353-1.563,4.384-3.768,5.335C247.277,140.299,238.155,142.325,228.958,137.421z"/>
	<path fill="#1CA0CF" d="M246.344,133.431c-3.798,0.791-7.652,1.965-11.334-0.463c-0.753-0.494-1.37-0.291-1.84,0.414
		c-0.556,0.84-0.396,1.594,0.444,2.106c1.971,1.192,4.052,2.02,6.442,2.038c2.334-0.37,4.675-0.673,6.984-1.154
		c1.156-0.235,2.879-0.525,2.582-2.051C249.266,132.523,247.697,133.147,246.344,133.431z"/>
	<path fill="#1CA0CF" d="M235.974,130.627c1.229,0.024,2.193-0.599,1.908-1.544c-0.396-1.303-1.723-2.192-3.045-2.341
		c-1.007-0.111-1.451,1.038-1.371,1.989C233.596,130.325,234.943,130.405,235.974,130.627z"/>
	<path fill="#1CA0CF" d="M237.011,172.392c-1.791-0.754-3.724-1.167-5.576-1.766c-8.258-2.668-16.677-4.478-25.385-4.632
		c-1.229-0.02-3.193-0.285-3.144,1.469c0.043,1.569,1.821,1.014,3.014,1.057c1.847,0.067,3.693,0.136,5.54,0.284
		c2.978,0.229,5.941,0.654,8.882,1.562c-1.341,2.304-2.242,4.7-2.798,7.195c-0.327,1.476-0.927,1.977-2.508,1.927
		c-6.134-0.197-6.405-0.605-3.279-5.861c0.104-0.173,0.216-0.352,0.309-0.53c0.426-0.828,1.723-1.649,0.383-2.589
		c-0.377-0.271-0.747-0.414-1.1-0.444c-0.777-0.067-1.47,0.401-1.977,1.31c-1.254,2.242-2.495,4.49-3.779,6.72
		c-1.211,2.106-0.377,3.069,1.791,3.279c2.76,0.266,5.62,0.136,8.264,0.835c2.779,0.734,4.595,0.574,5.38-2.78
		c0.062,2.649,1.272,4.021,3.688,4.312c1.006,0.117,2.057,0.185,3.001,0.524c5.941,2.131,6.881,1.711,9.042-4.212
		c0.433-1.18,0.853-2.348,0.278-3.583c-0.303-0.654-0.259-0.957,0.5-1.383C239.803,173.819,238.191,172.898,237.011,172.392z
		 M234.473,175.733c-0.901,2.365-0.655,5.719-3.645,6.559c-2.204,0.618-5.792-1.815-5.73-3.125c0.907-2.31-0.562-5.979,2.112-6.898
		C229.6,171.447,234.85,174.758,234.473,175.733z"/>
	<path fill="#1CA0CF" d="M230.02,198.135c-2.062-0.031-2.316-1.087-2.05-2.761c0.154-1.007,0.117-2.044,0.197-3.749
		c0-0.957,0.024-2.595-0.006-4.23c-0.025-1.019-0.402-1.804-1.601-1.841c-1.241-0.031-1.519,0.815-1.63,1.797
		c-0.056,0.513-0.074,1.025-0.099,1.538c-0.291,4.979-0.037,10.012-2.082,14.78c-0.747,1.748,0.463,2.644,2.168,2.835
		c2.718,0.29,4.713-1.155,6.517-2.872c0.908-0.865,2.229-1.681,1.643-3.311C232.577,198.913,231.404,198.159,230.02,198.135z
		 M230.174,202.482c-1.408,1.144-3.106,1.415-5.23,1.631c0.963-2.168,2.31-3.292,4.268-3.638c0.58-0.099,1.309-0.247,1.63,0.438
		C231.157,201.587,230.644,202.1,230.174,202.482z"/>
	<path fill="#1CA0CF" d="M200.219,139.762c2.273-0.976,3.669,0.556,4.936,2.631c1.402,2.292,3.112,4.416,5.263,6.004
		c1.438,1.056,1.129,1.877,0.406,3.026c-2.075,3.311-4.101,6.646-6.694,9.598c-0.772,0.889-2.434,1.871-0.661,3.248
		c1.507,1.174,2.329,0.341,3.403-1.037c5.769-7.43,10.395-15.521,14.613-23.884c0.778-1.544,0.71-2.471-0.754-3.292
		c-1.581-0.883-1.958,0.438-2.458,1.408c-1.458,2.829-2.896,5.664-4.305,8.518c-0.624,1.259-1.205,1.42-2.236,0.314
		c-3.365-3.601-6.447-7.251-5.472-12.735c0.234-1.297,0.099-2.668,0.08-4.002c-0.062-3.755-0.531-7.399-3.132-10.388
		c-0.426-0.488-0.846-0.933-0.062-1.476c3.225-2.23,1.902-5.077,0.896-7.745c-1.037-2.749-3.198-3.86-5.213-2.971
		c-4.069,1.791-5.046,3.656-3.625,6.887c0.642,1.47,1.698,2.649,3.057,3.366c1.619,0.846,1.502,1.42,0.328,2.643
		c-3.286,3.422-5.177,7.536-5.979,12.267c-0.451,2.631,1.271,4.398,2.093,6.411C195.415,140.305,197.946,139.799,200.219,139.762z
		 M196.797,111.962c0.284-2.007,1.668-2.94,3.373-3.045c2.934,0.124,3.409,2.254,3.538,4.12c0.148,2.014-1.314,3.168-3.341,3.237
		C198.558,116.335,196.52,113.92,196.797,111.962z M201.35,122.573c1.414,0.618,1.217,2.162,1.39,3.403
		c0.42,2.94-1.884,1.834-3.256,2.149c-0.746-0.247-1.896,0.815-2.272-0.618C196.958,126.514,200.535,122.221,201.35,122.573z
		 M195.699,135.494c0.142-3.162,1.544-4.236,5.657-4.446c1.81-0.086,1.396,1.013,1.408,1.952c0.037,3.057-0.938,3.916-4.614,3.941
		C197.54,136.372,195.575,138.094,195.699,135.494z"/>
	<path fill="#1CA0CF" d="M200.708,93.668c0.723,0.043,1.451,0.105,2.162,0.012c4.769-0.587,8.758,0.506,11.204,5.064
		c0.346,0.636,0.877,1.371,1.686,0.871c1.019-0.63,0.333-1.408-0.105-2.094c-2.562-3.965-5.682-6.88-10.11-5.8
		c-2.149,0-3.489-0.012-4.824,0.006c-0.604,0.006-1.364-0.068-1.445,0.76C199.181,93.464,199.96,93.625,200.708,93.668z"/>
	<path fill="#1CA0CF" d="M211.88,184.133c-1.513-0.562-1.995,0.643-2.328,1.724c-0.871,2.835-1.816,5.663-2.427,8.555
		c-0.439,2.062-0.909,3.18-3.479,2.97c-2.922-0.24-6.46,2.094-6.546,3.645c-0.105,1.884,3.082,3.682,7.151,3.768
		c1.996-0.037,4.076-0.401,4.713-3.509c1.001-4.879,2.322-9.696,3.526-14.538C212.733,185.758,213.258,184.646,211.88,184.133z
		 M201.343,201.643c2.49-2.124,2.922-2.18,5.701-0.556C204.988,202.285,203.265,202.711,201.343,201.643z"/>
	<path fill="#1CA0CF" d="M208.453,102.124c0.364,0.389,0.951,0.408,1.371-0.019c0.451-0.451,0.297-0.963-0.086-1.34
		c-1.884-1.859-3.596-4.058-6.604-3.601c-0.723,0-1.34-0.031-1.951,0.006c-0.55,0.031-1.013,0.29-0.982,0.908
		c0.025,0.574,0.451,1.025,0.988,0.951C204.241,98.628,206.482,100.005,208.453,102.124z"/>
	<path fill="#1CA0CF" d="M200.25,101.685c0.636,2.267,3.132,0.482,4.527,1.544c0.524,0.401,1.414-0.068,1.297-0.76
		c-0.371-2.199-2.415-1.377-3.656-1.902C201.473,100.703,199.929,100.518,200.25,101.685z"/>
	<path fill="#1CA0CF" d="M187.398,104.032c-1.822-0.716-6.121,1.495-7.461,3.805c-1.353,2.334-2.292,4.682,0.067,6.93
		c0.797,0.766,1.798,1.322,2.848,2.075c-3.342,2.038-4.626,5.454-6.275,8.628c-0.377,0.716-0.358,1.723-1.772,1.729
		c-4.818,0.031-6.393,1.97-4.879,6.448c1.099,3.267-0.025,5.275-2.576,6.973c-4.984,3.329-10.506,5.596-15.941,8.048
		c-1.39,0.63-1.711,0.136-2.063-1.057c-0.71-2.358-1.5-4.694-2.341-7.01c-0.926-2.557-1.513-4.966,0.643-7.331
		c0.772-0.853,1.087-2.205,1.371-3.391c0.568-2.372,1.143-4.206,4.323-4.435c2.711-0.198,4.342-3.261,3.607-5.503
		c-0.821-2.532-2.996-3.144-4.947-2.168c-2.613,1.316-3.07-0.025-3.731-1.933c-0.371-1.081-0.908-2.044-0.395-3.23
		c0.271-0.63,0.08-1.433-0.698-1.34c-2.087,0.241-2.829-1.477-3.94-2.563c-2.885-2.816-5.806-5.478-9.802-6.726
		c-8.109-2.526-15.558,0.179-22.655,3.36c-9.338,4.182-15.645,13.989-12.507,27.275c0.414,1.748,0.648,2.958-1.649,3.501
		c-1.482,0.347-2.613,1.6-3.385,2.989c-1.544,2.779-0.068,5.121,3.101,5.194c2.44,0.062,3.773-1.501,5.058-3.298
		c0.803,1.05,1.427,1.865,2.044,2.674c4.07,5.324,8.851,9.191,16.164,8.091c7.992-1.21,14.817-4.805,20.722-10.172
		c2.013-1.828,2.896-1.575,3.706,0.951c2.187,6.855,4.607,13.632,6.745,20.506c1.717,5.521,4.435,10.617,6.405,16.027
		c0.5,1.365,1.507,1.611,2.724,1.099c1.198-0.5,1.34-1.413,0.821-2.532c-0.654-1.396-1.173-2.859-1.908-4.212
		c-3.422-6.281-5.071-13.229-7.572-19.864c-0.358-0.938-1.075-1.927,0.902-2.477c5.466-1.519,10.487-4.175,15.428-6.923
		c2.347-1.304,5.732-2.935,5.954-5.04c0.47-4.392,3.113-2.526,5.058-2.675c1.834-0.142,3.694,0.105,5.541,0.05
		c1.278-0.037,2.495-0.34,2.501,1.637c0,1,0.97,1.235,1.804,1.315c1.111,0.117,1.427-0.68,1.476-1.55
		c0.371-6.134,1.508-12.347-0.746-18.313c-0.871-2.304-2.199-4.163,1.438-5.016c0.834-0.191,1.087-1.18,1.272-1.995
		C192.457,110.085,189.762,104.958,187.398,104.032z M150.234,122.524c0.427-0.926,1.192-1.575,2.218-1.772
		c0.426-0.081,0.828,0.253,0.648,0.704c-0.389,0.982-1.161,1.569-2.007,1.791C150.414,123.24,150.056,122.919,150.234,122.524z
		 M139.587,109.906c-3.601-0.914-5.812-2.477-7.609-4.657C134.948,105.644,137.233,107.059,139.587,109.906z M110.867,108.566
		c0.611-0.377,1.334-0.853,1.982-0.365c0.865,0.655,0.303,1.525-0.043,2.224c-2.181,4.385-5.603,7.399-10.259,9.091
		C103.999,114.797,106.723,111.123,110.867,108.566z M100.534,139.491c-1.315,1.062-2.81,1.828-4.854,1.6
		c1.05-2.063,2.415-2.823,4.175-2.755C100.386,138.354,100.812,139.274,100.534,139.491z M101.041,124.191
		c0.111-1.618,0.636-2.458,2.427-2.162c2.106,0.34,3.527-1.278,5.262-1.989c4.231-3.49,7.85-7.387,8.727-13.112
		c0.08,6.238-3.434,10.339-8.128,13.749c-2.439,2.687-5.064,5.164-8.128,7.708C100.688,126.73,100.954,125.477,101.041,124.191z
		 M143.212,133.957c-1.384,2.087-3.169,3.959-5.269,5.441c-0.531-0.254-0.667-0.729-0.698-1.26c0.784-1.205,0.469-2.205-0.717-2.817
		c-1.291-0.673-1.772,0.463-2.377,1.285c-2.557,3.496-7.443,5.324-10.419,3.805c-1.007-0.507-1.989-1.581-2.786-0.013
		c-0.871,1.705,0.865,2.106,1.803,2.595c3.243,1.686,6.393,0.53,9.5-0.624c0.407,0.197,0.821,0.395,1.229,0.593
		c-3.792,2.699-8.066,4.366-12.488,5.627c-4.324,1.229-8.208,0.593-11.543-2.811c-3.045-3.112-5.67-6.405-6.918-10.642
		c-0.864-1.513-1.143-3.211-1.6-5.083c2.354,0.248,3.842-1.118,5.343-2.563c1.92-1.853,3.916-3.619,5.941-5.355
		c4.354-3.73,7.294-8.276,8.326-13.977c0.136-0.759,0.025-2.02,1.124-1.797c1.254,0.26,0.698,1.514,0.488,2.304
		c-2.699,10.147-8.764,17.701-17.985,22.611c-2.372,1.26-1.785,1.939-0.105,3.001c5.559-1.445,9.382-5.392,13.026-9.406
		c4.157-4.595,7.294-9.864,8.561-16.12c1.365,0.488,1.377,1.686,1.828,2.526c2.736,5.071,7.121,8.122,12.315,10.172
		c1.878,0.748,3.811,0.933,5.46-0.679c-0.08-1.594-0.161-2.545-2.489-2.014c-3.792,0.865-10.629-4.311-12.81-9.19
		c-0.259-0.586-0.902-1.179-0.396-2.081c3.645,3.341,7.949,5.25,12.643,6.59c3.168,0.902,3.62,3.805,3.693,6.683
		C147.418,125.649,145.843,129.973,143.212,133.957z M179.93,124.519c0.445-0.92,0.938-1.834,1.557-2.644
		c0.982-1.297,2.112-3.107,3.755-2.749c1.841,0.402,1.354,2.724,1.816,4.212c0.507,1.637-0.21,2.446-2.001,2.452
		c-1.316,0.006-2.631,0.309-3.472,0.414C179.46,126.539,179.369,125.686,179.93,124.519z M183.902,133.654
		c-0.5-0.068-1.025-0.013-1.538-0.013c0-0.012,0-0.024,0-0.037c-0.821,0-1.649-0.019-2.471,0c-1.094,0.024-2.118,0.024-2.007-1.55
		c0.081-1.155,0.037-2.316,1.619-2.501c1.427-0.173,2.859-0.63,4.262-0.544c1.191,0.081,3.229-1.605,3.471,1.329
		C187.441,132.857,186.484,134.006,183.902,133.654z M185.193,114.013c-3.366-0.019-5.12-1.637-4.651-4.669
		c0.247-1.612,1.835-2.631,3.62-2.693c3.229-0.124,4.749,1.136,4.805,3.811C189.022,113.247,187.688,114.421,185.193,114.013z"/>
	<path fill="#1CA0CF" d="M166.626,100.765c4.107-3.218,8.98-4.23,13.983-4.892c0.735-0.099,1.853-0.167,1.562-1.371
		c-0.204-0.865-1.1-0.729-1.594-0.735c-3.539,0.574-6.898,1.019-10.005,2.434c-1.76,0.796-3.644,1.408-5.077,2.792
		c-0.463,0.445-0.797,1.062-0.457,1.655C165.428,101.314,166.095,101.179,166.626,100.765z"/>
	<path fill="#1CA0CF" d="M180.45,99.252c-0.18-0.148-0.458-0.544-0.785-0.587c-3.137-0.414-6.126,0.167-8.961,1.532
		c-0.463,0.222-0.778,0.71-0.531,1.291c0.247,0.575,0.791,0.692,1.285,0.488c2.606-1.068,5.312-1.519,8.115-1.513
		C180.147,100.462,180.499,100.085,180.45,99.252z"/>
	<path fill="#1CA0CF" d="M177.25,101.871c-1.124,0.389-2.909,0.352-3.36,2.217c-0.167,0.686,0.877,1.284,1.186,0.914
		c1.143-1.377,3.849,0.019,4.175-2.353C179.356,101.852,178.324,101.722,177.25,101.871z"/>
	<path fill="#1CA0CF" d="M160.568,199.914c-2.86,0.271-5.176,1.772-7.628,3.884c-0.568-3.477-2.347-6.646,0.958-9.251
		c0.284-0.223,0.389-0.723,0.482-1.112c0.809-3.316,0.568-7.344,5.583-7.684c0.624-0.043,1.439-0.988,0.791-1.958
		c-0.537-0.796-1.285-1.544-2.279-0.691c-1.322,1.143-2.983,1.372-4.546,1.778c-8.554,2.242-17.09,4.553-25.175,8.203
		c-2.452,1.111-3.02,0.611-3.397-2.002c-1.735-11.988-3.724-23.938-5.589-35.908c-0.253-1.625-1.254-2.465-2.73-2.292
		c-1.779,0.204-1.414,1.667-1.21,2.903c0.303,1.859,0.963,3.682,0.796,5.689c-9.382-4.133-14.848-4.7-24.68-2.342
		c-1.582,0.384-2.551-0.079-3.539-1.062c-1.525-1.514-3.416-1.841-5.429-1.575c-1.272,0.166-3.545,2.267-2.582,3.342
		c0.97,1.08,1.587,0.364,2.365,0.154c1.692-0.444,3.496-0.39,4.033,1.02c0.686,1.803-1.229,2.05-2.229,2.724
		c-0.828,0.556-1.896-0.841-2.779-1.322c-0.766-0.42-1.278-2.692-1.804-1.341c-0.438,1.143,0.216,4.373,1.02,4.799
		c2.779,1.482,5.219,0.421,7.412-1.277c1.482-1.155,3.039-1.958,4.811-2.612c8.319-3.095,15.947-0.674,23.52,2.625
		c0.871,0.376,0.84,1.11,0.963,1.766c2.044,10.593,4.212,21.166,4.676,31.987c0.049,1.235-0.204,2.631,1.704,2.594
		c1.544-0.031,2.199-0.871,2.094-2.396c-0.062-0.89-0.383-2.038,1.031-2.1c1.26-0.056,1.31,1.074,1.507,1.964
		c0.401,1.778,1.192,2.946,3.335,2.835c3.823-0.197,3.866-0.062,3.805,3.897c-0.025,1.784-0.445,3.446-1.235,5.04
		c-0.611,1.229-1.186,1.63-2.563,0.729c-3.823-2.483-7.245-1.562-9.87,2.291c-1.217,1.785-0.574,2.879,1.038,3.7
		c2.903,1.482,9.32-0.006,11.593-2.348c3.323-3.421,4.472-7.479,4.219-12.117c-0.056-1.044-0.729-2.545,0.624-3.064
		c2.582-0.981,1.97-2.958,1.958-4.872c0-1.101-0.791-2.311,0.29-3.552c1.167,1.26,1.452,2.649,1.507,4.052
		c0.049,1.291,0.821,2.155,1.847,2.038c3.693-0.401,3.774,2.278,4.151,4.632c0.37,2.328,0.537,4.694,0.772,7.042
		c0.099,0.976-0.291,2.211,1.235,2.39c1.124,0.136,1.982-0.26,2.427-1.42c0.241-0.644,0.191-1.798,1.458-1.305
		c3.446,1.348,5.868-0.642,8.146-2.661c1.143-1.013,1.908-2.428,1.062-4.156C163.662,199.827,162.143,199.766,160.568,199.914z
		 M127.432,214.822c-0.704-0.142-1.84,0.181-1.686-0.808c0.179-1.112,1.149-1.959,2.39-1.952c0.951,0.013,2.106,0.723,1.952,1.538
		C129.859,214.835,128.401,214.632,127.432,214.822z M133.775,198.123c-2.075,0.062-1.637-1.538-1.878-2.509
		c-0.277-1.111,4.379-3.729,6.412-3.606c1.667,0.099,1.241,1.557,1.458,2.439C139.815,196.856,137.654,198.005,133.775,198.123z
		 M151.476,190.087c-0.408,1.785,0.167,4.473-2.699,4.676c-2.854,0.203-2.729-2.681-2.909-4.163
		c-0.185-1.525,1.803-2.032,3.558-1.859C150.241,188.846,151.921,188.117,151.476,190.087z M160.543,204.799
		c-1.408,1.144-3.107,1.414-5.231,1.631c0.964-2.168,2.31-3.292,4.268-3.638c0.581-0.099,1.309-0.247,1.63,0.438
		C161.525,203.903,161.012,204.416,160.543,204.799z"/>
	<path fill="#1CA0CF" d="M145.25,120.77c0.216-0.006,0.426-0.006,0.642-0.013C145.67,120.467,145.46,120.474,145.25,120.77z"/>
	<path fill="#1CA0CF" d="M131.897,125.13c-1.643,0.13-2.995,0.772-3.873,2.192c-0.414,0.661-0.414,1.427,0.198,1.97
		c1.328,1.192,2.217-0.074,3.23-0.642c0.259-0.142,0.586-0.191,0.889-0.216c1.069-0.093,2.304-0.235,2.174-1.588
		C134.38,125.47,132.972,125.427,131.897,125.13z"/>
	<path fill="#1CA0CF" d="M123.905,134.413c-0.309-0.796-1.377-0.821-2.162-0.321c-0.827,0.525-0.871,1.47-0.556,2.198
		c0.84,1.939,2.563,2.545,4.521,2.409c0.741-0.056,1.192-0.735,1.167-1.161C126.79,135.266,124.479,135.883,123.905,134.413z"/>
	<path fill="#1CA0CF" d="M117.124,131.653c-0.661-0.26-1.371-0.377-2.02-0.543c-2.205,0.352-3.403,1.809-4.361,3.57
		c-0.5,0.901-1.161,1.772,0.241,2.532c1.192,0.648,2.119,0.16,2.532-0.84c0.648-1.569,1.662-2.193,3.304-2.082
		c0.753,0.049,1.476-0.272,1.569-1.118C118.488,132.32,117.791,131.912,117.124,131.653z"/>
	<path fill="#1CA0CF" d="M108.73,120.041c0.198,0.21,0.401,0.42,0.599,0.636C109.459,120.152,109.329,119.88,108.73,120.041z"/>
	<path fill="#1CA0CF" d="M104.061,134.277c-0.803-0.234-1.581-0.432-1.532,0.858C102.844,134.506,103.437,134.364,104.061,134.277z"
		/>
	<circle fill="#1CA0CF" cx="182.571" cy="109.794" r="0.806"/>
	<circle fill="#1CA0CF" cx="185.524" cy="109.794" r="0.806"/>
	<circle fill="#1CA0CF" cx="198.627" cy="111.969" r="0.806"/>
	<circle fill="#1CA0CF" cx="201.343" cy="111.969" r="0.806"/>
</g>
</svg>
