<?xml version="1.0" encoding="utf-8"?>
<!-- Generator: Adobe Illustrator 16.0.0, SVG Export Plug-In . SVG Version: 6.00 Build 0)  -->
<!DOCTYPE svg PUBLIC "-//W3C//DTD SVG 1.1//EN" "http://www.w3.org/Graphics/SVG/1.1/DTD/svg11.dtd">
<svg version="1.1" id="Layer_1" xmlns="http://www.w3.org/2000/svg" xmlns:xlink="http://www.w3.org/1999/xlink" x="0px" y="0px"
	 width="220px" height="160px" viewBox="0 0 220 160" enable-background="new 0 0 220 160" xml:space="preserve">
<g>
	<g>
		<path fill-rule="evenodd" clip-rule="evenodd" fill="#27A3CB" d="M74.675,105.09c-0.205-0.759-0.766-1.325-1.198-1.926
			c-0.742-1.03-1.363-1.899-1.973-3.142c-1.104-1.234-1.654-2.294-2.555-3.412c-0.737-0.916-1.208-1.974-1.779-2.979
			c-1.103-1.939-2.391-3.76-3.66-5.589c-0.464-0.669-0.396-1.309,0.135-1.718c1.018-0.784,2.115-1.529,3.547-1.057
			c0.264,0.087,0.452,0.221,0.581,0.45c1.512,2.711,3.583,5.068,5.026,7.811c0.975,1.854,2.605,3.155,3.723,4.872
			c0.201,0.31,0.502,0.647,0.991,0.442c0.458-0.192,0.712-0.538,0.78-1.024c0.306-2.191,0.777-4.356,1.364-6.483
			c0.731-2.65,1.22-5.357,1.968-8.001c0.244-0.861,0.532-1.709,0.96-2.518c0.456-0.858,0.398-1.882,0.681-2.818
			c0.583-1.933,1.06-3.893,1.809-5.777c0.306-0.769,0.436-1.617,0.659-2.427c0.767-2.778,1.914-5.415,3.018-8.057
			c0.786-1.882,1.913-3.627,2.951-5.396c0.347-0.593,0.334-1.304,0.791-1.85c1.461-1.747,2.871-3.537,4.34-5.276
			c1.78-2.108,3.48-4.304,5.438-6.234c1.641-1.62,3.253-3.291,5.405-4.395c1.63-0.836,3.241-1.513,5.022-1.864
			c0.624-0.123,1.239-0.047,1.857-0.088c1-0.066,1.973-0.344,3.011-0.193c0.741,0.107,1.403,0.277,2.076,0.605
			c0.796,0.389,1.693,0.523,2.451,1.063c1.557,1.108,3.177,2.127,4.742,3.225c0.382,0.268,0.73,0.651,0.963,1.058
			c1.215,2.117,2.51,4.206,3.065,6.627c0.125,0.546,0.183,1.112,0.217,1.672c0.049,0.821,0.502,1.234,1.271,1.318
			c1.188,0.131,2.306,0.494,3.358,1.035c1.319,0.677,2.195,1.85,3.043,3.001c1.002,1.361,1.876,2.916,2.257,4.491
			c0.543,2.25,1.512,4.51,0.954,6.948c-0.149,0.65-0.13,1.346-0.137,2.021c-0.008,0.685,0.604,1.143,1.528,1.295
			c1.219,0.198,2.475,0.289,3.588,0.897c2.28,1.246,4.631,2.376,6.406,4.38c0.837,0.945,1.482,1.943,1.897,3.15
			c0.571,1.661,1.036,3.357,1.191,5.083c0.199,2.215,0.61,4.43,0.145,6.691c-0.307,1.491-0.154,3.057-0.511,4.565
			c-0.686,2.907-1.452,5.773-3.194,8.272c-0.199,0.285-0.397,0.448-0.612,0.714c-0.464,0.578-0.648,0.617-1.091,1.205
			c-0.818,0.53-2.205,0.753-3.175,0.845c-0.518,0.049-0.974,0.171-1.447,0.379c-1.888,0.826-3.842,1.329-5.92,1.519
			c-1.589,0.145-3.014-0.176-4.516-0.566c-1.885-0.489-2.041-0.178-2.239,1.785c0.307,1.924,0.335,2.239,0.393,4.363
			c0.298,1.231,0.123,3.599-0.016,4.876c-0.095,0.88-0.002,1.781,0.039,2.671c0.048,1.033-0.251,1.375-1.276,1.454
			c-0.418,0.032-0.84,0.103-1.245,0.213c-1.708,0.462-3.419,0.268-5.159,0.241c-2.468-0.037-4.89-0.518-7.349-0.501
			c-0.794,0.006-1.352-0.079-2.329,0.114c-1.12,0-0.933,0.104-2.066-0.028c-0.586-0.068-1.054,0.051-1.566-0.189
			c-0.499-0.233-0.376-0.207-0.625-1.161c0.052-0.122-0.254-2.509-0.397-3.554c-0.169-1.235-0.222-2.473-0.277-3.717
			c-0.042-0.943-0.141-3.312-0.059-3.562c0.096-2.468-0.417-3.173-2.31-3.144c-1.807,0.027-3.606,0.212-5.418,0.2
			c-2.552-0.018-5.018-0.459-7.457-1.147c-0.596-0.168-1.04-0.547-1.453-0.984c-0.593-0.626-0.343-1.938,0.202-2.43
			c1.037-0.636,3.41-0.899,3.864-0.755c1.449,0.463,2.929,0.893,4.468,0.844c1.773-0.058,3.556,0.096,5.319-0.189
			c0.512-0.082,0.99-0.012,1.497,0.097c0.8,0.171,1.619,0.049,2.438-0.005c2.132-0.141,2.999,0.607,3.291,2.564
			c0.39,2.608,0.26,5.215,0.372,7.823c0.054,1.264,0.154,2.529,0.232,3.795c0.049,0.797,0.57,1.129,1.361,1.18
			c2.603,0.166,5.216,0.063,7.818,0.377c0.95,0.114,2.029,0.467,2.896-0.42c0.503-0.516,0.501-0.728,0.419-1.742
			c-0.123-1.975-0.431-3.173-0.206-4.772c0.131-0.936-0.054-1.853-0.083-2.777c-0.01-0.309-0.023-2.372-0.035-2.662
			c-0.077-1.943-0.671-1.982,0-3.645c0.174-0.431,2.018-0.453,2.478-0.525c0.709-0.109,2.484,0.075,3.406,0.152
			c2.325,0.717,2.915,1.23,4.65,1.566c0.979,0.189,1.958-0.15,2.916-0.334c1.044-0.199,2.068-0.517,3.02-1.043
			c0.351-0.194,0.821-0.16,1.216-0.292c0.724-0.243,1.259-0.763,1.678-1.374c1.52-2.223,2.703-4.633,2.775-7.342
			c0.03-1.116-0.015-2.252,0.291-3.295c0.295-1.008,0.267-1.907,0.006-2.883c-0.196-0.729-0.412-1.508-0.344-2.24
			c0.113-1.213-0.206-2.355-0.495-3.459c-0.44-1.681-1.512-3.036-2.778-4.264c-1.468-1.424-3.318-1.857-5.153-2.494
			c-1.888-0.654-3.52,0.015-5.214,0.467c-0.757,0.203-1.373,0.043-2.023-0.227c-0.208-0.087-0.396-0.223-0.608-0.292
			c-1.199-0.392-1.286-0.612-0.712-1.735c0.383-0.752,1.076-1.227,1.605-1.847c0.357-0.418,0.609-0.857,0.759-1.392
			c0.6-2.129,0.36-4.227,0.022-6.375c-0.31-1.972-1.338-3.6-2.241-5.247c-0.774-1.413-2.027-2.497-4.001-2.333
			c-1.136,0.095-2.354-0.115-3.402-0.799c-0.671-0.437-1.112-0.924-0.991-1.785c0.285-2.029,0.015-4.008-0.795-5.873
			c-0.7-1.612-1.611-3.096-3.179-4.069c-0.642-0.398-1.175-0.968-1.798-1.401c-2.865-1.995-5.902-2.158-9.15-0.994
			c-1.312,0.47-2.322,1.248-3.254,2.186c-2.331,2.342-4.725,4.642-6.79,7.218c-3.211,4.007-6.137,8.222-8.194,12.967
			c-1.604,3.701-2.889,7.516-3.996,11.395c-0.794,2.784-1.725,5.528-2.519,8.312c-0.43,1.508-0.651,3.073-1.059,4.589
			c-0.416,1.548-0.658,3.14-1.198,4.657c-0.541,1.522-0.712,3.131-0.959,4.713c-0.459,2.952-0.667,5.932-0.733,8.92
			c-0.034,1.525,0.26,3.021,0.466,4.52c0.207,1.512-0.321,2.61-1.784,2.801c-0.843,0.111-1.634-0.501-2.322-1.039
			c-1.005-0.785-1.348-1.969-1.789-3.089c-0.099-0.56-0.377-1.022-0.773-1.423c-0.036-0.088-0.071-0.177-0.106-0.266
			C75.88,106.818,75.286,105.95,74.675,105.09z"/>
	</g>
</g>
</svg>
