<?xml version="1.0" encoding="utf-8"?>
<!-- Generator: Adobe Illustrator 16.0.0, SVG Export Plug-In . SVG Version: 6.00 Build 0)  -->
<!DOCTYPE svg PUBLIC "-//W3C//DTD SVG 1.1//EN" "http://www.w3.org/Graphics/SVG/1.1/DTD/svg11.dtd">
<svg version="1.1" id="Layer_1" xmlns="http://www.w3.org/2000/svg" xmlns:xlink="http://www.w3.org/1999/xlink" x="0px" y="0px"
	 width="219.999px" height="160px" viewBox="68.101 74.5 219.999 160" enable-background="new 68.101 74.5 219.999 160"
	 xml:space="preserve">
<g>
	<path fill="#1CA0CF" d="M277.751,173.021c-0.577-0.017-1.155-0.029-1.734-0.042c-7.218-0.136-14.439-0.109-21.652,0.225
		c-0.672,0.029-1.592,0.407-1.943-0.473c-1.431-3.617-4.44-4.029-7.671-3.727c-5.228,0.486-10.432,1.146-15.68,1.415
		c-1.896,0.1-3.393,1.184-4.225,2.967c-0.842,1.808-1.153,3.769-1.054,5.703c0.187,3.509,1.899,4.445,4.784,2.729
		c1.049-0.625,1.474-0.687,1.548,0.697c0.083,1.518,0.456,2.992,1.081,4.389c0.744,1.666,2.177,2.365,3.703,1.653
		c1.439-0.672,2.498-0.885,3.826,0.122c0.711,0.537,1.539,0.143,1.994-0.672c0.417-0.743,0.785-1.506,1.297-2.495
		c1.25,3.218,2.16,3.439,4.485,1.275c0.425-0.396,0.733-0.572,1.31-0.325c2.025,0.872,3.114-0.403,4.008-1.896
		c1.205-2.013,1.17-4.294,1.133-6.523c-0.022-1.274,0.308-1.674,1.66-1.782c6.848-0.556,13.701-0.382,20.558-0.312
		c0.794,0.004,1.588,0.07,2.382,0.065c0.976,0,2.003-0.108,2.052-1.366C279.66,173.472,278.828,173.047,277.751,173.021z
		 M230.141,175.774c0.03,1.276-0.221,2.2-1.712,2.764c-1.779,0.673-2.001,0.061-1.844-1.227c0.064-1.394,0.329-2.474,1.565-3.012
		c0.798-0.351,1.722-0.732,2.433-0.146C231.26,174.711,230.125,175.155,230.141,175.774z M250.505,180.984
		c-0.101,1.118-0.21,2.273-1.323,3.207c-1.153-2.001-1.079-4.108-1.262-6.134c-0.086-0.988-0.086-1.852-1.18-2.299
		c-0.641-0.259-1.055-0.052-1.553,0.334c-1.049,0.802-0.481,1.645-0.204,2.525c0.534,1.721,0.243,3.421-0.265,5.295
		c-0.888-1.405-1.036-2.862-1.209-4.312c-0.113-0.929-0.162-1.873-0.352-2.785c-0.244-1.188-0.426-2.797-2.061-2.488
		c-1.626,0.303-0.915,1.842-0.786,2.905c0.326,2.746-0.095,5.417-0.559,8.652c-1.779-2.871-1.225-5.604-1.861-8.089
		c-0.107-0.417-0.057-0.88-0.194-1.279c-0.27-0.764-0.859-1.176-1.684-1.054c-0.811,0.119-0.989,0.745-0.95,1.456
		c0.091,1.869,0.274,3.742,0.265,5.612c-0.009,1.167,0.066,2.915-1.288,3.011c-0.907,0.069-0.815-1.748-1.054-2.759
		c-0.416-1.782-0.286-3.591-0.209-5.396c0.031-0.646,0.266-1.449-0.024-1.917c-1.063-1.73,0.256-1.639,1.23-1.727
		c3.376-0.299,6.745-0.59,10.037-1.475c0.889-0.239,1.853-0.295,2.78-0.304c2.546-0.017,3.448,0.876,3.691,3.396
		C250.673,177.241,250.673,179.115,250.505,180.984z"/>
	<path fill="#1CA0CF" d="M188.292,169.07c-0.499,0.165-0.98,0.26-1.449-0.061c-0.862-0.591-1.613-0.682-2.039,0.49
		c-0.411,1.127,0.049,1.816,1.154,2.111c0.689,0.188,1.401,0.312,1.674,0.373c0.59,0,0.733,0.005,0.876,0
		c0.842-0.021,1.574-0.217,1.908-1.114c0.247-0.664,0.191-1.311-0.211-1.86C189.576,168.142,188.92,168.862,188.292,169.07z"/>
	<path fill="#1CA0CF" d="M220.555,175.42c-1.396,0.013-2.797,0.005-4.319,0.005c0.972-2.434,1.696-4.784-0.221-6.835
		c-1.734-1.856-3.253,0.285-4.996,0.536c-0.604-3.104-1.102-6.223-1.327-9.384c-0.439-6.091-3.245-10.441-9.039-12.835
		c-4.958-2.051-10.076-2.225-15.312-1.965c-2.385,0.117-4.515,1.18-6.827,1.522c-0.594,0.482-1.192,0.959-1.786,1.44
		c1.344,1.293,1.505,2.75,0.789,4.45c-1.171,2.768-1.882,5.729-3.644,8.236c-2.875,4.103-7.308,5.66-11.745,7.195
		c-0.227,0.077-0.525-0.066-1.115-0.156c3.891-2.954,6.987-6.315,9.967-9.798c1.059-1.231,1.774-2.62,2.056-4.212
		c0.182-1.036-0.191-1.96-1.184-2.285c-1.005-0.325-1.21,0.685-1.648,1.322c-4.29,6.333-9.282,11.972-15.939,15.935
		c-0.538,0.529-1.206,0.356-1.839,0.316c-1.119-0.06-2.042,0.156-2.177,1.493c-0.052,0.508-0.234,0.85-0.768,0.807
		c-0.247-0.021-0.603-0.165-0.694-0.355c-0.204-0.434,0.03-1.002,0.347-1.15c1.062-0.485,1.365-1.583,2.092-2.324
		c-0.206,0.38-0.287,0.703-0.214,0.94c-0.096,0.147-0.199,0.286-0.304,0.413c0.139-0.079,0.295-0.136,0.46-0.175
		c0.156,0.136,0.412,0.213,0.79,0.213c0.768,0.005,1.565,0.199,2.307-0.178c-0.72-0.36-1.878,0.377-2.546-0.108h0
		c-0.183-0.13-0.33-0.352-0.417-0.711c0.035-0.079,0.065-0.161,0.091-0.247c0.056-0.188,0.086-0.378,0.086-0.574
		c-0.009-0.029-0.021-0.06-0.03-0.09c0.425-0.355,0.785-0.754,0.937-1.279c-0.16,0.095-0.343,0.173-0.503,0.27
		c-0.087,0.086-0.171,0.174-0.249,0.266c0.078-0.092,0.163-0.181,0.25-0.268c-0.23,0.136-0.425,0.3-0.464,0.578
		c0.034-0.066,0.083-0.124,0.126-0.185c-0.044,0.061-0.092,0.118-0.127,0.185l0,0c0.04-0.278,0.234-0.442,0.464-0.578
		c0.21-0.211,0.428-0.421,0.559-0.683c0,0,0.001-0.001,0.002-0.001c-0.131,0.263-0.35,0.474-0.56,0.684
		c0.16-0.095,0.342-0.173,0.502-0.269l0,0c0.156-0.086,0.294-0.187,0.381-0.325c0.36-0.425,0.676-0.876,0.733-1.438
		c-0.043-0.01-0.086-0.023-0.134-0.035l0,0l0,0c0.048-0.039,0.1-0.083,0.147-0.122v0.001c4.441-3.718,8.848-7.478,13.35-11.117
		c1.657-1.336,3.562-2.364,5.356-3.53c0.239-0.156,0.647-0.243,0.716-0.451c0.833-2.472,2.264-1.353,3.613-0.737l0,0
		c0,0.026,0,0.056,0.004,0.082c0.057,0,0.112-0.004,0.174-0.004c0.594-0.482,1.192-0.958,1.786-1.44h0c0,0,0,0,0,0l0,0c0,0,0,0,0,0
		c-1.075-1.76-2.853-2.277-4.666-2.121c-5.295,0.447-10.279,1.718-14.586,5.205c-5.478,4.438-8.882,10.31-12.131,16.347l0,0
		c-1.375,1.249-1.713,3.105-2.702,4.575c-0.806,1.202-0.416,1.952,0.694,2.646c0.516,0.325,1.648,0.485,1.414,1.097
		c-0.833,2.173,0.512,3.67,1.596,5.443c-6.384,0.248-12.5,0.49-18.611,0.711c-0.455,0.014-1.062,0.165-1.162-0.603
		c-0.091-0.702-0.338-1.366,0.486-1.913c2.659-1.757,2.971-4.458,2.663-7.29c-0.287-2.621-2.412-3.888-4.828-2.82
		c-0.954,0.426-1.284,0.309-1.522-0.59c-0.568-2.169-2.034-3.765-3.409-5.435c-2.008-2.433-2.542-4.041-2.584-7.221
		c-0.009-0.646-0.004-1.336-0.213-1.931c-0.589-1.656-1.054-3.179-3.162-3.938c-4.351-1.574-8.037-0.116-11.433,2.113
		c-3.817,2.507-4.021,6.991-0.907,10.47c0.325,0.364,1.045,0.812,0.768,1.188c-1.458,1.995-1.839,4.324-2.359,6.623
		c-0.022,0.104-0.213,0.238-0.331,0.247c-1.895,0.121-3.525,1.409-5.638,0.846c-3.365-0.902-5.807,1.148-5.816,4.575
		c-0.004,2.194,0.603,4.272,1.414,6.285c0.55,1.376,0.299,1.943-1.345,1.904c-3.826-0.092-7.655,0.03-11.485-0.026
		c-1.254-0.017-2.052,0.742-2.221,1.632c-0.195,1.035,0.868,1.57,1.835,1.77c0.629,0.125,1.293,0.101,1.939,0.104
		c2.381,0.013,4.767-0.018,7.147,0.018c5.977,0.082,12.005,0.828,17.891-0.621c5.447-1.34,10.991-1.904,16.511-1.892
		c9.165,0.019,18.273-1.092,27.459-0.823c4.935,0.144,9.923-0.407,14.902-0.538c15.424-0.395,30.891-0.242,46.196-2.725
		c3.422-0.554,6.866-0.849,10.331-0.888c1.354-0.013,2.368-0.672,2.42-1.956C223.131,175.264,221.727,175.406,220.555,175.42z
		 M104.63,154.394c1.461-2.413,5.895-4.264,8.674-3.627c2.173,0.499,2.797,1.371,2.797,4.385c-0.056,1.856-0.884,3.687-3.201,4.638
		c-2.559,1.044-5.101,1.443-7.469-0.364C103.802,158.175,103.55,156.162,104.63,154.394z M106.361,177.158
		c-2.199,0.396-4.341,0.863-6.415,1.804c-1.592,0.729-1.657,1.362-0.348,2.451c-1.465,0.751-3.066-0.233-4.024,1.271
		c-0.299,0.469-0.725,0.009-0.928-0.42c-1.202-2.555-2.177-5.161-2.056-8.059c0.031-0.694,0.134-1.336,0.859-1.575
		c0.65-0.216,1.392-0.59,1.904,0.283c0.516,0.871,1.175,0.503,1.883,0.285c1.856-0.563,3.716-1.123,5.603-1.561
		c0.612-0.143,1.597-0.503,1.848,0.469c0.23,0.885-0.772,0.91-1.301,1.123c-1.457,0.59-2.962,1.062-4.45,1.587
		c-0.955,0.339-2.229,0.789-1.805,1.931c0.421,1.136,1.827,1.496,2.967,0.915c1.865-0.958,3.808-1.657,5.812-2.243
		c0.802-0.233,1.882-0.806,2.19,0.309C108.408,176.834,107.185,177.012,106.361,177.158z M108.851,172.612
		c-0.607-0.308-0.894-0.624-0.937-1.261c-0.083-1.176-0.785-1.856-1.896-2.021c-1.067-0.156-1.211-0.741-1.111-1.666
		c0.243-2.315,2.234-4.303,4.506-4.332c1.991-0.026,3.951-0.43,5.521-1.562c1.371-0.989,2.251-0.5,3.214,0.321
		c3.643,3.084,4.654,7.451,5.687,11.802c0.221,0.937-0.291,1.322-1.154,1.388c-4.085,0.302-8.067,1.248-12.343,2.129
		C111.379,174.646,111.089,173.74,108.851,172.612z M123.988,180.386c-4.247-0.204-8.423,0.949-12.669,0.634
		c-0.104-0.009-0.2-0.157-0.651-0.534c2.889-1.037,5.635-1.448,8.372-1.878c1.557-0.243,3.136-0.33,4.701-0.529
		c0.933-0.117,1.084,0.403,1.088,1.145C124.833,179.834,124.829,180.425,123.988,180.386z M126.49,171.345
		c0.002,0.08,0.012,0.165,0.031,0.258c0.078,0.375,0.156,0.755,0.237,1.142c-0.081-0.387-0.159-0.767-0.237-1.142
		C126.501,171.511,126.492,171.425,126.49,171.345z M151.282,167.001c-0.1-0.116-0.184-0.224-0.254-0.321
		C151.098,166.777,151.182,166.885,151.282,167.001L151.282,167.001z M168.7,148.264c-4.979,2.52-8.51,7.009-13.324,9.732
		C158.898,153.473,162.671,149.296,168.7,148.264z M147.68,166.151c0.462,0.085,0.712-0.307,1.165-0.859
		c1.797-2.199,2.022-3.058,3.375-2.298c-1.352-0.759-1.577,0.1-3.375,2.298C148.392,165.846,148.143,166.237,147.68,166.151z
		 M152.483,176.787c0.008,0.575-0.151,1.074-0.85,0.854c-0.659-0.213-1.548-0.399-1.604-1.215c-0.043-0.728,0.798-0.706,1.323-0.789
		C152.175,175.511,152.535,175.979,152.483,176.787z M205.229,155.672c-3.292-2.688-6.628-4.749-10.106-6.792
		C198.891,148.151,204.968,152.197,205.229,155.672z M196.914,153.064c2.303,1.589,4.884,2.881,6.841,4.812
		c1.066,1.049,2.463,2.215,2.85,3.908c0.06,0.264,0.095,0.576-0.47,0.823c-2.55-3.396-6.991-3.148-10.439-5.105
		c-4.749-2.698-9.547-5.288-14.026-8.567C183.671,147.865,193.266,150.549,196.914,153.064z M208.046,176.967
		c-4.024,0.838-8.128,1.11-12.213,1.18c-0.282-0.837,0.438-1.279,0.473-1.916c0.049-0.785-0.242-1.458-0.876-1.853
		c-0.52-0.321-1.192-0.272-1.521,0.333c-1.948,3.584-5.622,3.259-8.845,3.943c-0.697,0.148-1.439,0.073-2.151,0.187
		c-1.117,0.182-1.986,0.273-1.713-1.393c0.135-0.811-0.221-1.634-1.413-1.201c-0.65,0.239-1.158,0.114-1.25-0.677
		c-0.073-0.624-0.247-1.222-0.98-1.166c-0.82,0.066-1.167,0.733-1.415,1.453c-0.36,1.036,0.087,1.974,0.525,3.097
		c-5.283,0.069-10.358,0.655-15.463,0.243c-0.72-0.061-1.443-0.048-2.159-0.143c-1.033-0.135-2.53,0.606-3.006-0.387
		c-0.59-1.231-0.625-2.789-0.486-4.251c0.105-1.066,1.007-1.114,1.706-1.392c3.201-1.293,6.575-2.168,9.615-3.864
		c0.396-0.781,1.084-0.977,1.813-0.694c-0.729-0.281-1.418-0.086-1.813,0.694c0.629,0.082,1.124-0.633,1.821-0.347
		c-0.546,0.983-0.763,1.969,0.118,2.784c1.045,0.967,2.355,0.997,3.661,0.677c1.115-0.278,1.835-1.11,1.748-2.186
		c-0.1-1.289-1.245-0.512-1.899-0.586c-1.575-0.178-2.269-1.032-1.653-2.242c-0.307,0.115-0.544,0.253-0.69,0.419
		c0.146-0.166,0.383-0.304,0.69-0.42c-0.69-0.134-1.388-0.416-2.069-0.377c0.682-0.039,1.379,0.243,2.069,0.376
		c5.074-3.088,8.192-7.504,9.112-13.415c0.1-0.668-0.091-1.652,0.915-1.652c0.858,0,0.693,0.889,0.837,1.505
		c0.706,3.019,1.521,5.894,4.133,8.05c4.189,3.462,8.531,6.645,13.428,9.039c1.333,0.653,2.673,1.053,4.144,0.395
		c1.327-0.595,1.613-1.648,1.132-2.854c-0.547-1.376-1.37-0.422-2.087-0.079c-0.551,0.261-1.088,0.305-1.66,0.026
		c-5.746-2.78-10.904-6.371-15.705-11.289c2.076-0.07,3.639,0.095,5.112,0.876c4.143,2.189,8.28,4.393,12.436,6.562
		c3.132,1.631,4.021,4.724,5.093,7.703c0.144,0.399,0.021,0.916,0.226,1.259c0.38,0.638,0.121,1.83,1.158,1.86
		c0.932,0.021,1.435-0.725,1.777-1.626c0.447-1.176,1.393-1.913,2.638-2.338C213.351,173.566,210.844,176.386,208.046,176.967z
		 M171.966,171.759c0.353-0.106,0.732-0.24,0.984-0.479C172.698,171.52,172.319,171.652,171.966,171.759
		c-1.618,0.495-3.002-0.395-3.045-1.952C168.965,171.364,170.349,172.253,171.966,171.759z M170.957,169.523
		c0.008,0.004,0.014,0.011,0.022,0.015C170.971,169.534,170.964,169.527,170.957,169.523z"/>
	<path fill="#1CA0CF" d="M153.516,163.662c-0.047,0.038-0.1,0.082-0.147,0.121c0.048,0.012,0.091,0.025,0.135,0.035
		C153.511,163.766,153.516,163.714,153.516,163.662z"/>
	<path fill="#1CA0CF" d="M150.097,169.469c0.135-0.187,0.374-0.43,0.612-0.736C150.449,168.879,150.237,169.109,150.097,169.469z"/>
	<path fill="#1CA0CF" d="M121.923,133.357c0.59,0.391,1.241,0.737,1.917,0.95c2.668,0.851,4.828,2.542,6.983,4.204
		c1.826,1.405,3.088,3.218,3.084,5.668c0,1.016,0.503,1.792,1.288,2.377c0.434,0.321,0.946,0.347,1.44,0.134
		c0.577-0.242,0.585-0.754,0.563-1.027c-0.125-0.89-0.177-1.541-0.321-2.173c-0.143-0.629-0.308-1.267-0.577-1.848
		c-2.637-5.725-7.807-8.401-13.159-10.817c-0.616-0.282-1.488-0.239-1.835,0.633C121.008,132.221,121.268,132.919,121.923,133.357z"
		/>
	<path fill="#1CA0CF" d="M120.756,141.1c3.361,1.804,6.393,3.886,7.312,7.954c0.118,0.517,0.577,0.984,0.955,1.405
		c0.408,0.464,0.98,0.646,1.566,0.369c0.533-0.26,0.529-0.807,0.525-1.497c-0.052-0.252-0.078-0.694-0.226-1.092
		c-1.622-4.42-4.706-7.507-8.887-9.524c-0.99-0.473-2.417-1.245-3.075,0.048C118.214,140.154,119.802,140.587,120.756,141.1z"/>
	<path fill="#1CA0CF" d="M118.054,146.542c2.095,0.677,3.483,2.117,4.746,3.795c0.368,0.494,1.001,0.576,1.578,0.325
		c0.468-0.204,0.49-0.663,0.451-1.11c-0.017-2.307-4.046-5.916-6.303-5.642c-0.524,0.065-1.032,0.221-1.188,0.772
		C117.121,145.454,117.382,146.325,118.054,146.542z"/>
	<path fill="#1CA0CF" d="M114.849,173.884c0.655-0.221,1.891-0.117,1.778-1.236c-0.024-0.241-0.071-0.498-0.15-0.746
		c-0.237-0.745-0.767-1.412-1.836-1.318c-0.208,0.019-0.419,0.054-0.625,0.104c-0.734,0.176-1.374,0.579-1.344,1.467
		C112.707,173.265,113.539,173.889,114.849,173.884z"/>
	<path fill="#1CA0CF" d="M110.915,155.434c0.703-0.16,1.228-0.556,1.271-1.388c0.034-0.65-0.27-1.188-0.924-1.197
		c-0.807-0.009-1.548,0.416-1.622,1.287C109.583,154.84,110.173,155.243,110.915,155.434z"/>
	<path fill="#1CA0CF" d="M107.679,156.414c0.807,0.03,1.085-0.524,1.111-1.119c0.079-0.89-0.294-1.44-1.015-1.467
		c-0.833-0.03-1.558,0.478-1.566,1.35C106.205,155.977,106.903,156.389,107.679,156.414z"/>
</g>
</svg>
