<?xml version="1.0" encoding="utf-8"?>
<!-- Generator: Adobe Illustrator 16.0.0, SVG Export Plug-In . SVG Version: 6.00 Build 0)  -->
<!DOCTYPE svg PUBLIC "-//W3C//DTD SVG 1.1//EN" "http://www.w3.org/Graphics/SVG/1.1/DTD/svg11.dtd">
<svg version="1.1" id="Calque_1" xmlns="http://www.w3.org/2000/svg" xmlns:xlink="http://www.w3.org/1999/xlink" x="0px" y="0px"
	 width="260px" height="110px" viewBox="0 0 260 110" enable-background="new 0 0 260 110" xml:space="preserve">
<path fill-rule="evenodd" clip-rule="evenodd" fill="#31A7CD" d="M1.629,79.496c-0.637,0.584-0.853,1.262-0.635,2.065
	c0.088,0.249,0.191,0.453,0.267,0.667c0.439,1.248,1.251,1.805,2.465,1.658c0.609-0.296,0.676-1.12,0.2-2.475
	C3.398,79.915,2.632,79.304,1.629,79.496z"/>
<path fill-rule="evenodd" clip-rule="evenodd" fill="#31A7CD" d="M9.193,106.163c-0.652-1.854-1.25-4.567-1.765-8.153
	c-0.124-0.998-0.227-1.844-0.333-2.607c-0.401-1.142-1.176-1.59-2.269-1.285c-0.214,0.314-0.258,0.65-0.145,0.971
	c0.038,0.107,0.167,0.383,0.375,0.79c0.922,5.205,1.562,8.225,1.889,9.152c0.401,1.141,0.86,1.981,1.399,2.593
	c0.689,0.759,1.256,1.082,1.718,0.92c0.346-0.122,0.46-0.443,0.285-0.942C10.146,107.03,9.743,106.53,9.193,106.163z"/>
<path fill-rule="evenodd" clip-rule="evenodd" fill="#31A7CD" d="M33.307,97.081c-0.618-0.464-1.282-1.432-2.052-2.884
	c-0.641-1.177-1.129-2.287-1.506-3.357c-0.577-1.641-1.137-2.405-1.627-2.232c-1.241,0.437-2.433,3.781-3.6,9.961
	c-0.963-1.264-1.997-3.465-3.101-6.603c-0.552-1.568-1.071-2.308-1.504-2.155c-0.866,0.305-2.248,3.475-4.229,9.461
	c-0.225-1.284-0.449-2.567-0.657-3.896c-0.267-1.588-0.562-2.888-0.888-3.814c-0.728-2.067-1.437-2.98-2.101-2.746
	c-0.288,0.101-0.498,0.334-0.67,0.676c-0.234,0.442-0.31,0.87-0.218,1.318c0.644,0.814,1.081,1.503,1.306,2.146
	c0.326,0.927,0.743,2.943,1.285,5.958c0.436,2.53,0.861,4.385,1.262,5.525c0.577,1.64,1.225,2.375,1.975,2.11
	c0.404-0.142,0.525-0.905,0.317-2.234c-0.238-1.599-0.036-3.514,0.64-5.834c0.512-1.863,1.169-3.497,1.969-4.819
	c1.145,3.162,2.328,5.511,3.577,7.035c0.764,0.974,1.356,1.365,1.818,1.203c0.433-0.152,0.748-0.823,0.904-2.041
	c0.36-2.851,0.993-5.477,1.829-7.895c2.431,5.436,4.159,7.953,5.169,7.598c0.808-0.284,1.09-0.865,0.764-1.792
	C33.92,97.626,33.688,97.427,33.307,97.081z"/>
<path fill-rule="evenodd" clip-rule="evenodd" fill="#31A7CD" d="M45.605,93.676c-0.316-0.529-0.558-1.125-0.771-1.73
	c-0.577-1.641-0.939-3.316-1.033-4.967c-0.042-0.305-0.06-0.539-0.11-0.682c-0.088-0.25-0.316-0.529-0.673-0.806
	c-0.313-0.891-0.717-1.67-1.198-2.302c-0.03-0.271-0.064-0.459-0.089-0.529c-0.138-0.393-0.436-0.688-0.837-0.908
	c-0.419-0.174-0.799-0.24-1.087-0.139c-1.328,0.468-2.539,2.095-3.691,4.904c-0.355,0.927-0.588,1.649-0.693,2.087
	c-0.56,2.28-0.535,4.194,0.042,5.835c0.363,1.033,0.949,1.87,1.773,2.461c0.875,0.734,1.688,0.929,2.468,0.654
	c1.473-0.518,2.588-2.231,3.348-5.144c0.58,1.278,1.005,2.21,1.275,2.797c0.488,1.11,1.019,1.604,1.596,1.401
	c0.606-0.213,0.798-0.682,0.56-1.359C46.459,95.18,46.155,94.685,45.605,93.676z M41.364,91.482
	c-0.495,2.098-1.274,3.292-2.371,3.678c-0.809,0.284-1.396-0.189-1.835-1.438c-0.414-1.176-0.339-2.806,0.284-4.908
	c0.224-0.839,0.591-1.729,1.104-2.672c0.545-1.032,1.013-1.638,1.388-1.77c0.461-0.163,0.947,0.388,1.386,1.636
	C41.872,87.578,41.859,89.386,41.364,91.482z"/>
<path fill-rule="evenodd" clip-rule="evenodd" fill="#31A7CD" d="M55.178,81.695c0.079-1.069,0.058-1.863-0.118-2.362
	c-0.113-0.321-0.287-0.54-0.523-0.657c-0.985-2.618-2.286-3.644-3.873-3.085c-1.847,0.649-3.03,2.268-3.572,4.782
	c-0.535,2.352-0.397,4.587,0.38,6.797c0.452,1.284,1.046,2.237,1.842,2.839c0.82,0.673,1.65,0.821,2.545,0.507
	c1.27-0.446,2.215-1.541,2.851-3.327c1.618,5.521,0.81,9.492-2.484,11.932c-0.425-0.009-0.681,0-0.739,0.02
	c-0.289,0.103-0.527,0.346-0.69,0.804c-0.176,0.423-0.194,0.83-0.069,1.188c0.276,0.783,0.731,1.064,1.366,0.841
	c0.78-0.274,1.483-0.762,2.153-1.438c1.645-1.781,2.663-3.862,2.976-6.295c0.312-2.434-0.052-5.312-1.099-8.749
	C55.458,83.319,55.134,82.032,55.178,81.695z M51.321,88.341c-0.404,0.143-0.825,0.051-1.219-0.332
	c-0.381-0.347-0.685-0.842-0.91-1.483c-0.552-1.568-0.675-3.208-0.336-5.01c0.336-1.72,1.024-2.805,2.093-3.18
	c0.346-0.122,0.71-0.01,1.107,0.291c0.382,0.346,0.727,0.866,1.035,1.56c-0.126,0.284-0.142,0.61-0.021,1.049
	C53.935,85.258,53.341,87.631,51.321,88.341z"/>
<path fill-rule="evenodd" clip-rule="evenodd" fill="#31A7CD" d="M55.783,60.449c-0.638,0.584-0.854,1.262-0.636,2.065
	c0.088,0.249,0.192,0.453,0.268,0.667c0.439,1.248,1.25,1.805,2.464,1.658c0.609-0.296,0.676-1.12,0.2-2.475
	C57.552,60.868,56.786,60.257,55.783,60.449z"/>
<path fill-rule="evenodd" clip-rule="evenodd" fill="#31A7CD" d="M63.347,87.116c-0.652-1.854-1.25-4.567-1.766-8.153
	c-0.123-0.998-0.227-1.844-0.332-2.607c-0.401-1.142-1.176-1.59-2.27-1.285c-0.213,0.314-0.257,0.65-0.144,0.971
	c0.038,0.107,0.167,0.383,0.375,0.79c0.922,5.205,1.563,8.225,1.889,9.152c0.401,1.141,0.859,1.981,1.398,2.593
	c0.689,0.759,1.256,1.082,1.718,0.92c0.347-0.122,0.461-0.443,0.285-0.942C64.3,87.983,63.897,87.483,63.347,87.116z"/>
<path fill-rule="evenodd" clip-rule="evenodd" fill="#31A7CD" d="M77.624,78.648c-0.655-2.413-1.242-4.451-1.806-6.055
	c-0.125-0.357-0.395-0.663-0.78-0.929c-0.36-0.192-0.712-0.27-1.07-0.184c-1.752,2.579-3.108,6.102-4.097,10.575
	c-1.016-2.888-1.754-5.633-2.157-8.256c-0.089-0.529-0.141-0.952-0.209-1.329c-0.15-0.428-0.416-0.814-0.784-1.125
	c-0.415-0.255-0.778-0.368-1.096-0.257c-0.231,0.081-0.271,0.337-0.203,0.714c0.657,3.895,1.396,6.92,2.161,9.095
	c0.727,2.067,1.478,3.647,2.275,4.809c0.532,0.775,1.058,1.071,1.635,0.868c0.115-0.041,0.159-0.377,0.186-0.946
	c0.01-0.525-0.009-1.039-0.011-1.6c0.136-2.933,1.163-6.098,3.052-9.487l1.629,6.198c0.236,1.039,0.454,1.844,0.601,2.354
	c0.138,0.393,0.379,0.708,0.735,0.983c0.344,0.239,0.694,0.315,1.012,0.204c0.231-0.082,0.271-0.335,0.204-0.713
	C78.396,81.583,77.947,79.938,77.624,78.648z"/>
<path fill-rule="evenodd" clip-rule="evenodd" fill="#31A7CD" d="M92.741,77.179c-0.261-0.188-0.484-0.271-0.716-0.188
	c-0.145,0.05-0.449,0.197-0.943,0.451c-0.498,0.335-0.89,0.513-1.149,0.604c-1.271,0.447-2.428,0.014-3.532-1.281
	c1.032-1.123,1.761-2.462,2.188-4.015c0.476-1.69,0.49-3.217-0.012-4.644c-0.326-0.928-0.903-1.646-1.674-2.176
	c-1.076-0.662-1.974-0.908-2.695-0.655c-1.183,0.417-1.839,1.688-1.978,3.782c-0.129,1.848,0.114,3.646,0.717,5.357
	c0.188,0.534,0.405,1.059,0.692,1.599c-0.161,0.097-0.363,0.167-0.536,0.229c-0.49,0.172-1.044,0.166-1.673-0.053
	c-0.641-0.255-1.005-0.368-1.091-0.337c-0.577,0.203-0.729,0.695-0.453,1.48c0.201,0.57,0.736,0.984,1.633,1.229
	c0.74,0.262,1.624,0.19,2.634-0.165c0.289-0.102,0.564-0.238,0.771-0.391c1.909,2.294,3.989,3.044,6.241,2.253
	c1.731-0.609,2.451-1.424,2.125-2.351C93.189,77.622,93.015,77.402,92.741,77.179z M85.199,74.823
	c-0.233-0.479-0.438-0.969-0.588-1.396c-0.401-1.141-0.601-2.353-0.573-3.564s0.317-1.955,0.895-2.158
	c0.317-0.111,0.698-0.045,1.129,0.165c0.414,0.255,0.725,0.587,0.875,1.014c0.338,0.963,0.306,1.976-0.069,3.029
	C86.517,73.037,85.947,73.998,85.199,74.823z"/>
<path fill-rule="evenodd" clip-rule="evenodd" fill="#31A7CD" d="M105.261,75.7c-1.515-2.833-2.837-5.853-3.978-9.099
	c-0.452-1.283-1.277-3.998-2.434-8.119c0.159-0.656,0.094-1.395-0.182-2.179c-0.226-0.643-0.401-1.142-0.47-1.518
	c-0.247-0.794-0.545-2.011-0.866-3.662c-0.341-1.522-0.556-2.409-0.656-2.695c-0.25-0.713-0.636-0.978-1.126-0.805
	c-0.404,0.142-0.551,0.554-0.465,1.166c0.406,3.183,1.566,8.142,3.499,14.835c-0.936-0.632-1.705-0.883-2.282-0.68
	c-1.097,0.386-1.866,1.979-2.391,4.728c-0.513,2.785-0.437,5.122,0.241,7.047c0.426,1.213,0.996,2.094,1.766,2.625
	c0.742,0.54,1.601,0.679,2.553,0.344c0.866-0.305,1.561-1.189,2.095-2.62c0.437-1.156,0.708-2.412,0.756-3.752
	c0.917,2.242,1.86,4.274,2.85,6.169c0.467,0.958,0.944,1.392,1.405,1.229c0.174-0.061,0.325-0.275,0.452-0.56
	c0.098-0.275,0.109-0.52,0.021-0.77C105.898,76.959,105.64,76.408,105.261,75.7z M99.441,72.338
	c-0.422,1.751-1.124,2.799-2.076,3.134c-0.751,0.264-1.297-0.185-1.711-1.36c-0.464-1.319-0.526-3.062-0.126-5.245
	c0.366-2.093,0.89-3.278,1.554-3.512c0.058-0.021,0.186-0.024,0.429-0.07c0.595,0.952,1.291,1.548,2.13,1.815
	C99.893,69.014,99.826,70.761,99.441,72.338z"/>
<path fill-rule="evenodd" clip-rule="evenodd" fill="#31A7CD" d="M130.914,66.557c1.501-0.527,2.348-2.269,2.538-5.14
	c0.159-2.22-0.044-4.552-0.597-7.042c0.131-0.367-0.079-1.333-0.618-2.867c-0.214-0.605-0.579-1.279-1.041-2.038
	c-0.437-0.688-0.892-0.969-1.297-0.827c-0.635,0.223-0.772,0.753-0.472,1.608c0.05,0.143,0.138,0.393,0.309,0.692
	c0.171,0.301,0.287,0.541,0.338,0.684c0.627,1.783,1.055,3.555,1.355,5.333c0.303,2.057,0.297,3.701,0.014,4.924
	c-0.333,1.359-0.78,2.116-1.328,2.31c-1.126,0.396-2.999-2.071-5.647-7.389c-0.482-0.912-0.918-1.32-1.293-1.188
	c-0.462,0.162-0.586,1.007-0.398,2.464c0.198,1.853,0.124,3.763-0.252,5.737c-0.405,1.985-0.981,3.39-1.704,4.286
	c-1.593-1.765-3.079-4.607-4.471-8.564c-0.163-0.464-0.302-1.136-0.389-2.027c-0.115-0.881-0.188-1.457-0.288-1.742
	c-0.514-1.46-1.153-2.078-1.874-1.824c-0.463,0.163-0.642,0.667-0.494,1.456c0.268,1.588,0.716,3.233,1.293,4.874
	c0.803,2.282,2.193,5.038,4.147,8.196c0.341,0.602,0.772,1.091,1.291,1.549c0.597,0.592,1.081,0.862,1.428,0.74
	c0.635-0.224,1.303-1.459,2.061-3.73c0.742-2.223,1.13-4.162,1.148-5.772C127.164,65.392,129.24,67.146,130.914,66.557z"/>
<path fill-rule="evenodd" clip-rule="evenodd" fill="#31A7CD" d="M132.489,36.073c0.438,1.248,1.251,1.804,2.464,1.658
	c0.609-0.295,0.677-1.12,0.2-2.475c-0.526-1.497-1.293-2.108-2.296-1.916c-0.638,0.584-0.854,1.261-0.635,2.066
	C132.311,35.656,132.414,35.859,132.489,36.073z"/>
<path fill-rule="evenodd" clip-rule="evenodd" fill="#31A7CD" d="M136.285,49.723c0.922,5.205,1.562,8.225,1.889,9.152
	c0.401,1.141,0.859,1.981,1.398,2.594c0.689,0.758,1.257,1.081,1.718,0.918c0.347-0.121,0.461-0.442,0.285-0.941
	c-0.2-0.57-0.604-1.07-1.154-1.438c-0.651-1.854-1.25-4.568-1.765-8.154c-0.124-0.998-0.227-1.843-0.333-2.606
	c-0.401-1.142-1.176-1.59-2.269-1.286c-0.214,0.315-0.258,0.651-0.145,0.972C135.947,49.041,136.076,49.315,136.285,49.723z"/>
<path fill-rule="evenodd" clip-rule="evenodd" fill="#31A7CD" d="M142.804,46.309c0.301,0.856,0.9,1.085,1.824,0.761l1.107,6.101
	c0.454,2.486,0.882,4.257,1.271,5.363c0.603,1.711,1.262,2.481,2.013,2.218c0.201-0.071,0.354-0.286,0.509-0.581
	c0.127-0.284,0.154-0.575,0.055-0.859c-0.163-0.464-0.42-0.734-0.78-0.928c-0.589-1.676-1.064-3.672-1.483-5.97
	c-0.062-0.179-0.381-2.189-0.983-6.024c0.173-0.061,0.763-0.228,1.715-0.562c0.936-0.29,1.513-0.493,1.802-0.594
	c0.273,0.224,0.555,0.286,0.84,0.266l0.403-0.142c0.229-0.641,0.31-1.15,0.159-1.579c-0.352-0.997-1.262-1.278-2.704-0.771
	c-0.231,0.081-0.664,0.233-1.368,0.442c-0.693,0.244-1.098,0.386-1.184,0.416c-0.279-1.625-0.557-3.611-0.873-5.984
	c-0.208-1.328-0.319-2.291-0.321-2.852c0.002-0.36-0.028-0.631-0.091-0.81c-0.288-0.819-0.756-1.135-1.391-0.912
	c-0.347,0.122-0.493,0.533-0.425,1.19c0.531,4.462,0.958,7.797,1.323,10.032C143.009,44.955,142.54,45.56,142.804,46.309z"/>
<path fill-rule="evenodd" clip-rule="evenodd" fill="#31A7CD" d="M151.687,34.49c1.068,5.434,1.646,8.277,1.722,8.49
	c0.758,3.54,1.585,6.534,2.438,8.958c0.051,0.144,0.163,0.464,0.342,0.882c0.176,0.498,0.289,0.819,0.313,0.891
	c0.025,0.071,0.072,0.295,0.197,0.652c0.067,0.377,0.143,0.591,0.168,0.663c0.138,0.392,0.379,0.708,0.765,0.973
	c0.385,0.266,0.735,0.343,1.082,0.221c0.145-0.051,0.212-0.596,0.229-1.563c-0.015-0.596-0.001-1.202,0.029-1.853
	c0.158-2.5,1.199-5.35,3.139-8.597l2.422,6.24c0.936,2.476,1.906,3.576,2.858,3.241c0.289-0.102,0.358-0.365,0.207-0.794
	c-0.454-0.922-0.774-1.65-1.032-2.201c-0.951-2.149-1.586-3.77-1.975-4.874c-0.139-0.393-0.352-0.999-0.569-1.804
	c-0.206-0.768-0.353-1.278-0.44-1.527c-0.176-0.5-0.441-0.886-0.822-1.234c-0.398-0.301-0.763-0.414-1.108-0.292
	c-0.577,0.203-1.431,1.465-2.532,3.775c-0.961,2.061-1.658,3.949-2.094,5.665c-1.146-4.364-2.418-10.288-3.771-17.825
	c-0.354-1.838-0.536-2.815-0.574-2.923c-0.15-0.428-0.416-0.815-0.798-1.162c-0.369-0.312-0.732-0.424-1.021-0.322
	c-0.202,0.071-0.283,0.3-0.27,0.615c0.005,0.199,0.081,0.693,0.241,1.518L151.687,34.49z"/>
<path fill-rule="evenodd" clip-rule="evenodd" fill="#31A7CD" d="M177.278,36.146c0.815,2.317,1.509,4.197,2.126,5.583
	c-0.047,0.417,0.017,0.875,0.204,1.41c0.051,0.144,0.188,0.536,0.455,1.203c0.251,0.713,0.418,1.095,0.468,1.238
	c0.188,0.534,0.588,1.116,1.255,1.723c0.68,0.642,1.235,0.928,1.639,0.786c0.288-0.102,0.37-0.331,0.245-0.688
	c-1.293-2.75-2.688-6.347-4.229-10.731c-0.64-1.818-1.313-4.105-1.953-6.846c-0.635-2.542-1.048-4.64-1.271-6.286l0.127-0.284
	c0.48-0.571,0.622-1.181,0.422-1.751c-0.15-0.427-0.557-0.846-1.165-1.192c-0.638-0.337-1.071-0.465-1.36-0.363
	c-0.23,0.081-0.287,0.382-0.24,0.885C174.574,26.521,175.686,31.618,177.278,36.146z"/>
<path fill-rule="evenodd" clip-rule="evenodd" fill="#31A7CD" d="M188.014,43.429c1.228,1.091,2.435,1.388,3.646,0.961
	c0.751-0.264,1.351-0.957,1.883-2.024c0.532-1.069,0.75-2.107,0.701-3.172c-0.028-0.631-0.063-1.1-0.077-1.415
	c-0.024-0.993-0.282-2.185-0.771-3.575c-0.465-1.319-1.221-2.456-2.229-3.384c-1.035-0.917-2.12-1.417-3.264-1.536
	c-0.396-0.02-0.652-0.011-0.711,0.009c-0.145,0.051-0.275,0.138-0.378,0.215c-0.106,0.438-0.368,0.89-0.775,1.393
	c-0.755,0.988-1.158,2.331-1.226,4.078c-0.075,1.629,0.15,3.192,0.664,4.654C186.043,41.238,186.879,42.506,188.014,43.429z
	 M186.57,35.082c0.15-1.415,0.704-2.332,1.689-2.757c0.363,0.113,0.818,0.113,1.279-0.049c0.977,0.377,1.781,1.376,2.371,3.052
	c0.414,1.177,0.523,2.5,0.327,3.973c-0.216,1.598-0.671,2.52-1.421,2.783c-0.693,0.244-1.366,0.08-2.075-0.553
	c-0.685-0.561-1.199-1.381-1.588-2.487C186.664,37.654,186.456,36.325,186.57,35.082z"/>
<path fill-rule="evenodd" clip-rule="evenodd" fill="#31A7CD" d="M196.4,32.226c1.555,3.22,2.94,5.777,4.175,7.626
	c0.661,1.05,1.278,1.513,1.826,1.32c0.347-0.122,0.534-0.788,0.603-1.973c0.185-3.35,0.919-7.255,2.275-11.699
	c0.321-1.114,0.537-1.791,0.577-2.045c0.183-0.865,0.188-1.589-0.038-2.229c-0.276-0.785-0.772-1.091-1.407-0.868
	c-0.549,0.193-0.661,0.794-0.353,1.767c-1.562,5.518-2.547,9.911-2.957,13.261c-1.278-2.436-2.424-4.678-3.406-6.735
	c-0.505-1.065-0.959-1.987-1.334-2.777c-0.432-0.488-0.805-0.719-1.15-0.597c-0.202,0.071-0.366,0.25-0.465,0.525
	c-0.098,0.274-0.084,0.589,0.017,0.875C194.863,28.96,195.418,30.167,196.4,32.226z"/>
<path fill-rule="evenodd" clip-rule="evenodd" fill="#31A7CD" d="M211.449,32.862c0.74,0.262,1.623,0.19,2.634-0.165
	c0.289-0.102,0.564-0.238,0.771-0.391c1.909,2.293,3.989,3.044,6.24,2.253c1.732-0.609,2.451-1.424,2.125-2.351
	c-0.1-0.285-0.274-0.505-0.548-0.728c-0.261-0.189-0.484-0.271-0.716-0.189c-0.145,0.051-0.449,0.198-0.943,0.452
	c-0.498,0.335-0.89,0.513-1.149,0.604c-1.271,0.446-2.429,0.013-3.532-1.282c1.031-1.124,1.761-2.462,2.188-4.014
	c0.477-1.691,0.49-3.217-0.011-4.644c-0.326-0.928-0.903-1.646-1.674-2.176c-1.076-0.663-1.974-0.909-2.694-0.655
	c-1.184,0.416-1.84,1.688-1.979,3.781c-0.129,1.848,0.114,3.646,0.717,5.358c0.188,0.534,0.404,1.059,0.692,1.599
	c-0.161,0.096-0.363,0.167-0.536,0.228c-0.49,0.172-1.044,0.167-1.673-0.053c-0.641-0.255-1.005-0.368-1.091-0.337
	c-0.577,0.203-0.729,0.696-0.453,1.481C210.018,32.204,210.553,32.618,211.449,32.862z M214.862,22.005
	c0.317-0.112,0.698-0.044,1.129,0.165c0.413,0.255,0.725,0.586,0.875,1.013c0.339,0.963,0.306,1.977-0.069,3.03
	c-0.351,1.124-0.92,2.086-1.668,2.911c-0.233-0.48-0.438-0.969-0.588-1.396c-0.401-1.141-0.602-2.354-0.573-3.565
	C213.996,22.951,214.285,22.208,214.862,22.005z"/>
<path fill-rule="evenodd" clip-rule="evenodd" fill="#31A7CD" d="M241.914,13.333c-0.795-0.602-1.684-0.729-2.607-0.404
	c-1.616,0.568-2.906,2.984-3.941,7.235c-1.758-5.552-2.979-9.85-3.615-12.952c0.181-0.224,0.282-0.581,0.276-1.058
	c-0.01-0.398-0.129-1.197-0.36-2.318c-0.182-0.978-0.346-1.721-0.496-2.15c-0.364-1.033-0.869-1.457-1.505-1.233
	c-0.548,0.193-0.655,1.272-0.305,3.192c1.114,6.3,2.771,12.488,4.915,18.586c0.602,1.711,1.236,3.33,1.904,4.859
	c-0.365,0.529-0.487,1.013-0.395,1.461c0.449,0.722,1.02,0.962,1.741,0.708c0.462-0.162,1.079-0.62,1.936-1.321
	c0.798-0.681,1.501-1.448,2.092-2.258c1.092-1.506,1.832-3.089,2.267-4.804c0.426-1.833,0.415-3.432-0.074-4.822
	C243.32,14.842,242.709,13.935,241.914,13.333z M241.278,22.13c-0.966,1.863-2.083,3.297-3.434,4.254
	c-0.309-0.693-0.521-1.299-0.697-1.799c-0.163-0.463-0.235-1.039-0.205-1.69c0.123-2.047,0.606-3.899,1.454-5.64
	c0.52-1.104,1.061-1.776,1.58-1.958c0.981-0.345,1.698,0.125,2.138,1.373C242.653,18.202,242.355,20.028,241.278,22.13z"/>
<path fill-rule="evenodd" clip-rule="evenodd" fill="#31A7CD" d="M257.16,13.98l-1.053-2.995c-0.728-2.068-1.409-2.991-2.044-2.768
	c-0.462,0.163-0.632,0.784-0.583,1.849c0.059,2.102-0.095,3.879-0.459,5.331c-0.383,1.495-0.933,2.331-1.625,2.574
	c-0.23,0.082-0.5,0.056-0.748-0.098c-0.276-0.143-0.464-0.397-0.564-0.683c-0.238-0.677-0.564-1.885-0.982-3.622
	c-0.402-1.701-0.756-2.979-1.031-3.763c-0.276-0.785-0.629-1.422-1.028-2.003c-0.428-0.569-0.829-0.789-1.204-0.657
	c-0.635,0.223-0.811,0.646-0.598,1.251c0.037,0.107,0.166,0.382,0.433,0.77c0.237,0.397,0.42,0.733,0.521,1.019
	c0.275,0.784,0.604,1.993,1.064,3.673c0.404,1.701,0.761,2.898,1.036,3.682c0.389,1.105,0.933,1.916,1.649,2.385
	c0.684,0.561,1.432,0.658,2.239,0.374c0.924-0.325,1.634-1.256,2.147-2.838c0.428-1.272,0.649-2.673,0.692-4.21
	c0.765,2.175,1.28,3.917,1.559,5.261c1.097,5.424-0.644,8.96-5.203,10.564c-0.288,0.102-0.833,0.213-1.62,0.37
	c-0.508,0.219-0.671,0.677-0.434,1.354c0.377,1.069,1.373,1.32,2.961,0.762c2.741-0.964,4.654-2.719,5.734-5.182
	C259.294,23.366,259.017,19.257,257.16,13.98z"/>
<path fill-rule="evenodd" clip-rule="evenodd" fill="#31A7CD" d="M229.003,44.908c-4.454,0.529-8.933,0.919-13.357,1.609
	c-30.049,4.69-57.669,15.844-84.825,28.208c-0.883,0.402-1.813,0.87-2.456,1.532c-0.882,0.913-0.684,2.088,0.022,3.04
	c0.626,0.844,1.586,1.085,2.643,0.62c1.356-0.596,2.706-1.206,4.062-1.803c30.194-13.323,60.754-25.569,94.542-28.34
	c1.804-0.148,4.015-0.141,3.643-2.712C232.934,44.701,230.902,44.845,229.003,44.908z"/>
</svg>
