<?xml version="1.0" encoding="utf-8"?>
<!-- Generator: Adobe Illustrator 16.0.0, SVG Export Plug-In . SVG Version: 6.00 Build 0)  -->
<!DOCTYPE svg PUBLIC "-//W3C//DTD SVG 1.1//EN" "http://www.w3.org/Graphics/SVG/1.1/DTD/svg11.dtd">
<svg version="1.1" id="Layer_1" xmlns="http://www.w3.org/2000/svg" xmlns:xlink="http://www.w3.org/1999/xlink" x="0px" y="0px"
	 width="178.35px" height="134.85px" viewBox="0 0 178.35 134.85" enable-background="new 0 0 178.35 134.85" xml:space="preserve">
<polygon fill="#FDCA74" points="41.78,63.657 33.298,63.657 33.298,42.501 29.733,42.501 29.733,66.925 41.78,66.925 "/>
<rect x="43.989" y="48.64" fill="#FDCA74" width="3.433" height="18.285"/>
<rect x="43.989" y="42.501" fill="#FDCA74" width="3.433" height="4.026"/>
<path fill="#FDCA74" d="M76.068,66.925H79.5V55.901c0-1.782-0.363-3.268-1.023-4.456c-1.188-2.046-3.367-3.301-6.436-3.301
	c-4.092,0-5.446,2.146-6.04,3.069c-0.924-2.013-3.466-3.069-5.677-3.069c-3.399,0-4.587,1.716-5.248,2.476h-0.066v-1.98h-3.168
	v18.285h3.433V56.727c0-1.354,0-5.446,4.521-5.446c1.254,0,2.542,0.396,3.399,1.716c0.726,1.221,0.792,2.245,0.759,3.763v10.166
	h3.432V56.727c0.033-1.519-0.033-5.446,4.357-5.446c4.125,0,4.324,3.927,4.324,5.479V66.925z"/>
<rect x="83.885" y="42.501" fill="#FDCA74" width="3.433" height="4.026"/>
<rect x="83.885" y="48.64" fill="#FDCA74" width="3.433" height="18.285"/>
<polygon fill="#FDCA74" points="95.568,66.925 95.568,51.775 98.571,51.775 98.571,48.64 95.568,48.64 95.568,42.501 92.135,42.501 
	92.135,48.64 89.66,48.64 89.66,51.775 92.135,51.775 92.135,66.925 "/>
<path fill="#FDCA74" d="M114.61,61.182c-0.825,1.584-2.673,3.069-5.215,3.069c-2.311,0-5.149-1.452-6.007-4.984h15.149
	c0.033-0.231,0.099-1.155,0.099-1.749c-0.033-5.347-4.356-9.374-9.307-9.374c-5.149,0-9.374,4.125-9.374,9.604
	c0,5.182,4.125,9.637,9.308,9.637c2.838,0,7.03-1.485,8.779-6.205H114.61z M109.296,51.281c3.301,0,5.743,2.673,5.908,5.347h-11.815
	C103.553,53.954,105.996,51.281,109.296,51.281z"/>
<path fill="#FDCA74" d="M140.317,66.925V42.501h-3.433v8.383h-0.066c-1.32-1.683-3.664-2.739-6.205-2.739
	c-6.469,0-9.505,5.248-9.505,9.704c0,4.818,3.432,9.538,9.505,9.538c2.673,0,5.017-1.056,6.469-3.069h0.066v2.607H140.317z
	 M130.779,64.251c-3.631,0-6.238-3.136-6.238-6.436c0-2.872,2.046-6.535,6.271-6.535c3.532,0,6.337,2.64,6.337,6.535
	C137.149,61.314,134.376,64.251,130.779,64.251z"/>
<polygon fill="#FDCA74" points="29.271,99 42.44,99 42.44,95.732 32.836,95.732 32.836,88.306 42.44,88.306 42.44,85.039 
	32.836,85.039 32.836,77.843 42.44,77.843 42.44,74.576 29.271,74.576 "/>
<path fill="#FDCA74" d="M61.316,82.959H61.25c-1.32-1.683-3.664-2.739-6.205-2.739c-6.469,0-9.505,5.248-9.505,9.704
	c0,4.818,3.432,9.538,9.505,9.538c2.673,0,5.017-1.056,6.469-3.069h0.066V99h3.168V74.576h-3.433V82.959z M55.21,96.326
	c-3.631,0-6.238-3.135-6.238-6.436c0-2.872,2.046-6.535,6.271-6.535c3.532,0,6.337,2.64,6.337,6.535
	C61.58,93.389,58.808,96.326,55.21,96.326z"/>
<rect x="69.168" y="74.576" fill="#FDCA74" width="3.433" height="4.026"/>
<rect x="69.168" y="80.715" fill="#FDCA74" width="3.433" height="18.285"/>
<polygon fill="#FDCA74" points="80.85,74.576 77.417,74.576 77.417,80.715 74.942,80.715 74.942,83.85 77.417,83.85 77.417,99 
	80.85,99 80.85,83.85 83.854,83.85 83.854,80.715 80.85,80.715 "/>
<rect x="86.163" y="74.576" fill="#FDCA74" width="3.433" height="4.026"/>
<rect x="86.163" y="80.715" fill="#FDCA74" width="3.433" height="18.285"/>
<path fill="#FDCA74" d="M102.927,80.22c-5.677,0-9.868,4.522-9.868,9.505c0,4.621,3.729,9.736,9.868,9.736
	c6.205,0,9.869-5.215,9.869-9.67C112.796,84.577,108.472,80.22,102.927,80.22z M102.927,96.326c-3.829,0-6.436-3.202-6.436-6.502
	c0-3.268,2.575-6.469,6.436-6.469c3.862,0,6.436,3.201,6.436,6.436C109.363,93.257,106.624,96.326,102.927,96.326z"/>
<path fill="#FDCA74" d="M124.872,80.22c-0.726,0-3.499,0-5.347,2.442h-0.066v-1.947h-3.202V99h3.433v-9.967
	c0-3.664,1.947-5.677,4.819-5.677c4.555,0,4.555,4.291,4.555,5.709V99h3.432V88.174c-0.033-2.046-0.429-3.499-1.155-4.687
	C130.021,81.441,127.71,80.22,124.872,80.22z"/>
<rect x="137.542" y="74.576" fill="#FDCA74" width="3.432" height="18.417"/>
<rect x="137.542" y="94.973" fill="#FDCA74" width="3.432" height="4.026"/>
<path fill="#FDCA74" d="M154.144,23.638c-19.018-12.247-45.176-10.192-66.453-7.182c-14.837,2.1-29.459,5.559-43.875,9.718
	c13.861-8.551,29.591-14.515,44.7-19.137c3.074-0.94,1.762-5.767-1.329-4.821C67.712,8.173,45.243,17.062,28.149,30.969
	c-3.358,1.078-6.706,2.179-10.042,3.3c-3.011,1.012-1.757,5.753,1.247,4.84c-6.921,7.375-12.34,15.926-15.4,25.869
	c-7.375,23.967,6.461,46.894,27.414,58.245c29.555,16.01,66.038,9.856,95.275-3.458c19.667-8.957,38.83-24.663,47.234-45.007
	C182.308,54.347,171.625,34.895,154.144,23.638z M166.104,79.444c-11.382,20.478-33.715,33.772-55.187,41.319
	c-28.494,10.014-64.942,11.282-88.848-10.07C13.484,103.024,7.71,92.45,6.991,80.876C6.176,67.748,12.203,55.399,20.557,45.63
	c3.198-3.74,6.716-7.167,10.481-10.316c16.271-5.147,32.755-9.619,49.56-12.671c21.154-3.842,45.982-6.55,66.173,2.674
	c10.376,4.74,19.882,13.835,23.644,24.732C173.85,60.001,171.044,70.557,166.104,79.444z"/>
</svg>
