<?xml version="1.0" encoding="utf-8"?>
<!-- Generator: Adobe Illustrator 16.0.0, SVG Export Plug-In . SVG Version: 6.00 Build 0)  -->
<!DOCTYPE svg PUBLIC "-//W3C//DTD SVG 1.1//EN" "http://www.w3.org/Graphics/SVG/1.1/DTD/svg11.dtd">
<svg version="1.1" id="Layer_1" xmlns="http://www.w3.org/2000/svg" xmlns:xlink="http://www.w3.org/1999/xlink" x="0px" y="0px"
	 width="316px" height="158px" viewBox="37 11.746 316 158" enable-background="new 37 11.746 316 158" xml:space="preserve">
<g>
	<circle fill="#FEC680" cx="116" cy="90.746" r="79"/>
	<g>
		<path fill="#F9F9F9" d="M63.188,66.528h3.383v15.113h5.582v3.161h-8.965V66.528z"/>
		<path fill="#F9F9F9" d="M77.094,66.528h3.383v18.275h-3.383V66.528z"/>
		<path fill="#F9F9F9" d="M86.826,66.528h4.692l4.865,13.83h0.049l4.816-13.83h4.692v18.275h-3.383V71.097h-0.025h-0.05
			l-4.667,13.706h-2.865l-4.692-13.706h-0.049v13.706h-3.383V66.528L86.826,66.528z"/>
		<path fill="#F9F9F9" d="M112.317,66.528h3.383v18.275h-3.383V66.528z"/>
		<path fill="#F9F9F9" d="M124.026,69.689h-3.383v-3.161h10.174v3.161h-3.408v15.113h-3.383V69.689L124.026,69.689z"/>
		<path fill="#F9F9F9" d="M135.413,66.528h9.829v3.161h-6.445v4.47h6.174v3.161h-6.174v4.322h6.445v3.161h-9.829V66.528z"/>
		<path fill="#F9F9F9" d="M151.345,66.528h4.149c4.495,0,6.445,1.21,7.507,2.124c1.729,1.482,3.013,4.198,3.013,7.062
			c0,3.284-1.704,6.445-4.371,7.902c-1.68,0.938-4.025,1.186-6.075,1.186h-4.223V66.528L151.345,66.528z M154.728,81.642h0.716
			c1.828,0,3.013-0.124,4.445-0.889c1.803-0.988,2.741-3.087,2.741-5.038c0-1.777-0.766-3.458-1.951-4.495
			c-1.408-1.284-3.187-1.531-5.31-1.531h-0.642V81.642z"/>
		<path fill="#F9F9F9" d="M62.916,96.169h9.829v3.162h-6.445v4.469h6.174v3.16h-6.174v4.322h6.445v3.16h-9.829V96.169z"/>
		<path fill="#F9F9F9" d="M77.662,96.169h4.149c4.495,0,6.445,1.211,7.507,2.123c1.729,1.482,3.013,4.197,3.013,7.062
			c0,3.285-1.705,6.445-4.371,7.902c-1.68,0.939-4.025,1.186-6.074,1.186h-4.223L77.662,96.169L77.662,96.169z M81.045,111.283
			h0.717c1.827,0,3.012-0.123,4.445-0.889c1.802-0.988,2.741-3.086,2.741-5.039c0-1.777-0.765-3.457-1.951-4.494
			c-1.408-1.283-3.186-1.531-5.31-1.531h-0.642V111.283z"/>
		<path fill="#F9F9F9" d="M97.027,96.169h3.383v18.275h-3.383V96.169z"/>
		<path fill="#F9F9F9" d="M107.55,99.332h-3.383v-3.162h10.174v3.162h-3.407v15.111h-3.384V99.332z"/>
		<path fill="#F9F9F9" d="M118.023,96.169h3.383v18.275h-3.383V96.169z"/>
		<path fill="#F9F9F9" d="M135.387,95.798c5.186,0,9.556,4.15,9.556,9.559c0,5.234-4.297,9.459-9.556,9.459
			c-5.26,0-9.558-4.225-9.558-9.459C125.829,99.949,130.2,95.798,135.387,95.798z M135.387,111.654c3.481,0,6.174-2.939,6.174-6.322
			c0-3.506-2.741-6.371-6.174-6.371c-3.434,0-6.174,2.865-6.174,6.371C129.213,108.714,131.905,111.654,135.387,111.654z"/>
		<path fill="#F9F9F9" d="M149.345,96.169h3.852l7.557,13.287h0.05V96.169h3.383v18.275h-3.779l-7.63-13.287h-0.049v13.287h-3.383
			V96.169L149.345,96.169z"/>
	</g>
</g>
<g>
	<g>
		<path fill="#F9F9F9" d="M274,166.746c-41.906,0-76-34.094-76-76c0-41.907,34.094-76,76-76s76,34.093,76,76
			C350,132.652,315.906,166.746,274,166.746z"/>
		<path fill="#FEC680" d="M274,17.746c40.252,0,73,32.748,73,73c0,40.252-32.748,73-73,73s-73-32.748-73-73
			C201,50.493,233.748,17.746,274,17.746 M274,11.746c-43.631,0-79,35.369-79,79s35.369,79,79,79c43.63,0,79-35.369,79-79
			S317.63,11.746,274,11.746L274,11.746z"/>
	</g>
	<rect x="221.617" y="66.257" fill="none" width="104.767" height="52.424"/>
	<g enable-background="new    ">
		<path fill="#FEC680" d="M240.548,65.884c5.242,0,9.661,4.194,9.661,9.661c0,5.292-4.344,9.561-9.661,9.561s-9.66-4.269-9.66-9.561
			C230.888,70.078,235.306,65.884,240.548,65.884z M240.548,81.911c3.521,0,6.241-2.971,6.241-6.391c0-3.545-2.771-6.44-6.241-6.44
			s-6.24,2.896-6.24,6.44C234.308,78.94,237.028,81.911,240.548,81.911z"/>
		<path fill="#FEC680" d="M253.63,66.258h5.667c2.122,0,3.444,0.399,4.493,1.249c1.049,0.849,2.172,2.346,2.172,4.468
			c0,1.223-0.449,3.146-1.772,4.418c-1.099,1.048-2.146,1.298-3.07,1.523l5.018,6.815h-4.145l-4.893-7.064h-0.05v7.064h-3.42V66.258
			z M257.05,75.096h2.197c2.82,0,3.295-1.873,3.295-2.846c0-1.023-0.624-2.796-3.295-2.796h-2.197V75.096z"/>
		<path fill="#FEC680" d="M269.083,66.258h4.194c4.543,0,6.516,1.224,7.589,2.147c1.747,1.498,3.046,4.244,3.046,7.14
			c0,3.32-1.723,6.516-4.419,7.988c-1.697,0.949-4.069,1.198-6.141,1.198h-4.27V66.258z M272.503,81.536h0.725
			c1.847,0,3.045-0.125,4.493-0.899c1.822-0.998,2.771-3.12,2.771-5.092c0-1.797-0.773-3.495-1.972-4.543
			c-1.423-1.298-3.22-1.548-5.367-1.548h-0.649V81.536z"/>
		<path fill="#FEC680" d="M287.507,66.258h9.936v3.195h-6.516v4.519h6.241v3.195h-6.241v4.369h6.516v3.195h-9.936V66.258z"/>
		<path fill="#FEC680" d="M301.562,66.258h5.667c2.122,0,3.444,0.399,4.493,1.249c1.049,0.849,2.172,2.346,2.172,4.468
			c0,1.223-0.449,3.146-1.772,4.418c-1.099,1.048-2.146,1.298-3.07,1.523l5.018,6.815h-4.145l-4.893-7.064h-0.05v7.064h-3.42V66.258
			z M304.981,75.096h2.197c2.82,0,3.295-1.873,3.295-2.846c0-1.023-0.624-2.796-3.295-2.796h-2.197V75.096z"/>
	</g>
	<g enable-background="new    ">
		<path fill="#FEC680" d="M233.459,96.073h4.79v1.869c0.856-0.817,2.647-2.608,5.919-2.608c1.869,0,4.712,0.817,6.503,2.998
			c1.986,2.375,1.986,5.997,1.986,7.672v11.682h-5.18v-10.67c0-1.791,0-6.932-4.361-6.932c-0.935,0-2.608,0.468-3.543,1.908
			c-0.935,1.324-0.935,3.583-0.935,5.413v10.28h-5.18V96.073z"/>
		<path fill="#FEC680" d="M257.683,106.899c0-6.542,5.335-11.565,11.526-11.565c6.113,0,11.448,4.867,11.448,11.487
			c0,7.087-5.451,11.565-11.448,11.565C262.784,118.386,257.683,113.09,257.683,106.899z M275.479,106.937
			c0-3.933-3.038-6.854-6.27-6.854c-2.687,0-6.348,2.298-6.348,6.815c0,4.089,3.076,6.736,6.348,6.736
			C272.986,113.635,275.479,110.365,275.479,106.937z"/>
		<path fill="#FEC680" d="M283.279,96.073h5.529l3.933,13.201h0.078l3.544-13.201h4.127l3.505,13.201h0.078l3.972-13.201h5.529
			l-7.904,21.612h-3.193l-4.05-14.019h-0.078l-4.089,14.019h-3.192L283.279,96.073z"/>
	</g>
</g>
</svg>
