<?xml version="1.0" encoding="utf-8"?>
<!-- Generator: Adobe Illustrator 16.0.0, SVG Export Plug-In . SVG Version: 6.00 Build 0)  -->
<!DOCTYPE svg PUBLIC "-//W3C//DTD SVG 1.1//EN" "http://www.w3.org/Graphics/SVG/1.1/DTD/svg11.dtd">
<svg version="1.1" id="Layer_1" xmlns="http://www.w3.org/2000/svg" xmlns:xlink="http://www.w3.org/1999/xlink" x="0px" y="0px"
	 width="264px" height="66px" viewBox="0 0 264 66" enable-background="new 0 0 264 66" xml:space="preserve">
<g>
	<path fill="#03A3CF" d="M256.837,39.713c-2.382-0.478-1.642-2.223-1.658-3.635c-0.018-2.24,0.124-4.498,0.071-6.738
		c-0.036-1.393,0.739-3.334-1.676-3.616c-2.171-0.265-2.171,1.554-2.823,2.911c-1.217,2.558-1.518,5.875-5.223,7.057
		c0.143-1.904,0.301-3.422,0.354-4.957c0.142-3.935-1.199-4.957-5.38-4.162c0,0,0-0.002-0.001-0.002
		c-0.035,0.846-0.405,1.729,0.193,2.54c0.222-0.551,0.661-1.116,0.604-1.644c0.059,0.527-0.382,1.093-0.604,1.645
		c1.286,0.405,1.306,1.643,1.692,2.629l0,0c0.229,2.135-2.098,4.92,1.604,6.154c0,0,0,0,0.001,0.001v0.001
		c3.175,2.4,4.975-1.234,7.566-1.852c-0.034,1.621,1.235,2.945-0.916,4.479c-5.646,3.97-7.198,11.396-4.094,18.029
		c0.6,1.253,0.336,3.616,2.999,3.192c2.224-0.354,3.6-1.465,3.952-3.688c0.511-3.316,0.862-6.65,1.445-9.95
		c0.389-2.258-1.039-5.134,2.26-6.526C258.125,41.195,257.825,39.908,256.837,39.713z M243.729,32.447
		c-0.027,0.137-0.052,0.272-0.076,0.409C243.678,32.72,243.701,32.582,243.729,32.447c0.042-0.214,0.062-0.385,0.065-0.522
		C243.792,32.062,243.771,32.234,243.729,32.447z M250.397,58.695c-3.773-4.005-3.104-11.167,1.747-15.525
		C252.285,48.781,252.285,53.791,250.397,58.695z"/>
	<path fill="#03A3CF" d="M240.501,26.57c-1.5,0.018-2.875,0.282-3.847-1.588c-1.234-2.347-3.562-2.664-6.052-1.711
		c-0.389-5.064,0.495-9.792,1.06-14.52c0.192-1.605,0.759-3.492-1.271-3.793c-2.311-0.316-2.363,1.748-2.435,3.494
		c-0.178,5.485-0.424,10.973-0.617,16.441c-0.177,4.657-0.264,9.297-0.494,13.938c-0.053,1.233-0.053,2.17,1.377,2.629
		c1.129,0.369,1.341-0.354,1.905-1.023c3.016-3.511,7.921-5.381,9.121-10.531c0.087-0.354,0.952-0.529,1.445-0.795
		C240.096,28.299,240.465,27.416,240.501,26.57z M231.609,31.51c0.035-1.553-0.635-3.299,1.2-4.059
		c0.582-0.246,1.146,0.266,1.252,0.812C234.468,30.168,232.722,30.609,231.609,31.51z"/>
	<path fill="#03A3CF" d="M213.491,22.742c-1.553-0.513-2.116,0.758-2.663,1.922c-0.529,1.131-1.096,2.26-1.781,3.688
		c-1.57-1.429-2.487-3.087-4.341-3.739c-1.889-0.652-3.229-0.389-2.98,1.887c0.582,5.188,1.905,10.216,4.729,14.679
		c0.986,1.569,2.682,1.853,3.793,0.142c3.176-4.816,5.608-9.949,5.521-15.912C215.75,23.941,214.709,23.113,213.491,22.742z
		 M208.446,39.537c-2.028-3.422-3.158-6.476-3.404-9.968C213.456,33.186,211.604,32.215,208.446,39.537z"/>
	<path fill="#03A3CF" d="M204.989,18.014c1.059,2.734,2.61,2.488,4.146,0.176c1.993-2.928,2.188-6.314,2.558-8.415
		c0.301-3.017,0.088-4.392-1.904-5.31c-1.958-0.883-2.348,0.688-2.807,1.517c-1.058,1.888-1.357,0.089-2.011-0.194
		c-0.83-0.369-1.676-1.322-2.646-0.477c-0.83,0.723-0.76,1.854-0.494,2.77C202.801,11.414,203.718,14.785,204.989,18.014z"/>
	<path fill="#03A3CF" d="M198.002,10.851c-1.605-0.44-1.941,1.271-2.628,2.258c-1.465,2.063-2.807,4.128-3.282,6.757
		c-0.44,2.609-1.765,2.945-3.438,0.705c-1.146-1.518-2.822-2.312-4.465-3.123c-3.492-1.746-5.309-0.759-4.922,3.035
		c0.777,7.27,3.917,13.514,9.527,18.277c2.787,2.381,5.31,1.729,6.738-1.57c2.77-6.352,4.058-13.09,4.48-19.988
		c0-0.986,0.053-1.976,0-2.963C199.925,12.773,199.52,11.273,198.002,10.851z M192.798,36.273c-0.848,1.869-2.046,0.916-2.946,0.034
		c-3.864-3.812-6.246-8.485-7.534-13.688c-0.423-1.729,0.514-2.383,2.137-1.766c3.562,1.357,6.668,3.141,6.332,8.133
		c2.789-3.246,2.225-7.232,5.61-10.267C196.45,25.265,195.233,30.893,192.798,36.273z"/>
	<path fill="#03A3CF" d="M161.659,33.043c-3.053,1.289-5.115-0.035-6.614-2.682c-0.495-0.863-0.972-1.712-1.482-2.558
		c-2.028-3.405-3.157-3.44-5.134-0.179c-0.936,1.535-1.8,3.142-2.945,5.136c-2.752-4.869-2.771-4.888,1.322-7.464
		c2.523-1.604,3.105-4.215,3.6-6.862c0.547-3.087-1.095-4.853-3.774-5.733c-2.841-0.935-4.675,0.618-5.699,3.018
		c-0.739,1.781-0.987,3.793-1.464,5.681c-0.264,1.041,0.917,2.752-1.357,2.823c-2.365,0.088-2.152-1.588-2.293-3.158
		c-0.212-2.505-0.547-5.01-0.83-7.516c-0.158-1.377-1.11-1.94-2.311-1.977c-0.917-0.035-1.835,0.812-1.799,1.518
		c0.229,3.917,2.594,7.779,0.035,11.732c-0.053,0.053,0.3,0.44,0.529,0.616c2.188,1.729,2.486,4.164,2.77,6.739
		c0.176,1.764,0.898,3.494,1.552,5.17c0.353,0.936,1.129,1.764,2.276,1.445c1.41-0.389,0.828-1.551,0.652-2.451
		c-0.353-1.924-0.865-3.828-1.146-5.752c-0.159-1.111-1.006-2.682,0.936-3.088c1.729-0.37,1.446,1.322,1.904,2.205
		c1.288,2.453,2.064,5.944,5.24,6.016c2.682,0.072,3.369-3.314,5.203-5.803c0.972,1.199,1.678,2.504,2.736,3.334
		c2.575,1.976,5.326,3.688,8.838,2.275c1.094-0.424,2.381-0.953,1.834-2.294C163.778,32.145,162.631,32.656,161.659,33.043z
		 M142.767,23.711c-0.105-1.039-0.335-1.869-0.229-2.662c0.246-1.906,0.404-4.006,2.717-4.711c0.706-0.229,1.447,0.176,1.5,1.006
		c0.105,2.064,0.492,4.304-1.87,5.539C144.282,23.183,143.614,23.377,142.767,23.711z"/>
	<path fill="#03A3CF" d="M128.636,25.899c-0.212-1.182-0.389-2.61-2.135-2.664c-1.27-0.017-2.734,0.865-2.381,1.747
		c1.447,3.651,0.6,8.221,4.304,11.008c0.565,0.424,1.094,1.023,1.799,0.688c0.776-0.371,0.636-1.271,0.353-1.835
		C129.218,32.002,129.165,28.898,128.636,25.899z"/>
	<path fill="#03A3CF" d="M126.817,19.742c0.988,0.019,1.817-1.094,1.977-2.381c0.211-1.604-0.988-1.764-2.029-2.223
		c-1.129-0.036-2.011,0.635-1.816,1.693C125.159,17.961,125.301,19.707,126.817,19.742z"/>
	<path fill="#03A3CF" d="M121.649,23.164c-1.746-0.123-2.082,1.006-2.135,2.435c-0.088,2.752,0.036,5.539-1.199,8.397
		c-3.634-1.977-4.463-5.205-5.205-8.485c-0.404-1.746-0.916-3.37-3.175-3.14c-2.206,0.211-2.011,1.922-2.082,3.492
		c-0.053,1.2-0.229,2.383-0.353,3.582c-0.67-1.888-0.883-3.811-1.307-5.697c-0.369-1.554-0.723-2.965-2.416-2.7
		c-1.553,0.247-1.43,1.817-1.164,3.122c0.898,4.658,1.834,9.298,2.681,13.973c0.194,1.165,1.129,1.077,1.817,1.43
		c1.322,0.652,1.711-0.512,2.258-1.253c1.322-1.799,0.406-4.409,2.328-6.579c0.742,0.936,1.217,1.887,1.994,2.436
		c1.905,1.34,3.864,3.334,6.404,2.435c2.417-0.848,2.029-3.477,2.382-5.487c0.317-1.799,0.441-3.633,0.617-5.45
		C123.202,24.523,123.29,23.306,121.649,23.164z"/>
	<path fill="#03A3CF" d="M77.351,36.483c-0.281-1.993,1.217-3.368,1.782-5.062c1.076-3.158-0.088-4.693-2.963-5.771
		c-2.981-1.11-4.534,0.406-5.716,2.718c-1.146,2.258-1.217,4.553-0.142,6.916c0.406,0.881,1.994,1.992,0.406,2.805
		c-1.394,0.705-2.628-0.246-3.422-1.641c-1.747-3.052-2.382-6.332-1.604-9.738c0.617-2.663,0.353-5.346,0.635-7.99
		c0.177-1.605-0.353-2.964-2.047-3.088c-1.905-0.143-2.152,1.535-2.258,2.945c-0.142,1.818-0.212,3.67-0.158,5.487
		c0.104,2.894,0.316,5.558-3.935,5.575c-1.288,0.018-2.771,1.376-3.812,2.452c-3.352,3.475-3.088,3.387-6.051-0.548
		c-0.882-1.164-0.617-4.039-3.897-3.281c-3.775,0.882-6.897,6.634-4.693,9.845c1.112,1.623,3.636,2.188,4.411,1.007
		c3.123-4.765,6.58-2.101,9.809-0.795c3,1.217,5.451,0.971,7.604-1.375c0.987-1.076,1.519-1.146,2.61,0
		c2.683,2.805,5.382,4.938,9.969,3.245c3.51-1.306,7.833,0.019,11.079-2.786c0.618-0.548,1.905-0.83,1.182-2.383
		C83.155,34.933,80.562,37.843,77.351,36.483z M42.509,38.39c-1.323-2.964-0.988-4.604,1.623-5.733
		C44.556,34.896,43.709,36.289,42.509,38.39z M55.368,35.002c1.271-1.711,2.418-2.911,4.641-2.063
		C59.181,35.074,57.698,35.549,55.368,35.002z M74.088,35.179c-1.041-1.958-1.94-3.669-0.124-5.47
		c0.635-0.617,1.482-0.457,1.835,0.16C77.052,32.091,75.022,33.344,74.088,35.179z"/>
	<path fill="#03A3CF" d="M34.446,32.938c-1.077-6.315-2.38-12.596-3.563-18.896c-0.247-1.252-0.865-2.223-2.117-2.258
		c-1.218-0.035-1.923,0.812-2.259,2.082c-0.511,1.889-1.27,3.705-1.852,5.575c-1.518,4.816-2.276,9.88-4.463,14.625
		c-1.518-1.198-1.799-2.717-2.223-4.198c-1.288-4.445-2.523-8.892-3.37-13.442c-0.723-3.952-2.258-4.675-6.033-3.37
		c0,0.001,0,0.002,0,0.004c-0.052,0.157-0.123,0.332-0.158,0.49c-1.288,4.021-0.335,8.203-0.829,12.277l0,0
		c-0.37,3.053-0.706,6.104-1.129,9.14c-0.211,1.411-0.723,2.717,1.429,3.175c2.558,0.529,1.976-1.587,2.17-2.609
		c0.759-3.899,1.253-7.869,2.011-12.949c1.553,4.429,2.576,7.763,3.881,10.974c0.988,2.417,2.028,5.804,5.028,5.274
		c2.135-0.371,2.417-3.723,2.981-6.033c1.077-4.393,2.258-8.732,3.493-13.426c3.74,5.699,1.676,13.232,7.269,18.013
		C35.612,35.479,34.677,34.209,34.446,32.938z M7.794,25.414c-0.001,0.002-0.001,0.002-0.002,0.004
		c0.044-0.096,0.064-0.194,0.102-0.291C7.857,25.222,7.837,25.318,7.794,25.414z M8.296,23.5c0.205-1.938-0.316-3.928-0.064-5.857
		c0.083-0.637,0.045-1.281,0.02-1.924c0.025,0.643,0.063,1.288-0.02,1.924C7.979,19.572,8.501,21.562,8.296,23.5z"/>
</g>
<text transform="matrix(1 0 0 1 2.1665 -25.8335)" font-family="'SignPainter-HouseScript'" font-size="50">Made with    by</text>
</svg>
