<?xml version="1.0" encoding="utf-8"?>
<!-- Generator: Adobe Illustrator 16.0.0, SVG Export Plug-In . SVG Version: 6.00 Build 0)  -->
<!DOCTYPE svg PUBLIC "-//W3C//DTD SVG 1.1//EN" "http://www.w3.org/Graphics/SVG/1.1/DTD/svg11.dtd">
<svg version="1.1" id="Layer_1" xmlns="http://www.w3.org/2000/svg" xmlns:xlink="http://www.w3.org/1999/xlink" x="0px" y="0px"
	 width="264px" height="66px" viewBox="96.481 79.789 264 66" enable-background="new 96.481 79.789 264 66" xml:space="preserve">
<g>
	<path fill="#03A3CF" d="M355.451,120.82c-2.382-0.477-1.641-2.223-1.658-3.634c-0.018-2.24,0.124-4.498,0.071-6.739
		c-0.036-1.393,0.74-3.334-1.676-3.616c-2.17-0.264-2.17,1.554-2.823,2.911c-1.217,2.558-1.517,5.875-5.222,7.057
		c0.142-1.905,0.3-3.422,0.353-4.957c0.142-3.935-1.199-4.957-5.38-4.163c0,0,0-0.001-0.001-0.001
		c-0.035,0.846-0.405,1.729,0.194,2.54c0.221-0.551,0.661-1.116,0.604-1.644c0.059,0.527-0.382,1.093-0.603,1.645
		c1.286,0.405,1.305,1.642,1.692,2.629l0,0c0.229,2.134-2.098,4.92,1.604,6.154c0,0,0,0,0.001,0.001v0.001
		c3.175,2.4,4.975-1.234,7.567-1.852c-0.034,1.622,1.235,2.945-0.916,4.48c-5.646,3.969-7.198,11.396-4.094,18.029
		c0.6,1.253,0.336,3.617,2.999,3.193c2.224-0.354,3.6-1.465,3.952-3.688c0.511-3.317,0.863-6.65,1.446-9.95
		c0.388-2.258-1.04-5.134,2.259-6.527C356.739,122.303,356.439,121.015,355.451,120.82z M342.344,113.554
		c-0.028,0.137-0.052,0.273-0.076,0.41C342.292,113.827,342.315,113.69,342.344,113.554c0.042-0.213,0.062-0.384,0.065-0.522
		C342.406,113.17,342.386,113.342,342.344,113.554z M349.012,139.803c-3.774-4.005-3.104-11.167,1.747-15.525
		C350.899,129.889,350.899,134.898,349.012,139.803z"/>
	<path fill="#03A3CF" d="M339.115,107.678c-1.5,0.018-2.875,0.282-3.846-1.588c-1.235-2.347-3.563-2.664-6.052-1.711
		c-0.389-5.064,0.495-9.792,1.059-14.52c0.193-1.605,0.759-3.492-1.271-3.792c-2.311-0.317-2.363,1.747-2.435,3.493
		c-0.177,5.486-0.423,10.973-0.617,16.442c-0.177,4.657-0.264,9.297-0.494,13.937c-0.053,1.234-0.053,2.17,1.377,2.629
		c1.129,0.37,1.341-0.354,1.905-1.023c3.016-3.511,7.921-5.381,9.121-10.532c0.087-0.353,0.952-0.529,1.446-0.794
		C338.71,109.406,339.079,108.524,339.115,107.678z M330.224,112.617c0.035-1.553-0.635-3.299,1.2-4.059
		c0.582-0.246,1.146,0.266,1.252,0.812C333.082,111.276,331.336,111.717,330.224,112.617z"/>
	<path fill="#03A3CF" d="M312.105,103.849c-1.552-0.512-2.116,0.759-2.663,1.923c-0.529,1.13-1.095,2.259-1.781,3.688
		c-1.57-1.429-2.487-3.087-4.341-3.74c-1.888-0.652-3.228-0.388-2.98,1.888c0.582,5.187,1.905,10.215,4.728,14.678
		c0.987,1.57,2.682,1.853,3.793,0.142c3.176-4.816,5.609-9.95,5.521-15.913C314.364,105.049,313.323,104.22,312.105,103.849z
		 M307.061,120.644c-2.029-3.422-3.158-6.475-3.405-9.967C312.07,114.293,310.219,113.322,307.061,120.644z"/>
	<path fill="#03A3CF" d="M303.603,99.121c1.059,2.735,2.611,2.488,4.146,0.176c1.993-2.928,2.188-6.315,2.558-8.415
		c0.3-3.017,0.088-4.392-1.905-5.31c-1.958-0.882-2.347,0.688-2.806,1.517c-1.058,1.888-1.358,0.089-2.011-0.194
		c-0.83-0.37-1.676-1.323-2.646-0.477c-0.829,0.723-0.759,1.853-0.493,2.77C301.415,92.522,302.332,95.893,303.603,99.121z"/>
	<path fill="#03A3CF" d="M296.616,91.958c-1.605-0.441-1.941,1.271-2.628,2.258c-1.465,2.064-2.806,4.128-3.282,6.756
		c-0.44,2.61-1.764,2.946-3.439,0.706c-1.146-1.518-2.822-2.312-4.464-3.123c-3.492-1.746-5.309-0.759-4.922,3.035
		c0.777,7.269,3.917,13.513,9.527,18.277c2.787,2.381,5.31,1.729,6.738-1.57c2.77-6.351,4.058-13.09,4.481-19.988
		c0-0.987,0.053-1.976,0-2.963C298.539,93.881,298.134,92.381,296.616,91.958z M291.412,117.381
		c-0.847,1.869-2.046,0.916-2.946,0.034c-3.864-3.812-6.246-8.485-7.534-13.689c-0.423-1.729,0.513-2.382,2.136-1.765
		c3.563,1.358,6.669,3.141,6.333,8.133c2.788-3.246,2.224-7.233,5.61-10.267C295.064,106.372,293.847,112,291.412,117.381z"/>
	<path fill="#03A3CF" d="M260.274,114.151c-3.053,1.288-5.116-0.036-6.615-2.682c-0.495-0.864-0.971-1.712-1.482-2.558
		c-2.028-3.405-3.158-3.44-5.134-0.178c-0.936,1.535-1.8,3.141-2.946,5.135c-2.752-4.869-2.77-4.887,1.323-7.463
		c2.523-1.605,3.105-4.216,3.599-6.863c0.548-3.087-1.094-4.852-3.774-5.733c-2.84-0.935-4.675,0.618-5.699,3.017
		c-0.74,1.782-0.987,3.793-1.464,5.681c-0.264,1.041,0.917,2.752-1.358,2.823c-2.364,0.088-2.152-1.588-2.293-3.158
		c-0.211-2.505-0.546-5.01-0.829-7.516c-0.159-1.376-1.111-1.94-2.311-1.976c-0.917-0.035-1.835,0.812-1.799,1.517
		c0.229,3.917,2.594,7.78,0.035,11.732c-0.053,0.054,0.3,0.441,0.529,0.617c2.188,1.729,2.487,4.164,2.77,6.739
		c0.176,1.764,0.899,3.494,1.552,5.17c0.353,0.935,1.129,1.764,2.276,1.445c1.411-0.388,0.829-1.551,0.653-2.451
		c-0.353-1.923-0.865-3.828-1.147-5.752c-0.159-1.111-1.005-2.682,0.935-3.087c1.729-0.371,1.447,1.322,1.905,2.205
		c1.288,2.452,2.064,5.944,5.24,6.015c2.682,0.072,3.369-3.315,5.204-5.803c0.971,1.199,1.677,2.504,2.735,3.334
		c2.576,1.976,5.327,3.688,8.838,2.275c1.094-0.423,2.382-0.952,1.835-2.293C262.392,113.252,261.245,113.764,260.274,114.151z
		 M241.381,104.819c-0.105-1.04-0.335-1.87-0.229-2.663c0.247-1.906,0.405-4.005,2.717-4.711c0.706-0.229,1.447,0.176,1.5,1.006
		c0.105,2.064,0.493,4.304-1.87,5.539C242.897,104.29,242.228,104.484,241.381,104.819z"/>
	<path fill="#03A3CF" d="M227.25,107.007c-0.212-1.182-0.388-2.611-2.135-2.664c-1.27-0.017-2.734,0.865-2.381,1.747
		c1.447,3.651,0.6,8.221,4.304,11.008c0.565,0.424,1.094,1.023,1.799,0.688c0.776-0.371,0.636-1.271,0.353-1.835
		C227.832,113.11,227.779,110.006,227.25,107.007z"/>
	<path fill="#03A3CF" d="M225.432,100.85c0.988,0.018,1.817-1.094,1.976-2.381c0.211-1.605-0.988-1.764-2.029-2.223
		c-1.129-0.036-2.011,0.635-1.817,1.694C223.774,99.068,223.915,100.814,225.432,100.85z"/>
	<path fill="#03A3CF" d="M220.264,104.272c-1.747-0.124-2.082,1.006-2.135,2.434c-0.088,2.752,0.036,5.539-1.199,8.397
		c-3.634-1.976-4.463-5.204-5.205-8.485c-0.405-1.746-0.917-3.37-3.175-3.14c-2.206,0.211-2.011,1.923-2.082,3.493
		c-0.053,1.2-0.229,2.382-0.353,3.582c-0.67-1.888-0.882-3.811-1.306-5.698c-0.37-1.553-0.723-2.964-2.417-2.7
		c-1.552,0.248-1.429,1.817-1.164,3.123c0.899,4.657,1.834,9.297,2.681,13.972c0.194,1.165,1.129,1.077,1.817,1.43
		c1.323,0.652,1.711-0.512,2.258-1.253c1.323-1.799,0.406-4.41,2.329-6.58c0.741,0.936,1.217,1.888,1.994,2.436
		c1.905,1.34,3.864,3.334,6.404,2.435c2.417-0.848,2.029-3.477,2.382-5.487c0.317-1.799,0.441-3.634,0.617-5.451
		C221.816,105.631,221.904,104.413,220.264,104.272z"/>
	<path fill="#03A3CF" d="M175.965,117.591c-0.282-1.993,1.217-3.369,1.782-5.062c1.076-3.158-0.088-4.693-2.963-5.77
		c-2.981-1.11-4.534,0.406-5.715,2.718c-1.147,2.258-1.217,4.552-0.142,6.915c0.406,0.882,1.994,1.993,0.406,2.805
		c-1.394,0.706-2.628-0.246-3.422-1.64c-1.747-3.052-2.381-6.333-1.605-9.738c0.618-2.664,0.353-5.346,0.636-7.991
		c0.176-1.606-0.353-2.964-2.047-3.088c-1.906-0.142-2.153,1.535-2.258,2.946c-0.142,1.818-0.212,3.67-0.159,5.487
		c0.105,2.894,0.317,5.558-3.934,5.575c-1.288,0.018-2.77,1.376-3.811,2.452c-3.352,3.475-3.088,3.387-6.051-0.547
		c-0.882-1.165-0.617-4.04-3.898-3.282c-3.775,0.882-6.898,6.634-4.693,9.845c1.112,1.623,3.635,2.188,4.411,1.006
		c3.123-4.764,6.58-2.1,9.809-0.794c2.999,1.217,5.451,0.971,7.604-1.376c0.988-1.076,1.518-1.146,2.611,0
		c2.682,2.805,5.381,4.939,9.968,3.246c3.51-1.306,7.833,0.018,11.079-2.787c0.618-0.547,1.906-0.83,1.182-2.382
		C181.77,116.04,179.176,118.95,175.965,117.591z M141.123,119.497c-1.323-2.964-0.988-4.604,1.623-5.733
		C143.17,116.004,142.323,117.397,141.123,119.497z M153.983,116.109c1.271-1.711,2.417-2.911,4.64-2.063
		C157.795,116.181,156.312,116.656,153.983,116.109z M172.702,116.286c-1.041-1.958-1.941-3.669-0.124-5.469
		c0.635-0.618,1.482-0.458,1.835,0.159C175.666,113.198,173.637,114.451,172.702,116.286z"/>
	<path fill="#03A3CF" d="M133.061,114.046c-1.077-6.315-2.381-12.596-3.564-18.895c-0.247-1.252-0.865-2.223-2.117-2.258
		c-1.218-0.035-1.923,0.812-2.259,2.082c-0.511,1.888-1.27,3.705-1.852,5.575c-1.518,4.816-2.276,9.88-4.463,14.625
		c-1.518-1.199-1.799-2.717-2.223-4.198c-1.288-4.446-2.523-8.892-3.37-13.443c-0.723-3.952-2.258-4.675-6.033-3.37
		c0,0.001,0,0.002,0,0.004c-0.052,0.157-0.123,0.332-0.158,0.49c-1.288,4.022-0.335,8.203-0.829,12.277l0,0.001
		c-0.37,3.053-0.706,6.104-1.129,9.139c-0.211,1.411-0.723,2.717,1.429,3.175c2.558,0.529,1.976-1.587,2.17-2.61
		c0.759-3.899,1.253-7.869,2.011-12.949c1.553,4.429,2.576,7.763,3.881,10.974c0.988,2.417,2.028,5.804,5.028,5.274
		c2.135-0.37,2.417-3.722,2.981-6.033c1.077-4.393,2.258-8.732,3.493-13.425c3.74,5.699,1.676,13.232,7.269,18.012
		C134.226,116.586,133.291,115.316,133.061,114.046z M106.408,106.521c-0.001,0.002-0.001,0.003-0.002,0.005
		c0.044-0.097,0.064-0.195,0.102-0.292C106.471,106.329,106.451,106.426,106.408,106.521z M106.91,104.607
		c0.205-1.937-0.316-3.927-0.064-5.857c0.083-0.637,0.045-1.281,0.02-1.924c0.025,0.643,0.063,1.288-0.02,1.924
		C106.594,100.68,107.115,102.67,106.91,104.607z"/>
</g>
</svg>
