<?xml version="1.0" encoding="utf-8"?>
<!-- Generator: Adobe Illustrator 16.0.0, SVG Export Plug-In . SVG Version: 6.00 Build 0)  -->
<!DOCTYPE svg PUBLIC "-//W3C//DTD SVG 1.1//EN" "http://www.w3.org/Graphics/SVG/1.1/DTD/svg11.dtd">
<svg version="1.1" id="Layer_1" xmlns="http://www.w3.org/2000/svg" xmlns:xlink="http://www.w3.org/1999/xlink" x="0px" y="0px"
	 width="178px" height="78px" viewBox="5.413 8.954 178 78" enable-background="new 5.413 8.954 178 78" xml:space="preserve">
<g>
	<path fill="#8BC2BC" d="M13.312,84.239c-0.015,0.328-0.189,0.39-0.474,0.229c-0.561-0.284-1.229-1.155-1.179-3.122
		c0.095-3.122,2.053-12.492,3.677-17.844c0.126-0.469,0.377-0.688,0.867-0.501c1.482,0.575,2.162,1.472,2.22,4.018
		c0.059,3.1,0.217,6.846,0.552,11.275c1.332-6.257,4.039-12.06,5.474-18.126c0.118-0.494,0.339-0.607,0.812-0.386
		c1.583,0.772,1.859,2.463,1.589,4.183c-0.696,4.47-1.52,11.327-1.491,15.996c-0.013,0.328-0.129,0.37-0.433,0.251
		c-0.598-0.211-1.255-0.952-1.441-3.03c-0.171-1.857,0.247-6.554,0.849-10.83c-1.892,5.155-3.685,10.766-4.397,15.37
		c-0.042,0.341-0.156,0.481-0.45,0.389c-1.205-0.353-2.002-1.207-2.349-3.1c-0.325-1.735-0.786-6.056-0.877-10.344
		C15.056,73.448,13.645,79.764,13.312,84.239z"/>
	<path fill="#8BC2BC" d="M36.042,63.238c0.129-0.469,0.339-0.608,0.635-0.421c0.621,0.364,1.297,1.522,1.113,3.21
		c-0.178,1.525-0.856,4.204-1.008,5.979c-0.149,1.873,0.264,3.123,1.229,2.716c1.169-0.48,2.067-3.011,2.373-5.36
		c0.052-0.309,0.246-0.41,0.454-0.192c0.209,0.219,0.466,0.94,0.377,1.881c-0.191,1.854-1.452,4.092-3.081,4.568
		c-1.599,0.472-2.741-0.164-3.224-1.519c-0.508,1.512-1.435,3.044-2.828,3.539c-2.7,0.957-4.558-2.51-3.393-6.855
		c1.138-4.239,2.967-6.351,4.419-6.865c1.248-0.443,2.167,0.3,2.512,1.449C35.756,64.543,35.886,63.812,36.042,63.238z
		 M34.141,65.243c-0.96,0.243-2.411,2.872-3.091,6.005c-0.655,3.025-0.126,5.699,1.016,5.327c1.2-0.396,2.052-2.777,2.628-5.84
		C35.391,66.913,35.016,65.032,34.141,65.243z"/>
	<path fill="#8BC2BC" d="M49.479,70.656c1.17-0.481,2.049-2.971,2.355-5.32c0.052-0.312,0.254-0.385,0.453-0.193
		c0.21,0.219,0.507,0.959,0.408,1.872c-0.22,1.864-1.475,4.03-3.103,4.511c-1.597,0.471-2.691-0.116-3.174-1.472
		c-0.517,1.482-1.445,3.012-2.808,3.498c-2.699,0.959-4.528-2.52-3.384-6.826c1.101-4.16,2.961-6.281,4.411-6.797
		c1.191-0.421,2.092,0.266,2.443,1.342c0.508-3.526,1.315-8.232,1.835-10.073c0.148-0.509,0.418-0.57,0.697-0.249
		c0.746,0.812,1.102,2.081,0.653,4.678c-0.511,2.972-1.599,8.723-1.959,12.295C48.12,69.869,48.513,71.06,49.479,70.656z
		 M42.554,67.197c-0.683,3.036-0.105,5.66,1.037,5.286c1.17-0.385,2.134-2.642,2.562-5.749c0.541-3.8,0.329-5.771-0.524-5.503
		C44.719,61.523,43.247,64.092,42.554,67.197z"/>
	<path fill="#8BC2BC" d="M56.861,67.969c2.451-0.737,3.747-3.797,4.316-6.145c0.062-0.284,0.296-0.366,0.505-0.149
		c0.198,0.191,0.399,1.029,0.142,1.966c-0.59,2.191-2.354,4.312-4.579,5.133c-3.665,1.368-6.229-1.786-5.67-6.176
		c0.56-4.39,2.986-6.941,4.737-6.62c0.879,0.175,1.556,0.421,2.25,0.894c0.768,0.506,1.165,2.347,0.469,4.251
		c-0.806,2.236-2.482,3.678-5.102,2.754C53.945,66.862,55.292,68.429,56.861,67.969z M56.903,60.48
		c0.498-1.542,0.603-3.265,0.083-3.44c-0.785-0.271-2.578,2.312-2.966,5.537c-0.024,0.204-0.051,0.407-0.057,0.573
		C55.706,63.54,56.452,61.875,56.903,60.48z"/>
	<path fill="#8BC2BC" d="M80.909,46.68c0.359-0.189,0.686,0.182,0.78,0.83c0.174,1.238,0.136,2.708-0.602,6.372
		c-0.817,3.986-2.101,6.934-4.069,7.559c-1.261,0.406-2.355-0.477-2.704-1.747c-0.516,1.508-1.33,3.092-2.756,3.493
		c-1.844,0.517-2.824-1.25-2.82-3.653c0-2.139,0.427-5.471,1.453-8.778c0.121-0.401,0.422-0.473,0.686-0.275
		c1.033,0.711,1.324,2.002,0.849,4.084c-0.469,2.013-0.748,3.636-0.841,5.226c-0.083,1.618,0.3,2.62,0.959,2.358
		c1.153-0.436,1.549-2.75,2.235-5.813c0.823-3.597,0.968-5.885,1.49-7.464c0.158-0.475,0.312-0.597,0.667-0.426
		c0.591,0.376,1.27,1.568,1.078,3.256c-0.185,1.522-0.864,4.227-1.053,6.015c-0.208,1.921,0.227,2.873,1.081,2.604
		c1.027-0.326,2.102-2.842,2.717-6.108C79,49.621,80.339,47.01,80.909,46.68z"/>
	<path fill="#8BC2BC" d="M83.083,54.548c-0.015-2.364,0.708-6.442,1.255-8.321c0.139-0.439,0.312-0.598,0.637-0.419
		c0.599,0.31,1.268,1.472,1.078,3.159c-0.166,1.487-0.694,3.877-0.798,5.535c-0.108,1.918,0.357,3.054,1.256,2.644
		c1.298-0.489,2.216-2.983,2.388-5.28c0.056-0.312,0.269-0.354,0.465-0.161c0.398,0.377,0.521,1.016,0.428,1.859
		c-0.243,2.099-1.648,3.951-3.277,4.521C84.307,58.858,83.102,57.203,83.083,54.548z M86.918,44.74
		c-0.235,0.537-1.079,0.733-1.781,0.134c-0.74-0.614-0.899-1.533-0.606-2.186c0.293-0.654,1.258-0.602,1.91,0.046
		C87.083,43.352,87.154,44.203,86.918,44.74z"/>
	<path fill="#8BC2BC" d="M87.73,43.709c-0.434-0.302-0.331-0.564,0.116-0.69c0.823-0.255,1.62-0.598,2.373-0.961
		c0.343-1.902,0.681-3.546,0.952-4.354c0.13-0.465,0.432-0.537,0.699-0.241c0.604,0.694,0.939,1.649,0.769,3.395
		c1.125-0.426,1.745-0.058,2.109,0.236c0.326,0.276,0.279,0.518-0.156,0.671c-0.672,0.138-1.542,0.541-2.229,0.908
		c-0.453,2.334-1.125,5.717-1.378,8.525c-0.216,2.447,0.732,4.126,1.973,3.757c1.329-0.399,2.268-3.031,2.581-5.574
		c0.051-0.407,0.351-0.576,0.609-0.215c0.31,0.415,0.348,0.984,0.288,1.75c-0.081,0.969-1.108,4.184-3.465,4.909
		c-1.939,0.614-4.233-0.984-4.005-4.794c0.103-1.659,0.471-4.511,0.919-7.231C88.896,44.146,88.075,43.946,87.73,43.709z"/>
	<path fill="#8BC2BC" d="M103.883,52.042c-2.444,0.852-3.674-0.694-3.685-3.512c-0.025-3.139,1.447-7.028,0.892-7.126
		c-0.487-0.089-2.966,2.982-3.688,6.319c-0.446,2.071-0.814,4.468-0.891,6.475c-0.024,0.303-0.209,0.431-0.453,0.289
		c-0.648-0.356-1.195-1.074-1.194-3.02c0.003-3.248,2.474-15.533,3.805-19.274c0.141-0.439,0.442-0.513,0.709-0.215
		c0.672,0.705,1.094,2.181,0.629,4.389c-0.293,1.399-1.01,4.276-1.581,6.65c0.786-1.574,1.962-3.052,2.778-3.243
		c1.03-0.231,2.441,0.902,2.203,2.639c-0.194,1.493-0.848,4.092-0.989,5.826c-0.136,1.929,0.485,3.236,1.544,2.803
		c1.17-0.477,2.04-3.116,2.29-5.279c0.024-0.303,0.314-0.403,0.514-0.214c0.257,0.268,0.471,0.875,0.339,1.895
		C106.864,49.375,105.597,51.44,103.883,52.042z"/>
	<path fill="#8BC2BC" d="M162.086,32.7c-1.569,0.453-2.806-0.053-3.713-1.191c-0.09,0.695-0.211,1.494-0.296,2.191
		c-0.033,0.325-0.2,0.407-0.448,0.223c-0.614-0.458-1.16-1.229-1.089-3.191c0.089-2.67,2.721-15.227,3.941-18.638
		c0.154-0.46,0.392-0.529,0.748-0.186c0.683,0.696,1.068,2.019,0.497,4.573c-0.204,0.954-0.886,3.349-1.332,5.233
		c0.635-1.016,1.415-1.749,2.187-1.972c2.514-0.727,3.643,2.71,3.06,6.767C165.15,29.999,163.803,32.204,162.086,32.7z
		 M160.671,22.876c-0.932,1.767-1.643,4.619-2.075,7.195c0.308,0.837,0.967,1.667,1.814,1.616c1.106-0.064,2.208-1.339,2.933-5.247
		c0.72-3.81-0.157-5.499-0.857-5.362C161.849,21.199,161.292,21.709,160.671,22.876z"/>
	<path fill="#8BC2BC" d="M174.175,30.039c-0.51,4.42-1.233,9.758-3.413,11.411c-0.505,0.366-1.066,0.528-1.871-0.132
		c-0.845-0.711-1.738-1.569-1.652-3.473c0.117-2.905,2.119-5.396,4.717-7.388c0.098-0.761,0.178-1.581,0.299-2.381
		c-0.642,1.205-1.545,2.293-2.754,2.548c-2.183,0.438-2.866-1.692-2.752-3.83c0.104-2.07,0.707-5.397,1.859-8.601
		c0.144-0.392,0.448-0.448,0.737-0.213c0.986,0.733,1.167,2.019,0.578,4.07c-0.569,2.016-0.867,3.41-1.027,4.952
		c-0.174,1.612,0.185,2.624,0.883,2.487c1.181-0.247,2.111-2.553,2.875-5.547c0.64-2.543,1.141-5.561,1.74-7.357
		c0.157-0.459,0.347-0.577,0.683-0.419c0.568,0.411,1.171,1.607,0.842,3.328c-0.395,1.962-1.172,6.01-1.584,9.223
		c1.95-1.902,3.207-4.084,3.922-6.041c0.086-0.248,0.345-0.357,0.49-0.08c0.135,0.248,0.241,0.951-0.037,1.86
		C178.087,26.611,176.341,28.33,174.175,30.039z M169.195,40.149c0.546,0.443,2.041-3.462,2.615-8.313
		C168.606,35.154,168.448,39.567,169.195,40.149z"/>
	<path fill="#FFC881" d="M126.351,26.268c0.863-2.028,1.517-3.75,2.318-5.402c0.787-1.628,1.79-3.112,3.222-4.301
		c1.396-1.158,3.026-0.075,3.372,1.357c0.504,2.096,0.245,4.157-0.062,6.249c-0.849,5.768-3.093,10.984-6.082,15.929
		c-0.914,1.511-1.75,3.067-2.605,4.613c-0.406,0.73-0.945,1.123-1.745,0.649c-0.72-0.428-1.658-0.922-0.962-1.942
		c0.756-1.102,0.303-1.964-0.229-2.884c-2.784-4.82-5.879-9.437-8.983-14.049c-1.74-2.585-3.085-5.379-3.52-8.511
		c-0.109-0.819-0.084-1.712,0.128-2.506c0.254-0.947,0.993-1.521,2.047-1.588c5.864-0.379,9.665,2.609,11.519,7.804
		C125.272,23.089,125.743,24.505,126.351,26.268z M124.407,29.489c-0.119-3.104-0.704-5.906-1.838-8.548
		c-1.679-3.914-3.78-5.447-7.558-5.271c-1.132,0.054-1.597,0.544-1.648,1.61c-0.104,2.14,0.658,4.044,1.587,5.894
		c1.272,2.534,2.982,4.79,4.562,7.129c1.956,2.896,3.875,5.818,5.782,8.746c0.438,0.671,0.714,0.725,1.11-0.018
		c0.437-0.819,0.938-1.603,1.413-2.399c2.856-4.768,4.593-9.913,5.095-15.451c0.046-0.503,0.503-1.361-0.213-1.54
		c-0.517-0.128-0.809,0.724-1.098,1.228c-2.329,4.035-3.653,8.459-5.014,12.869c-0.198,0.649-0.514,0.964-1.188,0.711
		c-1.144-0.432-1.545-1.259-1.219-2.415C124.437,31.131,124.413,30.201,124.407,29.489z"/>
	<path fill="#FFC881" d="M134.154,40.292c-0.064-2.735,2.051-4.14,4.463-3.081c1.027,0.451,1.85,1.172,2.535,2.04
		c0.502,0.635,0.833,0.61,1.112-0.155c0.435-1.193,1.347-1.9,2.461-2.4c2.199-0.988,3.676-0.206,4.194,2.222
		c0.491,2.303-0.426,4.271-1.445,6.229c-1.393,2.68-2.765,5.369-4.12,8.069c-0.571,1.142-2.315,1.369-2.989,0.204
		c-2.121-3.669-4.578-7.169-5.881-11.264C134.278,41.515,134.129,40.854,134.154,40.292z M146.798,39.362
		c-0.007-0.032,0.149-0.433-0.157-0.656c-0.394-0.286-0.699,0.105-1.029,0.254c-1.458,0.657-1.91,1.991-2.291,3.391
		c-0.123,0.454-0.033,1.104-0.681,1.235c-0.571,0.115-0.88-0.389-1.262-0.699c-0.307-0.25-0.421-0.568-0.527-0.954
		c-0.283-1.042-0.906-1.912-1.784-2.536c-0.541-0.386-1.252-0.762-1.872-0.378c-0.634,0.388-0.849,1.182-0.772,1.906
		c0.073,0.698,0.305,1.394,0.549,2.058c0.94,2.535,2.671,4.643,3.873,7.035c0.319,0.635,0.612,0.738,1.02,0.018
		c1.56-2.783,3.203-5.521,4.508-8.437C146.65,40.978,146.857,40.345,146.798,39.362z"/>
</g>
</svg>
