<?xml version="1.0" encoding="utf-8"?>
<!-- Generator: Adobe Illustrator 16.0.0, SVG Export Plug-In . SVG Version: 6.00 Build 0)  -->
<!DOCTYPE svg PUBLIC "-//W3C//DTD SVG 1.1//EN" "http://www.w3.org/Graphics/SVG/1.1/DTD/svg11.dtd">
<svg version="1.1" id="Layer_1" xmlns="http://www.w3.org/2000/svg" xmlns:xlink="http://www.w3.org/1999/xlink" x="0px" y="0px"
	 width="220px" height="160px" viewBox="0 0 220 160" enable-background="new 0 0 220 160" xml:space="preserve">
<g>
	<g>
		<path fill-rule="evenodd" clip-rule="evenodd" fill="#28A3CB" d="M157.058,54.438c0.425-5.062-2.153-8.539-6.202-11.174
			c-3.61-2.35-8.491-2.141-11.04,0.559c-1.256,1.33-2.003,3.041-2.791,4.705c-0.309,0.652-0.643,1.633-1.615,1.561
			c-0.905-0.066-1.093-1.074-1.599-1.662c-0.127-0.146-0.156-0.451-0.116-0.662c0.972-5.021,5.391-9.266,10.601-9.242
			c3.083,0.014,6.491,0.357,9.064,2.609c3.035,2.656,6.241,5.229,6.912,9.619c0.512,3.346,0.942,6.654-0.172,10.002
			c-0.522,1.57-1.503,2.846-2.435,4.055c-2.231,2.898-4.37,5.973-7.777,7.715c-2.815,1.439-3.981,3.922-4.631,6.869
			c-0.505,2.295-1.093,4.633-3.371,6.006c-2.552,1.539-4.73,1.219-6.554-1.146c-1.552-2.014-2.459-4.316-3.044-6.795
			c-0.354-1.504,0.269-1.975,1.558-2.195c1.43-0.244,2.057,0.467,2.161,1.758c0.142,1.734,0.62,3.359,1.48,4.861
			c0.913,1.596,1.533,1.627,2.721,0.254c1.346-1.557,1.637-3.57,1.99-5.42c0.607-3.176,2.713-5.051,5.101-6.646
			c3.814-2.549,6.658-5.91,8.833-9.855C157.086,58.48,157.284,56.494,157.058,54.438z"/>
		<path fill-rule="evenodd" clip-rule="evenodd" fill="#28A3CB" d="M152.713,56.484c0.063,1.727-0.805,3.02-1.786,4.322
			c-0.746,0.99-1.574,0.738-2.169,0.16c-0.571-0.555-1.747-1.223-0.449-2.34c2.259-1.943,0.83-5.764-1.161-7.188
			c-1.649-1.18-2.698-0.691-3.371,1.346c-0.688,2.086-0.691,4.314-1.426,6.4c-0.948,2.691-2.291,4.986-5.026,6.221
			c-1.421,0.641-1.728-0.787-2.496-1.307c-0.701-0.473-0.187-1.102,0.265-1.32c2.769-1.334,2.605-3.988,2.722-6.346
			c0.185-3.717,2.361-6.035,5.115-7.945c1.564-1.084,5.044-0.213,6.862,1.682C151.454,51.902,152.656,53.961,152.713,56.484z"/>
	</g>
	<g>
		<path fill-rule="evenodd" clip-rule="evenodd" fill="#28A3CB" d="M59.233,72.09c-0.237-3.408,0.87-6.889,0.619-10.383
			c-0.201-2.789,0.103-5.559-0.122-8.324c-0.261-3.23,0.447-6.324,1.15-9.432c0.283-1.248,0.769-2.359,1.628-3.295
			c1.433-1.561,2.764-1.594,4.334-0.1c0.516,0.49,0.744,0.154,0.95-0.273c0.413-0.85,0.904-1.652,1.382-2.467
			c1.106-1.885,4.241-1.465,4.97,0.672c0.097,0.283,0.233,0.555,0.328,0.84c0.085,0.256,0.175,0.545,0.473,0.541
			c0.313-0.006,0.299-0.34,0.412-0.564c0.643-1.289,0.798-2.805,1.958-3.859c1.976-1.791,4.337-1.322,5.582,1.066
			c1.02,1.957,1.494,4.004,1.528,6.188c0.012,0.789-0.023,1.482,1.17,0.707c1.705-1.105,4.148-0.049,4.8,1.891
			c0.515,1.531,0.416,3.111,0.322,4.674c-0.147,2.455,0.079,4.926-0.319,7.371c-0.042,0.262-0.161,0.65,0.186,0.812
			c0.362,0.17,0.499-0.232,0.73-0.395c1.606-1.135,3.104-2.445,5.179-2.725c0.692-0.092,1.362-0.049,2.016,0.055
			c1.467,0.232,2.398,1.863,1.948,3.475c-0.369,1.316-0.713,2.668-1.566,3.795c-1.75,2.311-2.141,5.01-2.296,7.799
			c-0.134,2.404-0.479,4.768-1.494,7.004c-0.97,2.139-3.519,5.137-5.645,6.271c-4.005,2.141-7.129,2.881-11.435,4.199
			c-2.184,0.666-4.465-0.166-6.692-0.43c-1.714-0.203-3.404-0.395-5.082-1.189c-2.977-1.412-4.829-3.598-5.982-6.562
			C59.359,77.113,59.134,74.693,59.233,72.09z M68.633,59.832c0.125,1.127,0.108,2.225-0.266,3.32
			c-0.415,1.215-1.311,0.422-1.973,0.547c-0.569,0.109-0.893-0.291-0.916-0.842c-0.135-3.154-0.018-6.311,0.359-9.434
			c0.176-1.457,0.072-7.68-0.38-9.314c-0.112-0.408-0.168-0.947-0.666-1c-0.48-0.053-0.524,0.486-0.672,0.826
			c-0.102,0.234-0.177,0.482-0.24,0.732c-0.82,3.23-1.337,6.537-1.216,9.844c0.17,4.643,0.199,9.264-0.006,13.904
			c-0.134,3.016-0.542,6.062,0.172,9.088c0.543,2.301,1.657,4.293,3.491,5.684c2.575,1.951,5.681,3.129,8.809,2.793
			c4.367-0.469,7.266-0.738,11.191-2.578c1.817-0.852,4.656-4.252,5.604-6.17c1.071-2.162,1.398-4.541,1.503-6.891
			c0.139-3.129,0.654-6.059,2.481-8.695c0.703-1.012,1.275-2.158,1.458-3.414c0.065-0.445,0.089-1.35-0.683-0.908
			c-1.921,1.1-6.554,7.143-6.549,8.166c0.003,0.602,0.152,1.203,0.135,1.803c-0.019,0.674,0.003,1.447-0.797,1.748
			c-0.681,0.256-1.36,0.189-1.937-0.334c-0.417-0.381-0.541-0.854-0.523-1.404c0.189-6.037,0.318-12.076,0.752-18.105
			c0.059-0.807,0.168-1.648-0.167-2.436c-0.104-0.246,0.096-0.689-0.362-0.709c-0.357-0.016-0.475,0.32-0.599,0.596
			c-0.777,1.73-1.262,3.553-1.703,5.389c-0.568,2.371-1.123,4.744-1.736,7.104c-0.173,0.668-0.542,1.398-1.372,1.303
			c-0.917-0.105-1.081-0.914-1.022-1.68c0.149-1.959,0.337-3.914,0.462-5.875c0.229-3.578,0.359-7.141-0.018-10.693
			c-0.147-1.387,0.021-2.867-0.717-4.172c-0.168-0.297-0.233-0.713-0.598-0.783c-0.498-0.098-0.604,0.408-0.805,0.709
			c-0.51,0.764-0.619,1.686-0.936,2.527c-1.396,3.709-1.998,15.492-1.968,16.436c0.03,0.947,0.125,1.902,0.044,2.844
			c-0.064,0.748-0.414,1.551-1.308,1.512c-0.871-0.037-1.801-0.396-1.75-1.508c0.085-1.883-0.421-3.742-0.093-5.641
			c0.762-4.4,0.321-8.719-1.071-12.951c-0.117-0.354-0.124-0.863-0.639-0.838c-0.394,0.02-0.443,0.467-0.573,0.775
			C70.102,42.863,69.175,57.252,68.633,59.832z"/>
	</g>
	<g>
		<g>
			<path fill="#28A3CB" d="M129.696,107.125c0.841-1.146,0.391-2.273-0.96-2.689c-1.365-0.42-2.473-0.371-3.231,1.156
				c-0.452,0.91-1.304,1.613-1.91,2.459c-0.342,0.477-0.624,0.477-1.053,0.164c-1.164-0.846-2.754-1.473-1.369-3.385
				c0.304-0.42,0.313-1.043,0.517-1.549c0.491-1.219,0.574-2.322-0.934-2.814c-2.033-0.662-2.345-0.438-2.959,1.494
				c-0.297,0.932-0.569,1.857-0.618,2.918c-2.005-0.652-3.883-1.428-5.838-1.838c-1.1-0.23-1.483-0.639-1.483-1.648
				c0-0.984,0.071-1.982-0.06-2.953c-0.235-1.738-1.681-1.75-2.957-1.787c-1.599-0.047-1.032,1.211-1.016,2.018
				c0.017,0.85,0.198,1.699,0.348,2.541c0.142,0.795-0.289,1.244-0.961,1.258c-1.883,0.037-3.411,0.869-4.864,1.934
				c-0.757,0.555-1.342,0.469-1.75-0.426c-0.204-0.445-0.415-0.895-0.676-1.307c-0.484-0.766-2.725-1.328-3.318-0.758
				c-0.987,0.949,0.079,1.637,0.467,2.379c0.226,0.432,0.506,0.879,0.875,1.182c1.319,1.088,1.075,2-0.199,2.893
				c-0.298,0.209-0.508,0.541-0.8,0.762c-1.023,0.771-1.066,1.588-0.741,2.867c0.498,1.957,1.6,3.58,2.452,5.311
				c2.032,4.129,5.394,6.982,9.989,7.635c2.583,0.367,5.181,0.789,7.916,0.686c7.095-0.268,11.263-4.379,14.715-9.803
				c0.36-0.566,0.196-1.197-0.292-1.689c-0.519-0.523-0.995-1.109-1.583-1.541c-1.198-0.885-1.144-1.688-0.116-2.686
				C128.163,109.053,128.971,108.111,129.696,107.125z M112.381,123.271c-9.057,0.369-12.336-4.004-14.32-8.674
				c-1.397-3.289-1.458-3.414,1.288-5.775c1.749-1.508,4.206-4.158,7.168-4.322c10.113-0.561,14.532,5.041,15.079,5.518
				c0.751,0.656,1.424,1.4,2.131,2.107c2.605,2.6,2.58,2.578,0.212,5.508C122.314,119.643,121.052,122.223,112.381,123.271"/>
		</g>
		<path fill-rule="evenodd" clip-rule="evenodd" fill="#28A3CB" d="M116.135,114.227c-1.835,0-3.323-1.488-3.323-3.322
			c0-1.562,1.078-2.867,2.529-3.225c-1.195-0.773-2.616-1.229-4.146-1.229c-4.219,0-7.64,3.42-7.64,7.639
			c0,4.221,3.42,7.641,7.64,7.641s7.64-3.42,7.64-7.641c0-0.385-0.038-0.758-0.092-1.127
			C118.133,113.73,117.193,114.227,116.135,114.227z"/>
	</g>
</g>
</svg>
