<?xml version="1.0" encoding="utf-8"?>
<!-- Generator: Adobe Illustrator 16.0.0, SVG Export Plug-In . SVG Version: 6.00 Build 0)  -->
<!DOCTYPE svg PUBLIC "-//W3C//DTD SVG 1.1//EN" "http://www.w3.org/Graphics/SVG/1.1/DTD/svg11.dtd">
<svg version="1.1" id="Layer_1" xmlns="http://www.w3.org/2000/svg" xmlns:xlink="http://www.w3.org/1999/xlink" x="0px" y="0px"
	 width="220px" height="160px" viewBox="0 0 220 160" enable-background="new 0 0 220 160" xml:space="preserve">
<path fill-rule="evenodd" clip-rule="evenodd" fill="#FFC881" d="M126.837,28.36c-0.534,6.162-1.771,12.144-4.571,17.721
	c-1.026,2.045-2.312,4.015-2.963,6.174c-0.358,1.189-1.423,2.378-0.724,3.901c0.37,0.805-0.799,1.745-1.655,1.404
	c-0.576-0.229-1.096-0.564-1.47-1.122c-5.161-7.715-9.273-15.928-11.939-24.842c-0.47-1.568-0.528-3.18-0.513-4.771
	c0.021-2.046,2.361-3.379,4.737-2.717c3.518,0.98,6.033,3.193,7.545,6.525c0.205,0.451,0.163,1.161,0.771,1.211
	c0.54,0.044,0.643-0.632,0.846-1.019c1.252-2.375,2.946-4.394,4.877-6.233c1.878-1.79,4.179-1.118,4.792,1.434
	C126.752,26.781,126.752,27.58,126.837,28.36z M107.705,26.242c-1.541-0.051-2.179,0.839-2.032,2.39
	c0.287,3.056,1.496,5.836,2.522,8.665c1.689,4.659,4.06,8.989,6.619,13.219c0.342,0.564,0.687,1.011,1.176,0.087
	c1.143-2.157,2.437-4.243,3.44-6.461c2.223-4.91,3.813-10.007,3.959-15.462c0.008-0.296,0.286-0.652-0.042-0.866
	c-0.408-0.266-0.661,0.1-0.901,0.373c-2.485,2.828-4.816,5.728-5.006,9.743c-0.08,1.696-0.453,3.297-1.651,4.617
	c-0.521,0.573-1.038,1.193-1.828,0.665c-0.711-0.475-1.57-1.082-1.33-2.091c0.272-1.142,0.367-2.339,1.074-3.387
	c0.447-0.667,0.854-1.529,0.645-2.37c-0.551-2.214-1.057-4.45-2.319-6.419C110.968,27.288,109.488,26.39,107.705,26.242z"/>
<g>
	<path fill-rule="evenodd" clip-rule="evenodd" fill="#FFC881" d="M171.715,106.155c0.27,2.376-0.413,4.831-1.194,7.188
		c-0.595,1.796-0.479,2.82,1.231,3.875c2.38,1.469,3.864,6.717,2.917,9.33c-1.611,4.451-6.443,5.63-10.159,2.349
		c-1.324-1.167-2.817-2.297-3.345-4.18c-0.237-0.846-0.787-1.285-1.796-0.927c-4.159,1.48-8.351,0.671-12.56,0.188
		c-10.109-1.162-16.416-7.466-21.433-15.59c-2.563-4.148-4.438-8.432-3.184-13.499c0.271-1.091-1.902-3.324-2.943-3.183
		c-0.811,0.109-0.803,0.839-0.945,1.439c-1.046,4.411-4.384,7-8.949,6.842c-0.938-0.032-1.666-0.057-2.119,0.953
		c-5.098,11.36-14.359,17.744-25.852,21.279c-7.628,2.347-15.446,3.361-23.454,2.41c-4.438-0.528-8.255-2.384-11.546-5.291
		c-0.949-0.838-1.683-1.029-2.68-0.418c-1.133,0.695-2.358,1.302-3.333,2.18c-1.115,1.005-1.558,2.347-0.729,3.822
		c0.885,1.577,2.175,1.128,3.499,0.737c1.864-0.552,3.228-2.525,5.604-1.716c1.486,0.507,1.708,1.311,1.064,2.465
		c-1.387,2.484-7.909,3.924-10.306,2.257c-2.396-1.665-4.021-4.061-3.509-6.944c0.494-2.788,2.47-5.075,5.307-5.766
		c2.195-0.533,1.59-1.222,0.863-2.494c-1.893-3.312-3.056-6.892-3.362-10.695c-0.474-5.894,2.168-10.47,6.333-14.328
		c1.955-1.814,3.922-3.62,5.978-5.315c1.521-1.255,1.342-2.162-0.164-3.248c-2.608-1.882-4.866-4.172-7.113-6.463
		c-4.079-4.159-3.962-11.081-1.033-15.811c5.408-8.731,19.708-10.573,25.859-5.801c4.725,3.665,7.194,10.718,5.279,16.429
		c-0.275,0.821-1.167,1.693-0.308,2.604c0.924,0.982,1.705-0.137,2.55-0.323c5.982-1.321,11.94-2.434,18.153-1.482
		c5.877,0.9,9.354,4.319,11.413,9.608c0.97,2.492,1.938,4.99,2.414,7.622c0.238,1.316,0.838,2.02,2.127,2.028
		c2.076,0.015,3.963,0.724,5.833,1.489c0.376,0.152,0.672,0.401,1.047,0.093c0.43-0.352,0.441-0.74,0.181-1.24
		c-0.762-1.462-1.332-3.359,0.073-4.314c1.595-1.084,3.692-1.83,5.807-0.862c0.57,0.26,1.422,0.389,1.65,0.833
		c1.186,2.306,2.456,1.354,3.856,0.295c4.357-3.296,9.353-3.89,14.536-3.052c3.857,0.623,7.93-0.013,11.585,1.592
		c5.111,2.242,10.186,4.934,12.988,9.926C170.039,96.943,171.949,101.212,171.715,106.155z M63.499,121.221
		c12.457-0.953,24.128-3.675,33.529-12.944c5.726-5.648,8.127-12.239,7.967-20.044c-0.024-1.236-0.408-2.328-1.694-2.465
		c-2.843-0.302-5.388-1.585-8.118-2.226c-6.547-1.536-12.637-4.095-17.897-8.327c-1.367-1.101-2.328-1.465-4.103-0.813
		c-3.787,1.391-4.021,1.354-1.558,4.375c4.644,5.696,10.49,9.358,18.083,9.587c2.983,0.091,5.964,0.183,8.948-0.154
		c1.081-0.123,2.37,0.041,2.487,1.535c0.125,1.606-1.303,1.686-2.301,1.744c-4.223,0.247-8.489,0.234-12.637-0.487
		c-6.016-1.046-10.977-4.275-15.247-8.576c-1.445-1.456-2.193-1.359-2.64,0.669c-0.595,2.7-1.591,5.246-2.481,7.839
		c-3.18,9.262-7.464,17.749-15.787,23.597c-2.035,1.431-1.758,2.132,0.407,3.594C54.43,120.809,58.854,121.287,63.499,121.221z
		 M152.586,120.438c3.13,0.405,6.118-0.978,9.059-2.525c1.261-0.663,1.802-1.382,1.08-2.991c-2.675-5.957-4.358-12.21-4.865-18.744
		c-0.129-1.669-0.856-2.234-2.484-1.665c-9.191,3.207-17.381,0.475-25.172-4.361c-0.833-0.517-1.414-0.712-1.967,0.116
		c-1.261,1.885-2.477,3.774-2.604,6.178c-0.26,4.934,2.026,8.816,4.696,12.704C135.652,116.898,142.913,120.646,152.586,120.438z
		 M65.172,80.604c0.156-1.271,0.063-1.901-0.655-2.149c-0.653-0.226-0.965,0.362-1.346,0.732c-0.706,0.686-4.607,7.094-4.938,8.098
		c-0.025,0.074-0.063,0.144-0.093,0.216c-2.814,6.979-6.622,13.306-12.146,18.501c-2.242,2.109-2.355,2.904-0.762,5.553
		c0.62,1.03,1.287,1.222,2.284,0.463c5.348-4.07,9.585-8.995,12.561-15.099c1.517-3.109,2.336-6.426,3.592-9.602
		C64.576,85.026,64.781,82.458,65.172,80.604z M44.801,64.341c0.093,0.742-0.554,1.989,0.592,2.182
		c1.332,0.224,0.856-1.19,1.042-1.895c0.782-2.955,2.057-5.272,5.367-6.184c2.476-0.682,4.825-0.532,7.162,0.093
		c4.658,1.248,8.891,3.27,9.132,9.421c0.016,0.398-0.011,0.846,0.453,0.975c0.75,0.211,0.96-0.464,1.139-0.917
		c1.69-4.27,1.202-8.399-0.99-12.349c-0.478-0.863-1.152-1.563-2.12-2.104c-3.708-2.077-7.371-2.037-11.435-0.938
		C49.99,54.019,45.094,59.109,44.801,64.341z M89.434,71.648c-1.283-0.406-2.651-0.212-3.934,0.02
		c-1.704,0.309-4.348-0.165-4.748,1.65c-0.293,1.333,2.161,2.327,3.609,3.193c5.328,3.188,11.258,4.606,17.252,5.847
		c1.711,0.354,1.787-0.617,1.437-1.731c-1.254-3.982-3.297-7.244-7.737-8.348C93.379,71.8,91.443,71.668,89.434,71.648z
		 M145.732,93.135c3.572-0.452,6.789-1.739,10.123-2.486c0.725-0.161,1.716-0.353,1.662-1.34c-0.047-0.874-0.935-1.182-1.671-1.475
		c-4.57-1.816-9.378-2.472-14.234-2.782c-2.441-0.155-4.841,0.301-7.119,1.237c-1.953,0.803-2.097,1.413-0.489,2.682
		C137.463,91.698,141.763,91.979,145.732,93.135z M168.73,105.684c-0.562-4.037-1.722-7.734-3.98-11.032
		c-0.478-0.699-0.876-1.736-1.845-1.549c-0.896,0.176-1.041,1.217-1.335,2.044c-0.978,2.749,0.295,5.247,0.832,7.798
		c0.624,2.965,1.11,6.006,2.611,8.705c0.623,1.121,1.371,1.865,2.231,0.042C168.167,109.735,168.396,107.649,168.73,105.684z
		 M50.03,67.453c0,0.415-0.065,0.975,0.017,1.514c0.097,0.641-0.176,1.628,0.778,1.716c0.768,0.069,0.872-0.881,1.003-1.408
		c0.345-1.387,1.32-2.029,2.465-2.647c2.912-1.571,5.597-1.081,8.121,0.809c0.71,0.532,1.257,0.455,1.907,0.005
		c0.674-0.465,0.819-0.971,0.562-1.804c-1.013-3.295-5.957-6.435-9.626-5.647C52.714,60.536,49.489,63.035,50.03,67.453z
		 M42.994,100.462c-0.018,1.419-0.301,2.474,0.78,2.79c1,0.291,1.159-0.817,1.64-1.375c0.564-0.652,1.156-1.28,1.746-1.91
		c3.043-3.245,5.15-7.075,6.96-11.094c0.334-0.743,0.62-1.55-0.164-2.143c-0.827-0.626-1.262,0.268-1.741,0.671
		c-2.221,1.874-4.476,3.732-6.173,6.122C44.442,95.776,43.089,98.161,42.994,100.462z M171.565,123.645
		c0.383-2.401-0.563-4.286-2.381-5.336c-1.549-0.896-1.939,1.403-3.075,1.859c-2.529,1.017-2.656,2.472-1.237,4.613
		c0.933,1.41,1.62,2.941,3.678,2.492C170.527,126.842,172.207,126.081,171.565,123.645z M59.006,75.874
		c1.592-0.656,4.025-0.007,4.402-2.302c0.355-2.163-3.141-5.734-5.133-5.454c-1.6,0.226-2.293,1.573-2.406,3.056
		C55.777,72.388,58.319,75.903,59.006,75.874z M109.817,96.392c2.024-0.194,3.413-1.436,4.527-2.979
		c0.4-0.555-0.236-1.035-0.729-1.244c-1.998-0.848-3.442,0.211-4.801,1.489c-0.114,0.106-0.228,0.22-0.314,0.35
		c-0.38,0.565-0.423,1.175-0.117,1.775C108.675,96.359,109.222,96.423,109.817,96.392z M124.637,88.428
		c-0.625-0.895-1.217-2.126-2.162-2.956c-0.63-0.552-1.533,0.201-1.975,0.832c-1.192,1.703,0.474,2.496,1.282,3.521
		c0.369,0.468,0.84,1.059,1.572,0.543C123.94,89.956,124.423,89.438,124.637,88.428z"/>
	<path fill-rule="evenodd" clip-rule="evenodd" fill="#FFC881" d="M177.907,70.797c-0.712,0.995-1.323,2.007-2.086,2.885
		c-2.359,2.712-4.776,5.372-7.169,8.056c-0.835,0.936-1.713,1.037-2.618,0.117c-0.86-0.873-1.222-1.619-0.087-2.735
		c2.9-2.852,5.83-5.696,8.095-9.121c0.637-0.963,1.485-1.022,2.449-0.535C177.102,69.771,177.797,69.995,177.907,70.797z"/>
	<path fill-rule="evenodd" clip-rule="evenodd" fill="#FFC881" d="M164.366,70.354c0.124,2.871-0.796,5.581-1.252,8.355
		c-0.147,0.899-0.274,2.113-1.627,1.698c-1.148-0.351-2.138-1.165-1.834-2.603c0.811-3.832,1.539-7.665,1.309-11.611
		c-0.03-0.515,0.066-1.026,0.75-0.789c0.888,0.308,2.215-0.009,2.389,1.434C164.24,68.005,164.28,69.184,164.366,70.354z"/>
	<path fill-rule="evenodd" clip-rule="evenodd" fill="#FFC881" d="M175.82,81.47c2.703-0.002,5.36,0.025,7.538,1.995
		c0.304,0.274,1.028,0.294,0.616,0.963c-0.218,0.352-0.64,0.461-1.048,0.306c-3.302-1.254-6.571-0.555-9.86,0.097
		c-1.227,0.242-2.725,0.472-2.936-1.342c-0.2-1.717,1.214-1.72,2.41-1.803C173.633,81.608,174.726,81.542,175.82,81.47z"/>
	<path fill-rule="evenodd" clip-rule="evenodd" fill="#FFC881" d="M159.124,81.147c3.446,0.248,5.821,2.478,8.29,4.489
		c0.538,0.437,0.257,1.179-0.145,1.709c-0.427,0.564-1.029,0.839-1.621,0.353c-1.927-1.577-3.799-3.167-6.289-3.916
		c-0.734-0.221-1.346-1.293-1.181-2.313C158.248,81.034,158.741,81.006,159.124,81.147z"/>
	<path fill-rule="evenodd" clip-rule="evenodd" fill="#FFC881" d="M76.144,114.393c-1.083,0.044-1.877-0.386-2.599-1.062
		c-0.41-0.385-0.847-0.737-0.711-1.372c0.169-0.791,0.859-0.498,1.343-0.578c4.933-0.822,9.123-3.046,12.605-6.626
		c0.434-0.445,0.84-1.102,1.366-1.233c0.956-0.238,2.073-0.268,2.787,0.615c0.631,0.779,0.073,1.483-0.477,2.067
		C86.511,110.395,81.63,112.936,76.144,114.393z"/>
	<path fill-rule="evenodd" clip-rule="evenodd" fill="#FFC881" d="M67.81,109.127c-0.701-0.057-1.5,0.084-2.082-0.207
		c-1.075-0.54-2.599-1.194-2.356-2.537c0.244-1.348,1.683-0.508,2.592-0.482c1.424,0.042,2.796,0.046,3.969-0.949
		c0.285-0.242,0.694-0.528,1.019-0.499c1.14,0.104,2.808-0.776,3.231,0.879c0.354,1.38-0.588,2.354-2.073,2.92
		C70.691,108.791,69.318,109.197,67.81,109.127z"/>
	<path fill-rule="evenodd" clip-rule="evenodd" fill="#FFC881" d="M85.275,101.32c-0.063-0.01-0.762-0.076-1.443-0.226
		c-0.726-0.159-1.446-0.593-1.479-1.317c-0.042-0.911,0.916-0.603,1.45-0.748c1.574-0.429,3.228-0.679,4.458-1.877
		c0.733-0.716,1.567-0.521,2.415-0.46c0.725,0.051,1.536,0.125,1.677,0.947c0.117,0.678-0.238,1.323-0.827,1.832
		C89.901,100.874,87.995,101.339,85.275,101.32z"/>
	<path fill-rule="evenodd" clip-rule="evenodd" fill="#FFC881" d="M146.456,114.349c-2.932-0.586-5.889-0.43-7.793-3.101
		c-0.471-0.658-0.861-1.275-1.019-2.053c-0.137-0.679-0.487-1.46,0.354-1.883c0.742-0.372,1.209,0.347,1.526,0.787
		c1.361,1.891,3.465,1.961,5.434,2.343c1.263,0.246,2.087,0.838,2.591,2.078C148.146,113.991,147.58,114.37,146.456,114.349z"/>
	<path fill-rule="evenodd" clip-rule="evenodd" fill="#FFC881" d="M155.016,112.294c-2.819-0.15-5.65-4.061-4.948-6.684
		c0.188-0.701,0.734-1.004,1.184-0.467c1.502,1.786,3.375,3.158,5.015,4.78c0.409,0.404,1.188,1.141,0.786,1.798
		C156.642,112.393,155.731,112.492,155.016,112.294z"/>
	<path fill-rule="evenodd" clip-rule="evenodd" fill="#FFC881" d="M140.284,103.838c-2.845-0.061-5.655-3.884-4.888-6.446
		c0.215-0.719,1.215-1.497,1.445-0.699c0.722,2.508,3.429,2.99,4.551,5.078C142.407,103.66,141.34,103.67,140.284,103.838z"/>
</g>
</svg>
