<?xml version="1.0" encoding="utf-8"?>
<!-- Generator: Adobe Illustrator 16.0.0, SVG Export Plug-In . SVG Version: 6.00 Build 0)  -->
<!DOCTYPE svg PUBLIC "-//W3C//DTD SVG 1.1//EN" "http://www.w3.org/Graphics/SVG/1.1/DTD/svg11.dtd">
<svg version="1.1" id="Layer_1" xmlns="http://www.w3.org/2000/svg" xmlns:xlink="http://www.w3.org/1999/xlink" x="0px" y="0px"
	 width="220px" height="160px" viewBox="0 0 220 160" enable-background="new 0 0 220 160" xml:space="preserve">
<g>
	<path fill-rule="evenodd" clip-rule="evenodd" fill="#FFC881" d="M55.997,27.539c2.769-0.017,6.334,1.327,9.708,3.237
		c2.891,1.638,5.785,3.295,8.148,5.693c2.748,2.787,4.84,5.965,5.81,9.811c0.321,1.273,0.77,2.525,0.755,3.855
		c-0.015,1.362,0.313,2.729-0.127,4.093c-0.522,1.618-1.075,3.213-2.024,4.645c-0.875,1.322-1.708,2.675-2.599,3.986
		c-1.446,2.131-3.226,3.951-5.202,5.602c-1.068,0.892-2.015,1.928-3.052,2.859c-2.247,2.021-3.916,4.48-5.602,6.963
		c-1.245,1.835-2.404,3.715-3.606,5.573c-0.319,0.494-0.779,0.904-1.204,1.32c-0.543,0.531-1.057,0.281-1.598-0.072
		c-1.22-0.795-1.449-2.088-1.146-3.237c1.055-4.003-0.948-6.803-3.49-9.376c-1.224-1.238-2.163-2.734-3.577-3.799
		c-0.861-0.648-1.675-1.37-2.454-2.117c-2.316-2.217-3.92-4.949-5.511-7.693c-1.912-3.297-3.167-6.829-3.766-10.581
		c-0.305-1.903-0.175-3.825-0.088-5.755c0.083-1.848,0.435-3.576,1.241-5.194c0.979-1.966,2.188-3.74,4.027-5.099
		c2.182-1.612,4.57-2.722,7.15-3.357C50.102,28.327,52.374,27.474,55.997,27.539z M76.933,50.803
		c-0.023-1.615-0.083-2.816-0.351-3.994c-0.852-3.745-2.853-6.784-5.721-9.283c-2.364-2.061-5.146-3.455-7.899-4.888
		c-2.372-1.236-4.905-1.967-7.591-1.79c-3.94,0.258-7.66,1.457-11.065,3.39c-2.563,1.453-4.509,3.666-5.312,6.579
		c-0.413,1.499-0.615,3.07-0.642,4.678c-0.038,2.231,0.343,4.349,0.924,6.471c0.606,2.215,1.654,4.229,2.705,6.248
		c1.322,2.536,2.866,4.916,4.884,6.96c0.443,0.449,0.954,0.836,1.456,1.223c1.606,1.236,2.634,3.002,4.047,4.398
		c1.381,1.363,2.491,2.889,3.497,4.521c0.431,0.698,0.908,1.369,1.371,2.048c0.247,0.361,0.489,0.469,0.788,0.02
		c0.509-0.766,1.024-1.53,1.583-2.261c1.849-2.417,3.638-4.9,5.975-6.884c3.226-2.736,6.313-5.584,8.511-9.262
		C75.677,56.324,77.136,53.634,76.933,50.803z"/>
	<path fill-rule="evenodd" clip-rule="evenodd" fill="#FFC881" d="M155.925,132.462c-0.468-0.039-0.835-0.224-1.257-0.478
		c-2.08-1.248-3.605-3.192-5.711-4.409c-0.622-0.36-1.277-0.531-1.914-0.784c-0.475-0.188-0.643-0.511-0.676-0.925
		c-0.097-1.222,1.924-2.559,3.079-2.141c2.697,0.978,4.66,3.031,6.938,4.621c0.208,0.146,0.403,0.316,0.629,0.422
		c1.048,0.484,1.268,0.959,0.958,2.142C157.767,131.686,156.676,132.517,155.925,132.462z"/>
	<path fill-rule="evenodd" clip-rule="evenodd" fill="#FFC881" d="M134.168,121.089c-1.039-0.021-1.986-0.383-2.825-0.945
		c-1.454-0.973-3.13-1.269-4.773-1.604c-0.726-0.148-1.315-0.556-2.027-0.711c-0.49-0.106-0.637-0.767-0.347-1.106
		c0.556-0.649,0.784-1.547,1.807-1.882c1.025-0.335,1.833,0.157,2.708,0.312c2.352,0.417,4.35,1.84,6.64,2.498
		c0.562,0.162,1.456,0.589,1.179,1.656C136.261,120.345,135.351,121.079,134.168,121.089z"/>
	<path fill-rule="evenodd" clip-rule="evenodd" fill="#FFC881" d="M112.727,113.55c-1.623-0.492-3.226-0.313-4.738-0.726
		c-0.89-0.243-1.807,0.132-2.691-0.242c-0.856-0.362-0.958-0.686-0.546-1.5c0.776-1.532,2.057-1.858,3.61-1.72
		c1.699,0.151,3.401,0.293,5.104,0.387c0.719,0.039,1.284,0.386,1.685,0.87c0.462,0.559,0.696,1.207-0.042,1.88
		C114.379,113.165,113.464,113.189,112.727,113.55z"/>
	<path fill-rule="evenodd" clip-rule="evenodd" fill="#FFC881" d="M90.175,108.697c-0.972-0.395-2.173-0.155-3.186-0.813
		c-0.359-0.234-0.514-0.342-0.371-0.858c0.472-1.694,1.547-2.338,3.195-1.812c0.538,0.172,1.105,0.303,1.666,0.338
		c1.688,0.106,3.28,0.423,4.704,1.444c0.517,0.373,1.233,0.469,1.862,0.682c0.336,0.113,0.588,0.327,0.51,0.685
		c-0.069,0.309-0.287,0.522-0.6,0.722c-0.708,0.451-1.471,0.243-2.19,0.284c-1.517,0.085-2.989-0.38-4.481-0.604
		C90.947,108.711,90.635,108.499,90.175,108.697z"/>
	<path fill-rule="evenodd" clip-rule="evenodd" fill="#FFC881" d="M78.85,103.93c-1.868,0.104-3.768-0.625-5.666-1.556
		c-1.371-0.672-2.926-0.923-4.291-1.688c-0.664-0.373-0.996-0.956-0.552-1.67c0.552-0.888,1.616-1.246,2.779-0.812
		c2.852,1.066,5.352,2.834,8.138,4.028c0.324,0.139,0.643,0.456,0.803,0.772C80.347,103.571,79.891,104.001,78.85,103.93z"/>
	<path fill-rule="evenodd" clip-rule="evenodd" fill="#FFC881" d="M56.529,89.605c0.642-0.075,1.142,0.109,1.536,0.675
		c0.783,1.123,1.706,2.119,2.917,2.807c0.109,0.062,0.219,0.135,0.303,0.227c0.357,0.389,0.761,0.818,0.685,1.355
		c-0.082,0.57-0.69,0.272-1.048,0.398c-0.748,0.262-1.39,0.041-2.178-0.186c-1.679-0.482-2.32-1.963-3.535-2.845
		c-0.438-0.319-0.753-0.812-0.454-1.308c0.322-0.532,0.658-1.197,1.492-1.106C56.341,89.633,56.436,89.612,56.529,89.605z"/>
	<path fill-rule="evenodd" clip-rule="evenodd" fill="#FFC881" d="M69.104,60.261c-4.485,3.577-8.795,4.642-10.57,4.608
		c-2.822-0.055-5.383-0.832-7.75-2.355c-2.705-1.74-4.197-4.401-5.536-7.181c-0.842-1.749-1.458-3.573-1.385-5.548
		c0.056-1.53,0.083-3.067,0.371-4.581c0.035-0.184,0.594-3.662,1.186-3.771c1.738-0.323,3.396-0.971,5.187-1.099
		c3.23-0.231,6.155,0.803,9.068,1.966c2.216,0.886,4.311,1.974,6.135,3.539c0.796,0.683,5.717,5.155,5.525,6.619
		C71.293,52.771,71.018,57.905,69.104,60.261z M51.694,42.461c-1.443,0.044-3.027,0.381-4.598,0.774
		c-0.475,0.119-1.115,4.104-1.123,5.676c-0.009,1.854,0.019,3.674,0.765,5.407c0.47,1.091,1.035,2.131,1.602,3.179
		c1.788,3.296,5.505,5.491,9.047,5.165c2.335-0.214,4.605-0.771,6.774-1.609c2.276-0.88,3.978-2.479,4.68-4.894
		c0.258-0.885,0.125-1.883,0.373-2.772c0.165-0.594-3.554-5.595-5.939-7.021c-1.255-0.75-2.612-1.178-3.899-1.803
		C57.014,43.419,54.552,42.56,51.694,42.461z"/>
	<circle fill-rule="evenodd" clip-rule="evenodd" fill="#FFC881" cx="52.402" cy="50.751" r="1.835"/>
	<circle fill-rule="evenodd" clip-rule="evenodd" fill="#FFC881" cx="61.099" cy="52.585" r="1.835"/>
	<path fill-rule="evenodd" clip-rule="evenodd" fill="#FFC881" d="M160.207,67.718c2.769-0.018,6.334,1.326,9.708,3.238
		c2.891,1.638,5.785,3.294,8.148,5.691c2.748,2.788,4.84,5.966,5.811,9.811c0.32,1.273,0.77,2.525,0.755,3.855
		c-0.015,1.363,0.312,2.729-0.127,4.094c-0.522,1.618-1.076,3.213-2.024,4.645c-0.876,1.322-1.708,2.674-2.599,3.986
		c-1.447,2.131-3.226,3.951-5.202,5.602c-1.068,0.892-2.015,1.928-3.051,2.859c-2.247,2.021-3.916,4.48-5.602,6.963
		c-1.246,1.834-2.405,3.715-3.607,5.573c-0.318,0.493-0.778,0.903-1.203,1.32c-0.543,0.532-1.058,0.28-1.598-0.072
		c-1.22-0.795-1.45-2.088-1.147-3.237c1.055-4.004-0.948-6.803-3.49-9.375c-1.224-1.239-2.164-2.736-3.577-3.801
		c-0.861-0.649-1.675-1.37-2.454-2.116c-2.316-2.218-3.92-4.949-5.511-7.692c-1.912-3.299-3.167-6.83-3.766-10.582
		c-0.304-1.903-0.176-3.826-0.088-5.755c0.083-1.848,0.435-3.576,1.241-5.194c0.98-1.966,2.188-3.739,4.028-5.1
		c2.181-1.61,4.57-2.722,7.15-3.356C154.312,68.505,156.584,67.651,160.207,67.718z M181.143,90.981
		c-0.023-1.615-0.083-2.815-0.351-3.994c-0.851-3.744-2.853-6.785-5.721-9.283c-2.364-2.061-5.146-3.455-7.898-4.889
		c-2.373-1.235-4.905-1.965-7.592-1.789c-3.941,0.258-7.66,1.457-11.065,3.389c-2.563,1.454-4.509,3.667-5.312,6.58
		c-0.413,1.498-0.615,3.068-0.643,4.678c-0.038,2.231,0.343,4.348,0.925,6.471c0.606,2.215,1.654,4.229,2.705,6.246
		c1.322,2.538,2.866,4.919,4.884,6.963c0.443,0.448,0.955,0.835,1.457,1.221c1.606,1.235,2.634,3.003,4.047,4.398
		c1.382,1.364,2.491,2.891,3.497,4.523c0.431,0.698,0.908,1.368,1.371,2.047c0.247,0.362,0.489,0.468,0.788,0.02
		c0.509-0.766,1.025-1.529,1.583-2.26c1.849-2.418,3.638-4.901,5.975-6.885c3.226-2.737,6.314-5.584,8.511-9.261
		C179.886,96.503,181.346,93.812,181.143,90.981z"/>
	<path fill-rule="evenodd" clip-rule="evenodd" fill="#FFC881" d="M173.313,100.438c-4.485,3.579-8.794,4.643-10.571,4.608
		c-2.821-0.054-5.382-0.831-7.75-2.354c-2.706-1.74-4.197-4.401-5.536-7.182c-0.842-1.748-1.458-3.572-1.386-5.547
		c0.056-1.531,0.084-3.067,0.372-4.581c0.035-0.184,0.594-3.661,1.185-3.771c1.738-0.322,3.396-0.97,5.188-1.099
		c3.231-0.231,6.156,0.803,9.068,1.968c2.216,0.885,4.311,1.974,6.135,3.538c0.795,0.682,5.717,5.155,5.525,6.619
		C175.503,92.948,175.227,98.083,173.313,100.438z M155.904,82.641c-1.443,0.043-3.028,0.38-4.599,0.773
		c-0.474,0.118-1.114,4.103-1.122,5.676c-0.009,1.854,0.019,3.673,0.765,5.406c0.47,1.093,1.035,2.132,1.603,3.18
		c1.788,3.296,5.504,5.491,9.046,5.165c2.335-0.215,4.605-0.771,6.774-1.609c2.276-0.88,3.978-2.479,4.681-4.894
		c0.257-0.885,0.125-1.883,0.373-2.772c0.165-0.594-3.553-5.594-5.939-7.021c-1.255-0.75-2.612-1.178-3.899-1.802
		C161.224,83.597,158.762,82.737,155.904,82.641z"/>
	<circle fill-rule="evenodd" clip-rule="evenodd" fill="#FFC881" cx="156.612" cy="90.929" r="1.835"/>
	<circle fill-rule="evenodd" clip-rule="evenodd" fill="#FFC881" cx="165.309" cy="92.765" r="1.835"/>
</g>
</svg>
