<?xml version="1.0" encoding="utf-8"?>
<!-- Generator: Adobe Illustrator 16.0.0, SVG Export Plug-In . SVG Version: 6.00 Build 0)  -->
<!DOCTYPE svg PUBLIC "-//W3C//DTD SVG 1.1//EN" "http://www.w3.org/Graphics/SVG/1.1/DTD/svg11.dtd">
<svg version="1.1" id="Layer_1" xmlns="http://www.w3.org/2000/svg" xmlns:xlink="http://www.w3.org/1999/xlink" x="0px" y="0px"
	 width="220px" height="160px" viewBox="0 0 220 160" enable-background="new 0 0 220 160" xml:space="preserve">
<g>
	<g id="XMLID_2_">
		<g>
			<path fill="#FFC881" d="M208.549,96.242c1.634,0.877,2.775,2.451,2.397,4.127c-0.426,1.875-2.427,2.109-3.382,2.115
				c-2.95-0.036-4.434-1.033-5.209-3.022c-2.68-6.879-7.18-12.4-12.689-17.207c-1.586-1.388-2.283-1.352-2.914,0.848
				c-2.427,8.405-3.4,17.045-4.253,25.702c-0.126,1.256,0.24,2.896-1.821,2.691c-1.79-0.181-2.055-1.279-1.784-3.01
				c1.4-8.982,2.061-18.091,4.716-26.85c0.198-0.667,0.391-1.347,0.643-1.995c1.64-4.241,1.754-4.037,5.125-1.166
				c3.899,3.316,7.865,6.495,10.869,10.688c0.931,1.298,1.869,2.602,2.673,3.983c0.787,1.346,1.52,2.506,3.419,2.308
				C207.041,95.383,207.858,95.869,208.549,96.242z M208.723,99.282c0.15-0.793-0.973-1.484-1.898-1.496
				c-1.208-0.006-2.151,0.816-2.325,1.898c-0.15,0.961,0.956,0.648,1.641,0.787C207.083,100.285,208.501,100.483,208.723,99.282z"/>
			<path fill="#FFFFFF" d="M206.825,97.786c0.925,0.012,2.049,0.703,1.898,1.496c-0.222,1.201-1.64,1.003-2.583,1.189
				c-0.685-0.139-1.791,0.174-1.641-0.787C204.674,98.603,205.617,97.78,206.825,97.786z"/>
			<path fill="#FFC881" d="M204.56,58.638c1.364,0.631,2.439,1.682,1.917,3.28c-0.481,1.46-1.778,2.091-3.347,2.019
				c-1.171-0.054-2.469-0.042-1.34-1.809c0.331-0.517,0.331-0.931-0.318-1.117c-0.475-0.139-1.045-0.204-1.37,0.246
				c-0.216,0.295-0.271,0.745-0.294,1.124c-0.361,6.711-4.663,9.871-10.52,11.421c-8.261,2.181-16.739,3.587-24.423-1.292
				c-6.429-4.079-12.467-8.939-12.875-17.615c-0.054-1.142-0.457-1.31-1.466-1.105c-2.048,0.408-3.562-0.433-4.344-2.331
				c-0.763-1.851,0.655-3.01,1.7-4.151c0.655-0.715,1.586-1.635,2.416-1.658c5.107-0.145,7.594-4.266,10.838-7.09
				c3.389-2.95,7.12-4.26,12.274-4.14c7.774,0.487,15.134,2.74,21.124,9.835c2.956,3.503,2.247,7.528,4.308,10.893
				c0.787,1.286,0.859,2.704,2.902,2.56C202.661,57.646,203.659,58.217,204.56,58.638z M196.215,63.877
				c0.691-3.629-0.835-5.005-4.398-4.044c-0.967,0.265-1.376,1.111-2.055,1.67c-2.103,1.743-4.608,2.169-7.036,1.28
				c-2.271-0.835-3.737-2.8-3.659-5.335c0.06-1.94-1.058-2.151-2.409-2.127c-1.7,0.03-3.148,0.366-4.452,1.874
				c-2.325,2.704-7.336,3.059-9.829,1.069c-2.535-2.013-2.475-3.688,0.21-8.002c0.33-0.529,1.31-1.142,0.444-1.742
				c-1.784-1.25-1.875-3.281-2.313-5.378c-1.49,1.298-2.542,2.313-3.112,3.863c0.577,0.282,1.142,0.499,1.634,0.823
				c0.943,0.613,2.625,0.985,1.971,2.493c-0.631,1.442-1.922,0.312-2.884,0.042c-1.64-0.469-2.614-0.186-3.01,1.706
				c-0.595,2.836-0.709,5.558,0.854,8.129c2.481,4.08,5.666,7.583,9.865,9.817c8.946,4.771,17.82,2.8,26.514-0.949
				C194.695,68.143,195.782,66.166,196.215,63.877z M194.863,56.812c2.043-0.511,0.312-2.127,0.12-3.173
				c-0.252-1.352-0.847-2.674-1.484-3.917c-1.196-2.343-3.4-2.733-5.125-1.01c-0.613,0.613-1.153,1.412-2.031,1.412
				c-0.216,0-0.457-0.048-0.721-0.162c-1.202-0.528-1.76-1.532-1.977-2.812c-0.12-0.739,0.234-1.622-0.601-2.241
				c-1.778,1.046-2.006,4.548-4.782,3.695c-2.385-0.733-1.694-3.311-1.935-5.954c-1.484,2.127-2.662,3.683-3.683,5.335
				c-0.625,1.003,0.974,4.698,1.995,4.608c2.824-0.253,5.63,0.522,8.483-0.998c1.22-0.648,2.301-0.997,3.245-1.027v-0.006
				c2.126-0.09,3.539,1.353,4.182,4.236C191.216,57.79,193.385,57.178,194.863,56.812z M187.041,45.258
				c0.943-0.613,2.571-0.649,2.013-2.271c-0.187-0.534-0.967-1.43-1.604-1.045C186.217,42.674,186.866,44.026,187.041,45.258z
				 M185.376,60.355c2.217-0.354,3.455-1.369,2.884-3.869c-0.475-2.072-1.4-3.01-3.683-1.838c0.871,0.853,3.01,1.081,1.869,2.722
				c-1.034,1.483-2.247,0.679-3.112-0.559c-0.252-0.361-0.613-0.56-1.021-0.385c-0.553,0.234-0.613,0.811-0.522,1.273
				C182.156,59.671,183.268,60.698,185.376,60.355z M182.204,41.263c0.354-0.445,1.045-1.069,0.589-1.479
				c-0.517-0.456-1.424-0.547-2.181-0.625c-0.769-0.084-0.925,0.565-0.973,1.172c-0.084,1.159-0.145,2.319-0.216,3.473
				c0.198,0.048,0.391,0.09,0.583,0.132C180.738,43.047,181.483,42.163,182.204,41.263z M174.664,40.079
				c0.366-0.583,1.297-1.418,0.084-1.923c-0.907-0.379-2.055-0.372-2.343,1.039c-0.294,1.448-0.559,2.902-0.835,4.356
				c0.198,0.06,0.391,0.114,0.583,0.174C172.994,42.512,173.877,41.328,174.664,40.079z M169.491,55.976
				c1.802-0.9,1.712-2.673,1.099-4.199c-0.781-1.94-2.403-1.039-4.079-0.877c0.457,1.184,2.697,2.055,0.775,3.232
				c-1.694,1.039-2.097-0.77-2.596-1.929c-1.568,1.195-2.115,2.457-0.793,3.701C165.64,57.532,167.683,56.877,169.491,55.976z
				 M164.006,44.928c1.844-2.025,2.607-3.834,3.364-6.062C163.832,39.598,163.759,41.852,164.006,44.928z M151.371,51.266
				c1.124,0.198,1.328-0.57,1.274-1.514c-0.271-0.487,0.289-1.641-0.907-1.418c-0.979,0.18-2.049,0.745-2.151,1.809
				C149.478,51.193,150.656,51.134,151.371,51.266z"/>
			<path fill="#FFFFFF" d="M191.817,59.833c3.562-0.961,5.089,0.415,4.398,4.044c-0.433,2.289-1.52,4.266-3.665,5.19
				c-8.694,3.749-17.567,5.72-26.514,0.949c-4.199-2.234-7.384-5.737-9.865-9.817c-1.562-2.571-1.448-5.293-0.854-8.129
				c0.396-1.892,1.37-2.175,3.01-1.706c0.961,0.271,2.253,1.4,2.884-0.042c0.655-1.508-1.027-1.88-1.971-2.493
				c-0.493-0.324-1.057-0.541-1.634-0.823c0.571-1.55,1.623-2.565,3.112-3.863c0.438,2.097,0.529,4.128,2.313,5.378
				c0.865,0.601-0.114,1.213-0.444,1.742c-2.686,4.313-2.746,5.989-0.21,8.002c2.493,1.989,7.504,1.635,9.829-1.069
				c1.304-1.508,2.752-1.844,4.452-1.874c1.352-0.024,2.469,0.187,2.409,2.127c-0.078,2.535,1.388,4.5,3.659,5.335
				c2.427,0.889,4.933,0.463,7.036-1.28C190.441,60.944,190.85,60.098,191.817,59.833z M183.628,68.995
				c1.124-0.229,2.8-0.511,2.511-1.994c-0.349-1.749-1.875-1.142-3.19-0.865c-3.695,0.769-7.444,1.91-11.024-0.451
				c-0.733-0.48-1.334-0.282-1.791,0.403c-0.541,0.816-0.384,1.55,0.433,2.049c1.917,1.159,3.941,1.964,6.267,1.982
				C179.104,69.759,181.381,69.464,183.628,68.995z M172.861,63.408c1.196,0.023,2.133-0.583,1.856-1.502
				c-0.384-1.268-1.676-2.133-2.962-2.277c-0.979-0.108-1.412,1.01-1.333,1.935C170.548,63.113,171.858,63.191,172.861,63.408z"/>
			<path fill="#FFFFFF" d="M194.983,53.639c0.192,1.046,1.923,2.662-0.12,3.173c-1.478,0.366-3.647,0.979-4.313-2.013
				c-0.643-2.884-2.055-4.326-4.182-4.236l-0.024-0.438c0.877,0,1.418-0.799,2.031-1.412c1.725-1.724,3.929-1.333,5.125,1.01
				C194.136,50.965,194.73,52.287,194.983,53.639z"/>
			<path fill="#FFFFFF" d="M189.053,42.986c0.559,1.622-1.069,1.658-2.013,2.271c-0.174-1.231-0.823-2.584,0.408-3.316
				C188.086,41.557,188.867,42.452,189.053,42.986z"/>
			<path fill="#FFFFFF" d="M188.26,56.486c0.571,2.5-0.667,3.515-2.884,3.869c-2.108,0.343-3.22-0.685-3.586-2.655
				c-0.09-0.463-0.03-1.039,0.522-1.273c0.409-0.175,0.769,0.023,1.021,0.385c0.865,1.237,2.079,2.042,3.112,0.559
				c1.141-1.641-0.998-1.869-1.869-2.722C186.86,53.477,187.786,54.414,188.26,56.486z"/>
			<path fill="#FFFFFF" d="M186.368,50.562v0.006c-0.943,0.03-2.025,0.379-3.245,1.027c-2.854,1.521-5.659,0.745-8.483,0.998
				c-1.021,0.09-2.619-3.605-1.995-4.608c1.021-1.652,2.199-3.208,3.683-5.335c0.24,2.644-0.451,5.221,1.935,5.954
				c2.776,0.853,3.004-2.649,4.782-3.695c0.835,0.619,0.481,1.502,0.601,2.241c0.216,1.279,0.775,2.283,1.977,2.812
				c0.264,0.114,0.505,0.162,0.721,0.162L186.368,50.562z"/>
			<path fill="#FFC881" d="M186.139,67.001c0.289,1.483-1.388,1.766-2.511,1.994c-2.247,0.469-4.524,0.764-6.795,1.124
				c-2.325-0.019-4.35-0.823-6.267-1.982c-0.817-0.499-0.973-1.232-0.433-2.049c0.457-0.686,1.058-0.884,1.791-0.403
				c3.581,2.361,7.33,1.22,11.024,0.451C184.265,65.859,185.791,65.252,186.139,67.001z"/>
			<path fill="#FFFFFF" d="M182.793,39.784c0.457,0.409-0.234,1.033-0.589,1.479c-0.721,0.9-1.466,1.784-2.199,2.673
				c-0.192-0.042-0.384-0.084-0.583-0.132c0.072-1.153,0.132-2.313,0.216-3.473c0.048-0.606,0.204-1.256,0.973-1.172
				C181.369,39.237,182.276,39.328,182.793,39.784z"/>
			<path fill="#FFFFFF" d="M174.748,38.156c1.213,0.505,0.282,1.34-0.084,1.923c-0.787,1.249-1.67,2.433-2.512,3.646
				c-0.192-0.06-0.384-0.114-0.583-0.174c0.276-1.454,0.541-2.908,0.835-4.356C172.693,37.784,173.841,37.777,174.748,38.156z"/>
			<path fill="#FFC881" d="M174.718,61.906c0.276,0.919-0.661,1.525-1.856,1.502c-1.003-0.217-2.313-0.295-2.439-1.845
				c-0.078-0.925,0.354-2.043,1.333-1.935C173.042,59.773,174.333,60.639,174.718,61.906z"/>
			<path fill="#FFC881" d="M173.871,104.034c1.148,0.492,2.716,1.388,0.511,2.619c-0.739,0.415-0.781,0.709-0.486,1.346
				c0.559,1.202,0.15,2.338-0.271,3.485c-2.103,5.762-3.016,6.17-8.796,4.098c-0.919-0.331-1.94-0.396-2.92-0.511
				c-2.349-0.283-3.526-1.616-3.586-4.194c-0.763,3.263-2.53,3.419-5.233,2.704c-2.571-0.679-5.353-0.553-8.039-0.812
				c-2.109-0.204-2.92-1.142-1.742-3.19c1.25-2.168,2.457-4.355,3.677-6.536c0.493-0.883,1.166-1.34,1.923-1.273
				c0.342,0.029,0.703,0.168,1.069,0.433c1.304,0.913,0.042,1.712-0.373,2.517c-0.09,0.175-0.198,0.349-0.3,0.517
				c-3.04,5.113-2.776,5.51,3.19,5.702c1.538,0.048,2.121-0.438,2.439-1.875c0.541-2.427,1.418-4.758,2.722-6.999
				c-2.86-0.883-5.744-1.298-8.64-1.52c-1.796-0.145-3.593-0.211-5.389-0.276c-1.16-0.043-2.89,0.498-2.932-1.027
				c-0.048-1.707,1.863-1.448,3.058-1.431c8.472,0.15,16.661,1.911,24.693,4.506C170.248,102.898,172.128,103.301,173.871,104.034z
				 M171.401,107.284c0.367-0.949-4.74-4.169-7.065-3.37c-2.601,0.896-1.171,4.464-2.055,6.711c-0.06,1.273,3.431,3.641,5.576,3.04
				C170.765,112.848,170.524,109.586,171.401,107.284z"/>
			<path fill="#FFFFFF" d="M164.336,103.914c2.325-0.799,7.432,2.421,7.065,3.37c-0.877,2.302-0.637,5.563-3.544,6.381
				c-2.145,0.601-5.636-1.767-5.576-3.04C163.165,108.378,161.735,104.81,164.336,103.914z"/>
			<path fill="#FFFFFF" d="M170.59,51.776c0.613,1.526,0.703,3.299-1.099,4.199c-1.809,0.901-3.852,1.557-5.594-0.071
				c-1.322-1.244-0.775-2.506,0.793-3.701c0.499,1.159,0.901,2.968,2.596,1.929c1.922-1.178-0.318-2.049-0.775-3.232
				C168.187,50.737,169.81,49.836,170.59,51.776z"/>
			<path fill="#FFC881" d="M170.044,131.202c0.57,1.587-0.715,2.38-1.598,3.221c-1.754,1.67-3.695,3.076-6.339,2.794
				c-1.658-0.187-2.835-1.058-2.108-2.758c1.988-4.639,1.742-9.535,2.024-14.377c0.024-0.499,0.042-0.998,0.096-1.496
				c0.108-0.956,0.378-1.778,1.586-1.749c1.166,0.036,1.532,0.8,1.556,1.791c0.03,1.592,0.006,3.184,0.006,4.115
				c-0.078,1.658-0.042,2.668-0.192,3.646c-0.258,1.629-0.012,2.656,1.995,2.686C168.416,129.1,169.557,129.833,170.044,131.202z
				 M167.22,133.306c0.457-0.373,0.956-0.871,0.649-1.526c-0.312-0.667-1.021-0.522-1.586-0.427
				c-1.905,0.337-3.214,1.43-4.151,3.539C164.198,134.681,165.85,134.417,167.22,133.306z"/>
			<path fill="#FFFFFF" d="M167.869,131.779c0.307,0.655-0.192,1.153-0.649,1.526c-1.37,1.111-3.022,1.375-5.088,1.586
				c0.937-2.109,2.247-3.202,4.151-3.539C166.848,131.257,167.557,131.112,167.869,131.779z"/>
			<path fill="#FFFFFF" d="M167.37,38.865c-0.757,2.229-1.52,4.037-3.364,6.062C163.759,41.852,163.832,39.598,167.37,38.865z"/>
			<path fill="#FFC881" d="M158.034,68.689c1.424,0.799,1.49,1.7,0.733,3.202c-4.104,8.135-8.604,16.005-14.215,23.232
				c-1.045,1.34-1.845,2.151-3.311,1.01c-1.724-1.34-0.108-2.295,0.643-3.16c2.523-2.872,4.494-6.116,6.513-9.337
				c0.703-1.117,1.003-1.916-0.396-2.943c-2.091-1.544-3.755-3.611-5.119-5.84c-1.231-2.019-2.589-3.509-4.8-2.56
				c-2.211,0.036-4.674,0.528-5.365-1.178c-0.799-1.959-2.475-3.677-2.037-6.236c0.781-4.603,2.62-8.604,5.816-11.932
				c1.141-1.189,1.255-1.749-0.319-2.571c-1.322-0.697-2.349-1.845-2.974-3.274c-1.382-3.143-0.433-4.957,3.526-6.699
				c1.959-0.865,4.062,0.216,5.071,2.89c0.979,2.596,2.265,5.365-0.871,7.534c-0.763,0.528-0.354,0.961,0.06,1.436
				c2.529,2.908,2.986,6.453,3.046,10.105c0.018,1.298,0.15,2.632-0.078,3.894c-0.949,5.335,2.049,8.886,5.323,12.389
				c1.003,1.075,1.568,0.919,2.175-0.307c1.37-2.775,2.77-5.533,4.188-8.285C156.129,69.115,156.496,67.83,158.034,68.689z
				 M138.225,49.445c1.971-0.066,3.395-1.189,3.25-3.148c-0.126-1.814-0.589-3.887-3.442-4.007
				c-1.658,0.102-3.004,1.009-3.281,2.962C134.482,47.156,136.465,49.505,138.225,49.445z M140.556,65.715
				c-0.012-0.913,0.391-1.982-1.37-1.898c-4.001,0.204-5.365,1.25-5.503,4.326c-0.12,2.529,1.791,0.853,2.385,1.405
				C139.643,69.524,140.592,68.689,140.556,65.715z M137.366,60.975c1.333-0.307,3.575,0.77,3.166-2.091
				c-0.168-1.207,0.024-2.71-1.352-3.311c-0.793-0.342-4.272,3.833-4.025,4.801C135.521,61.768,136.639,60.734,137.366,60.975z"/>
			<path fill="#FFFFFF" d="M157.655,102.063c-1.304,2.241-2.181,4.572-2.722,6.999c-0.318,1.437-0.901,1.923-2.439,1.875
				c-5.966-0.192-6.23-0.589-3.19-5.702c0.102-0.168,0.21-0.342,0.3-0.517c0.415-0.805,1.676-1.604,0.373-2.517
				c-0.367-0.265-0.727-0.403-1.069-0.433l0.108-1.226C151.912,100.766,154.795,101.181,157.655,102.063z"/>
			<path fill="#FFC881" d="M153.095,31.205c0.426,0.667,1.093,1.424,0.102,2.036c-0.787,0.487-1.304-0.228-1.64-0.847
				c-2.379-4.434-6.26-5.497-10.898-4.927c-0.691,0.09-1.4,0.03-2.103-0.012c-0.727-0.042-1.484-0.198-1.394-1.147
				c0.078-0.806,0.817-0.733,1.406-0.739c1.297-0.018,2.601-0.006,4.692-0.006C147.568,24.512,150.602,27.348,153.095,31.205z"/>
			<path fill="#FFFFFF" d="M152.645,49.752c0.054,0.943-0.15,1.712-1.274,1.514c-0.715-0.132-1.893-0.072-1.784-1.123
				c0.102-1.063,1.171-1.629,2.151-1.809C152.933,48.111,152.374,49.265,152.645,49.752z"/>
			<path fill="#FFC881" d="M149.424,115.455c1.34,0.499,0.829,1.58,0.595,2.542c-1.171,4.71-2.458,9.396-3.431,14.143
				c-0.619,3.022-2.644,3.377-4.584,3.413c-3.959-0.085-7.06-1.833-6.958-3.665c0.084-1.509,3.527-3.779,6.369-3.545
				c2.5,0.204,2.956-0.884,3.382-2.89c0.595-2.812,1.514-5.563,2.361-8.321C147.483,116.08,147.952,114.909,149.424,115.455z
				 M144.72,131.947c-2.704-1.58-3.124-1.525-5.545,0.541C141.043,133.527,142.719,133.113,144.72,131.947z"/>
			<path fill="#FFC881" d="M147.339,34.359c0.373,0.366,0.523,0.865,0.084,1.304c-0.408,0.414-0.979,0.396-1.333,0.018
				c-1.917-2.061-4.098-3.4-7.065-3.01c-0.523,0.072-0.938-0.366-0.961-0.925c-0.03-0.602,0.42-0.854,0.955-0.884
				c0.595-0.036,1.196-0.006,1.899-0.006C143.843,30.412,145.507,32.551,147.339,34.359z"/>
			<path fill="#FFC881" d="M143.777,36.018c0.114,0.673-0.751,1.129-1.262,0.738c-1.358-1.033-3.785,0.703-4.404-1.502
				c-0.312-1.135,1.19-0.955,2.109-1.087C141.428,34.678,143.416,33.879,143.777,36.018z"/>
			<path fill="#FFFFFF" d="M139.174,132.488c2.421-2.066,2.842-2.121,5.545-0.541C142.719,133.113,141.043,133.527,139.174,132.488z
				"/>
			<path fill="#FFFFFF" d="M141.476,46.297c0.144,1.959-1.28,3.082-3.25,3.148c-1.76,0.06-3.743-2.289-3.473-4.193
				c0.276-1.953,1.623-2.86,3.281-2.962C140.887,42.41,141.35,44.482,141.476,46.297z"/>
			<path fill="#FFFFFF" d="M139.187,63.816c1.76-0.084,1.358,0.985,1.37,1.898c0.036,2.975-0.913,3.81-4.488,3.833
				c-0.595-0.553-2.505,1.124-2.385-1.405C133.821,65.066,135.185,64.021,139.187,63.816z"/>
			<path fill="#FFFFFF" d="M140.532,58.884c0.409,2.86-1.833,1.784-3.166,2.091c-0.727-0.24-1.845,0.793-2.211-0.601
				c-0.247-0.968,3.232-5.143,4.025-4.801C140.556,56.174,140.364,57.677,140.532,58.884z"/>
			<path fill="#FFC881" d="M125.608,37.537c2.301,0.901,4.92,5.888,4.356,8.321c-0.18,0.793-0.427,1.755-1.238,1.94
				c-3.539,0.829-2.247,2.638-1.4,4.879c2.193,5.804,1.087,11.848,0.727,17.813c-0.048,0.848-0.354,1.622-1.436,1.508
				c-0.811-0.078-1.754-0.306-1.754-1.279c-0.006-1.923-1.189-1.628-2.433-1.592c-1.796,0.054-3.605-0.187-5.389-0.049
				c-1.893,0.145-4.464-1.67-4.92,2.602c-0.216,2.049-3.509,3.635-5.792,4.903c-4.806,2.673-9.691,5.257-15.008,6.734
				c-1.923,0.535-1.226,1.496-0.877,2.409c2.433,6.453,4.038,13.212,7.366,19.322c0.715,1.315,1.22,2.739,1.856,4.098
				c0.505,1.087,0.367,1.977-0.799,2.463c-1.184,0.499-2.163,0.258-2.649-1.069c-1.917-5.263-4.56-10.22-6.23-15.591
				c-2.079-6.688-4.434-13.278-6.561-19.947c-0.787-2.457-1.646-2.703-3.605-0.925c-5.744,5.221-12.383,8.718-20.157,9.896
				c-7.114,1.069-11.764-2.691-15.723-7.871c-0.601-0.787-1.208-1.58-1.989-2.602c-1.25,1.749-2.547,3.269-4.92,3.209
				c-3.082-0.072-4.518-2.35-3.016-5.053c0.751-1.353,1.851-2.571,3.292-2.908c2.235-0.528,2.006-1.706,1.604-3.406
				c-3.052-12.924,3.082-22.464,12.166-26.531c6.903-3.095,14.149-5.727,22.038-3.269c3.887,1.213,6.729,3.803,9.535,6.543
				c1.082,1.057,1.803,2.728,3.833,2.493c0.757-0.091,0.943,0.69,0.679,1.304c-0.499,1.153,0.024,2.091,0.384,3.142
				c0.643,1.856,1.087,3.16,3.629,1.881c1.898-0.949,4.014-0.354,4.812,2.108c0.715,2.182-0.871,5.161-3.509,5.354
				c-3.094,0.223-3.653,2.007-4.206,4.313c-0.276,1.154-0.583,2.47-1.333,3.299c-2.097,2.301-1.526,4.645-0.625,7.132
				c0.817,2.253,1.586,4.523,2.277,6.818c0.343,1.16,0.655,1.641,2.007,1.027c5.287-2.385,10.658-4.59,15.507-7.828
				c2.481-1.652,3.575-3.604,2.505-6.783c-1.472-4.355,0.06-6.242,4.746-6.272c1.376-0.006,1.358-0.985,1.725-1.682
				c1.604-3.089,2.854-6.411,6.104-8.394c-1.021-0.733-1.995-1.273-2.77-2.019c-2.295-2.188-1.382-4.47-0.066-6.741
				C119.654,38.991,123.836,36.841,125.608,37.537z M123.463,47.246c2.427,0.396,3.725-0.745,3.671-3.454
				c-0.054-2.602-1.532-3.827-4.674-3.707c-1.736,0.06-3.28,1.051-3.521,2.619C118.483,45.654,120.189,47.229,123.463,47.246z
				 M122.208,66.352c2.511,0.343,3.442-0.774,3.244-3.226c-0.234-2.854-2.217-1.214-3.376-1.292
				c-1.364-0.084-2.758,0.36-4.146,0.528c-1.538,0.181-1.496,1.31-1.574,2.434c-0.108,1.532,0.889,1.532,1.953,1.508
				c0.799-0.018,1.604,0,2.403,0c0,0.012,0,0.024,0,0.036C121.21,66.34,121.721,66.286,122.208,66.352z M123.332,58.704
				c1.742-0.007,2.439-0.794,1.946-2.386c-0.451-1.448,0.024-3.707-1.766-4.098c-1.598-0.349-2.698,1.412-3.653,2.674
				c-0.601,0.787-1.082,1.676-1.514,2.571c-0.547,1.136-0.457,1.965,1.61,1.641C120.772,59.004,122.052,58.71,123.332,58.704z
				 M92.246,54.486c0.174-0.438-0.216-0.764-0.631-0.686c-0.997,0.192-1.742,0.823-2.157,1.725
				c-0.174,0.385,0.174,0.697,0.835,0.703C91.116,56.012,91.867,55.441,92.246,54.486z M82.627,66.646
				c2.56-3.875,4.091-8.081,2.607-12.84c-0.072-2.799-0.511-5.623-3.593-6.5c-4.566-1.304-8.753-3.16-12.298-6.411
				c-0.493,0.878,0.132,1.454,0.384,2.025c2.121,4.746,8.772,9.78,12.461,8.939c2.265-0.517,2.343,0.409,2.421,1.959
				c-1.604,1.568-3.485,1.388-5.312,0.661c-5.053-1.995-9.318-4.963-11.98-9.896c-0.438-0.817-0.45-1.982-1.778-2.457
				c-1.231,6.086-4.284,11.211-8.327,15.681c-3.544,3.905-7.264,7.744-12.671,9.15c-1.634-1.034-2.205-1.694,0.102-2.92
				c8.97-4.776,14.87-12.124,17.496-21.996c0.204-0.769,0.745-1.988-0.475-2.24c-1.069-0.217-0.961,1.009-1.094,1.748
				c-1.003,5.545-3.863,9.967-8.099,13.596c-1.971,1.688-3.911,3.407-5.78,5.209c-1.46,1.406-2.908,2.734-5.197,2.494
				c0.444,1.82,0.715,3.473,1.556,4.944c1.213,4.121,3.767,7.323,6.729,10.352c3.244,3.311,7.023,3.93,11.229,2.733
				c4.302-1.226,8.459-2.848,12.148-5.473c1.658-0.89,3.16-1.977,4.344-3.467C79.545,70.497,81.281,68.677,82.627,66.646z
				 M79.1,43.251c-2.289-2.77-4.512-4.146-7.402-4.53C73.447,40.842,75.598,42.362,79.1,43.251z M49.667,53.729
				c4.566-3.316,7.985-7.306,7.907-13.373c-0.854,5.569-4.374,9.36-8.49,12.755c-1.688,0.69-3.07,2.265-5.119,1.935
				c-1.742-0.288-2.253,0.528-2.361,2.103c-0.084,1.25-0.342,2.47,0.156,4.079C44.74,58.752,47.294,56.343,49.667,53.729z
				 M53.049,43.756c0.336-0.679,0.883-1.526,0.042-2.163c-0.63-0.475-1.333-0.012-1.928,0.354
				c-4.032,2.487-6.681,6.062-8.093,10.652C47.6,50.953,50.929,48.021,53.049,43.756z M41.111,72.029
				c0.271-0.21-0.144-1.105-0.661-1.123c-1.712-0.066-3.04,0.673-4.062,2.68C38.378,73.808,39.832,73.062,41.111,72.029z"/>
			<path fill="#FFFFFF" d="M127.134,43.792c0.054,2.709-1.244,3.851-3.671,3.454c-3.274-0.018-4.98-1.592-4.524-4.542
				c0.24-1.568,1.784-2.56,3.521-2.619C125.603,39.965,127.081,41.19,127.134,43.792z"/>
			<path fill="#FFFFFF" d="M125.452,63.126c0.198,2.451-0.733,3.568-3.244,3.226c-0.487-0.065-0.998-0.012-1.496-0.012
				c0-0.012,0-0.024,0-0.036c-0.799,0-1.604-0.018-2.403,0c-1.063,0.024-2.061,0.024-1.953-1.508
				c0.078-1.124,0.036-2.253,1.574-2.434c1.388-0.168,2.782-0.612,4.146-0.528C123.235,61.912,125.218,60.271,125.452,63.126z"/>
			<path fill="#FFFFFF" d="M125.278,56.318c0.493,1.592-0.204,2.379-1.946,2.386c-1.28,0.006-2.56,0.3-3.376,0.402
				c-2.067,0.324-2.157-0.505-1.61-1.641c0.433-0.896,0.913-1.784,1.514-2.571c0.955-1.262,2.055-3.022,3.653-2.674
				C125.302,52.611,124.827,54.87,125.278,56.318z"/>
			<path fill="#FFC881" d="M120.525,28.267c0.283,1.172-0.805,1.238-1.52,1.334c-4.866,0.643-9.606,1.628-13.602,4.759
				c-0.517,0.402-1.166,0.534-1.544-0.114c-0.331-0.577-0.006-1.178,0.444-1.61c1.394-1.346,3.227-1.94,4.939-2.716
				c3.022-1.376,6.29-1.809,9.733-2.367C119.456,27.558,120.327,27.426,120.525,28.267z"/>
			<path fill="#FFC881" d="M118.849,32.887c0.048,0.812-0.294,1.178-0.853,1.178c-2.728-0.006-5.359,0.433-7.895,1.473
				c-0.48,0.198-1.009,0.084-1.25-0.475c-0.24-0.565,0.066-1.04,0.517-1.256c2.758-1.328,5.666-1.893,8.718-1.49
				C118.405,32.358,118.675,32.743,118.849,32.887z"/>
			<path fill="#FFC881" d="M115.737,35.435c1.045-0.145,2.049-0.018,1.946,0.757c-0.318,2.308-2.95,0.949-4.061,2.289
				c-0.301,0.36-1.316-0.222-1.154-0.889C112.907,35.777,114.644,35.813,115.737,35.435z"/>
			<path fill="#FFC881" d="M103.349,132.416c0.823,1.683,0.078,3.059-1.033,4.044c-2.217,1.964-4.572,3.898-7.925,2.589
				c-1.231-0.48-1.184,0.643-1.418,1.268c-0.433,1.13-1.268,1.515-2.361,1.382c-1.484-0.174-1.105-1.376-1.202-2.325
				c-0.229-2.283-0.391-4.584-0.751-6.849c-0.367-2.289-0.445-4.896-4.038-4.506c-0.997,0.114-1.748-0.728-1.796-1.983
				c-0.054-1.363-0.331-2.715-1.466-3.94c-1.051,1.207-0.282,2.385-0.282,3.454c0.012,1.862,0.606,3.785-1.905,4.74
				c-1.316,0.505-0.661,1.965-0.607,2.98c0.247,4.512-0.871,8.459-4.104,11.787c-2.211,2.277-8.453,3.726-11.277,2.283
				c-1.568-0.799-2.193-1.862-1.009-3.599c2.553-3.749,5.882-4.645,9.601-2.229c1.34,0.877,1.898,0.486,2.494-0.709
				c0.769-1.551,1.177-3.167,1.201-4.903c0.061-3.851,0.018-3.983-3.701-3.791c-2.085,0.108-2.854-1.027-3.244-2.758
				c-0.192-0.864-0.241-1.964-1.466-1.91c-1.375,0.061-1.063,1.178-1.003,2.043c0.103,1.483-0.535,2.301-2.037,2.331
				c-1.856,0.036-1.61-1.322-1.658-2.523c-0.451-10.526-2.559-20.812-4.548-31.115c-0.12-0.638-0.09-1.353-0.938-1.719
				c-7.366-3.208-14.786-5.563-22.878-2.554c-1.724,0.638-3.238,1.418-4.68,2.542c-2.133,1.652-4.506,2.686-7.209,1.243
				c-0.781-0.414-1.418-3.557-0.992-4.668c0.511-1.315,1.009,0.896,1.754,1.304c0.859,0.469,1.898,1.826,2.704,1.286
				c0.973-0.655,2.836-0.896,2.169-2.65c-0.522-1.369-2.277-1.424-3.923-0.991c-0.757,0.205-1.358,0.901-2.301-0.149
				c-0.938-1.046,1.273-3.089,2.511-3.251c1.958-0.258,3.797,0.061,5.281,1.532c0.961,0.955,1.904,1.406,3.442,1.033
				c9.565-2.295,14.882-1.742,24.008,2.277c0.163-1.953-0.48-3.725-0.775-5.533c-0.198-1.202-0.553-2.626,1.178-2.824
				c1.436-0.168,2.409,0.649,2.655,2.229c1.814,11.644,3.749,23.269,5.438,34.931c0.367,2.541,0.919,3.027,3.304,1.946
				c7.865-3.551,16.168-5.798,24.489-7.979c1.52-0.396,3.136-0.619,4.422-1.73c0.967-0.829,1.694-0.103,2.217,0.673
				c0.631,0.943-0.163,1.862-0.769,1.904c-4.879,0.331-4.645,4.248-5.432,7.475c-0.09,0.378-0.192,0.865-0.468,1.081
				c-3.214,2.535-1.484,5.617-0.931,9c2.385-2.055,4.638-3.515,7.42-3.779C101.042,130.662,102.52,130.722,103.349,132.416z
				 M99.485,135.559c0.457-0.373,0.956-0.871,0.649-1.526c-0.312-0.667-1.021-0.522-1.586-0.427
				c-1.905,0.337-3.214,1.43-4.152,3.539C96.463,136.935,98.116,136.67,99.485,135.559z M90.666,121.247
				c0.433-1.916-1.201-1.207-1.995-1.31c-1.706-0.168-3.641,0.324-3.46,1.809c0.174,1.441,0.054,4.247,2.83,4.049
				C90.828,125.597,90.269,122.983,90.666,121.247z M73.447,129.063c3.773-0.114,5.876-1.231,5.828-3.574
				c-0.21-0.859,0.205-2.277-1.418-2.374c-1.977-0.12-6.506,2.428-6.236,3.509C71.854,127.567,71.428,129.124,73.447,129.063z
				 M69.86,144.12c0.15-0.794-0.973-1.484-1.898-1.496c-1.208-0.006-2.151,0.816-2.325,1.898c-0.15,0.961,0.956,0.648,1.64,0.787
				C68.22,145.123,69.638,145.321,69.86,144.12z"/>
			<path fill="#FFFFFF" d="M100.134,134.032c0.307,0.655-0.192,1.153-0.649,1.526c-1.37,1.111-3.022,1.376-5.089,1.586
				c0.938-2.109,2.247-3.202,4.152-3.539C99.113,133.51,99.822,133.365,100.134,134.032z"/>
			<path fill="#FFFFFF" d="M91.615,53.801c0.415-0.078,0.805,0.247,0.631,0.686c-0.378,0.955-1.129,1.525-1.952,1.742
				c-0.661-0.006-1.01-0.318-0.835-0.703C89.873,54.624,90.618,53.993,91.615,53.801z"/>
			<path fill="#FFFFFF" d="M88.671,119.938c0.793,0.103,2.427-0.606,1.995,1.31c-0.396,1.736,0.163,4.35-2.625,4.548
				c-2.775,0.198-2.655-2.607-2.83-4.049C85.03,120.262,86.965,119.77,88.671,119.938z"/>
			<path fill="#FFFFFF" d="M85.234,53.807c1.484,4.759-0.048,8.965-2.607,12.84c-1.346,2.03-3.082,3.851-5.125,5.293
				c-0.517-0.246-0.648-0.709-0.679-1.226c0.763-1.172,0.457-2.146-0.697-2.74c-1.256-0.654-1.725,0.451-2.313,1.25
				c-2.487,3.4-7.239,5.179-10.135,3.701c-0.979-0.493-1.935-1.538-2.709-0.012c-0.847,1.658,0.841,2.048,1.754,2.522
				c3.154,1.641,6.219,0.518,9.241-0.606c0.396,0.192,0.799,0.385,1.195,0.577c-3.689,2.625-7.846,4.247-12.148,5.473
				c-4.206,1.196-7.985,0.577-11.229-2.733c-2.962-3.028-5.516-6.23-6.729-10.352c0.306-0.613,0.883-0.751,1.49-0.835
				c5.407-1.406,9.126-5.245,12.671-9.15c4.043-4.47,7.096-9.595,8.327-15.681c1.328,0.475,1.34,1.64,1.778,2.457
				c2.662,4.933,6.927,7.9,11.98,9.896c1.827,0.727,3.707,0.907,5.312-0.661C84.82,53.813,85.024,53.813,85.234,53.807z
				 M72.053,61.275c1.04-0.091,2.241-0.229,2.115-1.544c-0.132-1.34-1.502-1.382-2.547-1.671c-1.598,0.126-2.914,0.751-3.767,2.133
				c-0.402,0.644-0.402,1.388,0.192,1.917c1.292,1.159,2.157-0.072,3.142-0.625C71.44,61.348,71.758,61.299,72.053,61.275z
				 M65.6,71.261c0.721-0.055,1.16-0.715,1.136-1.13c-0.084-2.211-2.331-1.61-2.89-3.04c-0.3-0.775-1.339-0.799-2.103-0.312
				c-0.805,0.511-0.847,1.43-0.541,2.139C62.02,70.804,63.696,71.393,65.6,71.261z M58.481,65.883
				c0.096-0.829-0.583-1.226-1.232-1.478c-0.643-0.252-1.333-0.366-1.964-0.528c-2.145,0.342-3.311,1.76-4.242,3.473
				c-0.487,0.877-1.13,1.724,0.234,2.463c1.159,0.631,2.061,0.156,2.463-0.817c0.631-1.525,1.616-2.133,3.214-2.024
				C57.688,67.019,58.391,66.706,58.481,65.883z"/>
			<path fill="#FFC881" d="M85.234,53.807c-0.21,0.007-0.415,0.007-0.625,0.013C84.814,53.53,85.018,53.524,85.234,53.807z"/>
			<path fill="#FFFFFF" d="M85.234,53.807c-0.216-0.282-0.42-0.276-0.625,0.013c-0.078-1.55-0.156-2.476-2.421-1.959
				c-3.689,0.841-10.34-4.193-12.461-8.939c-0.252-0.571-0.877-1.147-0.384-2.025c3.545,3.251,7.732,5.107,12.298,6.411
				C84.724,48.184,85.163,51.008,85.234,53.807z"/>
			<path fill="#FFFFFF" d="M79.274,125.489c0.048,2.343-2.055,3.46-5.828,3.574c-2.019,0.061-1.592-1.496-1.827-2.439
				c-0.27-1.081,4.26-3.629,6.236-3.509C79.479,123.212,79.064,124.63,79.274,125.489z"/>
			<path fill="#FFC881" d="M77.502,71.939c-0.703,0.18-0.943-0.229-1.117-0.715c0.156-0.169,0.3-0.337,0.438-0.511
				C76.854,71.23,76.985,71.693,77.502,71.939z"/>
			<path fill="#FFC881" d="M76.385,71.225c0.174,0.486,0.415,0.895,1.117,0.715c-1.184,1.49-2.686,2.577-4.344,3.467
				c0.09-0.589-0.186-0.817-0.559-0.956C74.023,73.556,75.285,72.486,76.385,71.225z"/>
			<path fill="#FFC881" d="M76.126,67.974c1.153,0.595,1.46,1.568,0.697,2.74c-0.18,0.065-0.36,0.138-0.529,0.21
				c-0.168-1.279-0.324-2.745-1.953-0.931c-3.316,3.688-7.222,5.082-12.371,3.142c0.559,1.875,1.911,1.845,3.064,2.097
				c2.457,0.541,4.698-0.625,7.053-0.931c0.054,0.012,0.102,0.029,0.156,0.042c-0.096,0.156-0.192,0.318-0.282,0.486
				c-3.022,1.124-6.086,2.247-9.241,0.606c-0.913-0.475-2.601-0.864-1.754-2.522c0.775-1.526,1.73-0.481,2.709,0.012
				c2.896,1.478,7.648-0.301,10.135-3.701C74.402,68.425,74.871,67.319,76.126,67.974z"/>
			<path fill="#FFC881" d="M76.823,70.714c-0.138,0.174-0.282,0.342-0.438,0.511c-0.024-0.078-0.054-0.156-0.078-0.234
				c0-0.024-0.006-0.042-0.012-0.066C76.463,70.852,76.643,70.779,76.823,70.714z"/>
			<path fill="#FFC881" d="M76.307,70.99c0.024,0.078,0.054,0.156,0.078,0.234c-1.1,1.262-2.361,2.331-3.785,3.226
				c-0.114-0.042-0.234-0.077-0.354-0.107c0.985-1.574,2.349-2.691,4.049-3.419C76.3,70.948,76.307,70.966,76.307,70.99z"/>
			<path fill="#FFFFFF" d="M71.698,38.721c2.89,0.385,5.113,1.761,7.402,4.53C75.598,42.362,73.447,40.842,71.698,38.721z"/>
			<path fill="#FFC881" d="M74.342,69.993c1.628-1.814,1.785-0.349,1.953,0.931c-1.7,0.728-3.064,1.845-4.049,3.419
				c-0.054-0.013-0.102-0.03-0.156-0.042c-2.355,0.306-4.596,1.472-7.053,0.931c-1.154-0.252-2.505-0.222-3.064-2.097
				C67.12,75.075,71.025,73.682,74.342,69.993z"/>
			<path fill="#FFC881" d="M74.167,59.731c0.126,1.315-1.075,1.453-2.115,1.544c-0.294,0.023-0.613,0.072-0.865,0.21
				c-0.985,0.553-1.85,1.784-3.142,0.625c-0.595-0.529-0.595-1.273-0.192-1.917c0.854-1.382,2.169-2.007,3.767-2.133
				C72.666,58.35,74.036,58.392,74.167,59.731z"/>
			<path fill="#FFC881" d="M72.6,74.45c0.373,0.139,0.649,0.367,0.559,0.956c-0.396-0.192-0.799-0.385-1.195-0.577
				C72.179,74.703,72.396,74.577,72.6,74.45z"/>
			<path fill="#FFC881" d="M72.6,74.45c-0.204,0.127-0.42,0.253-0.637,0.379c0.09-0.168,0.186-0.33,0.282-0.486
				C72.365,74.373,72.485,74.408,72.6,74.45z"/>
			<path fill="#FFFFFF" d="M67.961,142.624c0.925,0.012,2.049,0.702,1.898,1.496c-0.222,1.201-1.64,1.003-2.583,1.189
				c-0.685-0.139-1.79,0.174-1.64-0.787C65.811,143.44,66.754,142.618,67.961,142.624z"/>
			<path fill="#FFC881" d="M66.736,70.131c0.024,0.415-0.415,1.075-1.136,1.13c-1.904,0.132-3.581-0.457-4.398-2.344
				c-0.306-0.709-0.264-1.628,0.541-2.139c0.763-0.486,1.802-0.463,2.103,0.312C64.405,68.521,66.652,67.92,66.736,70.131z"/>
			<path fill="#FFFFFF" d="M61.665,39.803c1.22,0.252,0.679,1.472,0.475,2.24c-2.625,9.872-8.525,17.22-17.496,21.996
				c-2.307,1.226-1.736,1.886-0.102,2.92c-0.781-0.229-1.538-0.421-1.49,0.835c-0.841-1.472-1.112-3.124-1.556-4.944
				c2.289,0.24,3.737-1.088,5.197-2.494c1.869-1.802,3.809-3.521,5.78-5.209c4.236-3.629,7.096-8.051,8.099-13.596
				C60.704,40.812,60.596,39.586,61.665,39.803z"/>
			<path fill="#FFC881" d="M57.249,64.405c0.649,0.252,1.328,0.648,1.232,1.478c-0.09,0.823-0.793,1.136-1.526,1.088
				c-1.598-0.108-2.583,0.499-3.214,2.024c-0.402,0.974-1.304,1.448-2.463,0.817c-1.364-0.739-0.721-1.586-0.234-2.463
				c0.931-1.713,2.097-3.131,4.242-3.473C55.916,64.039,56.606,64.153,57.249,64.405z"/>
			<path fill="#FFFFFF" d="M57.574,40.355c0.078,6.067-3.341,10.057-7.907,13.373c0.126-0.51,0-0.774-0.583-0.618
				C53.2,49.716,56.72,45.925,57.574,40.355z"/>
			<path fill="#FFFFFF" d="M53.091,41.593c0.841,0.637,0.294,1.484-0.042,2.163c-2.121,4.266-5.449,7.197-9.979,8.844
				c1.412-4.59,4.061-8.165,8.093-10.652C51.758,41.581,52.461,41.118,53.091,41.593z"/>
			<path fill="#FFC881" d="M49.084,53.11c0.583-0.156,0.709,0.108,0.583,0.618C49.475,53.519,49.276,53.314,49.084,53.11z"/>
			<path fill="#FFFFFF" d="M49.084,53.11c0.192,0.204,0.391,0.408,0.583,0.618c-2.373,2.614-4.927,5.023-7.907,7.498
				c-0.499-1.609-0.24-2.829-0.156-4.079c0.108-1.574,0.619-2.391,2.361-2.103C46.014,55.375,47.396,53.801,49.084,53.11z"/>
			<path fill="#FFC881" d="M43.052,67.794c-0.048-1.256,0.709-1.063,1.49-0.835C43.936,67.043,43.358,67.181,43.052,67.794z"/>
			<path fill="#FFFFFF" d="M40.451,70.906c0.517,0.018,0.931,0.913,0.661,1.123c-1.279,1.033-2.733,1.778-4.722,1.557
				C37.411,71.579,38.738,70.84,40.451,70.906z"/>
		</g>
	</g>
</g>
<circle fill="#FFC881" cx="120.913" cy="43.143" r="0.784"/>
<circle fill="#FFC881" cx="123.785" cy="43.143" r="0.784"/>
<circle fill="#FFC881" cx="136.532" cy="45.258" r="0.784"/>
<circle fill="#FFC881" cx="139.175" cy="45.258" r="0.784"/>
</svg>
