<?xml version="1.0" encoding="utf-8"?>
<!-- Generator: Adobe Illustrator 16.0.0, SVG Export Plug-In . SVG Version: 6.00 Build 0)  -->
<!DOCTYPE svg PUBLIC "-//W3C//DTD SVG 1.1//EN" "http://www.w3.org/Graphics/SVG/1.1/DTD/svg11.dtd">
<svg version="1.1" id="Layer_1" xmlns="http://www.w3.org/2000/svg" xmlns:xlink="http://www.w3.org/1999/xlink" x="0px" y="0px"
	 width="220px" height="160px" viewBox="0 0 220 160" enable-background="new 0 0 220 160" xml:space="preserve">
<g id="XMLID_3_">
	<g>
		<g id="XMLID_4_">
			<g>
				<path fill="#FFC881" d="M212.053,85.752c1.08,0.029,1.92,0.46,1.87,1.64c-0.05,1.271-1.08,1.38-2.07,1.38
					c-0.8,0-1.6-0.06-2.4-0.069c-6.91-0.07-13.82-0.24-20.73,0.319c-1.37,0.11-1.7,0.51-1.68,1.8c0.04,2.24,0.08,4.551-1.14,6.58
					c-0.9,1.5-2,2.79-4.04,1.91c-0.58-0.25-0.89-0.07-1.32,0.33c-2.35,2.18-3.26,1.95-4.52-1.29c-0.52,1-0.89,1.771-1.31,2.51
					c-0.46,0.83-1.3,1.23-2.02,0.681c-1.33-1.011-2.4-0.801-3.85-0.12c-1.54,0.72-2.99,0.01-3.74-1.67c-0.63-1.4-1-2.891-1.09-4.42
					c-0.07-1.4-0.5-1.341-1.56-0.71c-2.91,1.729-4.64,0.79-4.82-2.75c-0.1-1.95,0.21-3.931,1.06-5.75
					c0.84-1.801,2.35-2.891,4.26-2.99c5.29-0.271,10.54-0.94,15.81-1.43c3.26-0.311,6.3,0.109,7.74,3.76
					c0.35,0.89,1.28,0.51,1.96,0.47c7.27-0.33,14.56-0.36,21.84-0.22C210.883,85.722,211.463,85.731,212.053,85.752z
					 M184.573,93.781c0.17-1.88,0.17-3.77-0.02-5.67c-0.24-2.54-1.15-3.439-3.72-3.42c-0.93,0.011-1.91,0.061-2.8,0.3
					c-3.32,0.9-6.72,1.19-10.12,1.49c-0.99,0.09-2.32,0-1.25,1.74c0.3,0.48,0.06,1.28,0.03,1.94c-0.08,1.819-0.21,3.64,0.21,5.439
					c0.24,1.021,0.15,2.851,1.06,2.78c1.37-0.101,1.29-1.86,1.3-3.04c0.01-1.88-0.17-3.771-0.27-5.66
					c-0.03-0.71,0.14-1.34,0.96-1.47c0.83-0.12,1.43,0.3,1.7,1.069c0.14,0.4,0.09,0.87,0.2,1.29c0.64,2.5,0.08,5.261,1.87,8.16
					c0.47-3.27,0.9-5.96,0.57-8.729c-0.13-1.07-0.85-2.63,0.79-2.931c1.65-0.31,1.83,1.311,2.08,2.511
					c0.19,0.92,0.24,1.87,0.35,2.81c0.18,1.46,0.33,2.93,1.22,4.35c0.51-1.89,0.81-3.609,0.27-5.35c-0.28-0.88-0.85-1.729,0.2-2.54
					c0.51-0.39,0.92-0.6,1.57-0.34c1.1,0.45,1.1,1.32,1.19,2.32c0.18,2.04,0.11,4.17,1.27,6.18
					C184.363,96.071,184.473,94.912,184.573,93.781z M164.033,88.531c-0.02-0.63,1.13-1.069,0.45-1.64
					c-0.72-0.59-1.65-0.2-2.46,0.15c-1.24,0.54-1.51,1.63-1.58,3.04c-0.15,1.3,0.07,1.909,1.86,1.239
					C163.813,90.752,164.063,89.812,164.033,88.531z"/>
				<path fill="#FFFFFF" d="M184.553,88.111c0.19,1.9,0.19,3.79,0.02,5.67c-0.1,1.131-0.21,2.29-1.34,3.23
					c-1.16-2.01-1.09-4.14-1.27-6.18c-0.09-1-0.09-1.87-1.19-2.32c-0.65-0.26-1.06-0.05-1.57,0.34c-1.05,0.811-0.48,1.66-0.2,2.54
					c0.54,1.74,0.24,3.46-0.27,5.35c-0.89-1.42-1.04-2.89-1.22-4.35c-0.11-0.939-0.16-1.89-0.35-2.81
					c-0.25-1.2-0.43-2.82-2.08-2.511c-1.64,0.301-0.92,1.86-0.79,2.931c0.33,2.77-0.1,5.46-0.57,8.729
					c-1.79-2.899-1.23-5.66-1.87-8.16c-0.11-0.42-0.06-0.89-0.2-1.29c-0.27-0.77-0.87-1.189-1.7-1.069
					c-0.82,0.13-0.99,0.76-0.96,1.47c0.1,1.89,0.28,3.78,0.27,5.66c-0.01,1.18,0.07,2.939-1.3,3.04c-0.91,0.07-0.82-1.76-1.06-2.78
					c-0.42-1.8-0.29-3.62-0.21-5.439c0.03-0.66,0.27-1.46-0.03-1.94c-1.07-1.74,0.26-1.65,1.25-1.74c3.4-0.3,6.8-0.59,10.12-1.49
					c0.89-0.239,1.87-0.289,2.8-0.3C183.403,84.672,184.313,85.571,184.553,88.111z"/>
				<path fill="#FFC881" d="M164.483,86.892c0.68,0.57-0.47,1.01-0.45,1.64c0.03,1.28-0.22,2.221-1.73,2.79
					c-1.79,0.67-2.01,0.061-1.86-1.239c0.07-1.41,0.34-2.5,1.58-3.04C162.833,86.691,163.763,86.302,164.483,86.892z"/>
				<path fill="#FFC881" d="M154.363,88.172c1.18-0.01,2.6-0.16,2.54,1.53c-0.05,1.289-1.08,1.96-2.44,1.97
					c-3.5,0.04-6.97,0.34-10.42,0.899c-15.44,2.5-31.04,2.351-46.59,2.74c-5.02,0.13-10.05,0.69-15.03,0.55
					c-9.27-0.27-18.45,0.841-27.7,0.83c-5.56-0.02-11.15,0.55-16.65,1.9c-5.93,1.46-12.01,0.71-18.04,0.63
					c-2.4-0.04-4.81,0-7.21-0.02c-0.65,0-1.32,0.02-1.96-0.101c-0.97-0.2-2.04-0.74-1.85-1.79c0.17-0.89,0.98-1.66,2.24-1.64
					c3.87,0.05,7.73-0.07,11.59,0.02c1.65,0.04,1.91-0.529,1.35-1.92c-0.82-2.03-1.43-4.12-1.42-6.33
					c0.01-3.46,2.47-5.529,5.86-4.62c2.13,0.57,3.78-0.729,5.69-0.85c0.12-0.01,0.31-0.15,0.33-0.25c0.53-2.32,0.91-4.67,2.38-6.68
					c0.28-0.38-0.45-0.83-0.77-1.2c-3.14-3.51-2.94-8.03,0.91-10.561c3.43-2.25,7.14-3.72,11.53-2.13
					c2.13,0.771,2.6,2.301,3.19,3.971c0.21,0.6,0.21,1.3,0.21,1.949c0.05,3.2,0.59,4.83,2.61,7.28c1.39,1.69,2.87,3.3,3.44,5.48
					c0.24,0.909,0.57,1.029,1.54,0.6c2.43-1.08,4.58,0.2,4.86,2.84c0.31,2.86,0,5.58-2.68,7.351c-0.83,0.56-0.58,1.229-0.49,1.93
					c0.1,0.78,0.71,0.62,1.17,0.61c6.16-0.221,12.33-0.471,18.77-0.721c-1.09-1.79-2.45-3.29-1.61-5.489
					c0.24-0.61-0.9-0.771-1.43-1.101c-1.11-0.7-1.51-1.46-0.69-2.67c0.99-1.479,1.33-3.36,2.72-4.62c0.88,0.59,1.12,0.141,1.73-0.6
					c2.23-2.73,2.06-3.42,4.56-1.53c-0.3,0.46-0.6,0.9-0.9,1.35c-0.01,0.011-0.02,0.03-0.03,0.051c-0.41,0.6-2.78-0.03-1.17,1.85
					c-0.02,0.13-0.03,0.25-0.06,0.38c-0.73,0.74-1.04,1.86-2.11,2.34c-0.32,0.15-0.55,0.73-0.35,1.16c0.09,0.2,0.45,0.34,0.7,0.36
					c0.54,0.05,0.72-0.3,0.78-0.811c0.13-1.35,1.06-1.569,2.19-1.51c0.64,0.04,1.31,0.22,1.86-0.31c6.71-4,11.75-9.69,16.07-16.08
					c0.44-0.641,0.65-1.66,1.66-1.33c1.01,0.33,1.38,1.26,1.2,2.3c-0.29,1.61-1.01,3.01-2.08,4.25c-3,3.521-6.12,6.91-10.05,9.88
					c0.6,0.101,0.9,0.24,1.13,0.16c1.7-0.6,3.41-1.19,5.04-1.93l0.55,1.17c-0.84,0.26-1.3,0.87-0.81,2.149
					c-3.06,1.71-6.47,2.591-9.7,3.9c-0.7,0.28-1.61,0.32-1.72,1.4c-0.13,1.47-0.1,3.04,0.5,4.29c0.48,1,1.99,0.25,3.03,0.39
					c0.72,0.09,1.45,0.08,2.17,0.14c5.15,0.42,10.27-0.18,15.6-0.24c-0.44-1.14-0.89-2.079-0.53-3.13c0.25-0.72,0.6-1.399,1.43-1.46
					c0.74-0.06,0.91,0.54,0.98,1.17c0.1,0.801,0.61,0.931,1.26,0.69c1.21-0.44,1.57,0.39,1.43,1.21c-0.28,1.68,0.6,1.58,1.73,1.4
					c0.72-0.11,1.46-0.04,2.17-0.19c3.25-0.69,6.95-0.36,8.92-3.97c0.33-0.61,1.01-0.66,1.53-0.34c0.64,0.399,0.93,1.08,0.89,1.869
					c-0.04,0.641-0.77,1.091-0.48,1.931c4.12-0.07,8.26-0.34,12.32-1.19c2.82-0.58,5.35-3.43,5.35-5.729
					c-0.31,0.109-0.61,0.229-0.88,0.38l-1.48-2.561c1.76-0.25,3.29-2.409,5.04-0.54c1.94,2.07,1.21,4.44,0.23,6.9
					C151.543,88.182,152.953,88.182,154.363,88.172z M84.853,90.412c0.7,0.22,0.87-0.28,0.86-0.86c0.05-0.82-0.31-1.29-1.14-1.16
					c-0.53,0.08-1.38,0.061-1.34,0.79C83.293,90.012,84.193,90.202,84.853,90.412z M60.263,87.892c1.18-1.31,1.06-2.53,1.04-3.71
					c-0.01-0.52,0.07-1.29-0.88-1.07c-0.62,0.141-1.05,0.471-0.9,1.21C59.753,85.412,59.973,86.502,60.263,87.892z M56.973,93.182
					c0.85,0.04,0.85-0.56,0.85-1.17c-0.01-0.75-0.16-1.28-1.1-1.16c-1.58,0.2-3.17,0.29-4.74,0.54c-2.76,0.43-5.53,0.84-8.44,1.89
					c0.45,0.381,0.55,0.53,0.65,0.54C48.473,94.142,52.693,92.972,56.973,93.182z M55.653,88.031c0.87-0.06,1.39-0.449,1.17-1.399
					c-1.05-4.391-2.06-8.79-5.74-11.9c-0.97-0.83-1.86-1.319-3.24-0.33c-1.58,1.15-3.56,1.551-5.57,1.58
					c-2.29,0.03-4.3,2.03-4.54,4.37c-0.1,0.93,0.04,1.521,1.12,1.68c1.12,0.16,1.82,0.851,1.91,2.04
					c0.04,0.641,0.33,0.96,0.94,1.271c2.26,1.14,2.55,2.05,1.5,4.84C47.523,89.292,51.533,88.342,55.653,88.031z M49.023,67.731
					c0-3.04-0.63-3.92-2.83-4.42c-2.8-0.649-7.27,1.22-8.74,3.65c-1.09,1.79-0.84,3.819,0.81,5.08c2.38,1.819,4.95,1.42,7.53,0.37
					C48.123,71.452,48.963,69.602,49.023,67.731z M39.193,89.922c0.83-0.141,2.07-0.32,1.76-1.44s-1.4-0.55-2.21-0.31
					c-2.02,0.59-3.98,1.3-5.86,2.26c-1.16,0.59-2.57,0.22-3-0.92c-0.43-1.15,0.86-1.61,1.82-1.95c1.5-0.53,3.02-1,4.49-1.6
					c0.53-0.21,1.55-0.24,1.31-1.13c-0.25-0.98-1.24-0.62-1.86-0.471c-1.9,0.44-3.78,1-5.65,1.57c-0.71,0.22-1.38,0.59-1.9-0.29
					s-1.26-0.5-1.92-0.28c-0.73,0.24-0.84,0.891-0.87,1.591c-0.12,2.92,0.87,5.55,2.08,8.119c0.2,0.44,0.63,0.9,0.93,0.431
					c0.97-1.521,2.58-0.53,4.06-1.28c-1.32-1.1-1.25-1.74,0.35-2.48C34.813,90.802,36.973,90.321,39.193,89.922z"/>
				<path fill="#FFFFFF" d="M146.223,84.382c0.27-0.15,0.57-0.271,0.88-0.38c0,2.3-2.53,5.149-5.35,5.729
					c-4.06,0.851-8.2,1.12-12.32,1.19c-0.29-0.84,0.44-1.29,0.48-1.931c0.04-0.789-0.25-1.47-0.89-1.869
					c-0.52-0.32-1.2-0.271-1.53,0.34c-1.97,3.609-5.67,3.279-8.92,3.97c-0.71,0.15-1.45,0.08-2.17,0.19
					c-1.13,0.18-2.01,0.279-1.73-1.4c0.14-0.82-0.22-1.65-1.43-1.21c-0.65,0.24-1.16,0.11-1.26-0.69
					c-0.07-0.63-0.24-1.229-0.98-1.17c-0.83,0.061-1.18,0.74-1.43,1.46c-0.36,1.051,0.09,1.99,0.53,3.13
					c-5.33,0.061-10.45,0.66-15.6,0.24c-0.72-0.06-1.45-0.05-2.17-0.14c-1.04-0.14-2.55,0.61-3.03-0.39
					c-0.6-1.25-0.63-2.82-0.5-4.29c0.11-1.08,1.02-1.12,1.72-1.4c3.23-1.31,6.64-2.19,9.7-3.9c0.64,0.08,1.13-0.64,1.84-0.35
					c-0.55,0.99-0.77,1.979,0.12,2.81c1.05,0.971,2.37,1,3.69,0.681c1.12-0.28,1.85-1.12,1.76-2.21c-0.1-1.29-1.25-0.511-1.91-0.59
					c-1.59-0.181-2.29-1.04-1.67-2.261c5.12-3.109,8.26-7.56,9.19-13.529c0.1-0.671-0.09-1.66,0.92-1.66c0.87,0,0.7,0.89,0.85,1.51
					c0.71,3.05,1.53,5.95,4.17,8.12c4.22,3.49,8.6,6.7,13.54,9.12c1.34,0.66,2.69,1.06,4.18,0.399c1.33-0.6,1.62-1.67,1.14-2.88
					c-0.55-1.39-1.38-0.43-2.11-0.08c-0.55,0.261-1.09,0.311-1.67,0.03c-5.8-2.81-11-6.43-15.84-11.39c2.09-0.07,3.67,0.1,5.16,0.88
					c4.17,2.21,8.35,4.43,12.54,6.62c3.16,1.649,4.05,4.77,5.13,7.77c0.15,0.4,0.02,0.92,0.23,1.271c0.39,0.64,0.12,1.85,1.17,1.88
					c0.94,0.02,1.45-0.74,1.79-1.65C144.783,85.472,145.403,84.832,146.223,84.382z M123.973,83.582c0.25-0.67,0.19-1.32-0.22-1.87
					c-0.63-0.88-1.29-0.15-1.93,0.06c-0.5,0.16-0.99,0.26-1.46-0.06c-0.87-0.601-1.63-0.69-2.05,0.49
					c-0.42,1.14,0.04,1.829,1.16,2.13c0.69,0.189,1.41,0.31,1.69,0.38c0.59,0,0.74,0,0.88,0
					C122.893,84.682,123.633,84.491,123.973,83.582z"/>
				<path fill="#FFC881" d="M144.743,81.821l1.48,2.561c-0.82,0.45-1.44,1.09-1.78,1.97c-0.34,0.91-0.85,1.67-1.79,1.65
					c-1.05-0.03-0.78-1.24-1.17-1.88c-0.21-0.351-0.08-0.87-0.23-1.271c-1.08-3-1.97-6.12-5.13-7.77
					c-4.19-2.19-8.37-4.41-12.54-6.62c-1.49-0.78-3.07-0.95-5.16-0.88c4.84,4.96,10.04,8.58,15.84,11.39
					c0.58,0.28,1.12,0.23,1.67-0.03c0.73-0.35,1.56-1.31,2.11,0.08c0.48,1.21,0.19,2.28-1.14,2.88c-1.49,0.66-2.84,0.261-4.18-0.399
					c-4.94-2.42-9.32-5.63-13.54-9.12c-2.64-2.17-3.46-5.07-4.17-8.12c-0.15-0.62,0.02-1.51-0.85-1.51c-1.01,0-0.82,0.989-0.92,1.66
					c-0.93,5.97-4.07,10.42-9.19,13.529c-0.7-0.13-1.4-0.42-2.09-0.38c-0.34,0.021-0.65,0.061-0.93,0.15l-0.55-1.17
					c2.62-1.19,5.01-2.771,6.8-5.32c1.78-2.53,2.5-5.52,3.68-8.31c0.72-1.721,0.56-3.19-0.8-4.49c0.6-0.49,1.2-0.97,1.8-1.45
					c2.33-0.35,4.48-1.42,6.89-1.54c5.28-0.26,10.44-0.08,15.44,1.98c5.84,2.42,8.67,6.81,9.11,12.949
					C143.633,75.552,144.143,78.691,144.743,81.821z M139.823,75.252c0.57-0.25,0.53-0.57,0.47-0.83c-0.39-1.71-1.8-2.88-2.87-3.94
					c-1.98-1.95-4.58-3.25-6.9-4.85c-3.68-2.54-13.36-5.25-15.38-4.17c4.52,3.31,9.36,5.92,14.15,8.64
					C132.773,72.071,137.253,71.821,139.823,75.252z M138.903,68.252c-0.26-3.5-6.39-7.58-10.19-6.851
					C132.223,63.462,135.583,65.542,138.903,68.252z"/>
				<path fill="#FFFFFF" d="M140.293,74.422c0.06,0.26,0.1,0.58-0.47,0.83c-2.57-3.431-7.05-3.181-10.53-5.15
					c-4.79-2.72-9.63-5.33-14.15-8.64c2.02-1.08,11.7,1.63,15.38,4.17c2.32,1.6,4.92,2.899,6.9,4.85
					C138.493,71.542,139.903,72.712,140.293,74.422z"/>
				<path fill="#FFFFFF" d="M128.713,61.401c3.8-0.729,9.93,3.351,10.19,6.851C135.583,65.542,132.223,63.462,128.713,61.401z"/>
				<path fill="#FFC881" d="M123.753,81.712c0.41,0.55,0.47,1.2,0.22,1.87c-0.34,0.909-1.08,1.1-1.93,1.13c-0.14,0-0.29,0-0.88,0
					c-0.28-0.07-1-0.19-1.69-0.38c-1.12-0.301-1.58-0.99-1.16-2.13c0.42-1.181,1.18-1.091,2.05-0.49c0.47,0.319,0.96,0.22,1.46,0.06
					C122.463,81.562,123.123,80.832,123.753,81.712z"/>
				<path fill="#FFC881" d="M111.963,58.972c-0.6,0.48-1.2,0.96-1.8,1.45c-0.06-0.03-0.12-0.05-0.18-0.08c0-0.03,0-0.061,0-0.101
					C110.373,59.401,110.993,58.912,111.963,58.972z"/>
				<path fill="#FFC881" d="M111.963,58.972c-0.97-0.06-1.59,0.43-1.98,1.27c0,0.04,0,0.07,0,0.101c-1.36-0.62-2.8-1.75-3.64,0.75
					c-0.07,0.21-0.48,0.29-0.72,0.45c-1.82,1.18-3.74,2.21-5.41,3.56c-4.54,3.67-8.98,7.46-13.46,11.21c0-0.01,0-0.01,0-0.02
					c-1.65-1.721-2.44-1.71-4.01-0.07c-0.78,0.81-1.2,2-2.43,2.34c3.28-6.08,6.71-12.01,12.24-16.479
					c4.34-3.521,9.36-4.801,14.71-5.25C109.083,56.672,110.883,57.191,111.963,58.972z M88.633,70.602
					c4.85-2.75,8.41-7.28,13.43-9.82C95.983,61.821,92.183,66.042,88.633,70.602z"/>
				<path fill="#FFC881" d="M110.163,60.422c1.36,1.3,1.52,2.77,0.8,4.49c-1.18,2.79-1.9,5.779-3.68,8.31
					c-1.79,2.55-4.18,4.13-6.8,5.32c-1.63,0.739-3.34,1.33-5.04,1.93c-0.23,0.08-0.53-0.06-1.13-0.16
					c3.93-2.97,7.05-6.359,10.05-9.88c1.07-1.24,1.79-2.64,2.08-4.25c0.18-1.04-0.19-1.97-1.2-2.3c-1.01-0.33-1.22,0.689-1.66,1.33
					c-4.32,6.39-9.36,12.08-16.07,16.08c-0.73-0.37-1.9,0.38-2.57-0.11c0.79-0.06,1.7,0.04,2.43-0.32
					c4.51-3.08,8.76-6.46,12.02-10.92c1.28-1.76,2.79-3.35,3.95-5.21c0.2-0.33,0.45-0.66,0.74-0.88c0.37-0.29,0.82-0.399,1.4-0.149
					c0.95,0.399,1.43,1.229,1.41,2.26c-0.03,1.67-0.81,3.05-1.81,4.35c-2.66,3.45-5.95,6.3-8.85,9.26
					c8.3-1.89,12.48-7.779,14.44-15.77c0.32-1.311-0.63-2.23-0.68-3.38C110.043,60.422,110.103,60.422,110.163,60.422z"/>
				<path fill="#FFFFFF" d="M109.993,60.422c0.05,1.149,1,2.069,0.68,3.38c-1.96,7.99-6.14,13.88-14.44,15.77
					c2.9-2.96,6.19-5.81,8.85-9.26c1-1.3,1.78-2.68,1.81-4.35c0.02-1.03-0.46-1.86-1.41-2.26c-0.58-0.25-1.03-0.141-1.4,0.149
					l-0.4-0.56c0.8-0.59,1.62-1.15,2.46-1.7C107.513,60.712,108.623,60.472,109.993,60.422z"/>
				<path fill="#FFC881" d="M110.163,60.422c-0.06,0-0.12,0-0.17,0c-0.01-0.021-0.01-0.05-0.01-0.08
					C110.043,60.372,110.103,60.392,110.163,60.422z"/>
				<path fill="#FFC881" d="M109.983,60.342c0,0.03,0,0.06,0.01,0.08c-1.37,0.05-2.48,0.29-3.85,1.17c-0.84,0.55-1.66,1.11-2.46,1.7
					c-5.24,3.8-9.89,8.31-15.05,12.189c-0.56,0.42-1.02,1.19-1.89,0.99c0-0.05,0.01-0.11,0.01-0.16c4.48-3.75,8.92-7.54,13.46-11.21
					c1.67-1.35,3.59-2.38,5.41-3.56c0.24-0.16,0.65-0.24,0.72-0.45C107.183,58.592,108.623,59.722,109.983,60.342z"/>
				<path fill="#FFC881" d="M107.633,82.792c0.09,1.09-0.64,1.93-1.76,2.21c-1.32,0.319-2.64,0.29-3.69-0.681
					c-0.89-0.83-0.67-1.819-0.12-2.81c-0.71-0.29-1.2,0.43-1.84,0.35c0.4-0.79,1.1-0.989,1.83-0.699c0.65,0.25,0.22,0.88,0.24,1.35
					c0.04,1.57,1.44,2.47,3.07,1.97c0.57-0.17,1.2-0.42,1.27-1.05c0.11-0.92-0.76-0.68-1.25-0.81c-0.74-0.17-1.36-0.49-1.84-1.08
					c-0.66-0.811-0.33-1.28,0.51-1.601c-0.62,1.221,0.08,2.08,1.67,2.261C106.383,82.281,107.533,81.502,107.633,82.792z"/>
				<path fill="#FFC881" d="M105.383,82.622c0.49,0.13,1.36-0.11,1.25,0.81c-0.07,0.63-0.7,0.88-1.27,1.05
					c-1.63,0.5-3.03-0.399-3.07-1.97c-0.02-0.47,0.41-1.1-0.24-1.35c-0.73-0.29-1.43-0.091-1.83,0.699
					c-0.49-1.279-0.03-1.89,0.81-2.149c0.28-0.09,0.59-0.13,0.93-0.15c0.69-0.04,1.39,0.25,2.09,0.38
					c-0.84,0.32-1.17,0.79-0.51,1.601C104.023,82.132,104.643,82.452,105.383,82.622z"/>
				<path fill="#FFFFFF" d="M103.683,63.292l0.4,0.56c-0.29,0.22-0.54,0.55-0.74,0.88c-1.16,1.86-2.67,3.45-3.95,5.21
					c-3.26,4.46-7.51,7.84-12.02,10.92c-0.73,0.36-1.64,0.261-2.43,0.32c-0.19-0.14-0.33-0.36-0.42-0.72
					c0.03-0.08,0.06-0.16,0.09-0.25c0.06-0.19,0.09-0.38,0.09-0.58c-0.01-0.03-0.02-0.061-0.03-0.09c0.43-0.36,0.79-0.761,0.94-1.29
					c0.16-0.09,0.3-0.19,0.39-0.33c0.36-0.431,0.68-0.88,0.74-1.45c0.87,0.2,1.33-0.57,1.89-0.99
					C93.793,71.602,98.443,67.092,103.683,63.292z"/>
				<path fill="#FFFFFF" d="M102.063,60.781c-5.02,2.54-8.58,7.07-13.43,9.82C92.183,66.042,95.983,61.821,102.063,60.781z"/>
				<path fill="#FFC881" d="M84.943,81.182c0.67,0.49,1.84-0.26,2.57,0.11c-0.75,0.38-1.56,0.18-2.33,0.17
					c-0.38,0-0.64-0.07-0.8-0.21C84.563,81.212,84.753,81.191,84.943,81.182z"/>
				<path fill="#FFC881" d="M86.753,76.292c0,0.01,0,0.01,0,0.02c-0.05,0.04-0.1,0.08-0.15,0.12c-2.5-1.89-2.33-1.2-4.56,1.53
					c-0.61,0.74-0.85,1.189-1.73,0.6c1.23-0.34,1.65-1.53,2.43-2.34C84.313,74.582,85.103,74.571,86.753,76.292z"/>
				<path fill="#FFC881" d="M86.753,76.312c0,0.05-0.01,0.11-0.01,0.16c-0.05-0.01-0.09-0.02-0.14-0.04
					C86.653,76.392,86.703,76.352,86.753,76.312z"/>
				<path fill="#FFC881" d="M86.603,76.432c0.05,0.021,0.09,0.03,0.14,0.04c-0.06,0.57-0.38,1.02-0.74,1.45
					c-0.09,0.14-0.23,0.24-0.39,0.33c0.05-0.15,0.08-0.3,0.09-0.471C86.003,77.332,86.303,76.892,86.603,76.432z"/>
				<path fill="#FFC881" d="M85.183,81.462c0.77,0.01,1.58,0.21,2.33-0.17c-0.55,0.529-1.22,0.35-1.86,0.31
					c-1.13-0.06-2.06,0.16-2.19,1.51c-0.06,0.511-0.24,0.86-0.78,0.811c-0.25-0.021-0.61-0.16-0.7-0.36
					c-0.2-0.43,0.03-1.01,0.35-1.16c1.07-0.479,1.38-1.6,2.11-2.34c-0.21,0.38-0.29,0.71-0.21,0.95c-0.1,0.15-0.21,0.29-0.31,0.42
					c-0.26,0.14-0.48,0.38-0.62,0.74c0.14-0.19,0.38-0.44,0.62-0.74c0.14-0.08,0.3-0.14,0.46-0.18
					C84.543,81.392,84.803,81.462,85.183,81.462z"/>
				<path fill="#FFC881" d="M85.713,89.552c0.01,0.58-0.16,1.08-0.86,0.86c-0.66-0.21-1.56-0.4-1.62-1.23
					c-0.04-0.729,0.81-0.71,1.34-0.79C85.403,88.262,85.763,88.731,85.713,89.552z"/>
				<path fill="#FFC881" d="M85.673,77.832c0.01-0.021,0.02-0.04,0.03-0.051c-0.01,0.171-0.04,0.32-0.09,0.471
					c-0.16,0.1-0.34,0.17-0.51,0.27C85.323,78.302,85.543,78.092,85.673,77.832z"/>
				<path fill="#FFC881" d="M85.103,78.521c0.17-0.1,0.35-0.17,0.51-0.27c-0.15,0.529-0.51,0.93-0.94,1.29
					c-0.05-0.181-0.06-0.32-0.03-0.44C84.753,78.882,84.923,78.702,85.103,78.521z"/>
				<path fill="#FFC881" d="M85.673,77.832c-0.13,0.26-0.35,0.47-0.57,0.689c-0.23,0.141-0.42,0.3-0.46,0.58
					c-0.1,0.17-0.15,0.36-0.14,0.58C82.893,77.802,85.263,78.432,85.673,77.832z"/>
				<path fill="#FFC881" d="M84.643,79.102c0.04-0.28,0.23-0.439,0.46-0.58C84.923,78.702,84.753,78.882,84.643,79.102z"/>
				<path fill="#FFC881" d="M84.673,79.542c0.01,0.029,0.02,0.06,0.03,0.09c0,0.2-0.03,0.39-0.09,0.58
					c-0.03,0.09-0.06,0.17-0.09,0.25c-0.03-0.12-0.06-0.26-0.08-0.4c0.03-0.13,0.04-0.25,0.06-0.38
					C84.553,79.642,84.613,79.592,84.673,79.542z"/>
				<path fill="#FFC881" d="M84.673,79.542c-0.06,0.05-0.12,0.1-0.17,0.14c-0.01-0.22,0.04-0.41,0.14-0.58
					C84.613,79.222,84.623,79.361,84.673,79.542z"/>
				<path fill="#FFC881" d="M84.943,81.182c-0.19,0.01-0.38,0.03-0.56,0.07c-0.08-0.07-0.12-0.141-0.15-0.24
					c0.1-0.17,0.21-0.35,0.29-0.55C84.613,80.821,84.753,81.042,84.943,81.182z"/>
				<path fill="#FFC881" d="M84.443,80.062c0.02,0.141,0.05,0.28,0.08,0.4c-0.08,0.2-0.19,0.38-0.29,0.55
					C84.153,80.771,84.233,80.441,84.443,80.062z"/>
				<path fill="#FFC881" d="M84.383,81.252c-0.16,0.04-0.32,0.1-0.46,0.18c0.1-0.13,0.21-0.27,0.31-0.42
					C84.263,81.111,84.303,81.182,84.383,81.252z"/>
				<path fill="#FFC881" d="M83.303,82.172c0.14-0.36,0.36-0.601,0.62-0.74C83.683,81.731,83.443,81.981,83.303,82.172z"/>
				<path fill="#FFC881" d="M70.293,58.162c0.03,0.27,0.02,0.79-0.57,1.029c-0.49,0.221-1.01,0.19-1.45-0.13
					c-0.79-0.59-1.3-1.37-1.3-2.399c0.01-2.471-1.27-4.301-3.11-5.71c-2.17-1.681-4.35-3.391-7.04-4.24
					c-0.68-0.221-1.34-0.57-1.93-0.96c-0.66-0.44-0.93-1.15-0.62-1.92c0.35-0.88,1.22-0.92,1.85-0.641
					c5.39,2.44,10.61,5.141,13.27,10.91c0.27,0.59,0.43,1.23,0.58,1.87C70.113,56.611,70.173,57.262,70.293,58.162z"/>
				<path fill="#FFC881" d="M63.933,60.762c0.15,0.4,0.17,0.85,0.23,1.1c0,0.69,0,1.25-0.53,1.511c-0.59,0.279-1.17,0.09-1.58-0.37
					c-0.38-0.431-0.85-0.9-0.96-1.42c-0.93-4.101-3.99-6.2-7.38-8.021c-0.96-0.52-2.56-0.96-1.85-2.359
					c0.67-1.301,2.11-0.53,3.11-0.051C59.183,53.182,62.293,56.302,63.933,60.762z"/>
				<path fill="#FFFFFF" d="M61.303,84.182c0.02,1.18,0.14,2.4-1.04,3.71c-0.29-1.39-0.51-2.479-0.74-3.57
					c-0.15-0.739,0.28-1.069,0.9-1.21C61.373,82.892,61.293,83.662,61.303,84.182z"/>
				<path fill="#FFC881" d="M57.823,62.082c0.04,0.449,0.02,0.92-0.46,1.12c-0.58,0.26-1.22,0.17-1.59-0.33
					c-1.27-1.69-2.67-3.141-4.78-3.82c-0.68-0.22-0.95-1.1-0.73-1.88c0.16-0.561,0.67-0.71,1.2-0.78
					C53.743,56.122,57.803,59.762,57.823,62.082z"/>
				<path fill="#FFFFFF" d="M57.823,92.012c0,0.61,0,1.21-0.85,1.17c-4.28-0.21-8.5,0.96-12.78,0.64c-0.1-0.01-0.2-0.159-0.65-0.54
					c2.91-1.05,5.68-1.46,8.44-1.89c1.57-0.25,3.16-0.34,4.74-0.54C57.663,90.731,57.813,91.262,57.823,92.012z"/>
				<path fill="#FFFFFF" d="M56.823,86.632c0.22,0.95-0.3,1.34-1.17,1.399c-4.12,0.311-8.13,1.261-12.45,2.15
					c1.05-2.79,0.76-3.7-1.5-4.84c-0.61-0.311-0.9-0.63-0.94-1.271c-0.09-1.189-0.79-1.88-1.91-2.04
					c-1.08-0.159-1.22-0.75-1.12-1.68c0.24-2.34,2.25-4.34,4.54-4.37c2.01-0.029,3.99-0.43,5.57-1.58c1.38-0.989,2.27-0.5,3.24,0.33
					C54.763,77.842,55.773,82.241,56.823,86.632z M47.753,86.622c0.66-0.221,1.91-0.12,1.8-1.24c-0.1-0.98-0.57-2.21-2.01-2.09
					c-0.96,0.09-2.02,0.439-1.98,1.59C45.593,86.002,46.433,86.632,47.753,86.622z"/>
				<path fill="#FFC881" d="M49.553,85.382c0.11,1.12-1.14,1.02-1.8,1.24c-1.32,0.01-2.16-0.62-2.19-1.74
					c-0.04-1.15,1.02-1.5,1.98-1.59C48.983,83.172,49.453,84.401,49.553,85.382z"/>
				<path fill="#FFFFFF" d="M46.193,63.312c2.2,0.5,2.83,1.38,2.83,4.42c-0.06,1.87-0.9,3.721-3.23,4.681
					c-2.58,1.05-5.15,1.449-7.53-0.37c-1.65-1.261-1.9-3.29-0.81-5.08C38.923,64.531,43.393,62.662,46.193,63.312z M45.073,66.611
					c0.03-0.649-0.27-1.189-0.94-1.199c-0.81-0.011-1.56,0.42-1.63,1.3c-0.06,0.7,0.54,1.109,1.28,1.3
					C44.493,67.852,45.023,67.452,45.073,66.611z M41.643,67.872c0.08-0.891-0.3-1.45-1.02-1.48c-0.84-0.03-1.57,0.49-1.58,1.37
					c-0.01,0.8,0.7,1.22,1.48,1.24C41.343,69.031,41.623,68.472,41.643,67.872z"/>
				<path fill="#FFC881" d="M44.133,65.412c0.67,0.01,0.97,0.55,0.94,1.199c-0.05,0.841-0.58,1.24-1.29,1.4
					c-0.74-0.19-1.34-0.6-1.28-1.3C42.573,65.832,43.323,65.401,44.133,65.412z"/>
				<path fill="#FFC881" d="M40.623,66.392c0.72,0.03,1.1,0.59,1.02,1.48c-0.02,0.6-0.3,1.159-1.12,1.13
					c-0.78-0.021-1.49-0.44-1.48-1.24C39.053,66.882,39.783,66.361,40.623,66.392z"/>
				<path fill="#FFFFFF" d="M40.953,88.481c0.31,1.12-0.93,1.3-1.76,1.44c-2.22,0.399-4.38,0.88-6.47,1.819
					c-1.6,0.74-1.67,1.381-0.35,2.48c-1.48,0.75-3.09-0.24-4.06,1.28c-0.3,0.47-0.73,0.01-0.93-0.431
					c-1.21-2.569-2.2-5.199-2.08-8.119c0.03-0.7,0.14-1.351,0.87-1.591c0.66-0.22,1.4-0.6,1.92,0.28s1.19,0.51,1.9,0.29
					c1.87-0.57,3.75-1.13,5.65-1.57c0.62-0.149,1.61-0.51,1.86,0.471c0.24,0.89-0.78,0.92-1.31,1.13c-1.47,0.6-2.99,1.069-4.49,1.6
					c-0.96,0.34-2.25,0.8-1.82,1.95c0.43,1.14,1.84,1.51,3,0.92c1.88-0.96,3.84-1.67,5.86-2.26
					C39.553,87.932,40.643,87.361,40.953,88.481z"/>
			</g>
		</g>
	</g>
</g>
</svg>
