<?xml version="1.0" encoding="utf-8"?>
<!-- Generator: Adobe Illustrator 16.0.0, SVG Export Plug-In . SVG Version: 6.00 Build 0)  -->
<!DOCTYPE svg PUBLIC "-//W3C//DTD SVG 1.1//EN" "http://www.w3.org/Graphics/SVG/1.1/DTD/svg11.dtd">
<svg version="1.1" id="Layer_1" xmlns="http://www.w3.org/2000/svg" xmlns:xlink="http://www.w3.org/1999/xlink" x="0px" y="0px"
	 width="220px" height="160px" viewBox="0 0 220 160" enable-background="new 0 0 220 160" xml:space="preserve">
<g>
	<path fill-rule="evenodd" clip-rule="evenodd" fill="#27A3CB" d="M144.643,91.151c-3.015,5.529-7.914,9.504-11.892,14.234
		c-3.288,3.909-7.183,7.305-10.742,10.992c-1.869,1.937-4.171,3.285-6.301,4.854c-2.248,1.657-5.119,0.267-5.536-2.491
		c-0.566-3.744,0.294-7.429,0.502-11.14c0.175-3.124-0.219-3.554-3.367-3.497c-2.125,0.038-4.202,0.515-6.34,0.595
		c-3.796,0.141-5.637-1.463-5.843-5.283c-0.296-5.503-0.639-10.997,0.164-16.687c-0.668-6.924,0.631-13.962,0.847-21.048
		c0.076-2.476,0.818-4.9,0.614-7.422c-0.128-1.591,1.068-1.66,2.198-1.459c2.907,0.52,5.843,0.363,8.768,0.501
		c1.934,0.091,2.488-0.844,2.484-2.567c-0.007-2.854-0.155-5.689-0.568-8.517c-0.174-1.194-0.208-3.256,0.23-3.46
		c1.617-0.752,3.981-1.31,5.493,0.568c2.692,3.344,6.223,5.778,9.184,8.842c6.806,7.044,11.293,15.592,16.277,23.851
		c2.609,4.323,7.305,10.248,6.971,13.367 M114.622,119.003c1.131-0.967,5.629-4.705,7.1-6.272c5.54-5.159,9.146-8.992,14.268-14.544
		c3.687-3.995,5.718-7.682,7.651-11.924c0.581-1.274,0.33-3.254-0.138-4.549c-1.666-4.614-4.942-8.256-7.306-12.475
		c-4.256-7.597-14.77-20.46-13.046-18.583c-2.421-2.638-8.941-10.021-10.526-10.159c-1.278,0.658-1.162,4.596-0.758,9.994
		c0.317,4.008-0.24,5.271-2.062,5.315c-2.549-0.426-6.261,0.305-8.765,0.161c-1.046-0.06-1.848,0.376-1.924,1.482
		c-0.212,3.091-0.78,6.004-0.896,9.098c-0.182,4.84-0.378,9.639-0.621,14.475c-0.304,6.089-0.282,11.922,0.138,17.99
		c0.108,1.557-0.344,4.204,4.005,3.445c4.679,0.207,5.616-0.577,9.502-0.773c1.956-0.099,3.196,0.975,3.104,3.119
		C114.187,108.478,112.579,119.359,114.622,119.003z"/>
	<path fill-rule="evenodd" clip-rule="evenodd" fill="#27A3CB" d="M79.664,52.237c1.86-0.114,3.719-0.271,5.581-0.333
		c2.434-0.079,3.906,1.23,4.338,3.655c1.504,8.44,1.597,16.879,0.891,25.441c-0.53,6.435-1.038,12.955-0.279,19.438
		c0.259,2.207-0.818,3.902-2.683,3.854c-3.934-0.102-7.968,0.183-11.795-1.179c-1.834-0.653-2.626-1.871-2.438-3.896
		c0.877-9.406,0.499-18.828,0.387-28.255c-0.063-5.33-1.403-10.493-1.469-15.812c-0.029-2.336,0.983-2.969,2.928-3.006
		c1.512-0.029,3.024-0.006,4.538-0.006C79.663,52.173,79.663,52.205,79.664,52.237z M76.333,90.225c0,3.03,0.229,5.517-0.517,8.479
		c-0.873,3.463,6.657,3.025,8.856,3.398c3.744,0.639,2.844-1.053,2.93-2.262c0.618-8.657,0.752-16.84,0.931-26.984
		c0.098-5.59,0.312-6.212,0-13.75c-0.381-1.007-1.039-4.605-3.051-4.923c-3.231-0.51-6.559,0.169-9.529,0.794
		c-2.415,0.509-1.178,2.247-1.054,3.437C75.995,69.028,76.936,79.564,76.333,90.225z"/>
</g>
</svg>
