<?xml version="1.0" encoding="utf-8"?>
<!-- Generator: Adobe Illustrator 16.0.0, SVG Export Plug-In . SVG Version: 6.00 Build 0)  -->
<!DOCTYPE svg PUBLIC "-//W3C//DTD SVG 1.1//EN" "http://www.w3.org/Graphics/SVG/1.1/DTD/svg11.dtd">
<svg version="1.1" id="Calque_1" xmlns="http://www.w3.org/2000/svg" xmlns:xlink="http://www.w3.org/1999/xlink" x="0px" y="0px"
	 width="44px" height="44px" viewBox="0 0 44 44" enable-background="new 0 0 44 44" xml:space="preserve">
<path d="M41.641,10.613c-1.373,0.61-2.854,1.023-4.406,1.208c1.584-0.949,2.801-2.452,3.373-4.242
	c-1.481,0.878-3.123,1.516-4.869,1.861c-1.398-1.49-3.391-2.422-5.6-2.422c-4.234,0-7.666,3.434-7.666,7.668
	c0,0.601,0.067,1.186,0.198,1.749c-6.374-0.321-12.025-3.374-15.807-8.014c-0.66,1.133-1.039,2.45-1.039,3.855
	c0,2.66,1.354,5.008,3.412,6.383c-1.258-0.04-2.44-0.385-3.474-0.958c-0.001,0.031-0.001,0.064-0.001,0.095
	c0,3.717,2.644,6.815,6.152,7.521c-0.644,0.175-1.321,0.27-2.021,0.27c-0.495,0-0.974-0.049-1.443-0.139
	c0.977,3.049,3.808,5.266,7.164,5.324c-2.625,2.059-5.931,3.283-9.524,3.283c-0.62,0-1.229-0.037-1.829-0.106
	c3.394,2.177,7.424,3.444,11.755,3.444c14.106,0,21.82-11.685,21.82-21.817c0-0.332-0.009-0.662-0.021-0.991
	C39.312,13.501,40.611,12.152,41.641,10.613z"/>
</svg>
