<?xml version="1.0" encoding="utf-8"?>
<!-- Generator: Adobe Illustrator 16.0.0, SVG Export Plug-In . SVG Version: 6.00 Build 0)  -->
<!DOCTYPE svg PUBLIC "-//W3C//DTD SVG 1.1//EN" "http://www.w3.org/Graphics/SVG/1.1/DTD/svg11.dtd">
<svg version="1.1" id="Calque_1" xmlns="http://www.w3.org/2000/svg" xmlns:xlink="http://www.w3.org/1999/xlink" x="0px" y="0px"
	 width="44px" height="44px" viewBox="0 0 44 44" enable-background="new 0 0 44 44" xml:space="preserve">
<path d="M31.284,5.13H12.72c-4.085,0-7.408,3.322-7.408,7.407v18.564c0,4.082,3.323,7.404,7.408,7.404h18.564
	c4.082,0,7.403-3.322,7.403-7.404V12.537C38.689,8.452,35.366,5.13,31.284,5.13z M30.466,7.679c1.661,0,3.009,1.349,3.009,3.008
	s-1.35,3.012-3.009,3.012c-1.657,0-3.008-1.35-3.008-3.012C27.459,9.026,28.811,7.679,30.466,7.679z M28.427,23.208
	c0,3.549-2.877,6.427-6.427,6.427c-3.549,0-6.426-2.878-6.426-6.427s2.877-6.427,6.426-6.427
	C25.55,16.781,28.427,19.659,28.427,23.208z M35.891,30.7c0,2.993-2.438,5.429-5.431,5.429H13.542c-2.997,0-5.43-2.436-5.43-5.429
	V16.216h7.851c-1.961,1.695-3.208,4.196-3.208,6.992c0,5.104,4.14,9.245,9.245,9.245c5.105,0,9.245-4.141,9.245-9.245
	c0-2.796-1.246-5.296-3.208-6.992h7.854V30.7z"/>
</svg>
