<?xml version="1.0" encoding="utf-8"?>
<!-- Generator: Adobe Illustrator 16.0.0, SVG Export Plug-In . SVG Version: 6.00 Build 0)  -->
<!DOCTYPE svg PUBLIC "-//W3C//DTD SVG 1.1//EN" "http://www.w3.org/Graphics/SVG/1.1/DTD/svg11.dtd">
<svg version="1.1" id="Calque_1" xmlns="http://www.w3.org/2000/svg" xmlns:xlink="http://www.w3.org/1999/xlink" x="0px" y="0px"
	 width="32px" height="32px" viewBox="0 0 32 32" enable-background="new 0 0 32 32" xml:space="preserve">
<path fill="#010202" d="M22.623,4.458H9.931c-2.793,0-5.065,2.271-5.065,5.064v12.692c0,2.792,2.272,5.063,5.065,5.063h12.692
	c2.792,0,5.063-2.271,5.063-5.063V9.522C27.687,6.729,25.415,4.458,22.623,4.458z M9.931,5.449h12.692
	c2.247,0,4.074,1.828,4.074,4.074v1.42h-7.456c-0.902-0.423-1.905-0.666-2.966-0.666s-2.062,0.243-2.965,0.666H5.856v-1.42
	C5.856,7.276,7.684,5.449,9.931,5.449z M16.275,11.267c3.326,0,6.032,2.707,6.032,6.032s-2.706,6.032-6.032,6.032
	c-3.323,0-6.032-2.707-6.032-6.032S12.952,11.267,16.275,11.267z M22.623,26.289H9.931c-2.248,0-4.074-1.827-4.074-4.073V11.933h5.9
	c-1.528,1.29-2.503,3.215-2.503,5.367c0,3.872,3.151,7.021,7.022,7.021c3.872,0,7.023-3.149,7.023-7.021
	c0-2.151-0.975-4.077-2.504-5.367h5.902v10.283C26.697,24.462,24.869,26.289,22.623,26.289z"/>
<path fill="#010202" d="M16.275,22.411c2.82,0,5.113-2.292,5.113-5.112c0-2.818-2.293-5.11-5.113-5.11
	c-2.817,0-5.11,2.292-5.11,5.11C11.165,20.118,13.458,22.411,16.275,22.411z M16.275,13.178c2.274,0,4.122,1.85,4.122,4.122
	c0,2.272-1.848,4.121-4.122,4.121c-2.271,0-4.121-1.849-4.121-4.121C12.154,15.028,14.004,13.178,16.275,13.178z"/>
<path fill="#010202" d="M22.065,10.566c1.272,0,2.307-1.036,2.307-2.309c0-1.272-1.034-2.307-2.307-2.307
	c-1.271,0-2.307,1.035-2.307,2.307C19.759,9.531,20.794,10.566,22.065,10.566z M22.065,6.941c0.727,0,1.318,0.591,1.318,1.317
	c0,0.728-0.592,1.318-1.318,1.318c-0.726,0-1.316-0.591-1.316-1.318C20.749,7.532,21.34,6.941,22.065,6.941z"/>
</svg>
