<?xml version="1.0" encoding="utf-8"?>
<!-- Generator: Adobe Illustrator 16.0.0, SVG Export Plug-In . SVG Version: 6.00 Build 0)  -->
<!DOCTYPE svg PUBLIC "-//W3C//DTD SVG 1.1//EN" "http://www.w3.org/Graphics/SVG/1.1/DTD/svg11.dtd">
<svg version="1.1" id="Calque_1" xmlns="http://www.w3.org/2000/svg" xmlns:xlink="http://www.w3.org/1999/xlink" x="0px" y="0px"
	 width="32px" height="32px" viewBox="0 0 32 32" enable-background="new 0 0 32 32" xml:space="preserve">
<path fill="#010202" d="M18.768,11.028l-0.002-2.364c0,0-0.065-0.385,0.151-0.643c0.159-0.189,0.446-0.285,0.854-0.285h3.061V2.395
	l-4.039,0.002c0,0-0.199-0.026-0.527-0.026c-1.277,0-5.438,0.423-5.438,5.858v2.798h-2.778v5.195h2.778v13.143h5.901l0.027-13.142
	h3.65l0.461-5.195H18.768z M21.736,15.492h-3.711L18,28.635h-4.442h0V15.491h-2.778v-3.735h2.778V8.229
	c0-2.035,0.627-3.492,1.868-4.332c1.023-0.692,2.219-0.795,2.839-0.795c0.265,0,0.43,0.019,0.483,0.022h3.354v3.882h-2.33
	c-0.641,0-1.118,0.187-1.422,0.554c-0.426,0.519-0.314,1.172-0.307,1.175l-0.008,3.023h4.033L21.736,15.492z"/>
</svg>
