<?xml version="1.0" encoding="utf-8"?>
<!-- Generator: Adobe Illustrator 16.0.0, SVG Export Plug-In . SVG Version: 6.00 Build 0)  -->
<!DOCTYPE svg PUBLIC "-//W3C//DTD SVG 1.1//EN" "http://www.w3.org/Graphics/SVG/1.1/DTD/svg11.dtd">
<svg version="1.1" id="Calque_1" xmlns="http://www.w3.org/2000/svg" xmlns:xlink="http://www.w3.org/1999/xlink" x="0px" y="0px"
	 width="44px" height="44px" viewBox="0 0 44 44" enable-background="new 0 0 44 44" xml:space="preserve">
<path d="M24.382,39.5h-7.141V21.799H13.5v-6.146h3.526v-4.32c0-2.983,0.948-5.137,2.818-6.403c1.529-1.034,3.293-1.189,4.208-1.189
	c0.314,0,0.539,0.018,0.646,0.027c0.012,0.001,0.02,0.002,0.026,0.002h5.182v6.603h-3.825c-0.646,0-1.11,0.167-1.386,0.497
	c-0.184,0.224-0.25,0.485-0.271,0.684l0.019,0.007l-0.01,3.835h5.491L29.357,21.8h-4.94l-0.034,17.697L24.382,39.5L24.382,39.5z
	 M18.615,38.125h4.394l0.033-17.699h5.056l0.323-3.653h-5.369l0.013-4.706c-0.041-0.309-0.101-1.253,0.569-2.071
	C24.184,9.333,25.005,9,26.08,9h2.449V5.147l-3.867-0.001c-0.02-0.001-0.044-0.003-0.077-0.006
	c-0.097-0.008-0.276-0.023-0.533-0.023c-0.758,0-2.213,0.124-3.438,0.952C19.146,7.063,18.4,8.834,18.4,11.333v5.695h-3.526v3.397
	h3.741V38.125L18.615,38.125z"/>
</svg>
