<?xml version="1.0" encoding="utf-8"?>
<!-- Generator: Adobe Illustrator 16.0.0, SVG Export Plug-In . SVG Version: 6.00 Build 0)  -->
<!DOCTYPE svg PUBLIC "-//W3C//DTD SVG 1.1//EN" "http://www.w3.org/Graphics/SVG/1.1/DTD/svg11.dtd">
<svg version="1.1" id="Calque_1" xmlns="http://www.w3.org/2000/svg" xmlns:xlink="http://www.w3.org/1999/xlink" x="0px" y="0px"
	 width="44px" height="44px" viewBox="0 0 44 44" enable-background="new 0 0 44 44" xml:space="preserve">
<path d="M37.977,9.818c0,0-4.162-0.826-15.542-0.826c-11.375,0-16.411,0.826-16.411,0.826c-1.83,0-3.31,1.483-3.31,3.312v17.562
	c0,1.83,1.479,3.312,3.31,3.312c0,0,5.037,0.826,16.411,0.826c11.375,0,15.542-0.826,15.542-0.826c1.828,0,3.311-1.48,3.311-3.312
	V13.13C41.286,11.301,39.805,9.818,37.977,9.818z M18.713,29.37V14.45l11.506,7.461L18.713,29.37L18.713,29.37z"/>
</svg>
