<?xml version="1.0" encoding="utf-8"?>
<!-- Generator: Adobe Illustrator 16.0.0, SVG Export Plug-In . SVG Version: 6.00 Build 0)  -->
<!DOCTYPE svg PUBLIC "-//W3C//DTD SVG 1.1//EN" "http://www.w3.org/Graphics/SVG/1.1/DTD/svg11.dtd">
<svg version="1.1" id="Calque_1" xmlns="http://www.w3.org/2000/svg" xmlns:xlink="http://www.w3.org/1999/xlink" x="0px" y="0px"
	 width="32px" height="32px" viewBox="0 0 32 32" enable-background="new 0 0 32 32" xml:space="preserve">
<path fill="#010202" d="M28.075,6.997c0,0-3.105-0.616-11.594-0.616c-8.487,0-12.245,0.616-12.245,0.616
	c-1.365,0-2.47,1.107-2.47,2.471v3.34v6.423v3.34c0,1.365,1.104,2.471,2.47,2.471c0,0,3.758,0.616,12.245,0.616
	c8.488,0,11.594-0.616,11.594-0.616c1.365,0,2.471-1.105,2.471-2.471v-3.34v-6.423v-3.34C30.546,8.104,29.44,6.997,28.075,6.997z
	 M13.704,21.585V10.453l8.584,5.567L13.704,21.585z"/>
</svg>
