<?xml version="1.0" encoding="utf-8"?>
<!-- Generator: Adobe Illustrator 16.0.0, SVG Export Plug-In . SVG Version: 6.00 Build 0)  -->
<!DOCTYPE svg PUBLIC "-//W3C//DTD SVG 1.1//EN" "http://www.w3.org/Graphics/SVG/1.1/DTD/svg11.dtd">
<svg version="1.1" id="Calque_1" xmlns="http://www.w3.org/2000/svg" xmlns:xlink="http://www.w3.org/1999/xlink" x="0px" y="0px"
	 width="32px" height="32px" viewBox="0 0 32 32" enable-background="new 0 0 32 32" xml:space="preserve">
<path fill="#010202" d="M20.996,2.818C12.074,0.142,6.747,4.575,4.947,8.292c-1.033,2.133-1.746,7.544,0.861,9.739
	c2.607,2.195,3.314,0.011,2.147-1.431s-1.914-7.374,2.157-9.473c4.869-2.509,9.512-1.888,11.544,1.155
	c2.077,3.112,2.486,10.802-2.409,11.292c-2.437,0.244-3.901,0.105-4.709-0.056c0.798-2.87,1.326-5.151,1.326-5.151
	s1.562-4.395-0.472-5.027c0,0-3.526-0.928-4.269,2.598c-0.742,3.528-0.371,9.095-1.114,12.062c-0.741,2.971-2.598,8.909,0,6.681
	c1.325-1.135,2.819-5.35,3.967-9.211c1.298,0.635,5.227,2.145,9.186-0.441C28.315,17.668,29.917,5.495,20.996,2.818z"/>
</svg>
