<?xml version="1.0" encoding="utf-8"?>
<!-- Generator: Adobe Illustrator 16.0.0, SVG Export Plug-In . SVG Version: 6.00 Build 0)  -->
<!DOCTYPE svg PUBLIC "-//W3C//DTD SVG 1.1//EN" "http://www.w3.org/Graphics/SVG/1.1/DTD/svg11.dtd">
<svg version="1.1" id="Calque_1" xmlns="http://www.w3.org/2000/svg" xmlns:xlink="http://www.w3.org/1999/xlink" x="0px" y="0px"
	 width="44px" height="44px" viewBox="0 0 44 44" enable-background="new 0 0 44 44" xml:space="preserve">
<path d="M16.189,37.693c-3.936,0-7.768-1.123-11.082-3.248l-2.548-1.633l3.006,0.354c0.522,0.062,1.055,0.093,1.584,0.093
	c2.433,0,4.756-0.638,6.807-1.856c-2.481-0.666-4.513-2.549-5.322-5.07l-0.358-1.119l1.135,0.219
	c-1.988-1.406-3.259-3.727-3.259-6.281c0-0.033,0-0.066,0-0.1l0.02-1.162l1.016,0.564c0.177,0.099,0.359,0.188,0.546,0.27
	c-0.978-1.31-1.525-2.916-1.525-4.6c0-1.358,0.36-2.694,1.041-3.862l0.507-0.87l0.636,0.78c3.243,3.977,7.949,6.489,13.021,6.977
	c-0.029-0.275-0.044-0.552-0.044-0.831c0-4.235,3.446-7.682,7.682-7.682c1.982,0,3.901,0.776,5.325,2.143
	c1.355-0.307,2.65-0.822,3.852-1.534l1.58-0.937l-0.561,1.749c-0.242,0.761-0.502,1.572-0.919,2.322
	c0.155-0.068,0.317-0.141,0.487-0.218c0.137-0.061,0.275-0.124,0.426-0.19l2.199-0.976l-1.338,2
	c-0.854,1.568-2.049,3.018-3.321,4.318c0.005,0.188,0.007,0.375,0.007,0.562c0,4.989-1.962,9.294-5.325,13.108
	C28.768,34.044,23.926,37.693,16.189,37.693z M8.323,34.609c2.462,1.108,5.138,1.688,7.866,1.688c7.215,0,11.721-3.396,14.229-6.237
	c3.145-3.565,4.979-7.531,4.979-12.188c0-0.29-0.008-0.583-0.021-0.872l-0.018-0.376l0.328-0.143
	c0.647-0.605,1.689-1.637,2.061-2.571c-0.4,0.14-0.945,0.293-1.562,0.417c-0.615,0.124-1.416,0.202-1.416,0.202
	s0.682-0.459,1.373-1.151c0.688-0.688,0.818-1.311,1.178-2.108c-0.973,0.425-1.988,0.744-3.036,0.95l-0.38,0.075l-0.266-0.282
	c-1.184-1.262-2.854-1.985-4.589-1.985c-3.467,0-6.288,2.82-6.288,6.287c0,0.488,0.057,0.969,0.163,1.433l0.211,0.901l-0.925-0.046
	c-5.432-0.272-10.546-2.71-14.193-6.731c-0.273,0.714-0.415,1.477-0.415,2.249c0,2.107,1.046,4.063,2.797,5.233l2.025,1.354
	L9.99,20.632c-0.804-0.025-1.603-0.18-2.36-0.453c0.423,2.535,2.378,4.616,4.958,5.135l2.894,0.58l-2.848,0.773
	c-0.725,0.198-1.478,0.288-2.238,0.268c1.057,1.988,3.125,3.291,5.438,3.334l1.961,0.037l-1.544,1.209
	C13.942,33.325,11.221,34.384,8.323,34.609z"/>
</svg>
