<?xml version="1.0" encoding="utf-8"?>
<!-- Generator: Adobe Illustrator 16.0.0, SVG Export Plug-In . SVG Version: 6.00 Build 0)  -->
<!DOCTYPE svg PUBLIC "-//W3C//DTD SVG 1.1//EN" "http://www.w3.org/Graphics/SVG/1.1/DTD/svg11.dtd">
<svg version="1.1" id="Calque_1" xmlns="http://www.w3.org/2000/svg" xmlns:xlink="http://www.w3.org/1999/xlink" x="0px" y="0px"
	 width="44px" height="44px" viewBox="0 0 44 44" enable-background="new 0 0 44 44" xml:space="preserve">
<path d="M28.24,5.534C17.096,2.191,10.441,7.729,8.193,12.372c-1.29,2.664-2.181,9.423,1.076,12.165s4.14,0.014,2.682-1.789
	c-1.458-1.8-2.391-9.211,2.694-11.833c6.082-3.134,11.88-2.358,14.419,1.443c2.594,3.887,3.105,13.494-3.008,14.105
	c-3.045,0.305-4.874,0.131-5.883-0.07c0.997-3.584,1.656-6.434,1.656-6.434s1.951-5.49-0.59-6.279c0,0-4.404-1.159-5.332,3.245
	c-0.927,4.407-0.463,11.361-1.392,15.067c-0.926,3.711-3.245,11.128,0,8.347c1.655-1.419,3.521-6.685,4.955-11.505
	c1.621,0.793,6.529,2.68,11.474-0.551c6.435-4.198,8.438-19.404-2.705-22.747V5.534z"/>
</svg>
