<?xml version="1.0" encoding="utf-8"?>
<!-- Generator: Adobe Illustrator 16.0.0, SVG Export Plug-In . SVG Version: 6.00 Build 0)  -->
<!DOCTYPE svg PUBLIC "-//W3C//DTD SVG 1.1//EN" "http://www.w3.org/Graphics/SVG/1.1/DTD/svg11.dtd">
<svg version="1.1" id="Calque_1" xmlns="http://www.w3.org/2000/svg" xmlns:xlink="http://www.w3.org/1999/xlink" x="0px" y="0px"
	 width="32px" height="32px" viewBox="0 0 32 32" enable-background="new 0 0 32 32" xml:space="preserve">
<path fill="#010202" d="M20.96,7.36c1.372,0,2.609,0.56,3.506,1.462c1.259-0.216,2.431-0.695,3.45-1.386
	c-0.528,1.208-1.321,2.271-2.302,3.127c0.914-0.142,1.79-0.423,2.598-0.827c-0.604,0.999-1.396,1.856-2.321,2.54v0.012
	c0,0.174-0.008,0.344-0.026,0.51l0.01,0.001c0.011,0.211,0.017,0.424,0.017,0.637c0,7.335-6.283,13.283-14.032,13.283
	c-2.737,0-5.287-0.743-7.445-2.025c2.631-0.023,5.078-0.773,7.132-2.044c0,0-0.008,0-0.013,0c-3.016,0-4.253-2.728-4.565-3.581
	c0.54,0.072,1.062,0.105,1.57,0.105c0.454,0,0.895-0.026,1.32-0.076c-0.015-0.002-0.03-0.003-0.045-0.005
	c-4.031-0.325-4.497-3.982-4.548-5.01c0.908,0.423,1.806,0.699,2.673,0.869c-0.082-0.065-0.179-0.135-0.294-0.211
	c-3.471-2.268-2.101-5.788-1.644-6.74c3.336,4.504,8.442,4.972,10.09,5.001c-0.034-0.234-0.058-0.471-0.058-0.714
	C16.032,9.566,18.24,7.36,20.96,7.36 M29.593,5.418l-2.088,1.414c-0.855,0.581-1.8,0.984-2.812,1.202
	C23.66,7.127,22.35,6.63,20.961,6.63c-3.1,0-5.626,2.506-5.659,5.6c-1.986-0.174-6-0.996-8.714-4.663L5.867,6.594L5.343,7.686
	c-0.801,1.666-1.085,3.773-0.088,5.588l-0.777-0.362l0.06,1.208c0.072,1.448,0.561,2.986,1.632,4.104l-0.303-0.043l0.415,1.139
	c0.268,0.729,1.154,2.723,3.125,3.616c-1.565,0.662-3.264,1.013-4.999,1.029l-2.614,0.022l2.248,1.336
	c2.344,1.392,5.048,2.128,7.82,2.128c8.14,0,14.761-6.287,14.761-14.014c0-0.227-0.007-0.452-0.016-0.676l-0.001-0.009
	c0.002-0.036,0.005-0.072,0.007-0.107c0.894-0.713,1.643-1.562,2.229-2.53l1.306-2.163l-2.26,1.131
	c-0.015,0.008-0.028,0.015-0.043,0.022c0.287-0.44,0.536-0.901,0.744-1.376L29.593,5.418L29.593,5.418z"/>
</svg>
