<?xml version="1.0" encoding="utf-8"?>
<!-- Generator: Adobe Illustrator 16.0.0, SVG Export Plug-In . SVG Version: 6.00 Build 0)  -->
<!DOCTYPE svg PUBLIC "-//W3C//DTD SVG 1.1//EN" "http://www.w3.org/Graphics/SVG/1.1/DTD/svg11.dtd">
<svg version="1.1" id="Calque_1" xmlns="http://www.w3.org/2000/svg" xmlns:xlink="http://www.w3.org/1999/xlink" x="0px" y="0px"
	 width="32px" height="32px" viewBox="0 0 32 32" enable-background="new 0 0 32 32" xml:space="preserve">
<path fill="#010202" d="M29.593,5.418l-2.088,1.414c-0.855,0.581-1.8,0.984-2.812,1.202C23.66,7.127,22.35,6.63,20.961,6.63
	c-3.1,0-5.626,2.506-5.659,5.6c-1.986-0.174-6-0.996-8.714-4.663L5.867,6.594L5.343,7.686c-0.801,1.666-1.085,3.773-0.088,5.588
	l-0.777-0.362l0.06,1.208c0.072,1.448,0.561,2.986,1.632,4.104l-0.303-0.043l0.415,1.139c0.268,0.729,1.154,2.723,3.125,3.616
	c-1.565,0.662-3.264,1.013-4.999,1.029l-2.614,0.022l2.248,1.336c2.344,1.392,5.048,2.128,7.82,2.128
	c8.14,0,14.761-6.287,14.761-14.014c0-0.227-0.007-0.452-0.016-0.676l-0.001-0.009c0.002-0.036,0.005-0.072,0.007-0.107
	c0.894-0.713,1.643-1.562,2.229-2.53l1.306-2.163l-2.26,1.131c-0.015,0.008-0.028,0.015-0.043,0.022
	c0.287-0.44,0.536-0.901,0.744-1.376L29.593,5.418L29.593,5.418z"/>
</svg>
