<?xml version="1.0" encoding="utf-8"?>
<!-- Generator: Adobe Illustrator 16.0.0, SVG Export Plug-In . SVG Version: 6.00 Build 0)  -->
<!DOCTYPE svg PUBLIC "-//W3C//DTD SVG 1.1//EN" "http://www.w3.org/Graphics/SVG/1.1/DTD/svg11.dtd">
<svg version="1.1" id="Calque_1" xmlns="http://www.w3.org/2000/svg" xmlns:xlink="http://www.w3.org/1999/xlink" x="0px" y="0px"
	 width="44px" height="44px" viewBox="0 0 44 44" enable-background="new 0 0 44 44" xml:space="preserve">
<path d="M29.5,21.5l0.667-5H24.5v-4.652c0,0-0.046-0.529,0.251-0.884c0.22-0.26,0.613-0.464,1.175-0.464H30.5l0.555-6H26.5
	c0,0-0.549,0-1,0c-1.756,0-7-0.473-7,7v5h-4v5h4v18h6v-18H29.5z"/>
<path display="none" fill="#444444" d="M25.382,39.88h-7.141V22.179H14.5v-6.146h3.526v-4.32c0-2.983,0.948-5.137,2.818-6.403
	c1.529-1.034,3.293-1.189,4.208-1.189c0.314,0,0.539,0.018,0.646,0.027c0.012,0.001,0.02,0.002,0.026,0.002h5.182v6.603h-3.825
	c-0.646,0-1.11,0.167-1.386,0.497c-0.184,0.224-0.25,0.485-0.271,0.684l0.019,0.007l-0.01,3.835h5.491l-0.567,6.404h-4.94
	l-0.034,17.697L25.382,39.88L25.382,39.88z M19.615,38.505h4.394l0.033-17.699h5.056l0.323-3.653h-5.369l0.013-4.706
	c-0.041-0.309-0.101-1.253,0.569-2.071c0.55-0.663,1.371-0.997,2.446-0.997h2.449V5.527l-3.867-0.001
	c-0.02-0.001-0.044-0.003-0.077-0.006c-0.097-0.008-0.276-0.023-0.533-0.023c-0.758,0-2.213,0.124-3.438,0.952
	C20.146,7.443,19.4,9.214,19.4,11.713v5.695h-3.526v3.397h3.741V38.505L19.615,38.505z"/>
</svg>
