<?xml version="1.0" encoding="UTF-8"?>
<svg xmlns="http://www.w3.org/2000/svg" xmlns:xlink="http://www.w3.org/1999/xlink" version="1.2" >
<font id="ITC Avant Garde Gothic Extra Light Oblique">
<font-face  font-family="ITC Avant Garde Gothic" units-per-em="1000" ascent="750" descent="-250" font-style="italic" font-weight="200" font-stretch="normal" slope="-10.5" cap-height="750" x-height="500" underline-position="-75" underline-thickness="50" />
<missing-glyph  horiz-adv-x="277" d="" />
<glyph glyph-name="NULL" d="" />
<glyph glyph-name="CR" unicode="&#xd;" horiz-adv-x="250" d="" />
<glyph glyph-name="space" unicode="&#x20;" horiz-adv-x="277" d="" />
<glyph glyph-name="exclam" unicode="&#x21;" horiz-adv-x="259" d="M282.151 740 L252.151 740 L145.766 166 L175.766 166 L282.151 740 Z M160.012 81 L130.012 81 L115 0 L145 0 L160.012 81 Z " />
<glyph glyph-name="quotedbl" unicode="&#x22;" horiz-adv-x="333" d="M206.291 444 L261.151 740 L231.151 740 L176.291 444 L206.291 444 Z M321.291 444 L376.151 740 L346.151 740 L291.291 444 L321.291 444 Z " />
<glyph glyph-name="numbersign" unicode="&#x23;" horiz-adv-x="555" d="M411.227 271 L562.227 271 L569.49 294 L417.49 294 L461.881 431 L613.881 431 L621.144 454 L470.144 454 L542.104 675 L518.104 675 L446.144 454 L303.144 454 L375.104 675 L351.104 675 L279.144 454 L128.144 454 L119.881 431 L270.881 431 L226.49 294 L75.4897 294 L68.2269 271 L219.227 271 L140.746 31 L165.746 31 L243.227 271 L386.227 271 L308.746 31 L332.746 31 L411.227 271 Z M393.49 294 L250.49 294 L295.881 431 L438.881 431 L393.49 294 Z " />
<glyph glyph-name="dollar" unicode="&#x24;" horiz-adv-x="555" d="M446.125 810 L416.125 810 L401.297 730 C307.073 718 232.285 649 215.605 559 C194.661 446 277.989 410 333.024 394 C420.205 368 506.571 343 484.887 226 C468.577 138 385.418 67 295.418 67 C222.418 67 143.943 113 155.072 227 L125.072 227 C111.611 122 173.711 47 273.043 38 L255.436 -57 L285.436 -57 L303.043 38 C410.34 45 497.835 134 514.701 225 C540.649 365 430.58 397 381.36 412 C299.808 436 226.885 458 245.605 559 C262.1 648 345.293 703 413.293 703 C460.293 703 539.362 671 532.273 568 L562.273 568 C568.876 636 541.703 716 431.297 730 L446.125 810 Z " />
<glyph glyph-name="percent" unicode="&#x25;" horiz-adv-x="719" d="M131.35 590 C113.928 496 170.14 427 264.14 427 C358.14 427 439.928 496 457.35 590 C474.772 684 418.56 753 324.56 753 C230.56 753 148.772 684 131.35 590 L131.35 590 Z M429.35 590 C414.523 510 348.773 452 268.773 452 C188.773 452 144.523 510 159.35 590 C174.177 670 239.927 728 319.927 728 C399.927 728 444.177 670 429.35 590 L429.35 590 Z M398.801 150 C381.379 56 437.591 -13 531.591 -13 C625.591 -13 707.379 56 724.801 150 C742.223 244 686.011 313 592.011 313 C498.011 313 416.223 244 398.801 150 L398.801 150 Z M696.801 150 C681.974 70 616.224 12 536.224 12 C456.224 12 411.974 70 426.801 150 C441.628 230 507.378 288 587.378 288 C667.378 288 711.628 230 696.801 150 L696.801 150 Z M740.151 740 L708.151 740 L114 0 L146 0 L740.151 740 Z " />
<glyph glyph-name="ampersand" unicode="&#x26;" horiz-adv-x="721" d="M729.553 467 L696.553 467 L527.257 228 L378.101 416 C472.329 455 560.816 490 579.721 592 C595.66 678 537.56 753 445.56 753 C355.56 753 275.845 679 260.462 596 C251.898 539 270.523 510 301.368 466 L331.769 425 C242.653 392 114.864 323 90.9558 194 C72.0512 92 132.591 -13 264.591 -13 C390.591 -13 447.418 67 493.279 131 L525.99 178 L675.961 -11 L700.668 9 L545.18 206 L729.553 467 Z M507.068 200 L469.689 144 C402.34 45 347.78 15 272.78 15 C156.78 15 104.905 102 120.77 193 C134.744 263 180.274 336 347.877 404 L507.068 200 Z M322.001 491 C302.635 516 282.122 551 291.203 600 C301.397 655 358 723 441.371 725 C520 723 562.324 660 549.906 593 C534.894 512 480.075 486 362.178 438 L322.001 491 Z " />
<glyph glyph-name="quotesingle" unicode="&#x27;" horiz-adv-x="222" d="M208.291 444 L263.151 740 L233.151 740 L178.291 444 L208.291 444 Z " />
<glyph glyph-name="parenleft" unicode="&#x28;" horiz-adv-x="425" d="M532.56 753 C343.026 653 186.959 453 147.667 241 C119.681 90 152.362 -52 224.716 -158 C264.967 -216 307.036 -248 342.217 -274 L349.075 -237 C223.384 -149 140.931 32 179.667 241 C218.217 449 367.764 630 526.073 718 L532.56 753 Z " />
<glyph glyph-name="parenright" unicode="&#x29;" horiz-adv-x="425" d="M-18.7829 -274 C170.566 -175 326.819 26 366.111 238 C394.097 389 362.23 530 289.061 637 C248.811 695 206.741 727 171.56 753 L164.703 716 C290.393 628 372.661 446 334.111 238 C295.56 30 146.014 -151 -12.4814 -240 L-18.7829 -274 Z " />
<glyph glyph-name="asterisk" unicode="&#x2a;" horiz-adv-x="573" d="M438.151 740 L409.151 740 L386.354 617 L291.845 679 L272.026 653 L367.906 593 L249.415 531 L259.782 506 L377.273 568 L354.291 444 L383.291 444 L406.087 567 L502.782 506 L521.23 530 L425.906 593 L542.212 654 L532.845 679 L415.354 617 L438.151 740 Z " />
<glyph glyph-name="plus" unicode="&#x2b;" horiz-adv-x="600" d="M406.855 501 L378.855 501 L334.929 264 L98.9295 264 L93.74 236 L329.74 236 L286 0 L314 0 L357.74 236 L593.74 236 L598.929 264 L362.929 264 L406.855 501 Z " />
<glyph glyph-name="comma" unicode="&#x2c;" horiz-adv-x="277" d="M171.198 82 L139.198 82 L47.6556 -72 L79.6556 -72 L171.198 82 Z " />
<glyph glyph-name="hyphen" unicode="&#x2d;" horiz-adv-x="266" d="M53.9336 291 L48.5588 262 L314.559 262 L319.934 291 L53.9336 291 Z " />
<glyph glyph-name="period" unicode="&#x2e;" horiz-adv-x="277" d="M169.012 81 L139.012 81 L124 0 L154 0 L169.012 81 Z " />
<glyph glyph-name="slash" unicode="&#x2f;" horiz-adv-x="518" d="M588.151 740 L555.151 740 L48.4661 -100 L81.4661 -100 L588.151 740 Z " />
<glyph glyph-name="zero" unicode="0" horiz-adv-x="555" d="M80.1453 222 C46.5989 41 190.591 -13 276.591 -13 C341.591 -13 520.931 32 556.145 222 L611.006 518 C637.324 660 544.56 753 413.56 753 C359.56 753 173 723 133.338 509 L80.1453 222 Z M163.894 512 C190.026 653 301.556 726 408.556 726 C554.556 726 599.169 616 581.006 518 L526.145 222 C496.306 61 352.595 14 279.595 14 C173.595 14 85.3098 88 110.145 222 L163.894 512 Z " />
<glyph glyph-name="one" unicode="1" horiz-adv-x="555" d="M442.151 740 L248.151 740 L243.147 713 L407.147 713 L275 0 L305 0 L442.151 740 Z " />
<glyph glyph-name="two" unicode="2" horiz-adv-x="555" d="M509.004 27 L102.004 27 L456.162 330 C532.136 400 582.773 452 601.488 526 C627.768 657 552.56 753 429.56 753 C328.56 753 198.772 684 164.264 514 L194.264 514 C223.768 657 324.556 726 420.556 726 C527.556 726 594.729 646 572.415 531 C557.924 469 516.286 417 440.239 352 L62.0042 27 L57 0 L504 0 L509.004 27 Z " />
<glyph glyph-name="three" unicode="3" horiz-adv-x="555" d="M78.8479 215 C53.1591 71 150.591 -13 261.591 -13 C395.591 -13 506.642 79 532.219 217 C542.598 273 535.429 380 417.584 424 L417.954 426 C495.588 451 540.303 525 550.682 581 C571.625 694 497.56 753 409.56 753 C329.56 753 232.367 698 204.423 585 L234.423 585 C253.509 661 319.556 726 407.556 726 C489.556 726 536.436 666 520.867 582 C515.307 552 480.993 437 330.993 437 L291.993 437 L286.989 410 L326.989 410 C477.989 410 516.49 294 501.107 211 C481.275 104 389.595 14 269.595 14 C181.595 14 86.9004 75 108.848 215 L78.8479 215 Z " />
<glyph glyph-name="four" unicode="4" horiz-adv-x="555" d="M571.151 740 L530.151 740 L48.5076 170 L43.6888 144 L430.689 144 L404 0 L434 0 L460.689 144 L535.689 144 L540.693 171 L465.693 171 L571.151 740 Z M532.479 704 L534.479 704 L435.693 171 L83.693 171 L532.479 704 Z " />
<glyph glyph-name="five" unicode="5" horiz-adv-x="555" d="M278.151 740 L144.541 386 L169.243 379 C249.071 459 323.183 465 354.183 465 C468.183 465 553.019 367 529.111 238 C506.314 115 386.595 14 270.595 14 C175.595 14 81.7538 85 91.2186 217 L61.2186 217 C48.5643 57 169.591 -13 264.591 -13 C395.591 -13 532.793 96 559.667 241 C583.946 372 504.187 492 361.187 492 C279.187 492 223.329 455 191.437 434 L297.147 713 L605.147 713 L610.151 740 L278.151 740 Z " />
<glyph glyph-name="six" unicode="6" horiz-adv-x="555" d="M491.151 740 L457.151 740 L172.73 414 C134.575 370 91.3818 315 75.4426 229 C56.1674 125 103.591 -13 274.591 -13 C416.591 -13 540.646 106 565.481 240 C592.912 388 499.631 489 370.631 489 C318.631 489 271.924 469 241.588 451 L239.773 452 L491.151 740 Z M105.813 231 C137.136 400 280.627 462 366.627 462 C461.627 462 563.097 389 534.925 237 C512.685 117 405.595 14 278.595 14 C144.595 14 84.6847 117 105.813 231 L105.813 231 Z " />
<glyph glyph-name="seven" unicode="7" horiz-adv-x="555" d="M224.151 740 L219.147 713 L580.147 713 L119 0 L150 0 L612.147 713 L617.151 740 L224.151 740 Z " />
<glyph glyph-name="eight" unicode="8" horiz-adv-x="555" d="M206.311 579 C193.523 510 226.661 446 284.657 419 C189.282 390 111.084 308 90.7359 209 C70.7538 85 150.591 -13 274.591 -13 C398.591 -13 514.754 85 540.736 209 C557.27 309 508.468 391 424.657 419 C492.661 446 549.523 510 562.311 579 C580.289 676 514.56 753 416.56 753 C318.56 753 223.548 672 206.311 579 L206.311 579 Z M236.126 578 C251.509 661 328.556 726 411.556 726 C494.556 726 547.509 661 532.126 578 C516.928 496 439.881 431 356.881 431 C273.881 431 220.928 496 236.126 578 L236.126 578 Z M120.736 209 C140.938 318 242.877 404 351.877 404 C460.877 404 530.938 318 510.736 209 C490.534 100 388.595 14 279.595 14 C170.595 14 100.534 100 120.736 209 L120.736 209 Z " />
<glyph glyph-name="nine" unicode="9" horiz-adv-x="555" d="M201 0 L235 0 L519.421 326 C557.575 370 600.769 425 616.708 511 C635.983 615 588.56 753 417.56 753 C275.56 753 151.505 634 126.669 500 C99.2393 352 192.52 251 321.52 251 C347.52 251 371.447 256 393.744 263 C416.227 271 435.895 280 450.563 289 L452.378 288 L201 0 Z M586.338 509 C555.015 340 411.524 278 325.524 278 C230.524 278 129.054 351 157.226 503 C179.466 623 286.556 726 413.556 726 C547.556 726 607.466 623 586.338 509 L586.338 509 Z " />
<glyph glyph-name="colon" unicode="&#x3a;" horiz-adv-x="277" d="M169.012 81 L139.012 81 L124 0 L154 0 L169.012 81 Z M252.23 530 L222.23 530 L207.217 449 L237.217 449 L252.23 530 Z " />
<glyph glyph-name="semicolon" unicode="&#x3b;" horiz-adv-x="277" d="M171.198 82 L139.198 82 L47.6556 -72 L79.6556 -72 L171.198 82 Z M251.23 530 L221.23 530 L206.217 449 L236.217 449 L251.23 530 Z " />
<glyph glyph-name="less" unicode="&#x3c;" horiz-adv-x="600" d="M99.4855 267 L93.5547 235 L550 0 L555.746 31 L129.52 251 L637.295 471 L643.04 502 L99.4855 267 Z " />
<glyph glyph-name="equal" unicode="&#x3d;" horiz-adv-x="600" d="M116.907 361 L111.718 333 L611.718 333 L616.907 361 L116.907 361 Z M80.9516 167 L75.7621 139 L575.762 139 L580.952 167 L80.9516 167 Z " />
<glyph glyph-name="greater" unicode="&#x3e;" horiz-adv-x="600" d="M55.7455 31 L50 0 L593.555 235 L599.486 267 L143.04 502 L137.295 471 L563.52 251 L55.7455 31 Z " />
<glyph glyph-name="question" unicode="&#x3f;" horiz-adv-x="536" d="M303.766 166 C312.107 211 322.968 275 412.869 350 C478.877 404 552.627 462 567.454 542 C590.621 667 505.375 752 394.375 752 C316.375 752 177.293 703 140.639 543 L170.639 543 C199.918 674 312.629 721 389.629 721 C494.629 721 555.617 640 537.824 544 C520.739 468 466.066 432 404.058 378 C301.675 295 287.813 231 273.766 166 L303.766 166 Z M287.012 81 L258.012 81 L243 0 L272 0 L287.012 81 Z " />
<glyph glyph-name="at" unicode="&#x40;" horiz-adv-x="796" d="M757.658 187 C672.047 65 525.409 13 419.409 13 C240.409 13 96.8008 150 136.649 365 C176.682 581 370.741 727 561.741 727 C706.741 727 857.69 635 821.549 440 C790.412 272 640.658 187 568.658 187 C550.658 187 512.214 190 522.925 237 C526.632 257 543.636 284 545.378 288 L691.79 560 L663.79 560 L628.372 493 L626.372 493 C626.562 521 614.755 576 535.755 576 C425.755 576 297.437 434 271.675 295 C251.473 186 321.581 165 355.581 165 C426.581 165 472.551 208 495.74 236 L497.74 236 C484.581 165 545.84 161 562.84 161 C634.84 161 813.223 244 849.734 441 C887.729 646 726.56 753 564.56 753 C347.56 753 148.311 579 108.649 365 C69.5422 154 203.591 -13 415.591 -13 C525.591 -13 694.784 42 782.658 187 L757.658 187 Z M535.05 324 C514.451 283 460.4 191 362.4 191 C329.4 191 283.921 210 299.675 295 C325.808 436 450.936 550 532.936 550 C562.936 550 615.23 530 604.627 462 C600.549 440 593.51 429 576.58 397 L535.05 324 Z " />
<glyph glyph-name="A" unicode="A" horiz-adv-x="687" d="M197.817 258 L584.817 258 L648 0 L680 0 L500.151 740 L461.151 740 L7 0 L39 0 L197.817 258 Z M474.961 712 L576.822 285 L215.822 285 L474.961 712 Z " />
<glyph glyph-name="B" unicode="B" horiz-adv-x="540" d="M214.151 740 L77 0 L262 0 C309 0 349.112 6 383.151 17 C460.896 48 515.646 106 533.512 197 C539.999 232 551.239 352 421.468 391 L421.838 393 C532.178 438 549.971 534 553.678 554 C563.871 609 557.475 677 496.147 713 C470.297 730 434.151 740 371.151 740 L214.151 740 Z M239.147 713 L366.147 713 C429.961 712 455.293 703 474.069 691 C508.918 674 536.837 625 524.419 558 C514.782 506 492.329 455 423.842 420 C395.248 406 359.321 401 315.321 401 L181.321 401 L239.147 713 Z M176.317 374 L310.317 374 C370.317 374 396.131 373 432.981 356 C488.977 329 517.227 271 503.512 197 C487.314 115 437.418 67 376.97 43 C344.931 32 307.004 27 268.004 27 L112.004 27 L176.317 374 Z " />
<glyph glyph-name="C" unicode="C" horiz-adv-x="786" d="M743.84 161 C717.465 132 600.595 14 427.595 14 C231.595 14 101.581 165 139.575 370 C177.57 575 363.556 726 559.556 726 C723.371 725 799.798 614 820.57 575 L855.57 575 C817.138 659 722.375 752 564.56 753 C352.56 753 150.721 592 109.575 370 C68.4302 148 210.591 -13 422.591 -13 C577.591 -13 712.086 76 777.84 161 L743.84 161 Z " />
<glyph glyph-name="D" unicode="D" horiz-adv-x="701" d="M77 0 L286 0 C519 0 684.391 137 727.575 370 C770.759 603 656.151 740 423.151 740 L214.151 740 L77 0 Z M239.147 713 L418.147 713 C635.147 713 737.238 584 697.205 368 C657.542 154 505.004 27 291.004 27 L112.004 27 L239.147 713 Z " />
<glyph glyph-name="E" unicode="E" horiz-adv-x="547" d="M214.151 740 L77 0 L483 0 L488.004 27 L112.004 27 L173.537 359 L549.537 359 L554.541 386 L178.541 386 L239.147 713 L615.147 713 L620.151 740 L214.151 740 Z " />
<glyph glyph-name="F" unicode="F" horiz-adv-x="477" d="M214.151 740 L77 0 L107 0 L173.537 359 L506.537 359 L511.541 386 L178.541 386 L239.147 713 L572.147 713 L577.151 740 L214.151 740 Z " />
<glyph glyph-name="G" unicode="G" horiz-adv-x="853" d="M400.011 313 L395.007 286 L836.007 286 C783.43 148 615.595 14 427.595 14 C231.595 14 101.581 165 139.575 370 C177.57 575 363.556 726 559.556 726 C680.556 726 775.733 673 831.755 576 L867.755 576 C821.143 686 700.56 753 564.56 753 C352.56 753 150.721 592 109.575 370 C68.4302 148 210.591 -13 422.591 -13 C629.591 -13 822.835 134 877.011 313 L400.011 313 Z " />
<glyph glyph-name="H" unicode="H" horiz-adv-x="628" d="M244.151 740 L214.151 740 L77 0 L107 0 L173.537 359 L587.537 359 L521 0 L551 0 L688.151 740 L658.151 740 L592.541 386 L178.541 386 L244.151 740 Z " />
<glyph glyph-name="I" unicode="I" horiz-adv-x="185" d="M244.151 740 L214.151 740 L77 0 L107 0 L244.151 740 Z " />
<glyph glyph-name="J" unicode="J" horiz-adv-x="453" d="M514.151 740 L484.151 740 L386.292 212 C378.137 168 368.835 134 349.719 101 C327.12 60 271.965 16 194.595 14 C162.595 14 71.0042 27 65.1328 141 L32.1328 141 C31.2282 39 105.591 -13 187.591 -13 C226.591 -13 271.629 -2 312.633 25 C341.155 44 360.418 67 375.681 90 C400.465 132 409.805 177 416.292 212 L514.151 740 Z " />
<glyph glyph-name="K" unicode="K" horiz-adv-x="536" d="M258.151 740 L228.151 740 L91 0 L121 0 L156.77 193 L306.054 351 L500 0 L536 0 L329.502 375 L673.151 740 L637.151 740 L167.481 240 L165.481 240 L258.151 740 Z " />
<glyph glyph-name="L" unicode="L" horiz-adv-x="423" d="M244.151 740 L214.151 740 L77 0 L420 0 L425.004 27 L112.004 27 L244.151 740 Z " />
<glyph glyph-name="M" unicode="M" horiz-adv-x="933" d="M262.151 740 L214.151 740 L77 0 L107 0 L238.591 710 L240.591 710 L458 0 L475 0 L954.591 710 L956.591 710 L955.591 710 L956.591 710 L825 0 L855 0 L992.151 740 L945.151 740 L475.896 48 L262.151 740 Z " />
<glyph glyph-name="N" unicode="N" horiz-adv-x="738" d="M259.151 740 L214.151 740 L77 0 L107 0 L238.591 710 L240.591 710 L623 0 L661 0 L798.151 740 L768.151 740 L638.414 40 L636.414 40 L259.151 740 Z " />
<glyph glyph-name="O" unicode="O" horiz-adv-x="851" d="M109.575 370 C68.4302 148 210.591 -13 422.591 -13 C634.591 -13 836.43 148 877.575 370 C918.721 592 776.56 753 564.56 753 C352.56 753 150.721 592 109.575 370 L109.575 370 Z M139.575 370 C177.57 575 363.556 726 559.556 726 C755.556 726 885.57 575 847.575 370 C809.581 165 623.595 14 427.595 14 C231.595 14 101.581 165 139.575 370 L139.575 370 Z " />
<glyph glyph-name="P" unicode="P" horiz-adv-x="511" d="M204.151 740 L67 0 L97 0 L156.308 320 L298.308 320 C384.308 320 435.791 328 491.463 364 C541.394 396 584.812 463 597.23 530 C609.647 597 591.065 664 552.996 696 C510.668 732 464.151 740 376.151 740 L204.151 740 Z M229.147 713 L372.147 713 C456.147 713 496.293 703 532.548 672 C563.729 646 577.794 587 567.044 529 C556.665 473 520.73 414 479.912 388 C432.166 357 387.313 347 304.313 347 L161.313 347 L229.147 713 Z " />
<glyph glyph-name="Q" unicode="Q" horiz-adv-x="882" d="M888.336 18 C802.56 30 760.711 47 710.827 80 C759.241 120 862.551 208 892.575 370 C933.721 592 791.56 753 579.56 753 C367.56 753 165.721 592 124.575 370 C86.9516 167 204.591 -13 440.591 -13 C551.591 -13 641.487 35 682.306 61 C736.633 25 768.371 2 882.591 -13 L888.336 18 Z M152.593 246 C148.042 270 143.084 308 154.575 370 C192.57 575 378.556 726 574.556 726 C770.556 726 900.57 575 862.575 370 C843.115 265 784.137 168 690.163 98 C581.141 195 568.994 205 540.145 222 C483.447 256 411.154 276 330.154 276 C251.154 276 195.003 259 152.593 246 L152.593 246 Z M159.219 217 C201.999 232 249.149 249 321.149 249 C413.149 249 488.516 224 557.878 172 C558.693 171 646.237 93 662.827 80 C619.452 51 537.595 14 446.595 14 C374.595 14 213.487 35 159.219 217 L159.219 217 Z " />
<glyph glyph-name="R" unicode="R" horiz-adv-x="554" d="M204.151 740 L67 0 L97 0 L229.147 713 L368.147 713 C455.147 713 508.961 712 548.587 683 C598.729 646 616.57 575 604.708 511 C593.959 453 568.506 402 512.425 353 C455.826 312 409.714 306 339.714 306 L293.714 306 L454 0 L492 0 L344.71 279 L373.895 280 C535.08 281 621.842 420 634.894 512 C650.833 598 618.845 679 564.405 709 C532.297 730 488.151 740 373.151 740 L204.151 740 Z " />
<glyph glyph-name="S" unicode="S" horiz-adv-x="518" d="M79.6584 187 C63.7109 47 167.591 -13 256.591 -13 C366.591 -13 487.344 72 509.956 194 C539.795 355 396.799 382 362.653 392 C265.472 418 172.847 447 195.531 564 C213.509 661 300.371 725 394.371 725 C513.371 725 530.432 639 530.497 580 L560.497 580 C566.923 701 488.375 752 401.375 752 C294.375 752 184.401 682 164.605 559 C138.842 420 262.097 389 324.131 373 C391.61 354 504.421 326 479.214 190 C459.568 84 353.595 14 260.595 14 C203.595 14 101.34 45 109.658 187 L79.6584 187 Z " />
<glyph glyph-name="T" unicode="T" horiz-adv-x="443" d="M142.151 740 L137.147 713 L338.147 713 L206 0 L236 0 L368.147 713 L569.147 713 L574.151 740 L142.151 740 Z " />
<glyph glyph-name="U" unicode="U" horiz-adv-x="605" d="M124.188 260 C110.77 193 95.2365 93 170.931 32 C203.741 4 249.591 -13 299.591 -13 C350.591 -13 402.741 4 445.931 32 C544.237 93 565.77 193 577.188 260 L666.151 740 L636.151 740 L547.188 260 C533.844 188 525.318 142 468.198 82 C428.414 40 362.595 14 306.595 14 C247.595 14 191.414 40 167.198 82 C132.318 142 140.844 188 154.188 260 L243.151 740 L213.151 740 L124.188 260 Z " />
<glyph glyph-name="V" unicode="V" horiz-adv-x="666" d="M178.151 740 L144.151 740 L322 0 L343 0 L796.151 740 L763.151 740 L342.267 50 L178.151 740 Z " />
<glyph glyph-name="W" unicode="W" horiz-adv-x="888" d="M181.151 740 L149.151 740 L223 0 L263 0 L564.509 661 L566.509 661 L625 0 L664 0 L1013.15 740 L982.151 740 L654.599 41 L652.599 41 L591.151 740 L570.151 740 L251.599 41 L249.599 41 L181.151 740 Z " />
<glyph glyph-name="X" unicode="X" horiz-adv-x="555" d="M190.151 740 L154.151 740 L329.687 376 L8 0 L41 0 L340.869 350 L512 0 L547 0 L362.687 376 L673.151 740 L638.151 740 L350.877 404 L190.151 740 Z " />
<glyph glyph-name="Y" unicode="Y" horiz-adv-x="554" d="M185.151 740 L152.151 740 L309.261 255 L262 0 L292 0 L339.261 255 L676.151 740 L642.151 740 L330.563 289 L185.151 740 Z " />
<glyph glyph-name="Z" unicode="Z" horiz-adv-x="499" d="M493 0 L498.004 27 L74.0042 27 L609.151 740 L143.151 740 L138.147 713 L555.147 713 L20 0 L493 0 Z " />
<glyph glyph-name="bracketleft" unicode="&#x5b;" horiz-adv-x="425" d="M483.56 753 C302.918 674 278.824 544 269.743 495 L175.22 -15 C153.721 -131 186.967 -216 293.588 -272 L300.26 -236 C183.936 -173 197.768 -66 207.22 -15 L301.743 495 C319.535 591 370.992 669 476.888 717 L483.56 753 Z " />
<glyph glyph-name="backslash" unicode="&#x5c;" horiz-adv-x="518" d="M399.466 -100 L432.466 -100 L237.151 740 L204.151 740 L399.466 -100 Z " />
<glyph glyph-name="bracketright" unicode="&#x5d;" horiz-adv-x="425" d="M30.5878 -272 C211.23 -193 235.324 -63 244.22 -15 L338.743 495 C360.427 612 326.996 696 220.56 753 L213.888 717 C330.212 654 316.38 547 306.743 495 L212.22 -15 C194.613 -110 143.156 -188 37.26 -236 L30.5878 -272 Z " />
<glyph glyph-name="asciicircum" unicode="&#x5e;" horiz-adv-x="600" d="M525.502 375 L557.502 375 L453.151 740 L421.151 740 L181.502 375 L213.502 375 L431.035 707 L525.502 375 Z " />
<glyph glyph-name="underscore" unicode="&#x5f;" horiz-adv-x="500" d="M476.833 -125 L486.1 -75 L-13.9004 -75 L-23.1674 -125 L476.833 -125 Z " />
<glyph glyph-name="grave" unicode="&#x60;" horiz-adv-x="555" d="M299.97 766 L281.707 743 L494.13 605 L511.393 628 L299.97 766 Z " />
<glyph glyph-name="a" unicode="a" horiz-adv-x="674" d="M694.23 530 L666.23 530 L641.209 395 L639.209 395 C625.997 464 548.639 543 420.639 543 C249.639 543 117.174 411 90.1148 265 C63.6114 122 143.591 -13 317.591 -13 C429.591 -13 527.784 42 590.465 132 L592.465 132 L568 0 L596 0 L694.23 530 Z M325.409 13 C154.409 13 96.8742 145 118.115 265 C145.73 414 277.82 517 415.82 517 C557.82 517 646.989 410 620.115 265 C594.723 128 471.409 13 325.409 13 L325.409 13 Z " />
<glyph glyph-name="b" unicode="b" horiz-adv-x="674" d="M78 0 L106 0 L130.465 132 L132.465 132 C161.784 42 239.591 -13 351.591 -13 C525.591 -13 655.611 122 682.115 265 C709.174 411 625.639 543 454.639 543 C326.268 541 232.48 472 181.209 395 L179.209 395 L243.151 740 L215.151 740 L78 0 Z M353.409 13 C207.409 13 126.723 128 152.115 265 C178.989 410 307.82 517 449.82 517 C587.82 517 681.73 414 654.115 265 C630.874 145 524.409 13 353.409 13 L353.409 13 Z " />
<glyph glyph-name="c" unicode="c" horiz-adv-x="619" d="M582.952 167 C542.31 88 442.595 14 322.409 13 C187.409 13 90.314 115 118.115 265 C131.459 337 174.433 407 224.661 446 C288.743 495 341.635 516 416.82 517 C497.006 518 600.036 475 619.351 358 L650.351 358 C631.519 483 528.639 543 420.639 543 C259.639 543 119.028 421 89.9295 264 L90.1148 265 C59.3486 99 163.591 -13 317.591 -13 C443.961 -11 556.935 59 613.952 167 L582.952 167 Z " />
<glyph glyph-name="d" unicode="d" horiz-adv-x="677" d="M733.151 740 L705.151 740 L641.209 395 L639.209 395 C625.997 464 548.639 543 420.639 543 C249.639 543 117.174 411 90.1148 265 C63.6114 122 143.591 -13 317.591 -13 C429.591 -13 527.784 42 590.465 132 L592.465 132 L568 0 L596 0 L733.151 740 Z M325.409 13 C154.409 13 96.8742 145 118.115 265 C145.73 414 277.82 517 415.82 517 C557.82 517 646.989 410 620.115 265 C594.723 128 471.409 13 325.409 13 L325.409 13 Z " />
<glyph glyph-name="e" unicode="e" horiz-adv-x="619" d="M636.559 262 L640.339 277 C663.734 441 553.639 543 411.639 543 C253.639 543 109.398 423 79.9295 264 L80.1148 265 C50.8313 107 145.591 -13 307.591 -13 C414.405 -14 526.414 40 596.357 153 L565.357 153 C506.676 63 411.409 13 313.409 13 C209.224 12 78.4952 89 108.559 262 L636.559 262 Z M114.378 288 C147.213 422 275.82 517 406.82 517 C531.747 522 631.101 416 613.378 288 L114.378 288 Z " />
<glyph glyph-name="f" unicode="f" horiz-adv-x="263" d="M94 0 L122 0 L215.411 504 L353.411 504 L358.23 530 L220.23 530 L230.423 585 C253.073 718 358 723 394.556 726 L399.56 753 C232.078 745 208.725 619 201.867 582 L192.23 530 L105.23 530 L100.411 504 L187.411 504 L94 0 Z " />
<glyph glyph-name="g" unicode="g" horiz-adv-x="675" d="M56.3236 -63 C82.863 -168 181.113 -226 287.113 -226 C369.113 -226 566.79 -163 608.935 59 L696.23 530 L668.23 530 L643.209 395 L641.209 395 C627.997 464 550.639 543 422.639 543 C248.639 543 116.174 411 89.1148 265 C62.6114 122 142.591 -13 319.591 -13 C431.591 -13 529.784 42 591.465 132 L594.465 132 L580.008 54 C551.466 -100 411.932 -200 287.932 -200 C239.932 -200 183.898 -184 142.126 -145 C109.501 -116 97.4315 -84 88.3236 -63 L56.3236 -63 Z M622.115 265 C596.723 128 473.409 13 327.409 13 C154.409 13 95.8742 145 117.115 265 C144.73 414 276.82 517 417.82 517 C559.82 517 648.989 410 622.115 265 L622.115 265 Z " />
<glyph glyph-name="h" unicode="h" horiz-adv-x="640" d="M243.151 740 L215.151 740 L78 0 L106 0 L162.528 305 C187.178 438 283.45 515 416.82 517 C470.82 517 523.411 504 557.553 467 C590.881 431 604.946 372 587.895 280 L536 0 L564 0 L615.895 280 C633.502 375 621.661 446 577.816 490 C542.303 525 489.639 543 421.639 543 C338.01 545 234.596 505 187.325 428 L185.325 428 L243.151 740 Z " />
<glyph glyph-name="i" unicode="i" horiz-adv-x="184" d="M204.23 530 L176.23 530 L78 0 L106 0 L204.23 530 Z M243.151 740 L215.151 740 L198.285 649 L226.285 649 L243.151 740 Z " />
<glyph glyph-name="j" unicode="j" horiz-adv-x="219" d="M221.23 530 L193.23 530 L96.112 6 C76.8368 -98 52.863 -168 -47.917 -183 L-53.4772 -213 C86.4882 -197 108.729 -77 124.112 6 L221.23 530 Z M260.151 740 L232.151 740 L215.1 648 L243.1 648 L260.151 740 Z " />
<glyph glyph-name="k" unicode="k" horiz-adv-x="467" d="M243.151 740 L215.151 740 L78 0 L106 0 L123.978 97 L266.149 249 L414 0 L451 0 L288.227 271 L532.23 530 L495.23 530 L134.874 145 L132.874 145 L243.151 740 Z " />
<glyph glyph-name="l" unicode="l" horiz-adv-x="183" d="M243.151 740 L215.151 740 L78 0 L106 0 L243.151 740 Z " />
<glyph glyph-name="m" unicode="m" horiz-adv-x="949" d="M204.23 530 L176.23 530 L78 0 L106 0 L161.972 302 C176.243 379 204.954 426 240.071 459 C272.372 493 328.191 519 379.82 517 C441.45 515 484.557 494 508.144 454 C528.472 418 534.429 380 517.046 297 L462 0 L490 0 L545.046 297 C560.429 380 573.36 412 615.515 456 C656.484 499 716.82 517 763.82 517 C818.82 517 856.855 501 879.48 472 C912.066 432 914.575 370 901.046 297 L846 0 L874 0 L929.046 297 C944.058 378 939.847 447 903.816 490 C876.932 523 832.639 543 768.639 543 C708.639 543 647.191 519 602.592 478 C576.144 454 561.881 431 554.101 416 L552.101 416 C549.549 440 540.627 462 528.592 478 C500.562 521 448.639 543 384.639 543 C350.639 543 255.786 533 188.808 436 L186.808 436 L204.23 530 Z " />
<glyph glyph-name="n" unicode="n" horiz-adv-x="641" d="M204.23 530 L176.23 530 L78 0 L106 0 L162.528 305 C187.178 438 283.45 515 416.82 517 C470.82 517 523.411 504 557.553 467 C590.881 431 604.946 372 587.895 280 L536 0 L564 0 L615.895 280 C633.502 375 621.661 446 577.816 490 C542.303 525 489.639 543 421.639 543 C338.01 545 234.596 505 187.325 428 L185.325 428 L204.23 530 Z " />
<glyph glyph-name="o" unicode="o" horiz-adv-x="641" d="M90.1148 265 C60.6459 106 158.591 -13 317.591 -13 C476.591 -13 618.646 106 648.115 265 C677.398 423 579.639 543 420.639 543 C261.639 543 119.398 423 90.1148 265 L90.1148 265 Z M118.115 265 C144.804 409 272.82 517 415.82 517 C558.82 517 646.804 409 620.115 265 C593.426 121 465.409 13 322.409 13 C179.409 13 91.426 121 118.115 265 L118.115 265 Z " />
<glyph glyph-name="p" unicode="p" horiz-adv-x="677" d="M38.5228 -213 L66.5228 -213 L131.021 135 L133.021 135 C146.232 66 223.591 -13 351.591 -13 C522.591 -13 655.055 119 682.115 265 C708.618 408 628.639 543 454.639 543 C342.639 543 244.445 488 181.765 398 L179.765 398 L204.23 530 L176.23 530 L38.5228 -213 Z M446.82 517 C617.82 517 675.356 385 654.115 265 C626.499 116 494.409 13 356.409 13 C214.409 13 125.241 120 152.115 265 C177.506 402 300.82 517 446.82 517 L446.82 517 Z " />
<glyph glyph-name="q" unicode="q" horiz-adv-x="674" d="M694.23 530 L666.23 530 L641.765 398 L639.765 398 C610.445 488 532.639 543 420.639 543 C246.639 543 116.618 408 90.1148 265 C63.0553 119 146.591 -13 317.591 -13 C445.591 -13 552.232 66 591.021 135 L593.021 135 L528.523 -213 L556.523 -213 L694.23 530 Z M418.82 517 C564.82 517 645.506 402 620.115 265 C593.241 120 464.409 13 322.409 13 C184.409 13 90.4993 116 118.115 265 C141.356 385 247.82 517 418.82 517 L418.82 517 Z " />
<glyph glyph-name="r" unicode="r" horiz-adv-x="302" d="M204.23 530 L176.23 530 L78 0 L106 0 L159.192 287 C172.722 360 192.213 422 265.777 479 C320.079 513 356.45 515 388.635 516 L393.639 543 C347.083 540 254.971 534 188.437 434 L186.437 434 L204.23 530 Z " />
<glyph glyph-name="s" unicode="s" horiz-adv-x="426" d="M75.2448 147 C51.267 50 120.591 -13 208.591 -13 C299.591 -13 381.935 59 393.059 146 C408.003 259 332.524 278 266.046 297 C194.938 318 161.386 342 170.248 406 C178.924 469 235.82 517 306.82 517 C364.006 518 412.889 485 398.062 405 L426.062 405 C442.928 496 388.454 542 311.639 543 C232.639 543 158.557 494 142.248 406 C128.382 315 184.119 292 259.856 269 C342.335 250 375.848 215 364.318 142 C353.53 73 292.409 13 213.409 13 C136.409 13 87.491 62 103.245 147 L75.2448 147 Z " />
<glyph glyph-name="t" unicode="t" horiz-adv-x="296" d="M222.23 530 L105.23 530 L100.411 504 L217.411 504 L124 0 L152 0 L245.411 504 L381.411 504 L386.23 530 L250.23 530 L289.151 740 L261.151 740 L222.23 530 Z " />
<glyph glyph-name="u" unicode="u" horiz-adv-x="641" d="M536 0 L564 0 L662.23 530 L634.23 530 L578.443 229 C553.051 92 456.595 14 323.409 13 C269.409 13 216.819 26 182.676 63 C149.349 99 135.284 158 152.335 250 L204.23 530 L176.23 530 L124.335 250 C106.728 155 118.568 84 162.414 40 C197.927 5 250.591 -13 318.591 -13 C406.22 -15 505.633 25 553.831 107 L555.831 107 L536 0 Z " />
<glyph glyph-name="v" unicode="v" horiz-adv-x="481" d="M222 0 L258 0 L574.23 530 L542.23 530 L246.116 33 L131.23 530 L102.23 530 L222 0 Z " />
<glyph glyph-name="w" unicode="w" horiz-adv-x="758" d="M139.23 530 L108.23 530 L205 0 L237 0 L451.506 402 L453.506 402 L521 0 L553 0 L847.23 530 L815.23 530 L546.784 42 L544.784 42 L474.885 458 L453.885 458 L229.784 42 L227.784 42 L139.23 530 Z " />
<glyph glyph-name="x" unicode="x" horiz-adv-x="407" d="M144.23 530 L108.23 530 L236.3 266 L10 0 L46 0 L248.296 239 L363 0 L397 0 L270.3 266 L495.23 530 L461.23 530 L258.304 293 L144.23 530 Z " />
<glyph glyph-name="y" unicode="y" horiz-adv-x="481" d="M140.23 530 L109.23 530 L221.185 1 L87.5228 -213 L119.523 -213 L578.23 530 L545.23 530 L245.228 39 L140.23 530 Z " />
<glyph glyph-name="z" unicode="z" horiz-adv-x="407" d="M128.23 530 L123.411 504 L434.411 504 L16.4481 24 L12 0 L394 0 L398.819 26 L52.8188 26 L470.226 503 L475.23 530 L128.23 530 Z " />
<glyph glyph-name="braceleft" unicode="&#x7b;" horiz-adv-x="425" d="M293.588 -272 L298.407 -246 L244.407 -246 C193.407 -246 185.372 -230 204.091 -129 L238.008 54 C253.762 139 236.848 215 190.925 237 C254.856 269 294.907 361 307.14 427 L341.427 612 C358.664 705 371.741 727 424.741 727 L478.741 727 L483.56 753 L417.56 753 C354.56 753 328.517 715 312.764 630 L278.105 443 C258.83 339 211.744 263 161.52 251 L156.331 223 C216.214 190 219.909 129 202.858 37 L168.941 -146 C153.001 -232 164.588 -272 227.588 -272 L293.588 -272 Z " />
<glyph glyph-name="bar" unicode="&#x7c;" horiz-adv-x="555" d="M400.151 740 L244.466 -100 L274.466 -100 L430.151 740 L400.151 740 Z " />
<glyph glyph-name="braceright" unicode="&#x7d;" horiz-adv-x="425" d="M30.5878 -272 L96.5878 -272 C159.588 -272 186.001 -232 201.941 -146 L235.858 37 C252.909 129 279.214 190 351.331 223 L356.52 251 C310.744 263 291.83 339 311.105 443 L345.764 630 C361.517 715 349.56 753 286.56 753 L220.56 753 L215.741 727 L269.741 727 C322.741 727 327.664 705 310.427 612 L276.14 427 C263.907 361 269.856 269 321.925 237 C267.848 215 222.762 139 207.008 54 L173.091 -129 C154.372 -230 140.407 -246 89.4066 -246 L35.4066 -246 L30.5878 -272 Z " />
<glyph glyph-name="asciitilde" unicode="&#x7e;" horiz-adv-x="600" d="M134.107 211 C176.115 265 213.968 275 248.598 273 C281.598 273 318.076 254 353.74 236 C389.404 218 423.068 200 461.068 200 C498.068 200 541.072 227 573.227 271 L557.748 290 C533.373 261 503.257 228 464.257 228 C433.257 228 400.593 246 364.929 264 C330.08 281 293.787 301 253.787 301 C205.528 305 153.524 278 118.443 229 L134.107 211 Z " />
<glyph glyph-name="exclamdown" unicode="&#xa1;" horiz-adv-x="259" d="M76.2641 -209 L106.264 -209 L212.649 365 L182.649 365 L76.2641 -209 Z M198.403 450 L228.403 450 L243.415 531 L213.415 531 L198.403 450 Z " />
<glyph glyph-name="cent" unicode="&#xa2;" horiz-adv-x="555" d="M573.924 469 C544.717 565 472.238 584 416.535 591 L434.328 687 L404.328 687 L386.721 592 C234.311 579 153.256 460 136.39 369 C118.968 275 162.913 156 304.245 147 L284.228 39 L314.228 39 L334.245 147 C368.616 149 466.396 164 537.115 265 L503.115 265 C479.999 232 418.62 176 322.62 176 C195.62 176 148.783 274 166.946 372 C185.665 473 275.346 563 395.346 563 C438.346 563 511.307 552 540.924 469 L573.924 469 Z " />
<glyph glyph-name="sterling" unicode="&#xa3;" horiz-adv-x="555" d="M476.838 393 L203.838 393 C171.993 437 171.148 481 176.45 515 C203.617 640 302 723 423.371 725 C519.371 725 586.324 660 595.458 569 L626.458 569 C618.513 688 530.375 752 428.375 752 C289.375 752 171.1 648 146.45 515 C137.256 460 150.286 417 164.838 393 L78.8382 393 L73.8341 366 L185.834 366 C249.899 307 280.705 252 265.693 171 C250.124 87 201.97 43 189.004 27 L41.0042 27 L36 0 L306 0 C405 0 439.039 11 494.823 53 C520.9 75 568.538 127 582.068 200 C587.072 227 585.555 235 585.149 249 L554.149 249 C554.925 237 556.331 223 551.882 199 C544.654 160 523.314 115 475.344 72 C438.97 43 406.004 27 316.004 27 L224.004 27 C281.793 96 292.542 154 295.878 172 C314.227 271 260.459 337 227.463 364 L227.834 366 L471.834 366 L476.838 393 Z " />
<glyph glyph-name="currency" unicode="&#xa4;" horiz-adv-x="555" d="M511.461 105 L536.353 126 L473.624 203 C516.852 242 545.748 290 555.571 343 C565.58 397 554.291 444 528.148 481 L618.419 558 L600.311 579 L510.226 503 C477.527 537 432.048 556 380.048 556 C329.048 556 276.527 537 230.04 502 L167.311 579 L142.419 558 L205.148 481 C164.291 444 135.394 396 125.571 343 C115.934 291 127.037 243 155.624 203 L64.3527 126 L80.4606 105 L171.546 181 C203.801 150 249.094 130 301.094 130 C352.094 130 403.616 149 449.546 181 L511.461 105 Z M155.571 343 C174.847 447 277.488 526 374.488 526 C473.488 526 544.661 446 525.571 343 C506.852 242 405.654 160 306.654 160 C209.654 160 136.852 242 155.571 343 L155.571 343 Z " />
<glyph glyph-name="yen" unicode="&#xa5;" horiz-adv-x="555" d="M584.804 409 L395.804 409 L661.151 740 L629.151 740 L348.282 390 L201.151 740 L169.151 740 L307.804 409 L122.804 409 L117.985 383 L317.985 383 L327.166 357 L311.968 275 L97.9682 275 L93.1494 249 L307.149 249 L261 0 L291 0 L337.149 249 L555.149 249 L559.968 275 L341.968 275 L357.166 357 L374.985 383 L579.985 383 L584.804 409 Z " />
<glyph glyph-name="brokenbar" unicode="&#xa6;" horiz-adv-x="555" d="M400.151 740 L337.877 404 L367.877 404 L430.151 740 L400.151 740 Z M306.74 236 L244.466 -100 L274.466 -100 L336.74 236 L306.74 236 Z " />
<glyph glyph-name="section" unicode="&#xa7;" horiz-adv-x="573" d="M584.609 586 C604.44 693 541.56 753 433.56 753 C333.56 753 242.884 690 223.238 584 C212.674 527 234.557 494 249.407 477 C171.734 441 130.058 378 120.05 324 C99.8479 215 170.917 183 192.508 170 L370.827 80 C443.155 44 458.297 7 451.289 -47 C431.423 -138 354.23 -193 252.23 -193 C160.044 -194 78.5698 -148 99.4398 -30 L105.185 1 L77.1853 1 L71.2545 -31 C35.6694 -223 230.669 -223 247.669 -223 C364.669 -223 460.57 -148 479.289 -47 C485.591 -13 485.858 37 432.827 80 C495.943 113 544.693 171 556.555 235 C574.903 334 489.873 377 466.097 389 L329.256 460 C289.963 480 238.967 507 251.794 587 C267.806 668 338 723 428 723 C505 723 567.552 699 556.609 586 L584.609 586 Z M447.278 363 C485.386 342 542.196 314 528.184 233 C514.766 166 447.758 112 407.978 97 L202.253 201 C159.516 224 138.3 266 147.494 321 C160.541 386 208.066 432 266.885 458 L447.278 363 Z " />
<glyph glyph-name="dieresis" unicode="&#xa8;" horiz-adv-x="555" d="M368.039 734 L339.039 734 L317.54 618 L346.54 618 L368.039 734 Z M488.039 734 L459.039 734 L437.54 618 L466.54 618 L488.039 734 Z " />
<glyph glyph-name="copyright" unicode="&#xa9;" horiz-adv-x="800" d="M683.588 451 C688.898 539 618.389 601 518.389 601 C388.389 601 283.782 506 258.39 369 C228.921 210 326.947 140 429.947 140 C531.947 140 638.551 208 669.791 328 L641.791 328 C596.805 177 467.766 166 435.766 166 C351.766 166 258.775 220 286.575 370 C310.669 500 408.57 575 512.57 575 C580.57 575 654.454 542 655.588 451 L683.588 451 Z M539.19 751 C318.19 751 125.311 579 86.5754 370 C45.9862 151 183.961 -11 397.961 -11 C608.961 -11 809.357 153 849.575 370 C888.682 581 757.19 751 539.19 751 L539.19 751 Z M534.371 725 C739.371 725 857.531 564 821.575 370 C784.322 169 599.78 15 402.78 15 C202.78 15 77.693 171 114.575 370 C150.346 563 328.371 725 534.371 725 L534.371 725 Z " />
<glyph glyph-name="ordfeminine" unicode="&#xaa;" horiz-adv-x="439" d="M451.743 495 L436.36 412 L464.36 412 L526.078 745 L498.078 745 L482.324 660 L480.324 660 C475.845 679 465.181 697 452.776 711 C428.78 738 388.56 753 346.56 753 C244.56 753 151.104 675 133.311 579 C116.445 488 172.877 404 281.877 404 C299.877 404 337.062 405 378.325 428 C419.773 452 439.407 477 449.743 495 L451.743 495 Z M160.57 575 C178.548 672 265.741 727 341.741 727 C423.741 727 482.694 662 467.126 578 C452.669 500 378.696 430 287.696 430 C188.696 430 148.523 510 160.57 575 L160.57 575 Z " />
<glyph glyph-name="guillemotleft" unicode="&#xab;" horiz-adv-x="351" d="M100.154 276 L175.568 84 L200.387 110 L135.154 276 L262.105 443 L246.924 469 L100.154 276 Z M211.154 276 L287.568 84 L311.387 110 L246.154 276 L373.105 443 L358.924 469 L211.154 276 Z " />
<glyph glyph-name="logicalnot" unicode="&#xac;" horiz-adv-x="600" d="M116.907 361 L111.718 333 L583.718 333 L547.762 139 L575.762 139 L616.907 361 L116.907 361 Z " />
<glyph glyph-name="registered" unicode="&#xae;" horiz-adv-x="800" d="M344.165 589 L262.059 146 L290.059 146 L327.313 347 L469.313 347 C592.313 347 591.084 308 583.593 246 C573.396 164 572.098 157 577.059 146 L606.059 146 C600.025 162 601.693 171 612.188 260 C617.899 307 613.942 345 553.722 360 L554.093 362 C603.502 375 649.174 411 660.109 470 C682.165 589 555.165 589 529.165 589 L344.165 589 Z M519.346 563 C552.346 563 649.346 563 632.109 470 C614.502 375 504.873 377 472.131 373 L332.131 373 L367.346 563 L519.346 563 Z M539.19 751 C318.19 751 125.311 579 86.5754 370 C45.9862 151 183.961 -11 397.961 -11 C608.961 -11 809.357 153 849.575 370 C888.682 581 757.19 751 539.19 751 L539.19 751 Z M534.371 725 C739.371 725 857.531 564 821.575 370 C784.322 169 599.78 15 402.78 15 C202.78 15 77.693 171 114.575 370 C150.346 563 328.371 725 534.371 725 L534.371 725 Z " />
<glyph glyph-name="macron" unicode="&#xaf;" horiz-adv-x="555" d="M582.884 690 L226.884 690 L221.324 660 L577.324 660 L582.884 690 Z " />
<glyph glyph-name="degree" unicode="&#xb0;" horiz-adv-x="400" d="M447.902 566 C462.729 646 411.405 709 331.405 709 C251.405 709 176.729 646 161.902 566 C147.075 486 198.398 423 278.398 423 C358.398 423 433.075 486 447.902 566 L447.902 566 Z M189.902 566 C201.764 630 261.216 681 326.216 681 C391.216 681 431.764 630 419.902 566 C408.04 502 348.588 451 283.588 451 C218.588 451 178.04 502 189.902 566 L189.902 566 Z " />
<glyph glyph-name="plusminus" unicode="&#xb1;" horiz-adv-x="600" d="M343.27 309 L105.27 309 L100.08 281 L338.08 281 L301.568 84 L329.568 84 L366.08 281 L604.08 281 L609.27 309 L371.27 309 L407.782 506 L379.782 506 L343.27 309 Z M48 0 L552 0 L557.189 28 L53.1895 28 L48 0 Z " />
<glyph glyph-name="twosuperior" unicode="&#xb2;" horiz-adv-x="351" d="M366.494 321 L134.494 321 L331.557 494 C378.342 536 410.014 572 418.169 616 C433.367 698 390.634 748 314.634 748 C252.634 748 174.035 707 154.203 600 L182.203 600 C196.475 677 246 723 308 723 C386 723 399.436 666 390.169 616 C384.053 583 361.678 554 315.894 512 L95.1231 319 L90.8603 296 L361.86 296 L366.494 321 Z " />
<glyph glyph-name="threesuperior" unicode="&#xb3;" horiz-adv-x="351" d="M112.696 430 C96.0886 335 158.378 288 225.378 288 C306.378 288 375.127 346 390.14 427 C400.519 483 373.415 531 328.122 551 C346.79 560 391.423 585 402.173 643 C413.849 706 369.634 748 315.634 748 C269.634 748 204.259 719 185.988 642 L213.988 642 C224.884 690 263.185 724 311 723 C359.815 722 381.957 685 373.988 642 C371.393 628 353.161 562 268.161 562 L241.161 562 L236.527 537 L263.527 537 C349.527 537 370.295 471 361.769 425 C349.907 361 300.011 313 230.011 313 C186.011 313 126.386 342 140.696 430 L112.696 430 Z " />
<glyph glyph-name="acute" unicode="&#xb4;" horiz-adv-x="555" d="M276.393 628 L285.13 605 L548.707 743 L538.97 766 L276.393 628 Z " />
<glyph glyph-name="mu" unicode="&#xb5;" horiz-adv-x="561" d="M39.4536 -181 L67.4536 -181 L115.271 77 L117.271 77 C129.34 45 158.591 -13 270.591 -13 C397.591 -13 454.086 76 476.055 119 L478.055 119 L456 0 L484 0 L582.23 530 L554.23 530 L507.524 278 C473.978 97 384.409 13 275.409 13 C240.409 13 185.521 19 152.788 69 C122.943 113 133.62 176 143.628 230 L199.23 530 L171.23 530 L39.4536 -181 Z " />
<glyph glyph-name="paragraph" unicode="&#xb6;" horiz-adv-x="561" d="M215.647 -126 L245.647 -126 L400.591 710 L529.591 710 L374.647 -126 L404.647 -126 L559.961 712 L623.961 712 L629.151 740 L383.151 740 C313.151 740 260 723 233.22 708 C179.66 678 126.54 618 112.083 540 C92.8078 436 150.571 343 282.571 343 L302.571 343 L215.647 -126 Z " />
<glyph glyph-name="periodcentered" unicode="&#xb7;" horiz-adv-x="277" d="M208.86 296 L178.86 296 L163.848 215 L193.848 215 L208.86 296 Z " />
<glyph glyph-name="cedilla" unicode="&#xb8;" horiz-adv-x="555" d="M290 0 L261 0 L196.466 -100 L217.539 -105 C230.69 -88 246.173 -80 263.173 -80 C287.173 -80 304.837 -98 300.833 -125 C293.716 -158 267.751 -174 245.751 -174 C238.751 -174 207.751 -174 205.238 -139 L178.238 -139 C177.303 -198 227.747 -201 240.747 -201 C289.747 -201 321.16 -161 327.833 -125 C334.134 -91 315.992 -54 268.992 -54 C262.992 -54 257.621 -56 255.436 -57 L253.621 -56 L290 0 Z " />
<glyph glyph-name="onesuperior" unicode="&#xb9;" horiz-adv-x="351" d="M334.151 740 L211.151 740 L206.517 715 L301.517 715 L223.86 296 L251.86 296 L334.151 740 Z " />
<glyph glyph-name="ordmasculine" unicode="&#xba;" horiz-adv-x="439" d="M150.57 575 C132.963 480 198.877 404 292.877 404 C381.877 404 482.665 473 502.311 579 C519.548 672 462.56 753 357.56 753 C258.375 752 169.289 676 150.57 575 L150.57 575 Z M178.755 576 C195.806 668 276.741 727 354.741 727 C439.741 727 488.138 659 474.311 579 C457.187 492 375.696 430 297.696 430 C216.696 430 164.299 498 178.755 576 L178.755 576 Z " />
<glyph glyph-name="guillemotright" unicode="&#xbb;" horiz-adv-x="351" d="M277.924 469 L253.105 443 L318.154 276 L191.387 110 L206.568 84 L353.154 276 L277.924 469 Z M165.924 469 L142.105 443 L207.154 276 L80.3873 110 L94.5685 84 L242.154 276 L165.924 469 Z " />
<glyph glyph-name="onequarter" unicode="&#xbc;" horiz-adv-x="700" d="M639.151 740 L609.151 740 L143 0 L172 0 L639.151 740 Z M661.433 407 L663.062 405 L662.433 407 L607.387 110 L413.387 110 L661.433 407 Z M304.151 740 L181.151 740 L176.517 715 L271.517 715 L193.86 296 L221.86 296 L304.151 740 Z M697.291 444 L664.291 444 L378.646 106 L374.754 85 L602.754 85 L587 0 L615 0 L630.754 85 L672.754 85 L677.387 110 L635.387 110 L697.291 444 Z " />
<glyph glyph-name="onehalf" unicode="&#xbd;" horiz-adv-x="750" d="M304.151 740 L181.151 740 L176.517 715 L271.517 715 L193.86 296 L221.86 296 L304.151 740 Z M639.151 740 L609.151 740 L143 0 L172 0 L639.151 740 Z M711.633 25 L479.633 25 L676.697 198 C723.481 240 755.154 276 763.308 320 C778.506 402 735.773 452 659.773 452 C597.773 452 519.174 411 499.343 304 L527.343 304 C541.614 381 591.14 427 653.14 427 C731.14 427 744.575 370 735.308 320 C729.192 287 706.817 258 661.033 216 L440.263 23 L436 0 L707 0 L711.633 25 Z " />
<glyph glyph-name="threequarters" unicode="&#xbe;" horiz-adv-x="807" d="M769.433 407 L771.062 405 L770.433 407 L715.387 110 L521.387 110 L769.433 407 Z M747.151 740 L717.151 740 L251 0 L280 0 L747.151 740 Z M805.291 444 L772.291 444 L486.646 106 L482.754 85 L710.754 85 L695 0 L723 0 L738.754 85 L780.754 85 L785.387 110 L743.387 110 L805.291 444 Z M119.696 430 C103.089 335 165.378 288 232.378 288 C313.378 288 382.127 346 397.14 427 C407.519 483 380.415 531 335.122 551 C353.79 560 398.423 585 409.173 643 C420.849 706 376.634 748 322.634 748 C276.634 748 211.259 719 192.988 642 L220.988 642 C231.884 690 270.185 724 318 723 C366.815 722 388.957 685 380.988 642 C378.393 628 360.161 562 275.161 562 L248.161 562 L243.527 537 L270.527 537 C356.527 537 377.295 471 368.769 425 C356.907 361 307.011 313 237.011 313 C193.011 313 133.386 342 147.696 430 L119.696 430 Z " />
<glyph glyph-name="questiondown" unicode="&#xbf;" horiz-adv-x="536" d="M330.463 364 C322.123 319 311.261 255 221.361 180 C155.353 126 81.6031 68 66.7759 -12 C43.6086 -137 128.855 -222 239.855 -222 C317.855 -222 456.936 -173 493.591 -13 L463.591 -13 C434.311 -144 321.6 -191 244.6 -191 C139.6 -191 78.6127 -110 96.4053 -14 C113.491 62 168.163 98 230.172 152 C332.555 235 346.416 299 360.463 364 L330.463 364 Z M347.217 449 L376.217 449 L391.23 530 L362.23 530 L347.217 449 Z " />
<glyph glyph-name="Agrave" unicode="&#xc0;" horiz-adv-x="687" d="M245.635 258 L632.635 258 L648 0 L680 0 L637.302 740 L598.302 740 L7 0 L39 0 L245.635 258 Z M606.923 712 L629.643 285 L268.643 285 L606.923 712 Z M576.515 951 L553.989 928 L740.836 790 L762.361 813 L576.515 951 Z " />
<glyph glyph-name="Aacute" unicode="&#xc1;" horiz-adv-x="687" d="M245.635 258 L632.635 258 L648 0 L680 0 L637.302 740 L598.302 740 L7 0 L39 0 L245.635 258 Z M606.923 712 L629.643 285 L268.643 285 L606.923 712 Z M527.361 813 L531.836 790 L820.989 928 L815.515 951 L527.361 813 Z " />
<glyph glyph-name="Acircumflex" unicode="&#xc2;" horiz-adv-x="687" d="M245.635 258 L632.635 258 L648 0 L680 0 L637.302 740 L598.302 740 L7 0 L39 0 L245.635 258 Z M606.923 712 L629.643 285 L268.643 285 L606.923 712 Z M688.843 933 L453.068 823 L472.508 808 L677.352 902 L812.508 808 L844.068 823 L688.843 933 Z " />
<glyph glyph-name="Atilde" unicode="&#xc3;" horiz-adv-x="687" d="M245.635 258 L632.635 258 L648 0 L680 0 L637.302 740 L598.302 740 L7 0 L39 0 L245.635 258 Z M606.923 712 L629.643 285 L268.643 285 L606.923 712 Z M830.567 881 C797.636 865 778.042 858 752.042 858 C718.042 858 702.636 865 673.05 885 C635.834 906 617.946 909 596.946 909 C549.946 909 514.645 892 485.973 874 L498.559 854 C518.007 866 551.567 881 586.567 881 C612.567 881 624.714 876 660.188 853 C688.404 832 714.921 828 741.921 828 C774.921 828 812.852 844 842.783 860 L830.567 881 Z " />
<glyph glyph-name="Adieresis" unicode="&#xc4;" horiz-adv-x="687" d="M245.635 258 L632.635 258 L648 0 L680 0 L637.302 740 L598.302 740 L7 0 L39 0 L245.635 258 Z M606.923 712 L629.643 285 L268.643 285 L606.923 712 Z M638.653 919 L609.653 919 L566.654 803 L595.654 803 L638.653 919 Z M758.653 919 L729.653 919 L686.654 803 L715.654 803 L758.653 919 Z " />
<glyph glyph-name="Aring" unicode="&#xc5;" horiz-adv-x="687" d="M245.635 258 L632.635 258 L648 0 L680 0 L637.302 740 L598.302 740 L7 0 L39 0 L245.635 258 Z M606.923 712 L629.643 285 L268.643 285 L606.923 712 Z M690.325 937 C641.325 937 584.498 897 565.594 846 C547.06 796 572.862 755 622.862 755 C673.862 755 730.06 796 748.594 846 C767.127 896 741.325 937 690.325 937 L690.325 937 Z M680.688 911 C716.688 911 733.938 882 720.964 847 C708.361 813 669.612 784 633.612 784 C598.612 784 581.361 813 593.964 847 C606.938 882 645.688 911 680.688 911 L680.688 911 Z " />
<glyph glyph-name="AE" unicode="&#xc6;" horiz-adv-x="944" d="M641.151 740 L-8 0 L26 0 L257.929 264 L572.929 264 L524 0 L870 0 L875.004 27 L559.004 27 L620.537 359 L936.537 359 L941.541 386 L625.541 386 L686.147 713 L1002.15 713 L1007.15 740 L641.151 740 Z M655.815 722 L657.815 722 L577.934 291 L284.934 291 L655.815 722 Z " />
<glyph glyph-name="Ccedilla" unicode="&#xc7;" horiz-adv-x="786" d="M743.84 161 C717.465 132 600.595 14 427.595 14 C231.595 14 101.581 165 139.575 370 C177.57 575 363.556 726 559.556 726 C723.371 725 799.798 614 820.57 575 L855.57 575 C817.138 659 722.375 752 564.56 753 C352.56 753 150.721 592 109.575 370 C70.4689 159 196.741 4 389.961 -11 L332.466 -100 L353.539 -105 C366.69 -88 382.173 -80 399.173 -80 C423.173 -80 440.837 -98 436.833 -125 C429.716 -158 403.751 -174 381.751 -174 C374.751 -174 343.751 -174 341.238 -139 L314.238 -139 C313.303 -198 363.747 -201 376.747 -201 C425.747 -201 457.16 -161 463.833 -125 C470.134 -91 451.992 -54 404.992 -54 C398.992 -54 393.621 -56 391.436 -57 L389.621 -56 L417.591 -13 L422.591 -13 C577.591 -13 712.086 76 777.84 161 L743.84 161 Z " />
<glyph glyph-name="Egrave" unicode="&#xc8;" horiz-adv-x="547" d="M351.302 740 L77 0 L483 0 L493.008 27 L117.008 27 L240.073 359 L616.073 359 L626.082 386 L250.082 386 L371.293 713 L747.293 713 L757.302 740 L351.302 740 Z M506.515 951 L483.989 928 L670.836 790 L692.361 813 L506.515 951 Z " />
<glyph glyph-name="Eacute" unicode="&#xc9;" horiz-adv-x="547" d="M351.302 740 L77 0 L483 0 L493.008 27 L117.008 27 L240.073 359 L616.073 359 L626.082 386 L250.082 386 L371.293 713 L747.293 713 L757.302 740 L351.302 740 Z M457.361 813 L461.836 790 L750.989 928 L745.515 951 L457.361 813 Z " />
<glyph glyph-name="Ecircumflex" unicode="&#xca;" horiz-adv-x="547" d="M351.302 740 L77 0 L483 0 L493.008 27 L117.008 27 L240.073 359 L616.073 359 L626.082 386 L250.082 386 L371.293 713 L747.293 713 L757.302 740 L351.302 740 Z M618.843 933 L383.068 823 L402.508 808 L607.352 902 L742.508 808 L774.068 823 L618.843 933 Z " />
<glyph glyph-name="Edieresis" unicode="&#xcb;" horiz-adv-x="547" d="M351.302 740 L77 0 L483 0 L493.008 27 L117.008 27 L240.073 359 L616.073 359 L626.082 386 L250.082 386 L371.293 713 L747.293 713 L757.302 740 L351.302 740 Z M568.653 919 L539.653 919 L496.654 803 L525.654 803 L568.653 919 Z M688.653 919 L659.653 919 L616.654 803 L645.654 803 L688.653 919 Z " />
<glyph glyph-name="Igrave" unicode="&#xcc;" horiz-adv-x="185" d="M381.302 740 L351.302 740 L77 0 L107 0 L381.302 740 Z M305.515 951 L282.989 928 L469.836 790 L491.361 813 L305.515 951 Z " />
<glyph glyph-name="Iacute" unicode="&#xcd;" horiz-adv-x="185" d="M381.302 740 L351.302 740 L77 0 L107 0 L381.302 740 Z M296.361 813 L300.836 790 L589.989 928 L584.515 951 L296.361 813 Z " />
<glyph glyph-name="Icircumflex" unicode="&#xce;" horiz-adv-x="185" d="M381.302 740 L351.302 740 L77 0 L107 0 L381.302 740 Z M437.843 933 L202.068 823 L221.508 808 L426.352 902 L561.508 808 L593.068 823 L437.843 933 Z " />
<glyph glyph-name="Idieresis" unicode="&#xcf;" horiz-adv-x="185" d="M381.302 740 L351.302 740 L77 0 L107 0 L381.302 740 Z M387.653 919 L358.653 919 L315.654 803 L344.654 803 L387.653 919 Z M507.653 919 L478.653 919 L435.654 803 L464.654 803 L507.653 919 Z " />
<glyph glyph-name="Eth" unicode="&#xd0;" horiz-adv-x="701" d="M143.537 359 L77 0 L286 0 C519 0 684.391 137 727.575 370 C770.759 603 656.151 740 423.151 740 L214.151 740 L148.541 386 L71.5409 386 L66.5367 359 L143.537 359 Z M429.541 386 L178.541 386 L239.147 713 L418.147 713 C635.147 713 737.238 584 697.205 368 C657.542 154 505.004 27 291.004 27 L112.004 27 L173.537 359 L424.537 359 L429.541 386 Z " />
<glyph glyph-name="Ntilde" unicode="&#xd1;" horiz-adv-x="738" d="M396.302 740 L351.302 740 L77 0 L107 0 L370.181 710 L372.181 710 L623 0 L661 0 L935.302 740 L905.302 740 L645.827 40 L643.827 40 L396.302 740 Z M856.567 881 C823.636 865 804.042 858 778.042 858 C744.042 858 728.636 865 699.05 885 C661.834 906 643.946 909 622.946 909 C575.946 909 540.645 892 511.973 874 L524.559 854 C544.007 866 577.567 881 612.567 881 C638.567 881 650.714 876 686.188 853 C714.404 832 740.921 828 767.921 828 C800.921 828 838.852 844 868.783 860 L856.567 881 Z " />
<glyph glyph-name="Ograve" unicode="&#xd2;" horiz-adv-x="851" d="M178.151 370 C95.8603 148 208.181 -13 420.181 -13 C632.181 -13 863.86 148 946.151 370 C1028.44 592 916.121 753 704.121 753 C492.121 753 260.441 592 178.151 370 L178.151 370 Z M208.151 370 C284.14 575 498.112 726 694.112 726 C890.112 726 992.14 575 916.151 370 C840.162 165 626.189 14 430.189 14 C234.189 14 132.162 165 208.151 370 L208.151 370 Z M658.515 951 L635.989 928 L822.836 790 L844.361 813 L658.515 951 Z " />
<glyph glyph-name="Oacute" unicode="&#xd3;" horiz-adv-x="851" d="M178.151 370 C95.8603 148 208.181 -13 420.181 -13 C632.181 -13 863.86 148 946.151 370 C1028.44 592 916.121 753 704.121 753 C492.121 753 260.441 592 178.151 370 L178.151 370 Z M208.151 370 C284.14 575 498.112 726 694.112 726 C890.112 726 992.14 575 916.151 370 C840.162 165 626.189 14 430.189 14 C234.189 14 132.162 165 208.151 370 L208.151 370 Z M609.361 813 L613.836 790 L902.989 928 L897.515 951 L609.361 813 Z " />
<glyph glyph-name="Ocircumflex" unicode="&#xd4;" horiz-adv-x="851" d="M178.151 370 C95.8603 148 208.181 -13 420.181 -13 C632.181 -13 863.86 148 946.151 370 C1028.44 592 916.121 753 704.121 753 C492.121 753 260.441 592 178.151 370 L178.151 370 Z M208.151 370 C284.14 575 498.112 726 694.112 726 C890.112 726 992.14 575 916.151 370 C840.162 165 626.189 14 430.189 14 C234.189 14 132.162 165 208.151 370 L208.151 370 Z M770.843 933 L535.068 823 L554.508 808 L759.352 902 L894.508 808 L926.068 823 L770.843 933 Z " />
<glyph glyph-name="Otilde" unicode="&#xd5;" horiz-adv-x="851" d="M178.151 370 C95.8603 148 208.181 -13 420.181 -13 C632.181 -13 863.86 148 946.151 370 C1028.44 592 916.121 753 704.121 753 C492.121 753 260.441 592 178.151 370 L178.151 370 Z M208.151 370 C284.14 575 498.112 726 694.112 726 C890.112 726 992.14 575 916.151 370 C840.162 165 626.189 14 430.189 14 C234.189 14 132.162 165 208.151 370 L208.151 370 Z M912.567 881 C879.636 865 860.042 858 834.042 858 C800.042 858 784.636 865 755.05 885 C717.834 906 699.946 909 678.946 909 C631.946 909 596.645 892 567.973 874 L580.559 854 C600.007 866 633.567 881 668.567 881 C694.567 881 706.714 876 742.188 853 C770.404 832 796.921 828 823.921 828 C856.921 828 894.852 844 924.783 860 L912.567 881 Z " />
<glyph glyph-name="Odieresis" unicode="&#xd6;" horiz-adv-x="851" d="M178.151 370 C95.8603 148 208.181 -13 420.181 -13 C632.181 -13 863.86 148 946.151 370 C1028.44 592 916.121 753 704.121 753 C492.121 753 260.441 592 178.151 370 L178.151 370 Z M208.151 370 C284.14 575 498.112 726 694.112 726 C890.112 726 992.14 575 916.151 370 C840.162 165 626.189 14 430.189 14 C234.189 14 132.162 165 208.151 370 L208.151 370 Z M720.653 919 L691.653 919 L648.654 803 L677.654 803 L720.653 919 Z M840.653 919 L811.653 919 L768.654 803 L797.654 803 L840.653 919 Z " />
<glyph glyph-name="multiply" unicode="&#xd7;" horiz-adv-x="600" d="M162.484 499 L138.407 477 L325.52 251 L54.2628 23 L70.3707 2 L342.813 231 L530.371 2 L554.263 23 L367.52 251 L638.407 477 L622.484 499 L350.227 271 L162.484 499 Z " />
<glyph glyph-name="Oslash" unicode="&#xd8;" horiz-adv-x="851" d="M223.124 87 C151.801 150 117.52 251 139.575 370 C177.57 575 363.556 726 559.556 726 C634.556 726 699.479 704 750.25 665 L223.124 87 Z M770.914 647 C837.238 584 868.889 485 847.575 370 C809.581 165 623.595 14 427.595 14 C356.595 14 294.302 34 245.159 71 L770.914 647 Z M771.513 688 C718.112 729 646.56 753 564.56 753 C352.56 753 150.721 592 109.575 370 C85.6667 241 124.465 132 201.862 64 L81.3969 -68 L101.061 -86 L223.896 48 C275.668 9 344.591 -13 422.591 -13 C634.591 -13 836.43 148 877.575 370 C900.743 495 866.203 600 792.177 670 L902.603 791 L881.939 809 L771.513 688 Z " />
<glyph glyph-name="Ugrave" unicode="&#xd9;" horiz-adv-x="605" d="M172.376 260 C146.541 193 112.473 93 176.862 32 C204.483 4 247.181 -13 297.181 -13 C348.181 -13 403.483 4 451.862 32 C561.473 93 601.541 193 625.376 260 L803.302 740 L773.302 740 L595.376 260 C568.687 188 551.636 142 483.396 82 C435.827 40 365.189 14 309.189 14 C250.189 14 198.827 40 182.396 82 C158.636 142 175.687 188 202.376 260 L380.302 740 L350.302 740 L172.376 260 Z M535.515 951 L512.989 928 L699.836 790 L721.361 813 L535.515 951 Z " />
<glyph glyph-name="Uacute" unicode="&#xda;" horiz-adv-x="605" d="M172.376 260 C146.541 193 112.473 93 176.862 32 C204.483 4 247.181 -13 297.181 -13 C348.181 -13 403.483 4 451.862 32 C561.473 93 601.541 193 625.376 260 L803.302 740 L773.302 740 L595.376 260 C568.687 188 551.636 142 483.396 82 C435.827 40 365.189 14 309.189 14 C250.189 14 198.827 40 182.396 82 C158.636 142 175.687 188 202.376 260 L380.302 740 L350.302 740 L172.376 260 Z M486.361 813 L490.836 790 L779.989 928 L774.515 951 L486.361 813 Z " />
<glyph glyph-name="Ucircumflex" unicode="&#xdb;" horiz-adv-x="605" d="M172.376 260 C146.541 193 112.473 93 176.862 32 C204.483 4 247.181 -13 297.181 -13 C348.181 -13 403.483 4 451.862 32 C561.473 93 601.541 193 625.376 260 L803.302 740 L773.302 740 L595.376 260 C568.687 188 551.636 142 483.396 82 C435.827 40 365.189 14 309.189 14 C250.189 14 198.827 40 182.396 82 C158.636 142 175.687 188 202.376 260 L380.302 740 L350.302 740 L172.376 260 Z M647.843 933 L412.068 823 L431.508 808 L636.352 902 L771.508 808 L803.068 823 L647.843 933 Z " />
<glyph glyph-name="Udieresis" unicode="&#xdc;" horiz-adv-x="605" d="M172.376 260 C146.541 193 112.473 93 176.862 32 C204.483 4 247.181 -13 297.181 -13 C348.181 -13 403.483 4 451.862 32 C561.473 93 601.541 193 625.376 260 L803.302 740 L773.302 740 L595.376 260 C568.687 188 551.636 142 483.396 82 C435.827 40 365.189 14 309.189 14 C250.189 14 198.827 40 182.396 82 C158.636 142 175.687 188 202.376 260 L380.302 740 L350.302 740 L172.376 260 Z M597.653 919 L568.653 919 L525.654 803 L554.654 803 L597.653 919 Z M717.653 919 L688.653 919 L645.654 803 L674.654 803 L717.653 919 Z " />
<glyph glyph-name="Yacute" unicode="&#xdd;" horiz-adv-x="554" d="M322.302 740 L289.302 740 L356.523 255 L262 0 L292 0 L386.523 255 L813.302 740 L779.302 740 L384.126 289 L322.302 740 Z M461.361 813 L465.836 790 L754.989 928 L749.515 951 L461.361 813 Z " />
<glyph glyph-name="Thorn" unicode="&#xde;" horiz-adv-x="511" d="M204.151 740 L67 0 L97 0 L127.396 164 L269.396 164 C365.396 164 406.878 172 462.551 208 C512.481 240 555.899 307 568.317 374 C580.734 441 562.152 508 524.083 540 C481.755 576 443.238 584 347.238 584 L205.238 584 L234.151 740 L204.151 740 Z M200.234 557 L343.234 557 C430.234 557 467.38 547 503.635 516 C533.631 489 548.881 431 538.131 373 C527.752 317 491.003 259 450.999 232 C403.253 201 362.4 191 275.4 191 L132.4 191 L200.234 557 Z " />
<glyph glyph-name="germandbls" unicode="&#xdf;" horiz-adv-x="559" d="M76 0 L104 0 L191.48 472 C208.902 566 220.613 613 263.88 663 C295.923 701 352.556 726 402.556 726 C500.556 726 558.25 665 537.863 555 C519.329 455 426.985 383 344.985 383 L317.985 383 L313.166 357 L341.166 357 C431.981 356 458.015 340 484.938 318 C534.042 270 527.18 206 522.361 180 C504.198 82 412.409 13 326.409 13 C261.595 14 164.896 48 185.4 191 L157.4 191 C136.302 34 231.776 -12 318.591 -13 C419.591 -13 529.232 66 551.288 185 C566.856 269 531.907 361 421.687 376 L422.058 378 C525.286 417 558.079 513 565.863 555 C587.362 671 528.375 752 406.375 752 C348.375 752 282.185 724 239.733 673 C202.134 632 184.609 586 163.48 472 L76 0 Z " />
<glyph glyph-name="agrave" unicode="&#xe0;" horiz-adv-x="674" d="M792.459 530 L764.459 530 L714.418 395 L712.418 395 C711.995 464 649.278 543 521.278 543 C350.278 543 193.349 411 139.23 265 C86.2227 122 141.181 -13 315.181 -13 C427.181 -13 535.568 42 614.929 132 L616.929 132 L568 0 L596 0 L792.459 530 Z M327.819 13 C156.819 13 123.748 145 167.23 265 C222.461 414 373.641 517 511.641 517 C653.641 517 722.978 410 669.23 265 C618.447 128 473.819 13 327.819 13 L327.819 13 Z M501.939 766 L479.414 743 L666.26 605 L687.786 628 L501.939 766 Z " />
<glyph glyph-name="aacute" unicode="&#xe1;" horiz-adv-x="674" d="M792.459 530 L764.459 530 L714.418 395 L712.418 395 C711.995 464 649.278 543 521.278 543 C350.278 543 193.349 411 139.23 265 C86.2227 122 141.181 -13 315.181 -13 C427.181 -13 535.568 42 614.929 132 L616.929 132 L568 0 L596 0 L792.459 530 Z M327.819 13 C156.819 13 123.748 145 167.23 265 C222.461 414 373.641 517 511.641 517 C653.641 517 722.978 410 669.23 265 C618.447 128 473.819 13 327.819 13 L327.819 13 Z M447.786 628 L452.26 605 L741.414 743 L735.939 766 L447.786 628 Z " />
<glyph glyph-name="acircumflex" unicode="&#xe2;" horiz-adv-x="674" d="M792.459 530 L764.459 530 L714.418 395 L712.418 395 C711.995 464 649.278 543 521.278 543 C350.278 543 193.349 411 139.23 265 C86.2227 122 141.181 -13 315.181 -13 C427.181 -13 535.568 42 614.929 132 L616.929 132 L568 0 L596 0 L792.459 530 Z M327.819 13 C156.819 13 123.748 145 167.23 265 C222.461 414 373.641 517 511.641 517 C653.641 517 722.978 410 669.23 265 C618.447 128 473.819 13 327.819 13 L327.819 13 Z M614.267 748 L378.493 638 L397.932 623 L602.776 717 L737.932 623 L769.493 638 L614.267 748 Z " />
<glyph glyph-name="atilde" unicode="&#xe3;" horiz-adv-x="674" d="M792.459 530 L764.459 530 L714.418 395 L712.418 395 C711.995 464 649.278 543 521.278 543 C350.278 543 193.349 411 139.23 265 C86.2227 122 141.181 -13 315.181 -13 C427.181 -13 535.568 42 614.929 132 L616.929 132 L568 0 L596 0 L792.459 530 Z M327.819 13 C156.819 13 123.748 145 167.23 265 C222.461 414 373.641 517 511.641 517 C653.641 517 722.978 410 669.23 265 C618.447 128 473.819 13 327.819 13 L327.819 13 Z M752.285 686 C719.354 670 699.76 663 673.76 663 C639.76 663 624.354 670 594.768 690 C557.552 711 539.664 714 518.664 714 C471.664 714 436.363 697 407.69 679 L420.277 659 C439.725 671 473.285 686 508.285 686 C534.285 686 546.432 681 581.906 658 C610.122 637 636.639 633 663.639 633 C696.639 633 734.57 649 764.501 665 L752.285 686 Z " />
<glyph glyph-name="adieresis" unicode="&#xe4;" horiz-adv-x="674" d="M792.459 530 L764.459 530 L714.418 395 L712.418 395 C711.995 464 649.278 543 521.278 543 C350.278 543 193.349 411 139.23 265 C86.2227 122 141.181 -13 315.181 -13 C427.181 -13 535.568 42 614.929 132 L616.929 132 L568 0 L596 0 L792.459 530 Z M327.819 13 C156.819 13 123.748 145 167.23 265 C222.461 414 373.641 517 511.641 517 C653.641 517 722.978 410 669.23 265 C618.447 128 473.819 13 327.819 13 L327.819 13 Z M564.078 734 L535.078 734 L492.079 618 L521.079 618 L564.078 734 Z M684.078 734 L655.078 734 L612.079 618 L641.079 618 L684.078 734 Z " />
<glyph glyph-name="aring" unicode="&#xe5;" horiz-adv-x="674" d="M792.459 530 L764.459 530 L714.418 395 L712.418 395 C711.995 464 649.278 543 521.278 543 C350.278 543 193.349 411 139.23 265 C86.2227 122 141.181 -13 315.181 -13 C427.181 -13 535.568 42 614.929 132 L616.929 132 L568 0 L596 0 L792.459 530 Z M327.819 13 C156.819 13 123.748 145 167.23 265 C222.461 414 373.641 517 511.641 517 C653.641 517 722.978 410 669.23 265 C618.447 128 473.819 13 327.819 13 L327.819 13 Z M624.275 775 C575.275 775 518.448 735 499.544 684 C481.01 634 506.812 593 556.812 593 C607.812 593 664.01 634 682.544 684 C701.078 734 675.275 775 624.275 775 L624.275 775 Z M614.638 749 C650.638 749 667.888 720 654.914 685 C642.311 651 603.562 622 567.562 622 C532.562 622 515.311 651 527.914 685 C540.888 720 579.638 749 614.638 749 L614.638 749 Z " />
<glyph glyph-name="ae" unicode="&#xe6;" horiz-adv-x="1154" d="M693.23 530 L665.23 530 L636.502 375 L634.502 375 C631.282 390 630.062 405 623.028 421 C586.411 504 507.639 543 418.639 543 C261.639 543 119.398 423 89.9295 264 L90.1148 265 C60.6459 106 158.591 -13 317.591 -13 C363.776 -12 474.927 5 557.719 101 C573.87 118 583.391 137 595.025 162 L597.025 162 L567 0 L595 0 L625.025 162 L627.025 162 C629.577 138 633.241 120 641.905 102 C679.004 27 752.405 -14 843.591 -13 C969.591 -13 1076.09 76 1125.36 153 L1092.36 153 C1042.12 87 954.409 13 845.409 13 C771.409 13 623.564 57 643.559 262 L1161.56 262 C1185.62 408 1109.64 543 935.639 543 C874.639 543 782.859 528 695.213 422 C684.618 408 678.209 395 666.687 376 L664.687 376 L693.23 530 Z M649.378 288 C666.089 335 682.799 382 739.622 435 C810.04 502 876.82 517 932.82 517 C1057.82 517 1139.36 439 1135.38 288 L649.378 288 Z M617.115 265 C591.723 128 456.409 13 323.409 13 C179.409 13 91.426 121 118.115 265 C144.804 409 272.82 517 416.82 517 C553.82 517 641.765 398 617.115 265 L617.115 265 Z " />
<glyph glyph-name="ccedilla" unicode="&#xe7;" horiz-adv-x="619" d="M582.952 167 C542.31 88 442.595 14 322.409 13 C187.409 13 90.314 115 118.115 265 C131.459 337 174.433 407 224.661 446 C288.743 495 341.635 516 416.82 517 C497.006 518 600.036 475 619.351 358 L650.351 358 C631.519 483 528.639 543 420.639 543 C260.639 543 120.213 422 90.1148 265 C61.3873 110 150.371 2 288.147 -10 L230.466 -100 L251.539 -105 C264.69 -88 280.173 -80 297.173 -80 C321.173 -80 338.837 -98 334.833 -125 C327.716 -158 301.751 -174 279.751 -174 C272.751 -174 241.751 -174 239.238 -139 L212.238 -139 C211.303 -198 261.747 -201 274.747 -201 C323.747 -201 355.16 -161 361.833 -125 C368.134 -91 349.992 -54 302.992 -54 C296.992 -54 291.621 -56 289.436 -57 L287.621 -56 L315.591 -13 L317.591 -13 C443.961 -11 556.935 59 613.952 167 L582.952 167 Z " />
<glyph glyph-name="egrave" unicode="&#xe8;" horiz-adv-x="619" d="M685.118 262 L691.678 277 C745.469 441 654.278 543 512.278 543 C354.278 543 187.797 423 128.859 264 L129.23 265 C70.6625 107 143.181 -13 305.181 -13 C411.811 -14 533.827 40 624.714 153 L593.714 153 C518.353 63 413.819 13 315.819 13 C211.448 12 94.9903 89 157.118 262 L685.118 262 Z M167.755 288 C225.426 422 371.641 517 502.641 517 C628.494 522 708.202 416 666.755 288 L167.755 288 Z M473.939 766 L451.414 743 L638.26 605 L659.786 628 L473.939 766 Z " />
<glyph glyph-name="eacute" unicode="&#xe9;" horiz-adv-x="619" d="M685.118 262 L691.678 277 C745.469 441 654.278 543 512.278 543 C354.278 543 187.797 423 128.859 264 L129.23 265 C70.6625 107 143.181 -13 305.181 -13 C411.811 -14 533.827 40 624.714 153 L593.714 153 C518.353 63 413.819 13 315.819 13 C211.448 12 94.9903 89 157.118 262 L685.118 262 Z M167.755 288 C225.426 422 371.641 517 502.641 517 C628.494 522 708.202 416 666.755 288 L167.755 288 Z M419.786 628 L424.26 605 L713.414 743 L707.939 766 L419.786 628 Z " />
<glyph glyph-name="ecircumflex" unicode="&#xea;" horiz-adv-x="619" d="M685.118 262 L691.678 277 C745.469 441 654.278 543 512.278 543 C354.278 543 187.797 423 128.859 264 L129.23 265 C70.6625 107 143.181 -13 305.181 -13 C411.811 -14 533.827 40 624.714 153 L593.714 153 C518.353 63 413.819 13 315.819 13 C211.448 12 94.9903 89 157.118 262 L685.118 262 Z M167.755 288 C225.426 422 371.641 517 502.641 517 C628.494 522 708.202 416 666.755 288 L167.755 288 Z M586.267 748 L350.493 638 L369.932 623 L574.776 717 L709.932 623 L741.493 638 L586.267 748 Z " />
<glyph glyph-name="edieresis" unicode="&#xeb;" horiz-adv-x="619" d="M685.118 262 L691.678 277 C745.469 441 654.278 543 512.278 543 C354.278 543 187.797 423 128.859 264 L129.23 265 C70.6625 107 143.181 -13 305.181 -13 C411.811 -14 533.827 40 624.714 153 L593.714 153 C518.353 63 413.819 13 315.819 13 C211.448 12 94.9903 89 157.118 262 L685.118 262 Z M167.755 288 C225.426 422 371.641 517 502.641 517 C628.494 522 708.202 416 666.755 288 L167.755 288 Z M531.078 734 L502.078 734 L459.079 618 L488.079 618 L531.078 734 Z M651.078 734 L622.078 734 L579.079 618 L608.079 618 L651.078 734 Z " />
<glyph glyph-name="igrave" unicode="&#xec;" horiz-adv-x="184" d="M302.459 530 L274.459 530 L78 0 L106 0 L302.459 530 Z M236.939 766 L214.414 743 L401.26 605 L422.786 628 L236.939 766 Z " />
<glyph glyph-name="iacute" unicode="&#xed;" horiz-adv-x="184" d="M302.459 530 L274.459 530 L78 0 L106 0 L302.459 530 Z M227.786 628 L232.26 605 L521.414 743 L515.939 766 L227.786 628 Z " />
<glyph glyph-name="icircumflex" unicode="&#xee;" horiz-adv-x="184" d="M302.459 530 L274.459 530 L78 0 L106 0 L302.459 530 Z M369.267 748 L133.493 638 L152.932 623 L357.776 717 L492.932 623 L524.493 638 L369.267 748 Z " />
<glyph glyph-name="idieresis" unicode="&#xef;" horiz-adv-x="184" d="M302.459 530 L274.459 530 L78 0 L106 0 L302.459 530 Z M319.078 734 L290.078 734 L247.079 618 L276.079 618 L319.078 734 Z M439.078 734 L410.078 734 L367.079 618 L396.079 618 L439.078 734 Z " />
<glyph glyph-name="eth" unicode="&#xf0;" horiz-adv-x="641" d="M118.115 265 C143.618 408 271.635 516 417.82 517 C550.82 517 647.248 406 621.3 266 C594.797 123 468.409 13 322.409 13 C178.409 13 90.426 121 118.115 265 L118.115 265 Z M426.802 641 C505.277 595 569.156 535 606.329 455 L603.959 453 C567.523 510 496.639 543 421.639 543 C262.083 540 124.066 432 89.9295 264 C58.1978 82 176.591 -13 317.591 -13 C454.147 -10 615.939 86 649.3 266 C675.989 410 639.712 538 463.212 654 L638.259 719 L623.151 740 L435.177 670 C393.625 694 343.073 718 282.151 740 L245.371 725 C308.108 702 354.216 681 398.768 657 L205.238 584 L221.531 564 L426.802 641 Z " />
<glyph glyph-name="ntilde" unicode="&#xf1;" horiz-adv-x="641" d="M302.459 530 L274.459 530 L78 0 L106 0 L219.057 305 C268.357 438 378.899 515 512.641 517 C566.641 517 616.822 504 644.107 467 C670.762 431 673.892 372 639.79 280 L536 0 L564 0 L667.79 280 C703.004 375 704.322 446 668.632 490 C639.606 525 590.278 543 522.278 543 C439.02 545 328.192 505 266.65 428 L264.65 428 L302.459 530 Z M735.285 686 C702.354 670 682.76 663 656.76 663 C622.76 663 607.354 670 577.768 690 C540.552 711 522.664 714 501.664 714 C454.664 714 419.363 697 390.69 679 L403.277 659 C422.725 671 456.285 686 491.285 686 C517.285 686 529.432 681 564.906 658 C593.122 637 619.639 633 646.639 633 C679.639 633 717.57 649 747.501 665 L735.285 686 Z " />
<glyph glyph-name="ograve" unicode="&#xf2;" horiz-adv-x="641" d="M139.23 265 C80.2919 106 156.181 -13 315.181 -13 C474.181 -13 638.292 106 697.23 265 C755.797 423 680.278 543 521.278 543 C362.278 543 197.797 423 139.23 265 L139.23 265 Z M167.23 265 C220.607 409 368.641 517 511.641 517 C654.641 517 722.607 409 669.23 265 C615.852 121 467.819 13 324.819 13 C181.819 13 113.852 121 167.23 265 L167.23 265 Z M484.939 766 L462.414 743 L649.26 605 L670.786 628 L484.939 766 Z " />
<glyph glyph-name="oacute" unicode="&#xf3;" horiz-adv-x="641" d="M139.23 265 C80.2919 106 156.181 -13 315.181 -13 C474.181 -13 638.292 106 697.23 265 C755.797 423 680.278 543 521.278 543 C362.278 543 197.797 423 139.23 265 L139.23 265 Z M167.23 265 C220.607 409 368.641 517 511.641 517 C654.641 517 722.607 409 669.23 265 C615.852 121 467.819 13 324.819 13 C181.819 13 113.852 121 167.23 265 L167.23 265 Z M430.786 628 L435.26 605 L724.414 743 L718.939 766 L430.786 628 Z " />
<glyph glyph-name="ocircumflex" unicode="&#xf4;" horiz-adv-x="641" d="M139.23 265 C80.2919 106 156.181 -13 315.181 -13 C474.181 -13 638.292 106 697.23 265 C755.797 423 680.278 543 521.278 543 C362.278 543 197.797 423 139.23 265 L139.23 265 Z M167.23 265 C220.607 409 368.641 517 511.641 517 C654.641 517 722.607 409 669.23 265 C615.852 121 467.819 13 324.819 13 C181.819 13 113.852 121 167.23 265 L167.23 265 Z M597.267 748 L361.493 638 L380.932 623 L585.776 717 L720.932 623 L752.493 638 L597.267 748 Z " />
<glyph glyph-name="otilde" unicode="&#xf5;" horiz-adv-x="641" d="M139.23 265 C80.2919 106 156.181 -13 315.181 -13 C474.181 -13 638.292 106 697.23 265 C755.797 423 680.278 543 521.278 543 C362.278 543 197.797 423 139.23 265 L139.23 265 Z M167.23 265 C220.607 409 368.641 517 511.641 517 C654.641 517 722.607 409 669.23 265 C615.852 121 467.819 13 324.819 13 C181.819 13 113.852 121 167.23 265 L167.23 265 Z M735.285 686 C702.354 670 682.76 663 656.76 663 C622.76 663 607.354 670 577.768 690 C540.552 711 522.664 714 501.664 714 C454.664 714 419.363 697 390.69 679 L403.277 659 C422.725 671 456.285 686 491.285 686 C517.285 686 529.432 681 564.906 658 C593.122 637 619.639 633 646.639 633 C679.639 633 717.57 649 747.501 665 L735.285 686 Z " />
<glyph glyph-name="odieresis" unicode="&#xf6;" horiz-adv-x="641" d="M139.23 265 C80.2919 106 156.181 -13 315.181 -13 C474.181 -13 638.292 106 697.23 265 C755.797 423 680.278 543 521.278 543 C362.278 543 197.797 423 139.23 265 L139.23 265 Z M167.23 265 C220.607 409 368.641 517 511.641 517 C654.641 517 722.607 409 669.23 265 C615.852 121 467.819 13 324.819 13 C181.819 13 113.852 121 167.23 265 L167.23 265 Z M547.078 734 L518.078 734 L475.079 618 L504.079 618 L547.078 734 Z M667.078 734 L638.078 734 L595.079 618 L624.079 618 L667.078 734 Z " />
<glyph glyph-name="divide" unicode="&#xf7;" horiz-adv-x="600" d="M98.9295 264 L93.74 236 L593.74 236 L598.929 264 L98.9295 264 Z M330.012 81 L300.012 81 L285 0 L315 0 L330.012 81 Z M407.669 500 L377.669 500 L362.657 419 L392.657 419 L407.669 500 Z " />
<glyph glyph-name="oslash" unicode="&#xf8;" horiz-adv-x="641" d="M118.115 265 C144.804 409 272.82 517 415.82 517 C467.82 517 511.226 503 545.407 477 L172.603 68 C124.943 113 103.102 184 118.115 265 L118.115 265 Z M620.115 265 C593.426 121 465.409 13 322.409 13 C271.409 13 227.004 27 191.638 52 L565.627 462 C614.101 416 635.127 346 620.115 265 L620.115 265 Z M90.1148 265 C73.249 174 98.7925 96 153.711 47 L78.5131 -35 L97.3624 -52 L172.746 31 C210.556 3 259.591 -13 317.591 -13 C476.591 -13 618.646 106 648.115 265 C664.795 355 640.066 432 585.704 484 L661.273 568 L643.423 585 L565.484 499 C528.674 527 478.639 543 420.639 543 C261.639 543 119.398 423 90.1148 265 L90.1148 265 Z " />
<glyph glyph-name="ugrave" unicode="&#xf9;" horiz-adv-x="641" d="M536 0 L564 0 L760.459 530 L732.459 530 L620.885 229 C570.102 92 459.189 14 325.819 13 C271.819 13 221.638 26 194.353 63 C167.697 99 164.567 158 198.669 250 L302.459 530 L274.459 530 L170.669 250 C135.455 155 134.137 84 169.827 40 C198.853 5 248.181 -13 316.181 -13 C403.44 -15 510.267 25 573.663 107 L575.663 107 L536 0 Z M484.939 766 L462.414 743 L649.26 605 L670.786 628 L484.939 766 Z " />
<glyph glyph-name="uacute" unicode="&#xfa;" horiz-adv-x="641" d="M536 0 L564 0 L760.459 530 L732.459 530 L620.885 229 C570.102 92 459.189 14 325.819 13 C271.819 13 221.638 26 194.353 63 C167.697 99 164.567 158 198.669 250 L302.459 530 L274.459 530 L170.669 250 C135.455 155 134.137 84 169.827 40 C198.853 5 248.181 -13 316.181 -13 C403.44 -15 510.267 25 573.663 107 L575.663 107 L536 0 Z M435.786 628 L440.26 605 L729.414 743 L723.939 766 L435.786 628 Z " />
<glyph glyph-name="ucircumflex" unicode="&#xfb;" horiz-adv-x="641" d="M536 0 L564 0 L760.459 530 L732.459 530 L620.885 229 C570.102 92 459.189 14 325.819 13 C271.819 13 221.638 26 194.353 63 C167.697 99 164.567 158 198.669 250 L302.459 530 L274.459 530 L170.669 250 C135.455 155 134.137 84 169.827 40 C198.853 5 248.181 -13 316.181 -13 C403.44 -15 510.267 25 573.663 107 L575.663 107 L536 0 Z M597.267 748 L361.493 638 L380.932 623 L585.776 717 L720.932 623 L752.493 638 L597.267 748 Z " />
<glyph glyph-name="udieresis" unicode="&#xfc;" horiz-adv-x="641" d="M536 0 L564 0 L760.459 530 L732.459 530 L620.885 229 C570.102 92 459.189 14 325.819 13 C271.819 13 221.638 26 194.353 63 C167.697 99 164.567 158 198.669 250 L302.459 530 L274.459 530 L170.669 250 C135.455 155 134.137 84 169.827 40 C198.853 5 248.181 -13 316.181 -13 C403.44 -15 510.267 25 573.663 107 L575.663 107 L536 0 Z M547.078 734 L518.078 734 L475.079 618 L504.079 618 L547.078 734 Z M667.078 734 L638.078 734 L595.079 618 L624.079 618 L667.078 734 Z " />
<glyph glyph-name="yacute" unicode="&#xfd;" horiz-adv-x="481" d="M238.459 530 L207.459 530 L221.371 1 L48.0456 -213 L80.0456 -213 L676.459 530 L643.459 530 L252.456 39 L238.459 530 Z M355.786 628 L360.26 605 L649.414 743 L643.939 766 L355.786 628 Z " />
<glyph glyph-name="thorn" unicode="&#xfe;" horiz-adv-x="681" d="M243.151 740 L215.151 740 L38.5228 -213 L66.5228 -213 L131.947 140 L133.947 140 C160.823 53 241.591 -13 356.591 -13 C515.591 -13 658.646 106 688.115 265 C717.398 423 618.639 543 459.639 543 C401.639 543 266.376 520 179.726 387 L177.726 387 L243.151 740 Z M154.559 262 C183.101 416 324.82 517 455.82 517 C599.82 517 686.804 409 660.115 265 C633.426 121 506.409 13 362.409 13 C215.409 13 131.391 137 154.559 262 L154.559 262 Z " />
<glyph glyph-name="ydieresis" unicode="&#xff;" horiz-adv-x="481" d="M238.459 530 L207.459 530 L221.371 1 L48.0456 -213 L80.0456 -213 L676.459 530 L643.459 530 L252.456 39 L238.459 530 Z M467.078 734 L438.078 734 L395.079 618 L424.079 618 L467.078 734 Z M587.078 734 L558.078 734 L515.079 618 L544.079 618 L587.078 734 Z " />
<glyph glyph-name="dotlessi" unicode="&#x131;" horiz-adv-x="184" d="M204.23 530 L176.23 530 L78 0 L106 0 L204.23 530 Z " />
<glyph glyph-name="Lslash" unicode="&#x141;" horiz-adv-x="423" d="M51.8949 280 L144.015 340 L81 0 L424 0 L429.004 27 L116.004 27 L177.537 359 L178.093 362 L356.407 477 L362.894 512 L184.58 397 L248.151 740 L218.151 740 L150.502 375 L58.3818 315 L51.8949 280 Z " />
<glyph glyph-name="lslash" unicode="&#x142;" horiz-adv-x="219" d="M202.325 428 L260.151 740 L232.151 740 L171.36 412 L81.61 354 L76.0498 324 L165.799 382 L95 0 L123 0 L196.765 398 L307.109 470 L312.484 499 L202.325 428 Z " />
<glyph glyph-name="OE" unicode="&#x152;" horiz-adv-x="1178" d="M1249.15 713 L1254.15 740 L909.151 740 L866.708 511 L864.708 511 C849.026 653 726.56 753 557.56 753 C348.56 753 151.462 596 109.575 370 C67.6888 144 206.591 -13 419.591 -13 C585.591 -13 745.31 88 812.443 229 L814.443 229 L772 0 L1117 0 L1122 27 L807.004 27 L868.537 359 L1183.54 359 L1188.54 386 L873.541 386 L934.147 713 L1249.15 713 Z M139.575 370 C178.311 579 359.556 726 554.556 726 C783.556 726 867.712 538 842.799 382 L838.722 360 C803.326 196 645.595 14 422.595 14 C227.595 14 100.84 161 139.575 370 L139.575 370 Z " />
<glyph glyph-name="oe" unicode="&#x153;" horiz-adv-x="1156" d="M1164.74 263 C1191.8 409 1099.9 539 940.898 539 C864.898 539 728.596 505 648.425 353 L645.683 349 C641.687 376 635.248 406 613.291 444 C573.596 505 504.639 543 420.639 543 C261.639 543 119.398 423 89.9295 264 L90.1148 265 C60.6459 106 158.591 -13 317.591 -13 C409.591 -13 530.931 32 615.99 178 L617.99 178 C630.672 36 757.591 -13 842.591 -13 C892.591 -13 944.815 -1 1001.37 29 C1072.16 71 1102.24 120 1123.73 155 L1092.73 155 C1040.94 59 936.409 13 847.409 13 C731.409 13 623.422 94 646.744 263 L1164.74 263 Z M616.744 263 C593.391 137 467.409 13 322.409 13 C179.409 13 91.426 121 118.115 265 C144.804 409 272.82 517 415.82 517 C567.82 517 639.17 384 616.744 263 L616.744 263 Z M652.563 289 C691.842 420 810.079 513 935.079 513 C1098.08 513 1147.76 371 1136.56 289 L652.563 289 Z " />
<glyph glyph-name="Scaron" unicode="&#x160;" horiz-adv-x="518" d="M114.317 187 C72.4219 47 165.181 -13 254.181 -13 C364.181 -13 500.689 72 545.912 194 C605.591 355 467.599 382 435.306 392 C342.943 418 255.693 447 300.062 564 C336.018 661 434.742 725 528.742 725 C647.742 725 648.863 639 637.993 580 L667.993 580 C696.845 701 627.75 752 540.75 752 C433.75 752 310.802 682 268.209 559 C216.685 420 334.194 389 393.263 373 C457.22 354 564.841 326 514.429 190 C475.137 84 356.189 14 263.189 14 C206.189 14 109.681 45 144.317 187 L114.317 187 Z M559.508 808 L795.653 919 L775.843 933 L570.999 839 L435.843 933 L404.282 918 L559.508 808 Z " />
<glyph glyph-name="scaron" unicode="&#x161;" horiz-adv-x="426" d="M102.49 147 C60.5339 50 118.181 -13 206.181 -13 C297.181 -13 392.87 59 420.119 146 C456.006 259 384.048 278 321.091 297 C253.876 318 224.772 342 245.495 406 C265.848 469 331.641 517 402.641 517 C460.011 518 502.779 485 473.125 405 L501.125 405 C534.856 496 488.907 542 412.278 543 C333.278 543 250.115 494 217.495 406 C186.764 315 238.238 292 309.712 269 C388.669 250 415.696 215 390.636 142 C367.059 73 294.819 13 215.819 13 C138.819 13 98.982 62 130.49 147 L102.49 147 Z M444.932 623 L681.078 734 L661.267 748 L456.423 654 L321.267 748 L289.707 733 L444.932 623 Z " />
<glyph glyph-name="Ydieresis" unicode="&#x178;" horiz-adv-x="554" d="M322.302 740 L289.302 740 L356.523 255 L262 0 L292 0 L386.523 255 L813.302 740 L779.302 740 L384.126 289 L322.302 740 Z M572.653 919 L543.653 919 L500.654 803 L529.654 803 L572.653 919 Z M692.653 919 L663.653 919 L620.654 803 L649.654 803 L692.653 919 Z " />
<glyph glyph-name="Zcaron" unicode="&#x17d;" horiz-adv-x="499" d="M493 0 L503.008 27 L79.0083 27 L746.302 740 L280.302 740 L270.293 713 L687.293 713 L20 0 L493 0 Z M544.508 808 L780.653 919 L760.843 933 L555.999 839 L420.843 933 L389.282 918 L544.508 808 Z " />
<glyph glyph-name="zcaron" unicode="&#x17e;" horiz-adv-x="407" d="M226.459 530 L216.822 504 L527.822 504 L20.8963 24 L12 0 L394 0 L403.638 26 L57.6376 26 L563.451 503 L573.459 530 L226.459 530 Z M434.932 623 L671.078 734 L651.267 748 L446.423 654 L311.267 748 L279.707 733 L434.932 623 Z " />
<glyph glyph-name="florin" unicode="&#x192;" horiz-adv-x="555" d="M460.161 562 L478.613 613 C494.47 650 513.776 711 561.004 750 C587.082 772 618.12 783 657.676 786 C669.676 786 674.491 785 681.306 784 L692.125 810 C684.495 812 678.681 813 665.681 813 C627.681 813 583.901 798 548.267 773 C502.595 737 477.625 694 448.613 613 L429.161 562 L287.161 562 L276.156 535 L420.156 535 L231.746 31 C207.513 -35 173.833 -125 51.8326 -125 C27.8326 -125 14.7593 -120 -0.499324 -116 L-11.6888 -144 C7.19915 -150 26.8285 -152 46.8285 -152 C193.828 -152 234.845 -44 264.858 37 L451.156 535 L589.156 535 L601.161 562 L460.161 562 Z " />
<glyph glyph-name="circumflex" unicode="&#x2c6;" horiz-adv-x="555" d="M415.634 748 L200.246 638 L222.466 623 L409.888 717 L562.466 623 L591.246 638 L415.634 748 Z " />
<glyph glyph-name="caron" unicode="&#x2c7;" horiz-adv-x="555" d="M393.466 623 L609.039 734 L586.634 748 L399.212 654 L246.634 748 L217.853 733 L393.466 623 Z " />
<glyph glyph-name="breve" unicode="&#x2d8;" horiz-adv-x="555" d="M218.703 716 C244.1 648 316.505 634 394.505 634 C537.505 634 578.143 686 601.703 716 L563.703 716 C546.181 697 514.88 663 399.88 663 C294.88 663 269.069 691 256.703 716 L218.703 716 Z " />
<glyph glyph-name="dotaccent" unicode="&#x2d9;" horiz-adv-x="555" d="M429.039 734 L398.039 734 L376.54 618 L407.54 618 L429.039 734 Z " />
<glyph glyph-name="ring" unicode="&#x2da;" horiz-adv-x="555" d="M421.008 777 C372.008 777 322.595 737 313.143 686 C303.876 636 337.277 595 387.277 595 C438.277 595 486.876 636 496.143 686 C505.41 736 472.008 777 421.008 777 L421.008 777 Z M416.19 751 C452.19 751 474.815 722 468.328 687 C462.026 653 428.652 624 392.652 624 C357.652 624 335.026 653 341.328 687 C347.815 722 381.19 751 416.19 751 L416.19 751 Z " />
<glyph glyph-name="ogonek" unicode="&#x2db;" horiz-adv-x="555" d="M285 0 C253.591 -13 189.216 -42 176.798 -109 C166.048 -167 199.82 -206 262.82 -206 C294.82 -206 309.118 -199 321.23 -193 L326.604 -164 C307.307 -171 289.195 -177 268.195 -177 C229.195 -177 200.384 -149 208.354 -106 C216.324 -63 245.845 -44 314 0 L285 0 Z " />
<glyph glyph-name="tilde" unicode="&#x2dc;" horiz-adv-x="555" d="M565.143 686 C535.177 670 516.88 663 490.88 663 C456.88 663 440.177 670 406.884 690 C365.776 711 347.332 714 326.332 714 C279.332 714 247.181 697 221.845 679 L238.138 659 C255.362 671 286.143 686 321.143 686 C347.143 686 360.216 681 399.953 658 C432.061 637 459.32 633 486.32 633 C519.32 633 554.285 649 581.25 665 L565.143 686 Z " />
<glyph glyph-name="hungarumlaut" unicode="&#x2dd;" horiz-adv-x="555" d="M260.393 628 L272.13 605 L527.97 766 L516.047 788 L260.393 628 Z M371.393 628 L383.13 605 L638.97 766 L627.047 788 L371.393 628 Z " />
<glyph glyph-name="endash" unicode="&#x2013;" horiz-adv-x="500" d="M88.9336 291 L83.5588 262 L513.559 262 L518.934 291 L88.9336 291 Z " />
<glyph glyph-name="emdash" unicode="&#x2014;" horiz-adv-x="1000" d="M88.9336 291 L83.5588 262 L1013.56 262 L1018.93 291 L88.9336 291 Z " />
<glyph glyph-name="quoteleft" unicode="&#x2018;" horiz-adv-x="277" d="M260.151 740 L227.151 740 L262.609 586 L295.609 586 L260.151 740 Z " />
<glyph glyph-name="quoteright" unicode="&#x2019;" horiz-adv-x="277" d="M198.609 586 L231.609 586 L324.151 740 L291.151 740 L198.609 586 Z " />
<glyph glyph-name="quotesinglbase" unicode="&#x201a;" horiz-adv-x="277" d="M76.6556 -72 L109.656 -72 L202.198 82 L169.198 82 L76.6556 -72 Z " />
<glyph glyph-name="quotedblleft" unicode="&#x201c;" horiz-adv-x="370" d="M262.151 740 L229.151 740 L264.609 586 L297.609 586 L262.151 740 Z M351.151 740 L318.151 740 L353.609 586 L386.609 586 L351.151 740 Z " />
<glyph glyph-name="quotedblright" unicode="&#x201d;" horiz-adv-x="370" d="M289.609 586 L322.609 586 L415.151 740 L382.151 740 L289.609 586 Z M200.609 586 L233.609 586 L326.151 740 L293.151 740 L200.609 586 Z " />
<glyph glyph-name="quotedblbase" unicode="&#x201e;" horiz-adv-x="370" d="M167.656 -72 L200.656 -72 L293.198 82 L260.198 82 L167.656 -72 Z M78.6556 -72 L111.656 -72 L204.198 82 L171.198 82 L78.6556 -72 Z " />
<glyph glyph-name="dagger" unicode="&#x2020;" horiz-adv-x="573" d="M438.151 740 L408.151 740 L368.488 526 L180.488 526 L174.928 496 L362.928 496 L252.466 -100 L282.466 -100 L392.928 496 L582.928 496 L588.488 526 L398.488 526 L438.151 740 Z " />
<glyph glyph-name="daggerdbl" unicode="&#x2021;" horiz-adv-x="573" d="M440.151 740 L410.151 740 L375.863 555 L185.863 555 L180.303 525 L370.303 525 L294.314 115 L104.314 115 L98.7538 85 L288.754 85 L254.466 -100 L284.466 -100 L318.754 85 L506.754 85 L512.314 115 L324.314 115 L400.303 525 L588.303 525 L593.863 555 L405.863 555 L440.151 740 Z " />
<glyph glyph-name="bullet" unicode="&#x2022;" horiz-adv-x="375" d="M287.6 532 C198.6 532 120.071 459 104.873 377 C89.3043 293 144.145 222 229.145 222 C312.145 222 393.934 291 409.873 377 C425.627 462 370.6 532 287.6 532 L287.6 532 Z " />
<glyph glyph-name="ellipsis" unicode="&#x2026;" horiz-adv-x="1000" d="M197.198 82 L167.198 82 L152 0 L182 0 L197.198 82 Z M530.198 82 L500.198 82 L485 0 L515 0 L530.198 82 Z M863.198 82 L833.198 82 L818 0 L848 0 L863.198 82 Z " />
<glyph glyph-name="perthousand" unicode="&#x2030;" horiz-adv-x="1089" d="M129.35 590 C111.928 496 168.14 427 262.14 427 C356.14 427 437.928 496 455.35 590 C472.772 684 416.56 753 322.56 753 C228.56 753 146.772 684 129.35 590 L129.35 590 Z M427.35 590 C412.523 510 346.773 452 266.773 452 C186.773 452 142.523 510 157.35 590 C172.177 670 237.927 728 317.927 728 C397.927 728 442.177 670 427.35 590 L427.35 590 Z M396.801 150 C379.379 56 435.591 -13 529.591 -13 C623.591 -13 705.379 56 722.801 150 C740.223 244 684.011 313 590.011 313 C496.011 313 414.223 244 396.801 150 L396.801 150 Z M694.801 150 C679.974 70 614.224 12 534.224 12 C454.224 12 409.974 70 424.801 150 C439.628 230 505.378 288 585.378 288 C665.378 288 709.628 230 694.801 150 L694.801 150 Z M771.801 150 C754.379 56 810.591 -13 904.591 -13 C998.591 -13 1080.38 56 1097.8 150 C1115.22 244 1059.01 313 965.011 313 C871.011 313 789.223 244 771.801 150 L771.801 150 Z M1069.8 150 C1054.97 70 989.224 12 909.224 12 C829.224 12 784.974 70 799.801 150 C814.628 230 880.378 288 960.378 288 C1040.38 288 1084.63 230 1069.8 150 L1069.8 150 Z M738.151 740 L706.151 740 L112 0 L144 0 L738.151 740 Z " />
<glyph glyph-name="guilsinglleft" unicode="&#x2039;" horiz-adv-x="248" d="M103.968 275 L179.568 84 L204.387 110 L138.968 275 L266.105 443 L250.924 469 L103.968 275 Z " />
<glyph glyph-name="guilsinglright" unicode="&#x203a;" horiz-adv-x="248" d="M170.924 469 L146.105 443 L210.968 275 L84.3873 110 L99.5685 84 L245.968 275 L170.924 469 Z " />
<glyph glyph-name="fraction" unicode="&#x2044;" horiz-adv-x="86" d="M359.151 740 L329.151 740 L-137 0 L-108 0 L359.151 740 Z " />
<glyph glyph-name="trademark" unicode="&#x2122;" horiz-adv-x="990" d="M147.151 740 L141.703 716 L265.703 716 L187.86 296 L214.86 296 L292.703 716 L417.703 716 L422.151 740 L147.151 740 Z M522.151 740 L485.151 740 L402.86 296 L429.86 296 L504.737 700 L506.737 700 L639.86 296 L655.86 296 L938.923 701 L940.923 701 L865.86 296 L892.86 296 L975.151 740 L939.151 740 L655.645 338 L522.151 740 Z " />
<glyph glyph-name="minus" unicode="&#x2212;" horiz-adv-x="600" d="M98.9295 264 L93.74 236 L593.74 236 L598.929 264 L98.9295 264 Z " />
<glyph glyph-name="fi" unicode="&#xfb01;" horiz-adv-x="393" d="M452.151 740 L424.151 740 L407.285 649 L435.285 649 L452.151 740 Z M187.411 504 L94 0 L122 0 L215.411 504 L380.411 504 L287 0 L315 0 L413.23 530 L220.23 530 L230.423 585 C253.073 718 358 723 394.556 726 L399.56 753 C232.078 745 208.725 619 201.867 582 L192.23 530 L105.23 530 L100.411 504 L187.411 504 Z " />
<glyph glyph-name="fl" unicode="&#xfb02;" horiz-adv-x="393" d="M187.411 504 L94 0 L122 0 L215.411 504 L380.411 504 L287 0 L315 0 L452.151 740 L424.151 740 L385.23 530 L220.23 530 L230.423 585 C253.073 718 358 723 394.556 726 L399.56 753 C232.078 745 208.725 619 201.867 582 L192.23 530 L105.23 530 L100.411 504 L187.411 504 Z " />
</font>
</svg>
