<?xml version="1.0" encoding="UTF-8"?>
<svg xmlns="http://www.w3.org/2000/svg" xmlns:xlink="http://www.w3.org/1999/xlink" version="1.2" >
<font id="ITC Avant Garde Gothic Bold">
<font-face  font-family="ITC Avant Garde Gothic" units-per-em="1000" ascent="750" descent="-250" font-style="normal" font-weight="700" font-stretch="normal" cap-height="750" x-height="500" underline-position="-75" underline-thickness="50" />
<missing-glyph  horiz-adv-x="309" d="" />
<glyph glyph-name="NULL" d="" />
<glyph glyph-name="CR" unicode="&#xd;" horiz-adv-x="250" d="" />
<glyph glyph-name="space" unicode="&#x20;" horiz-adv-x="309" d="" />
<glyph glyph-name="exclam" unicode="&#x21;" horiz-adv-x="333" d="M252 740 L81 740 L81 244 L252 244 L252 740 Z M252 170 L81 170 L81 0 L252 0 L252 170 Z " />
<glyph glyph-name="quotedbl" unicode="&#x22;" horiz-adv-x="463" d="M174 443 L208 740 L34 740 L67 443 L174 443 Z M395 443 L429 740 L255 740 L288 443 L395 443 Z " />
<glyph glyph-name="numbersign" unicode="&#x23;" horiz-adv-x="618" d="M435 219 L547 219 L562 330 L451 330 L461 403 L573 403 L588 514 L477 514 L499 672 L385 672 L363 514 L285 514 L307 672 L193 672 L171 514 L71 514 L56 403 L156 403 L146 330 L46 330 L31 219 L130 219 L106 45 L220 45 L244 219 L322 219 L298 45 L411 45 L435 219 Z M338 330 L260 330 L270 403 L348 403 L338 330 Z " />
<glyph glyph-name="dollar" unicode="&#x24;" horiz-adv-x="618" d="M381 811 L246 811 L246 710 C170 689 86 631 86 508 C86 370 193 331 275 301 C349 273 367 246 367 212 C367 173 335 153 310 153 C258 153 252 211 251 224 L80 224 L80 213 C80 172 99 125 124 93 C164 43 215 32 246 25 L246 -76 L381 -76 L381 29 C536 80 538 215 538 232 C538 284 515 377 391 424 C303 458 256 476 256 527 C256 556 276 583 310 583 C360 583 364 535 365 520 L520 520 C522 625 461 691 381 710 L381 811 Z " />
<glyph glyph-name="percent" unicode="&#x25;" horiz-adv-x="858" d="M36 574 C36 474 118 394 216 394 C315 394 396 474 396 574 C396 674 316 755 216 755 C117 755 36 674 36 574 L36 574 Z M147 574 C147 614 178 644 216 644 C254 644 285 614 285 575 C285 535 252 505 216 505 C178 505 147 537 147 574 L147 574 Z M461 166 C461 64 544 -15 642 -15 C739 -15 822 65 822 166 C822 266 741 347 642 347 C542 347 461 266 461 166 L461 166 Z M572 166 C572 204 602 236 642 236 C679 236 711 206 711 166 C711 127 679 96 642 96 C603 96 572 128 572 166 L572 166 Z M216 0 L331 0 L638 740 L522 740 L216 0 Z " />
<glyph glyph-name="ampersand" unicode="&#x26;" horiz-adv-x="758" d="M554 435 L500 314 L413 402 C445 425 515 475 515 572 C515 672 435 754 321 754 C207 754 116 671 116 563 C116 510 134 456 186 403 C133 367 49 310 49 200 C49 80 157 -15 296 -15 C415 -15 489 51 517 75 L604 -15 L717 96 L616 200 C640 231 658 264 672 298 L729 435 L554 435 Z M406 184 C391 167 368 144 316 144 C271 144 231 170 231 217 C231 258 264 284 288 303 L406 184 Z M319 491 C302 509 277 536 277 571 C277 604 300 620 322 620 C350 620 365 599 365 573 C365 537 341 513 319 491 L319 491 Z " />
<glyph glyph-name="quotesingle" unicode="&#x27;" horiz-adv-x="242" d="M174 443 L208 740 L34 740 L67 443 L174 443 Z " />
<glyph glyph-name="parenleft" unicode="&#x28;" horiz-adv-x="473" d="M430 -91 C340 -42 250 85 250 243 C250 412 348 535 430 580 L430 754 C163 653 65 431 65 245 C65 58 164 -164 430 -264 L430 -91 Z " />
<glyph glyph-name="parenright" unicode="&#x29;" horiz-adv-x="473" d="M43 580 C133 531 223 404 223 246 C223 77 125 -46 43 -91 L43 -264 C310 -164 408 58 408 244 C408 431 309 653 43 754 L43 580 Z " />
<glyph glyph-name="asterisk" unicode="&#x2a;" horiz-adv-x="670" d="M555 539 L517 648 L388 600 L395 740 L276 740 L279 600 L151 648 L115 539 L246 498 L160 388 L253 318 L332 433 L414 318 L507 388 L424 498 L555 539 Z " />
<glyph glyph-name="plus" unicode="&#x2b;" horiz-adv-x="600" d="M220 333 L48 333 L48 173 L220 173 L220 0 L380 0 L380 173 L552 173 L552 333 L380 333 L380 506 L220 506 L220 333 Z " />
<glyph glyph-name="comma" unicode="&#x2c;" horiz-adv-x="314" d="M244 170 L71 170 L71 0 L149 0 L149 -34 C149 -45 143 -72 106 -72 L71 -72 L71 -161 L142 -161 C177 -161 244 -138 244 -40 L244 170 Z " />
<glyph glyph-name="hyphen" unicode="&#x2d;" horiz-adv-x="281" d="M281 370 L0 370 L0 207 L281 207 L281 370 Z " />
<glyph glyph-name="period" unicode="&#x2e;" horiz-adv-x="314" d="M244 170 L71 170 L71 0 L244 0 L244 170 Z " />
<glyph glyph-name="slash" unicode="&#x2f;" horiz-adv-x="593" d="M72 -100 L257 -100 L521 740 L337 740 L72 -100 Z " />
<glyph glyph-name="zero" unicode="0" horiz-adv-x="618" d="M33 267 C33 58 203 -14 312 -14 C428 -14 585 61 585 267 L585 473 C585 692 407 754 312 754 C206 754 33 687 33 473 L33 267 Z M222 478 C222 518 234 588 309 588 C396 588 396 501 396 478 L396 262 C396 240 396 152 309 152 C236 152 222 218 222 262 L222 478 Z " />
<glyph glyph-name="one" unicode="1" horiz-adv-x="618" d="M414 740 L104 740 L104 581 L225 581 L225 0 L414 0 L414 740 Z " />
<glyph glyph-name="two" unicode="2" horiz-adv-x="618" d="M322 159 C439 262 568 382 568 539 C568 644 481 754 316 754 C262 754 151 739 88 641 C48 580 46 519 44 471 L224 471 C227 514 235 588 309 588 C362 588 379 546 379 516 C379 441 300 353 277 327 C207 249 144 208 51 147 L51 0 L573 0 L573 159 L322 159 Z " />
<glyph glyph-name="three" unicode="3" horiz-adv-x="618" d="M33 221 C36 194 41 138 74 90 C122 19 219 -14 305 -14 C454 -14 579 89 579 218 C579 243 579 350 440 397 C467 412 538 450 538 552 C538 656 450 754 306 754 C205 754 56 701 53 524 L239 524 C240 542 242 588 297 588 C334 588 349 555 349 523 C349 449 273 449 256 449 L224 449 L224 310 L291 310 C318 310 390 305 390 235 C390 188 364 152 309 152 C241 153 228 204 224 221 L33 221 Z " />
<glyph glyph-name="four" unicode="4" horiz-adv-x="618" d="M341 130 L341 0 L522 0 L522 130 L604 130 L604 278 L522 278 L522 740 L346 740 L15 268 L15 130 L341 130 Z M205 278 L351 510 L353 510 L353 278 L205 278 Z " />
<glyph glyph-name="five" unicode="5" horiz-adv-x="618" d="M52 321 L205 283 C227 333 265 347 302 347 C368 347 403 298 403 250 C403 196 357 152 303 152 C297 152 284 152 268 158 C252 163 233 175 216 198 L26 198 C48 81 149 -15 308 -15 C507 -15 592 141 592 254 C592 356 520 502 345 502 C287 502 265 491 245 480 L261 581 L525 581 L525 740 L116 740 L52 321 Z " />
<glyph glyph-name="six" unicode="6" horiz-adv-x="618" d="M492 740 L273 740 L89 470 C52 413 21 347 21 272 C21 215 37 139 84 86 C134 20 220 -14 313 -14 C469 -14 600 99 600 268 C600 436 475 519 367 519 C353 519 340 519 331 515 L329 517 L492 740 Z M207 255 C207 307 247 353 307 353 C375 353 411 300 411 252 C411 193 363 152 307 152 C261 152 207 186 207 255 L207 255 Z " />
<glyph glyph-name="seven" unicode="7" horiz-adv-x="618" d="M65 740 L65 581 L352 581 L79 0 L287 0 L547 595 L547 740 L65 740 Z " />
<glyph glyph-name="eight" unicode="8" horiz-adv-x="618" d="M463 407 C486 426 535 465 535 548 C535 648 456 754 309 754 C166 754 83 653 83 546 C83 465 131 426 155 407 C44 359 39 248 39 220 C39 94 155 -14 310 -14 C465 -14 579 94 579 220 C579 252 572 361 463 407 L463 407 Z M241 533 C241 574 275 601 310 601 C344 601 377 573 377 535 C377 493 343 465 308 465 C282 465 241 482 241 533 L241 533 Z M228 237 C228 290 267 321 309 321 C361 321 390 276 390 236 C390 197 360 152 312 152 C260 152 228 192 228 237 L228 237 Z " />
<glyph glyph-name="nine" unicode="9" horiz-adv-x="618" d="M128 0 L347 0 L531 271 C569 328 601 394 602 473 C602 538 589 607 540 657 C486 721 400 754 307 754 C151 754 20 642 20 473 C20 309 147 222 253 222 C271 222 282 223 289 226 L291 224 L128 0 Z M413 486 C413 434 373 388 311 388 C244 388 209 441 209 489 C209 548 257 588 311 588 C359 588 413 554 413 486 L413 486 Z " />
<glyph glyph-name="colon" unicode="&#x3a;" horiz-adv-x="314" d="M244 170 L71 170 L71 0 L244 0 L244 170 Z M244 555 L71 555 L71 385 L244 385 L244 555 Z " />
<glyph glyph-name="semicolon" unicode="&#x3b;" horiz-adv-x="314" d="M244 170 L71 170 L71 0 L149 0 L149 -34 C149 -45 143 -72 106 -72 L71 -72 L71 -161 L142 -161 C177 -161 244 -138 244 -40 L244 170 Z M244 555 L71 555 L71 385 L244 385 L244 555 Z " />
<glyph glyph-name="less" unicode="&#x3c;" horiz-adv-x="600" d="M214 252 L214 254 L554 369 L554 544 L46 330 L46 176 L554 -38 L554 137 L214 252 Z " />
<glyph glyph-name="equal" unicode="&#x3d;" horiz-adv-x="600" d="M552 465 L48 465 L48 305 L552 305 L552 465 Z M552 201 L48 201 L48 41 L552 41 L552 201 Z " />
<glyph glyph-name="greater" unicode="&#x3e;" horiz-adv-x="600" d="M46 137 L46 -38 L554 176 L554 330 L46 544 L46 369 L386 254 L386 252 L46 137 Z " />
<glyph glyph-name="question" unicode="&#x3f;" horiz-adv-x="592" d="M232 487 C233 525 234 583 301 583 C342 583 359 557 359 521 C359 490 341 460 291 411 C225 348 188 305 187 235 L361 235 C364 266 373 286 438 346 C492 396 551 450 551 542 C551 641 467 754 311 754 C158 754 48 649 48 505 C48 500 48 496 49 487 L232 487 Z M361 170 L187 170 L187 0 L361 0 L361 170 Z " />
<glyph glyph-name="at" unicode="&#x40;" horiz-adv-x="748" d="M480 548 L472 501 L470 501 C459 532 425 560 371 560 C254 560 176 440 176 336 C176 234 245 159 330 159 C378 159 414 174 449 231 C464 188 494 159 547 159 C650 159 743 283 743 428 C743 610 599 756 389 756 C149 756 -3 564 -3 365 C-3 210 100 -16 392 -16 C416 -16 524 -16 624 20 L603 112 C535 87 464 75 392 75 C139 75 99 284 99 363 C99 517 216 665 393 665 C540 665 649 567 649 427 C649 330 604 253 567 253 C550 253 539 261 540 282 C541 292 545 318 547 330 L584 548 L480 548 Z M450 385 C450 310 413 253 358 253 C324 253 283 276 283 340 C283 403 326 466 384 466 C434 466 450 421 450 385 L450 385 Z " />
<glyph glyph-name="A" unicode="A" horiz-adv-x="758" d="M508 107 L544 0 L749 0 L455 740 L306 740 L9 0 L212 0 L251 107 L508 107 Z M379 510 L381 510 L382 510 L458 257 L303 257 L379 510 Z " />
<glyph glyph-name="B" unicode="B" horiz-adv-x="647" d="M67 0 L302 0 C427 0 476 7 544 64 C589 101 612 166 612 225 C612 256 609 355 490 397 C550 431 576 489 576 546 C576 589 565 634 532 668 C478 728 420 740 295 740 L67 740 L67 0 Z M248 574 L315 574 C344 574 395 574 395 518 C395 459 341 459 315 459 L248 459 L248 574 Z M248 301 L337 301 C367 301 431 301 431 237 C431 166 361 166 337 166 L248 166 L248 301 Z " />
<glyph glyph-name="C" unicode="C" horiz-adv-x="832" d="M603 277 C591 251 543 152 425 152 C302 152 226 260 226 372 C226 477 297 588 424 588 C526 588 582 514 603 459 L801 459 C781 575 657 754 425 754 C183 754 37 560 37 371 C37 171 195 -14 427 -14 C606 -14 758 102 801 277 L603 277 Z " />
<glyph glyph-name="D" unicode="D" horiz-adv-x="742" d="M57 0 L316 0 C597 0 697 170 697 372 C697 453 680 532 629 602 C533 740 385 740 302 740 L57 740 L57 0 Z M246 574 L328 574 C412 574 450 539 472 506 C499 464 508 411 508 369 C508 264 468 166 327 166 L246 166 L246 574 Z " />
<glyph glyph-name="E" unicode="E" horiz-adv-x="528" d="M67 0 L478 0 L478 166 L248 166 L248 293 L471 293 L471 459 L248 459 L248 574 L478 574 L478 740 L67 740 L67 0 Z " />
<glyph glyph-name="F" unicode="F" horiz-adv-x="506" d="M67 0 L248 0 L248 282 L463 282 L463 448 L248 448 L248 574 L471 574 L471 740 L67 740 L67 0 Z " />
<glyph glyph-name="G" unicode="G" horiz-adv-x="854" d="M383 421 L383 270 L604 270 C584 198 521 151 427 151 C334 151 224 218 224 373 C224 519 333 588 426 588 C506 588 560 544 589 492 L801 492 C760 635 608 754 431 754 C213 754 35 594 35 373 C35 160 204 -15 428 -15 C633 -15 823 134 823 382 C823 397 823 408 822 421 L383 421 Z " />
<glyph glyph-name="H" unicode="H" horiz-adv-x="754" d="M67 0 L256 0 L256 296 L498 296 L498 0 L687 0 L687 740 L498 740 L498 462 L256 462 L256 740 L67 740 L67 0 Z " />
<glyph glyph-name="I" unicode="I" horiz-adv-x="323" d="M67 0 L256 0 L256 740 L67 740 L67 0 Z " />
<glyph glyph-name="J" unicode="J" horiz-adv-x="578" d="M321 740 L321 246 C321 212 321 152 264 152 C214 152 209 204 207 238 L6 238 C7 -14 237 -14 255 -14 C330 -14 414 18 464 83 C496 123 510 167 510 293 L510 740 L321 740 Z " />
<glyph glyph-name="K" unicode="K" horiz-adv-x="707" d="M87 0 L276 0 L276 320 L278 320 L480 0 L701 0 L440 371 L685 740 L487 740 L278 407 L276 407 L276 740 L87 740 L87 0 Z " />
<glyph glyph-name="L" unicode="L" horiz-adv-x="487" d="M72 0 L480 0 L480 166 L261 166 L261 740 L72 740 L72 0 Z " />
<glyph glyph-name="M" unicode="M" horiz-adv-x="915" d="M67 0 L241 0 L235 554 L237 556 L395 0 L520 0 L678 556 L680 554 L674 0 L848 0 L848 740 L604 740 L459 253 L457 253 L310 740 L67 740 L67 0 Z " />
<glyph glyph-name="N" unicode="N" horiz-adv-x="759" d="M67 0 L248 0 L243 449 L245 450 L527 0 L691 0 L691 740 L510 740 L518 277 L516 275 L230 740 L67 740 L67 0 Z " />
<glyph glyph-name="O" unicode="O" horiz-adv-x="851" d="M64 519 C42 465 35 410 35 361 C35 171 191 -14 424 -14 C654 -14 816 164 816 370 C816 576 653 754 425 754 C218 754 103 615 64 519 L64 519 Z M224 372 C224 476 295 588 426 588 C562 588 627 465 627 369 C627 274 562 152 428 152 C301 152 224 258 224 372 L224 372 Z " />
<glyph glyph-name="P" unicode="P" horiz-adv-x="636" d="M67 0 L248 0 L248 232 L330 232 C445 232 495 253 546 296 C593 336 624 415 624 490 C624 565 595 638 537 686 C497 719 446 740 309 740 L67 740 L67 0 Z M248 574 L318 574 C359 574 443 574 443 487 C443 398 361 398 325 398 L248 398 L248 574 Z " />
<glyph glyph-name="Q" unicode="Q" horiz-adv-x="866" d="M855 137 C848 136 844 136 839 136 C811 136 778 143 758 162 C777 191 819 253 819 376 C819 565 663 754 424 754 C185 754 35 560 35 366 C35 178 187 -15 426 -15 C475 -15 548 -10 634 43 C654 22 706 -15 808 -15 C826 -15 841 -14 855 -13 L855 137 Z M605 270 C511 385 410 426 330 426 C286 426 257 414 225 401 C245 519 324 588 425 588 C535 588 630 507 630 376 C628 328 619 295 605 270 L605 270 Z M510 170 C485 157 455 150 424 151 C363 150 281 188 244 276 C264 283 281 288 310 288 C417 288 479 207 510 170 L510 170 Z " />
<glyph glyph-name="R" unicode="R" horiz-adv-x="653" d="M67 0 L248 0 L248 239 L250 239 L421 0 L637 0 L436 252 C576 275 620 400 620 485 C620 561 590 639 529 687 C481 724 431 740 301 740 L67 740 L67 0 Z M248 574 L317 574 C390 574 439 541 439 474 C439 438 426 368 315 368 L248 368 L248 574 Z " />
<glyph glyph-name="S" unicode="S" horiz-adv-x="573" d="M544 524 C542 566 539 616 495 670 C447 727 368 754 295 754 C171 754 36 675 36 536 C36 397 165 345 217 324 C331 276 362 264 362 215 C362 181 335 144 290 144 C266 144 213 159 213 245 L25 245 L25 221 C25 126 78 -14 292 -14 C488 -14 550 105 550 213 C550 299 515 363 377 425 C244 485 224 494 224 538 C224 573 256 596 289 596 C347 596 353 549 357 524 L544 524 Z " />
<glyph glyph-name="T" unicode="T" horiz-adv-x="499" d="M156 0 L345 0 L345 574 L490 574 L490 740 L10 740 L10 574 L156 574 L156 0 Z " />
<glyph glyph-name="U" unicode="U" horiz-adv-x="698" d="M65 740 L65 293 C65 184 78 132 139 65 C200 -1 298 -14 352 -14 C444 -14 511 17 559 66 C606 114 633 169 633 293 L633 740 L444 740 L444 293 C444 234 444 152 350 152 C257 152 254 243 254 293 L254 740 L65 740 Z " />
<glyph glyph-name="V" unicode="V" horiz-adv-x="722" d="M16 740 L263 0 L458 0 L706 740 L511 740 L361 221 L359 221 L210 740 L16 740 Z " />
<glyph glyph-name="W" unicode="W" horiz-adv-x="981" d="M16 740 L207 0 L378 0 L489 479 L491 479 L602 0 L768 0 L964 740 L773 740 L672 257 L670 257 L563 740 L418 740 L309 259 L307 259 L208 740 L16 740 Z " />
<glyph glyph-name="X" unicode="X" horiz-adv-x="759" d="M505 740 L382 529 L255 740 L41 740 L270 394 L11 0 L222 0 L374 262 L534 0 L748 0 L492 390 L718 740 L505 740 Z " />
<glyph glyph-name="Y" unicode="Y" horiz-adv-x="647" d="M230 0 L419 0 L419 269 L638 740 L435 740 L324 443 L214 740 L9 740 L230 269 L230 0 Z " />
<glyph glyph-name="Z" unicode="Z" horiz-adv-x="499" d="M16 0 L483 0 L483 166 L247 166 L483 587 L483 740 L16 740 L16 574 L271 574 L16 124 L16 0 Z " />
<glyph glyph-name="bracketleft" unicode="&#x5b;" horiz-adv-x="473" d="M401 754 C369 752 290 749 215 694 C110 617 104 512 104 439 L104 51 C104 -9 106 -128 215 -204 C291 -258 365 -262 401 -264 L401 -90 C301 -85 292 -16 292 44 L292 446 C292 504 300 575 401 580 L401 754 Z " />
<glyph glyph-name="backslash" unicode="&#x5c;" horiz-adv-x="593" d="M521 -100 L256 740 L72 740 L336 -100 L521 -100 Z " />
<glyph glyph-name="bracketright" unicode="&#x5d;" horiz-adv-x="473" d="M72 -264 C104 -262 183 -259 258 -204 C363 -127 369 -22 369 51 L369 439 C369 499 367 618 258 694 C182 748 108 752 72 754 L72 580 C172 575 181 506 181 446 L181 44 C181 -14 173 -85 72 -90 L72 -264 Z " />
<glyph glyph-name="asciicircum" unicode="&#x5e;" horiz-adv-x="600" d="M222 375 L299 598 L301 598 L377 375 L557 375 L383 740 L217 740 L43 375 L222 375 Z " />
<glyph glyph-name="underscore" unicode="&#x5f;" horiz-adv-x="500" d="M500 -125 L500 -75 L0 -75 L0 -125 L500 -125 Z " />
<glyph glyph-name="grave" unicode="&#x60;" horiz-adv-x="555" d="M162 839 L111 722 L358 614 L404 711 L162 839 Z " />
<glyph glyph-name="a" unicode="a" horiz-adv-x="704" d="M643 555 L477 555 L477 496 L475 496 C455 530 404 574 313 574 C165 574 34 460 34 278 C34 119 137 -19 313 -19 C378 -19 447 6 475 60 L477 60 L477 0 L643 0 L643 555 Z M200 276 C200 339 242 419 337 419 C431 419 477 345 477 278 C477 224 442 136 338 136 C238 136 200 224 200 276 L200 276 Z " />
<glyph glyph-name="b" unicode="b" horiz-adv-x="693" d="M60 0 L219 0 L219 59 L221 59 C242 19 302 -19 380 -19 C521 -19 660 81 660 281 C660 491 503 574 387 574 C364 574 285 574 226 511 L226 740 L60 740 L60 0 Z M220 279 C220 348 270 419 358 419 C440 419 494 350 494 278 C494 205 440 136 355 136 C272 136 220 202 220 279 L220 279 Z " />
<glyph glyph-name="c" unicode="c" horiz-adv-x="652" d="M452 211 C434 177 401 137 332 137 C253 137 200 197 200 278 C200 358 253 423 332 419 C401 419 434 379 452 341 L620 341 C592 477 473 574 326 574 C160 574 33 442 33 279 C33 114 162 -18 330 -18 C480 -18 591 85 621 211 L452 211 Z " />
<glyph glyph-name="d" unicode="d" horiz-adv-x="698" d="M638 740 L472 740 L472 508 C454 526 407 574 309 574 C168 574 34 467 34 279 C34 112 144 -18 312 -18 C424 -18 464 37 478 60 L480 60 L480 0 L638 0 L638 740 Z M200 280 C200 344 245 419 341 419 C433 419 481 347 481 280 C481 222 443 137 339 137 C261 137 200 194 200 280 L200 280 Z " />
<glyph glyph-name="e" unicode="e" horiz-adv-x="646" d="M425 174 C402 145 375 122 324 122 C259 122 204 161 194 227 L610 227 C612 240 614 249 614 271 C614 440 490 574 321 574 C152 574 30 431 30 276 C30 111 165 -18 324 -18 C381 -18 436 -1 482 32 C529 64 568 112 595 174 L425 174 Z M196 339 C203 372 236 434 322 434 C408 434 441 372 448 339 L196 339 Z " />
<glyph glyph-name="f" unicode="f" horiz-adv-x="314" d="M66 0 L232 0 L232 429 L302 429 L302 555 L232 555 L232 577 C232 624 269 629 283 629 L302 629 L302 754 L278 754 C197 754 66 740 66 584 L66 555 L4 555 L4 429 L66 429 L66 0 Z " />
<glyph glyph-name="g" unicode="g" horiz-adv-x="693" d="M635 555 L469 555 L469 503 L467 503 C437 551 376 573 314 573 C170 573 34 464 34 274 C34 96 163 -18 314 -18 C401 -18 449 29 466 61 L468 61 L468 44 C468 -105 354 -107 333 -107 C322 -107 260 -107 236 -52 L44 -52 C55 -131 128 -247 321 -247 C458 -247 559 -186 602 -116 C629 -69 635 -16 635 67 L635 555 Z M200 280 C200 361 263 418 334 418 C408 418 469 364 469 275 C469 195 413 137 333 137 C264 137 200 191 200 280 L200 280 Z " />
<glyph glyph-name="h" unicode="h" horiz-adv-x="632" d="M60 0 L226 0 L226 308 C226 335 226 418 319 418 C408 418 408 329 408 302 L408 0 L574 0 L574 310 C574 409 569 458 522 513 C487 555 424 574 371 574 C312 574 256 554 228 504 L226 504 L226 740 L60 740 L60 0 Z " />
<glyph glyph-name="i" unicode="i" horiz-adv-x="286" d="M226 555 L60 555 L60 0 L226 0 L226 555 Z M226 740 L60 740 L60 614 L226 614 L226 740 Z " />
<glyph glyph-name="j" unicode="j" horiz-adv-x="321" d="M253 555 L87 555 L87 6 C87 -34 86 -78 28 -78 L6 -78 L6 -204 L47 -204 C229 -204 253 -117 253 12 L253 555 Z M253 740 L87 740 L87 614 L253 614 L253 740 Z " />
<glyph glyph-name="k" unicode="k" horiz-adv-x="591" d="M66 0 L232 0 L232 267 L234 267 L391 0 L579 0 L376 311 L585 555 L388 555 L234 354 L232 354 L232 740 L66 740 L66 0 Z " />
<glyph glyph-name="l" unicode="l" horiz-adv-x="286" d="M60 0 L226 0 L226 740 L60 740 L60 0 Z " />
<glyph glyph-name="m" unicode="m" horiz-adv-x="969" d="M60 0 L226 0 L226 295 C226 328 226 418 320 418 C403 418 403 332 403 302 L403 0 L569 0 L569 303 C569 334 569 418 661 418 C746 418 746 340 746 295 L746 0 L912 0 L912 303 C912 426 904 463 852 518 C807 565 745 574 706 574 C621 574 564 529 530 475 C486 557 419 574 370 574 C266 574 230 519 217 496 L215 496 L215 555 L60 555 L60 0 Z " />
<glyph glyph-name="n" unicode="n" horiz-adv-x="632" d="M60 0 L226 0 L226 302 C226 336 226 418 321 418 C408 418 408 342 408 303 L408 0 L574 0 L574 347 C574 456 540 500 510 526 C480 552 421 574 368 574 C269 574 234 523 217 496 L215 496 L215 555 L60 555 L60 0 Z " />
<glyph glyph-name="o" unicode="o" horiz-adv-x="666" d="M34 278 C34 142 131 -17 333 -17 C535 -17 632 142 632 278 C632 414 535 573 333 573 C131 573 34 414 34 278 L34 278 Z M200 278 C200 359 261 418 333 418 C405 418 466 359 466 278 C466 197 405 138 333 138 C261 138 200 197 200 278 L200 278 Z " />
<glyph glyph-name="p" unicode="p" horiz-adv-x="697" d="M60 -185 L226 -185 L226 50 C246 29 293 -19 393 -19 C551 -19 663 112 663 272 C663 401 589 574 392 574 C307 574 252 536 219 494 L217 494 L216 494 L216 555 L60 555 L60 -185 Z M358 136 C271 136 219 207 219 277 C219 343 267 419 358 419 C449 419 497 343 497 277 C497 207 445 136 358 136 L358 136 Z " />
<glyph glyph-name="q" unicode="q" horiz-adv-x="698" d="M638 555 L479 555 L479 494 L477 494 C465 514 421 574 313 574 C161 574 34 459 34 267 C34 108 145 -18 302 -18 C408 -18 451 31 470 57 L472 57 L472 -185 L638 -185 L638 555 Z M200 274 C200 347 249 419 338 419 C437 419 478 336 478 277 C478 211 427 137 340 137 C245 137 200 216 200 274 L200 274 Z " />
<glyph glyph-name="r" unicode="r" horiz-adv-x="363" d="M59 0 L225 0 L225 305 C225 389 279 405 356 407 L356 574 C260 574 231 523 217 496 L215 496 L215 555 L59 555 L59 0 Z " />
<glyph glyph-name="s" unicode="s" horiz-adv-x="499" d="M459 399 C445 545 319 574 246 574 C131 574 31 501 31 391 C31 316 91 269 163 246 C269 205 310 200 310 157 C310 130 280 114 252 114 C245 114 196 114 189 165 L24 165 C39 19 166 -19 250 -19 C373 -19 476 53 476 170 C476 290 376 318 282 344 C238 357 197 374 197 404 C197 419 209 441 244 441 C293 441 295 411 296 399 L459 399 Z " />
<glyph glyph-name="t" unicode="t" horiz-adv-x="351" d="M259 740 L93 740 L93 555 L11 555 L11 429 L93 429 L93 0 L259 0 L259 429 L339 429 L339 555 L259 555 L259 740 Z " />
<glyph glyph-name="u" unicode="u" horiz-adv-x="634" d="M574 555 L408 555 L408 250 C408 162 361 137 313 137 C224 137 224 210 224 248 L224 555 L58 555 L58 223 C58 147 64 107 108 52 C157 -10 237 -18 271 -18 C313 -18 381 -12 415 59 L417 59 L417 0 L574 0 L574 555 Z " />
<glyph glyph-name="v" unicode="v" horiz-adv-x="592" d="M575 555 L403 555 L297 209 L295 209 L189 555 L17 555 L216 0 L375 0 L575 555 Z " />
<glyph glyph-name="w" unicode="w" horiz-adv-x="850" d="M7 555 L177 0 L331 0 L424 359 L426 359 L519 0 L673 0 L843 555 L672 555 L589 210 L587 210 L495 555 L355 555 L264 210 L262 210 L179 555 L7 555 Z " />
<glyph glyph-name="x" unicode="x" horiz-adv-x="630" d="M403 555 L314 409 L224 555 L25 555 L212 297 L1 0 L201 0 L314 172 L425 0 L628 0 L413 297 L600 555 L403 555 Z " />
<glyph glyph-name="y" unicode="y" horiz-adv-x="574" d="M397 555 L291 233 L289 233 L178 555 L1 555 L207 28 L119 -185 L295 -185 L573 555 L397 555 Z " />
<glyph glyph-name="z" unicode="z" horiz-adv-x="444" d="M211 126 L428 429 L428 555 L15 555 L15 429 L249 429 L15 114 L15 0 L428 0 L428 126 L211 126 Z " />
<glyph glyph-name="braceleft" unicode="&#x7b;" horiz-adv-x="554" d="M483 614 L483 740 L355 740 C277 740 202 698 202 602 L202 386 C202 326 129 319 105 319 L105 147 C129 147 202 141 202 86 L202 -126 C202 -222 277 -264 355 -264 L483 -264 L483 -138 L428 -138 C374 -138 370 -100 370 -73 L370 139 C369 212 297 229 262 231 L262 235 C297 238 369 245 370 340 L370 549 C370 576 374 614 428 614 L483 614 Z " />
<glyph glyph-name="bar" unicode="&#x7c;" horiz-adv-x="555" d="M186 740 L186 -100 L369 -100 L369 740 L186 740 Z " />
<glyph glyph-name="braceright" unicode="&#x7d;" horiz-adv-x="554" d="M126 614 C180 614 184 576 184 549 L184 340 C185 245 257 238 292 235 L292 231 C257 229 185 212 184 139 L184 -73 C184 -100 180 -138 126 -138 L71 -138 L71 -264 L199 -264 C277 -264 352 -222 352 -126 L352 86 C352 141 425 147 449 147 L449 319 C425 319 352 326 352 386 L352 602 C352 698 277 740 199 740 L71 740 L71 614 L126 614 Z " />
<glyph glyph-name="asciitilde" unicode="&#x7e;" horiz-adv-x="600" d="M497 377 C472 343 447 307 407 307 C380 307 342 327 305 343 C267 360 228 375 194 375 C127 375 91 330 67 286 L103 130 C121 163 145 199 189 199 C235 199 272 182 304 164 C337 146 369 131 406 131 C468 131 501 176 533 219 L497 377 Z " />
<glyph glyph-name="exclamdown" unicode="&#xa1;" horiz-adv-x="333" d="M252 555 L81 555 L81 385 L252 385 L252 555 Z M252 311 L81 311 L81 -185 L252 -185 L252 311 Z " />
<glyph glyph-name="cent" unicode="&#xa2;" horiz-adv-x="618" d="M372 720 L241 720 L241 615 C111 574 62 460 62 373 C63 303 96 185 241 136 L241 31 L378 31 L378 136 C485 160 542 251 556 325 L380 325 C369 311 351 291 313 291 C264 291 227 329 227 375 C227 424 268 460 313 460 C342 460 370 445 384 420 L556 420 C550 485 493 586 372 619 L372 720 Z " />
<glyph glyph-name="sterling" unicode="&#xa3;" horiz-adv-x="618" d="M446 252 C452 233 453 226 453 216 C453 153 398 148 371 148 L330 148 C349 165 369 183 369 215 C369 244 353 264 336 284 L413 284 L413 417 L257 417 C243 434 223 458 223 506 C223 545 253 589 303 589 C372 589 385 536 388 508 L562 508 C557 555 552 592 524 637 C480 709 398 755 300 755 C132 755 34 626 34 511 C34 475 44 444 62 417 L14 417 L14 284 L142 284 L166 252 C178 237 184 221 184 202 C184 154 141 148 93 148 L44 148 L44 0 L399 0 C569 0 618 127 618 188 C618 220 612 236 607 252 L446 252 Z " />
<glyph glyph-name="currency" unicode="&#xa4;" horiz-adv-x="618" d="M309 451 C370 451 417 401 417 341 C417 280 368 231 309 231 C249 231 201 281 201 341 C201 400 248 451 309 451 L309 451 Z M88 483 C62 443 46 393 46 340 C46 290 60 244 85 204 L0 119 L81 39 L164 121 C207 93 256 77 309 77 C363 77 413 93 455 121 L537 38 L618 120 L534 204 C558 243 572 290 572 340 C572 393 556 442 529 484 L614 569 L534 650 L446 564 C407 589 359 603 309 603 C258 603 211 589 170 563 L82 651 L0 569 L88 483 Z " />
<glyph glyph-name="yen" unicode="&#xa5;" horiz-adv-x="618" d="M215 0 L401 0 L401 167 L598 167 L598 306 L402 306 L402 336 L428 385 L598 385 L598 523 L501 523 L618 740 L421 740 L310 503 L201 740 L1 740 L120 523 L21 523 L21 385 L189 385 L215 333 L215 306 L19 306 L19 167 L215 167 L215 0 Z " />
<glyph glyph-name="brokenbar" unicode="&#xa6;" horiz-adv-x="555" d="M186 740 L186 404 L369 404 L369 740 L186 740 Z M186 236 L186 -100 L369 -100 L369 236 L186 236 Z " />
<glyph glyph-name="section" unicode="&#xa7;" horiz-adv-x="670" d="M584 548 C580 652 496 754 343 754 C230 754 104 697 104 556 C104 510 116 475 135 445 C40 375 40 303 40 284 C40 165 123 127 173 104 L344 25 C386 6 432 -15 432 -55 C432 -80 411 -120 342 -120 C317 -120 243 -119 229 -35 L65 -35 C81 -241 278 -271 345 -271 C516 -271 595 -159 595 -53 C595 19 565 59 544 88 C585 126 630 168 630 246 C630 352 554 390 505 412 L323 494 C298 505 264 521 264 553 C264 599 309 606 334 606 C362 606 407 599 421 548 L584 548 Z M415 284 C458 265 483 247 483 218 C483 192 468 170 446 156 L244 249 C224 258 191 273 191 312 C191 319 191 348 230 367 L415 284 Z " />
<glyph glyph-name="dieresis" unicode="&#xa8;" horiz-adv-x="555" d="M81 644 L240 644 L240 795 L81 795 L81 644 Z M314 644 L473 644 L473 795 L314 795 L314 644 Z " />
<glyph glyph-name="copyright" unicode="&#xa9;" horiz-adv-x="800" d="M595 436 C590 512 524 596 405 596 C266 596 192 489 192 373 C192 245 271 150 402 150 C513 150 590 218 599 329 L493 329 C476 242 417 242 406 242 C331 242 299 303 299 372 C299 429 322 504 406 504 C434 504 474 496 490 436 L595 436 Z M403 754 C184 754 18 577 18 370 C18 159 190 -14 401 -14 C611 -14 783 158 783 370 C783 578 615 754 403 754 L403 754 Z M402 677 C570 677 700 536 700 370 C700 198 565 63 401 63 C237 63 101 199 101 370 C101 537 231 677 402 677 L402 677 Z " />
<glyph glyph-name="ordfeminine" unicode="&#xaa;" horiz-adv-x="385" d="M333 744 L234 744 L234 715 L232 715 L233 715 C219 741 196 754 161 754 C88 754 19 699 19 601 C19 515 79 448 159 448 C184 448 216 454 232 487 L234 487 L234 458 L333 458 L333 744 Z M118 601 C118 627 136 660 176 660 C215 660 235 630 235 601 C235 579 220 542 176 542 C134 542 118 579 118 601 L118 601 Z " />
<glyph glyph-name="guillemotleft" unicode="&#xab;" horiz-adv-x="422" d="M176 474 L47 344 L47 230 L176 103 L176 242 L125 289 L176 334 L176 474 Z M375 474 L246 344 L246 230 L375 103 L375 242 L324 289 L375 334 L375 474 Z " />
<glyph glyph-name="logicalnot" unicode="&#xac;" horiz-adv-x="600" d="M397 108 L557 108 L557 445 L33 445 L33 285 L397 285 L397 108 Z " />
<glyph glyph-name="registered" unicode="&#xae;" horiz-adv-x="800" d="M237 587 L237 161 L343 161 L343 325 L385 325 C452 325 458 287 461 263 C463 249 467 176 475 161 L578 161 C570 183 570 191 565 265 C561 330 535 351 504 364 C561 390 573 432 573 467 C573 553 499 587 417 587 L237 587 Z M400 514 C422 514 467 513 467 459 C467 394 416 394 394 394 L343 394 L343 514 L400 514 Z M403 754 C184 754 18 576 18 370 C18 159 190 -14 401 -14 C611 -14 783 158 783 370 C783 577 615 754 403 754 L403 754 Z M402 677 C571 677 700 535 700 370 C700 198 565 63 401 63 C237 63 101 200 101 370 C101 538 232 677 402 677 L402 677 Z " />
<glyph glyph-name="macron" unicode="&#xaf;" horiz-adv-x="555" d="M457 784 L98 784 L98 658 L457 658 L457 784 Z " />
<glyph glyph-name="degree" unicode="&#xb0;" horiz-adv-x="400" d="M200 508 C168 508 141 536 141 569 C141 601 168 630 200 630 C232 630 259 601 259 569 C259 536 232 508 200 508 L200 508 Z M200 426 C280 426 343 489 343 569 C343 649 280 712 200 712 C120 712 57 649 57 569 C57 489 120 426 200 426 L200 426 Z " />
<glyph glyph-name="plusminus" unicode="&#xb1;" horiz-adv-x="600" d="M220 420 L48 420 L48 260 L220 260 L220 130 L380 130 L380 260 L552 260 L552 420 L380 420 L380 556 L220 556 L220 420 Z M48 -82 L552 -82 L552 78 L48 78 L48 -82 Z " />
<glyph glyph-name="twosuperior" unicode="&#xb2;" horiz-adv-x="407" d="M223 402 L223 404 C344 497 374 562 374 618 C374 683 316 749 209 749 C172 749 100 739 59 680 C33 642 31 605 30 574 L153 574 C154 592 157 642 200 642 C229 642 235 620 235 600 C234 521 130 454 35 393 L35 296 L376 296 L376 402 L223 402 Z " />
<glyph glyph-name="threesuperior" unicode="&#xb3;" horiz-adv-x="407" d="M22 433 C24 413 27 380 50 349 C80 308 142 287 200 287 C297 287 379 350 379 428 C379 475 348 517 296 534 C349 563 353 609 353 626 C353 689 296 749 201 749 C149 749 36 727 35 606 L161 606 C162 618 163 641 197 641 C222 641 229 622 229 608 C229 566 184 566 169 566 L145 566 L145 476 L200 476 C236 476 249 455 249 438 C249 411 232 395 201 395 C161 395 155 418 151 433 L22 433 Z " />
<glyph glyph-name="acute" unicode="&#xb4;" horiz-adv-x="555" d="M391 848 L151 719 L198 621 L444 730 L391 848 Z " />
<glyph glyph-name="mu" unicode="&#xb5;" horiz-adv-x="634" d="M52 -190 L218 -190 L218 44 L220 44 C232 21 263 -10 318 -10 C383 -10 413 47 420 69 L422 69 L423 69 L423 0 L581 0 L581 555 L415 555 L415 281 C415 210 393 137 316 137 C239 137 218 210 218 281 L218 555 L52 555 L52 -190 Z " />
<glyph glyph-name="paragraph" unicode="&#xb6;" horiz-adv-x="701" d="M205 -103 L333 -103 L333 622 L430 622 L430 -103 L558 -103 L558 622 L607 622 L607 740 L247 740 C174 740 -7 733 -7 544 C-7 402 107 355 191 355 L205 355 L205 -103 Z " />
<glyph glyph-name="periodcentered" unicode="&#xb7;" horiz-adv-x="314" d="M244 338 L71 338 L71 168 L244 168 L244 338 Z " />
<glyph glyph-name="cedilla" unicode="&#xb8;" horiz-adv-x="555" d="M311 0 L228 0 L186 -87 L251 -122 C257 -114 265 -107 278 -107 C297 -107 312 -120 312 -141 C312 -163 299 -179 276 -179 C253 -179 248 -164 243 -151 L167 -151 C179 -240 259 -245 276 -245 C352 -245 388 -191 388 -141 C388 -77 341 -50 303 -50 C295 -50 288 -51 282 -53 L311 0 Z " />
<glyph glyph-name="onesuperior" unicode="&#xb9;" horiz-adv-x="407" d="M270 740 L69 740 L69 634 L147 634 L147 296 L270 296 L270 740 Z " />
<glyph glyph-name="ordmasculine" unicode="&#xba;" horiz-adv-x="385" d="M37 601 C37 530 87 448 192 448 C297 448 347 530 347 601 C347 672 297 754 192 754 C87 754 37 672 37 601 L37 601 Z M136 601 C136 635 162 660 192 660 C222 660 248 635 248 601 C248 567 222 542 192 542 C162 542 136 567 136 601 L136 601 Z " />
<glyph glyph-name="guillemotright" unicode="&#xbb;" horiz-adv-x="422" d="M246 103 L375 230 L375 343 L246 474 L246 335 L298 288 L246 243 L246 103 Z M47 103 L176 230 L176 343 L47 474 L47 335 L98 288 L47 243 L47 103 Z " />
<glyph glyph-name="onequarter" unicode="&#xbc;" horiz-adv-x="900" d="M498 740 L188 0 L324 0 L635 740 L498 740 Z M249 740 L48 740 L48 634 L126 634 L126 296 L249 296 L249 740 Z M676 77 L676 0 L799 0 L799 77 L851 77 L851 171 L799 171 L799 444 L681 444 L467 163 L467 77 L676 77 Z M676 288 L678 288 L678 171 L599 171 L676 288 Z " />
<glyph glyph-name="onehalf" unicode="&#xbd;" horiz-adv-x="920" d="M498 740 L188 0 L324 0 L635 740 L498 740 Z M249 740 L48 740 L48 634 L126 634 L126 296 L249 296 L249 740 Z M719 106 L719 108 C840 201 870 266 870 322 C870 387 812 453 705 453 C668 453 596 443 555 384 C529 346 527 309 526 278 L649 278 C650 296 653 346 696 346 C725 346 731 324 731 304 C730 225 626 158 531 97 L531 0 L872 0 L872 106 L719 106 Z " />
<glyph glyph-name="threequarters" unicode="&#xbe;" horiz-adv-x="1000" d="M702 171 L784 292 L786 292 L786 171 L702 171 Z M784 77 L784 0 L907 0 L907 77 L959 77 L959 171 L907 171 L907 444 L789 444 L575 163 L575 77 L784 77 Z M611 740 L301 0 L437 0 L748 740 L611 740 Z M41 433 C43 413 46 380 69 349 C99 308 161 287 219 287 C316 287 398 350 398 428 C398 475 367 517 315 534 C368 563 372 609 372 626 C372 689 315 749 220 749 C168 749 55 727 54 606 L180 606 C181 618 182 641 216 641 C241 641 248 622 248 608 C248 566 203 566 188 566 L164 566 L164 476 L219 476 C255 476 268 455 268 438 C268 411 251 395 220 395 C180 395 174 418 170 433 L41 433 Z " />
<glyph glyph-name="questiondown" unicode="&#xbf;" horiz-adv-x="592" d="M359 67 C358 29 357 -29 290 -29 C249 -29 233 -3 233 33 C233 65 251 94 301 143 C367 207 404 250 405 319 L231 319 C228 289 219 269 154 209 C100 159 41 104 41 12 C41 -87 125 -200 280 -200 C433 -200 543 -95 543 49 C543 54 543 58 542 67 L359 67 Z M231 385 L405 385 L405 555 L231 555 L231 385 Z " />
<glyph glyph-name="Agrave" unicode="&#xc0;" horiz-adv-x="758" d="M508 107 L544 0 L749 0 L455 740 L306 740 L9 0 L212 0 L251 107 L508 107 Z M379 510 L381 510 L382 510 L458 257 L303 257 L379 510 Z M264 984 L213 867 L460 759 L506 856 L264 984 Z " />
<glyph glyph-name="Aacute" unicode="&#xc1;" horiz-adv-x="758" d="M508 107 L544 0 L749 0 L455 740 L306 740 L9 0 L212 0 L251 107 L508 107 Z M379 510 L381 510 L382 510 L458 257 L303 257 L379 510 Z M493 993 L253 864 L300 766 L546 875 L493 993 Z " />
<glyph glyph-name="Acircumflex" unicode="&#xc2;" horiz-adv-x="758" d="M508 107 L544 0 L749 0 L455 740 L306 740 L9 0 L212 0 L251 107 L508 107 Z M379 510 L381 510 L382 510 L458 257 L303 257 L379 510 Z M380 843 L426 785 L586 785 L436 951 L328 951 L172 785 L334 785 L380 843 Z " />
<glyph glyph-name="Atilde" unicode="&#xc3;" horiz-adv-x="758" d="M508 107 L544 0 L749 0 L455 740 L306 740 L9 0 L212 0 L251 107 L508 107 Z M379 510 L381 510 L382 510 L458 257 L303 257 L379 510 Z M522 938 C497 928 480 921 449 921 C436 921 415 922 392 928 C318 944 310 946 287 946 C244 946 202 925 177 911 L237 823 C260 832 280 842 309 842 C339 842 435 816 469 816 C512 816 547 831 582 853 L522 938 Z " />
<glyph glyph-name="Adieresis" unicode="&#xc4;" horiz-adv-x="758" d="M508 107 L544 0 L749 0 L455 740 L306 740 L9 0 L212 0 L251 107 L508 107 Z M379 510 L381 510 L382 510 L458 257 L303 257 L379 510 Z M183 789 L342 789 L342 940 L183 940 L183 789 Z M416 789 L575 789 L575 940 L416 940 L416 789 Z " />
<glyph glyph-name="Aring" unicode="&#xc5;" horiz-adv-x="758" d="M508 107 L544 0 L749 0 L455 740 L306 740 L9 0 L212 0 L251 107 L508 107 Z M379 510 L381 510 L382 510 L458 257 L303 257 L379 510 Z M505 891 C505 960 449 1017 379 1017 C309 1017 253 960 253 891 C253 822 309 765 379 765 C449 765 505 822 505 891 L505 891 Z M335 891 C335 915 353 936 379 936 C404 936 423 916 423 892 C423 867 403 848 379 848 C355 848 335 867 335 891 L335 891 Z " />
<glyph glyph-name="AE" unicode="&#xc6;" horiz-adv-x="975" d="M514 124 L514 0 L925 0 L925 166 L697 166 L697 293 L918 293 L918 459 L697 459 L697 574 L925 574 L925 740 L504 740 L-10 0 L219 0 L299 124 L514 124 Z M376 270 L512 471 L514 471 L514 270 L376 270 Z " />
<glyph glyph-name="Ccedilla" unicode="&#xc7;" horiz-adv-x="832" d="M391 -122 C397 -114 405 -107 418 -107 C437 -107 452 -120 452 -141 C452 -163 439 -179 416 -179 C393 -179 388 -164 383 -151 L307 -151 C319 -240 399 -245 416 -245 C492 -245 528 -191 528 -141 C528 -77 477 -50 443 -50 C435 -50 428 -51 422 -53 L444 -13 C616 -6 759 108 801 277 L603 277 C591 251 543 152 425 152 C302 152 226 260 226 372 C226 477 297 588 424 588 C526 588 582 514 603 459 L801 459 C781 575 657 754 425 754 C183 754 37 560 37 371 C37 189 167 20 364 -9 L326 -87 L391 -122 Z " />
<glyph glyph-name="Egrave" unicode="&#xc8;" horiz-adv-x="528" d="M67 0 L478 0 L478 166 L248 166 L248 293 L471 293 L471 459 L248 459 L248 574 L478 574 L478 740 L67 740 L67 0 Z M149 1004 L98 887 L345 779 L391 876 L149 1004 Z " />
<glyph glyph-name="Eacute" unicode="&#xc9;" horiz-adv-x="528" d="M67 0 L478 0 L478 166 L248 166 L248 293 L471 293 L471 459 L248 459 L248 574 L478 574 L478 740 L67 740 L67 0 Z M378 1013 L138 884 L185 786 L431 895 L378 1013 Z " />
<glyph glyph-name="Ecircumflex" unicode="&#xca;" horiz-adv-x="528" d="M67 0 L478 0 L478 166 L248 166 L248 293 L471 293 L471 459 L248 459 L248 574 L478 574 L478 740 L67 740 L67 0 Z M265 863 L311 805 L471 805 L321 971 L213 971 L57 805 L219 805 L265 863 Z " />
<glyph glyph-name="Edieresis" unicode="&#xcb;" horiz-adv-x="528" d="M67 0 L478 0 L478 166 L248 166 L248 293 L471 293 L471 459 L248 459 L248 574 L478 574 L478 740 L67 740 L67 0 Z M68 809 L227 809 L227 960 L68 960 L68 809 Z M301 809 L460 809 L460 960 L301 960 L301 809 Z " />
<glyph glyph-name="Igrave" unicode="&#xcc;" horiz-adv-x="323" d="M67 0 L256 0 L256 740 L67 740 L67 0 Z M21 1004 L-30 887 L217 779 L263 876 L21 1004 Z " />
<glyph glyph-name="Iacute" unicode="&#xcd;" horiz-adv-x="323" d="M67 0 L256 0 L256 740 L67 740 L67 0 Z M300 1013 L60 884 L107 786 L353 895 L300 1013 Z " />
<glyph glyph-name="Icircumflex" unicode="&#xce;" horiz-adv-x="323" d="M67 0 L256 0 L256 740 L67 740 L67 0 Z M162 863 L208 805 L368 805 L218 971 L110 971 L-46 805 L116 805 L162 863 Z " />
<glyph glyph-name="Idieresis" unicode="&#xcf;" horiz-adv-x="323" d="M67 0 L256 0 L256 740 L67 740 L67 0 Z M-35 809 L124 809 L124 960 L-35 960 L-35 809 Z M198 809 L357 809 L357 960 L198 960 L198 809 Z " />
<glyph glyph-name="Eth" unicode="&#xd0;" horiz-adv-x="742" d="M0 296 L67 296 L67 0 L346 0 C591 0 707 170 707 372 C707 453 690 532 639 602 C540 740 399 740 316 740 L67 740 L67 462 L0 462 L0 296 Z M364 462 L256 462 L256 574 L338 574 C422 574 460 539 482 506 C509 464 518 411 518 369 C518 264 478 166 337 166 L256 166 L256 296 L364 296 L364 462 Z " />
<glyph glyph-name="Ntilde" unicode="&#xd1;" horiz-adv-x="759" d="M67 0 L248 0 L243 449 L245 450 L527 0 L691 0 L691 740 L510 740 L518 277 L516 275 L230 740 L67 740 L67 0 Z M522 938 C497 928 480 921 449 921 C436 921 415 922 392 928 C318 944 310 946 287 946 C244 946 202 925 177 911 L237 823 C260 832 280 842 309 842 C339 842 435 816 469 816 C512 816 547 831 582 853 L522 938 Z " />
<glyph glyph-name="Ograve" unicode="&#xd2;" horiz-adv-x="851" d="M64 519 C42 465 35 410 35 361 C35 171 191 -14 424 -14 C654 -14 816 164 816 370 C816 576 653 754 425 754 C218 754 103 615 64 519 L64 519 Z M224 372 C224 476 295 588 426 588 C562 588 627 465 627 369 C627 274 562 152 428 152 C301 152 224 258 224 372 L224 372 Z M310 1004 L259 887 L506 779 L552 876 L310 1004 Z " />
<glyph glyph-name="Oacute" unicode="&#xd3;" horiz-adv-x="851" d="M64 519 C42 465 35 410 35 361 C35 171 191 -14 424 -14 C654 -14 816 164 816 370 C816 576 653 754 425 754 C218 754 103 615 64 519 L64 519 Z M224 372 C224 476 295 588 426 588 C562 588 627 465 627 369 C627 274 562 152 428 152 C301 152 224 258 224 372 L224 372 Z M539 1013 L299 884 L346 786 L592 895 L539 1013 Z " />
<glyph glyph-name="Ocircumflex" unicode="&#xd4;" horiz-adv-x="851" d="M64 519 C42 465 35 410 35 361 C35 171 191 -14 424 -14 C654 -14 816 164 816 370 C816 576 653 754 425 754 C218 754 103 615 64 519 L64 519 Z M224 372 C224 476 295 588 426 588 C562 588 627 465 627 369 C627 274 562 152 428 152 C301 152 224 258 224 372 L224 372 Z M426 863 L472 805 L632 805 L482 971 L374 971 L218 805 L380 805 L426 863 Z " />
<glyph glyph-name="Otilde" unicode="&#xd5;" horiz-adv-x="851" d="M64 519 C42 465 35 410 35 361 C35 171 191 -14 424 -14 C654 -14 816 164 816 370 C816 576 653 754 425 754 C218 754 103 615 64 519 L64 519 Z M224 372 C224 476 295 588 426 588 C562 588 627 465 627 369 C627 274 562 152 428 152 C301 152 224 258 224 372 L224 372 Z M568 938 C543 928 526 921 495 921 C482 921 461 922 438 928 C364 944 356 946 333 946 C290 946 248 925 223 911 L283 823 C306 832 326 842 355 842 C385 842 481 816 515 816 C558 816 593 831 628 853 L568 938 Z " />
<glyph glyph-name="Odieresis" unicode="&#xd6;" horiz-adv-x="851" d="M64 519 C42 465 35 410 35 361 C35 171 191 -14 424 -14 C654 -14 816 164 816 370 C816 576 653 754 425 754 C218 754 103 615 64 519 L64 519 Z M224 372 C224 476 295 588 426 588 C562 588 627 465 627 369 C627 274 562 152 428 152 C301 152 224 258 224 372 L224 372 Z M229 809 L388 809 L388 960 L229 960 L229 809 Z M462 809 L621 809 L621 960 L462 960 L462 809 Z " />
<glyph glyph-name="multiply" unicode="&#xd7;" horiz-adv-x="600" d="M299 356 L169 486 L56 373 L186 243 L56 113 L169 0 L300 129 L429 0 L542 113 L413 243 L544 373 L430 487 L299 356 Z " />
<glyph glyph-name="Oslash" unicode="&#xd8;" horiz-adv-x="851" d="M593 719 C533 747 473 754 426 754 C204 754 35 586 35 370 C35 232 99 149 138 107 L76 24 L194 -63 L257 21 C285 9 337 -14 424 -14 C654 -14 816 165 816 370 C816 510 745 597 711 634 L775 720 L657 806 L593 719 Z M251 259 C236 287 224 330 224 373 C224 470 290 588 426 588 C458 588 477 582 488 578 L251 259 Z M598 483 C620 442 627 404 627 369 C627 277 565 152 427 152 C393 152 373 159 361 163 L598 483 Z " />
<glyph glyph-name="Ugrave" unicode="&#xd9;" horiz-adv-x="698" d="M65 740 L65 293 C65 184 78 132 139 65 C200 -1 298 -14 352 -14 C444 -14 511 17 559 66 C606 114 633 169 633 293 L633 740 L444 740 L444 293 C444 234 444 152 350 152 C257 152 254 243 254 293 L254 740 L65 740 Z M199 1004 L148 887 L395 779 L441 876 L199 1004 Z " />
<glyph glyph-name="Uacute" unicode="&#xda;" horiz-adv-x="698" d="M65 740 L65 293 C65 184 78 132 139 65 C200 -1 298 -14 352 -14 C444 -14 511 17 559 66 C606 114 633 169 633 293 L633 740 L444 740 L444 293 C444 234 444 152 350 152 C257 152 254 243 254 293 L254 740 L65 740 Z M498 1013 L258 884 L305 786 L551 895 L498 1013 Z " />
<glyph glyph-name="Ucircumflex" unicode="&#xdb;" horiz-adv-x="698" d="M65 740 L65 293 C65 184 78 132 139 65 C200 -1 298 -14 352 -14 C444 -14 511 17 559 66 C606 114 633 169 633 293 L633 740 L444 740 L444 293 C444 234 444 152 350 152 C257 152 254 243 254 293 L254 740 L65 740 Z M350 863 L396 805 L556 805 L406 971 L298 971 L142 805 L304 805 L350 863 Z " />
<glyph glyph-name="Udieresis" unicode="&#xdc;" horiz-adv-x="698" d="M65 740 L65 293 C65 184 78 132 139 65 C200 -1 298 -14 352 -14 C444 -14 511 17 559 66 C606 114 633 169 633 293 L633 740 L444 740 L444 293 C444 234 444 152 350 152 C257 152 254 243 254 293 L254 740 L65 740 Z M153 809 L312 809 L312 960 L153 960 L153 809 Z M386 809 L545 809 L545 960 L386 960 L386 809 Z " />
<glyph glyph-name="Yacute" unicode="&#xdd;" horiz-adv-x="647" d="M230 0 L419 0 L419 269 L638 740 L435 740 L324 443 L214 740 L9 740 L230 269 L230 0 Z M472 1013 L232 884 L279 786 L525 895 L472 1013 Z " />
<glyph glyph-name="Thorn" unicode="&#xde;" horiz-adv-x="636" d="M67 0 L248 0 L248 136 L330 136 C445 136 495 157 546 200 C593 240 624 319 624 394 C624 469 595 542 537 590 C497 623 446 644 309 644 L248 643 L248 740 L67 740 L67 0 Z M248 478 L318 478 C359 478 443 478 443 391 C443 302 361 302 325 302 L248 302 L248 478 Z " />
<glyph glyph-name="germandbls" unicode="&#xdf;" horiz-adv-x="694" d="M224 0 L224 64 C257 30 303 -18 402 -18 C560 -18 660 107 660 228 C660 327 586 401 505 421 C526 435 576 468 576 550 C576 657 481 759 341 759 C265 759 180 727 122 662 C69 603 58 545 58 427 L58 0 L224 0 Z M224 474 C224 498 224 604 322 604 C374 604 410 571 410 521 C410 477 378 445 326 445 L292 445 L292 320 L382 320 C484 320 494 250 494 227 C494 183 461 137 403 137 C338 137 324 184 317 209 L224 209 L224 474 Z " />
<glyph glyph-name="agrave" unicode="&#xe0;" horiz-adv-x="704" d="M643 555 L477 555 L477 496 L475 496 C455 530 404 574 313 574 C165 574 34 460 34 278 C34 119 137 -19 313 -19 C378 -19 447 6 475 60 L477 60 L477 0 L643 0 L643 555 Z M200 276 C200 339 242 419 337 419 C431 419 477 345 477 278 C477 224 442 136 338 136 C238 136 200 224 200 276 L200 276 Z M237 839 L186 722 L433 614 L479 711 L237 839 Z " />
<glyph glyph-name="aacute" unicode="&#xe1;" horiz-adv-x="704" d="M643 555 L477 555 L477 496 L475 496 C455 530 404 574 313 574 C165 574 34 460 34 278 C34 119 137 -19 313 -19 C378 -19 447 6 475 60 L477 60 L477 0 L643 0 L643 555 Z M200 276 C200 339 242 419 337 419 C431 419 477 345 477 278 C477 224 442 136 338 136 C238 136 200 224 200 276 L200 276 Z M466 848 L226 719 L273 621 L519 730 L466 848 Z " />
<glyph glyph-name="acircumflex" unicode="&#xe2;" horiz-adv-x="704" d="M643 555 L477 555 L477 496 L475 496 C455 530 404 574 313 574 C165 574 34 460 34 278 C34 119 137 -19 313 -19 C378 -19 447 6 475 60 L477 60 L477 0 L643 0 L643 555 Z M200 276 C200 339 242 419 337 419 C431 419 477 345 477 278 C477 224 442 136 338 136 C238 136 200 224 200 276 L200 276 Z M353 698 L399 640 L559 640 L409 806 L301 806 L145 640 L307 640 L353 698 Z " />
<glyph glyph-name="atilde" unicode="&#xe3;" horiz-adv-x="704" d="M643 555 L477 555 L477 496 L475 496 C455 530 404 574 313 574 C165 574 34 460 34 278 C34 119 137 -19 313 -19 C378 -19 447 6 475 60 L477 60 L477 0 L643 0 L643 555 Z M200 276 C200 339 242 419 337 419 C431 419 477 345 477 278 C477 224 442 136 338 136 C238 136 200 224 200 276 L200 276 Z M495 773 C470 763 453 756 422 756 C409 756 388 757 365 763 C291 779 283 781 260 781 C217 781 175 760 150 746 L210 658 C233 667 253 677 282 677 C312 677 408 651 442 651 C485 651 520 666 555 688 L495 773 Z " />
<glyph glyph-name="adieresis" unicode="&#xe4;" horiz-adv-x="704" d="M643 555 L477 555 L477 496 L475 496 C455 530 404 574 313 574 C165 574 34 460 34 278 C34 119 137 -19 313 -19 C378 -19 447 6 475 60 L477 60 L477 0 L643 0 L643 555 Z M200 276 C200 339 242 419 337 419 C431 419 477 345 477 278 C477 224 442 136 338 136 C238 136 200 224 200 276 L200 276 Z M156 644 L315 644 L315 795 L156 795 L156 644 Z M389 644 L548 644 L548 795 L389 795 L389 644 Z " />
<glyph glyph-name="aring" unicode="&#xe5;" horiz-adv-x="704" d="M643 555 L477 555 L477 496 L475 496 C455 530 404 574 313 574 C165 574 34 460 34 278 C34 119 137 -19 313 -19 C378 -19 447 6 475 60 L477 60 L477 0 L643 0 L643 555 Z M200 276 C200 339 242 419 337 419 C431 419 477 345 477 278 C477 224 442 136 338 136 C238 136 200 224 200 276 L200 276 Z M478 726 C478 795 422 852 352 852 C282 852 226 795 226 726 C226 657 282 600 352 600 C422 600 478 657 478 726 L478 726 Z M308 726 C308 750 326 771 352 771 C377 771 396 751 396 727 C396 702 376 683 352 683 C328 683 308 702 308 726 L308 726 Z " />
<glyph glyph-name="ae" unicode="&#xe6;" horiz-adv-x="1091" d="M1055 226 C1058 238 1059 245 1059 267 C1059 463 918 574 781 574 C678 570 641 518 629 502 L627 502 L627 555 L476 555 L476 501 L474 501 C454 544 383 574 320 574 C152 574 34 443 34 277 C34 150 131 -18 316 -18 C388 -21 453 15 474 55 L476 55 L476 0 L627 0 L627 55 L629 55 C641 37 679 -14 777 -18 C840 -18 963 -2 1040 175 L873 175 C852 152 824 122 765 122 C719 122 650 145 638 226 L1055 226 Z M642 336 C648 372 684 433 771 433 C825 433 875 409 895 336 L642 336 Z M200 281 C200 324 234 419 335 419 C423 419 476 357 476 276 C476 197 417 137 341 137 C263 137 200 194 200 281 L200 281 Z " />
<glyph glyph-name="ccedilla" unicode="&#xe7;" horiz-adv-x="652" d="M298 -122 C304 -114 312 -107 325 -107 C344 -107 359 -120 359 -141 C359 -163 346 -179 323 -179 C300 -179 295 -164 290 -151 L214 -151 C226 -240 306 -245 323 -245 C399 -245 435 -191 435 -141 C435 -77 384 -50 350 -50 C342 -50 335 -51 329 -53 L349 -16 C489 -9 592 90 621 211 L452 211 C434 177 401 137 332 137 C253 137 200 197 200 278 C200 356 253 419 332 415 C401 415 434 375 452 341 L620 341 C592 477 473 574 326 574 C160 574 33 442 33 279 C33 135 132 16 269 -12 L233 -87 L298 -122 Z " />
<glyph glyph-name="egrave" unicode="&#xe8;" horiz-adv-x="646" d="M425 174 C402 145 375 122 324 122 C259 122 204 161 194 227 L610 227 C612 240 614 249 614 271 C614 440 490 574 321 574 C152 574 30 431 30 276 C30 111 165 -18 324 -18 C381 -18 436 -1 482 32 C529 64 568 112 595 174 L425 174 Z M196 339 C203 372 236 434 322 434 C408 434 441 372 448 339 L196 339 Z M208 839 L157 722 L404 614 L450 711 L208 839 Z " />
<glyph glyph-name="eacute" unicode="&#xe9;" horiz-adv-x="646" d="M425 174 C402 145 375 122 324 122 C259 122 204 161 194 227 L610 227 C612 240 614 249 614 271 C614 440 490 574 321 574 C152 574 30 431 30 276 C30 111 165 -18 324 -18 C381 -18 436 -1 482 32 C529 64 568 112 595 174 L425 174 Z M196 339 C203 372 236 434 322 434 C408 434 441 372 448 339 L196 339 Z M437 848 L197 719 L244 621 L490 730 L437 848 Z " />
<glyph glyph-name="ecircumflex" unicode="&#xea;" horiz-adv-x="646" d="M425 174 C402 145 375 122 324 122 C259 122 204 161 194 227 L610 227 C612 240 614 249 614 271 C614 440 490 574 321 574 C152 574 30 431 30 276 C30 111 165 -18 324 -18 C381 -18 436 -1 482 32 C529 64 568 112 595 174 L425 174 Z M196 339 C203 372 236 434 322 434 C408 434 441 372 448 339 L196 339 Z M324 698 L370 640 L530 640 L380 806 L272 806 L116 640 L278 640 L324 698 Z " />
<glyph glyph-name="edieresis" unicode="&#xeb;" horiz-adv-x="646" d="M425 174 C402 145 375 122 324 122 C259 122 204 161 194 227 L610 227 C612 240 614 249 614 271 C614 440 490 574 321 574 C152 574 30 431 30 276 C30 111 165 -18 324 -18 C381 -18 436 -1 482 32 C529 64 568 112 595 174 L425 174 Z M196 339 C203 372 236 434 322 434 C408 434 441 372 448 339 L196 339 Z M127 644 L286 644 L286 795 L127 795 L127 644 Z M360 644 L519 644 L519 795 L360 795 L360 644 Z " />
<glyph glyph-name="igrave" unicode="&#xec;" horiz-adv-x="286" d="M226 555 L60 555 L60 0 L226 0 L226 555 Z M3 839 L-48 722 L199 614 L245 711 L3 839 Z " />
<glyph glyph-name="iacute" unicode="&#xed;" horiz-adv-x="286" d="M226 555 L60 555 L60 0 L226 0 L226 555 Z M282 848 L42 719 L89 621 L335 730 L282 848 Z " />
<glyph glyph-name="icircumflex" unicode="&#xee;" horiz-adv-x="286" d="M226 555 L60 555 L60 0 L226 0 L226 555 Z M144 698 L190 640 L350 640 L200 806 L92 806 L-64 640 L98 640 L144 698 Z " />
<glyph glyph-name="idieresis" unicode="&#xef;" horiz-adv-x="286" d="M226 555 L60 555 L60 0 L226 0 L226 555 Z M-53 644 L106 644 L106 795 L-53 795 L-53 644 Z M180 644 L339 644 L339 795 L180 795 L180 644 Z " />
<glyph glyph-name="eth" unicode="&#xf0;" horiz-adv-x="666" d="M338 420 C426 420 466 341 466 279 C466 221 430 138 335 138 C242 138 200 215 200 279 C200 335 239 420 338 420 L338 420 Z M593 692 L510 756 L381 717 C347 735 312 748 280 756 L120 703 C153 695 186 682 219 667 L79 624 L172 564 L322 609 C367 579 402 546 419 516 L417 514 C385 547 349 560 300 561 C172 563 34 463 34 276 C34 108 167 -17 333 -17 C513 -17 632 126 632 302 C632 379 614 461 584 518 C555 574 516 619 472 655 L593 692 Z " />
<glyph glyph-name="ntilde" unicode="&#xf1;" horiz-adv-x="632" d="M60 0 L226 0 L226 302 C226 336 226 418 321 418 C408 418 408 342 408 303 L408 0 L574 0 L574 347 C574 456 540 500 510 526 C480 552 421 574 368 574 C269 574 234 523 217 496 L215 496 L215 555 L60 555 L60 0 Z M459 773 C434 763 417 756 386 756 C373 756 352 757 329 763 C255 779 247 781 224 781 C181 781 139 760 114 746 L174 658 C197 667 217 677 246 677 C276 677 372 651 406 651 C449 651 484 666 519 688 L459 773 Z " />
<glyph glyph-name="ograve" unicode="&#xf2;" horiz-adv-x="666" d="M34 278 C34 142 131 -17 333 -17 C535 -17 632 142 632 278 C632 414 535 573 333 573 C131 573 34 414 34 278 L34 278 Z M200 278 C200 359 261 418 333 418 C405 418 466 359 466 278 C466 197 405 138 333 138 C261 138 200 197 200 278 L200 278 Z M218 839 L167 722 L414 614 L460 711 L218 839 Z " />
<glyph glyph-name="oacute" unicode="&#xf3;" horiz-adv-x="666" d="M34 278 C34 142 131 -17 333 -17 C535 -17 632 142 632 278 C632 414 535 573 333 573 C131 573 34 414 34 278 L34 278 Z M200 278 C200 359 261 418 333 418 C405 418 466 359 466 278 C466 197 405 138 333 138 C261 138 200 197 200 278 L200 278 Z M447 848 L207 719 L254 621 L500 730 L447 848 Z " />
<glyph glyph-name="ocircumflex" unicode="&#xf4;" horiz-adv-x="666" d="M34 278 C34 142 131 -17 333 -17 C535 -17 632 142 632 278 C632 414 535 573 333 573 C131 573 34 414 34 278 L34 278 Z M200 278 C200 359 261 418 333 418 C405 418 466 359 466 278 C466 197 405 138 333 138 C261 138 200 197 200 278 L200 278 Z M334 698 L380 640 L540 640 L390 806 L282 806 L126 640 L288 640 L334 698 Z " />
<glyph glyph-name="otilde" unicode="&#xf5;" horiz-adv-x="666" d="M34 278 C34 142 131 -17 333 -17 C535 -17 632 142 632 278 C632 414 535 573 333 573 C131 573 34 414 34 278 L34 278 Z M200 278 C200 359 261 418 333 418 C405 418 466 359 466 278 C466 197 405 138 333 138 C261 138 200 197 200 278 L200 278 Z M476 773 C451 763 434 756 403 756 C390 756 369 757 346 763 C272 779 264 781 241 781 C198 781 156 760 131 746 L191 658 C214 667 234 677 263 677 C293 677 389 651 423 651 C466 651 501 666 536 688 L476 773 Z " />
<glyph glyph-name="odieresis" unicode="&#xf6;" horiz-adv-x="666" d="M34 278 C34 142 131 -17 333 -17 C535 -17 632 142 632 278 C632 414 535 573 333 573 C131 573 34 414 34 278 L34 278 Z M200 278 C200 359 261 418 333 418 C405 418 466 359 466 278 C466 197 405 138 333 138 C261 138 200 197 200 278 L200 278 Z M137 644 L296 644 L296 795 L137 795 L137 644 Z M370 644 L529 644 L529 795 L370 795 L370 644 Z " />
<glyph glyph-name="divide" unicode="&#xf7;" horiz-adv-x="600" d="M552 173 L552 333 L48 333 L48 173 L552 173 Z M378 563 L221 563 L221 403 L378 403 L378 563 Z M378 103 L221 103 L221 -57 L378 -57 L378 103 Z " />
<glyph glyph-name="oslash" unicode="&#xf8;" horiz-adv-x="666" d="M455 550 C441 556 398 573 334 573 C131 573 34 415 34 276 C34 199 62 127 104 79 L43 -3 L148 -83 L213 5 C232 -3 272 -18 334 -18 C532 -18 632 138 632 278 C632 349 607 418 561 473 L623 556 L516 633 L455 550 Z M213 216 C208 227 200 247 200 278 C200 357 259 418 334 418 C346 418 355 416 361 415 L213 216 Z M454 336 C458 326 466 308 466 278 C466 207 417 137 333 137 C321 137 314 139 308 140 L454 336 Z " />
<glyph glyph-name="ugrave" unicode="&#xf9;" horiz-adv-x="634" d="M574 555 L408 555 L408 250 C408 162 361 137 313 137 C224 137 224 210 224 248 L224 555 L58 555 L58 223 C58 147 64 107 108 52 C157 -10 237 -18 271 -18 C313 -18 381 -12 415 59 L417 59 L417 0 L574 0 L574 555 Z M167 839 L116 722 L363 614 L409 711 L167 839 Z " />
<glyph glyph-name="uacute" unicode="&#xfa;" horiz-adv-x="634" d="M574 555 L408 555 L408 250 C408 162 361 137 313 137 C224 137 224 210 224 248 L224 555 L58 555 L58 223 C58 147 64 107 108 52 C157 -10 237 -18 271 -18 C313 -18 381 -12 415 59 L417 59 L417 0 L574 0 L574 555 Z M466 848 L226 719 L273 621 L519 730 L466 848 Z " />
<glyph glyph-name="ucircumflex" unicode="&#xfb;" horiz-adv-x="634" d="M574 555 L408 555 L408 250 C408 162 361 137 313 137 C224 137 224 210 224 248 L224 555 L58 555 L58 223 C58 147 64 107 108 52 C157 -10 237 -18 271 -18 C313 -18 381 -12 415 59 L417 59 L417 0 L574 0 L574 555 Z M318 698 L364 640 L524 640 L374 806 L266 806 L110 640 L272 640 L318 698 Z " />
<glyph glyph-name="udieresis" unicode="&#xfc;" horiz-adv-x="634" d="M574 555 L408 555 L408 250 C408 162 361 137 313 137 C224 137 224 210 224 248 L224 555 L58 555 L58 223 C58 147 64 107 108 52 C157 -10 237 -18 271 -18 C313 -18 381 -12 415 59 L417 59 L417 0 L574 0 L574 555 Z M121 644 L280 644 L280 795 L121 795 L121 644 Z M354 644 L513 644 L513 795 L354 795 L354 644 Z " />
<glyph glyph-name="yacute" unicode="&#xfd;" horiz-adv-x="574" d="M397 555 L291 233 L289 233 L178 555 L1 555 L207 28 L119 -185 L295 -185 L573 555 L397 555 Z M436 848 L196 719 L243 621 L489 730 L436 848 Z " />
<glyph glyph-name="thorn" unicode="&#xfe;" horiz-adv-x="695" d="M59 -185 L225 -185 L225 50 C244 30 289 -19 392 -19 C550 -19 663 112 663 272 C663 401 588 573 390 573 C295 573 252 532 225 506 L225 740 L59 740 L59 -185 Z M357 136 C269 136 217 207 217 277 C217 343 265 418 357 418 C449 418 497 343 497 277 C497 207 445 136 357 136 L357 136 Z " />
<glyph glyph-name="ydieresis" unicode="&#xff;" horiz-adv-x="574" d="M397 555 L291 233 L289 233 L178 555 L1 555 L207 28 L119 -185 L295 -185 L573 555 L397 555 Z M91 644 L250 644 L250 795 L91 795 L91 644 Z M324 644 L483 644 L483 795 L324 795 L324 644 Z " />
<glyph glyph-name="dotlessi" unicode="&#x131;" horiz-adv-x="286" d="M226 555 L60 555 L60 0 L226 0 L226 555 Z " />
<glyph glyph-name="Lslash" unicode="&#x141;" horiz-adv-x="487" d="M72 205 L72 0 L480 0 L480 166 L261 166 L261 341 L370 419 L370 607 L261 529 L261 740 L72 740 L72 393 L7 346 L7 158 L72 205 Z " />
<glyph glyph-name="lslash" unicode="&#x142;" horiz-adv-x="342" d="M86 226 L86 0 L252 0 L252 333 L317 375 L317 547 L252 505 L252 740 L86 740 L86 398 L25 359 L25 187 L86 226 Z " />
<glyph glyph-name="OE" unicode="&#x152;" horiz-adv-x="1085" d="M1035 740 L623 740 L623 691 C591 714 536 754 424 754 C179 754 35 562 35 368 C35 163 198 -14 419 -14 C474 -14 548 -5 623 49 L623 0 L1035 0 L1035 166 L805 166 L805 293 L1027 293 L1027 459 L805 459 L805 574 L1035 574 L1035 740 Z M224 368 C224 472 288 588 423 588 C545 588 622 491 622 373 C622 264 554 152 422 152 C281 152 224 282 224 368 L224 368 Z " />
<glyph glyph-name="oe" unicode="&#x153;" horiz-adv-x="1076" d="M856 173 C833 148 806 122 748 122 C676 122 630 167 624 226 L1040 226 C1043 241 1045 251 1045 272 C1045 443 914 574 752 574 C662 574 580 529 544 479 C508 529 426 574 336 574 C147 574 34 431 34 276 C34 108 167 -19 328 -19 C465 -19 521 52 544 81 C566 51 624 -19 752 -19 C834 -19 895 12 940 52 C984 92 1012 140 1026 173 L856 173 Z M629 337 C640 397 694 433 754 433 C814 433 865 398 879 337 L629 337 Z M200 277 C200 369 271 419 334 419 C413 419 467 349 467 278 C467 215 422 136 335 136 C259 136 200 201 200 277 L200 277 Z " />
<glyph glyph-name="Scaron" unicode="&#x160;" horiz-adv-x="573" d="M544 524 C542 566 539 616 495 670 C447 727 368 754 295 754 C171 754 36 675 36 536 C36 397 165 345 217 324 C331 276 362 264 362 215 C362 181 335 144 290 144 C266 144 213 159 213 245 L25 245 L25 221 C25 126 78 -14 292 -14 C488 -14 550 105 550 213 C550 299 515 363 377 425 C244 485 224 494 224 538 C224 573 256 596 289 596 C347 596 353 549 357 524 L544 524 Z M286 906 L240 964 L79 964 L230 798 L338 798 L493 964 L332 964 L286 906 Z " />
<glyph glyph-name="scaron" unicode="&#x161;" horiz-adv-x="499" d="M459 399 C445 545 319 574 246 574 C131 574 31 501 31 391 C31 316 91 269 163 246 C269 205 310 200 310 157 C310 130 280 114 252 114 C245 114 196 114 189 165 L24 165 C39 19 166 -19 250 -19 C373 -19 476 53 476 170 C476 290 376 318 282 344 C238 357 197 374 197 404 C197 419 209 441 244 441 C293 441 295 411 296 399 L459 399 Z M249 741 L203 799 L42 799 L193 633 L301 633 L456 799 L295 799 L249 741 Z " />
<glyph glyph-name="Ydieresis" unicode="&#x178;" horiz-adv-x="647" d="M230 0 L419 0 L419 269 L638 740 L435 740 L324 443 L214 740 L9 740 L230 269 L230 0 Z M127 809 L286 809 L286 960 L127 960 L127 809 Z M360 809 L519 809 L519 960 L360 960 L360 809 Z " />
<glyph glyph-name="Zcaron" unicode="&#x17d;" horiz-adv-x="499" d="M16 0 L483 0 L483 166 L247 166 L483 587 L483 740 L16 740 L16 574 L271 574 L16 124 L16 0 Z M274 906 L228 964 L67 964 L218 798 L326 798 L481 964 L320 964 L274 906 Z " />
<glyph glyph-name="zcaron" unicode="&#x17e;" horiz-adv-x="444" d="M211 126 L428 429 L428 555 L15 555 L15 429 L249 429 L15 114 L15 0 L428 0 L428 126 L211 126 Z M247 741 L201 799 L40 799 L191 633 L299 633 L454 799 L293 799 L247 741 Z " />
<glyph glyph-name="florin" unicode="&#x192;" horiz-adv-x="618" d="M434 591 C442 641 456 682 525 682 L547 815 C533 818 513 818 505 818 C429 818 298 775 270 623 L264 591 L191 591 L170 466 L242 466 L182 118 C170 48 153 0 69 0 C62 0 59 1 51 2 L25 -146 C43 -152 72 -152 79 -152 C148 -152 230 -127 284 -60 C329 -3 340 58 355 140 L412 466 L484 466 L507 591 L434 591 Z " />
<glyph glyph-name="circumflex" unicode="&#x2c6;" horiz-adv-x="555" d="M278 698 L324 640 L484 640 L334 806 L226 806 L70 640 L232 640 L278 698 Z " />
<glyph glyph-name="caron" unicode="&#x2c7;" horiz-adv-x="555" d="M277 741 L231 799 L70 799 L221 633 L329 633 L484 799 L323 799 L277 741 Z " />
<glyph glyph-name="breve" unicode="&#x2d8;" horiz-adv-x="555" d="M71 788 C78 692 159 644 277 644 C338 644 387 657 423 681 C458 705 480 741 483 788 L370 788 C347 753 297 753 282 753 C246 753 224 758 210 765 C196 772 190 781 184 788 L71 788 Z " />
<glyph glyph-name="dotaccent" unicode="&#x2d9;" horiz-adv-x="555" d="M198 644 L357 644 L357 795 L198 795 L198 644 Z " />
<glyph glyph-name="ring" unicode="&#x2da;" horiz-adv-x="555" d="M403 726 C403 795 347 852 277 852 C207 852 151 795 151 726 C151 657 207 600 277 600 C347 600 403 657 403 726 L403 726 Z M233 726 C233 750 251 771 277 771 C302 771 321 751 321 727 C321 702 301 683 277 683 C253 683 233 702 233 726 L233 726 Z " />
<glyph glyph-name="ogonek" unicode="&#x2db;" horiz-adv-x="555" d="M380 -104 C360 -112 348 -116 333 -116 C307 -116 285 -93 285 -68 C285 -32 326 -9 342 0 L258 0 C192 -45 175 -74 175 -109 C175 -160 214 -206 294 -206 C330 -206 355 -198 380 -190 L380 -104 Z " />
<glyph glyph-name="tilde" unicode="&#x2dc;" horiz-adv-x="555" d="M420 773 C395 763 378 756 347 756 C334 756 313 757 290 763 C216 779 208 781 185 781 C142 781 100 760 75 746 L135 658 C158 667 178 677 207 677 C237 677 333 651 367 651 C410 651 445 666 480 688 L420 773 Z " />
<glyph glyph-name="hungarumlaut" unicode="&#x2dd;" horiz-adv-x="555" d="M176 832 L102 647 L208 600 L294 775 L176 832 Z M376 832 L301 647 L407 600 L493 775 L376 832 Z " />
<glyph glyph-name="endash" unicode="&#x2013;" horiz-adv-x="500" d="M465 370 L35 370 L35 207 L465 207 L465 370 Z " />
<glyph glyph-name="emdash" unicode="&#x2014;" horiz-adv-x="1000" d="M965 370 L35 370 L35 207 L965 207 L965 370 Z " />
<glyph glyph-name="quoteleft" unicode="&#x2018;" horiz-adv-x="314" d="M70 409 L244 409 L244 579 L166 579 L166 613 C166 623 172 651 208 651 L244 651 L244 740 L172 740 C137 740 70 717 70 619 L70 409 Z " />
<glyph glyph-name="quoteright" unicode="&#x2019;" horiz-adv-x="314" d="M244 740 L70 740 L70 570 L149 570 L149 536 C149 525 143 498 106 498 L70 498 L70 409 L142 409 C177 409 244 431 244 530 L244 740 Z " />
<glyph glyph-name="quotesinglbase" unicode="&#x201a;" horiz-adv-x="314" d="M244 170 L70 170 L70 0 L149 0 L149 -34 C149 -44 143 -72 106 -72 L70 -72 L70 -161 L142 -161 C177 -161 244 -138 244 -40 L244 170 Z " />
<glyph glyph-name="quotedblleft" unicode="&#x201c;" horiz-adv-x="555" d="M314 409 L488 409 L488 579 L409 579 L409 613 C409 623 415 650 452 650 L488 650 L488 740 L416 740 C381 740 314 717 314 619 L314 409 Z M67 409 L241 409 L241 579 L162 579 L162 613 C162 622 167 650 205 650 L241 650 L241 740 L169 740 C134 740 67 717 67 619 L67 409 Z " />
<glyph glyph-name="quotedblright" unicode="&#x201d;" horiz-adv-x="555" d="M241 740 L67 740 L67 570 L146 570 L146 536 C146 525 140 498 103 498 L67 498 L67 409 L139 409 C174 409 241 431 241 530 L241 740 Z M488 740 L314 740 L314 570 L392 570 L392 536 C392 525 386 498 350 498 L314 498 L314 409 L386 409 C421 409 488 431 488 530 L488 740 Z " />
<glyph glyph-name="quotedblbase" unicode="&#x201e;" horiz-adv-x="555" d="M241 170 L67 170 L67 0 L145 0 L145 -34 C145 -44 139 -72 102 -72 L67 -72 L67 -161 L138 -161 C174 -161 242 -138 241 -40 L241 170 Z M488 170 L314 170 L314 0 L392 0 L392 -34 C392 -44 386 -72 350 -72 L314 -72 L314 -161 L386 -161 C421 -161 488 -138 488 -40 L488 170 Z " />
<glyph glyph-name="dagger" unicode="&#x2020;" horiz-adv-x="670" d="M418 740 L253 740 L253 563 L98 563 L98 423 L253 423 L253 -244 L418 -244 L418 423 L572 423 L572 563 L418 563 L418 740 Z " />
<glyph glyph-name="daggerdbl" unicode="&#x2021;" horiz-adv-x="670" d="M418 740 L253 740 L253 593 L98 593 L98 453 L253 453 L253 127 L98 127 L98 -13 L253 -13 L253 -244 L418 -244 L418 -13 L572 -13 L572 127 L418 127 L418 453 L572 453 L572 593 L418 593 L418 740 Z " />
<glyph glyph-name="bullet" unicode="&#x2022;" horiz-adv-x="739" d="M371 532 C282 532 217 459 217 377 C217 293 285 222 370 222 C453 222 522 291 522 377 C522 462 454 532 371 532 L371 532 Z " />
<glyph glyph-name="ellipsis" unicode="&#x2026;" horiz-adv-x="1000" d="M254 170 L81 170 L81 0 L254 0 L254 170 Z M587 170 L414 170 L414 0 L587 0 L587 170 Z M920 170 L747 170 L747 0 L920 0 L920 170 Z " />
<glyph glyph-name="perthousand" unicode="&#x2030;" horiz-adv-x="1258" d="M36 574 C36 474 118 394 216 394 C315 394 396 474 396 574 C396 674 316 755 216 755 C117 755 36 674 36 574 L36 574 Z M147 574 C147 614 178 644 216 644 C254 644 285 614 285 575 C285 535 252 505 216 505 C178 505 147 537 147 574 L147 574 Z M461 166 C461 64 544 -15 642 -15 C739 -15 822 65 822 166 C822 266 741 347 642 347 C542 347 461 266 461 166 L461 166 Z M572 166 C572 204 602 236 642 236 C679 236 711 206 711 166 C711 127 679 96 642 96 C603 96 572 128 572 166 L572 166 Z M861 166 C861 64 944 -15 1042 -15 C1139 -15 1222 65 1222 166 C1222 266 1141 347 1042 347 C942 347 861 266 861 166 L861 166 Z M972 166 C972 204 1002 236 1042 236 C1079 236 1111 206 1111 166 C1111 127 1079 96 1042 96 C1003 96 972 128 972 166 L972 166 Z M216 0 L331 0 L638 740 L522 740 L216 0 Z " />
<glyph glyph-name="guilsinglleft" unicode="&#x2039;" horiz-adv-x="222" d="M175 474 L47 344 L47 230 L175 103 L175 242 L124 289 L175 334 L175 474 Z " />
<glyph glyph-name="guilsinglright" unicode="&#x203a;" horiz-adv-x="222" d="M47 103 L175 230 L175 343 L47 474 L47 335 L98 288 L47 243 L47 103 Z " />
<glyph glyph-name="fraction" unicode="&#x2044;" horiz-adv-x="211" d="M192 740 L-118 0 L18 0 L329 740 L192 740 Z " />
<glyph glyph-name="trademark" unicode="&#x2122;" horiz-adv-x="990" d="M112 296 L238 296 L238 634 L328 634 L328 740 L21 740 L21 634 L112 634 L112 296 Z M386 296 L503 296 L499 595 L501 597 L591 296 L675 296 L762 597 L764 597 L762 296 L879 296 L879 740 L720 740 L634 463 L632 463 L545 740 L386 740 L386 296 Z " />
<glyph glyph-name="minus" unicode="&#x2212;" horiz-adv-x="600" d="M552 173 L552 333 L48 333 L48 173 L552 173 Z " />
<glyph glyph-name="fi" unicode="&#xfb01;" horiz-adv-x="601" d="M4 555 L4 429 L66 429 L66 0 L232 0 L232 429 L375 429 L375 0 L541 0 L541 555 L232 555 L232 577 C232 624 269 629 284 629 L303 629 L303 754 L278 754 C197 754 66 740 66 584 L66 555 L4 555 Z M541 740 L375 740 L375 614 L541 614 L541 740 Z " />
<glyph glyph-name="fl" unicode="&#xfb02;" horiz-adv-x="601" d="M4 555 L4 429 L66 429 L66 0 L232 0 L232 429 L375 429 L375 0 L541 0 L541 739 L375 739 L375 555 L232 555 L232 577 C232 624 269 629 284 629 L303 629 L303 754 L278 754 C197 754 66 740 66 584 L66 555 L4 555 Z " />
</font>
</svg>
