<?xml version="1.0" encoding="UTF-8"?>
<svg xmlns="http://www.w3.org/2000/svg" xmlns:xlink="http://www.w3.org/1999/xlink" version="1.2" >
<font id="ITC Avant Garde Gothic Demi">
<font-face  font-family="ITC Avant Garde Gothic" units-per-em="1000" ascent="750" descent="-250" font-style="normal" font-weight="400" font-stretch="normal" cap-height="750" x-height="500" underline-position="-75" underline-thickness="50" />
<missing-glyph  horiz-adv-x="280" d="" />
<glyph glyph-name="NULL" d="" />
<glyph glyph-name="CR" unicode="&#xd;" horiz-adv-x="250" d="" />
<glyph glyph-name="space" unicode="&#x20;" horiz-adv-x="280" d="" />
<glyph glyph-name="exclam" unicode="&#x21;" horiz-adv-x="280" d="M73 188 L206 188 L206 740 L73 740 L73 188 Z M73 0 L206 0 L206 127 L73 127 L73 0 Z " />
<glyph glyph-name="quotedbl" unicode="&#x22;" horiz-adv-x="360" d="M125 444 L152 740 L19 740 L45 444 L125 444 Z M315 444 L341 740 L208 740 L233 444 L315 444 Z " />
<glyph glyph-name="numbersign" unicode="&#x23;" horiz-adv-x="560" d="M495 292 L419 292 L435 408 L521 408 L525 503 L448 503 L475 700 L375 700 L348 503 L257 503 L284 700 L184 700 L157 503 L63 503 L59 408 L144 408 L128 292 L33 292 L29 197 L114 197 L87 0 L187 0 L214 197 L305 197 L278 0 L378 0 L405 197 L491 197 L495 292 Z M335 408 L319 292 L228 292 L244 408 L335 408 Z " />
<glyph glyph-name="dollar" unicode="&#x24;" horiz-adv-x="560" d="M58 249 L58 235 C58 214 66 89 223 45 L223 -86 L349 -86 L349 46 C426 67 501 134 501 250 C501 406 381 443 344 454 C258 481 219 493 219 548 C219 591 254 617 285 617 C335 617 347 576 353 556 L478 556 C470 643 419 704 349 727 L349 857 L223 857 L223 729 C136 705 86 632 86 544 C86 462 127 382 257 346 C320 328 368 315 368 249 C368 190 317 163 279 163 C248 163 194 181 190 249 L58 249 Z " />
<glyph glyph-name="percent" unicode="&#x25;" horiz-adv-x="860" d="M36 574 C36 474 118 394 216 394 C315 394 396 474 396 574 C396 674 316 755 216 755 C117 755 36 674 36 574 L36 574 Z M147 574 C147 614 178 644 216 644 C254 644 285 614 285 575 C285 535 252 505 216 505 C178 505 147 537 147 574 L147 574 Z M461 166 C461 64 544 -15 642 -15 C739 -15 822 65 822 166 C822 266 741 347 642 347 C542 347 461 266 461 166 L461 166 Z M572 166 C572 204 602 236 642 236 C679 236 711 206 711 166 C711 127 679 96 642 96 C603 96 572 128 572 166 L572 166 Z M224 0 L325 0 L632 740 L530 740 L224 0 Z " />
<glyph glyph-name="ampersand" unicode="&#x26;" horiz-adv-x="680" d="M513 437 L441 314 L373 390 C407 409 490 457 490 572 C490 680 401 755 299 755 C204 755 111 684 111 568 C111 506 139 469 173 429 C129 403 34 347 34 220 C34 71 165 -15 278 -15 C381 -15 439 59 466 96 L568 -15 L665 71 L534 213 L661 437 L513 437 Z M290 482 C261 511 237 536 237 568 C237 603 266 629 299 629 C348 629 364 595 364 566 C364 521 327 501 290 482 L290 482 Z M373 197 C356 167 327 115 269 115 C219 115 167 149 167 214 C167 282 229 310 257 323 L373 197 Z " />
<glyph glyph-name="quotesingle" unicode="&#x27;" horiz-adv-x="220" d="M151 444 L177 740 L44 740 L70 444 L151 444 Z " />
<glyph glyph-name="parenleft" unicode="&#x28;" horiz-adv-x="380" d="M350 -13 C299 23 211 132 211 298 C211 409 251 529 350 610 L350 754 C313 738 271 719 223 672 C132 581 74 444 74 297 C74 109 168 -16 211 -64 C269 -128 314 -144 350 -157 L350 -13 Z " />
<glyph glyph-name="parenright" unicode="&#x29;" horiz-adv-x="380" d="M37 610 C88 574 176 465 176 299 C176 188 136 68 37 -13 L37 -157 C74 -141 116 -122 164 -75 C255 16 313 153 313 300 C313 488 219 613 176 661 C118 725 73 741 37 754 L37 610 Z " />
<glyph glyph-name="asterisk" unicode="&#x2a;" horiz-adv-x="440" d="M221 663 L170 755 L114 716 L169 633 L67 638 L68 571 L170 576 L113 493 L174 457 L221 549 L267 457 L328 493 L272 576 L373 571 L374 638 L272 633 L328 716 L272 755 L221 663 Z " />
<glyph glyph-name="plus" unicode="&#x2b;" horiz-adv-x="600" d="M240 313 L48 313 L48 193 L240 193 L240 0 L360 0 L360 193 L552 193 L552 313 L360 313 L360 506 L240 506 L240 313 Z " />
<glyph glyph-name="comma" unicode="&#x2c;" horiz-adv-x="280" d="M73 0 L132 0 L132 -17 C132 -62 97 -69 74 -74 L74 -141 C123 -142 206 -116 206 -8 L206 133 L73 133 L73 0 Z " />
<glyph glyph-name="hyphen" unicode="&#x2d;" horiz-adv-x="420" d="M71 230 L349 230 L349 348 L71 348 L71 230 Z " />
<glyph glyph-name="period" unicode="&#x2e;" horiz-adv-x="280" d="M73 0 L206 0 L206 133 L73 133 L73 0 Z " />
<glyph glyph-name="slash" unicode="&#x2f;" horiz-adv-x="460" d="M6 -100 L140 -100 L454 740 L319 740 L6 -100 Z " />
<glyph glyph-name="zero" unicode="0" horiz-adv-x="560" d="M529 506 C529 674 398 755 285 755 C165 755 32 681 32 506 L32 240 C32 157 53 106 93 66 C151 8 207 -15 281 -15 C411 -15 529 72 529 233 L529 506 Z M396 245 C396 129 319 111 281 111 C237 111 165 135 165 248 L165 500 C165 584 218 629 282 629 C344 629 396 578 396 505 L396 245 Z " />
<glyph glyph-name="one" unicode="1" horiz-adv-x="560" d="M230 0 L363 0 L363 740 L137 740 L137 614 L230 614 L230 0 Z " />
<glyph glyph-name="two" unicode="2" horiz-adv-x="560" d="M44 0 L523 0 L523 126 L230 126 L380 260 C494 361 523 436 523 512 C523 633 430 755 279 755 C125 755 36 627 36 510 C36 502 36 496 37 486 L169 486 C169 515 170 544 183 569 C198 596 230 629 282 629 C332 629 390 596 390 518 C390 484 381 440 308 372 L44 126 L44 0 Z " />
<glyph glyph-name="three" unicode="3" horiz-adv-x="560" d="M230 354 L252 354 C361 354 399 290 399 231 C399 158 337 111 281 111 C235 111 169 144 161 223 L28 223 C37 74 155 -15 278 -15 C407 -15 532 80 532 233 C532 254 532 375 415 424 C434 438 479 472 479 555 C479 659 393 755 278 755 C232 755 95 732 81 561 L214 561 C216 582 231 629 280 629 C313 629 346 612 346 559 C346 501 300 480 253 480 L230 480 L230 354 Z " />
<glyph glyph-name="four" unicode="4" horiz-adv-x="560" d="M15 220 L15 111 L334 111 L334 0 L467 0 L467 111 L545 111 L545 237 L467 237 L467 740 L355 740 L15 220 Z M158 237 L332 515 L334 515 L334 237 L158 237 Z " />
<glyph glyph-name="five" unicode="5" horiz-adv-x="560" d="M58 353 L177 320 C194 341 221 373 277 373 C355 373 402 303 402 243 C402 183 360 111 275 111 C233 111 174 135 158 220 L25 220 C31 91 147 -15 278 -15 C429 -15 535 108 535 243 C535 375 437 499 299 499 C264 499 233 491 204 478 L228 614 L463 614 L463 740 L128 740 L58 353 Z " />
<glyph glyph-name="six" unicode="6" horiz-adv-x="560" d="M289 739 L83 425 C66 400 52 372 40 342 C28 309 23 277 23 250 C23 88 147 -15 280 -15 C415 -15 536 94 536 251 C536 399 422 491 317 492 C304 492 292 492 281 489 L445 739 L289 739 Z M156 244 C156 299 199 369 277 369 C348 369 403 310 403 239 C403 181 360 111 280 111 C209 111 156 171 156 244 L156 244 Z " />
<glyph glyph-name="seven" unicode="7" horiz-adv-x="560" d="M83 0 L231 0 L498 614 L498 740 L62 740 L62 614 L359 614 L83 0 Z " />
<glyph glyph-name="eight" unicode="8" horiz-adv-x="560" d="M143 411 C113 395 33 346 33 225 C33 88 151 -15 280 -15 C409 -15 527 88 527 225 C527 346 447 395 417 411 C441 435 484 477 484 551 C484 651 409 755 280 755 C151 755 77 651 77 551 C77 477 119 435 143 411 L143 411 Z M359 549 C359 506 324 470 280 470 C237 470 202 506 202 549 C202 593 237 629 280 629 C324 629 359 593 359 549 L359 549 Z M394 225 C394 162 343 111 280 111 C217 111 166 162 166 225 C166 288 217 339 280 339 C343 339 394 288 394 225 L394 225 Z " />
<glyph glyph-name="nine" unicode="9" horiz-adv-x="560" d="M271 0 L477 314 C494 339 508 367 520 397 C532 430 537 462 537 489 C537 651 413 754 280 754 C145 754 24 645 24 488 C24 340 138 248 243 247 C256 247 268 247 279 250 L115 0 L271 0 Z M404 495 C404 440 361 370 281 370 C208 370 157 425 157 500 C157 558 200 628 281 628 C351 628 404 568 404 495 L404 495 Z " />
<glyph glyph-name="colon" unicode="&#x3a;" horiz-adv-x="280" d="M73 0 L206 0 L206 133 L73 133 L73 0 Z M73 422 L206 422 L206 555 L73 555 L73 422 Z " />
<glyph glyph-name="semicolon" unicode="&#x3b;" horiz-adv-x="280" d="M73 0 L132 0 L132 -17 C132 -62 97 -69 74 -74 L74 -141 C123 -142 206 -116 206 -8 L206 133 L73 133 L73 0 Z M73 422 L206 422 L206 555 L73 555 L73 422 Z " />
<glyph glyph-name="less" unicode="&#x3c;" horiz-adv-x="600" d="M554 107 L202 253 L554 399 L554 514 L46 300 L46 206 L554 -8 L554 107 Z " />
<glyph glyph-name="equal" unicode="&#x3d;" horiz-adv-x="600" d="M552 425 L48 425 L48 305 L552 305 L552 425 Z M552 201 L48 201 L48 81 L552 81 L552 201 Z " />
<glyph glyph-name="greater" unicode="&#x3e;" horiz-adv-x="600" d="M46 107 L46 -8 L554 206 L554 300 L46 514 L46 399 L398 253 L46 107 Z " />
<glyph glyph-name="question" unicode="&#x3f;" horiz-adv-x="560" d="M326 187 C327 195 326 210 326 221 C326 289 356 316 390 345 C480 428 491 480 491 527 C491 672 383 755 268 755 C256 755 56 755 38 524 L171 524 C177 564 186 622 264 622 C300 622 358 604 358 527 C358 482 329 455 282 416 C214 359 193 286 193 216 L193 187 L326 187 Z M193 0 L326 0 L326 133 L193 133 L193 0 Z " />
<glyph glyph-name="at" unicode="&#x40;" horiz-adv-x="740" d="M362 219 C312 219 283 256 283 308 C283 377 335 464 413 464 C460 464 490 428 490 379 C490 311 440 219 362 219 L362 219 Z M517 479 L515 479 C498 528 457 548 411 548 C281 548 196 421 196 296 C196 209 261 135 344 135 C389 135 426 155 453 192 L455 192 C457 154 483 135 513 135 C589 135 750 224 750 415 C750 592 592 712 416 712 C216 712 50 554 50 351 C50 144 215 -12 421 -12 C542 -12 653 47 718 149 L642 149 C590 92 509 58 425 58 C257 58 132 177 132 348 C132 510 251 642 415 642 C557 642 672 555 672 399 C672 304 608 219 558 219 C532 219 540 249 548 278 L615 534 L532 534 L517 479 Z " />
<glyph glyph-name="A" unicode="A" horiz-adv-x="740" d="M7 0 L158 0 L237 191 L502 191 L581 0 L732 0 L422 740 L315 740 L7 0 Z M367 547 L369 547 L453 320 L283 320 L367 547 Z " />
<glyph glyph-name="B" unicode="B" horiz-adv-x="580" d="M70 0 L268 0 C316 0 403 5 459 44 C504 76 551 131 551 220 C551 345 473 386 424 404 C447 417 507 452 507 545 C507 596 481 650 444 683 C380 740 298 740 216 740 L70 740 L70 0 Z M207 324 L279 324 C399 324 414 255 414 225 C414 128 303 128 276 128 L207 128 L207 324 Z M207 612 L264 612 C342 612 370 576 370 532 C370 452 284 452 252 452 L207 452 L207 612 Z " />
<glyph glyph-name="C" unicode="C" horiz-adv-x="780" d="M603 206 C570 171 516 113 417 113 C286 113 171 232 171 371 C171 519 292 627 412 627 C494 627 557 590 610 529 L766 529 C695 691 540 755 417 755 C203 755 34 577 34 373 C34 164 206 -15 420 -15 C562 -15 704 70 762 206 L603 206 Z " />
<glyph glyph-name="D" unicode="D" horiz-adv-x="700" d="M63 0 L234 0 C317 0 412 10 480 48 C588 107 657 235 657 368 C657 484 605 594 535 654 C492 691 413 740 231 740 L63 740 L63 0 Z M200 612 L226 612 C312 612 384 602 441 550 C489 508 520 440 520 368 C520 289 482 204 409 164 C351 133 303 128 229 128 L200 128 L200 612 Z " />
<glyph glyph-name="E" unicode="E" horiz-adv-x="520" d="M61 0 L459 0 L459 128 L198 128 L198 303 L448 303 L448 431 L198 431 L198 612 L459 612 L459 740 L61 740 L61 0 Z " />
<glyph glyph-name="F" unicode="F" horiz-adv-x="480" d="M61 0 L198 0 L198 303 L427 303 L427 431 L198 431 L198 612 L438 612 L438 740 L61 740 L61 0 Z " />
<glyph glyph-name="G" unicode="G" horiz-adv-x="840" d="M334 249 L644 249 C601 163 516 113 425 113 C249 113 164 256 164 369 C164 485 251 627 418 627 C516 627 584 572 616 523 L780 523 C742 629 607 755 421 755 C212 755 27 588 27 370 C27 148 213 -15 425 -15 C632 -15 817 150 817 361 L817 377 L334 377 L334 249 Z " />
<glyph glyph-name="H" unicode="H" horiz-adv-x="680" d="M71 0 L208 0 L208 311 L473 311 L473 0 L610 0 L610 740 L473 740 L473 439 L208 439 L208 740 L71 740 L71 0 Z " />
<glyph glyph-name="I" unicode="I" horiz-adv-x="280" d="M72 0 L209 0 L209 740 L72 740 L72 0 Z " />
<glyph glyph-name="J" unicode="J" horiz-adv-x="480" d="M272 740 L272 201 C272 171 264 113 205 113 C171 113 149 134 140 174 L2 174 C8 137 22 88 56 49 C82 20 133 -15 207 -15 C262 -15 409 12 409 210 L409 740 L272 740 Z " />
<glyph glyph-name="K" unicode="K" horiz-adv-x="620" d="M89 0 L226 0 L226 325 L228 325 L459 0 L620 0 L341 376 L620 740 L459 740 L228 420 L226 420 L226 740 L89 740 L89 0 Z " />
<glyph glyph-name="L" unicode="L" horiz-adv-x="440" d="M72 0 L435 0 L435 128 L209 128 L209 740 L72 740 L72 0 Z " />
<glyph glyph-name="M" unicode="M" horiz-adv-x="900" d="M63 0 L200 0 L200 555 L202 555 L392 0 L508 0 L697 555 L699 555 L700 555 L700 0 L837 0 L837 740 L647 740 L452 180 L450 180 L253 740 L63 740 L63 0 Z " />
<glyph glyph-name="N" unicode="N" horiz-adv-x="740" d="M70 0 L207 0 L207 538 L209 538 L518 0 L671 0 L671 740 L534 740 L534 202 L532 202 L226 740 L70 740 L70 0 Z " />
<glyph glyph-name="O" unicode="O" horiz-adv-x="840" d="M33 368 C33 156 207 -15 420 -15 C633 -15 807 156 807 368 C807 587 630 755 420 755 C210 755 33 587 33 368 L33 368 Z M170 369 C170 511 281 627 420 627 C559 627 670 511 670 369 C670 232 561 113 420 113 C279 113 170 232 170 369 L170 369 Z " />
<glyph glyph-name="P" unicode="P" horiz-adv-x="560" d="M72 0 L209 0 L209 282 L258 282 C337 282 405 282 475 341 C523 385 545 442 545 511 C545 580 523 637 475 681 C405 740 337 740 258 740 L72 740 L72 0 Z M209 612 L258 612 C314 612 408 608 408 511 C408 414 312 410 253 410 L209 410 L209 612 Z " />
<glyph glyph-name="Q" unicode="Q" horiz-adv-x="840" d="M824 113 L802 113 C790 113 752 117 725 137 C753 174 806 242 806 373 C806 588 627 755 419 755 C209 755 32 587 32 368 C32 156 206 -15 419 -15 C494 -15 568 7 629 46 C663 23 718 -15 805 -15 L824 -15 L824 113 Z M520 135 C500 127 469 113 419 113 C364 111 268 139 212 227 C227 232 243 236 271 236 C342 236 416 212 520 135 L520 135 Z M615 215 C615 216 466 364 272 364 C219 366 193 360 171 355 C170 359 169 363 169 378 C174 497 265 627 419 627 C554 627 669 517 669 369 C668 279 636 242 617 215 L615 215 Z " />
<glyph glyph-name="R" unicode="R" horiz-adv-x="580" d="M64 0 L201 0 L201 283 L203 283 L399 0 L565 0 L364 273 C401 282 443 292 487 334 C540 385 558 462 558 511 C558 596 513 656 471 690 C429 724 376 740 291 740 L64 740 L64 0 Z M201 612 L289 612 C396 612 421 541 421 500 C421 461 402 386 289 386 L201 386 L201 612 Z " />
<glyph glyph-name="S" unicode="S" horiz-adv-x="520" d="M12 212 C20 49 158 -15 253 -15 C369 -15 493 61 493 221 C493 382 360 429 299 449 C224 474 176 488 176 552 C176 596 209 627 252 627 C289 627 329 610 335 544 L475 544 C468 695 342 755 256 755 C131 755 39 662 39 544 C39 388 158 353 215 331 C307 296 356 282 356 206 C356 150 308 113 254 113 C212 113 163 138 156 212 L12 212 Z " />
<glyph glyph-name="T" unicode="T" horiz-adv-x="420" d="M143 0 L280 0 L280 612 L418 612 L418 740 L6 740 L6 612 L143 612 L143 0 Z " />
<glyph glyph-name="U" unicode="U" horiz-adv-x="640" d="M55 740 L55 270 C55 179 77 123 101 91 C133 48 208 -15 321 -15 C422 -15 499 35 542 95 C577 144 585 210 585 270 L585 740 L448 740 L448 270 C448 233 448 113 320 113 C192 113 192 233 192 270 L193 740 L55 740 Z " />
<glyph glyph-name="V" unicode="V" horiz-adv-x="700" d="M296 0 L408 0 L695 740 L551 740 L352 177 L350 177 L152 740 L8 740 L296 0 Z " />
<glyph glyph-name="W" unicode="W" horiz-adv-x="900" d="M223 0 L331 0 L453 489 L455 489 L575 0 L684 0 L899 740 L759 740 L630 223 L628 223 L504 740 L404 740 L277 223 L275 223 L147 740 L7 740 L223 0 Z " />
<glyph glyph-name="X" unicode="X" horiz-adv-x="680" d="M4 0 L167 0 L340 256 L518 0 L676 0 L420 369 L676 740 L518 740 L340 482 L167 740 L4 740 L259 369 L4 0 Z " />
<glyph glyph-name="Y" unicode="Y" horiz-adv-x="620" d="M241 0 L378 0 L378 273 L622 740 L471 740 L309 400 L148 740 L-2 740 L241 273 L241 0 Z " />
<glyph glyph-name="Z" unicode="Z" horiz-adv-x="500" d="M19 112 L19 0 L481 0 L481 128 L181 128 L462 621 L462 740 L34 740 L34 612 L302 612 L19 112 Z " />
<glyph glyph-name="bracketleft" unicode="&#x5b;" horiz-adv-x="320" d="M284 754 C231 738 66 689 66 449 L66 180 C66 59 95 -113 284 -157 L284 -11 C254 2 203 24 203 156 L203 421 C203 570 245 589 284 608 L284 754 Z " />
<glyph glyph-name="backslash" unicode="&#x5c;" horiz-adv-x="640" d="M231 740 L96 740 L410 -100 L544 -100 L231 740 Z " />
<glyph glyph-name="bracketright" unicode="&#x5d;" horiz-adv-x="320" d="M36 -157 C89 -141 254 -92 254 148 L254 417 C254 538 225 710 36 754 L36 608 C66 595 117 573 117 441 L117 177 C117 27 75 8 36 -10 L36 -157 Z " />
<glyph glyph-name="asciicircum" unicode="&#x5e;" horiz-adv-x="600" d="M192 375 L300 623 L407 375 L527 375 L353 740 L247 740 L73 375 L192 375 Z " />
<glyph glyph-name="underscore" unicode="&#x5f;" horiz-adv-x="500" d="M500 -125 L500 -75 L0 -75 L0 -125 L500 -125 Z " />
<glyph glyph-name="grave" unicode="&#x60;" horiz-adv-x="420" d="M50 749 L276 624 L329 716 L107 851 L50 749 Z " />
<glyph glyph-name="a" unicode="a" horiz-adv-x="660" d="M613 555 L491 555 L491 485 L489 485 C485 493 418 574 305 574 C151 574 27 451 27 281 C27 96 154 -18 297 -18 C367 -18 449 19 491 69 L491 0 L613 0 L613 555 Z M487 279 C487 176 417 104 325 104 C230 104 160 181 160 275 C160 358 216 452 325 452 C404 452 487 394 487 279 L487 279 Z " />
<glyph glyph-name="b" unicode="b" horiz-adv-x="660" d="M47 0 L169 0 L169 67 C202 30 249 -18 356 -18 C559 -18 632 169 632 280 C632 427 522 574 353 574 C291 574 226 551 180 505 L180 740 L47 740 L47 0 Z M172 285 C172 366 235 452 337 452 C421 452 499 387 499 279 C499 171 426 104 339 104 C261 104 172 162 172 285 L172 285 Z " />
<glyph glyph-name="c" unicode="c" horiz-adv-x="640" d="M460 181 C425 125 381 104 337 104 C237 104 170 183 170 278 C170 392 250 452 331 452 C413 452 444 399 460 371 L610 371 C553 542 401 574 331 574 C178 574 37 450 37 280 C37 96 190 -18 332 -18 C462 -18 565 57 610 181 L460 181 Z " />
<glyph glyph-name="d" unicode="d" horiz-adv-x="660" d="M618 740 L485 740 L485 506 C446 547 398 574 317 574 C184 574 34 464 34 277 C34 98 176 -18 317 -18 C411 -18 469 28 494 68 L496 68 L496 0 L618 0 L618 740 Z M167 282 C167 360 232 452 331 452 C425 452 495 369 495 278 C495 194 431 104 331 104 C244 104 167 179 167 282 L167 282 Z " />
<glyph glyph-name="e" unicode="e" horiz-adv-x="640" d="M602 218 C606 236 610 259 610 285 C610 425 499 577 323 577 C152 577 31 433 31 276 C31 114 159 -18 324 -18 C454 -18 560 75 592 175 L452 175 C427 129 383 104 324 104 C229 104 177 182 171 218 L602 218 Z M167 325 C192 428 275 455 324 455 C390 455 459 414 474 325 L167 325 Z " />
<glyph glyph-name="f" unicode="f" horiz-adv-x="280" d="M62 0 L195 0 L195 437 L273 437 L273 555 L195 555 C199 622 229 623 280 624 L280 755 L243 755 C202 755 158 739 127 710 C71 660 65 592 62 555 L15 555 L15 437 L62 437 L62 0 Z " />
<glyph glyph-name="g" unicode="g" horiz-adv-x="660" d="M494 555 L494 487 L492 487 C477 509 429 574 315 574 C174 574 32 457 32 283 C32 97 181 -18 316 -18 C429 -18 480 46 498 71 L500 69 C493 -52 405 -104 330 -104 C309 -104 245 -104 193 -42 L41 -42 C89 -166 206 -226 320 -226 C425 -226 623 -165 623 102 L623 555 L494 555 Z M490 283 C490 172 411 104 331 104 C250 104 165 169 165 282 C165 387 247 452 327 452 C426 452 490 362 490 283 L490 283 Z " />
<glyph glyph-name="h" unicode="h" horiz-adv-x="600" d="M54 0 L187 0 L187 282 C187 329 187 452 299 452 C409 452 413 344 413 284 L413 0 L546 0 L546 313 C546 354 546 433 502 489 C462 540 393 574 331 574 C248 574 204 532 187 516 L187 740 L54 740 L54 0 Z " />
<glyph glyph-name="i" unicode="i" horiz-adv-x="240" d="M53 0 L186 0 L186 555 L53 555 L53 0 Z M53 618 L186 618 L186 740 L53 740 L53 618 Z " />
<glyph glyph-name="j" unicode="j" horiz-adv-x="260" d="M72 555 L72 27 C72 -44 58 -50 16 -55 L16 -185 C132 -184 205 -98 205 24 L205 555 L72 555 Z M72 618 L205 618 L205 740 L72 740 L72 618 Z " />
<glyph glyph-name="k" unicode="k" horiz-adv-x="580" d="M80 0 L213 0 L213 260 L215 260 L403 0 L571 0 L345 283 L545 555 L392 555 L215 294 L213 294 L213 740 L80 740 L80 0 Z " />
<glyph glyph-name="l" unicode="l" horiz-adv-x="240" d="M54 0 L187 0 L187 740 L54 740 L54 0 Z " />
<glyph glyph-name="m" unicode="m" horiz-adv-x="940" d="M54 0 L187 0 L187 277 C187 336 187 452 293 452 C375 452 404 384 404 308 L404 0 L537 0 L537 277 C537 312 536 367 557 400 C576 432 612 452 649 452 C754 452 754 340 754 308 L754 0 L887 0 L887 324 C887 406 867 459 845 488 C825 516 771 574 662 574 C623 574 541 570 483 487 C431 567 353 574 323 574 C227 574 189 526 178 508 L176 508 L176 555 L54 555 L54 0 Z " />
<glyph glyph-name="n" unicode="n" horiz-adv-x="600" d="M54 0 L187 0 L187 264 C187 311 187 369 211 403 C235 440 278 452 302 452 C414 452 414 320 414 274 L414 0 L547 0 L547 300 C547 343 547 436 496 497 C450 553 377 574 329 574 C245 574 199 528 177 507 L177 555 L54 555 L54 0 Z " />
<glyph glyph-name="o" unicode="o" horiz-adv-x="640" d="M321 -18 C475 -18 615 97 615 279 C615 449 478 574 321 574 C162 574 25 445 25 277 C25 118 156 -18 321 -18 L321 -18 Z M321 104 C237 104 158 172 158 277 C158 393 252 452 321 452 C404 452 482 377 482 276 C482 188 418 104 321 104 L321 104 Z " />
<glyph glyph-name="p" unicode="p" horiz-adv-x="660" d="M47 -185 L180 -185 L180 53 C215 20 257 -18 351 -18 C508 -18 629 116 629 280 C629 417 533 574 351 574 C325 574 237 574 171 490 L169 490 L169 555 L47 555 L47 -185 Z M172 278 C172 385 253 452 336 452 C418 452 496 380 496 278 C496 164 405 104 334 104 C271 104 172 155 172 278 L172 278 Z " />
<glyph glyph-name="q" unicode="q" horiz-adv-x="660" d="M491 555 L491 485 L489 485 C470 513 425 574 312 574 C160 574 31 442 31 283 C31 130 143 -18 311 -18 C327 -18 415 -18 480 53 L480 -185 L613 -185 L613 555 L491 555 Z M164 280 C164 371 231 452 326 452 C424 452 487 364 487 277 C487 188 421 104 327 104 C244 104 164 168 164 280 L164 280 Z " />
<glyph glyph-name="r" unicode="r" horiz-adv-x="320" d="M63 0 L196 0 L196 312 C196 345 196 440 317 445 L317 574 L306 574 C237 574 212 542 187 506 L185 506 L185 555 L63 555 L63 0 Z " />
<glyph glyph-name="s" unicode="s" horiz-adv-x="440" d="M406 404 C401 514 308 574 225 574 C136 574 39 510 39 402 C39 311 100 264 163 243 C258 211 288 201 288 160 C288 137 271 104 228 104 C173 104 161 150 155 175 L19 175 C22 141 27 97 61 55 C104 1 172 -18 227 -18 C322 -18 421 51 421 176 C421 288 335 321 266 342 C195 365 172 372 172 404 C172 427 190 452 223 452 C237 452 267 448 276 404 L406 404 Z " />
<glyph glyph-name="t" unicode="t" horiz-adv-x="300" d="M86 0 L219 0 L219 437 L299 437 L299 555 L219 555 L219 740 L86 740 L86 555 L21 555 L21 437 L86 437 L86 0 Z " />
<glyph glyph-name="u" unicode="u" horiz-adv-x="600" d="M411 555 L411 271 C411 183 383 104 299 104 C183 104 183 227 183 272 L183 555 L50 555 L50 265 C50 219 50 129 91 70 C119 32 176 -18 277 -18 C362 -18 398 26 420 56 L422 56 L422 0 L544 0 L544 555 L411 555 Z " />
<glyph glyph-name="v" unicode="v" horiz-adv-x="560" d="M227 0 L331 0 L556 555 L410 555 L284 187 L281 187 L147 555 L3 555 L227 0 Z " />
<glyph glyph-name="w" unicode="w" horiz-adv-x="800" d="M211 0 L293 0 L398 360 L400 360 L504 0 L586 0 L789 555 L647 555 L545 216 L543 216 L453 555 L347 555 L256 216 L254 216 L153 555 L11 555 L211 0 Z " />
<glyph glyph-name="x" unicode="x" horiz-adv-x="560" d="M3 0 L161 0 L279 190 L398 0 L556 0 L357 286 L529 555 L380 555 L279 388 L177 555 L28 555 L200 286 L3 0 Z " />
<glyph glyph-name="y" unicode="y" horiz-adv-x="580" d="M109 -185 L252 -185 L571 555 L420 555 L286 199 L160 555 L8 555 L211 52 L109 -185 Z " />
<glyph glyph-name="z" unicode="z" horiz-adv-x="460" d="M20 0 L442 0 L442 122 L179 122 L425 433 L425 555 L48 555 L48 433 L266 433 L20 122 L20 0 Z " />
<glyph glyph-name="braceleft" unicode="&#x7b;" horiz-adv-x="340" d="M-3 233 C21 233 94 226 94 163 L94 -53 C94 -149 185 -191 227 -191 L317 -191 L317 -101 L272 -101 C235 -101 231 -63 231 -36 L231 176 C230 271 157 278 106 281 L106 284 C157 286 230 303 231 380 L231 592 C231 619 235 657 272 657 L317 657 L317 747 L227 747 C185 747 94 705 94 609 L94 393 C94 338 21 332 -3 332 L-3 233 Z " />
<glyph glyph-name="bar" unicode="&#x7c;" horiz-adv-x="600" d="M233 740 L233 -100 L366 -100 L366 740 L233 740 Z " />
<glyph glyph-name="braceright" unicode="&#x7d;" horiz-adv-x="340" d="M343 332 C319 332 246 338 246 393 L246 609 C246 705 155 747 113 747 L23 747 L23 657 L68 657 C105 657 109 619 109 592 L109 380 C110 303 183 286 234 284 L234 281 C183 278 110 271 109 176 L109 -36 C109 -63 105 -101 68 -101 L23 -101 L23 -191 L113 -191 C155 -191 246 -149 246 -53 L246 163 C246 226 319 233 343 233 L343 332 Z " />
<glyph glyph-name="asciitilde" unicode="&#x7e;" horiz-adv-x="600" d="M497 347 C472 313 447 277 407 277 C380 277 342 297 305 313 C267 330 228 345 194 345 C127 345 91 300 67 256 L103 160 C121 193 145 229 189 229 C235 229 272 212 304 194 C337 176 369 161 406 161 C468 161 501 206 533 249 L497 347 Z " />
<glyph glyph-name="exclamdown" unicode="&#xa1;" horiz-adv-x="280" d="M74 366 L74 -185 L207 -185 L207 366 L74 366 Z M74 555 L74 428 L207 428 L207 555 L74 555 Z " />
<glyph glyph-name="cent" unicode="&#xa2;" horiz-adv-x="560" d="M349 39 L349 148 C391 161 467 184 517 310 L371 310 C350 290 328 270 286 270 C224 270 176 317 176 379 C176 443 225 489 284 489 C319 489 359 472 377 443 L517 443 C509 484 487 520 457 551 C421 589 389 600 349 613 L349 715 L223 715 L223 613 C119 592 43 490 43 383 C43 290 106 172 223 148 L223 39 L349 39 Z " />
<glyph glyph-name="sterling" unicode="&#xa3;" horiz-adv-x="560" d="M38 0 L322 0 C506 0 562 142 562 224 C562 227 562 256 552 275 L419 275 C427 248 429 237 429 225 C429 190 406 126 329 126 L318 126 C324 142 329 159 329 192 C329 247 319 268 298 311 L407 311 L407 437 L199 437 C180 458 171 481 171 510 C171 564 205 629 279 629 C319 629 366 602 378 543 L513 543 C513 610 433 755 278 755 C138 755 38 636 38 517 C38 477 47 453 54 437 L-2 437 L-2 311 L139 311 C164 286 196 253 196 198 C196 186 195 159 177 126 L38 126 L38 0 Z " />
<glyph glyph-name="currency" unicode="&#xa4;" horiz-adv-x="560" d="M27 138 L96 69 L165 139 C195 121 236 108 280 108 C325 108 366 122 395 140 L465 69 L534 138 L464 209 C482 237 495 278 495 323 C495 368 482 409 464 438 L534 507 L465 577 L395 507 C366 525 325 538 280 538 C236 538 195 525 165 507 L96 577 L27 507 L96 438 C79 410 65 368 65 323 C65 279 78 238 96 208 L27 138 Z M188 323 C188 375 228 416 280 416 C332 416 372 375 372 323 C372 271 332 230 280 230 C228 230 188 271 188 323 L188 323 Z " />
<glyph glyph-name="yen" unicode="&#xa5;" horiz-adv-x="560" d="M347 189 L511 189 L511 294 L347 294 L347 327 L378 384 L520 384 L520 489 L432 489 L570 740 L436 740 L281 452 L127 740 L-10 740 L128 489 L40 489 L40 384 L182 384 L214 327 L214 294 L48 294 L48 189 L214 189 L214 0 L347 0 L347 189 Z " />
<glyph glyph-name="brokenbar" unicode="&#xa6;" horiz-adv-x="600" d="M233 740 L233 404 L366 404 L366 740 L233 740 Z M233 236 L233 -100 L366 -100 L366 236 L233 236 Z " />
<glyph glyph-name="section" unicode="&#xa7;" horiz-adv-x="560" d="M496 567 C492 600 476 755 288 755 C192 755 88 706 88 588 C88 544 103 517 117 494 C92 477 28 436 28 347 C28 284 63 227 135 190 L301 102 C342 81 373 65 373 29 C373 -10 333 -36 284 -36 C241 -36 187 -15 183 47 L183 54 L58 54 C63 -80 161 -158 283 -158 C403 -158 498 -84 498 30 C498 93 471 127 448 150 C509 195 530 252 530 291 C530 321 518 390 440 430 L276 514 C246 527 213 546 213 577 C213 599 228 633 289 633 C355 633 367 588 371 567 L496 567 Z M347 342 C375 327 405 311 405 279 C405 249 384 228 365 214 L210 293 C167 314 153 335 153 355 C153 383 180 411 193 420 L347 342 Z " />
<glyph glyph-name="dieresis" unicode="&#xa8;" horiz-adv-x="500" d="M78 636 L212 636 L212 769 L78 769 L78 636 Z M289 636 L422 636 L422 769 L289 769 L289 636 Z " />
<glyph glyph-name="copyright" unicode="&#xa9;" horiz-adv-x="740" d="M568 447 C559 527 483 599 376 599 C245 599 161 501 161 371 C161 241 245 143 376 143 C483 143 559 215 568 295 L478 295 C459 233 423 218 376 218 C302 218 251 270 251 371 C251 462 300 524 376 524 C421 524 457 509 478 447 L568 447 Z M371 752 C156 752 -12 578 -12 370 C-12 161 157 -12 371 -12 C579 -12 752 158 752 370 C752 579 583 752 371 752 L371 752 Z M370 666 C535 666 662 531 662 370 C662 206 532 74 370 74 C207 74 78 207 78 370 C78 531 204 666 370 666 L370 666 Z " />
<glyph glyph-name="ordfeminine" unicode="&#xaa;" horiz-adv-x="360" d="M334 745 L246 745 L246 719 L244 719 C232 738 205 755 168 755 C89 755 19 689 19 598 C19 499 91 438 168 438 C206 438 231 453 244 473 L246 473 L246 448 L334 448 L334 745 Z M248 597 C248 554 217 523 178 523 C138 523 109 556 109 595 C109 630 132 670 178 670 C212 670 248 645 248 597 L248 597 Z " />
<glyph glyph-name="guillemotleft" unicode="&#xab;" horiz-adv-x="460" d="M201 108 L201 231 L133 289 L201 346 L201 469 L61 340 L61 239 L201 108 Z M400 108 L400 231 L332 289 L400 346 L400 469 L260 340 L260 239 L400 108 Z " />
<glyph glyph-name="logicalnot" unicode="&#xac;" horiz-adv-x="600" d="M432 108 L552 108 L552 425 L48 425 L48 305 L432 305 L432 108 Z " />
<glyph glyph-name="registered" unicode="&#xae;" horiz-adv-x="740" d="M207 585 L207 148 L294 148 L294 323 L371 323 C432 317 446 298 449 229 C451 174 454 161 462 148 L551 148 C541 166 541 175 537 249 C535 305 524 341 464 358 L464 360 C523 374 545 418 545 466 C545 585 418 585 391 585 L207 585 Z M294 514 L382 514 C419 514 451 509 456 463 C456 393 403 393 372 393 L294 393 L294 514 Z M371 752 C156 752 -12 578 -12 370 C-12 161 157 -12 371 -12 C579 -12 752 158 752 370 C752 579 583 752 371 752 L371 752 Z M370 666 C535 666 662 531 662 370 C662 206 532 74 370 74 C207 74 78 207 78 370 C78 531 204 666 370 666 L370 666 Z " />
<glyph glyph-name="macron" unicode="&#xaf;" horiz-adv-x="420" d="M72 648 L349 648 L349 759 L72 759 L72 648 Z " />
<glyph glyph-name="degree" unicode="&#xb0;" horiz-adv-x="400" d="M200 495 C161 495 129 530 129 569 C129 607 161 643 200 643 C239 643 271 607 271 569 C271 530 239 495 200 495 L200 495 Z M200 426 C280 426 343 489 343 569 C343 649 280 712 200 712 C120 712 57 649 57 569 C57 489 120 426 200 426 L200 426 Z " />
<glyph glyph-name="plusminus" unicode="&#xb1;" horiz-adv-x="600" d="M240 400 L48 400 L48 280 L240 280 L240 130 L360 130 L360 280 L552 280 L552 400 L360 400 L360 556 L240 556 L240 400 Z M48 -62 L552 -62 L552 58 L48 58 L48 -62 Z " />
<glyph glyph-name="twosuperior" unicode="&#xb2;" horiz-adv-x="336" d="M18 296 L322 296 L322 382 L155 382 L235 452 C302 509 322 556 322 602 C322 675 263 749 167 749 C69 749 13 671 13 601 C13 595 13 591 14 583 L109 583 C108 609 113 661 167 663 C196 663 226 644 226 604 C226 581 217 559 177 524 L18 377 L18 296 Z " />
<glyph glyph-name="threesuperior" unicode="&#xb3;" horiz-adv-x="336" d="M133 503 L154 503 C215 503 232 469 232 436 C232 396 201 373 169 373 C145 373 108 388 104 435 L8 435 C13 336 92 287 166 287 C249 287 328 344 328 437 C328 460 321 525 261 551 C295 579 295 616 295 627 C295 691 240 749 167 749 C157 749 127 747 100 731 C72 715 44 684 41 627 L137 627 C137 635 138 663 165 663 C186 663 199 653 199 628 C199 600 178 589 155 589 L133 589 L133 503 Z " />
<glyph glyph-name="acute" unicode="&#xb4;" horiz-adv-x="420" d="M142 624 L370 744 L316 849 L91 716 L142 624 Z " />
<glyph glyph-name="mu" unicode="&#xb5;" horiz-adv-x="576" d="M38 -187 L171 -187 L171 29 L173 29 C189 8 225 -18 284 -18 C363 -18 395 36 404 62 L406 62 L406 0 L539 0 L539 555 L406 555 L406 270 C406 184 377 104 287 104 C238 104 208 129 192 154 C172 187 171 228 171 291 L171 555 L38 555 L38 -187 Z " />
<glyph glyph-name="paragraph" unicode="&#xb6;" horiz-adv-x="600" d="M205 -103 L318 -103 L318 637 L415 637 L415 -103 L528 -103 L528 637 L607 637 L607 740 L247 740 C174 740 -7 733 -7 544 C-7 402 107 355 191 355 L205 355 L205 -103 Z " />
<glyph glyph-name="periodcentered" unicode="&#xb7;" horiz-adv-x="280" d="M73 187 L206 187 L206 320 L73 320 L73 187 Z " />
<glyph glyph-name="cedilla" unicode="&#xb8;" horiz-adv-x="340" d="M154 6 L105 -106 L154 -125 C164 -107 182 -103 197 -103 C224 -103 244 -126 244 -153 C244 -181 225 -201 198 -201 C174 -201 155 -186 151 -164 L98 -164 C98 -193 129 -251 198 -251 C252 -251 298 -217 298 -153 C298 -88 253 -53 205 -53 C195 -53 187 -54 180 -55 L204 -1 L154 6 Z " />
<glyph glyph-name="onesuperior" unicode="&#xb9;" horiz-adv-x="336" d="M127 296 L223 296 L223 740 L72 740 L72 654 L127 654 L127 296 Z " />
<glyph glyph-name="ordmasculine" unicode="&#xba;" horiz-adv-x="360" d="M181 438 C263 438 338 500 338 597 C338 688 265 755 181 755 C96 755 23 686 23 596 C23 511 93 438 181 438 L181 438 Z M181 523 C146 523 113 553 113 596 C113 646 151 670 181 670 C215 670 248 639 248 595 C248 558 221 523 181 523 L181 523 Z " />
<glyph glyph-name="guillemotright" unicode="&#xbb;" horiz-adv-x="460" d="M61 108 L201 239 L201 340 L61 469 L61 346 L129 289 L61 231 L61 108 Z M260 108 L400 239 L400 340 L260 469 L260 346 L328 289 L260 231 L260 108 Z " />
<glyph glyph-name="onequarter" unicode="&#xbc;" horiz-adv-x="840" d="M187 0 L285 0 L592 740 L493 740 L187 0 Z M409 135 L409 65 L607 65 L607 0 L697 0 L697 65 L746 65 L746 147 L697 147 L697 444 L621 444 L409 135 Z M508 147 L605 306 L607 306 L607 147 L508 147 Z M147 296 L243 296 L243 740 L92 740 L92 654 L147 654 L147 296 Z " />
<glyph glyph-name="onehalf" unicode="&#xbd;" horiz-adv-x="840" d="M157 0 L255 0 L562 740 L463 740 L157 0 Z M117 296 L213 296 L213 740 L62 740 L62 654 L117 654 L117 296 Z M467 0 L771 0 L771 86 L604 86 L684 156 C751 213 771 260 771 306 C771 379 712 453 616 453 C518 453 462 375 462 305 C462 299 462 295 463 287 L558 287 C557 313 562 365 616 367 C645 367 675 348 675 308 C675 285 666 263 626 228 L467 81 L467 0 Z " />
<glyph glyph-name="threequarters" unicode="&#xbe;" horiz-adv-x="840" d="M244 0 L342 0 L649 740 L550 740 L244 0 Z M466 135 L466 65 L664 65 L664 0 L754 0 L754 65 L803 65 L803 147 L754 147 L754 444 L678 444 L466 135 Z M565 147 L662 306 L664 306 L664 147 L565 147 Z M143 503 L164 503 C225 503 242 469 242 436 C242 396 211 373 179 373 C155 373 118 388 114 435 L18 435 C23 336 102 287 176 287 C259 287 338 344 338 437 C338 460 331 525 271 551 C305 579 305 616 305 627 C305 691 250 749 177 749 C167 749 137 747 110 731 C82 715 54 684 51 627 L147 627 C147 635 148 663 175 663 C196 663 209 653 209 628 C209 600 188 589 165 589 L143 589 L143 503 Z " />
<glyph glyph-name="questiondown" unicode="&#xbf;" horiz-adv-x="560" d="M233 368 C232 360 233 345 233 334 C233 266 203 239 169 210 C79 127 68 75 68 28 C68 -117 176 -200 291 -200 C303 -200 503 -200 521 31 L388 31 C382 -9 373 -67 295 -67 C259 -67 201 -49 201 28 C201 73 230 100 277 139 C345 196 366 269 366 339 L366 368 L233 368 Z M366 555 L233 555 L233 422 L366 422 L366 555 Z " />
<glyph glyph-name="Agrave" unicode="&#xc0;" horiz-adv-x="740" d="M7 0 L158 0 L237 191 L502 191 L581 0 L732 0 L422 740 L315 740 L7 0 Z M367 547 L369 547 L453 320 L283 320 L367 547 Z M210 919 L436 794 L489 886 L267 1021 L210 919 Z " />
<glyph glyph-name="Aacute" unicode="&#xc1;" horiz-adv-x="740" d="M7 0 L158 0 L237 191 L502 191 L581 0 L732 0 L422 740 L315 740 L7 0 Z M367 547 L369 547 L453 320 L283 320 L367 547 Z M302 794 L530 914 L476 1019 L251 886 L302 794 Z " />
<glyph glyph-name="Acircumflex" unicode="&#xc2;" horiz-adv-x="740" d="M7 0 L158 0 L237 191 L502 191 L581 0 L732 0 L422 740 L315 740 L7 0 Z M367 547 L369 547 L453 320 L283 320 L367 547 Z M171 806 L316 806 L372 870 L425 806 L570 806 L424 944 L319 944 L171 806 Z " />
<glyph glyph-name="Atilde" unicode="&#xc3;" horiz-adv-x="740" d="M7 0 L158 0 L237 191 L502 191 L581 0 L732 0 L422 740 L315 740 L7 0 Z M367 547 L369 547 L453 320 L283 320 L367 547 Z M228 813 C240 819 266 833 308 833 C331 833 346 829 359 825 C415 810 428 806 453 806 C503 806 537 829 567 853 L513 931 C490 916 466 908 437 908 C425 908 412 909 372 921 C340 930 319 937 290 937 C272 937 226 933 174 894 L228 813 Z " />
<glyph glyph-name="Adieresis" unicode="&#xc4;" horiz-adv-x="740" d="M7 0 L158 0 L237 191 L502 191 L581 0 L732 0 L422 740 L315 740 L7 0 Z M367 547 L369 547 L453 320 L283 320 L367 547 Z M198 806 L332 806 L332 939 L198 939 L198 806 Z M409 806 L542 806 L542 939 L409 939 L409 806 Z " />
<glyph glyph-name="Aring" unicode="&#xc5;" horiz-adv-x="740" d="M7 0 L158 0 L237 191 L502 191 L581 0 L732 0 L422 740 L315 740 L7 0 Z M367 547 L369 547 L453 320 L283 320 L367 547 Z M263 861 C263 802 312 754 370 754 C429 754 478 802 478 861 C478 921 430 969 370 969 C311 969 263 921 263 861 L263 861 Z M330 861 C330 884 348 902 370 902 C393 902 411 884 411 861 C411 838 392 821 370 821 C348 821 330 839 330 861 L330 861 Z " />
<glyph glyph-name="AE" unicode="&#xc6;" horiz-adv-x="900" d="M-5 0 L156 0 L271 191 L467 191 L467 0 L824 0 L824 128 L604 128 L604 303 L813 303 L813 431 L604 431 L604 612 L824 612 L824 740 L484 740 L-5 0 Z M465 514 L467 514 L467 319 L352 319 L465 514 Z " />
<glyph glyph-name="Ccedilla" unicode="&#xc7;" horiz-adv-x="780" d="M308 -164 C308 -193 339 -251 408 -251 C462 -251 508 -217 508 -153 C508 -88 463 -53 415 -53 C405 -53 397 -54 390 -55 L408 -14 C412 -15 416 -15 420 -15 C562 -15 704 70 762 206 L603 206 C570 171 516 113 417 113 C286 113 171 232 171 371 C171 519 292 627 412 627 C494 627 557 590 610 529 L766 529 C695 691 540 755 417 755 C203 755 34 577 34 373 C34 185 173 22 357 -9 L315 -106 L364 -125 C374 -107 392 -103 407 -103 C434 -103 454 -126 454 -153 C454 -181 435 -201 408 -201 C384 -201 365 -186 361 -164 L308 -164 Z " />
<glyph glyph-name="Egrave" unicode="&#xc8;" horiz-adv-x="520" d="M61 0 L459 0 L459 128 L198 128 L198 303 L448 303 L448 431 L198 431 L198 612 L459 612 L459 740 L61 740 L61 0 Z M100 919 L326 794 L379 886 L157 1021 L100 919 Z " />
<glyph glyph-name="Eacute" unicode="&#xc9;" horiz-adv-x="520" d="M61 0 L459 0 L459 128 L198 128 L198 303 L448 303 L448 431 L198 431 L198 612 L459 612 L459 740 L61 740 L61 0 Z M192 794 L420 914 L366 1019 L141 886 L192 794 Z " />
<glyph glyph-name="Ecircumflex" unicode="&#xca;" horiz-adv-x="520" d="M61 0 L459 0 L459 128 L198 128 L198 303 L448 303 L448 431 L198 431 L198 612 L459 612 L459 740 L61 740 L61 0 Z M61 806 L206 806 L262 870 L315 806 L460 806 L314 944 L209 944 L61 806 Z " />
<glyph glyph-name="Edieresis" unicode="&#xcb;" horiz-adv-x="520" d="M61 0 L459 0 L459 128 L198 128 L198 303 L448 303 L448 431 L198 431 L198 612 L459 612 L459 740 L61 740 L61 0 Z M88 806 L222 806 L222 939 L88 939 L88 806 Z M299 806 L432 806 L432 939 L299 939 L299 806 Z " />
<glyph glyph-name="Igrave" unicode="&#xcc;" horiz-adv-x="280" d="M72 0 L209 0 L209 740 L72 740 L72 0 Z M-45 919 L181 794 L234 886 L12 1021 L-45 919 Z " />
<glyph glyph-name="Iacute" unicode="&#xcd;" horiz-adv-x="280" d="M72 0 L209 0 L209 740 L72 740 L72 0 Z M97 794 L325 914 L271 1019 L46 886 L97 794 Z " />
<glyph glyph-name="Icircumflex" unicode="&#xce;" horiz-adv-x="280" d="M72 0 L209 0 L209 740 L72 740 L72 0 Z M-59 806 L86 806 L142 870 L195 806 L340 806 L194 944 L89 944 L-59 806 Z " />
<glyph glyph-name="Idieresis" unicode="&#xcf;" horiz-adv-x="280" d="M72 0 L209 0 L209 740 L72 740 L72 0 Z M-32 806 L102 806 L102 939 L-32 939 L-32 806 Z M179 806 L312 806 L312 939 L179 939 L179 806 Z " />
<glyph glyph-name="Eth" unicode="&#xd0;" horiz-adv-x="742" d="M97 311 L97 0 L268 0 C351 0 446 10 514 48 C622 107 691 235 691 368 C691 484 639 594 569 654 C526 691 447 740 265 740 L97 740 L97 439 L25 439 L25 311 L97 311 Z M371 311 L371 439 L234 439 L234 612 L260 612 C346 612 418 602 475 550 C523 508 554 440 554 368 C554 289 516 204 443 164 C385 133 337 128 263 128 L234 128 L234 311 L371 311 Z " />
<glyph glyph-name="Ntilde" unicode="&#xd1;" horiz-adv-x="740" d="M70 0 L207 0 L207 538 L209 538 L518 0 L671 0 L671 740 L534 740 L534 202 L532 202 L226 740 L70 740 L70 0 Z M228 813 C240 819 266 833 308 833 C331 833 346 829 359 825 C415 810 428 806 453 806 C503 806 537 829 567 853 L513 931 C490 916 466 908 437 908 C425 908 412 909 372 921 C340 930 319 937 290 937 C272 937 226 933 174 894 L228 813 Z " />
<glyph glyph-name="Ograve" unicode="&#xd2;" horiz-adv-x="840" d="M33 368 C33 156 207 -15 420 -15 C633 -15 807 156 807 368 C807 587 630 755 420 755 C210 755 33 587 33 368 L33 368 Z M170 369 C170 511 281 627 420 627 C559 627 670 511 670 369 C670 232 561 113 420 113 C279 113 170 232 170 369 L170 369 Z M260 919 L486 794 L539 886 L317 1021 L260 919 Z " />
<glyph glyph-name="Oacute" unicode="&#xd3;" horiz-adv-x="840" d="M33 368 C33 156 207 -15 420 -15 C633 -15 807 156 807 368 C807 587 630 755 420 755 C210 755 33 587 33 368 L33 368 Z M170 369 C170 511 281 627 420 627 C559 627 670 511 670 369 C670 232 561 113 420 113 C279 113 170 232 170 369 L170 369 Z M352 794 L580 914 L526 1019 L301 886 L352 794 Z " />
<glyph glyph-name="Ocircumflex" unicode="&#xd4;" horiz-adv-x="840" d="M33 368 C33 156 207 -15 420 -15 C633 -15 807 156 807 368 C807 587 630 755 420 755 C210 755 33 587 33 368 L33 368 Z M170 369 C170 511 281 627 420 627 C559 627 670 511 670 369 C670 232 561 113 420 113 C279 113 170 232 170 369 L170 369 Z M221 806 L366 806 L422 870 L475 806 L620 806 L474 944 L369 944 L221 806 Z " />
<glyph glyph-name="Otilde" unicode="&#xd5;" horiz-adv-x="840" d="M33 368 C33 156 207 -15 420 -15 C633 -15 807 156 807 368 C807 587 630 755 420 755 C210 755 33 587 33 368 L33 368 Z M170 369 C170 511 281 627 420 627 C559 627 670 511 670 369 C670 232 561 113 420 113 C279 113 170 232 170 369 L170 369 Z M278 813 C290 819 316 833 358 833 C381 833 396 829 409 825 C465 810 478 806 503 806 C553 806 587 829 617 853 L563 931 C540 916 516 908 487 908 C475 908 462 909 422 921 C390 930 369 937 340 937 C322 937 276 933 224 894 L278 813 Z " />
<glyph glyph-name="Odieresis" unicode="&#xd6;" horiz-adv-x="840" d="M33 368 C33 156 207 -15 420 -15 C633 -15 807 156 807 368 C807 587 630 755 420 755 C210 755 33 587 33 368 L33 368 Z M170 369 C170 511 281 627 420 627 C559 627 670 511 670 369 C670 232 561 113 420 113 C279 113 170 232 170 369 L170 369 Z M248 806 L382 806 L382 939 L248 939 L248 806 Z M459 806 L592 806 L592 939 L459 939 L459 806 Z " />
<glyph glyph-name="multiply" unicode="&#xd7;" horiz-adv-x="600" d="M218 253 L59 94 L141 12 L300 172 L459 12 L541 94 L381 253 L541 412 L459 494 L300 335 L141 494 L59 412 L218 253 Z " />
<glyph glyph-name="Oslash" unicode="&#xd8;" horiz-adv-x="840" d="M230 205 C192 250 170 308 170 369 C170 511 281 627 420 627 C450 627 479 622 507 611 L230 205 Z M614 532 C649 487 670 431 670 369 C670 232 561 113 420 113 C391 113 363 118 338 127 L614 532 Z M582 720 L582 719 C532 743 477 755 420 755 C210 755 33 587 33 368 C33 259 79 161 153 92 L93 4 L203 -71 L264 18 C311 -3 364 -15 420 -15 C633 -15 807 156 807 368 C807 478 762 576 690 645 L754 739 L645 814 L582 720 Z " />
<glyph glyph-name="Ugrave" unicode="&#xd9;" horiz-adv-x="640" d="M55 740 L55 270 C55 179 77 123 101 91 C133 48 208 -15 321 -15 C422 -15 499 35 542 95 C577 144 585 210 585 270 L585 740 L448 740 L448 270 C448 233 448 113 320 113 C192 113 192 233 192 270 L193 740 L55 740 Z M125 919 L351 794 L404 886 L182 1021 L125 919 Z " />
<glyph glyph-name="Uacute" unicode="&#xda;" horiz-adv-x="640" d="M55 740 L55 270 C55 179 77 123 101 91 C133 48 208 -15 321 -15 C422 -15 499 35 542 95 C577 144 585 210 585 270 L585 740 L448 740 L448 270 C448 233 448 113 320 113 C192 113 192 233 192 270 L193 740 L55 740 Z M287 794 L515 914 L461 1019 L236 886 L287 794 Z " />
<glyph glyph-name="Ucircumflex" unicode="&#xdb;" horiz-adv-x="640" d="M55 740 L55 270 C55 179 77 123 101 91 C133 48 208 -15 321 -15 C422 -15 499 35 542 95 C577 144 585 210 585 270 L585 740 L448 740 L448 270 C448 233 448 113 320 113 C192 113 192 233 192 270 L193 740 L55 740 Z M121 806 L266 806 L322 870 L375 806 L520 806 L374 944 L269 944 L121 806 Z " />
<glyph glyph-name="Udieresis" unicode="&#xdc;" horiz-adv-x="640" d="M55 740 L55 270 C55 179 77 123 101 91 C133 48 208 -15 321 -15 C422 -15 499 35 542 95 C577 144 585 210 585 270 L585 740 L448 740 L448 270 C448 233 448 113 320 113 C192 113 192 233 192 270 L193 740 L55 740 Z M148 806 L282 806 L282 939 L148 939 L148 806 Z M359 806 L492 806 L492 939 L359 939 L359 806 Z " />
<glyph glyph-name="Yacute" unicode="&#xdd;" horiz-adv-x="620" d="M241 0 L378 0 L378 273 L622 740 L471 740 L309 400 L148 740 L-2 740 L241 273 L241 0 Z M277 794 L505 914 L451 1019 L226 886 L277 794 Z " />
<glyph glyph-name="Thorn" unicode="&#xde;" horiz-adv-x="560" d="M72 0 L209 0 L209 142 L258 142 C337 142 405 142 475 201 C523 245 545 302 545 371 C545 440 523 497 475 541 C405 600 337 600 258 600 L209 600 L209 740 L72 740 L72 0 Z M209 472 L258 472 C314 472 408 468 408 371 C408 274 312 270 253 270 L209 270 L209 472 Z " />
<glyph glyph-name="germandbls" unicode="&#xdf;" horiz-adv-x="600" d="M51 0 L173 0 L173 73 L175 73 C229 -18 323 -18 362 -18 C509 -18 585 86 585 214 C585 259 572 373 425 409 C471 436 491 491 491 545 C491 670 389 755 276 755 C221 755 51 727 51 488 L51 0 Z M184 503 C184 544 189 633 273 633 C317 633 358 603 358 539 C358 483 328 434 258 434 L258 316 C344 316 448 308 452 203 C452 140 407 104 362 104 C340 104 319 113 303 128 C286 143 274 164 270 189 L184 189 L184 503 Z " />
<glyph glyph-name="agrave" unicode="&#xe0;" horiz-adv-x="660" d="M613 555 L491 555 L491 485 L489 485 C485 493 418 574 305 574 C151 574 27 451 27 281 C27 96 154 -18 297 -18 C367 -18 449 19 491 69 L491 0 L613 0 L613 555 Z M487 279 C487 176 417 104 325 104 C230 104 160 181 160 275 C160 358 216 452 325 452 C404 452 487 394 487 279 L487 279 Z M170 749 L396 624 L449 716 L227 851 L170 749 Z " />
<glyph glyph-name="aacute" unicode="&#xe1;" horiz-adv-x="660" d="M613 555 L491 555 L491 485 L489 485 C485 493 418 574 305 574 C151 574 27 451 27 281 C27 96 154 -18 297 -18 C367 -18 449 19 491 69 L491 0 L613 0 L613 555 Z M487 279 C487 176 417 104 325 104 C230 104 160 181 160 275 C160 358 216 452 325 452 C404 452 487 394 487 279 L487 279 Z M262 624 L490 744 L436 849 L211 716 L262 624 Z " />
<glyph glyph-name="acircumflex" unicode="&#xe2;" horiz-adv-x="660" d="M613 555 L491 555 L491 485 L489 485 C485 493 418 574 305 574 C151 574 27 451 27 281 C27 96 154 -18 297 -18 C367 -18 449 19 491 69 L491 0 L613 0 L613 555 Z M487 279 C487 176 417 104 325 104 C230 104 160 181 160 275 C160 358 216 452 325 452 C404 452 487 394 487 279 L487 279 Z M131 636 L276 636 L332 700 L385 636 L530 636 L384 774 L279 774 L131 636 Z " />
<glyph glyph-name="atilde" unicode="&#xe3;" horiz-adv-x="660" d="M613 555 L491 555 L491 485 L489 485 C485 493 418 574 305 574 C151 574 27 451 27 281 C27 96 154 -18 297 -18 C367 -18 449 19 491 69 L491 0 L613 0 L613 555 Z M487 279 C487 176 417 104 325 104 C230 104 160 181 160 275 C160 358 216 452 325 452 C404 452 487 394 487 279 L487 279 Z M188 643 C200 649 226 663 268 663 C291 663 306 659 319 655 C375 640 388 636 413 636 C463 636 497 659 527 683 L473 761 C450 746 426 738 397 738 C385 738 372 739 332 751 C300 760 279 767 250 767 C232 767 186 763 134 724 L188 643 Z " />
<glyph glyph-name="adieresis" unicode="&#xe4;" horiz-adv-x="660" d="M613 555 L491 555 L491 485 L489 485 C485 493 418 574 305 574 C151 574 27 451 27 281 C27 96 154 -18 297 -18 C367 -18 449 19 491 69 L491 0 L613 0 L613 555 Z M487 279 C487 176 417 104 325 104 C230 104 160 181 160 275 C160 358 216 452 325 452 C404 452 487 394 487 279 L487 279 Z M158 636 L292 636 L292 769 L158 769 L158 636 Z M369 636 L502 636 L502 769 L369 769 L369 636 Z " />
<glyph glyph-name="aring" unicode="&#xe5;" horiz-adv-x="660" d="M613 555 L491 555 L491 485 L489 485 C485 493 418 574 305 574 C151 574 27 451 27 281 C27 96 154 -18 297 -18 C367 -18 449 19 491 69 L491 0 L613 0 L613 555 Z M487 279 C487 176 417 104 325 104 C230 104 160 181 160 275 C160 358 216 452 325 452 C404 452 487 394 487 279 L487 279 Z M223 726 C223 667 272 619 330 619 C389 619 438 667 438 726 C438 786 390 834 330 834 C271 834 223 786 223 726 L223 726 Z M290 726 C290 749 308 767 330 767 C353 767 371 749 371 726 C371 703 352 686 330 686 C308 686 290 704 290 726 L290 726 Z " />
<glyph glyph-name="ae" unicode="&#xe6;" horiz-adv-x="1080" d="M893 175 C881 148 843 104 761 104 C708 104 631 141 612 218 L1044 218 C1048 240 1049 258 1048 285 C1048 443 911 574 777 574 C698 574 650 550 607 505 L607 555 L485 555 L485 505 C456 533 416 574 315 574 C164 574 29 446 29 277 C29 119 156 -18 313 -18 C425 -18 468 35 483 56 L485 56 L485 0 L607 0 L607 56 L609 56 C644 10 693 -18 771 -18 C910 -18 1011 103 1033 175 L893 175 Z M162 276 C162 393 250 452 322 452 C401 452 481 383 481 278 C481 179 407 104 321 104 C225 104 162 192 162 276 L162 276 Z M608 325 C625 401 687 452 765 452 C883 448 911 353 915 325 L608 325 Z " />
<glyph glyph-name="ccedilla" unicode="&#xe7;" horiz-adv-x="640" d="M230 -164 C230 -193 261 -251 330 -251 C384 -251 430 -217 430 -153 C430 -88 385 -53 337 -53 C327 -53 319 -54 312 -55 L329 -18 L332 -18 C462 -18 565 57 610 181 L460 181 C425 125 381 104 337 104 C237 104 170 183 170 278 C170 392 250 452 331 452 C413 452 444 399 460 371 L610 371 C553 542 401 574 331 574 C178 574 37 450 37 280 C37 119 154 12 278 -12 L237 -106 L286 -125 C296 -107 314 -103 329 -103 C356 -103 376 -126 376 -153 C376 -181 357 -201 330 -201 C306 -201 287 -186 283 -164 L230 -164 Z " />
<glyph glyph-name="egrave" unicode="&#xe8;" horiz-adv-x="640" d="M602 218 C606 236 610 259 610 285 C610 425 499 577 323 577 C152 577 31 433 31 276 C31 114 159 -18 324 -18 C454 -18 560 75 592 175 L452 175 C427 129 383 104 324 104 C229 104 177 182 171 218 L602 218 Z M167 325 C192 428 275 455 324 455 C390 455 459 414 474 325 L167 325 Z M160 749 L386 624 L439 716 L217 851 L160 749 Z " />
<glyph glyph-name="eacute" unicode="&#xe9;" horiz-adv-x="640" d="M602 218 C606 236 610 259 610 285 C610 425 499 577 323 577 C152 577 31 433 31 276 C31 114 159 -18 324 -18 C454 -18 560 75 592 175 L452 175 C427 129 383 104 324 104 C229 104 177 182 171 218 L602 218 Z M167 325 C192 428 275 455 324 455 C390 455 459 414 474 325 L167 325 Z M252 624 L480 744 L426 849 L201 716 L252 624 Z " />
<glyph glyph-name="ecircumflex" unicode="&#xea;" horiz-adv-x="640" d="M602 218 C606 236 610 259 610 285 C610 425 499 577 323 577 C152 577 31 433 31 276 C31 114 159 -18 324 -18 C454 -18 560 75 592 175 L452 175 C427 129 383 104 324 104 C229 104 177 182 171 218 L602 218 Z M167 325 C192 428 275 455 324 455 C390 455 459 414 474 325 L167 325 Z M121 636 L266 636 L322 700 L375 636 L520 636 L374 774 L269 774 L121 636 Z " />
<glyph glyph-name="edieresis" unicode="&#xeb;" horiz-adv-x="640" d="M602 218 C606 236 610 259 610 285 C610 425 499 577 323 577 C152 577 31 433 31 276 C31 114 159 -18 324 -18 C454 -18 560 75 592 175 L452 175 C427 129 383 104 324 104 C229 104 177 182 171 218 L602 218 Z M167 325 C192 428 275 455 324 455 C390 455 459 414 474 325 L167 325 Z M148 636 L282 636 L282 769 L148 769 L148 636 Z M359 636 L492 636 L492 769 L359 769 L359 636 Z " />
<glyph glyph-name="igrave" unicode="&#xec;" horiz-adv-x="240" d="M53 0 L186 0 L186 555 L53 555 L53 0 Z M-65 749 L161 624 L214 716 L-8 851 L-65 749 Z " />
<glyph glyph-name="iacute" unicode="&#xed;" horiz-adv-x="240" d="M53 0 L186 0 L186 555 L53 555 L53 0 Z M77 624 L305 744 L251 849 L26 716 L77 624 Z " />
<glyph glyph-name="icircumflex" unicode="&#xee;" horiz-adv-x="240" d="M53 0 L186 0 L186 555 L53 555 L53 0 Z M-79 636 L66 636 L122 700 L175 636 L320 636 L174 774 L69 774 L-79 636 Z " />
<glyph glyph-name="idieresis" unicode="&#xef;" horiz-adv-x="240" d="M53 0 L186 0 L186 555 L53 555 L53 0 Z M-52 636 L82 636 L82 769 L-52 769 L-52 636 Z M159 636 L292 636 L292 769 L159 769 L159 636 Z " />
<glyph glyph-name="eth" unicode="&#xf0;" horiz-adv-x="640" d="M324 452 C406 452 484 377 484 276 C484 188 420 104 323 104 C239 104 160 172 160 277 C160 393 254 452 324 452 L324 452 Z M311 617 C337 600 358 582 377 564 L375 562 C362 569 345 572 323 573 C164 574 27 445 27 277 C27 118 158 -18 323 -18 C473 -18 616 93 616 295 C616 457 531 577 438 655 L570 694 L484 754 L353 714 C318 734 287 747 262 754 L112 713 C151 701 187 687 218 672 L74 628 L160 572 L311 617 Z " />
<glyph glyph-name="ntilde" unicode="&#xf1;" horiz-adv-x="600" d="M54 0 L187 0 L187 264 C187 311 187 369 211 403 C235 440 278 452 302 452 C414 452 414 320 414 274 L414 0 L547 0 L547 300 C547 343 547 436 496 497 C450 553 377 574 329 574 C245 574 199 528 177 507 L177 555 L54 555 L54 0 Z M158 643 C170 649 196 663 238 663 C261 663 276 659 289 655 C345 640 358 636 383 636 C433 636 467 659 497 683 L443 761 C420 746 396 738 367 738 C355 738 342 739 302 751 C270 760 249 767 220 767 C202 767 156 763 104 724 L158 643 Z " />
<glyph glyph-name="ograve" unicode="&#xf2;" horiz-adv-x="640" d="M321 -18 C475 -18 615 97 615 279 C615 449 478 574 321 574 C162 574 25 445 25 277 C25 118 156 -18 321 -18 L321 -18 Z M321 104 C237 104 158 172 158 277 C158 393 252 452 321 452 C404 452 482 377 482 276 C482 188 418 104 321 104 L321 104 Z M160 749 L386 624 L439 716 L217 851 L160 749 Z " />
<glyph glyph-name="oacute" unicode="&#xf3;" horiz-adv-x="640" d="M321 -18 C475 -18 615 97 615 279 C615 449 478 574 321 574 C162 574 25 445 25 277 C25 118 156 -18 321 -18 L321 -18 Z M321 104 C237 104 158 172 158 277 C158 393 252 452 321 452 C404 452 482 377 482 276 C482 188 418 104 321 104 L321 104 Z M252 624 L480 744 L426 849 L201 716 L252 624 Z " />
<glyph glyph-name="ocircumflex" unicode="&#xf4;" horiz-adv-x="640" d="M321 -18 C475 -18 615 97 615 279 C615 449 478 574 321 574 C162 574 25 445 25 277 C25 118 156 -18 321 -18 L321 -18 Z M321 104 C237 104 158 172 158 277 C158 393 252 452 321 452 C404 452 482 377 482 276 C482 188 418 104 321 104 L321 104 Z M121 636 L266 636 L322 700 L375 636 L520 636 L374 774 L269 774 L121 636 Z " />
<glyph glyph-name="otilde" unicode="&#xf5;" horiz-adv-x="640" d="M321 -18 C475 -18 615 97 615 279 C615 449 478 574 321 574 C162 574 25 445 25 277 C25 118 156 -18 321 -18 L321 -18 Z M321 104 C237 104 158 172 158 277 C158 393 252 452 321 452 C404 452 482 377 482 276 C482 188 418 104 321 104 L321 104 Z M178 643 C190 649 216 663 258 663 C281 663 296 659 309 655 C365 640 378 636 403 636 C453 636 487 659 517 683 L463 761 C440 746 416 738 387 738 C375 738 362 739 322 751 C290 760 269 767 240 767 C222 767 176 763 124 724 L178 643 Z " />
<glyph glyph-name="odieresis" unicode="&#xf6;" horiz-adv-x="640" d="M321 -18 C475 -18 615 97 615 279 C615 449 478 574 321 574 C162 574 25 445 25 277 C25 118 156 -18 321 -18 L321 -18 Z M321 104 C237 104 158 172 158 277 C158 393 252 452 321 452 C404 452 482 377 482 276 C482 188 418 104 321 104 L321 104 Z M148 636 L282 636 L282 769 L148 769 L148 636 Z M359 636 L492 636 L492 769 L359 769 L359 636 Z " />
<glyph glyph-name="divide" unicode="&#xf7;" horiz-adv-x="600" d="M552 193 L552 313 L48 313 L48 193 L552 193 Z M240 406 L360 406 L360 526 L240 526 L240 406 Z M240 -20 L360 -20 L360 100 L240 100 L240 -20 Z " />
<glyph glyph-name="oslash" unicode="&#xf8;" horiz-adv-x="660" d="M195 181 C178 208 168 240 168 277 C168 393 262 452 331 452 C346 452 361 450 375 445 L195 181 Z M467 367 C483 342 492 311 492 276 C492 188 428 104 331 104 C317 104 304 106 291 109 L467 367 Z M448 551 L447 550 C410 566 371 574 331 574 C172 574 35 445 35 277 C35 198 67 125 120 72 L83 18 L182 -50 L220 4 C254 -10 292 -18 331 -18 C485 -18 625 97 625 279 C625 360 594 430 545 481 L585 539 L486 608 L448 551 Z " />
<glyph glyph-name="ugrave" unicode="&#xf9;" horiz-adv-x="600" d="M411 555 L411 271 C411 183 383 104 299 104 C183 104 183 227 183 272 L183 555 L50 555 L50 265 C50 219 50 129 91 70 C119 32 176 -18 277 -18 C362 -18 398 26 420 56 L422 56 L422 0 L544 0 L544 555 L411 555 Z M105 749 L331 624 L384 716 L162 851 L105 749 Z " />
<glyph glyph-name="uacute" unicode="&#xfa;" horiz-adv-x="600" d="M411 555 L411 271 C411 183 383 104 299 104 C183 104 183 227 183 272 L183 555 L50 555 L50 265 C50 219 50 129 91 70 C119 32 176 -18 277 -18 C362 -18 398 26 420 56 L422 56 L422 0 L544 0 L544 555 L411 555 Z M267 624 L495 744 L441 849 L216 716 L267 624 Z " />
<glyph glyph-name="ucircumflex" unicode="&#xfb;" horiz-adv-x="600" d="M411 555 L411 271 C411 183 383 104 299 104 C183 104 183 227 183 272 L183 555 L50 555 L50 265 C50 219 50 129 91 70 C119 32 176 -18 277 -18 C362 -18 398 26 420 56 L422 56 L422 0 L544 0 L544 555 L411 555 Z M101 636 L246 636 L302 700 L355 636 L500 636 L354 774 L249 774 L101 636 Z " />
<glyph glyph-name="udieresis" unicode="&#xfc;" horiz-adv-x="600" d="M411 555 L411 271 C411 183 383 104 299 104 C183 104 183 227 183 272 L183 555 L50 555 L50 265 C50 219 50 129 91 70 C119 32 176 -18 277 -18 C362 -18 398 26 420 56 L422 56 L422 0 L544 0 L544 555 L411 555 Z M128 636 L262 636 L262 769 L128 769 L128 636 Z M339 636 L472 636 L472 769 L339 769 L339 636 Z " />
<glyph glyph-name="yacute" unicode="&#xfd;" horiz-adv-x="580" d="M109 -185 L252 -185 L571 555 L420 555 L286 199 L160 555 L8 555 L211 52 L109 -185 Z M257 624 L485 744 L431 849 L206 716 L257 624 Z " />
<glyph glyph-name="thorn" unicode="&#xfe;" horiz-adv-x="660" d="M47 -185 L180 -185 L180 53 C215 20 262 -18 351 -18 C508 -18 629 116 629 280 C629 417 533 574 351 574 C316 574 242 568 182 494 L180 494 L180 740 L47 740 L47 -185 Z M172 278 C172 385 253 452 336 452 C418 452 496 380 496 278 C496 164 405 104 334 104 C271 104 172 155 172 278 L172 278 Z " />
<glyph glyph-name="ydieresis" unicode="&#xff;" horiz-adv-x="580" d="M109 -185 L252 -185 L571 555 L420 555 L286 199 L160 555 L8 555 L211 52 L109 -185 Z M118 636 L252 636 L252 769 L118 769 L118 636 Z M329 636 L462 636 L462 769 L329 769 L329 636 Z " />
<glyph glyph-name="dotlessi" unicode="&#x131;" horiz-adv-x="240" d="M53 0 L186 0 L186 555 L53 555 L53 0 Z " />
<glyph glyph-name="Lslash" unicode="&#x141;" horiz-adv-x="480" d="M97 273 L97 0 L460 0 L460 128 L234 128 L234 365 L362 451 L362 589 L234 503 L234 740 L97 740 L97 411 L26 363 L26 225 L97 273 Z " />
<glyph glyph-name="lslash" unicode="&#x142;" horiz-adv-x="320" d="M34 358 L34 216 L99 258 L99 0 L232 0 L232 344 L305 393 L305 536 L232 488 L232 740 L99 740 L99 401 L34 358 Z " />
<glyph glyph-name="OE" unicode="&#x152;" horiz-adv-x="1060" d="M1007 0 L1007 128 L787 128 L787 303 L995 303 L995 431 L787 431 L787 612 L1007 612 L1007 740 L650 740 L650 660 C583 735 467 755 408 755 C230 755 37 614 37 369 C37 129 231 -15 408 -15 C488 -15 593 16 650 79 L650 0 L1007 0 Z M174 356 C174 523 286 627 413 627 C565 627 655 488 655 365 C655 238 559 113 416 113 C260 113 174 252 174 356 L174 356 Z " />
<glyph glyph-name="oe" unicode="&#x153;" horiz-adv-x="1080" d="M893 175 C877 141 834 104 762 104 C739 104 640 116 610 218 L1044 218 C1048 240 1050 265 1050 288 C1050 452 914 574 761 574 C638 574 578 506 543 460 C521 490 456 574 322 574 C176 574 30 455 30 277 C30 113 160 -18 320 -18 C462 -18 520 64 543 98 C613 -9 726 -18 762 -18 C860 -18 988 44 1031 175 L893 175 Z M163 282 C163 376 238 452 324 452 C411 452 486 375 486 277 C486 180 413 104 325 104 C248 104 163 169 163 282 L163 282 Z M608 325 C630 404 684 452 762 452 C839 452 897 401 915 325 L608 325 Z " />
<glyph glyph-name="Scaron" unicode="&#x160;" horiz-adv-x="520" d="M12 212 C20 49 158 -15 253 -15 C369 -15 493 61 493 221 C493 382 360 429 299 449 C224 474 176 488 176 552 C176 596 209 627 252 627 C289 627 329 610 335 544 L475 544 C468 695 342 755 256 755 C131 755 39 662 39 544 C39 388 158 353 215 331 C307 296 356 282 356 206 C356 150 308 113 254 113 C212 113 163 138 156 212 L12 212 Z M61 944 L209 806 L314 806 L460 944 L315 944 L262 880 L206 944 L61 944 Z " />
<glyph glyph-name="scaron" unicode="&#x161;" horiz-adv-x="440" d="M406 404 C401 514 308 574 225 574 C136 574 39 510 39 402 C39 311 100 264 163 243 C258 211 288 201 288 160 C288 137 271 104 228 104 C173 104 161 150 155 175 L19 175 C22 141 27 97 61 55 C104 1 172 -18 227 -18 C322 -18 421 51 421 176 C421 288 335 321 266 342 C195 365 172 372 172 404 C172 427 190 452 223 452 C237 452 267 448 276 404 L406 404 Z M21 774 L169 636 L274 636 L420 774 L275 774 L222 710 L166 774 L21 774 Z " />
<glyph glyph-name="Ydieresis" unicode="&#x178;" horiz-adv-x="620" d="M241 0 L378 0 L378 273 L622 740 L471 740 L309 400 L148 740 L-2 740 L241 273 L241 0 Z M138 806 L272 806 L272 939 L138 939 L138 806 Z M349 806 L482 806 L482 939 L349 939 L349 806 Z " />
<glyph glyph-name="Zcaron" unicode="&#x17d;" horiz-adv-x="500" d="M19 112 L19 0 L481 0 L481 128 L181 128 L462 621 L462 740 L34 740 L34 612 L302 612 L19 112 Z M76 944 L224 806 L329 806 L475 944 L330 944 L277 880 L221 944 L76 944 Z " />
<glyph glyph-name="zcaron" unicode="&#x17e;" horiz-adv-x="460" d="M20 0 L442 0 L442 122 L179 122 L425 433 L425 555 L48 555 L48 433 L266 433 L20 122 L20 0 Z M56 774 L204 636 L309 636 L455 774 L310 774 L257 710 L201 774 L56 774 Z " />
<glyph glyph-name="florin" unicode="&#x192;" horiz-adv-x="560" d="M382 586 C392 638 406 704 485 704 L492 704 L512 821 C503 824 501 824 480 824 C423 824 374 803 336 769 C282 721 270 665 260 612 L256 586 L161 586 L142 471 L236 471 L176 128 C159 33 148 -30 36 -30 L20 -30 L0 -144 C13 -148 25 -151 54 -151 C108 -151 159 -137 202 -107 C268 -60 281 0 300 106 L362 471 L455 471 L474 586 L382 586 Z " />
<glyph glyph-name="circumflex" unicode="&#x2c6;" horiz-adv-x="540" d="M71 636 L216 636 L272 700 L325 636 L470 636 L324 774 L219 774 L71 636 Z " />
<glyph glyph-name="caron" unicode="&#x2c7;" horiz-adv-x="540" d="M71 774 L219 636 L324 636 L470 774 L325 774 L272 710 L216 774 L71 774 Z " />
<glyph glyph-name="breve" unicode="&#x2d8;" horiz-adv-x="480" d="M42 770 C55 684 126 633 240 633 C355 633 426 684 439 770 L331 770 C312 739 277 730 240 730 C214 730 172 735 150 770 L42 770 Z " />
<glyph glyph-name="dotaccent" unicode="&#x2d9;" horiz-adv-x="280" d="M74 636 L207 636 L207 769 L74 769 L74 636 Z " />
<glyph glyph-name="ring" unicode="&#x2da;" horiz-adv-x="360" d="M73 726 C73 667 122 619 180 619 C239 619 288 667 288 726 C288 786 240 834 180 834 C121 834 73 786 73 726 L73 726 Z M140 726 C140 749 158 767 180 767 C203 767 221 749 221 726 C221 703 202 686 180 686 C158 686 140 704 140 726 L140 726 Z " />
<glyph glyph-name="ogonek" unicode="&#x2db;" horiz-adv-x="340" d="M165 9 C104 -22 79 -59 79 -98 C79 -132 101 -195 194 -195 C228 -195 246 -188 262 -182 L262 -104 C246 -111 236 -115 222 -115 C197 -115 171 -100 171 -70 C171 -38 195 -21 235 9 L165 9 Z " />
<glyph glyph-name="tilde" unicode="&#x2dc;" horiz-adv-x="480" d="M98 643 C110 649 136 663 178 663 C201 663 216 659 229 655 C285 640 298 636 323 636 C373 636 407 659 437 683 L383 761 C360 746 336 738 307 738 C295 738 282 739 242 751 C210 760 189 767 160 767 C142 767 96 763 44 724 L98 643 Z " />
<glyph glyph-name="hungarumlaut" unicode="&#x2dd;" horiz-adv-x="700" d="M197 610 L387 781 L311 862 L132 680 L197 610 Z M419 610 L609 781 L533 862 L354 680 L419 610 Z " />
<glyph glyph-name="endash" unicode="&#x2013;" horiz-adv-x="500" d="M35 230 L465 230 L465 348 L35 348 L35 230 Z " />
<glyph glyph-name="emdash" unicode="&#x2014;" horiz-adv-x="1000" d="M35 230 L965 230 L965 348 L35 348 L35 230 Z " />
<glyph glyph-name="quoteleft" unicode="&#x2018;" horiz-adv-x="280" d="M205 599 L147 599 C146 603 146 609 146 616 C146 661 181 668 204 672 L204 740 C155 741 72 715 72 607 L72 466 L205 466 L205 599 Z " />
<glyph glyph-name="quoteright" unicode="&#x2019;" horiz-adv-x="280" d="M72 607 L131 607 L131 590 C131 545 97 538 73 533 L73 466 C122 465 205 491 205 599 L205 740 L72 740 L72 607 Z " />
<glyph glyph-name="quotesinglbase" unicode="&#x201a;" horiz-adv-x="280" d="M72 0 L131 0 L131 -17 C131 -62 97 -69 73 -73 L73 -141 C122 -141 205 -116 205 -7 L205 133 L72 133 L72 0 Z " />
<glyph glyph-name="quotedblleft" unicode="&#x201c;" horiz-adv-x="480" d="M203 599 L145 599 C145 603 144 609 144 616 C144 661 179 668 202 672 L202 740 C153 741 70 715 70 607 L70 466 L203 466 L203 599 Z M410 599 L352 599 C352 603 351 609 351 616 C351 661 386 668 409 672 L409 740 C360 741 277 715 277 607 L277 466 L410 466 L410 599 Z " />
<glyph glyph-name="quotedblright" unicode="&#x201d;" horiz-adv-x="480" d="M70 607 L129 607 L129 590 C129 545 95 538 71 533 L71 466 C121 465 203 491 203 599 L203 740 L70 740 L70 607 Z M277 607 L336 607 L336 590 C336 545 302 538 278 533 L278 466 C328 465 410 491 410 599 L410 740 L277 740 L277 607 Z " />
<glyph glyph-name="quotedblbase" unicode="&#x201e;" horiz-adv-x="480" d="M70 0 L129 0 L129 -17 C129 -62 95 -69 71 -73 L71 -141 C121 -141 203 -116 203 -7 L203 133 L70 133 L70 0 Z M277 0 L336 0 L336 -17 C336 -62 302 -69 278 -73 L278 -141 C328 -141 410 -116 410 -7 L410 133 L277 133 L277 0 Z " />
<glyph glyph-name="dagger" unicode="&#x2020;" horiz-adv-x="560" d="M347 740 L214 740 L214 555 L51 555 L51 442 L214 442 L214 -142 L347 -142 L347 442 L509 442 L509 555 L347 555 L347 740 Z " />
<glyph glyph-name="daggerdbl" unicode="&#x2021;" horiz-adv-x="560" d="M346 740 L213 740 L213 587 L51 587 L51 475 L213 475 L213 179 L51 179 L51 67 L213 67 L213 -142 L346 -142 L346 67 L509 67 L509 179 L346 179 L346 475 L509 475 L509 587 L346 587 L346 740 Z " />
<glyph glyph-name="bullet" unicode="&#x2022;" horiz-adv-x="600" d="M302 532 C213 532 148 459 148 377 C148 293 216 222 301 222 C384 222 453 291 453 377 C453 462 385 532 302 532 L302 532 Z " />
<glyph glyph-name="ellipsis" unicode="&#x2026;" horiz-adv-x="1000" d="M100 0 L233 0 L233 133 L100 133 L100 0 Z M433 0 L566 0 L566 133 L433 133 L433 0 Z M766 0 L899 0 L899 133 L766 133 L766 0 Z " />
<glyph glyph-name="perthousand" unicode="&#x2030;" horiz-adv-x="1280" d="M36 574 C36 474 118 394 216 394 C315 394 396 474 396 574 C396 674 316 755 216 755 C117 755 36 674 36 574 L36 574 Z M147 574 C147 614 178 644 216 644 C254 644 285 614 285 575 C285 535 252 505 216 505 C178 505 147 537 147 574 L147 574 Z M461 166 C461 64 544 -15 642 -15 C739 -15 822 65 822 166 C822 266 741 347 642 347 C542 347 461 266 461 166 L461 166 Z M572 166 C572 204 602 236 642 236 C679 236 711 206 711 166 C711 127 679 96 642 96 C603 96 572 128 572 166 L572 166 Z M861 166 C861 64 944 -15 1042 -15 C1139 -15 1222 65 1222 166 C1222 266 1141 347 1042 347 C942 347 861 266 861 166 L861 166 Z M972 166 C972 204 1002 236 1042 236 C1079 236 1111 206 1111 166 C1111 127 1079 96 1042 96 C1003 96 972 128 972 166 L972 166 Z M224 0 L325 0 L632 740 L530 740 L224 0 Z " />
<glyph glyph-name="guilsinglleft" unicode="&#x2039;" horiz-adv-x="240" d="M190 108 L190 231 L122 289 L190 346 L190 469 L50 340 L50 239 L190 108 Z " />
<glyph glyph-name="guilsinglright" unicode="&#x203a;" horiz-adv-x="240" d="M50 108 L190 239 L190 340 L50 469 L50 346 L118 289 L50 231 L50 108 Z " />
<glyph glyph-name="fraction" unicode="&#x2044;" horiz-adv-x="160" d="M-123 0 L-25 0 L282 740 L183 740 L-123 0 Z " />
<glyph glyph-name="trademark" unicode="&#x2122;" horiz-adv-x="1000" d="M94 296 L188 296 L188 657 L274 657 L274 740 L9 740 L9 657 L94 657 L94 296 Z M333 296 L427 296 L427 602 L429 602 L538 296 L616 296 L725 602 L727 602 L727 296 L821 296 L821 740 L696 740 L578 418 L459 740 L333 740 L333 296 Z " />
<glyph glyph-name="minus" unicode="&#x2212;" horiz-adv-x="600" d="M552 193 L552 313 L48 313 L48 193 L552 193 Z " />
<glyph glyph-name="fi" unicode="&#xfb01;" horiz-adv-x="520" d="M72 437 L72 0 L205 0 L205 437 L328 437 L328 0 L461 0 L461 555 L205 555 C209 622 239 623 290 624 L290 755 L253 755 C212 755 168 739 137 710 C81 660 75 592 72 555 L25 555 L25 437 L72 437 Z M328 618 L461 618 L461 740 L328 740 L328 618 Z " />
<glyph glyph-name="fl" unicode="&#xfb02;" horiz-adv-x="520" d="M72 437 L72 0 L205 0 L205 437 L328 437 L328 0 L461 0 L461 740 L328 740 L328 555 L205 555 C209 622 239 623 290 624 L290 755 L253 755 C212 755 168 739 137 710 C81 660 75 592 72 555 L25 555 L25 437 L72 437 Z " />
</font>
</svg>
