<?xml version="1.0" encoding="UTF-8"?>
<svg xmlns="http://www.w3.org/2000/svg" xmlns:xlink="http://www.w3.org/1999/xlink" version="1.2" >
<font id="ITC Avant Garde Gothic Medium">
<font-face  font-family="ITC Avant Garde Gothic" units-per-em="1000" ascent="750" descent="-250" font-style="normal" font-weight="500" font-stretch="normal" cap-height="750" x-height="500" underline-position="-75" underline-thickness="50" />
<missing-glyph  horiz-adv-x="277" d="" />
<glyph glyph-name="NULL" d="" />
<glyph glyph-name="CR" unicode="&#xd;" horiz-adv-x="250" d="" />
<glyph glyph-name="space" unicode="&#x20;" horiz-adv-x="277" d="" />
<glyph glyph-name="exclam" unicode="&#x21;" horiz-adv-x="277" d="M191 122 L87 122 L87 0 L191 0 L191 122 Z M191 740 L87 740 L87 182 L191 182 L191 740 Z " />
<glyph glyph-name="quotedbl" unicode="&#x22;" horiz-adv-x="325" d="M110 444 L130 740 L20 740 L39 444 L110 444 Z M286 444 L306 740 L196 740 L215 444 L286 444 Z " />
<glyph glyph-name="numbersign" unicode="&#x23;" horiz-adv-x="555" d="M494 288 L413 288 L430 412 L522 412 L524 496 L442 496 L470 700 L381 700 L353 496 L251 496 L279 700 L190 700 L162 496 L62 496 L60 412 L150 412 L133 288 L32 288 L30 204 L121 204 L93 0 L181 0 L210 204 L312 204 L284 0 L372 0 L401 204 L492 204 L494 288 Z M341 412 L324 288 L222 288 L239 412 L341 412 Z " />
<glyph glyph-name="dollar" unicode="&#x24;" horiz-adv-x="555" d="M234 823 L234 711 C126 684 97 587 97 528 C97 387 210 361 255 347 C303 335 382 315 383 232 C383 172 352 118 283 118 C238 118 180 141 172 230 L68 230 C75 109 147 51 234 29 L234 -82 L329 -82 L329 29 C457 50 487 163 487 232 C486 387 361 420 320 430 C248 449 201 462 201 528 C201 572 228 622 285 622 C342 622 369 588 373 538 L477 538 C473 642 411 701 329 711 L329 823 L234 823 Z " />
<glyph glyph-name="percent" unicode="&#x25;" horiz-adv-x="837" d="M512 166 C512 217 552 259 603 259 C654 259 694 217 694 166 C694 115 654 73 603 73 C552 73 512 115 512 166 L512 166 Z M422 166 C422 67 504 -13 603 -13 C702 -13 784 67 784 166 C784 265 702 345 603 345 C504 345 422 265 422 166 L422 166 Z M52 572 C52 473 134 393 233 393 C332 393 414 473 414 572 C414 671 332 751 233 751 C134 751 52 671 52 572 L52 572 Z M142 572 C142 623 182 665 233 665 C284 665 324 623 324 572 C324 521 284 479 233 479 C182 479 142 521 142 572 L142 572 Z M660 740 L593 740 L169 0 L236 0 L660 740 Z " />
<glyph glyph-name="ampersand" unicode="&#x26;" horiz-adv-x="684" d="M648 455 L531 455 L450 292 L352 388 C449 435 476 504 476 566 C476 677 390 754 292 754 C189 754 105 675 105 565 C105 496 138 457 176 418 C79 375 34 293 34 207 C34 83 133 -14 260 -14 C386 -14 451 80 475 116 L604 -14 L676 59 L527 211 L648 455 Z M276 460 C225 507 213 535 213 565 C213 625 253 655 291 655 C323 655 368 630 368 569 C368 514 332 490 276 460 L276 460 Z M403 191 C390 167 349 85 260 85 C184 85 142 145 142 207 C142 296 206 331 247 345 L403 191 Z " />
<glyph glyph-name="quotesingle" unicode="&#x27;" horiz-adv-x="218" d="M144 444 L164 740 L54 740 L74 444 L144 444 Z " />
<glyph glyph-name="parenleft" unicode="&#x28;" horiz-adv-x="407" d="M357 -127 C293 -75 163 31 163 254 C163 457 275 558 351 626 L351 755 C183 667 55 467 55 253 C55 -12 229 -192 357 -257 L357 -127 Z " />
<glyph glyph-name="parenright" unicode="&#x29;" horiz-adv-x="407" d="M50 625 C115 572 244 466 244 244 C244 40 132 -60 56 -128 L56 -257 C224 -169 352 31 352 245 C352 507 181 688 50 755 L50 625 Z " />
<glyph glyph-name="asterisk" unicode="&#x2a;" horiz-adv-x="573" d="M254 596 L118 642 L96 576 L234 533 L147 418 L204 377 L287 495 L370 377 L427 418 L340 533 L478 576 L456 642 L320 596 L323 740 L253 740 L254 596 Z " />
<glyph glyph-name="plus" unicode="&#x2b;" horiz-adv-x="600" d="M248 305 L48 305 L48 201 L248 201 L248 0 L352 0 L352 201 L552 201 L552 305 L352 305 L352 506 L248 506 L248 305 Z " />
<glyph glyph-name="comma" unicode="&#x2c;" horiz-adv-x="277" d="M191 122 L87 122 L87 0 L124 0 L124 -9 C124 -51 102 -59 87 -65 L87 -127 C187 -107 191 -27 191 11 L191 122 Z " />
<glyph glyph-name="hyphen" unicode="&#x2d;" horiz-adv-x="280" d="M280 237 L280 341 L0 341 L0 237 L280 237 Z " />
<glyph glyph-name="period" unicode="&#x2e;" horiz-adv-x="277" d="M191 0 L191 122 L87 122 L87 0 L191 0 Z " />
<glyph glyph-name="slash" unicode="&#x2f;" horiz-adv-x="499" d="M155 -100 L443 740 L329 740 L41 -100 L155 -100 Z " />
<glyph glyph-name="zero" unicode="0" horiz-adv-x="555" d="M517 511 C517 672 390 755 280 755 C186 755 38 692 38 504 L38 246 C38 207 38 138 89 76 C121 37 182 -14 276 -14 C368 -14 429 33 463 71 C511 127 517 181 517 238 L517 511 Z M413 238 C413 200 413 166 380 128 C355 100 321 81 280 81 C262 81 142 85 142 238 L142 511 C142 630 227 660 279 660 C318 660 413 641 413 511 L413 238 Z " />
<glyph glyph-name="one" unicode="1" horiz-adv-x="555" d="M361 740 L148 740 L148 645 L257 645 L257 0 L361 0 L361 740 Z " />
<glyph glyph-name="two" unicode="2" horiz-adv-x="555" d="M504 0 L504 95 L194 95 L400 306 C451 358 503 417 503 515 C503 638 411 754 269 754 C192 754 35 704 37 486 L141 486 L141 505 C141 618 216 659 273 659 C354 659 399 586 399 518 C399 460 368 419 332 383 L41 87 L41 0 L504 0 Z " />
<glyph glyph-name="three" unicode="3" horiz-adv-x="555" d="M22 218 C23 82 136 -14 261 -14 C390 -14 501 72 501 221 C501 267 486 351 401 405 C435 436 469 469 469 549 C469 667 386 754 269 754 C216 754 73 723 63 555 L167 555 C178 654 246 659 266 659 C325 659 365 611 365 557 C365 553 365 454 257 454 L221 454 L221 350 L259 350 C332 350 397 298 397 217 C397 154 348 81 264 81 C244 81 132 88 126 218 L22 218 Z " />
<glyph glyph-name="four" unicode="4" horiz-adv-x="555" d="M454 740 L350 740 L12 217 L12 116 L350 116 L350 0 L454 0 L454 116 L532 116 L532 211 L454 211 L454 740 Z M132 211 L348 567 L350 567 L350 211 L132 211 Z " />
<glyph glyph-name="five" unicode="5" horiz-adv-x="555" d="M121 740 L59 360 L149 339 C164 363 199 416 282 416 C372 416 426 331 426 243 C426 150 354 81 278 81 C196 81 145 142 129 224 L25 224 C39 86 137 -14 277 -14 C431 -14 530 114 530 251 C530 395 431 511 282 511 C223 511 194 491 179 481 L207 645 L459 645 L459 740 L121 740 Z " />
<glyph glyph-name="six" unicode="6" horiz-adv-x="555" d="M289 740 L81 415 C67 392 25 327 25 238 C25 143 104 -14 282 -14 C429 -14 537 106 537 252 C537 388 438 502 299 502 C282 502 272 500 255 497 L412 740 L289 740 Z M129 248 C129 335 199 407 284 407 C368 407 433 335 433 241 C433 159 370 81 282 81 C193 81 129 156 129 248 L129 248 Z " />
<glyph glyph-name="seven" unicode="7" horiz-adv-x="555" d="M71 740 L71 645 L392 645 L113 0 L229 0 L500 645 L500 740 L71 740 Z " />
<glyph glyph-name="eight" unicode="8" horiz-adv-x="555" d="M412 408 C438 431 478 465 478 551 C478 662 388 754 279 754 C175 754 77 670 77 550 C77 470 114 434 140 408 C109 385 43 333 43 218 C43 75 162 -14 277 -14 C403 -14 511 89 511 221 C511 258 502 348 412 408 L412 408 Z M374 561 C374 508 342 456 277 456 C215 456 181 511 181 557 C181 610 221 659 278 659 C341 659 374 604 374 561 L374 561 Z M407 212 C407 150 355 81 276 81 C206 81 147 140 147 213 C147 282 200 350 277 350 C338 350 407 299 407 212 L407 212 Z " />
<glyph glyph-name="nine" unicode="9" horiz-adv-x="555" d="M266 0 L472 325 C507 379 529 439 529 503 C529 595 452 755 272 754 C124 754 18 632 18 489 C18 336 135 239 257 239 C272 239 283 241 300 243 L143 0 L266 0 Z M425 492 C425 421 368 334 272 334 C187 334 122 411 122 499 C122 581 184 659 273 659 C360 659 425 585 425 492 L425 492 Z " />
<glyph glyph-name="colon" unicode="&#x3a;" horiz-adv-x="277" d="M191 0 L191 122 L87 122 L87 0 L191 0 Z M191 433 L191 555 L87 555 L87 433 L191 433 Z " />
<glyph glyph-name="semicolon" unicode="&#x3b;" horiz-adv-x="277" d="M191 122 L87 122 L87 0 L124 0 L124 -9 C124 -51 102 -59 87 -65 L87 -127 C187 -107 191 -27 191 11 L191 122 Z M191 433 L191 555 L87 555 L87 433 L191 433 Z " />
<glyph glyph-name="less" unicode="&#x3c;" horiz-adv-x="600" d="M554 94 L181 253 L554 412 L554 514 L46 296 L46 210 L554 -8 L554 94 Z " />
<glyph glyph-name="equal" unicode="&#x3d;" horiz-adv-x="600" d="M552 414 L48 414 L48 310 L552 310 L552 414 Z M552 196 L48 196 L48 92 L552 92 L552 196 Z " />
<glyph glyph-name="greater" unicode="&#x3e;" horiz-adv-x="600" d="M46 94 L46 -8 L554 210 L554 296 L46 514 L46 412 L419 253 L46 94 Z " />
<glyph glyph-name="question" unicode="&#x3f;" horiz-adv-x="518" d="M303 190 C310 241 316 290 389 355 C433 395 478 435 478 530 C478 642 387 754 257 754 C172 754 40 698 32 529 L136 529 C139 555 142 574 157 595 C170 614 201 649 256 649 C320 649 374 596 374 526 C374 484 357 467 303 412 C261 370 202 305 199 190 L303 190 Z M303 122 L199 122 L199 0 L303 0 L303 122 Z " />
<glyph glyph-name="at" unicode="&#x40;" horiz-adv-x="760" d="M513 548 L503 493 L501 493 C493 506 470 562 377 562 C259 562 182 450 182 336 C182 226 251 156 338 156 C366 156 430 160 471 216 L473 216 C482 169 532 156 558 156 C666 156 749 279 749 424 C749 630 597 753 397 753 C179 745 19 598 11 370 C11 190 120 -13 409 -13 C497 -13 583 5 686 62 L647 123 C611 97 529 63 409 63 C153 63 91 245 91 369 C91 538 209 677 398 677 C554 677 669 585 669 423 C663 306 628 232 562 232 C549 232 539 241 537 258 C537 270 540 286 545 317 L587 548 L513 548 Z M481 394 C481 304 435 232 349 232 C297 232 262 274 262 338 C262 429 320 486 382 486 C437 486 481 463 481 394 L481 394 Z " />
<glyph glyph-name="A" unicode="A" horiz-adv-x="684" d="M672 0 L391 740 L294 740 L13 0 L127 0 L209 218 L475 218 L557 0 L672 0 Z M247 317 L342 600 L344 600 L438 317 L247 317 Z " />
<glyph glyph-name="B" unicode="B" horiz-adv-x="580" d="M75 0 L296 0 C500 0 542 139 542 215 C542 330 463 377 432 395 C457 417 498 453 498 535 C498 587 476 740 267 740 L75 740 L75 0 Z M183 333 L287 333 C325 333 375 332 408 288 C423 268 434 242 434 215 C434 177 409 99 300 99 L183 99 L183 333 Z M183 641 L265 641 C289 641 390 641 390 536 C390 493 372 432 271 432 L183 432 L183 641 Z " />
<glyph glyph-name="C" unicode="C" horiz-adv-x="782" d="M759 551 C740 584 712 634 645 682 C565 740 475 754 419 754 C212 754 38 589 38 373 C38 163 208 -14 418 -14 C533 -14 672 38 754 183 L621 183 C570 123 497 85 419 85 C274 85 146 213 146 372 C146 528 267 655 421 655 C541 655 607 576 629 551 L759 551 Z " />
<glyph glyph-name="D" unicode="D" horiz-adv-x="732" d="M65 0 L301 0 C405 0 505 23 590 107 C645 161 683 268 683 368 C683 440 660 530 607 604 C551 681 459 740 305 740 L65 740 L65 0 Z M173 641 L304 641 C506 641 575 480 575 368 C575 164 432 99 302 99 L173 99 L173 641 Z " />
<glyph glyph-name="E" unicode="E" horiz-adv-x="520" d="M464 0 L464 99 L173 99 L173 324 L464 324 L464 423 L173 423 L173 641 L464 641 L464 740 L65 740 L65 0 L464 0 Z " />
<glyph glyph-name="F" unicode="F" horiz-adv-x="482" d="M173 0 L173 320 L439 320 L439 419 L173 419 L173 641 L439 641 L439 740 L65 740 L65 0 L173 0 Z " />
<glyph glyph-name="G" unicode="G" horiz-adv-x="831" d="M748 554 C676 687 542 754 416 754 C203 754 38 581 38 368 C38 161 201 -14 417 -14 C597 -14 795 120 799 368 L331 368 L331 269 L676 269 C605 87 442 85 421 85 C281 85 146 205 146 368 C146 523 266 655 420 655 C529 655 591 588 622 554 L748 554 Z " />
<glyph glyph-name="H" unicode="H" horiz-adv-x="670" d="M596 0 L596 740 L488 740 L488 421 L183 421 L183 740 L75 740 L75 0 L183 0 L183 322 L488 322 L488 0 L596 0 Z " />
<glyph glyph-name="I" unicode="I" horiz-adv-x="257" d="M183 0 L183 740 L75 740 L75 0 L183 0 Z " />
<glyph glyph-name="J" unicode="J" horiz-adv-x="487" d="M408 740 L300 740 L300 203 C300 183 296 163 292 148 C278 104 242 85 205 85 C180 85 134 88 111 148 L0 148 C18 49 108 -14 204 -14 C285 -14 357 26 390 104 C401 131 408 168 408 209 L408 740 Z " />
<glyph glyph-name="K" unicode="K" horiz-adv-x="618" d="M614 0 L325 373 L614 740 L481 740 L200 373 L198 373 L198 740 L90 740 L90 0 L198 0 L198 373 L200 373 L481 0 L614 0 Z " />
<glyph glyph-name="L" unicode="L" horiz-adv-x="444" d="M444 0 L444 99 L187 99 L187 740 L79 740 L79 0 L444 0 Z " />
<glyph glyph-name="M" unicode="M" horiz-adv-x="934" d="M860 0 L860 740 L690 740 L467 173 L245 740 L75 740 L75 0 L183 0 L183 625 L185 625 L435 0 L500 0 L749 625 L752 625 L752 0 L860 0 Z " />
<glyph glyph-name="N" unicode="N" horiz-adv-x="738" d="M663 0 L663 740 L555 740 L555 177 L553 177 L193 740 L75 740 L75 0 L183 0 L183 572 L185 572 L551 0 L663 0 Z " />
<glyph glyph-name="O" unicode="O" horiz-adv-x="846" d="M808 368 C808 579 643 754 423 754 C197 754 38 571 38 370 C38 167 202 -14 423 -14 C643 -14 808 166 808 368 L808 368 Z M700 367 C700 251 614 85 423 85 C233 85 146 249 146 370 C146 488 232 655 423 655 C607 655 700 498 700 367 L700 367 Z " />
<glyph glyph-name="P" unicode="P" horiz-adv-x="559" d="M173 292 L279 292 C456 292 540 384 540 516 C540 648 456 740 279 740 L65 740 L65 0 L173 0 L173 292 Z M173 641 L279 641 C402 641 432 571 432 516 C432 461 402 391 279 391 L173 391 L173 641 Z " />
<glyph glyph-name="Q" unicode="Q" horiz-adv-x="837" d="M816 86 C764 86 745 92 709 112 C740 155 800 239 800 370 C800 577 636 754 419 754 C203 754 38 585 38 372 C38 157 209 -14 418 -14 C492 -14 565 7 630 43 C671 17 721 -13 816 -14 L816 86 Z M534 118 C516 105 487 85 422 85 C334 85 252 129 201 200 C220 209 237 217 287 217 C354 217 427 198 534 118 L534 118 Z M621 177 C512 266 405 316 297 316 C266 316 208 314 156 293 C151 313 146 330 146 365 C146 525 268 655 421 655 C575 655 692 521 692 370 C692 266 645 207 621 177 L621 177 Z " />
<glyph glyph-name="R" unicode="R" horiz-adv-x="594" d="M554 0 L347 276 C395 276 559 307 559 503 C559 565 538 633 491 678 C452 715 398 740 294 740 L65 740 L65 0 L173 0 L173 343 L175 343 L419 0 L554 0 Z M173 641 L287 641 C409 641 451 565 451 503 C451 360 291 358 247 358 L173 358 L173 641 Z " />
<glyph glyph-name="S" unicode="S" horiz-adv-x="499" d="M18 219 C18 54 144 -14 246 -14 C382 -14 473 81 473 210 C473 388 339 417 246 452 C214 464 147 483 147 554 C147 597 182 655 246 655 C290 655 350 630 350 548 L458 548 C458 673 369 754 246 754 C106 754 39 639 39 553 C39 501 55 447 89 414 C123 381 147 369 246 331 C297 311 365 293 365 210 C365 132 314 85 246 85 C137 85 126 194 126 219 L18 219 Z " />
<glyph glyph-name="T" unicode="T" horiz-adv-x="407" d="M257 0 L257 641 L399 641 L399 740 L7 740 L7 641 L149 641 L149 0 L257 0 Z " />
<glyph glyph-name="U" unicode="U" horiz-adv-x="643" d="M569 740 L461 740 L461 242 C461 105 361 85 321 85 C281 85 181 105 181 242 L181 740 L73 740 L73 239 C73 155 101 94 148 49 C194 11 253 -14 321 -14 C389 -14 448 11 494 49 C541 94 569 155 569 239 L569 740 Z " />
<glyph glyph-name="V" unicode="V" horiz-adv-x="684" d="M375 0 L672 740 L558 740 L343 185 L128 740 L12 740 L310 0 L375 0 Z " />
<glyph glyph-name="W" unicode="W" horiz-adv-x="906" d="M683 0 L890 740 L780 740 L636 187 L634 187 L493 740 L414 740 L271 183 L269 183 L128 740 L16 740 L223 0 L318 0 L452 517 L454 517 L588 0 L683 0 Z " />
<glyph glyph-name="X" unicode="X" horiz-adv-x="648" d="M507 0 L634 0 L389 371 L636 740 L508 740 L323 460 L140 740 L11 740 L256 371 L11 0 L137 0 L323 282 L507 0 Z " />
<glyph glyph-name="Y" unicode="Y" horiz-adv-x="593" d="M351 0 L351 267 L579 740 L459 740 L297 393 L134 740 L13 740 L243 267 L243 0 L351 0 Z " />
<glyph glyph-name="Z" unicode="Z" horiz-adv-x="462" d="M459 0 L459 99 L127 99 L446 641 L446 740 L21 740 L21 641 L325 641 L4 99 L4 0 L459 0 Z " />
<glyph glyph-name="bracketleft" unicode="&#x5b;" horiz-adv-x="407" d="M329 -134 C232 -75 232 3 232 51 L232 456 C232 512 241 579 329 634 L329 755 C240 721 125 635 125 467 L125 14 C125 -105 215 -212 329 -257 L329 -134 Z " />
<glyph glyph-name="backslash" unicode="&#x5c;" horiz-adv-x="499" d="M344 -100 L458 -100 L170 740 L56 740 L344 -100 Z " />
<glyph glyph-name="bracketright" unicode="&#x5d;" horiz-adv-x="407" d="M78 -257 C192 -212 282 -105 282 14 L282 467 C282 635 167 721 78 755 L78 634 C166 579 175 512 175 456 L175 51 C175 3 175 -75 78 -134 L78 -257 Z " />
<glyph glyph-name="asciicircum" unicode="&#x5e;" horiz-adv-x="600" d="M170 355 L300 635 L430 355 L534 355 L347 740 L253 740 L66 355 L170 355 Z " />
<glyph glyph-name="underscore" unicode="&#x5f;" horiz-adv-x="500" d="M500 -125 L500 -75 L0 -75 L0 -125 L500 -125 Z " />
<glyph glyph-name="grave" unicode="&#x60;" horiz-adv-x="555" d="M166 814 L124 739 L347 611 L391 691 L166 814 Z " />
<glyph glyph-name="a" unicode="a" horiz-adv-x="693" d="M626 0 L626 554 L522 554 L522 476 L520 476 C480 537 409 569 332 569 C133 569 38 410 38 275 C38 129 145 -14 332 -14 C407 -14 480 18 520 86 L522 86 L522 0 L626 0 Z M524 276 C524 170 440 81 331 81 C221 81 142 176 142 276 C142 363 204 474 332 474 C439 474 524 394 524 276 L524 276 Z " />
<glyph glyph-name="b" unicode="b" horiz-adv-x="688" d="M170 0 L170 80 L172 80 C229 4 314 -14 365 -14 C527 -14 650 117 650 277 C650 448 510 569 363 569 C288 569 218 540 173 477 L171 477 L171 740 L67 740 L67 0 L170 0 Z M168 279 C168 377 243 474 357 474 C466 474 546 381 546 277 C546 167 457 81 357 81 C264 81 168 154 168 279 L168 279 Z " />
<glyph glyph-name="c" unicode="c" horiz-adv-x="627" d="M595 370 C574 452 480 569 323 569 C148 569 38 428 38 278 C38 135 140 -14 322 -14 C445 -14 553 60 595 183 L479 183 C453 126 400 81 322 81 C203 81 142 182 142 278 C142 362 190 474 324 474 C423 474 463 405 480 370 L595 370 Z " />
<glyph glyph-name="d" unicode="d" horiz-adv-x="687" d="M620 0 L620 740 L516 740 L516 486 L514 486 C474 537 403 569 326 569 C130 569 38 410 38 275 C38 129 142 -14 326 -14 C407 -14 478 18 522 79 L524 79 L524 0 L620 0 Z M524 276 C524 170 440 81 331 81 C221 81 142 176 142 276 C142 363 204 474 332 474 C439 474 524 394 524 276 L524 276 Z " />
<glyph glyph-name="e" unicode="e" horiz-adv-x="642" d="M602 232 C603 239 605 267 605 285 C604 447 473 569 323 569 C167 569 39 444 39 278 C39 121 164 -14 321 -14 C407 -14 534 31 587 174 L483 174 C458 126 402 81 325 81 C255 81 169 125 143 232 L602 232 Z M143 312 C148 393 222 474 322 474 C422 474 496 393 501 312 L143 312 Z " />
<glyph glyph-name="f" unicode="f" horiz-adv-x="277" d="M174 0 L174 459 L271 459 L271 554 L174 554 L174 581 C174 620 202 645 271 645 L271 740 C210 740 181 737 136 710 C93 681 70 640 70 581 L70 554 L21 554 L21 459 L70 459 L70 0 L174 0 Z " />
<glyph glyph-name="g" unicode="g" horiz-adv-x="697" d="M631 554 L527 554 L527 490 C490 532 418 569 336 569 C135 569 38 402 38 279 C38 144 151 -14 334 -14 C451 -14 506 47 525 73 L527 73 C527 -71 442 -122 332 -123 C233 -123 190 -65 174 -43 L58 -43 C104 -148 202 -218 331 -218 C520 -218 631 -107 631 75 L631 554 Z M527 276 C527 205 469 81 333 81 C222 81 142 177 142 277 C142 382 224 474 334 474 C398 474 527 432 527 276 L527 276 Z " />
<glyph glyph-name="h" unicode="h" horiz-adv-x="622" d="M558 0 L558 328 C557 390 545 434 523 470 C483 532 413 569 327 569 C305 569 222 569 172 495 L170 495 L170 740 L66 740 L66 0 L170 0 L170 302 C170 413 229 474 316 474 C454 474 454 344 454 301 L454 0 L558 0 Z " />
<glyph glyph-name="i" unicode="i" horiz-adv-x="238" d="M171 554 L67 554 L67 0 L171 0 L171 554 Z M171 740 L67 740 L67 618 L171 618 L171 740 Z " />
<glyph glyph-name="j" unicode="j" horiz-adv-x="249" d="M184 554 L80 554 L80 16 C80 -54 80 -104 11 -109 L11 -218 C45 -218 89 -201 125 -170 C184 -120 184 -71 184 16 L184 554 Z M184 740 L80 740 L80 618 L184 618 L184 740 Z " />
<glyph glyph-name="k" unicode="k" horiz-adv-x="546" d="M380 554 L183 287 L181 287 L181 740 L77 740 L77 0 L181 0 L181 287 L183 287 L405 0 L535 0 L302 293 L503 554 L380 554 Z " />
<glyph glyph-name="l" unicode="l" horiz-adv-x="238" d="M171 740 L67 740 L67 0 L171 0 L171 740 Z " />
<glyph glyph-name="m" unicode="m" horiz-adv-x="971" d="M905 0 L905 334 C905 388 894 433 874 469 C838 531 772 569 679 569 C555 569 514 504 496 476 C468 537 391 569 324 569 C221 569 185 517 165 494 L163 494 L163 554 L67 554 L67 0 L171 0 L171 309 C171 350 171 474 308 474 C346 474 385 462 411 422 C433 385 435 354 434 308 L434 0 L538 0 L538 309 C539 355 537 474 670 474 C795 474 801 355 801 308 L801 0 L905 0 Z " />
<glyph glyph-name="n" unicode="n" horiz-adv-x="624" d="M558 0 L558 328 C557 390 545 434 523 470 C483 532 413 569 327 569 C305 569 221 569 165 495 L163 495 L163 554 L66 554 L66 0 L170 0 L170 302 C170 413 229 474 316 474 C454 474 454 344 454 301 L454 0 L558 0 Z " />
<glyph glyph-name="o" unicode="o" horiz-adv-x="675" d="M636 279 C636 437 505 569 337 569 C165 569 38 432 38 281 C38 141 151 -14 337 -14 C525 -14 636 144 636 279 L636 279 Z M532 279 C532 174 449 81 337 81 C221 81 142 178 142 278 C142 377 220 474 337 474 C454 474 532 377 532 279 L532 279 Z " />
<glyph glyph-name="p" unicode="p" horiz-adv-x="686" d="M67 -185 L171 -185 L171 80 L173 80 C194 45 252 -14 368 -14 C543 -14 648 130 648 270 C648 418 549 569 361 569 C290 569 214 541 164 469 L162 469 L162 554 L67 554 L67 -185 Z M544 276 C544 159 455 81 357 81 C252 81 169 166 169 278 C169 380 245 474 354 474 C467 474 544 375 544 276 L544 276 Z " />
<glyph glyph-name="q" unicode="q" horiz-adv-x="687" d="M620 554 L524 554 L524 480 L522 480 C516 491 452 569 326 569 C151 569 39 427 39 278 C39 134 147 -14 329 -14 C404 -14 476 21 514 77 L516 77 L516 -185 L620 -185 L620 554 Z M525 275 C525 174 447 81 335 81 C220 81 143 173 143 278 C143 381 217 474 333 474 C446 474 525 384 525 275 L525 275 Z " />
<glyph glyph-name="r" unicode="r" horiz-adv-x="320" d="M171 0 L171 303 C171 382 199 424 232 442 C257 455 291 462 307 462 L307 569 C281 568 210 566 166 504 L164 504 L164 554 L67 554 L67 0 L171 0 Z " />
<glyph glyph-name="s" unicode="s" horiz-adv-x="424" d="M389 407 C386 530 282 569 219 569 C114 569 45 491 45 409 C45 291 141 264 201 242 C255 223 298 206 298 157 C298 110 265 81 218 81 C160 81 128 120 124 182 L20 182 C20 30 146 -14 216 -14 C334 -14 402 65 402 163 C402 295 278 330 235 343 C189 357 149 369 149 415 C149 450 176 474 214 474 C252 474 279 452 285 407 L389 407 Z " />
<glyph glyph-name="t" unicode="t" horiz-adv-x="277" d="M183 459 L274 459 L274 554 L183 554 L183 740 L79 740 L79 554 L4 554 L4 459 L79 459 L79 0 L183 0 L183 459 Z " />
<glyph glyph-name="u" unicode="u" horiz-adv-x="624" d="M66 554 L66 254 C66 143 93 81 139 41 C179 6 234 -14 297 -14 C367 -14 432 12 460 60 L462 60 L462 0 L557 0 L557 554 L453 554 L453 257 C453 136 394 81 308 81 C231 81 170 117 170 254 L170 554 L66 554 Z " />
<glyph glyph-name="v" unicode="v" horiz-adv-x="537" d="M524 554 L413 554 L271 158 L269 158 L124 554 L13 554 L233 0 L306 0 L524 554 Z " />
<glyph glyph-name="w" unicode="w" horiz-adv-x="795" d="M782 554 L671 554 L549 194 L547 194 L432 554 L364 554 L249 194 L247 194 L124 554 L13 554 L220 0 L277 0 L397 373 L399 373 L519 0 L577 0 L782 554 Z " />
<glyph glyph-name="x" unicode="x" horiz-adv-x="518" d="M378 554 L257 372 L135 554 L9 554 L194 284 L2 0 L123 0 L257 197 L394 0 L516 0 L323 284 L504 554 L378 554 Z " />
<glyph glyph-name="y" unicode="y" horiz-adv-x="574" d="M564 554 L452 554 L285 124 L122 554 L10 554 L231 11 L150 -185 L258 -185 L564 554 Z " />
<glyph glyph-name="z" unicode="z" horiz-adv-x="407" d="M29 554 L29 459 L269 459 L3 81 L3 0 L404 0 L404 95 L132 95 L383 453 L383 554 L29 554 Z " />
<glyph glyph-name="braceleft" unicode="&#x7b;" horiz-adv-x="333" d="M14 231 C46 231 106 208 106 141 L106 -63 C106 -154 178 -198 243 -198 L308 -198 L308 -119 L264 -119 C216 -119 210 -78 210 -46 L210 155 C210 253 141 269 111 273 L111 276 C141 279 210 302 210 386 L210 588 C210 621 216 661 264 661 L308 661 L308 740 L243 740 C178 740 106 696 106 605 L106 400 C106 339 46 317 14 317 L14 231 Z " />
<glyph glyph-name="bar" unicode="&#x7c;" horiz-adv-x="555" d="M221 740 L221 -100 L334 -100 L334 740 L221 740 Z " />
<glyph glyph-name="braceright" unicode="&#x7d;" horiz-adv-x="333" d="M319 311 C287 311 227 334 227 401 L227 605 C227 696 155 740 90 740 L25 740 L25 661 L69 661 C117 661 123 620 123 588 L123 387 C123 289 192 273 222 269 L222 266 C192 263 123 240 123 156 L123 -46 C123 -79 117 -119 69 -119 L25 -119 L25 -198 L90 -198 C155 -198 227 -154 227 -63 L227 142 C227 203 287 225 319 225 L319 311 Z " />
<glyph glyph-name="asciitilde" unicode="&#x7e;" horiz-adv-x="600" d="M495 339 C472 304 447 267 407 267 C380 267 342 287 305 303 C267 320 228 335 194 335 C127 335 91 291 69 249 L105 167 C121 202 145 239 189 239 C235 239 272 222 304 204 C337 186 369 171 406 171 C468 171 501 215 531 257 L495 339 Z " />
<glyph glyph-name="exclamdown" unicode="&#xa1;" horiz-adv-x="277" d="M190 370 L86 370 L86 -185 L190 -185 L190 370 Z M190 555 L86 555 L86 433 L190 433 L190 555 Z " />
<glyph glyph-name="cent" unicode="&#xa2;" horiz-adv-x="555" d="M397 319 C386 303 358 264 286 264 C194 264 142 336 142 403 C142 462 184 544 286 544 C347 544 384 514 398 485 L517 485 C487 571 423 630 332 644 L332 740 L237 740 L237 644 C110 620 38 521 38 408 C38 338 70 204 237 167 L237 69 L332 69 L332 167 C416 185 485 237 514 319 L397 319 Z " />
<glyph glyph-name="sterling" unicode="&#xa3;" horiz-adv-x="555" d="M428 272 C436 255 442 242 442 216 C442 168 418 95 319 95 L286 95 C292 119 299 141 299 182 C299 266 269 307 246 327 L386 327 L386 422 L167 422 C153 436 130 458 130 512 C130 590 181 659 268 659 C364 659 391 586 401 554 L514 554 C487 686 378 754 271 754 C114 754 26 642 26 512 C26 467 36 445 49 422 L9 422 L9 327 L121 327 C169 295 195 244 195 182 C194 137 185 116 174 95 L42 95 L42 0 L319 0 C498 0 546 127 546 217 C546 241 543 256 540 272 L428 272 Z " />
<glyph glyph-name="currency" unicode="&#xa4;" horiz-adv-x="555" d="M27 135 L90 72 L160 142 C190 123 232 107 279 107 C325 107 367 123 395 141 L465 72 L529 136 L460 206 C479 235 493 277 492 323 C493 369 478 411 460 442 L529 510 L465 573 L395 503 C366 522 325 537 279 537 C233 537 190 525 160 504 L90 574 L28 509 L98 442 C79 413 63 369 62 323 C62 276 77 235 98 204 L27 135 Z M157 322 C157 388 211 442 277 442 C343 442 397 388 397 322 C397 256 343 202 277 202 C211 202 157 256 157 322 L157 322 Z " />
<glyph glyph-name="yen" unicode="&#xa5;" horiz-adv-x="555" d="M368 400 L535 400 L535 486 L411 486 L555 740 L442 740 L277 442 L113 740 L0 740 L143 486 L20 486 L20 400 L186 400 L225 329 L225 286 L20 286 L20 200 L225 200 L225 0 L329 0 L329 200 L535 200 L535 286 L329 286 L329 329 L368 400 Z " />
<glyph glyph-name="brokenbar" unicode="&#xa6;" horiz-adv-x="555" d="M221 740 L221 404 L334 404 L334 740 L221 740 Z M221 236 L221 -100 L334 -100 L334 236 L221 236 Z " />
<glyph glyph-name="section" unicode="&#xa7;" horiz-adv-x="573" d="M490 565 C473 717 363 754 287 754 C150 754 95 650 95 580 C95 529 119 496 134 475 C41 421 41 338 41 320 C41 218 111 182 156 158 L309 79 C394 35 399 5 399 -23 C399 -75 364 -123 290 -123 C214 -123 176 -74 171 -6 L67 -6 C74 -147 174 -222 287 -222 C404 -222 503 -144 503 -20 C503 18 493 66 444 109 C474 129 534 172 534 263 C534 357 454 398 405 423 L269 494 C238 509 199 530 199 573 C199 600 214 655 291 655 C337 655 374 631 386 565 L490 565 Z M363 332 C405 310 430 292 430 250 C430 206 405 183 375 158 L196 250 C182 257 145 282 145 329 C145 362 164 396 196 417 L363 332 Z " />
<glyph glyph-name="dieresis" unicode="&#xa8;" horiz-adv-x="555" d="M303 758 L303 636 L407 636 L407 758 L303 758 Z M148 758 L148 636 L252 636 L252 758 L148 758 Z " />
<glyph glyph-name="copyright" unicode="&#xa9;" horiz-adv-x="800" d="M598 447 C589 527 513 599 406 599 C275 599 191 501 191 371 C191 241 275 143 406 143 C513 143 589 215 598 295 L523 295 C504 231 453 214 406 214 C329 214 266 270 266 371 C266 462 327 528 406 528 C453 528 502 511 523 447 L598 447 Z M401 752 C186 752 18 578 18 370 C18 161 187 -12 401 -12 C609 -12 782 158 782 370 C782 579 613 752 401 752 L401 752 Z M400 676 C571 676 702 536 702 370 C702 200 567 64 400 64 C231 64 98 202 98 370 C98 536 228 676 400 676 L400 676 Z " />
<glyph glyph-name="ordfeminine" unicode="&#xaa;" horiz-adv-x="385" d="M346 746 L266 746 L266 711 L264 711 C250 733 217 754 177 754 C66 754 13 666 13 591 C13 509 73 430 175 430 C218 430 253 453 264 473 L266 473 L266 438 L346 438 L346 746 Z M267 592 C267 537 227 505 176 505 C128 505 93 547 93 591 C93 631 120 679 177 679 C229 679 267 642 267 592 L267 592 Z " />
<glyph glyph-name="guillemotleft" unicode="&#xab;" horiz-adv-x="370" d="M337 475 L200 339 L200 236 L337 102 L337 214 L262 288 L337 362 L337 475 Z M170 475 L33 339 L33 236 L170 102 L170 214 L95 288 L170 362 L170 475 Z " />
<glyph glyph-name="logicalnot" unicode="&#xac;" horiz-adv-x="600" d="M448 108 L552 108 L552 414 L48 414 L48 310 L448 310 L448 108 Z " />
<glyph glyph-name="registered" unicode="&#xae;" horiz-adv-x="800" d="M237 585 L237 148 L312 148 L312 323 L401 323 C476 317 490 298 493 229 C495 174 498 161 506 148 L581 148 C571 166 571 175 567 249 C565 305 554 341 494 358 L494 360 C553 374 575 418 575 466 C575 585 448 585 421 585 L237 585 Z M312 514 L412 514 C449 514 495 509 500 463 C500 393 433 393 402 393 L312 393 L312 514 Z M401 752 C186 752 18 578 18 370 C18 161 187 -12 401 -12 C609 -12 782 158 782 370 C782 579 613 752 401 752 L401 752 Z M400 676 C571 676 702 536 702 370 C702 200 567 64 400 64 C231 64 98 202 98 370 C98 536 228 676 400 676 L400 676 Z " />
<glyph glyph-name="macron" unicode="&#xaf;" horiz-adv-x="555" d="M455 659 L455 734 L100 734 L100 659 L455 659 Z " />
<glyph glyph-name="degree" unicode="&#xb0;" horiz-adv-x="400" d="M200 485 C155 485 119 525 119 570 C119 614 155 653 200 653 C245 653 281 614 281 570 C281 525 245 485 200 485 L200 485 Z M200 426 C280 426 343 489 343 569 C343 649 280 712 200 712 C120 712 57 649 57 569 C57 489 120 426 200 426 L200 426 Z " />
<glyph glyph-name="plusminus" unicode="&#xb1;" horiz-adv-x="600" d="M248 384 L48 384 L48 280 L248 280 L248 118 L352 118 L352 280 L552 280 L552 384 L352 384 L352 546 L248 546 L248 384 Z M48 -52 L552 -52 L552 52 L48 52 L48 -52 Z " />
<glyph glyph-name="twosuperior" unicode="&#xb2;" horiz-adv-x="351" d="M318 296 L318 372 L148 372 L258 483 C285 512 317 546 317 604 C317 681 256 750 170 750 C84 750 25 678 25 604 L25 584 L105 584 L105 602 C105 641 131 674 173 674 C214 674 237 638 237 604 C237 571 217 549 198 530 L28 358 L28 296 L318 296 Z " />
<glyph glyph-name="threesuperior" unicode="&#xb3;" horiz-adv-x="351" d="M16 432 C16 338 94 286 164 286 C240 286 316 342 316 430 C316 479 299 513 256 538 C273 554 296 575 296 621 C296 706 226 750 168 750 C148 750 116 743 89 723 C63 704 41 672 41 624 L121 624 C123 664 149 674 168 674 C201 674 216 652 216 627 C216 624 216 575 163 575 L138 575 L138 499 L164 499 C203 499 236 473 236 430 C236 396 213 362 168 362 C153 362 101 366 96 432 L16 432 Z " />
<glyph glyph-name="acute" unicode="&#xb4;" horiz-adv-x="555" d="M206 611 L431 733 L387 814 L164 686 L206 611 Z " />
<glyph glyph-name="mu" unicode="&#xb5;" horiz-adv-x="624" d="M74 -185 L178 -185 L178 38 L180 38 C206 8 253 -14 306 -14 C403 -14 433 42 444 60 L446 60 L446 0 L550 0 L550 554 L446 554 L446 295 C446 158 401 81 306 81 C256 81 218 109 201 142 C186 170 178 225 178 284 L178 554 L74 554 L74 -185 Z " />
<glyph glyph-name="paragraph" unicode="&#xb6;" horiz-adv-x="638" d="M221 -191 L325 -191 L325 620 L431 620 L431 -191 L535 -191 L535 700 L242 700 C103 700 2 658 2 518 C2 412 82 343 221 343 L221 -191 Z " />
<glyph glyph-name="periodcentered" unicode="&#xb7;" horiz-adv-x="277" d="M184 200 L184 308 L93 308 L93 200 L184 200 Z " />
<glyph glyph-name="cedilla" unicode="&#xb8;" horiz-adv-x="555" d="M292 0 L240 0 L208 -97 L242 -129 C249 -123 258 -115 276 -115 C297 -115 318 -128 318 -154 C318 -180 299 -195 276 -195 C246 -195 239 -175 235 -164 L182 -164 C188 -222 236 -246 275 -246 C339 -246 373 -198 373 -151 C373 -100 334 -67 291 -67 C285 -67 277 -68 271 -68 L292 0 Z " />
<glyph glyph-name="onesuperior" unicode="&#xb9;" horiz-adv-x="351" d="M239 740 L97 740 L97 664 L159 664 L159 296 L239 296 L239 740 Z " />
<glyph glyph-name="ordmasculine" unicode="&#xba;" horiz-adv-x="385" d="M358 593 C358 681 285 754 192 754 C96 754 26 678 26 594 C26 516 89 430 192 430 C296 430 358 518 358 593 L358 593 Z M278 593 C278 547 242 505 192 505 C141 505 106 548 106 592 C106 637 140 679 192 679 C244 679 278 637 278 593 L278 593 Z " />
<glyph glyph-name="guillemotright" unicode="&#xbb;" horiz-adv-x="370" d="M33 362 L108 288 L33 214 L33 102 L170 236 L170 339 L33 475 L33 362 Z M200 362 L275 288 L200 214 L200 102 L337 236 L337 339 L200 475 L200 362 Z " />
<glyph glyph-name="onequarter" unicode="&#xbc;" horiz-adv-x="700" d="M200 0 L533 740 L460 740 L127 0 L200 0 Z M636 444 L568 444 L360 138 L360 69 L566 69 L566 0 L636 0 L636 69 L684 69 L684 137 L636 137 L636 444 Z M443 137 L564 327 L566 327 L566 137 L443 137 Z M158 740 L16 740 L16 664 L78 664 L78 296 L158 296 L158 740 Z " />
<glyph glyph-name="onehalf" unicode="&#xbd;" horiz-adv-x="714" d="M158 740 L16 740 L16 664 L78 664 L78 296 L158 296 L158 740 Z M174 0 L510 740 L437 740 L101 0 L174 0 Z M698 0 L698 76 L528 76 L638 187 C665 216 697 250 697 308 C697 385 636 454 550 454 C464 454 405 382 405 308 L405 288 L485 288 L485 306 C485 345 511 378 553 378 C594 378 617 342 617 308 C617 275 597 253 578 234 L408 62 L408 0 L698 0 Z " />
<glyph glyph-name="threequarters" unicode="&#xbe;" horiz-adv-x="781" d="M281 0 L614 740 L541 740 L208 0 L281 0 Z M717 444 L649 444 L441 138 L441 69 L647 69 L647 0 L717 0 L717 69 L765 69 L765 137 L717 137 L717 444 Z M524 137 L645 327 L647 327 L647 137 L524 137 Z M16 432 C16 338 94 286 164 286 C240 286 316 342 316 430 C316 479 299 513 256 538 C273 554 296 575 296 621 C296 706 226 750 168 750 C148 750 116 743 89 723 C63 704 41 672 41 624 L121 624 C123 664 149 674 168 674 C201 674 216 652 216 627 C216 624 216 575 163 575 L138 575 L138 499 L164 499 C203 499 236 473 236 430 C236 396 213 362 168 362 C153 362 101 366 96 432 L16 432 Z " />
<glyph glyph-name="questiondown" unicode="&#xbf;" horiz-adv-x="518" d="M215 365 C208 314 202 265 129 200 C85 160 40 120 40 25 C40 -87 131 -199 261 -199 C346 -199 478 -143 486 26 L382 26 C379 0 376 -19 361 -40 C348 -59 317 -94 262 -94 C198 -94 144 -41 144 29 C144 71 161 88 215 143 C257 185 316 250 319 365 L215 365 Z M215 433 L319 433 L319 555 L215 555 L215 433 Z " />
<glyph glyph-name="Agrave" unicode="&#xc0;" horiz-adv-x="684" d="M672 0 L391 740 L294 740 L13 0 L127 0 L209 218 L475 218 L557 0 L672 0 Z M247 317 L342 600 L344 600 L438 317 L247 317 Z M231 975 L189 900 L412 772 L456 852 L231 975 Z " />
<glyph glyph-name="Aacute" unicode="&#xc1;" horiz-adv-x="684" d="M672 0 L391 740 L294 740 L13 0 L127 0 L209 218 L475 218 L557 0 L672 0 Z M247 317 L342 600 L344 600 L438 317 L247 317 Z M271 772 L496 894 L452 975 L229 847 L271 772 Z " />
<glyph glyph-name="Acircumflex" unicode="&#xc2;" horiz-adv-x="684" d="M672 0 L391 740 L294 740 L13 0 L127 0 L209 218 L475 218 L557 0 L672 0 Z M247 317 L342 600 L344 600 L438 317 L247 317 Z M532 793 L392 928 L292 928 L153 793 L272 793 L344 862 L413 793 L532 793 Z " />
<glyph glyph-name="Atilde" unicode="&#xc3;" horiz-adv-x="684" d="M672 0 L391 740 L294 740 L13 0 L127 0 L209 218 L475 218 L557 0 L672 0 Z M247 317 L342 600 L344 600 L438 317 L247 317 Z M206 806 C230 818 249 828 276 828 C296 828 394 802 417 802 C434 802 474 805 526 848 L483 911 C436 888 425 883 403 883 C383 883 284 910 262 910 C244 910 218 909 159 871 L206 806 Z " />
<glyph glyph-name="Adieresis" unicode="&#xc4;" horiz-adv-x="684" d="M672 0 L391 740 L294 740 L13 0 L127 0 L209 218 L475 218 L557 0 L672 0 Z M247 317 L342 600 L344 600 L438 317 L247 317 Z M368 919 L368 797 L472 797 L472 919 L368 919 Z M213 919 L213 797 L317 797 L317 919 L213 919 Z " />
<glyph glyph-name="Aring" unicode="&#xc5;" horiz-adv-x="684" d="M672 0 L391 740 L294 740 L13 0 L127 0 L209 218 L475 218 L557 0 L672 0 Z M247 317 L342 600 L344 600 L438 317 L247 317 Z M453 871 C453 932 403 982 342 982 C282 982 232 932 232 871 C232 811 282 761 342 761 C403 761 453 811 453 871 L453 871 Z M394 871 C394 843 371 820 342 820 C314 820 291 843 291 871 C291 900 314 923 342 923 C371 923 394 900 394 871 L394 871 Z " />
<glyph glyph-name="AE" unicode="&#xc6;" horiz-adv-x="930" d="M497 740 L0 0 L127 0 L262 205 L506 205 L506 0 L866 0 L866 99 L614 99 L614 324 L866 324 L866 423 L614 423 L614 641 L866 641 L866 740 L497 740 Z M333 304 L503 580 L505 580 L506 580 L506 304 L333 304 Z " />
<glyph glyph-name="Ccedilla" unicode="&#xc7;" horiz-adv-x="782" d="M309 -164 C315 -222 363 -246 402 -246 C466 -246 500 -198 500 -151 C500 -100 461 -67 418 -67 C412 -67 404 -68 398 -68 L415 -14 L418 -14 C533 -14 672 38 754 183 L621 183 C570 123 497 85 419 85 C274 85 146 213 146 372 C146 528 267 655 421 655 C541 655 607 576 629 551 L759 551 C740 584 712 634 645 682 C565 740 475 754 419 754 C212 754 38 589 38 373 C38 181 180 17 364 -9 L335 -97 L369 -129 C376 -123 385 -115 403 -115 C424 -115 445 -128 445 -154 C445 -180 426 -195 403 -195 C373 -195 366 -175 362 -164 L309 -164 Z " />
<glyph glyph-name="Egrave" unicode="&#xc8;" horiz-adv-x="520" d="M464 0 L464 99 L173 99 L173 324 L464 324 L464 423 L173 423 L173 641 L464 641 L464 740 L65 740 L65 0 L464 0 Z M149 980 L107 905 L330 777 L374 857 L149 980 Z " />
<glyph glyph-name="Eacute" unicode="&#xc9;" horiz-adv-x="520" d="M464 0 L464 99 L173 99 L173 324 L464 324 L464 423 L173 423 L173 641 L464 641 L464 740 L65 740 L65 0 L464 0 Z M189 777 L414 899 L370 980 L147 852 L189 777 Z " />
<glyph glyph-name="Ecircumflex" unicode="&#xca;" horiz-adv-x="520" d="M464 0 L464 99 L173 99 L173 324 L464 324 L464 423 L173 423 L173 641 L464 641 L464 740 L65 740 L65 0 L464 0 Z M450 798 L310 933 L210 933 L71 798 L190 798 L262 867 L331 798 L450 798 Z " />
<glyph glyph-name="Edieresis" unicode="&#xcb;" horiz-adv-x="520" d="M464 0 L464 99 L173 99 L173 324 L464 324 L464 423 L173 423 L173 641 L464 641 L464 740 L65 740 L65 0 L464 0 Z M286 924 L286 802 L390 802 L390 924 L286 924 Z M131 924 L131 802 L235 802 L235 924 L131 924 Z " />
<glyph glyph-name="Igrave" unicode="&#xcc;" horiz-adv-x="257" d="M183 0 L183 740 L75 740 L75 0 L183 0 Z M-23 980 L-65 905 L158 777 L202 857 L-23 980 Z " />
<glyph glyph-name="Iacute" unicode="&#xcd;" horiz-adv-x="257" d="M183 0 L183 740 L75 740 L75 0 L183 0 Z M97 777 L322 899 L278 980 L55 852 L97 777 Z " />
<glyph glyph-name="Icircumflex" unicode="&#xce;" horiz-adv-x="257" d="M183 0 L183 740 L75 740 L75 0 L183 0 Z M318 798 L178 933 L78 933 L-61 798 L58 798 L130 867 L199 798 L318 798 Z " />
<glyph glyph-name="Idieresis" unicode="&#xcf;" horiz-adv-x="257" d="M183 0 L183 740 L75 740 L75 0 L183 0 Z M154 924 L154 802 L258 802 L258 924 L154 924 Z M-1 924 L-1 802 L103 802 L103 924 L-1 924 Z " />
<glyph glyph-name="Eth" unicode="&#xd0;" horiz-adv-x="732" d="M65 322 L65 0 L303 0 C403 0 505 23 590 107 C645 161 683 268 683 368 C683 440 660 530 607 604 C551 681 457 740 307 740 L65 740 L65 421 L2 421 L2 322 L65 322 Z M366 421 L173 421 L173 641 L306 641 C504 641 575 480 575 368 C575 164 430 99 304 99 L173 99 L173 322 L366 322 L366 421 Z " />
<glyph glyph-name="Ntilde" unicode="&#xd1;" horiz-adv-x="738" d="M663 0 L663 740 L555 740 L555 177 L553 177 L193 740 L75 740 L75 0 L183 0 L183 572 L185 572 L551 0 L663 0 Z M233 806 C257 818 276 828 303 828 C323 828 421 802 444 802 C461 802 501 805 553 848 L510 911 C463 888 452 883 430 883 C410 883 311 910 289 910 C271 910 245 909 186 871 L233 806 Z " />
<glyph glyph-name="Ograve" unicode="&#xd2;" horiz-adv-x="846" d="M808 368 C808 579 643 754 423 754 C197 754 38 571 38 370 C38 167 202 -14 423 -14 C643 -14 808 166 808 368 L808 368 Z M700 367 C700 251 614 85 423 85 C233 85 146 249 146 370 C146 488 232 655 423 655 C607 655 700 498 700 367 L700 367 Z M312 980 L270 905 L493 777 L537 857 L312 980 Z " />
<glyph glyph-name="Oacute" unicode="&#xd3;" horiz-adv-x="846" d="M808 368 C808 579 643 754 423 754 C197 754 38 571 38 370 C38 167 202 -14 423 -14 C643 -14 808 166 808 368 L808 368 Z M700 367 C700 251 614 85 423 85 C233 85 146 249 146 370 C146 488 232 655 423 655 C607 655 700 498 700 367 L700 367 Z M352 777 L577 899 L533 980 L310 852 L352 777 Z " />
<glyph glyph-name="Ocircumflex" unicode="&#xd4;" horiz-adv-x="846" d="M808 368 C808 579 643 754 423 754 C197 754 38 571 38 370 C38 167 202 -14 423 -14 C643 -14 808 166 808 368 L808 368 Z M700 367 C700 251 614 85 423 85 C233 85 146 249 146 370 C146 488 232 655 423 655 C607 655 700 498 700 367 L700 367 Z M613 798 L473 933 L373 933 L234 798 L353 798 L425 867 L494 798 L613 798 Z " />
<glyph glyph-name="Otilde" unicode="&#xd5;" horiz-adv-x="846" d="M808 368 C808 579 643 754 423 754 C197 754 38 571 38 370 C38 167 202 -14 423 -14 C643 -14 808 166 808 368 L808 368 Z M700 367 C700 251 614 85 423 85 C233 85 146 249 146 370 C146 488 232 655 423 655 C607 655 700 498 700 367 L700 367 Z M287 806 C311 818 330 828 357 828 C377 828 475 802 498 802 C515 802 555 805 607 848 L564 911 C517 888 506 883 484 883 C464 883 365 910 343 910 C325 910 299 909 240 871 L287 806 Z " />
<glyph glyph-name="Odieresis" unicode="&#xd6;" horiz-adv-x="846" d="M808 368 C808 579 643 754 423 754 C197 754 38 571 38 370 C38 167 202 -14 423 -14 C643 -14 808 166 808 368 L808 368 Z M700 367 C700 251 614 85 423 85 C233 85 146 249 146 370 C146 488 232 655 423 655 C607 655 700 498 700 367 L700 367 Z M449 924 L449 802 L553 802 L553 924 L449 924 Z M294 924 L294 802 L398 802 L398 924 L294 924 Z " />
<glyph glyph-name="multiply" unicode="&#xd7;" horiz-adv-x="600" d="M228 253 L61 86 L133 14 L300 182 L467 14 L539 86 L371 253 L539 420 L467 492 L300 325 L133 492 L61 420 L228 253 Z " />
<glyph glyph-name="Oslash" unicode="&#xd8;" horiz-adv-x="846" d="M240 31 C303 -4 371 -14 423 -14 C642 -14 808 165 808 370 C808 529 714 626 691 647 L762 744 L679 802 L610 707 C571 729 506 754 422 754 C198 754 38 573 38 370 C38 286 65 181 161 89 L90 -9 L170 -65 L240 31 Z M629 562 C691 487 700 413 700 370 C700 246 611 85 423 85 C352 85 307 108 301 111 L629 562 Z M222 173 C167 236 146 310 146 370 C146 485 229 655 424 655 C466 655 512 646 551 625 L222 173 Z " />
<glyph glyph-name="Ugrave" unicode="&#xd9;" horiz-adv-x="643" d="M569 740 L461 740 L461 242 C461 105 361 85 321 85 C281 85 181 105 181 242 L181 740 L73 740 L73 239 C73 155 101 94 148 49 C194 11 253 -14 321 -14 C389 -14 448 11 494 49 C541 94 569 155 569 239 L569 740 Z M185 980 L143 905 L366 777 L410 857 L185 980 Z " />
<glyph glyph-name="Uacute" unicode="&#xda;" horiz-adv-x="643" d="M569 740 L461 740 L461 242 C461 105 361 85 321 85 C281 85 181 105 181 242 L181 740 L73 740 L73 239 C73 155 101 94 148 49 C194 11 253 -14 321 -14 C389 -14 448 11 494 49 C541 94 569 155 569 239 L569 740 Z M275 777 L500 899 L456 980 L233 852 L275 777 Z " />
<glyph glyph-name="Ucircumflex" unicode="&#xdb;" horiz-adv-x="643" d="M569 740 L461 740 L461 242 C461 105 361 85 321 85 C281 85 181 105 181 242 L181 740 L73 740 L73 239 C73 155 101 94 148 49 C194 11 253 -14 321 -14 C389 -14 448 11 494 49 C541 94 569 155 569 239 L569 740 Z M511 798 L371 933 L271 933 L132 798 L251 798 L323 867 L392 798 L511 798 Z " />
<glyph glyph-name="Udieresis" unicode="&#xdc;" horiz-adv-x="643" d="M569 740 L461 740 L461 242 C461 105 361 85 321 85 C281 85 181 105 181 242 L181 740 L73 740 L73 239 C73 155 101 94 148 49 C194 11 253 -14 321 -14 C389 -14 448 11 494 49 C541 94 569 155 569 239 L569 740 Z M347 924 L347 802 L451 802 L451 924 L347 924 Z M192 924 L192 802 L296 802 L296 924 L192 924 Z " />
<glyph glyph-name="Yacute" unicode="&#xdd;" horiz-adv-x="593" d="M351 0 L351 267 L579 740 L459 740 L297 393 L134 740 L13 740 L243 267 L243 0 L351 0 Z M250 777 L475 899 L431 980 L208 852 L250 777 Z " />
<glyph glyph-name="Thorn" unicode="&#xde;" horiz-adv-x="559" d="M173 146 L279 146 C456 146 540 238 540 370 C540 502 456 594 279 594 L173 594 L173 740 L65 740 L65 0 L173 0 L173 146 Z M173 495 L279 495 C402 495 432 425 432 370 C432 315 402 245 279 245 L173 245 L173 495 Z " />
<glyph glyph-name="germandbls" unicode="&#xdf;" horiz-adv-x="640" d="M66 0 L169 0 L169 124 L171 124 C181 90 189 64 246 23 C289 -8 339 -14 372 -14 C505 -14 602 88 602 219 C602 293 558 388 446 415 C470 434 504 469 504 535 C504 653 405 754 283 754 C202 754 66 700 66 516 L66 0 Z M170 516 C170 540 170 659 285 659 C360 659 400 596 400 541 C400 526 400 428 273 425 L273 333 L345 333 C498 333 498 221 498 209 C498 148 454 81 376 81 C353 81 326 88 303 106 C280 123 261 151 254 194 L170 194 L170 516 Z " />
<glyph glyph-name="agrave" unicode="&#xe0;" horiz-adv-x="693" d="M626 0 L626 554 L522 554 L522 476 L520 476 C480 537 409 569 332 569 C133 569 38 410 38 275 C38 129 145 -14 332 -14 C407 -14 480 18 520 86 L522 86 L522 0 L626 0 Z M524 276 C524 170 440 81 331 81 C221 81 142 176 142 276 C142 363 204 474 332 474 C439 474 524 394 524 276 L524 276 Z M235 814 L193 739 L416 611 L460 691 L235 814 Z " />
<glyph glyph-name="aacute" unicode="&#xe1;" horiz-adv-x="693" d="M626 0 L626 554 L522 554 L522 476 L520 476 C480 537 409 569 332 569 C133 569 38 410 38 275 C38 129 145 -14 332 -14 C407 -14 480 18 520 86 L522 86 L522 0 L626 0 Z M524 276 C524 170 440 81 331 81 C221 81 142 176 142 276 C142 363 204 474 332 474 C439 474 524 394 524 276 L524 276 Z M275 611 L500 733 L456 814 L233 686 L275 611 Z " />
<glyph glyph-name="acircumflex" unicode="&#xe2;" horiz-adv-x="693" d="M626 0 L626 554 L522 554 L522 476 L520 476 C480 537 409 569 332 569 C133 569 38 410 38 275 C38 129 145 -14 332 -14 C407 -14 480 18 520 86 L522 86 L522 0 L626 0 Z M524 276 C524 170 440 81 331 81 C221 81 142 176 142 276 C142 363 204 474 332 474 C439 474 524 394 524 276 L524 276 Z M536 632 L396 767 L296 767 L157 632 L276 632 L348 701 L417 632 L536 632 Z " />
<glyph glyph-name="atilde" unicode="&#xe3;" horiz-adv-x="693" d="M626 0 L626 554 L522 554 L522 476 L520 476 C480 537 409 569 332 569 C133 569 38 410 38 275 C38 129 145 -14 332 -14 C407 -14 480 18 520 86 L522 86 L522 0 L626 0 Z M524 276 C524 170 440 81 331 81 C221 81 142 176 142 276 C142 363 204 474 332 474 C439 474 524 394 524 276 L524 276 Z M210 640 C234 652 253 662 280 662 C300 662 398 636 421 636 C438 636 478 639 530 682 L487 745 C440 722 429 717 407 717 C387 717 288 744 266 744 C248 744 222 743 163 705 L210 640 Z " />
<glyph glyph-name="adieresis" unicode="&#xe4;" horiz-adv-x="693" d="M626 0 L626 554 L522 554 L522 476 L520 476 C480 537 409 569 332 569 C133 569 38 410 38 275 C38 129 145 -14 332 -14 C407 -14 480 18 520 86 L522 86 L522 0 L626 0 Z M524 276 C524 170 440 81 331 81 C221 81 142 176 142 276 C142 363 204 474 332 474 C439 474 524 394 524 276 L524 276 Z M372 758 L372 636 L476 636 L476 758 L372 758 Z M217 758 L217 636 L321 636 L321 758 L217 758 Z " />
<glyph glyph-name="aring" unicode="&#xe5;" horiz-adv-x="693" d="M626 0 L626 554 L522 554 L522 476 L520 476 C480 537 409 569 332 569 C133 569 38 410 38 275 C38 129 145 -14 332 -14 C407 -14 480 18 520 86 L522 86 L522 0 L626 0 Z M524 276 C524 170 440 81 331 81 C221 81 142 176 142 276 C142 363 204 474 332 474 C439 474 524 394 524 276 L524 276 Z M457 720 C457 781 407 831 346 831 C286 831 236 781 236 720 C236 660 286 610 346 610 C407 610 457 660 457 720 L457 720 Z M398 720 C398 692 375 669 346 669 C318 669 295 692 295 720 C295 749 318 772 346 772 C375 772 398 749 398 720 L398 720 Z " />
<glyph glyph-name="ae" unicode="&#xe6;" horiz-adv-x="1131" d="M1090 233 C1091 247 1093 265 1093 280 C1093 430 974 569 814 569 C776 569 680 560 626 489 L624 489 L624 554 L529 554 L529 489 L527 489 C452 567 356 569 331 569 C164 569 38 442 38 282 C38 131 151 -14 335 -14 C444 -13 497 36 529 65 L529 0 L624 0 L624 65 L626 65 C658 31 716 -13 811 -14 C882 -14 1021 24 1076 176 L969 176 C932 105 860 81 809 81 C712 81 642 155 628 233 L1090 233 Z M524 279 C524 174 447 81 330 81 C210 81 142 179 142 281 C142 378 209 474 330 474 C453 474 524 378 524 279 L524 279 Z M628 305 C639 431 740 474 810 474 C880 474 980 431 989 305 L628 305 Z " />
<glyph glyph-name="ccedilla" unicode="&#xe7;" horiz-adv-x="627" d="M222 -164 C228 -222 276 -246 315 -246 C379 -246 413 -198 413 -151 C413 -100 374 -67 331 -67 C325 -67 317 -68 311 -68 L328 -13 C449 -11 554 62 595 183 L479 183 C453 126 400 81 322 81 C203 81 142 182 142 278 C142 362 190 474 324 474 C423 474 463 405 480 370 L595 370 C574 452 480 569 323 569 C148 569 38 428 38 278 C38 148 123 12 277 -10 L248 -97 L282 -129 C289 -123 298 -115 316 -115 C337 -115 358 -128 358 -154 C358 -180 339 -195 316 -195 C286 -195 279 -175 275 -164 L222 -164 Z " />
<glyph glyph-name="egrave" unicode="&#xe8;" horiz-adv-x="642" d="M602 232 C603 239 605 267 605 285 C604 447 473 569 323 569 C167 569 39 444 39 278 C39 121 164 -14 321 -14 C407 -14 534 31 587 174 L483 174 C458 126 402 81 325 81 C255 81 169 125 143 232 L602 232 Z M143 312 C148 393 222 474 322 474 C422 474 496 393 501 312 L143 312 Z M210 814 L168 739 L391 611 L435 691 L210 814 Z " />
<glyph glyph-name="eacute" unicode="&#xe9;" horiz-adv-x="642" d="M602 232 C603 239 605 267 605 285 C604 447 473 569 323 569 C167 569 39 444 39 278 C39 121 164 -14 321 -14 C407 -14 534 31 587 174 L483 174 C458 126 402 81 325 81 C255 81 169 125 143 232 L602 232 Z M143 312 C148 393 222 474 322 474 C422 474 496 393 501 312 L143 312 Z M250 611 L475 733 L431 814 L208 686 L250 611 Z " />
<glyph glyph-name="ecircumflex" unicode="&#xea;" horiz-adv-x="642" d="M602 232 C603 239 605 267 605 285 C604 447 473 569 323 569 C167 569 39 444 39 278 C39 121 164 -14 321 -14 C407 -14 534 31 587 174 L483 174 C458 126 402 81 325 81 C255 81 169 125 143 232 L602 232 Z M143 312 C148 393 222 474 322 474 C422 474 496 393 501 312 L143 312 Z M511 632 L371 767 L271 767 L132 632 L251 632 L323 701 L392 632 L511 632 Z " />
<glyph glyph-name="edieresis" unicode="&#xeb;" horiz-adv-x="642" d="M602 232 C603 239 605 267 605 285 C604 447 473 569 323 569 C167 569 39 444 39 278 C39 121 164 -14 321 -14 C407 -14 534 31 587 174 L483 174 C458 126 402 81 325 81 C255 81 169 125 143 232 L602 232 Z M143 312 C148 393 222 474 322 474 C422 474 496 393 501 312 L143 312 Z M347 758 L347 636 L451 636 L451 758 L347 758 Z M192 758 L192 636 L296 636 L296 758 L192 758 Z " />
<glyph glyph-name="igrave" unicode="&#xec;" horiz-adv-x="238" d="M171 554 L67 554 L67 0 L171 0 L171 554 Z M-32 814 L-74 739 L149 611 L193 691 L-32 814 Z " />
<glyph glyph-name="iacute" unicode="&#xed;" horiz-adv-x="238" d="M171 554 L67 554 L67 0 L171 0 L171 554 Z M88 611 L313 733 L269 814 L46 686 L88 611 Z " />
<glyph glyph-name="icircumflex" unicode="&#xee;" horiz-adv-x="238" d="M171 554 L67 554 L67 0 L171 0 L171 554 Z M309 632 L169 767 L69 767 L-70 632 L49 632 L121 701 L190 632 L309 632 Z " />
<glyph glyph-name="idieresis" unicode="&#xef;" horiz-adv-x="238" d="M171 554 L67 554 L67 0 L171 0 L171 554 Z M145 758 L145 636 L249 636 L249 758 L145 758 Z M-10 758 L-10 636 L94 636 L94 758 L-10 758 Z " />
<glyph glyph-name="eth" unicode="&#xf0;" horiz-adv-x="675" d="M336 474 C467 474 532 372 532 281 C532 182 459 81 338 81 C217 81 142 184 142 278 C142 370 216 474 336 474 L336 474 Z M542 702 L478 754 L354 713 C318 731 284 745 247 754 L127 715 C160 703 200 689 236 674 L90 625 L156 574 L323 630 C369 604 408 574 434 543 L432 541 C402 559 370 569 331 569 C176 569 38 441 38 280 C38 149 141 -14 337 -14 C505 -14 636 114 636 295 C636 427 571 570 434 666 L542 702 Z " />
<glyph glyph-name="ntilde" unicode="&#xf1;" horiz-adv-x="624" d="M558 0 L558 328 C557 390 545 434 523 470 C483 532 413 569 327 569 C305 569 221 569 165 495 L163 495 L163 554 L66 554 L66 0 L170 0 L170 302 C170 413 229 474 316 474 C454 474 454 344 454 301 L454 0 L558 0 Z M176 640 C200 652 219 662 246 662 C266 662 364 636 387 636 C404 636 444 639 496 682 L453 745 C406 722 395 717 373 717 C353 717 254 744 232 744 C214 744 188 743 129 705 L176 640 Z " />
<glyph glyph-name="ograve" unicode="&#xf2;" horiz-adv-x="675" d="M636 279 C636 437 505 569 337 569 C165 569 38 432 38 281 C38 141 151 -14 337 -14 C525 -14 636 144 636 279 L636 279 Z M532 279 C532 174 449 81 337 81 C221 81 142 178 142 278 C142 377 220 474 337 474 C454 474 532 377 532 279 L532 279 Z M226 814 L184 739 L407 611 L451 691 L226 814 Z " />
<glyph glyph-name="oacute" unicode="&#xf3;" horiz-adv-x="675" d="M636 279 C636 437 505 569 337 569 C165 569 38 432 38 281 C38 141 151 -14 337 -14 C525 -14 636 144 636 279 L636 279 Z M532 279 C532 174 449 81 337 81 C221 81 142 178 142 278 C142 377 220 474 337 474 C454 474 532 377 532 279 L532 279 Z M266 611 L491 733 L447 814 L224 686 L266 611 Z " />
<glyph glyph-name="ocircumflex" unicode="&#xf4;" horiz-adv-x="675" d="M636 279 C636 437 505 569 337 569 C165 569 38 432 38 281 C38 141 151 -14 337 -14 C525 -14 636 144 636 279 L636 279 Z M532 279 C532 174 449 81 337 81 C221 81 142 178 142 278 C142 377 220 474 337 474 C454 474 532 377 532 279 L532 279 Z M527 632 L387 767 L287 767 L148 632 L267 632 L339 701 L408 632 L527 632 Z " />
<glyph glyph-name="otilde" unicode="&#xf5;" horiz-adv-x="675" d="M636 279 C636 437 505 569 337 569 C165 569 38 432 38 281 C38 141 151 -14 337 -14 C525 -14 636 144 636 279 L636 279 Z M532 279 C532 174 449 81 337 81 C221 81 142 178 142 278 C142 377 220 474 337 474 C454 474 532 377 532 279 L532 279 Z M201 640 C225 652 244 662 271 662 C291 662 389 636 412 636 C429 636 469 639 521 682 L478 745 C431 722 420 717 398 717 C378 717 279 744 257 744 C239 744 213 743 154 705 L201 640 Z " />
<glyph glyph-name="odieresis" unicode="&#xf6;" horiz-adv-x="675" d="M636 279 C636 437 505 569 337 569 C165 569 38 432 38 281 C38 141 151 -14 337 -14 C525 -14 636 144 636 279 L636 279 Z M532 279 C532 174 449 81 337 81 C221 81 142 178 142 278 C142 377 220 474 337 474 C454 474 532 377 532 279 L532 279 Z M363 758 L363 636 L467 636 L467 758 L363 758 Z M208 758 L208 636 L312 636 L312 758 L208 758 Z " />
<glyph glyph-name="divide" unicode="&#xf7;" horiz-adv-x="600" d="M552 201 L552 305 L48 305 L48 201 L552 201 Z M352 398 L352 506 L248 506 L248 398 L352 398 Z M352 0 L352 108 L248 108 L248 0 L352 0 Z " />
<glyph glyph-name="oslash" unicode="&#xf8;" horiz-adv-x="675" d="M218 10 C234 3 275 -14 337 -14 C522 -14 636 140 636 280 C636 353 605 436 537 494 L587 570 L507 623 L456 545 C436 554 399 569 337 569 C165 569 38 432 38 281 C38 212 66 127 138 61 L87 -16 L166 -69 L218 10 Z M482 410 C518 370 532 319 532 278 C532 177 452 81 337 81 C304 81 284 88 272 92 L482 410 Z M193 145 C161 182 142 229 142 278 C142 378 221 474 337 474 C370 474 390 467 402 463 L193 145 Z " />
<glyph glyph-name="ugrave" unicode="&#xf9;" horiz-adv-x="624" d="M66 554 L66 254 C66 143 93 81 139 41 C179 6 234 -14 297 -14 C367 -14 432 12 460 60 L462 60 L462 0 L557 0 L557 554 L453 554 L453 257 C453 136 394 81 308 81 C231 81 170 117 170 254 L170 554 L66 554 Z M176 814 L134 739 L357 611 L401 691 L176 814 Z " />
<glyph glyph-name="uacute" unicode="&#xfa;" horiz-adv-x="624" d="M66 554 L66 254 C66 143 93 81 139 41 C179 6 234 -14 297 -14 C367 -14 432 12 460 60 L462 60 L462 0 L557 0 L557 554 L453 554 L453 257 C453 136 394 81 308 81 C231 81 170 117 170 254 L170 554 L66 554 Z M266 611 L491 733 L447 814 L224 686 L266 611 Z " />
<glyph glyph-name="ucircumflex" unicode="&#xfb;" horiz-adv-x="624" d="M66 554 L66 254 C66 143 93 81 139 41 C179 6 234 -14 297 -14 C367 -14 432 12 460 60 L462 60 L462 0 L557 0 L557 554 L453 554 L453 257 C453 136 394 81 308 81 C231 81 170 117 170 254 L170 554 L66 554 Z M502 632 L362 767 L262 767 L123 632 L242 632 L314 701 L383 632 L502 632 Z " />
<glyph glyph-name="udieresis" unicode="&#xfc;" horiz-adv-x="624" d="M66 554 L66 254 C66 143 93 81 139 41 C179 6 234 -14 297 -14 C367 -14 432 12 460 60 L462 60 L462 0 L557 0 L557 554 L453 554 L453 257 C453 136 394 81 308 81 C231 81 170 117 170 254 L170 554 L66 554 Z M338 758 L338 636 L442 636 L442 758 L338 758 Z M183 758 L183 636 L287 636 L287 758 L183 758 Z " />
<glyph glyph-name="yacute" unicode="&#xfd;" horiz-adv-x="574" d="M564 554 L452 554 L285 124 L122 554 L10 554 L231 11 L150 -185 L258 -185 L564 554 Z M241 611 L466 733 L422 814 L199 686 L241 611 Z " />
<glyph glyph-name="thorn" unicode="&#xfe;" horiz-adv-x="686" d="M67 -185 L171 -185 L171 80 L173 80 C195 42 254 -14 368 -14 C543 -14 648 130 648 270 C648 418 549 569 361 569 C290 569 214 541 173 477 L171 477 L171 740 L67 740 L67 -185 Z M544 276 C544 159 455 81 357 81 C252 81 169 166 169 278 C169 380 245 474 354 474 C467 474 544 375 544 276 L544 276 Z " />
<glyph glyph-name="ydieresis" unicode="&#xff;" horiz-adv-x="574" d="M564 554 L452 554 L285 124 L122 554 L10 554 L231 11 L150 -185 L258 -185 L564 554 Z M313 758 L313 636 L417 636 L417 758 L313 758 Z M158 758 L158 636 L262 636 L262 758 L158 758 Z " />
<glyph glyph-name="dotlessi" unicode="&#x131;" horiz-adv-x="238" d="M171 554 L67 554 L67 0 L171 0 L171 554 Z " />
<glyph glyph-name="Lslash" unicode="&#x141;" horiz-adv-x="444" d="M79 301 L79 0 L444 0 L444 99 L187 99 L187 375 L326 470 L326 581 L187 486 L187 740 L79 740 L79 412 L4 361 L4 250 L79 301 Z " />
<glyph glyph-name="lslash" unicode="&#x142;" horiz-adv-x="284" d="M273 437 L273 536 L194 483 L194 740 L90 740 L90 413 L21 367 L21 268 L90 314 L90 0 L194 0 L194 378 L194 384 L273 437 Z " />
<glyph glyph-name="OE" unicode="&#x152;" horiz-adv-x="1094" d="M694 740 L694 632 L692 632 C633 721 515 754 426 754 C166 754 38 542 38 366 C38 180 174 -14 424 -14 C450 -14 608 -14 692 106 L694 106 L694 0 L1048 0 L1048 99 L802 99 L802 324 L1048 324 L1048 423 L802 423 L802 641 L1048 641 L1048 740 L694 740 Z M421 85 C248 85 146 223 146 365 C146 501 242 655 422 655 C600 655 696 501 696 365 C696 223 594 85 421 85 L421 85 Z " />
<glyph glyph-name="oe" unicode="&#x153;" horiz-adv-x="1144" d="M1105 233 C1107 257 1107 267 1107 278 C1107 451 976 569 819 569 C674 569 608 478 585 439 C564 471 491 569 333 569 C160 569 38 427 38 279 C38 142 151 -14 341 -14 C470 -14 552 65 586 121 C650 13 753 -14 820 -14 C845 -14 1017 -12 1091 176 L986 176 C959 126 904 81 820 81 C721 81 649 162 636 234 L1105 233 Z M531 275 C531 163 439 81 334 81 C225 81 142 175 142 279 C142 385 228 474 334 474 C446 474 531 391 531 275 L531 275 Z M636 305 C653 434 746 474 820 473 C893 474 990 436 1003 305 L636 305 Z " />
<glyph glyph-name="Scaron" unicode="&#x160;" horiz-adv-x="499" d="M18 219 C18 54 144 -14 246 -14 C382 -14 473 81 473 210 C473 388 339 417 246 452 C214 464 147 483 147 554 C147 597 182 655 246 655 C290 655 350 630 350 548 L458 548 C458 673 369 754 246 754 C106 754 39 639 39 553 C39 501 55 447 89 414 C123 381 147 369 246 331 C297 311 365 293 365 210 C365 132 314 85 246 85 C137 85 126 194 126 219 L18 219 Z M60 940 L200 798 L300 798 L439 940 L325 940 L248 864 L174 940 L60 940 Z " />
<glyph glyph-name="scaron" unicode="&#x161;" horiz-adv-x="424" d="M389 407 C386 530 282 569 219 569 C114 569 45 491 45 409 C45 291 141 264 201 242 C255 223 298 206 298 157 C298 110 265 81 218 81 C160 81 128 120 124 182 L20 182 C20 30 146 -14 216 -14 C334 -14 402 65 402 163 C402 295 278 330 235 343 C189 357 149 369 149 415 C149 450 176 474 214 474 C252 474 279 452 285 407 L389 407 Z M23 774 L163 632 L263 632 L402 774 L288 774 L211 698 L137 774 L23 774 Z " />
<glyph glyph-name="Ydieresis" unicode="&#x178;" horiz-adv-x="593" d="M351 0 L351 267 L579 740 L459 740 L297 393 L134 740 L13 740 L243 267 L243 0 L351 0 Z M322 924 L322 802 L426 802 L426 924 L322 924 Z M167 924 L167 802 L271 802 L271 924 L167 924 Z " />
<glyph glyph-name="Zcaron" unicode="&#x17d;" horiz-adv-x="462" d="M459 0 L459 99 L127 99 L446 641 L446 740 L21 740 L21 641 L325 641 L4 99 L4 0 L459 0 Z M62 940 L202 798 L302 798 L441 940 L327 940 L250 864 L176 940 L62 940 Z " />
<glyph glyph-name="zcaron" unicode="&#x17e;" horiz-adv-x="407" d="M29 554 L29 459 L269 459 L3 81 L3 0 L404 0 L404 95 L132 95 L383 453 L383 554 L29 554 Z M34 774 L174 632 L274 632 L413 774 L299 774 L222 698 L148 774 L34 774 Z " />
<glyph glyph-name="florin" unicode="&#x192;" horiz-adv-x="555" d="M384 590 L390 617 C401 667 418 735 504 737 L520 827 C512 828 508 829 502 829 C405 829 317 760 292 623 L286 590 L189 590 L173 495 L269 495 L206 142 C177 -17 156 -64 41 -64 L30 -64 L15 -151 C23 -153 35 -157 65 -157 C248 -157 276 -3 296 104 L367 495 L464 495 L479 590 L384 590 Z " />
<glyph glyph-name="circumflex" unicode="&#x2c6;" horiz-adv-x="555" d="M467 632 L327 767 L227 767 L88 632 L207 632 L279 701 L348 632 L467 632 Z " />
<glyph glyph-name="caron" unicode="&#x2c7;" horiz-adv-x="555" d="M88 774 L228 632 L328 632 L467 774 L353 774 L276 698 L202 774 L88 774 Z " />
<glyph glyph-name="breve" unicode="&#x2d8;" horiz-adv-x="555" d="M88 756 C97 730 129 636 277 636 C426 636 457 727 467 756 L388 756 C353 707 294 707 277 707 C269 707 250 707 229 713 C208 719 185 732 167 756 L88 756 Z " />
<glyph glyph-name="dotaccent" unicode="&#x2d9;" horiz-adv-x="555" d="M329 758 L225 758 L225 636 L329 636 L329 758 Z " />
<glyph glyph-name="ring" unicode="&#x2da;" horiz-adv-x="555" d="M388 720 C388 781 338 831 277 831 C217 831 167 781 167 720 C167 660 217 610 277 610 C338 610 388 660 388 720 L388 720 Z M329 720 C329 692 306 669 277 669 C249 669 226 692 226 720 C226 749 249 772 277 772 C306 772 329 749 329 720 L329 720 Z " />
<glyph glyph-name="ogonek" unicode="&#x2db;" horiz-adv-x="555" d="M269 0 C219 -29 187 -65 187 -109 C187 -131 198 -202 306 -202 C342 -202 353 -197 368 -191 L368 -126 C353 -132 339 -137 323 -137 C287 -137 264 -115 264 -85 C264 -48 306 -19 337 0 L269 0 Z " />
<glyph glyph-name="tilde" unicode="&#x2dc;" horiz-adv-x="555" d="M141 640 C165 652 184 662 211 662 C231 662 329 636 352 636 C369 636 409 639 461 682 L418 745 C371 722 360 717 338 717 C318 717 219 744 197 744 C179 744 153 743 94 705 L141 640 Z " />
<glyph glyph-name="hungarumlaut" unicode="&#x2dd;" horiz-adv-x="555" d="M379 767 L259 632 L359 632 L498 767 L379 767 Z M216 767 L97 632 L196 632 L335 767 L216 767 Z " />
<glyph glyph-name="endash" unicode="&#x2013;" horiz-adv-x="500" d="M465 237 L465 341 L35 341 L35 237 L465 237 Z " />
<glyph glyph-name="emdash" unicode="&#x2014;" horiz-adv-x="1000" d="M965 237 L965 341 L35 341 L35 237 L965 237 Z " />
<glyph glyph-name="quoteleft" unicode="&#x2018;" horiz-adv-x="277" d="M86 490 L190 490 L190 612 L153 612 L153 621 C153 663 175 672 190 677 L190 740 C90 719 86 639 86 601 L86 490 Z " />
<glyph glyph-name="quoteright" unicode="&#x2019;" horiz-adv-x="277" d="M191 740 L87 740 L87 618 L124 618 L124 609 C124 567 102 558 87 553 L87 490 C187 511 191 591 191 629 L191 740 Z " />
<glyph glyph-name="quotesinglbase" unicode="&#x201a;" horiz-adv-x="277" d="M191 122 L87 122 L87 0 L124 0 L124 -9 C124 -51 102 -60 87 -65 L87 -128 C187 -107 191 -27 191 11 L191 122 Z " />
<glyph glyph-name="quotedblleft" unicode="&#x201c;" horiz-adv-x="425" d="M239 490 L343 490 L343 612 L306 612 L306 621 C306 663 328 672 343 677 L343 740 C243 719 239 639 239 601 L239 490 Z M83 490 L187 490 L187 612 L150 612 L150 621 C150 663 172 672 187 677 L187 740 C87 719 83 639 83 601 L83 490 Z " />
<glyph glyph-name="quotedblright" unicode="&#x201d;" horiz-adv-x="425" d="M186 740 L82 740 L82 618 L119 618 L119 609 C119 567 97 558 82 553 L82 490 C182 511 186 591 186 629 L186 740 Z M342 740 L238 740 L238 618 L275 618 L275 609 C275 567 253 558 238 553 L238 490 C338 511 342 591 342 629 L342 740 Z " />
<glyph glyph-name="quotedblbase" unicode="&#x201e;" horiz-adv-x="425" d="M186 122 L82 122 L82 0 L119 0 L119 -9 C119 -51 97 -60 82 -65 L82 -128 C182 -107 186 -27 186 11 L186 122 Z M342 122 L238 122 L238 0 L275 0 L275 -9 C275 -51 253 -60 238 -65 L238 -128 C338 -107 342 -27 342 11 L342 122 Z " />
<glyph glyph-name="dagger" unicode="&#x2020;" horiz-adv-x="573" d="M339 740 L235 740 L235 547 L65 547 L65 452 L235 452 L235 -222 L339 -222 L339 452 L509 452 L509 547 L339 547 L339 740 Z " />
<glyph glyph-name="daggerdbl" unicode="&#x2021;" horiz-adv-x="573" d="M339 740 L235 740 L235 578 L65 578 L65 483 L235 483 L235 125 L65 125 L65 30 L235 30 L235 -222 L339 -222 L339 30 L509 30 L509 125 L339 125 L339 483 L509 483 L509 578 L339 578 L339 740 Z " />
<glyph glyph-name="bullet" unicode="&#x2022;" horiz-adv-x="606" d="M304 532 C215 532 150 459 150 377 C150 293 218 222 303 222 C386 222 455 291 455 377 C455 462 387 532 304 532 L304 532 Z " />
<glyph glyph-name="ellipsis" unicode="&#x2026;" horiz-adv-x="1000" d="M219 0 L219 122 L115 122 L115 0 L219 0 Z M552 0 L552 122 L448 122 L448 0 L552 0 Z M885 0 L885 122 L781 122 L781 0 L885 0 Z " />
<glyph glyph-name="perthousand" unicode="&#x2030;" horiz-adv-x="1228" d="M512 166 C512 217 552 259 603 259 C654 259 694 217 694 166 C694 115 654 73 603 73 C552 73 512 115 512 166 L512 166 Z M422 166 C422 67 504 -13 603 -13 C702 -13 784 67 784 166 C784 265 702 345 603 345 C504 345 422 265 422 166 L422 166 Z M813 166 C813 67 895 -13 994 -13 C1093 -13 1175 67 1175 166 C1175 265 1093 345 994 345 C895 345 813 265 813 166 L813 166 Z M903 166 C903 217 943 259 994 259 C1045 259 1085 217 1085 166 C1085 115 1045 73 994 73 C943 73 903 115 903 166 L903 166 Z M52 572 C52 473 134 393 233 393 C332 393 414 473 414 572 C414 671 332 751 233 751 C134 751 52 671 52 572 L52 572 Z M142 572 C142 623 182 665 233 665 C284 665 324 623 324 572 C324 521 284 479 233 479 C182 479 142 521 142 572 L142 572 Z M660 740 L593 740 L169 0 L236 0 L660 740 Z " />
<glyph glyph-name="guilsinglleft" unicode="&#x2039;" horiz-adv-x="205" d="M171 475 L34 339 L34 236 L171 102 L171 214 L96 288 L171 362 L171 475 Z " />
<glyph glyph-name="guilsinglright" unicode="&#x203a;" horiz-adv-x="205" d="M34 362 L109 288 L34 214 L34 102 L171 236 L171 339 L34 475 L34 362 Z " />
<glyph glyph-name="fraction" unicode="&#x2044;" horiz-adv-x="186" d="M-25 0 L283 740 L210 740 L-98 0 L-25 0 Z " />
<glyph glyph-name="trademark" unicode="&#x2122;" horiz-adv-x="990" d="M563 700 L420 700 L420 288 L518 288 L518 580 L520 580 L624 288 L699 288 L803 580 L805 580 L805 288 L903 288 L903 700 L760 700 L662 440 L563 700 Z M338 700 L0 700 L0 621 L120 621 L120 288 L218 288 L218 621 L338 621 L338 700 Z " />
<glyph glyph-name="minus" unicode="&#x2212;" horiz-adv-x="600" d="M552 201 L552 305 L48 305 L48 201 L552 201 Z " />
<glyph glyph-name="fi" unicode="&#xfb01;" horiz-adv-x="486" d="M419 740 L315 740 L315 618 L419 618 L419 740 Z M271 740 C210 740 181 737 136 710 C93 681 70 640 70 581 L70 554 L21 554 L21 459 L70 459 L70 0 L174 0 L174 459 L315 459 L315 0 L419 0 L419 554 L174 554 L174 581 C174 620 202 645 271 645 L271 740 Z " />
<glyph glyph-name="fl" unicode="&#xfb02;" horiz-adv-x="486" d="M271 740 C210 740 181 737 136 710 C93 681 70 640 70 581 L70 554 L21 554 L21 459 L70 459 L70 0 L174 0 L174 459 L315 459 L315 0 L419 0 L419 740 L315 740 L315 554 L174 554 L174 581 C174 620 202 645 271 645 L271 740 Z " />
</font>
</svg>
