<?xml version="1.0" encoding="UTF-8"?>
<svg xmlns="http://www.w3.org/2000/svg" xmlns:xlink="http://www.w3.org/1999/xlink" version="1.2" >
<font id="ITC Avant Garde Gothic Medium Oblique">
<font-face  font-family="ITC Avant Garde Gothic" units-per-em="1000" ascent="750" descent="-250" font-style="italic" font-weight="500" font-stretch="normal" slope="-10.5" cap-height="750" x-height="500" underline-position="-75" underline-thickness="50" />
<missing-glyph  horiz-adv-x="277" d="" />
<glyph glyph-name="NULL" d="" />
<glyph glyph-name="CR" unicode="&#xd;" horiz-adv-x="250" d="" />
<glyph glyph-name="space" unicode="&#x20;" horiz-adv-x="277" d="" />
<glyph glyph-name="exclam" unicode="&#x21;" horiz-adv-x="277" d="M213.611 122 L109.611 122 L87 0 L191 0 L213.611 122 Z M328.151 740 L224.151 740 L120.732 182 L224.732 182 L328.151 740 Z " />
<glyph glyph-name="quotedbl" unicode="&#x22;" horiz-adv-x="325" d="M192.291 444 L267.151 740 L157.151 740 L121.291 444 L192.291 444 Z M368.291 444 L443.151 740 L333.151 740 L297.291 444 L368.291 444 Z " />
<glyph glyph-name="numbersign" unicode="&#x23;" horiz-adv-x="555" d="M547.378 288 L466.378 288 L506.36 412 L598.36 412 L615.928 496 L533.928 496 L599.737 700 L510.737 700 L444.928 496 L342.928 496 L408.737 700 L319.737 700 L253.928 496 L153.928 496 L136.36 412 L226.36 412 L186.378 288 L85.3776 288 L67.8092 204 L158.809 204 L93 0 L181 0 L247.809 204 L349.809 204 L284 0 L372 0 L438.809 204 L529.809 204 L547.378 288 Z M417.36 412 L377.378 288 L275.378 288 L315.36 412 L417.36 412 Z " />
<glyph glyph-name="dollar" unicode="&#x24;" horiz-adv-x="555" d="M386.534 823 L365.776 711 C252.772 684 205.794 587 194.859 528 C168.726 387 276.907 361 319.313 347 C365.089 335 440.382 315 425.999 232 C414.878 172 373.87 118 304.87 118 C259.87 118 206.133 141 214.628 230 L110.628 230 C95.202 109 156.452 51 239.375 29 L218.802 -82 L313.802 -82 L334.375 29 C466.267 50 517.21 163 529.999 232 C557.726 387 438.842 420 399.696 430 C331.217 449 286.627 462 298.859 528 C307.014 572 343.281 622 400.281 622 C457.281 622 477.979 588 472.712 538 L576.712 538 C591.988 642 540.923 701 460.776 711 L481.534 823 L386.534 823 Z " />
<glyph glyph-name="percent" unicode="&#x25;" horiz-adv-x="837" d="M542.766 166 C552.219 217 600.003 259 651.003 259 C702.003 259 734.219 217 724.766 166 C715.314 115 667.53 73 616.53 73 C565.53 73 533.314 115 542.766 166 L542.766 166 Z M452.766 166 C434.418 67 501.591 -13 600.591 -13 C699.591 -13 796.418 67 814.766 166 C833.115 265 765.942 345 666.942 345 C567.942 345 471.115 265 452.766 166 L452.766 166 Z M158.014 572 C139.665 473 206.838 393 305.838 393 C404.838 393 501.665 473 520.014 572 C538.362 671 471.19 751 372.19 751 C273.19 751 176.362 671 158.014 572 L158.014 572 Z M248.014 572 C257.466 623 305.25 665 356.25 665 C407.25 665 439.466 623 430.014 572 C420.562 521 372.777 479 321.777 479 C270.777 479 238.562 521 248.014 572 L248.014 572 Z M797.151 740 L730.151 740 L169 0 L236 0 L797.151 740 Z " />
<glyph glyph-name="ampersand" unicode="&#x26;" horiz-adv-x="684" d="M732.329 455 L615.329 455 L504.119 292 L423.912 388 C529.622 435 569.411 504 580.902 566 C601.475 677 529.746 754 431.746 754 C328.746 754 230.104 675 209.717 565 C196.928 496 222.7 457 253.472 418 C148.502 375 88.3043 293 72.3652 207 C49.3831 83 130.405 -14 257.405 -14 C383.405 -14 465.827 80 496.499 116 L601.405 -14 L686.935 59 L566.107 211 L732.329 455 Z M361.256 460 C318.967 507 312.156 535 317.717 565 C328.837 625 374.397 655 412.397 655 C444.397 655 484.764 630 473.458 569 C463.264 514 422.816 490 361.256 460 L361.256 460 Z M438.4 191 C420.952 167 364.754 85 275.754 85 C199.754 85 168.874 145 180.365 207 C196.86 296 267.347 331 310.942 345 L438.4 191 Z " />
<glyph glyph-name="quotesingle" unicode="&#x27;" horiz-adv-x="218" d="M226.291 444 L301.151 740 L191.151 740 L156.291 444 L226.291 444 Z " />
<glyph glyph-name="parenleft" unicode="&#x28;" horiz-adv-x="407" d="M333.462 -127 C279.1 -75 168.746 31 210.076 254 C247.7 457 378.419 558 467.022 626 L490.931 755 C306.621 667 141.553 467 101.891 253 C52.7759 -12 193.415 -192 309.368 -257 L333.462 -127 Z " />
<glyph glyph-name="parenright" unicode="&#x29;" horiz-adv-x="407" d="M165.837 625 C221.014 572 330.368 466 289.223 244 C251.414 40 120.88 -60 32.2766 -128 L8.36788 -257 C192.678 -169 357.746 31 397.408 245 C445.967 507 308.513 688 189.931 755 L165.837 625 Z " />
<glyph glyph-name="asterisk" unicode="&#x2a;" horiz-adv-x="573" d="M364.462 596 L236.988 642 L202.755 576 L332.786 533 L224.472 418 L273.873 377 L378.743 495 L439.873 377 L504.472 418 L438.786 533 L584.755 576 L574.988 642 L430.462 596 L460.151 740 L390.151 740 L364.462 596 Z " />
<glyph glyph-name="plus" unicode="&#x2b;" horiz-adv-x="600" d="M304.528 305 L104.528 305 L85.2531 201 L285.253 201 L248 0 L352 0 L389.253 201 L589.253 201 L608.528 305 L408.528 305 L445.782 506 L341.782 506 L304.528 305 Z " />
<glyph glyph-name="comma" unicode="&#x2c;" horiz-adv-x="277" d="M213.611 122 L109.611 122 L87 0 L124 0 L122.332 -9 C114.548 -51 91.065 -59 74.953 -65 L63.4619 -127 C167.169 -107 185.996 -27 193.039 11 L213.611 122 Z " />
<glyph glyph-name="hyphen" unicode="&#x2d;" horiz-adv-x="280" d="M323.925 237 L343.201 341 L63.2006 341 L43.9253 237 L323.925 237 Z " />
<glyph glyph-name="period" unicode="&#x2e;" horiz-adv-x="277" d="M191 0 L213.611 122 L109.611 122 L87 0 L191 0 Z " />
<glyph glyph-name="slash" unicode="&#x2f;" horiz-adv-x="499" d="M136.466 -100 L580.151 740 L466.151 740 L22.4661 -100 L136.466 -100 Z " />
<glyph glyph-name="zero" unicode="0" horiz-adv-x="555" d="M611.708 511 C641.548 672 529.931 755 419.931 755 C325.931 755 166.255 692 131.411 504 L83.5934 246 C76.3652 207 63.5768 138 103.086 76 C127.858 37 179.405 -14 273.405 -14 C365.405 -14 435.116 33 476.159 71 C534.538 127 550.546 181 561.111 238 L611.708 511 Z M457.111 238 C450.068 200 443.766 166 403.723 128 C373.534 100 336.012 81 295.012 81 C277.012 81 157.754 85 186.111 238 L236.708 511 C258.764 630 349.324 660 401.324 660 C440.324 660 531.802 641 507.708 511 L457.111 238 Z " />
<glyph glyph-name="one" unicode="1" horiz-adv-x="555" d="M498.151 740 L285.151 740 L267.544 645 L376.544 645 L257 0 L361 0 L498.151 740 Z " />
<glyph glyph-name="two" unicode="2" horiz-adv-x="555" d="M504 0 L521.607 95 L211.607 95 L456.714 306 C517.351 358 580.286 417 598.45 515 C621.246 638 550.746 754 408.746 754 C331.746 754 165.479 704 127.075 486 L231.075 486 L234.596 505 C255.54 618 338.138 659 395.138 659 C476.138 659 507.609 586 495.006 518 C484.256 460 445.657 419 402.985 383 L57.1245 87 L41 0 L504 0 Z " />
<glyph glyph-name="three" unicode="3" horiz-adv-x="555" d="M62.4039 218 C38.1978 82 133.405 -14 258.405 -14 C387.405 -14 514.344 72 541.96 221 C550.486 267 551.054 351 476.062 405 C515.808 436 555.924 469 570.751 549 C592.621 667 525.746 754 408.746 754 C355.746 754 207 723 165.863 555 L269.863 555 C299.212 654 368.138 659 388.138 659 C447.138 659 478.242 611 468.234 557 C467.492 553 449.144 454 341.144 454 L305.144 454 L285.869 350 L323.869 350 C396.869 350 452.231 298 437.219 217 C425.542 154 363.012 81 279.012 81 C259.012 81 148.31 88 166.404 218 L62.4039 218 Z " />
<glyph glyph-name="four" unicode="4" horiz-adv-x="555" d="M591.151 740 L487.151 740 L52.2186 217 L33.4993 116 L371.499 116 L350 0 L454 0 L475.499 116 L553.499 116 L571.107 211 L493.107 211 L591.151 740 Z M171.107 211 L453.087 567 L455.087 567 L389.107 211 L171.107 211 Z " />
<glyph glyph-name="five" unicode="5" horiz-adv-x="555" d="M258.151 740 L125.722 360 L211.83 339 C231.278 363 276.101 416 359.101 416 C449.101 416 487.347 331 471.037 243 C453.801 150 369.012 81 293.012 81 C211.012 81 171.318 142 170.516 224 L66.5159 224 C54.9392 86 134.405 -14 274.405 -14 C428.405 -14 551.129 114 576.52 251 C603.209 395 525.708 511 376.708 511 C317.708 511 285.001 491 268.148 481 L326.544 645 L578.544 645 L596.151 740 L258.151 740 Z " />
<glyph glyph-name="six" unicode="6" horiz-adv-x="555" d="M426.151 740 L157.916 415 C139.653 392 85.6059 327 69.1107 238 C51.5035 143 101.405 -14 279.405 -14 C426.405 -14 556.646 106 583.705 252 C608.912 388 531.04 502 392.04 502 C375.04 502 364.669 500 347.113 497 L549.151 740 L426.151 740 Z M174.964 248 C191.089 335 274.433 407 359.433 407 C443.433 407 495.089 335 477.667 241 C462.469 159 385.012 81 297.012 81 C208.012 81 157.913 156 174.964 248 L174.964 248 Z " />
<glyph glyph-name="seven" unicode="7" horiz-adv-x="555" d="M208.151 740 L190.544 645 L511.544 645 L113 0 L229 0 L619.544 645 L637.151 740 L208.151 740 Z " />
<glyph glyph-name="eight" unicode="8" horiz-adv-x="555" d="M487.618 408 C517.881 431 564.183 465 580.122 551 C600.694 662 527.746 754 418.746 754 C314.746 754 201.177 670 178.936 550 C164.109 470 194.437 434 215.618 408 C180.356 385 104.718 333 83.4039 218 C56.9004 75 159.405 -14 274.405 -14 C400.405 -14 527.495 89 551.96 221 C558.817 258 566.498 348 487.618 408 L487.618 408 Z M477.975 561 C468.152 508 426.515 456 361.515 456 C299.515 456 275.708 511 284.234 557 C294.057 610 343.138 659 400.138 659 C463.138 659 485.945 604 477.975 561 L477.975 561 Z M446.292 212 C434.801 150 370.012 81 291.012 81 C221.012 81 172.947 140 186.477 213 C199.266 282 264.869 350 341.869 350 C402.869 350 462.416 299 446.292 212 L446.292 212 Z " />
<glyph glyph-name="nine" unicode="9" horiz-adv-x="555" d="M266 0 L532.235 325 C577.243 379 610.364 439 622.226 503 C639.277 595 591.931 755 411.746 754 C263.746 754 135.134 632 108.631 489 C80.2739 336 179.296 239 301.296 239 C316.296 239 327.667 241 345.037 243 L143 0 L266 0 Z M516.187 492 C503.028 421 429.903 334 333.903 334 C248.903 334 198.174 411 214.484 499 C229.682 581 306.138 659 395.138 659 C482.138 659 533.423 585 516.187 492 L516.187 492 Z " />
<glyph glyph-name="colon" unicode="&#x3a;" horiz-adv-x="277" d="M191 0 L213.611 122 L109.611 122 L87 0 L191 0 Z M271.252 433 L293.863 555 L189.863 555 L167.252 433 L271.252 433 Z " />
<glyph glyph-name="semicolon" unicode="&#x3b;" horiz-adv-x="277" d="M213.611 122 L109.611 122 L87 0 L124 0 L122.332 -9 C114.548 -51 91.065 -59 74.953 -65 L63.4619 -127 C167.169 -107 185.996 -27 193.039 11 L213.611 122 Z M271.252 433 L293.863 555 L189.863 555 L167.252 433 L271.252 433 Z " />
<glyph glyph-name="less" unicode="&#x3c;" horiz-adv-x="600" d="M571.422 94 L227.891 253 L630.36 412 L649.264 514 L100.86 296 L84.9212 210 L552.517 -8 L571.422 94 Z " />
<glyph glyph-name="equal" unicode="&#x3d;" horiz-adv-x="600" d="M628.73 414 L124.73 414 L105.455 310 L609.455 310 L628.73 414 Z M588.326 196 L84.3264 196 L65.0512 92 L569.051 92 L588.326 196 Z " />
<glyph glyph-name="greater" unicode="&#x3e;" horiz-adv-x="600" d="M63.4219 94 L44.5173 -8 L592.921 210 L608.86 296 L141.264 514 L122.36 412 L465.891 253 L63.4219 94 Z " />
<glyph glyph-name="question" unicode="&#x3f;" horiz-adv-x="518" d="M338.214 190 C354.667 241 369.748 290 454.795 355 C506.209 395 558.622 435 576.23 530 C596.988 642 526.746 754 396.746 754 C311.746 754 169.367 698 130.044 529 L234.044 529 C241.863 555 248.385 574 267.277 595 C283.798 614 321.285 649 376.285 649 C440.285 649 484.462 596 471.488 526 C463.704 484 443.553 467 379.36 412 C329.575 370 258.528 305 234.214 190 L338.214 190 Z M325.611 122 L221.611 122 L199 0 L303 0 L325.611 122 Z " />
<glyph glyph-name="at" unicode="&#x40;" horiz-adv-x="760" d="M614.566 548 L594.372 493 L592.372 493 C586.782 506 574.161 562 481.161 562 C363.161 562 265.403 450 244.274 336 C223.887 226 279.913 156 366.913 156 C394.913 156 459.654 160 511.033 216 L513.033 216 C513.322 169 560.913 156 586.913 156 C694.913 156 800.71 279 827.584 424 C865.764 630 736.56 753 536.56 753 C317.078 745 129.833 598 79.5754 370 C46.2144 190 117.591 -13 406.591 -13 C494.591 -13 583.927 5 697.491 62 L669.797 123 C628.978 97 540.676 63 420.676 63 C164.676 63 136.408 245 159.39 369 C190.712 538 334.475 677 523.475 677 C679.475 677 777.423 585 747.398 423 C719.714 306 670.999 232 604.999 232 C591.999 232 583.667 241 584.817 258 C587.042 270 593.007 286 603.752 317 L688.566 548 L614.566 548 Z M554.024 394 C537.343 304 477.999 232 391.999 232 C339.999 232 312.783 274 324.645 338 C341.51 429 410.075 486 472.075 486 C527.075 486 566.812 463 554.024 394 L554.024 394 Z " />
<glyph glyph-name="A" unicode="A" horiz-adv-x="684" d="M672 0 L528.151 740 L431.151 740 L13 0 L127 0 L249.404 218 L515.404 218 L557 0 L672 0 Z M305.752 317 L453.203 600 L455.203 600 L496.752 317 L305.752 317 Z " />
<glyph glyph-name="B" unicode="B" horiz-adv-x="580" d="M75 0 L296 0 C500 0 567.762 139 581.848 215 C603.162 330 532.873 377 505.209 395 C534.286 417 581.959 453 597.156 535 C606.794 587 613.151 740 404.151 740 L212.151 740 L75 0 Z M244.718 333 L348.718 333 C386.718 333 436.533 332 461.378 288 C472.671 268 478.852 242 473.848 215 C466.805 177 427.349 99 318.349 99 L201.349 99 L244.718 333 Z M301.802 641 L383.802 641 C407.802 641 508.802 641 489.342 536 C481.372 493 452.066 432 351.066 432 L263.066 432 L301.802 641 Z " />
<glyph glyph-name="C" unicode="C" horiz-adv-x="782" d="M861.122 551 C848.238 584 829.505 634 771.401 682 C702.151 740 614.746 754 558.746 754 C351.746 754 147.165 589 107.131 373 C68.2103 163 205.405 -14 415.405 -14 C530.405 -14 679.043 38 787.917 183 L654.917 183 C592.797 123 512.754 85 434.754 85 C289.754 85 185.477 213 214.946 372 C243.859 528 388.397 655 542.397 655 C662.397 655 713.755 576 731.122 551 L861.122 551 Z " />
<glyph glyph-name="D" unicode="D" horiz-adv-x="732" d="M65 0 L301 0 C405 0 509.263 23 609.831 107 C674.84 161 732.671 268 751.205 368 C764.549 440 758.23 530 718.945 604 C677.216 681 596.151 740 442.151 740 L202.151 740 L65 0 Z M291.802 641 L422.802 641 C624.802 641 663.963 480 643.205 368 C605.396 164 450.349 99 320.349 99 L191.349 99 L291.802 641 Z " />
<glyph glyph-name="E" unicode="E" horiz-adv-x="520" d="M464 0 L482.349 99 L191.349 99 L233.05 324 L524.05 324 L542.398 423 L251.398 423 L291.802 641 L582.802 641 L601.151 740 L202.151 740 L65 0 L464 0 Z " />
<glyph glyph-name="F" unicode="F" horiz-adv-x="482" d="M173 0 L232.308 320 L498.308 320 L516.657 419 L250.657 419 L291.802 641 L557.802 641 L576.151 740 L202.151 740 L65 0 L173 0 Z " />
<glyph glyph-name="G" unicode="G" horiz-adv-x="831" d="M850.678 554 C803.328 687 681.746 754 555.746 754 C342.746 754 145.682 581 106.205 368 C67.8396 161 198.405 -14 414.405 -14 C594.405 -14 817.241 120 867.205 368 L399.205 368 L380.856 269 L725.856 269 C621.124 87 457.754 85 436.754 85 C296.754 85 183.994 205 214.205 368 C242.932 523 387.397 655 541.397 655 C650.397 655 699.979 588 724.678 554 L850.678 554 Z " />
<glyph glyph-name="H" unicode="H" horiz-adv-x="670" d="M596 0 L733.151 740 L625.151 740 L566.028 421 L261.028 421 L320.151 740 L212.151 740 L75 0 L183 0 L242.679 322 L547.679 322 L488 0 L596 0 Z " />
<glyph glyph-name="I" unicode="I" horiz-adv-x="257" d="M183 0 L320.151 740 L212.151 740 L75 0 L183 0 Z " />
<glyph glyph-name="J" unicode="J" horiz-adv-x="487" d="M545.151 740 L437.151 740 L337.624 203 C333.917 183 326.21 163 319.43 148 C297.275 104 257.754 85 220.754 85 C195.754 85 150.31 88 138.43 148 L27.4302 148 C27.0816 49 105.405 -14 201.405 -14 C282.405 -14 361.819 26 409.275 104 C425.279 131 439.137 168 446.736 209 L545.151 740 Z " />
<glyph glyph-name="K" unicode="K" horiz-adv-x="618" d="M614 0 L394.131 373 L751.151 740 L618.151 740 L269.131 373 L267.131 373 L335.151 740 L227.151 740 L90 0 L198 0 L267.131 373 L269.131 373 L481 0 L614 0 Z " />
<glyph glyph-name="L" unicode="L" horiz-adv-x="444" d="M444 0 L462.349 99 L205.349 99 L324.151 740 L216.151 740 L79 0 L444 0 Z " />
<glyph glyph-name="M" unicode="M" horiz-adv-x="934" d="M860 0 L997.151 740 L827.151 740 L499.064 173 L382.151 740 L212.151 740 L75 0 L183 0 L298.837 625 L300.837 625 L435 0 L500 0 L864.837 625 L867.837 625 L752 0 L860 0 Z " />
<glyph glyph-name="N" unicode="N" horiz-adv-x="738" d="M663 0 L800.151 740 L692.151 740 L587.805 177 L585.805 177 L330.151 740 L212.151 740 L75 0 L183 0 L289.014 572 L291.014 572 L551 0 L663 0 Z " />
<glyph glyph-name="O" unicode="O" horiz-adv-x="846" d="M876.205 368 C915.311 579 782.746 754 562.746 754 C336.746 754 143.829 571 106.575 370 C68.9516 167 199.405 -14 420.405 -14 C640.405 -14 838.766 166 876.205 368 L876.205 368 Z M768.019 367 C746.52 251 629.754 85 438.754 85 C248.754 85 192.149 249 214.575 370 C236.445 488 353.397 655 544.397 655 C728.397 655 792.299 498 768.019 367 L768.019 367 Z " />
<glyph glyph-name="P" unicode="P" horiz-adv-x="559" d="M227.119 292 L333.119 292 C510.119 292 611.17 384 635.635 516 C660.1 648 593.151 740 416.151 740 L202.151 740 L65 0 L173 0 L227.119 292 Z M291.802 641 L397.802 641 C520.802 641 537.829 571 527.635 516 C517.441 461 474.468 391 351.468 391 L245.468 391 L291.802 641 Z " />
<glyph glyph-name="Q" unicode="Q" horiz-adv-x="837" d="M831.939 86 C779.939 86 762.051 92 729.758 112 C768.728 155 844.296 239 868.575 370 C906.941 577 775.746 754 558.746 754 C342.746 754 146.423 585 106.946 372 C67.0982 157 206.405 -14 415.405 -14 C489.405 -14 566.297 7 637.97 43 C674.151 17 718.591 -13 813.405 -14 L831.939 86 Z M555.87 118 C535.461 105 502.754 85 437.754 85 C349.754 85 275.909 129 238.068 200 C258.736 209 277.219 217 327.219 217 C394.219 217 463.697 198 555.87 118 L555.87 118 Z M653.805 177 C561.3 266 463.567 316 355.567 316 C324.567 316 266.196 314 210.304 293 C209.011 313 207.162 330 213.649 365 C243.303 525 389.397 655 542.397 655 C696.397 655 788.562 521 760.575 370 C741.3 266 683.365 207 653.805 177 L653.805 177 Z " />
<glyph glyph-name="R" unicode="R" horiz-adv-x="594" d="M554 0 L398.154 276 C446.154 276 615.899 307 652.226 503 C663.717 565 655.32 633 616.66 678 C584.517 715 535.151 740 431.151 740 L202.151 740 L65 0 L173 0 L236.571 343 L238.571 343 L419 0 L554 0 Z M291.802 641 L405.802 641 C527.802 641 555.717 565 544.226 503 C517.722 360 357.351 358 313.351 358 L239.351 358 L291.802 641 Z " />
<glyph glyph-name="S" unicode="S" horiz-adv-x="499" d="M58.5892 219 C28.0083 54 141.405 -14 243.405 -14 C379.405 -14 488.012 81 511.921 210 C544.912 388 416.286 417 329.773 452 C299.997 464 236.519 483 249.678 554 C257.647 597 303.397 655 367.397 655 C411.397 655 466.764 630 451.566 548 L559.566 548 C582.733 673 508.746 754 385.746 754 C245.746 754 157.432 639 141.492 553 C131.855 501 137.847 447 165.73 414 C193.614 381 215.39 369 307.347 331 C354.64 311 419.304 293 403.921 210 C389.465 132 329.754 85 261.754 85 C152.754 85 161.956 194 166.589 219 L58.5892 219 Z " />
<glyph glyph-name="T" unicode="T" horiz-adv-x="407" d="M257 0 L375.802 641 L517.802 641 L536.151 740 L144.151 740 L125.802 641 L267.802 641 L149 0 L257 0 Z " />
<glyph glyph-name="U" unicode="U" horiz-adv-x="643" d="M706.151 740 L598.151 740 L505.852 242 C480.461 105 376.754 85 336.754 85 C296.754 85 200.461 105 225.852 242 L318.151 740 L210.151 740 L117.296 239 C101.728 155 118.422 94 157.082 49 C196.039 11 250.405 -14 318.405 -14 C386.405 -14 450.039 11 503.082 49 C558.422 94 597.728 155 613.296 239 L706.151 740 Z " />
<glyph glyph-name="V" unicode="V" horiz-adv-x="684" d="M375 0 L809.151 740 L695.151 740 L377.288 185 L265.151 740 L149.151 740 L310 0 L375 0 Z " />
<glyph glyph-name="W" unicode="W" horiz-adv-x="906" d="M683 0 L1027.15 740 L917.151 740 L670.658 187 L668.658 187 L630.151 740 L551.151 740 L304.917 183 L302.917 183 L265.151 740 L153.151 740 L223 0 L318 0 L547.82 517 L549.82 517 L588 0 L683 0 Z " />
<glyph glyph-name="X" unicode="X" horiz-adv-x="648" d="M507 0 L634 0 L457.761 371 L773.151 740 L645.151 740 L408.256 460 L277.151 740 L148.151 740 L324.761 371 L11 0 L137 0 L375.266 282 L507 0 Z " />
<glyph glyph-name="Y" unicode="Y" horiz-adv-x="593" d="M351 0 L400.486 267 L716.151 740 L596.151 740 L369.838 393 L271.151 740 L150.151 740 L292.486 267 L243 0 L351 0 Z " />
<glyph glyph-name="Z" unicode="Z" horiz-adv-x="462" d="M459 0 L477.349 99 L145.349 99 L564.802 641 L583.151 740 L158.151 740 L139.802 641 L443.802 641 L22.3486 99 L4 0 L459 0 Z " />
<glyph glyph-name="bracketleft" unicode="&#x5b;" horiz-adv-x="407" d="M304.165 -134 C218.1 -75 232.556 3 241.452 51 L316.515 456 C326.894 512 348.311 579 446.505 634 L468.931 755 C373.629 721 242.69 635 211.553 467 L127.595 14 C105.539 -105 175.708 -212 281.368 -257 L304.165 -134 Z " />
<glyph glyph-name="backslash" unicode="&#x5c;" horiz-adv-x="499" d="M325.466 -100 L439.466 -100 L307.151 740 L193.151 740 L325.466 -100 Z " />
<glyph glyph-name="bracketright" unicode="&#x5d;" horiz-adv-x="407" d="M30.3679 -257 C152.708 -212 262.539 -105 284.595 14 L368.553 467 C399.69 635 300.629 721 217.931 755 L195.505 634 C273.311 579 269.894 512 259.515 456 L184.452 51 C175.556 3 161.1 -75 53.1646 -134 L30.3679 -257 Z " />
<glyph glyph-name="asciicircum" unicode="&#x5e;" horiz-adv-x="600" d="M235.795 355 L417.69 635 L495.795 355 L599.795 355 L484.151 740 L390.151 740 L131.795 355 L235.795 355 Z " />
<glyph glyph-name="underscore" unicode="&#x5f;" horiz-adv-x="500" d="M476.833 -125 L486.1 -75 L-13.9004 -75 L-23.1674 -125 L476.833 -125 Z " />
<glyph glyph-name="grave" unicode="&#x60;" horiz-adv-x="555" d="M316.866 814 L260.966 739 L460.242 611 L519.069 691 L316.866 814 Z " />
<glyph glyph-name="a" unicode="a" horiz-adv-x="693" d="M626 0 L728.678 554 L624.678 554 L610.221 476 L608.221 476 C579.527 537 514.458 569 437.458 569 C238.458 569 113.989 410 88.9682 275 C61.9087 129 142.405 -14 329.405 -14 C404.405 -14 483.336 18 535.939 86 L537.939 86 L522 0 L626 0 Z M575.154 276 C555.508 170 455.012 81 346.012 81 C236.012 81 174.62 176 193.154 276 C209.278 363 291.851 474 419.851 474 C526.851 474 597.024 394 575.154 276 L575.154 276 Z " />
<glyph glyph-name="b" unicode="b" horiz-adv-x="688" d="M170 0 L184.827 80 L186.827 80 C229.741 4 311.405 -14 362.405 -14 C524.405 -14 671.685 117 701.339 277 C733.032 448 615.458 569 468.458 569 C393.458 569 318.083 540 261.407 477 L259.407 477 L308.151 740 L204.151 740 L67 0 L170 0 Z M219.71 279 C237.873 377 330.851 474 444.851 474 C553.851 474 616.614 381 597.339 277 C576.952 167 472.012 81 372.012 81 C279.012 81 196.542 154 219.71 279 L219.71 279 Z " />
<glyph glyph-name="c" unicode="c" horiz-adv-x="627" d="M663.575 370 C657.773 452 585.458 569 428.458 569 C253.458 569 117.325 428 89.5242 278 C63.0208 135 137.405 -14 319.405 -14 C442.405 -14 564.12 60 628.917 183 L512.917 183 C476.353 126 415.012 81 337.012 81 C218.012 81 175.732 182 193.524 278 C209.093 362 277.851 474 411.851 474 C510.851 474 538.062 405 548.575 370 L663.575 370 Z " />
<glyph glyph-name="d" unicode="d" horiz-adv-x="687" d="M620 0 L757.151 740 L653.151 740 L606.075 486 L604.075 486 C573.527 537 508.458 569 431.458 569 C235.458 569 113.989 410 88.9682 275 C61.9087 129 139.405 -14 323.405 -14 C404.405 -14 481.336 18 536.642 79 L538.642 79 L524 0 L620 0 Z M575.154 276 C555.508 170 455.012 81 346.012 81 C236.012 81 174.62 176 193.154 276 C209.278 363 291.851 474 419.851 474 C526.851 474 597.024 394 575.154 276 L575.154 276 Z " />
<glyph glyph-name="e" unicode="e" horiz-adv-x="642" d="M644.999 232 C647.296 239 654.486 267 657.822 285 C686.847 447 578.458 569 428.458 569 C272.458 569 121.291 444 90.5242 278 C61.426 121 161.405 -14 318.405 -14 C404.405 -14 539.746 31 619.249 174 L515.249 174 C481.353 126 417.012 81 340.012 81 C270.012 81 192.167 125 185.999 232 L644.999 232 Z M200.826 312 C220.838 393 309.851 474 409.851 474 C509.851 474 568.838 393 558.826 312 L200.826 312 Z " />
<glyph glyph-name="f" unicode="f" horiz-adv-x="277" d="M174 0 L259.071 459 L356.071 459 L373.678 554 L276.678 554 L281.682 581 C288.91 620 321.544 645 390.544 645 L408.151 740 C347.151 740 317.595 737 267.591 710 C219.216 681 188.617 640 177.682 581 L172.678 554 L123.678 554 L106.071 459 L155.071 459 L70 0 L174 0 Z " />
<glyph glyph-name="g" unicode="g" horiz-adv-x="697" d="M733.678 554 L629.678 554 L617.816 490 C588.6 532 523.458 569 441.458 569 C240.458 569 112.506 402 89.7096 279 C64.6888 144 148.405 -14 331.405 -14 C448.405 -14 514.711 47 538.53 73 L540.53 73 C513.841 -71 419.389 -122 309.203 -123 C210.203 -123 177.953 -65 166.03 -43 L50.0304 -43 C76.5698 -148 161.596 -218 290.596 -218 C479.596 -218 611.169 -107 644.9 75 L733.678 554 Z M578.154 276 C564.994 205 484.012 81 348.012 81 C237.012 81 174.805 177 193.339 277 C212.799 382 311.851 474 421.851 474 C485.851 474 607.066 432 578.154 276 L578.154 276 Z " />
<glyph glyph-name="h" unicode="h" horiz-adv-x="622" d="M558 0 L618.791 328 C629.282 390 625.437 434 610.109 470 C581.6 532 518.458 569 432.458 569 C410.458 569 327.458 569 263.743 495 L261.743 495 L307.151 740 L203.151 740 L66 0 L170 0 L225.972 302 C246.545 413 316.851 474 403.851 474 C541.851 474 517.757 344 509.787 301 L454 0 L558 0 Z " />
<glyph glyph-name="i" unicode="i" horiz-adv-x="238" d="M273.678 554 L169.678 554 L67 0 L171 0 L273.678 554 Z M308.151 740 L204.151 740 L181.54 618 L285.54 618 L308.151 740 Z " />
<glyph glyph-name="j" unicode="j" horiz-adv-x="249" d="M286.678 554 L182.678 554 L82.9654 16 C69.9917 -54 60.7247 -104 -9.20195 -109 L-29.4039 -218 C4.5961 -218 51.7469 -201 93.4924 -170 C161.759 -120 170.841 -71 186.965 16 L286.678 554 Z M321.151 740 L217.151 740 L194.54 618 L298.54 618 L321.151 740 Z " />
<glyph glyph-name="k" unicode="k" horiz-adv-x="546" d="M482.678 554 L236.192 287 L234.192 287 L318.151 740 L214.151 740 L77 0 L181 0 L234.192 287 L236.192 287 L405 0 L535 0 L356.304 293 L605.678 554 L482.678 554 Z " />
<glyph glyph-name="l" unicode="l" horiz-adv-x="238" d="M308.151 740 L204.151 740 L67 0 L171 0 L308.151 740 Z " />
<glyph glyph-name="m" unicode="m" horiz-adv-x="971" d="M905 0 L966.903 334 C976.912 388 974.252 433 960.924 469 C936.415 531 877.458 569 784.458 569 C660.458 569 607.411 504 584.221 476 C567.527 537 496.458 569 429.458 569 C326.458 569 280.82 517 256.557 494 L254.557 494 L265.678 554 L169.678 554 L67 0 L171 0 L228.27 309 C235.869 350 258.851 474 395.851 474 C433.851 474 470.627 462 489.213 422 C504.356 385 500.61 354 491.084 308 L434 0 L538 0 L595.27 309 C604.795 355 624.851 474 757.851 474 C882.851 474 866.795 355 858.084 308 L801 0 L905 0 Z " />
<glyph glyph-name="n" unicode="n" horiz-adv-x="624" d="M558 0 L618.791 328 C629.282 390 625.437 434 610.109 470 C581.6 532 518.458 569 432.458 569 C410.458 569 326.458 569 256.743 495 L254.743 495 L265.678 554 L168.678 554 L66 0 L170 0 L225.972 302 C246.545 413 316.851 474 403.851 474 C541.851 474 517.757 344 509.787 301 L454 0 L558 0 Z " />
<glyph glyph-name="o" unicode="o" horiz-adv-x="675" d="M687.71 279 C716.993 437 610.458 569 442.458 569 C270.458 569 118.066 432 90.0803 281 C64.1328 141 148.405 -14 334.405 -14 C522.405 -14 662.689 144 687.71 279 L687.71 279 Z M583.71 279 C564.249 174 464.012 81 352.012 81 C236.012 81 174.99 178 193.524 278 C211.873 377 307.851 474 424.851 474 C541.851 474 601.873 377 583.71 279 L583.71 279 Z " />
<glyph glyph-name="p" unicode="p" horiz-adv-x="686" d="M32.7123 -185 L136.712 -185 L185.827 80 L187.827 80 C202.34 45 249.405 -14 365.405 -14 C540.405 -14 672.094 130 698.042 270 C725.472 418 654.458 569 466.458 569 C395.458 569 314.268 541 250.924 469 L248.924 469 L264.678 554 L169.678 554 L32.7123 -185 Z M595.154 276 C573.469 159 470.012 81 372.012 81 C267.012 81 199.766 166 220.524 278 C239.429 380 332.851 474 441.851 474 C554.851 474 613.502 375 595.154 276 L595.154 276 Z " />
<glyph glyph-name="q" unicode="q" horiz-adv-x="687" d="M722.678 554 L626.678 554 L612.963 480 L610.963 480 C607.001 491 557.458 569 431.458 569 C256.458 569 118.14 427 90.5242 278 C63.8354 134 144.405 -14 326.405 -14 C401.405 -14 479.892 21 528.271 77 L530.271 77 L481.712 -185 L585.712 -185 L722.678 554 Z M575.968 275 C557.249 174 462.012 81 350.012 81 C235.012 81 175.064 173 194.524 278 C213.614 381 304.851 474 420.851 474 C533.851 474 596.17 384 575.968 275 L575.968 275 Z " />
<glyph glyph-name="r" unicode="r" horiz-adv-x="320" d="M171 0 L227.158 303 C241.799 382 277.584 424 313.92 442 C341.329 455 376.627 462 392.627 462 L412.458 569 C386.273 568 314.902 566 259.411 504 L257.411 504 L266.678 554 L169.678 554 L67 0 L171 0 Z " />
<glyph glyph-name="s" unicode="s" horiz-adv-x="424" d="M464.433 407 C484.23 530 387.458 569 324.458 569 C219.458 569 136.001 491 120.804 409 C98.9336 291 189.929 264 245.852 242 C296.331 223 336.18 206 327.098 157 C318.387 110 280.012 81 233.012 81 C175.012 81 150.241 120 157.732 182 L53.7317 182 C25.5602 30 143.405 -14 213.405 -14 C331.405 -14 414.047 65 432.21 163 C456.675 295 339.162 330 298.571 343 C255.166 357 217.39 369 225.916 415 C232.403 450 263.851 474 301.851 474 C339.851 474 362.773 452 360.433 407 L464.433 407 Z " />
<glyph glyph-name="t" unicode="t" horiz-adv-x="277" d="M268.071 459 L359.071 459 L376.678 554 L285.678 554 L320.151 740 L216.151 740 L181.678 554 L106.678 554 L89.0706 459 L164.071 459 L79 0 L183 0 L268.071 459 Z " />
<glyph glyph-name="u" unicode="u" horiz-adv-x="624" d="M168.678 554 L113.076 254 C92.5035 143 108.012 81 146.599 41 C180.112 6 231.405 -14 294.405 -14 C364.405 -14 434.224 12 471.12 60 L473.12 60 L462 0 L557 0 L659.678 554 L555.678 554 L500.632 257 C478.206 136 409.012 81 323.012 81 C246.012 81 191.685 117 217.076 254 L272.678 554 L168.678 554 Z " />
<glyph glyph-name="v" unicode="v" horiz-adv-x="537" d="M626.678 554 L515.678 554 L300.284 158 L298.284 158 L226.678 554 L115.678 554 L233 0 L306 0 L626.678 554 Z " />
<glyph glyph-name="w" unicode="w" horiz-adv-x="795" d="M884.678 554 L773.678 554 L584.956 194 L582.956 194 L534.678 554 L466.678 554 L284.956 194 L282.956 194 L226.678 554 L115.678 554 L220 0 L277 0 L466.131 373 L468.131 373 L519 0 L577 0 L884.678 554 Z " />
<glyph glyph-name="x" unicode="x" horiz-adv-x="518" d="M480.678 554 L325.946 372 L237.678 554 L111.678 554 L246.636 284 L2 0 L123 0 L293.512 197 L394 0 L516 0 L375.636 284 L606.678 554 L480.678 554 Z " />
<glyph glyph-name="y" unicode="y" horiz-adv-x="574" d="M666.678 554 L554.678 554 L307.982 124 L224.678 554 L112.678 554 L233.039 11 L115.712 -185 L223.712 -185 L666.678 554 Z " />
<glyph glyph-name="z" unicode="z" horiz-adv-x="407" d="M131.678 554 L114.071 459 L354.071 459 L18.0125 81 L3 0 L404 0 L421.607 95 L149.607 95 L466.959 453 L485.678 554 L131.678 554 Z " />
<glyph glyph-name="braceleft" unicode="&#x7b;" horiz-adv-x="333" d="M56.8133 231 C88.8133 231 144.551 208 132.133 141 L94.3236 -63 C77.4578 -154 141.303 -198 206.303 -198 L271.303 -198 L285.945 -119 L241.945 -119 C193.945 -119 195.544 -78 201.474 -46 L238.728 155 C256.891 253 190.856 269 161.598 273 L162.154 276 C192.71 279 265.972 302 281.541 386 L318.979 588 C325.096 621 338.509 661 386.509 661 L430.509 661 L445.151 740 L380.151 740 C315.151 740 234.996 696 218.13 605 L180.136 400 C168.83 339 104.752 317 72.7525 317 L56.8133 231 Z " />
<glyph glyph-name="bar" unicode="&#x7c;" horiz-adv-x="555" d="M358.151 740 L202.466 -100 L315.466 -100 L471.151 740 L358.151 740 Z " />
<glyph glyph-name="braceright" unicode="&#x7d;" horiz-adv-x="333" d="M376.64 311 C344.64 311 288.903 334 301.321 401 L339.13 605 C355.996 696 292.151 740 227.151 740 L162.151 740 L147.509 661 L191.509 661 C239.509 661 237.91 620 231.979 588 L194.726 387 C176.563 289 242.598 273 271.856 269 L271.3 266 C240.744 263 167.481 240 151.913 156 L114.474 -46 C108.358 -79 94.9447 -119 46.9447 -119 L2.94466 -119 L-11.6971 -198 L53.3029 -198 C118.303 -198 198.458 -154 215.324 -63 L253.318 142 C264.624 203 328.701 225 360.701 225 L376.64 311 Z " />
<glyph glyph-name="asciitilde" unicode="&#x7e;" horiz-adv-x="600" d="M557.83 339 C528.343 304 496.486 267 456.486 267 C429.486 267 395.192 287 361.158 303 C326.308 320 290.089 335 256.089 335 C189.089 335 144.934 291 115.149 249 L135.952 167 C158.438 202 189.296 239 233.296 239 C279.296 239 313.145 222 341.809 204 C371.473 186 400.693 171 437.693 171 C499.693 171 540.848 215 578.632 257 L557.83 339 Z " />
<glyph glyph-name="exclamdown" unicode="&#xa1;" horiz-adv-x="277" d="M258.575 370 L154.575 370 L51.7123 -185 L155.712 -185 L258.575 370 Z M292.863 555 L188.863 555 L166.252 433 L270.252 433 L292.863 555 Z " />
<glyph glyph-name="cent" unicode="&#xa2;" horiz-adv-x="555" d="M456.123 319 C442.158 303 406.929 264 334.929 264 C242.929 264 204.274 336 216.692 403 C227.627 462 284.824 544 386.824 544 C447.824 544 479.264 514 487.889 485 L606.889 485 C592.829 571 539.764 630 451.358 644 L469.151 740 L374.151 740 L356.358 644 C224.91 620 134.562 521 113.618 408 C100.645 338 107.809 204 267.952 167 L249.788 69 L344.788 69 L362.952 167 C450.288 185 528.925 237 573.123 319 L456.123 319 Z " />
<glyph glyph-name="sterling" unicode="&#xa3;" horiz-adv-x="555" d="M478.412 272 C483.261 255 486.852 242 482.033 216 C473.137 168 435.607 95 336.607 95 L303.607 95 C314.055 119 325.133 141 332.732 182 C348.3 266 325.899 307 306.606 327 L446.606 327 L464.213 422 L245.213 422 C233.808 436 214.885 458 224.894 512 C239.35 590 303.138 659 390.138 659 C486.138 659 499.609 586 503.678 554 L616.678 554 C614.143 686 517.746 754 410.746 754 C253.746 754 144.988 642 120.894 512 C112.553 467 118.476 445 127.213 422 L87.2131 422 L69.6059 327 L181.606 327 C223.675 295 240.223 244 228.732 182 C219.391 137 206.499 116 191.607 95 L59.6072 95 L42 0 L319 0 C498 0 569.538 127 586.219 217 C590.667 241 590.447 256 590.412 272 L478.412 272 Z " />
<glyph glyph-name="currency" unicode="&#xa4;" horiz-adv-x="555" d="M52.0208 135 L103.344 72 L186.318 142 C212.797 123 251.831 107 298.831 107 C344.831 107 389.797 123 421.133 141 L478.344 72 L554.206 136 L498.18 206 C522.555 235 544.339 277 551.864 323 C561.39 369 554.174 411 541.92 442 L623.523 510 L571.199 573 L488.226 503 C462.747 522 424.527 537 378.527 537 C332.527 537 287.303 525 253.411 504 L196.385 574 L122.338 509 L179.92 442 C155.545 413 131.39 369 121.864 323 C113.154 276 120.555 235 135.809 204 L52.0208 135 Z M216.679 322 C228.912 388 292.92 442 358.92 442 C424.92 442 468.912 388 456.679 322 C444.447 256 380.438 202 314.438 202 C248.438 202 204.447 256 216.679 322 L216.679 322 Z " />
<glyph glyph-name="yen" unicode="&#xa5;" horiz-adv-x="555" d="M442.136 400 L609.136 400 L625.075 486 L501.075 486 L692.151 740 L579.151 740 L358.92 442 L250.151 740 L137.151 740 L233.075 486 L110.075 486 L94.1356 400 L260.136 400 L285.977 329 L278.007 286 L73.007 286 L57.0678 200 L262.068 200 L225 0 L329 0 L366.068 200 L572.068 200 L588.007 286 L382.007 286 L389.977 329 L442.136 400 Z " />
<glyph glyph-name="brokenbar" unicode="&#xa6;" horiz-adv-x="555" d="M358.151 740 L295.877 404 L408.877 404 L471.151 740 L358.151 740 Z M264.74 236 L202.466 -100 L315.466 -100 L377.74 236 L264.74 236 Z " />
<glyph glyph-name="section" unicode="&#xa7;" horiz-adv-x="573" d="M594.717 565 C605.888 717 502.746 754 426.746 754 C289.746 754 215.47 650 202.497 580 C193.044 529 210.928 496 222.036 475 C119.028 421 103.645 338 100.308 320 C81.4039 218 144.732 182 185.284 158 L323.642 79 C400.487 35 399.927 5 394.737 -23 C385.1 -75 341.203 -123 267.203 -123 C191.203 -123 162.285 -74 169.888 -6 L65.888 -6 C46.7552 -147 132.855 -222 245.855 -222 C362.855 -222 476.311 -144 499.293 -20 C506.336 18 505.232 66 464.202 109 C497.909 129 565.878 172 582.744 263 C600.166 357 527.765 398 483.398 423 L360.557 494 C332.338 509 297.23 530 305.199 573 C310.203 600 335.397 655 412.397 655 C458.397 655 490.949 631 490.717 565 L594.717 565 Z M424.533 332 C462.455 310 484.119 292 476.335 250 C468.18 206 438.917 183 404.284 158 L242.335 250 C229.632 257 197.266 282 205.977 329 C212.093 362 237.394 396 273.286 417 L424.533 332 Z " />
<glyph glyph-name="dieresis" unicode="&#xa8;" horiz-adv-x="555" d="M443.487 758 L420.876 636 L524.876 636 L547.487 758 L443.487 758 Z M288.487 758 L265.876 636 L369.876 636 L392.487 758 L288.487 758 Z " />
<glyph glyph-name="copyright" unicode="&#xa9;" horiz-adv-x="800" d="M680.847 447 C686.674 527 624.018 599 517.018 599 C386.018 599 283.855 501 259.761 371 C235.667 241 301.503 143 432.503 143 C539.503 143 628.848 215 652.675 295 L577.675 295 C546.813 231 492.663 214 445.663 214 C368.663 214 316.042 270 334.761 371 C351.627 462 424.859 528 503.859 528 C550.859 528 596.708 511 605.847 447 L680.847 447 Z M540.375 752 C325.375 752 125.126 578 86.5754 370 C47.8396 161 184.776 -12 398.776 -12 C606.776 -12 811.284 158 850.575 370 C889.311 579 752.375 752 540.375 752 L540.375 752 Z M525.289 676 C696.289 676 801.342 536 770.575 370 C739.068 200 578.862 64 411.862 64 C242.862 64 135.438 202 166.575 370 C197.342 536 353.289 676 525.289 676 L525.289 676 Z " />
<glyph glyph-name="ordfeminine" unicode="&#xaa;" horiz-adv-x="385" d="M484.263 746 L404.263 746 L397.776 711 L395.776 711 C385.853 733 356.746 754 316.746 754 C205.746 754 136.436 666 122.535 591 C107.338 509 152.696 430 254.696 430 C297.696 430 336.959 453 351.665 473 L353.665 473 L347.178 438 L427.178 438 L484.263 746 Z M376.721 592 C366.527 537 320.596 505 269.596 505 C221.596 505 194.38 547 202.535 591 C209.949 631 245.845 679 302.845 679 C354.845 679 385.988 642 376.721 592 L376.721 592 Z " />
<glyph glyph-name="guillemotleft" unicode="&#xab;" horiz-adv-x="370" d="M425.036 475 L262.83 339 L243.74 236 L355.905 102 L376.663 214 L315.378 288 L404.093 362 L425.036 475 Z M258.036 475 L95.8299 339 L76.74 236 L188.905 102 L209.663 214 L148.378 288 L237.093 362 L258.036 475 Z " />
<glyph glyph-name="logicalnot" unicode="&#xac;" horiz-adv-x="600" d="M468.017 108 L572.017 108 L628.73 414 L124.73 414 L105.455 310 L505.455 310 L468.017 108 Z " />
<glyph glyph-name="registered" unicode="&#xae;" horiz-adv-x="800" d="M345.423 585 L264.43 148 L339.43 148 L371.864 323 L460.864 323 C534.752 317 545.231 298 535.443 229 C527.249 174 527.84 161 533.43 148 L608.43 148 C601.766 166 603.434 175 613.149 249 C621.528 305 617.201 341 560.351 358 L560.722 360 C622.317 374 652.472 418 661.368 466 C683.423 585 556.423 585 529.423 585 L345.423 585 Z M407.264 514 L507.264 514 C544.264 514 589.338 509 585.812 463 C572.838 393 505.838 393 474.838 393 L384.838 393 L407.264 514 Z M540.375 752 C325.375 752 125.126 578 86.5754 370 C47.8396 161 184.776 -12 398.776 -12 C606.776 -12 811.284 158 850.575 370 C889.311 579 752.375 752 540.375 752 L540.375 752 Z M525.289 676 C696.289 676 801.342 536 770.575 370 C739.068 200 578.862 64 411.862 64 C242.862 64 135.438 202 166.575 370 C197.342 536 353.289 676 525.289 676 L525.289 676 Z " />
<glyph glyph-name="macron" unicode="&#xaf;" horiz-adv-x="555" d="M577.138 659 L591.039 734 L236.039 734 L222.138 659 L577.138 659 Z " />
<glyph glyph-name="degree" unicode="&#xb0;" horiz-adv-x="400" d="M289.889 485 C244.889 485 216.303 525 224.643 570 C232.798 614 276.026 653 321.026 653 C366.026 653 394.798 614 386.643 570 C378.303 525 334.889 485 289.889 485 L289.889 485 Z M278.954 426 C358.954 426 433.631 489 448.458 569 C463.285 649 411.961 712 331.961 712 C251.961 712 177.285 649 162.458 569 C147.631 489 198.954 426 278.954 426 L278.954 426 Z " />
<glyph glyph-name="plusminus" unicode="&#xb1;" horiz-adv-x="600" d="M319.17 384 L119.17 384 L99.8949 280 L299.895 280 L269.87 118 L373.87 118 L403.895 280 L603.895 280 L623.17 384 L423.17 384 L453.195 546 L349.195 546 L319.17 384 Z M38.3624 -52 L542.362 -52 L561.638 52 L57.6376 52 L38.3624 -52 Z " />
<glyph glyph-name="twosuperior" unicode="&#xb2;" horiz-adv-x="351" d="M372.86 296 L386.946 372 L216.946 372 L347.519 483 C379.894 512 418.195 546 428.945 604 C443.216 681 395.004 750 309.004 750 C223.004 750 150.66 678 136.945 604 L133.238 584 L213.238 584 L216.574 602 C223.802 641 255.918 674 297.918 674 C338.918 674 355.246 638 348.945 604 C342.829 571 318.751 549 296.23 530 L94.3514 358 L82.8603 296 L372.86 296 Z " />
<glyph glyph-name="threesuperior" unicode="&#xb3;" horiz-adv-x="351" d="M96.0664 432 C78.6446 338 147.007 286 217.007 286 C293.007 286 379.386 342 395.696 430 C404.777 479 394.079 513 355.712 538 C375.678 554 402.57 575 411.096 621 C426.849 706 365.004 750 307.004 750 C287.004 750 253.707 743 223 723 C193.479 704 165.548 672 156.652 624 L236.652 624 C246.065 664 273.918 674 292.918 674 C325.918 674 336.841 652 332.208 627 C331.652 624 322.57 575 269.57 575 L244.57 575 L230.484 499 L256.484 499 C295.484 499 323.665 473 315.696 430 C309.394 396 280.093 362 235.093 362 C220.093 362 168.834 366 176.066 432 L96.0664 432 Z " />
<glyph glyph-name="acute" unicode="&#xb4;" horiz-adv-x="555" d="M319.242 611 L566.853 733 L537.866 814 L291.143 686 L319.242 611 Z " />
<glyph glyph-name="mu" unicode="&#xb5;" horiz-adv-x="624" d="M39.7123 -185 L143.712 -185 L185.043 38 L187.043 38 C207.483 8 250.405 -14 303.405 -14 C400.405 -14 440.784 42 455.12 60 L457.12 60 L446 0 L550 0 L652.678 554 L548.678 554 L500.675 295 C475.284 158 416.012 81 321.012 81 C271.012 81 238.202 109 227.318 142 C217.508 170 219.701 225 230.636 284 L280.678 554 L176.678 554 L39.7123 -185 Z " />
<glyph glyph-name="paragraph" unicode="&#xb6;" horiz-adv-x="638" d="M185.6 -191 L289.6 -191 L439.91 620 L545.91 620 L395.6 -191 L499.6 -191 L664.737 700 L371.737 700 C232.737 700 123.953 658 98.0056 518 C78.3597 412 145.571 343 284.571 343 L185.6 -191 Z " />
<glyph glyph-name="periodcentered" unicode="&#xb7;" horiz-adv-x="277" d="M221.068 200 L241.084 308 L150.084 308 L130.068 200 L221.068 200 Z " />
<glyph glyph-name="cedilla" unicode="&#xb8;" horiz-adv-x="555" d="M292 0 L240 0 L190.022 -97 L218.091 -129 C226.203 -123 236.686 -115 254.686 -115 C275.686 -115 294.277 -128 289.458 -154 C284.639 -180 262.859 -195 239.859 -195 C209.859 -195 206.566 -175 204.604 -164 L151.604 -164 C146.855 -222 190.407 -246 229.407 -246 C293.407 -246 336.303 -198 345.014 -151 C354.466 -100 321.582 -67 278.582 -67 C272.582 -67 264.397 -68 258.397 -68 L292 0 Z " />
<glyph glyph-name="onesuperior" unicode="&#xb9;" horiz-adv-x="351" d="M376.151 740 L234.151 740 L220.065 664 L282.065 664 L213.86 296 L293.86 296 L376.151 740 Z " />
<glyph glyph-name="ordmasculine" unicode="&#xba;" horiz-adv-x="385" d="M467.906 593 C484.216 681 424.746 754 331.746 754 C235.746 754 151.66 678 136.091 594 C121.635 516 168.696 430 271.696 430 C375.696 430 454.006 518 467.906 593 L467.906 593 Z M387.906 593 C379.38 547 335.596 505 285.596 505 C234.596 505 207.566 548 215.721 592 C224.061 637 265.845 679 317.845 679 C369.845 679 396.061 637 387.906 593 L387.906 593 Z " />
<glyph glyph-name="guillemotright" unicode="&#xbb;" horiz-adv-x="370" d="M100.093 362 L161.378 288 L72.6625 214 L51.9046 102 L213.74 236 L232.83 339 L121.036 475 L100.093 362 Z M267.093 362 L328.378 288 L239.663 214 L218.905 102 L380.74 236 L399.83 339 L288.036 475 L267.093 362 Z " />
<glyph glyph-name="onequarter" unicode="&#xbc;" horiz-adv-x="700" d="M200 0 L670.151 740 L597.151 740 L127 0 L200 0 Z M718.291 444 L650.291 444 L385.577 138 L372.788 69 L578.788 69 L566 0 L636 0 L648.788 69 L696.788 69 L709.391 137 L661.391 137 L718.291 444 Z M468.391 137 L624.606 327 L626.606 327 L591.391 137 L468.391 137 Z M295.151 740 L153.151 740 L139.065 664 L201.065 664 L132.86 296 L212.86 296 L295.151 740 Z " />
<glyph glyph-name="onehalf" unicode="&#xbd;" horiz-adv-x="714" d="M295.151 740 L153.151 740 L139.065 664 L201.065 664 L132.86 296 L212.86 296 L295.151 740 Z M174 0 L647.151 740 L574.151 740 L101 0 L174 0 Z M698 0 L712.086 76 L542.086 76 L672.658 187 C705.033 216 743.335 250 754.084 308 C768.356 385 720.144 454 634.144 454 C548.144 454 475.799 382 462.084 308 L458.378 288 L538.378 288 L541.714 306 C548.942 345 581.058 378 623.058 378 C664.058 378 680.386 342 674.084 308 C667.968 275 643.891 253 621.369 234 L419.491 62 L408 0 L698 0 Z " />
<glyph glyph-name="threequarters" unicode="&#xbe;" horiz-adv-x="781" d="M281 0 L751.151 740 L678.151 740 L208 0 L281 0 Z M799.291 444 L731.291 444 L466.577 138 L453.788 69 L659.788 69 L647 0 L717 0 L729.788 69 L777.788 69 L790.391 137 L742.391 137 L799.291 444 Z M549.391 137 L705.606 327 L707.606 327 L672.391 137 L549.391 137 Z M96.0664 432 C78.6446 338 147.007 286 217.007 286 C293.007 286 379.386 342 395.696 430 C404.777 479 394.079 513 355.712 538 C375.678 554 402.57 575 411.096 621 C426.849 706 365.004 750 307.004 750 C287.004 750 253.707 743 223 723 C193.479 704 165.548 672 156.652 624 L236.652 624 C246.065 664 273.918 674 292.918 674 C325.918 674 336.841 652 332.208 627 C331.652 624 322.57 575 269.57 575 L244.57 575 L230.484 499 L256.484 499 C295.484 499 323.665 473 315.696 430 C309.394 396 280.093 362 235.093 362 C220.093 362 168.834 366 176.066 432 L96.0664 432 Z " />
<glyph glyph-name="questiondown" unicode="&#xbf;" horiz-adv-x="518" d="M282.649 365 C266.196 314 251.115 265 166.068 200 C114.654 160 62.2407 120 44.6335 25 C23.8755 -87 94.1175 -199 224.118 -199 C309.118 -199 451.497 -143 490.819 26 L386.819 26 C379 0 372.479 -19 353.586 -40 C337.065 -59 299.578 -94 244.578 -94 C180.578 -94 136.401 -41 149.375 29 C157.159 71 177.31 88 241.503 143 C291.288 185 362.335 250 386.649 365 L282.649 365 Z M295.252 433 L399.252 433 L421.863 555 L317.863 555 L295.252 433 Z " />
<glyph glyph-name="Agrave" unicode="&#xc0;" horiz-adv-x="684" d="M672 0 L665.302 740 L568.302 740 L13 0 L127 0 L289.808 218 L555.808 218 L557 0 L672 0 Z M364.505 317 L564.407 600 L566.407 600 L555.505 317 L364.505 317 Z M592.411 975 L522.61 900 L698.163 772 L771.818 852 L592.411 975 Z " />
<glyph glyph-name="Aacute" unicode="&#xc1;" horiz-adv-x="684" d="M672 0 L665.302 740 L568.302 740 L13 0 L127 0 L289.808 218 L555.808 218 L557 0 L672 0 Z M364.505 317 L564.407 600 L566.407 600 L555.505 317 L364.505 317 Z M557.163 772 L827.386 894 L813.411 975 L542.964 847 L557.163 772 Z " />
<glyph glyph-name="Acircumflex" unicode="&#xc2;" horiz-adv-x="684" d="M672 0 L665.302 740 L568.302 740 L13 0 L127 0 L289.808 218 L555.808 218 L557 0 L672 0 Z M364.505 317 L564.407 600 L566.407 600 L555.505 317 L364.505 317 Z M825.948 793 L735.989 928 L635.989 928 L446.948 793 L565.948 793 L663.524 862 L706.948 793 L825.948 793 Z " />
<glyph glyph-name="Atilde" unicode="&#xc3;" horiz-adv-x="684" d="M672 0 L665.302 740 L568.302 740 L13 0 L127 0 L289.808 218 L555.808 218 L557 0 L672 0 Z M364.505 317 L564.407 600 L566.407 600 L555.505 317 L364.505 317 Z M504.766 806 C533.215 818 555.921 828 582.921 828 C602.921 828 691.284 802 714.284 802 C731.284 802 772.396 805 840.335 848 L820.688 911 C765.162 888 752.309 883 730.309 883 C710.309 883 621.317 910 599.317 910 C581.317 910 554.946 909 481.861 871 L504.766 806 Z " />
<glyph glyph-name="Adieresis" unicode="&#xc4;" horiz-adv-x="684" d="M672 0 L665.302 740 L568.302 740 L13 0 L127 0 L289.808 218 L555.808 218 L557 0 L672 0 Z M364.505 317 L564.407 600 L566.407 600 L555.505 317 L364.505 317 Z M708.653 919 L663.43 797 L767.43 797 L812.653 919 L708.653 919 Z M553.653 919 L508.43 797 L612.43 797 L657.653 919 L553.653 919 Z " />
<glyph glyph-name="Aring" unicode="&#xc5;" horiz-adv-x="684" d="M672 0 L665.302 740 L568.302 740 L13 0 L127 0 L289.808 218 L555.808 218 L557 0 L672 0 Z M364.505 317 L564.407 600 L566.407 600 L555.505 317 L364.505 317 Z M775.861 871 C798.472 932 767.006 982 706.006 982 C646.006 982 577.472 932 554.861 871 C532.62 811 564.086 761 624.086 761 C685.086 761 753.62 811 775.861 871 L775.861 871 Z M716.861 871 C706.482 843 674.956 820 645.956 820 C617.956 820 603.482 843 613.861 871 C624.61 900 656.136 923 684.136 923 C713.136 923 727.61 900 716.861 871 L716.861 871 Z " />
<glyph glyph-name="AE" unicode="&#xc6;" horiz-adv-x="930" d="M634.151 740 L0 0 L127 0 L299.994 205 L543.994 205 L506 0 L866 0 L884.349 99 L632.349 99 L674.05 324 L926.05 324 L944.398 423 L692.398 423 L732.802 641 L984.802 641 L1003.15 740 L634.151 740 Z M389.343 304 L610.497 580 L612.497 580 L613.497 580 L562.343 304 L389.343 304 Z " />
<glyph glyph-name="Ccedilla" unicode="&#xc7;" horiz-adv-x="782" d="M278.604 -164 C273.855 -222 317.407 -246 356.407 -246 C420.407 -246 463.303 -198 472.014 -151 C481.466 -100 448.582 -67 405.582 -67 C399.582 -67 391.397 -68 385.397 -68 L412.405 -14 L415.405 -14 C530.405 -14 679.043 38 787.917 183 L654.917 183 C592.797 123 512.754 85 434.754 85 C289.754 85 185.477 213 214.946 372 C243.859 528 388.397 655 542.397 655 C662.397 655 713.755 576 731.122 551 L861.122 551 C848.238 584 829.505 634 771.401 682 C702.151 740 614.746 754 558.746 754 C351.746 754 147.165 589 107.131 373 C71.5464 181 183.151 17 362.332 -9 L317.022 -97 L345.091 -129 C353.203 -123 363.686 -115 381.686 -115 C402.686 -115 421.277 -128 416.458 -154 C411.639 -180 389.859 -195 366.859 -195 C336.859 -195 333.566 -175 331.604 -164 L278.604 -164 Z " />
<glyph glyph-name="Egrave" unicode="&#xc8;" horiz-adv-x="520" d="M464 0 L500.697 99 L209.697 99 L293.1 324 L584.1 324 L620.797 423 L329.797 423 L410.605 641 L701.605 641 L738.302 740 L339.302 740 L65 0 L464 0 Z M512.264 980 L442.464 905 L618.017 777 L691.671 857 L512.264 980 Z " />
<glyph glyph-name="Eacute" unicode="&#xc9;" horiz-adv-x="520" d="M464 0 L500.697 99 L209.697 99 L293.1 324 L584.1 324 L620.797 423 L329.797 423 L410.605 641 L701.605 641 L738.302 740 L339.302 740 L65 0 L464 0 Z M477.017 777 L747.24 899 L733.264 980 L462.818 852 L477.017 777 Z " />
<glyph glyph-name="Ecircumflex" unicode="&#xca;" horiz-adv-x="520" d="M464 0 L500.697 99 L209.697 99 L293.1 324 L584.1 324 L620.797 423 L329.797 423 L410.605 641 L701.605 641 L738.302 740 L339.302 740 L65 0 L464 0 Z M745.801 798 L655.843 933 L555.843 933 L366.801 798 L485.801 798 L583.378 867 L626.801 798 L745.801 798 Z " />
<glyph glyph-name="Edieresis" unicode="&#xcb;" horiz-adv-x="520" d="M464 0 L500.697 99 L209.697 99 L293.1 324 L584.1 324 L620.797 423 L329.797 423 L410.605 641 L701.605 641 L738.302 740 L339.302 740 L65 0 L464 0 Z M628.506 924 L583.284 802 L687.284 802 L732.506 924 L628.506 924 Z M473.506 924 L428.284 802 L532.284 802 L577.506 924 L473.506 924 Z " />
<glyph glyph-name="Igrave" unicode="&#xcc;" horiz-adv-x="257" d="M183 0 L457.302 740 L349.302 740 L75 0 L183 0 Z M340.264 980 L270.464 905 L446.017 777 L519.671 857 L340.264 980 Z " />
<glyph glyph-name="Iacute" unicode="&#xcd;" horiz-adv-x="257" d="M183 0 L457.302 740 L349.302 740 L75 0 L183 0 Z M385.017 777 L655.24 899 L641.264 980 L370.818 852 L385.017 777 Z " />
<glyph glyph-name="Icircumflex" unicode="&#xce;" horiz-adv-x="257" d="M183 0 L457.302 740 L349.302 740 L75 0 L183 0 Z M613.801 798 L523.843 933 L423.843 933 L234.801 798 L353.801 798 L451.378 867 L494.801 798 L613.801 798 Z " />
<glyph glyph-name="Idieresis" unicode="&#xcf;" horiz-adv-x="257" d="M183 0 L457.302 740 L349.302 740 L75 0 L183 0 Z M496.506 924 L451.284 802 L555.284 802 L600.506 924 L496.506 924 Z M341.506 924 L296.284 802 L400.284 802 L445.506 924 L341.506 924 Z " />
<glyph glyph-name="Eth" unicode="&#xd0;" horiz-adv-x="732" d="M124.679 322 L65 0 L303 0 C403 0 509.263 23 609.831 107 C674.84 161 732.671 268 751.205 368 C764.549 440 758.23 530 718.945 604 C677.216 681 594.151 740 444.151 740 L202.151 740 L143.028 421 L80.0277 421 L61.6792 322 L124.679 322 Z M444.028 421 L251.028 421 L291.802 641 L424.802 641 C622.802 641 663.963 480 643.205 368 C605.396 164 448.349 99 322.349 99 L191.349 99 L232.679 322 L425.679 322 L444.028 421 Z " />
<glyph glyph-name="Ntilde" unicode="&#xd1;" horiz-adv-x="738" d="M663 0 L937.302 740 L829.302 740 L620.61 177 L618.61 177 L467.302 740 L349.302 740 L75 0 L183 0 L395.028 572 L397.028 572 L551 0 L663 0 Z M531.766 806 C560.215 818 582.921 828 609.921 828 C629.921 828 718.284 802 741.284 802 C758.284 802 799.396 805 867.335 848 L847.688 911 C792.162 888 779.309 883 757.309 883 C737.309 883 648.317 910 626.317 910 C608.317 910 581.946 909 508.861 871 L531.766 806 Z " />
<glyph glyph-name="Ograve" unicode="&#xd2;" horiz-adv-x="846" d="M944.41 368 C1022.62 579 922.491 754 702.491 754 C476.491 754 249.657 571 175.151 370 C99.9032 167 196.811 -14 417.811 -14 C637.811 -14 869.533 166 944.41 368 L944.41 368 Z M836.039 367 C793.04 251 645.508 85 454.508 85 C264.508 85 238.299 249 283.151 370 C326.891 488 474.794 655 665.794 655 C849.794 655 884.598 498 836.039 367 L836.039 367 Z M675.264 980 L605.464 905 L781.017 777 L854.671 857 L675.264 980 Z " />
<glyph glyph-name="Oacute" unicode="&#xd3;" horiz-adv-x="846" d="M944.41 368 C1022.62 579 922.491 754 702.491 754 C476.491 754 249.657 571 175.151 370 C99.9032 167 196.811 -14 417.811 -14 C637.811 -14 869.533 166 944.41 368 L944.41 368 Z M836.039 367 C793.04 251 645.508 85 454.508 85 C264.508 85 238.299 249 283.151 370 C326.891 488 474.794 655 665.794 655 C849.794 655 884.598 498 836.039 367 L836.039 367 Z M640.017 777 L910.24 899 L896.264 980 L625.818 852 L640.017 777 Z " />
<glyph glyph-name="Ocircumflex" unicode="&#xd4;" horiz-adv-x="846" d="M944.41 368 C1022.62 579 922.491 754 702.491 754 C476.491 754 249.657 571 175.151 370 C99.9032 167 196.811 -14 417.811 -14 C637.811 -14 869.533 166 944.41 368 L944.41 368 Z M836.039 367 C793.04 251 645.508 85 454.508 85 C264.508 85 238.299 249 283.151 370 C326.891 488 474.794 655 665.794 655 C849.794 655 884.598 498 836.039 367 L836.039 367 Z M908.801 798 L818.843 933 L718.843 933 L529.801 798 L648.801 798 L746.378 867 L789.801 798 L908.801 798 Z " />
<glyph glyph-name="Otilde" unicode="&#xd5;" horiz-adv-x="846" d="M944.41 368 C1022.62 579 922.491 754 702.491 754 C476.491 754 249.657 571 175.151 370 C99.9032 167 196.811 -14 417.811 -14 C637.811 -14 869.533 166 944.41 368 L944.41 368 Z M836.039 367 C793.04 251 645.508 85 454.508 85 C264.508 85 238.299 249 283.151 370 C326.891 488 474.794 655 665.794 655 C849.794 655 884.598 498 836.039 367 L836.039 367 Z M585.766 806 C614.215 818 636.921 828 663.921 828 C683.921 828 772.284 802 795.284 802 C812.284 802 853.396 805 921.335 848 L901.688 911 C846.162 888 833.309 883 811.309 883 C791.309 883 702.317 910 680.317 910 C662.317 910 635.946 909 562.861 871 L585.766 806 Z " />
<glyph glyph-name="Odieresis" unicode="&#xd6;" horiz-adv-x="846" d="M944.41 368 C1022.62 579 922.491 754 702.491 754 C476.491 754 249.657 571 175.151 370 C99.9032 167 196.811 -14 417.811 -14 C637.811 -14 869.533 166 944.41 368 L944.41 368 Z M836.039 367 C793.04 251 645.508 85 454.508 85 C264.508 85 238.299 249 283.151 370 C326.891 488 474.794 655 665.794 655 C849.794 655 884.598 498 836.039 367 L836.039 367 Z M791.506 924 L746.284 802 L850.284 802 L895.506 924 L791.506 924 Z M636.506 924 L591.284 802 L695.284 802 L740.506 924 L636.506 924 Z " />
<glyph glyph-name="multiply" unicode="&#xd7;" horiz-adv-x="600" d="M274.891 253 L76.9392 86 L135.595 14 L333.732 182 L469.595 14 L554.939 86 L417.891 253 L616.842 420 L558.187 492 L360.235 325 L224.187 492 L138.842 420 L274.891 253 Z " />
<glyph glyph-name="Oslash" unicode="&#xd8;" horiz-adv-x="846" d="M245.746 31 C302.259 -4 368.405 -14 420.405 -14 C639.405 -14 838.581 165 876.575 370 C906.044 529 830.022 626 810.914 647 L899.892 744 L827.642 802 L741.035 707 C706.112 729 645.746 754 561.746 754 C337.746 754 144.199 573 106.575 370 C91.007 286 98.5464 181 177.495 89 L88.3319 -9 L157.953 -65 L245.746 31 Z M733.161 562 C781.26 487 776.545 413 768.575 370 C745.593 246 626.754 85 438.754 85 C367.754 85 327.017 108 321.573 111 L733.161 562 Z M254.064 173 C210.74 236 203.455 310 214.575 370 C235.889 485 350.397 655 545.397 655 C587.397 655 631.729 646 666.837 625 L254.064 173 Z " />
<glyph glyph-name="Ugrave" unicode="&#xd9;" horiz-adv-x="643" d="M843.302 740 L735.302 740 L550.704 242 C499.921 105 392.508 85 352.508 85 C312.508 85 219.921 105 270.704 242 L455.302 740 L347.302 740 L161.592 239 C130.455 155 135.844 94 166.163 49 C198.077 11 247.811 -14 315.811 -14 C383.811 -14 452.077 11 512.163 49 C575.844 94 626.455 155 657.592 239 L843.302 740 Z M548.264 980 L478.464 905 L654.017 777 L727.671 857 L548.264 980 Z " />
<glyph glyph-name="Uacute" unicode="&#xda;" horiz-adv-x="643" d="M843.302 740 L735.302 740 L550.704 242 C499.921 105 392.508 85 352.508 85 C312.508 85 219.921 105 270.704 242 L455.302 740 L347.302 740 L161.592 239 C130.455 155 135.844 94 166.163 49 C198.077 11 247.811 -14 315.811 -14 C383.811 -14 452.077 11 512.163 49 C575.844 94 626.455 155 657.592 239 L843.302 740 Z M563.017 777 L833.24 899 L819.264 980 L548.818 852 L563.017 777 Z " />
<glyph glyph-name="Ucircumflex" unicode="&#xdb;" horiz-adv-x="643" d="M843.302 740 L735.302 740 L550.704 242 C499.921 105 392.508 85 352.508 85 C312.508 85 219.921 105 270.704 242 L455.302 740 L347.302 740 L161.592 239 C130.455 155 135.844 94 166.163 49 C198.077 11 247.811 -14 315.811 -14 C383.811 -14 452.077 11 512.163 49 C575.844 94 626.455 155 657.592 239 L843.302 740 Z M806.801 798 L716.843 933 L616.843 933 L427.801 798 L546.801 798 L644.378 867 L687.801 798 L806.801 798 Z " />
<glyph glyph-name="Udieresis" unicode="&#xdc;" horiz-adv-x="643" d="M843.302 740 L735.302 740 L550.704 242 C499.921 105 392.508 85 352.508 85 C312.508 85 219.921 105 270.704 242 L455.302 740 L347.302 740 L161.592 239 C130.455 155 135.844 94 166.163 49 C198.077 11 247.811 -14 315.811 -14 C383.811 -14 452.077 11 512.163 49 C575.844 94 626.455 155 657.592 239 L843.302 740 Z M689.506 924 L644.284 802 L748.284 802 L793.506 924 L689.506 924 Z M534.506 924 L489.284 802 L593.284 802 L638.506 924 L534.506 924 Z " />
<glyph glyph-name="Yacute" unicode="&#xdd;" horiz-adv-x="593" d="M351 0 L449.971 267 L853.302 740 L733.302 740 L442.676 393 L408.302 740 L287.302 740 L341.971 267 L243 0 L351 0 Z M538.017 777 L808.24 899 L794.264 980 L523.818 852 L538.017 777 Z " />
<glyph glyph-name="Thorn" unicode="&#xde;" horiz-adv-x="559" d="M200.059 146 L306.059 146 C483.059 146 584.111 238 608.575 370 C633.04 502 566.091 594 389.091 594 L283.091 594 L310.151 740 L202.151 740 L65 0 L173 0 L200.059 146 Z M264.743 495 L370.743 495 C493.743 495 510.769 425 500.575 370 C490.382 315 447.408 245 324.408 245 L218.408 245 L264.743 495 Z " />
<glyph glyph-name="germandbls" unicode="&#xdf;" horiz-adv-x="640" d="M66 0 L169 0 L191.982 124 L193.982 124 C197.681 90 200.862 64 250.263 23 C287.517 -8 336.405 -14 369.405 -14 C502.405 -14 618.31 88 642.589 219 C656.304 293 629.912 388 522.916 415 C550.437 434 590.924 469 603.156 535 C625.026 653 544.746 754 422.746 754 C341.746 754 195.737 700 161.635 516 L66 0 Z M265.635 516 C270.083 540 292.138 659 407.138 659 C482.138 659 510.462 596 500.268 541 C497.488 526 479.325 428 351.769 425 L334.718 333 L406.718 333 C559.718 333 538.96 221 536.736 209 C525.43 148 469.012 81 391.012 81 C368.012 81 342.31 88 322.646 106 C302.797 123 288.986 151 289.956 194 L205.956 194 L265.635 516 Z " />
<glyph glyph-name="agrave" unicode="&#xe0;" horiz-adv-x="693" d="M626 0 L831.356 554 L727.356 554 L698.443 476 L696.443 476 C679.054 537 619.916 569 542.916 569 C343.916 569 189.978 410 139.936 275 C85.8175 129 139.811 -14 326.811 -14 C401.811 -14 486.672 18 551.878 86 L553.878 86 L522 0 L626 0 Z M626.307 276 C587.015 170 470.025 81 361.025 81 C251.025 81 207.239 176 244.307 276 C276.556 363 379.701 474 507.701 474 C614.701 474 670.047 394 626.307 276 L626.307 276 Z M536.732 814 L466.931 739 L642.484 611 L716.138 691 L536.732 814 Z " />
<glyph glyph-name="aacute" unicode="&#xe1;" horiz-adv-x="693" d="M626 0 L831.356 554 L727.356 554 L698.443 476 L696.443 476 C679.054 537 619.916 569 542.916 569 C343.916 569 189.978 410 139.936 275 C85.8175 129 139.811 -14 326.811 -14 C401.811 -14 486.672 18 551.878 86 L553.878 86 L522 0 L626 0 Z M626.307 276 C587.015 170 470.025 81 361.025 81 C251.025 81 207.239 176 244.307 276 C276.556 363 379.701 474 507.701 474 C614.701 474 670.047 394 626.307 276 L626.307 276 Z M501.484 611 L771.707 733 L757.732 814 L487.285 686 L501.484 611 Z " />
<glyph glyph-name="acircumflex" unicode="&#xe2;" horiz-adv-x="693" d="M626 0 L831.356 554 L727.356 554 L698.443 476 L696.443 476 C679.054 537 619.916 569 542.916 569 C343.916 569 189.978 410 139.936 275 C85.8175 129 139.811 -14 326.811 -14 C401.811 -14 486.672 18 551.878 86 L553.878 86 L522 0 L626 0 Z M626.307 276 C587.015 170 470.025 81 361.025 81 C251.025 81 207.239 176 244.307 276 C276.556 363 379.701 474 507.701 474 C614.701 474 670.047 394 626.307 276 L626.307 276 Z M770.268 632 L680.31 767 L580.31 767 L391.268 632 L510.268 632 L607.845 701 L651.268 632 L770.268 632 Z " />
<glyph glyph-name="atilde" unicode="&#xe3;" horiz-adv-x="693" d="M626 0 L831.356 554 L727.356 554 L698.443 476 L696.443 476 C679.054 537 619.916 569 542.916 569 C343.916 569 189.978 410 139.936 275 C85.8175 129 139.811 -14 326.811 -14 C401.811 -14 486.672 18 551.878 86 L553.878 86 L522 0 L626 0 Z M626.307 276 C587.015 170 470.025 81 361.025 81 C251.025 81 207.239 176 244.307 276 C276.556 363 379.701 474 507.701 474 C614.701 474 670.047 394 626.307 276 L626.307 276 Z M447.234 640 C475.682 652 498.389 662 525.389 662 C545.389 662 633.751 636 656.751 636 C673.751 636 714.863 639 782.802 682 L763.155 745 C707.63 722 694.776 717 672.776 717 C652.776 717 563.784 744 541.784 744 C523.784 744 497.414 743 424.328 705 L447.234 640 Z " />
<glyph glyph-name="adieresis" unicode="&#xe4;" horiz-adv-x="693" d="M626 0 L831.356 554 L727.356 554 L698.443 476 L696.443 476 C679.054 537 619.916 569 542.916 569 C343.916 569 189.978 410 139.936 275 C85.8175 129 139.811 -14 326.811 -14 C401.811 -14 486.672 18 551.878 86 L553.878 86 L522 0 L626 0 Z M626.307 276 C587.015 170 470.025 81 361.025 81 C251.025 81 207.239 176 244.307 276 C276.556 363 379.701 474 507.701 474 C614.701 474 670.047 394 626.307 276 L626.307 276 Z M652.974 758 L607.751 636 L711.751 636 L756.974 758 L652.974 758 Z M497.974 758 L452.751 636 L556.751 636 L601.974 758 L497.974 758 Z " />
<glyph glyph-name="aring" unicode="&#xe5;" horiz-adv-x="693" d="M626 0 L831.356 554 L727.356 554 L698.443 476 L696.443 476 C679.054 537 619.916 569 542.916 569 C343.916 569 189.978 410 139.936 275 C85.8175 129 139.811 -14 326.811 -14 C401.811 -14 486.672 18 551.878 86 L553.878 86 L522 0 L626 0 Z M626.307 276 C587.015 170 470.025 81 361.025 81 C251.025 81 207.239 176 244.307 276 C276.556 363 379.701 474 507.701 474 C614.701 474 670.047 394 626.307 276 L626.307 276 Z M723.888 720 C746.5 781 715.033 831 654.033 831 C594.033 831 525.5 781 502.888 720 C480.647 660 512.114 610 572.114 610 C633.114 610 701.647 660 723.888 720 L723.888 720 Z M664.888 720 C654.509 692 622.984 669 593.984 669 C565.984 669 551.509 692 561.888 720 C572.638 749 604.163 772 632.163 772 C661.163 772 675.638 749 664.888 720 L664.888 720 Z " />
<glyph glyph-name="ae" unicode="&#xe6;" horiz-adv-x="1131" d="M1133.18 233 C1136.78 247 1142.11 265 1144.89 280 C1172.7 430 1079.46 569 919.458 569 C881.458 569 783.79 560 716.631 489 L714.631 489 L726.678 554 L631.678 554 L619.631 489 L617.631 489 C557.087 567 461.458 569 436.458 569 C269.458 569 119.92 442 90.2656 282 C62.2794 131 148.405 -14 332.405 -14 C441.591 -13 503.672 36 541.047 65 L529 0 L624 0 L636.047 65 L638.047 65 C663.746 31 713.591 -13 808.405 -14 C879.405 -14 1025.45 24 1108.62 176 L1001.62 176 C951.461 105 875.012 81 824.012 81 C727.012 81 670.728 155 671.184 233 L1133.18 233 Z M575.71 279 C556.249 174 462.012 81 345.012 81 C225.012 81 175.176 179 194.08 281 C212.058 378 296.851 474 417.851 474 C540.851 474 594.058 378 575.71 279 L575.71 279 Z M684.528 305 C718.881 431 827.851 474 897.851 474 C967.851 474 1059.88 431 1045.53 305 L684.528 305 Z " />
<glyph glyph-name="ccedilla" unicode="&#xe7;" horiz-adv-x="627" d="M191.604 -164 C186.855 -222 230.407 -246 269.407 -246 C333.407 -246 376.303 -198 385.014 -151 C394.466 -100 361.582 -67 318.582 -67 C312.582 -67 304.397 -68 298.397 -68 L325.591 -13 C446.961 -11 565.491 62 628.917 183 L512.917 183 C476.353 126 415.012 81 337.012 81 C218.012 81 175.732 182 193.524 278 C209.093 362 277.851 474 411.851 474 C510.851 474 538.062 405 548.575 370 L663.575 370 C657.773 452 585.458 569 428.458 569 C253.458 569 117.325 428 89.5242 278 C65.4302 148 125.224 12 275.147 -10 L230.022 -97 L258.091 -129 C266.203 -123 276.686 -115 294.686 -115 C315.686 -115 334.277 -128 329.458 -154 C324.639 -180 302.859 -195 279.859 -195 C249.859 -195 246.566 -175 244.604 -164 L191.604 -164 Z " />
<glyph glyph-name="egrave" unicode="&#xe8;" horiz-adv-x="642" d="M687.997 232 C691.592 239 703.971 267 710.643 285 C769.693 447 683.916 569 533.916 569 C377.916 569 203.581 444 142.048 278 C83.852 121 158.811 -14 315.811 -14 C401.811 -14 545.491 31 651.498 174 L547.498 174 C504.705 126 432.025 81 355.025 81 C285.025 81 215.335 125 228.997 232 L687.997 232 Z M258.652 312 C293.676 393 397.701 474 497.701 474 C597.701 474 641.676 393 616.652 312 L258.652 312 Z M511.732 814 L441.931 739 L617.484 611 L691.138 691 L511.732 814 Z " />
<glyph glyph-name="eacute" unicode="&#xe9;" horiz-adv-x="642" d="M687.997 232 C691.592 239 703.971 267 710.643 285 C769.693 447 683.916 569 533.916 569 C377.916 569 203.581 444 142.048 278 C83.852 121 158.811 -14 315.811 -14 C401.811 -14 545.491 31 651.498 174 L547.498 174 C504.705 126 432.025 81 355.025 81 C285.025 81 215.335 125 228.997 232 L687.997 232 Z M258.652 312 C293.676 393 397.701 474 497.701 474 C597.701 474 641.676 393 616.652 312 L258.652 312 Z M476.484 611 L746.707 733 L732.732 814 L462.285 686 L476.484 611 Z " />
<glyph glyph-name="ecircumflex" unicode="&#xea;" horiz-adv-x="642" d="M687.997 232 C691.592 239 703.971 267 710.643 285 C769.693 447 683.916 569 533.916 569 C377.916 569 203.581 444 142.048 278 C83.852 121 158.811 -14 315.811 -14 C401.811 -14 545.491 31 651.498 174 L547.498 174 C504.705 126 432.025 81 355.025 81 C285.025 81 215.335 125 228.997 232 L687.997 232 Z M258.652 312 C293.676 393 397.701 474 497.701 474 C597.701 474 641.676 393 616.652 312 L258.652 312 Z M745.268 632 L655.31 767 L555.31 767 L366.268 632 L485.268 632 L582.845 701 L626.268 632 L745.268 632 Z " />
<glyph glyph-name="edieresis" unicode="&#xeb;" horiz-adv-x="642" d="M687.997 232 C691.592 239 703.971 267 710.643 285 C769.693 447 683.916 569 533.916 569 C377.916 569 203.581 444 142.048 278 C83.852 121 158.811 -14 315.811 -14 C401.811 -14 545.491 31 651.498 174 L547.498 174 C504.705 126 432.025 81 355.025 81 C285.025 81 215.335 125 228.997 232 L687.997 232 Z M258.652 312 C293.676 393 397.701 474 497.701 474 C597.701 474 641.676 393 616.652 312 L258.652 312 Z M627.974 758 L582.751 636 L686.751 636 L731.974 758 L627.974 758 Z M472.974 758 L427.751 636 L531.751 636 L576.974 758 L472.974 758 Z " />
<glyph glyph-name="igrave" unicode="&#xec;" horiz-adv-x="238" d="M376.356 554 L272.356 554 L67 0 L171 0 L376.356 554 Z M269.732 814 L199.931 739 L375.484 611 L449.138 691 L269.732 814 Z " />
<glyph glyph-name="iacute" unicode="&#xed;" horiz-adv-x="238" d="M376.356 554 L272.356 554 L67 0 L171 0 L376.356 554 Z M314.484 611 L584.707 733 L570.732 814 L300.285 686 L314.484 611 Z " />
<glyph glyph-name="icircumflex" unicode="&#xee;" horiz-adv-x="238" d="M376.356 554 L272.356 554 L67 0 L171 0 L376.356 554 Z M543.268 632 L453.31 767 L353.31 767 L164.268 632 L283.268 632 L380.845 701 L424.268 632 L543.268 632 Z " />
<glyph glyph-name="idieresis" unicode="&#xef;" horiz-adv-x="238" d="M376.356 554 L272.356 554 L67 0 L171 0 L376.356 554 Z M425.974 758 L380.751 636 L484.751 636 L529.974 758 L425.974 758 Z M270.974 758 L225.751 636 L329.751 636 L374.974 758 L270.974 758 Z " />
<glyph glyph-name="eth" unicode="&#xf0;" horiz-adv-x="675" d="M423.851 474 C554.851 474 600.946 372 584.08 281 C565.732 182 474.012 81 353.012 81 C232.012 81 176.102 184 193.524 278 C210.575 370 303.851 474 423.851 474 L423.851 474 Z M672.108 702 L617.746 754 L486.147 713 C453.483 731 422.078 745 386.746 754 L259.517 715 C290.293 703 327.699 689 360.918 674 L205.837 625 L262.385 574 L439.764 630 C480.945 604 514.385 574 534.639 543 L532.268 541 C505.605 559 475.458 569 436.458 569 C281.458 569 119.734 441 89.8949 280 C65.6155 149 138.405 -14 334.405 -14 C502.405 -14 657.129 114 690.675 295 C715.14 427 676.643 570 557.436 666 L672.108 702 Z " />
<glyph glyph-name="ntilde" unicode="&#xf1;" horiz-adv-x="624" d="M558 0 L679.582 328 C701.564 390 705.874 434 697.219 470 C680.201 532 623.916 569 537.916 569 C515.916 569 431.916 569 348.486 495 L346.486 495 L368.356 554 L271.356 554 L66 0 L170 0 L281.945 302 C323.09 413 404.701 474 491.701 474 C629.701 474 581.513 344 565.574 301 L454 0 L558 0 Z M413.234 640 C441.682 652 464.389 662 491.389 662 C511.389 662 599.751 636 622.751 636 C639.751 636 680.863 639 748.802 682 L729.155 745 C673.63 722 660.776 717 638.776 717 C618.776 717 529.784 744 507.784 744 C489.784 744 463.414 743 390.328 705 L413.234 640 Z " />
<glyph glyph-name="ograve" unicode="&#xf2;" horiz-adv-x="675" d="M739.419 279 C797.986 437 715.916 569 547.916 569 C375.916 569 198.133 432 142.161 281 C90.2656 141 145.811 -14 331.811 -14 C519.811 -14 689.378 144 739.419 279 L739.419 279 Z M635.419 279 C596.498 174 479.025 81 367.025 81 C251.025 81 207.981 178 245.048 278 C281.746 377 395.701 474 512.701 474 C629.701 474 671.746 377 635.419 279 L635.419 279 Z M527.732 814 L457.931 739 L633.484 611 L707.138 691 L527.732 814 Z " />
<glyph glyph-name="oacute" unicode="&#xf3;" horiz-adv-x="675" d="M739.419 279 C797.986 437 715.916 569 547.916 569 C375.916 569 198.133 432 142.161 281 C90.2656 141 145.811 -14 331.811 -14 C519.811 -14 689.378 144 739.419 279 L739.419 279 Z M635.419 279 C596.498 174 479.025 81 367.025 81 C251.025 81 207.981 178 245.048 278 C281.746 377 395.701 474 512.701 474 C629.701 474 671.746 377 635.419 279 L635.419 279 Z M492.484 611 L762.707 733 L748.732 814 L478.285 686 L492.484 611 Z " />
<glyph glyph-name="ocircumflex" unicode="&#xf4;" horiz-adv-x="675" d="M739.419 279 C797.986 437 715.916 569 547.916 569 C375.916 569 198.133 432 142.161 281 C90.2656 141 145.811 -14 331.811 -14 C519.811 -14 689.378 144 739.419 279 L739.419 279 Z M635.419 279 C596.498 174 479.025 81 367.025 81 C251.025 81 207.981 178 245.048 278 C281.746 377 395.701 474 512.701 474 C629.701 474 671.746 377 635.419 279 L635.419 279 Z M761.268 632 L671.31 767 L571.31 767 L382.268 632 L501.268 632 L598.845 701 L642.268 632 L761.268 632 Z " />
<glyph glyph-name="otilde" unicode="&#xf5;" horiz-adv-x="675" d="M739.419 279 C797.986 437 715.916 569 547.916 569 C375.916 569 198.133 432 142.161 281 C90.2656 141 145.811 -14 331.811 -14 C519.811 -14 689.378 144 739.419 279 L739.419 279 Z M635.419 279 C596.498 174 479.025 81 367.025 81 C251.025 81 207.981 178 245.048 278 C281.746 377 395.701 474 512.701 474 C629.701 474 671.746 377 635.419 279 L635.419 279 Z M438.234 640 C466.682 652 489.389 662 516.389 662 C536.389 662 624.751 636 647.751 636 C664.751 636 705.863 639 773.802 682 L754.155 745 C698.63 722 685.776 717 663.776 717 C643.776 717 554.784 744 532.784 744 C514.784 744 488.414 743 415.328 705 L438.234 640 Z " />
<glyph glyph-name="odieresis" unicode="&#xf6;" horiz-adv-x="675" d="M739.419 279 C797.986 437 715.916 569 547.916 569 C375.916 569 198.133 432 142.161 281 C90.2656 141 145.811 -14 331.811 -14 C519.811 -14 689.378 144 739.419 279 L739.419 279 Z M635.419 279 C596.498 174 479.025 81 367.025 81 C251.025 81 207.981 178 245.048 278 C281.746 377 395.701 474 512.701 474 C629.701 474 671.746 377 635.419 279 L635.419 279 Z M643.974 758 L598.751 636 L702.751 636 L747.974 758 L643.974 758 Z M488.974 758 L443.751 636 L547.751 636 L592.974 758 L488.974 758 Z " />
<glyph glyph-name="divide" unicode="&#xf7;" horiz-adv-x="600" d="M589.253 201 L608.528 305 L104.528 305 L85.2531 201 L589.253 201 Z M425.765 398 L445.782 506 L341.782 506 L321.765 398 L425.765 398 Z M352 0 L372.017 108 L268.017 108 L248 0 L352 0 Z " />
<glyph glyph-name="oslash" unicode="&#xf8;" horiz-adv-x="675" d="M219.853 10 C234.556 3 272.405 -14 334.405 -14 C519.405 -14 661.947 140 687.895 280 C701.425 353 685.808 436 628.557 494 L692.643 570 L622.466 623 L557.01 545 C538.678 554 504.458 569 442.458 569 C270.458 569 118.066 432 90.0803 281 C77.2919 212 89.5381 127 149.306 61 L84.0346 -16 L153.212 -69 L219.853 10 Z M557.989 410 C586.575 370 591.123 319 583.524 278 C564.805 177 467.012 81 352.012 81 C319.012 81 300.31 88 289.051 92 L557.989 410 Z M219.874 145 C194.732 182 184.443 229 193.524 278 C212.058 378 308.851 474 424.851 474 C457.851 474 476.553 467 487.812 463 L219.874 145 Z " />
<glyph glyph-name="ugrave" unicode="&#xf9;" horiz-adv-x="624" d="M271.356 554 L160.152 254 C119.007 143 123.025 81 154.198 41 C181.224 6 228.811 -14 291.811 -14 C361.811 -14 436.448 12 482.241 60 L484.241 60 L462 0 L557 0 L762.356 554 L658.356 554 L548.264 257 C503.412 136 424.025 81 338.025 81 C261.025 81 213.369 117 264.152 254 L375.356 554 L271.356 554 Z M477.732 814 L407.931 739 L583.484 611 L657.138 691 L477.732 814 Z " />
<glyph glyph-name="uacute" unicode="&#xfa;" horiz-adv-x="624" d="M271.356 554 L160.152 254 C119.007 143 123.025 81 154.198 41 C181.224 6 228.811 -14 291.811 -14 C361.811 -14 436.448 12 482.241 60 L484.241 60 L462 0 L557 0 L762.356 554 L658.356 554 L548.264 257 C503.412 136 424.025 81 338.025 81 C261.025 81 213.369 117 264.152 254 L375.356 554 L271.356 554 Z M492.484 611 L762.707 733 L748.732 814 L478.285 686 L492.484 611 Z " />
<glyph glyph-name="ucircumflex" unicode="&#xfb;" horiz-adv-x="624" d="M271.356 554 L160.152 254 C119.007 143 123.025 81 154.198 41 C181.224 6 228.811 -14 291.811 -14 C361.811 -14 436.448 12 482.241 60 L484.241 60 L462 0 L557 0 L762.356 554 L658.356 554 L548.264 257 C503.412 136 424.025 81 338.025 81 C261.025 81 213.369 117 264.152 254 L375.356 554 L271.356 554 Z M736.268 632 L646.31 767 L546.31 767 L357.268 632 L476.268 632 L573.845 701 L617.268 632 L736.268 632 Z " />
<glyph glyph-name="udieresis" unicode="&#xfc;" horiz-adv-x="624" d="M271.356 554 L160.152 254 C119.007 143 123.025 81 154.198 41 C181.224 6 228.811 -14 291.811 -14 C361.811 -14 436.448 12 482.241 60 L484.241 60 L462 0 L557 0 L762.356 554 L658.356 554 L548.264 257 C503.412 136 424.025 81 338.025 81 C261.025 81 213.369 117 264.152 254 L375.356 554 L271.356 554 Z M618.974 758 L573.751 636 L677.751 636 L722.974 758 L618.974 758 Z M463.974 758 L418.751 636 L522.751 636 L567.974 758 L463.974 758 Z " />
<glyph glyph-name="yacute" unicode="&#xfd;" horiz-adv-x="574" d="M769.356 554 L657.356 554 L330.964 124 L327.356 554 L215.356 554 L235.077 11 L81.4246 -185 L189.425 -185 L769.356 554 Z M467.484 611 L737.707 733 L723.732 814 L453.285 686 L467.484 611 Z " />
<glyph glyph-name="thorn" unicode="&#xfe;" horiz-adv-x="686" d="M32.7123 -185 L136.712 -185 L185.827 80 L187.827 80 C202.784 42 251.405 -14 365.405 -14 C540.405 -14 672.094 130 698.042 270 C725.472 418 654.458 569 466.458 569 C395.458 569 314.268 541 261.407 477 L259.407 477 L308.151 740 L204.151 740 L32.7123 -185 Z M595.154 276 C573.469 159 470.012 81 372.012 81 C267.012 81 199.766 166 220.524 278 C239.429 380 332.851 474 441.851 474 C554.851 474 613.502 375 595.154 276 L595.154 276 Z " />
<glyph glyph-name="ydieresis" unicode="&#xff;" horiz-adv-x="574" d="M769.356 554 L657.356 554 L330.964 124 L327.356 554 L215.356 554 L235.077 11 L81.4246 -185 L189.425 -185 L769.356 554 Z M593.974 758 L548.751 636 L652.751 636 L697.974 758 L593.974 758 Z M438.974 758 L393.751 636 L497.751 636 L542.974 758 L438.974 758 Z " />
<glyph glyph-name="dotlessi" unicode="&#x131;" horiz-adv-x="238" d="M273.678 554 L169.678 554 L67 0 L171 0 L273.678 554 Z " />
<glyph glyph-name="Lslash" unicode="&#x141;" horiz-adv-x="444" d="M134.787 301 L79 0 L444 0 L462.349 99 L205.349 99 L256.502 375 L413.109 470 L433.682 581 L277.075 486 L324.151 740 L216.151 740 L155.36 412 L70.9074 361 L50.3347 250 L134.787 301 Z " />
<glyph glyph-name="lslash" unicode="&#x142;" horiz-adv-x="284" d="M353.993 437 L372.342 536 L283.519 483 L331.151 740 L227.151 740 L166.545 413 L89.0194 367 L70.6709 268 L148.196 314 L90 0 L194 0 L264.058 378 L265.17 384 L353.993 437 Z " />
<glyph glyph-name="OE" unicode="&#x152;" horiz-adv-x="1094" d="M831.151 740 L811.134 632 L809.134 632 C766.629 721 654.746 754 565.746 754 C305.746 754 138.454 542 105.834 366 C71.361 180 171.405 -14 421.405 -14 C447.405 -14 605.405 -14 711.646 106 L713.646 106 L694 0 L1048 0 L1066.35 99 L820.349 99 L862.05 324 L1108.05 324 L1126.4 423 L880.398 423 L920.802 641 L1166.8 641 L1185.15 740 L831.151 740 Z M436.754 85 C263.754 85 187.331 223 213.649 365 C238.855 501 363.397 655 543.397 655 C721.397 655 788.855 501 763.649 365 C737.331 223 609.754 85 436.754 85 L436.754 85 Z " />
<glyph glyph-name="oe" unicode="&#x153;" horiz-adv-x="1144" d="M1148.18 233 C1154.63 257 1156.49 267 1158.52 278 C1190.59 451 1081.46 569 924.458 569 C779.458 569 696.592 478 666.364 439 C651.295 471 596.458 569 438.458 569 C265.458 569 117.14 427 89.7096 279 C64.3181 142 148.405 -14 338.405 -14 C467.405 -14 564.047 65 608.426 121 C652.409 13 750.405 -14 817.405 -14 C842.405 -14 1014.78 -12 1123.62 176 L1018.62 176 C982.353 126 919.012 81 835.012 81 C736.012 81 679.025 162 679.369 234 L1148.18 233 Z M581.968 275 C561.21 163 454.012 81 349.012 81 C240.012 81 174.434 175 193.71 279 C213.356 385 315.851 474 421.851 474 C533.851 474 603.468 391 581.968 275 L581.968 275 Z M692.528 305 C733.437 434 833.851 474 907.665 473 C980.851 474 1070.81 436 1059.53 305 L692.528 305 Z " />
<glyph glyph-name="Scaron" unicode="&#x160;" horiz-adv-x="499" d="M99.1785 219 C38.0166 54 138.811 -14 240.811 -14 C376.811 -14 503.025 81 550.842 210 C616.823 388 493.573 417 413.546 452 C385.995 464 326.037 483 352.356 554 C368.295 597 424.794 655 488.794 655 C532.794 655 583.527 630 553.132 548 L661.132 548 C707.466 673 648.491 754 525.491 754 C385.491 754 275.863 639 243.985 553 C224.71 501 220.693 447 242.461 414 C264.228 381 283.78 369 368.694 331 C412.281 311 473.609 293 442.842 210 C413.929 132 345.508 85 277.508 85 C168.508 85 197.912 194 207.178 219 L99.1785 219 Z M408.437 940 L495.801 798 L595.801 798 L787.437 940 L673.437 940 L568.266 864 L522.437 940 L408.437 940 Z " />
<glyph glyph-name="scaron" unicode="&#x161;" horiz-adv-x="424" d="M539.866 407 C582.459 530 492.916 569 429.916 569 C324.916 569 227.003 491 196.607 409 C152.867 291 238.859 264 290.704 242 C337.661 223 374.36 206 356.196 157 C338.775 110 295.025 81 248.025 81 C190.025 81 172.481 120 191.463 182 L87.4634 182 C31.1203 30 140.811 -14 210.811 -14 C328.811 -14 426.094 65 462.421 163 C511.35 295 400.324 330 362.143 343 C321.332 357 285.78 369 302.831 415 C315.805 450 351.701 474 389.701 474 C427.701 474 446.546 452 435.866 407 L539.866 407 Z M309.905 774 L397.268 632 L497.268 632 L688.905 774 L574.905 774 L469.733 698 L423.905 774 L309.905 774 Z " />
<glyph glyph-name="Ydieresis" unicode="&#x178;" horiz-adv-x="593" d="M351 0 L449.971 267 L853.302 740 L733.302 740 L442.676 393 L408.302 740 L287.302 740 L341.971 267 L243 0 L351 0 Z M664.506 924 L619.284 802 L723.284 802 L768.506 924 L664.506 924 Z M509.506 924 L464.284 802 L568.284 802 L613.506 924 L509.506 924 Z " />
<glyph glyph-name="Zcaron" unicode="&#x17d;" horiz-adv-x="462" d="M459 0 L495.697 99 L163.697 99 L683.605 641 L720.302 740 L295.302 740 L258.605 641 L562.605 641 L40.6971 99 L4 0 L459 0 Z M410.437 940 L497.801 798 L597.801 798 L789.437 940 L675.437 940 L570.266 864 L524.437 940 L410.437 940 Z " />
<glyph glyph-name="zcaron" unicode="&#x17e;" horiz-adv-x="407" d="M234.356 554 L199.141 459 L439.141 459 L33.0249 81 L3 0 L404 0 L439.214 95 L167.214 95 L550.917 453 L588.356 554 L234.356 554 Z M320.905 774 L408.268 632 L508.268 632 L699.905 774 L585.905 774 L480.733 698 L434.905 774 L320.905 774 Z " />
<glyph glyph-name="florin" unicode="&#x192;" horiz-adv-x="555" d="M493.35 590 L504.354 617 C524.621 667 554.224 735 640.595 737 L673.275 827 C665.461 828 661.646 829 655.646 829 C558.646 829 457.858 760 407.466 623 L395.35 590 L298.35 590 L264.743 495 L360.743 495 L232.318 142 C173.849 -17 144.138 -64 29.1383 -64 L18.1383 -64 L-12.9862 -151 C-5.35687 -153 5.90178 -157 35.9018 -157 C218.902 -157 275.444 -3 315.275 104 L458.743 495 L555.743 495 L588.35 590 L493.35 590 Z " />
<glyph glyph-name="circumflex" unicode="&#x2c6;" horiz-adv-x="555" d="M584.134 632 L469.155 767 L369.155 767 L205.134 632 L324.134 632 L408.923 701 L465.134 632 L584.134 632 Z " />
<glyph glyph-name="caron" unicode="&#x2c7;" horiz-adv-x="555" d="M231.452 774 L345.134 632 L445.134 632 L610.452 774 L496.452 774 L405.367 698 L345.452 774 L231.452 774 Z " />
<glyph glyph-name="breve" unicode="&#x2d8;" horiz-adv-x="555" d="M228.116 756 C232.297 730 246.876 636 394.876 636 C543.876 636 591.741 727 607.116 756 L528.116 756 C484.035 707 425.035 707 408.035 707 C400.035 707 381.035 707 361.147 713 C341.259 719 320.668 732 307.116 756 L228.116 756 Z " />
<glyph glyph-name="dotaccent" unicode="&#x2d9;" horiz-adv-x="555" d="M469.487 758 L365.487 758 L342.876 636 L446.876 636 L469.487 758 Z " />
<glyph glyph-name="ring" unicode="&#x2da;" horiz-adv-x="555" d="M521.444 720 C532.75 781 492.017 831 431.017 831 C371.017 831 311.75 781 300.444 720 C289.324 660 330.057 610 390.057 610 C451.057 610 510.324 660 521.444 720 L521.444 720 Z M462.444 720 C457.255 692 429.992 669 400.992 669 C372.992 669 354.255 692 359.444 720 C364.819 749 392.082 772 420.082 772 C449.082 772 467.819 749 462.444 720 L462.444 720 Z " />
<glyph glyph-name="ogonek" unicode="&#x2db;" horiz-adv-x="555" d="M269 0 C213.625 -29 174.953 -65 166.798 -109 C162.721 -131 160.562 -202 268.562 -202 C304.562 -202 316.488 -197 332.6 -191 L344.647 -126 C328.535 -132 313.609 -137 297.609 -137 C261.609 -137 242.686 -115 248.246 -85 C255.104 -48 302.479 -19 337 0 L269 0 Z " />
<glyph glyph-name="tilde" unicode="&#x2dc;" horiz-adv-x="555" d="M259.617 640 C285.841 652 306.694 662 333.694 662 C353.694 662 446.876 636 469.876 636 C486.876 636 527.432 639 587.401 682 L556.078 745 C504.815 722 492.888 717 470.888 717 C450.888 717 356.892 744 334.892 744 C316.892 744 290.707 743 224.664 705 L259.617 640 Z " />
<glyph glyph-name="hungarumlaut" unicode="&#x2dd;" horiz-adv-x="555" d="M521.155 767 L376.134 632 L476.134 632 L640.155 767 L521.155 767 Z M358.155 767 L214.134 632 L313.134 632 L477.155 767 L358.155 767 Z " />
<glyph glyph-name="endash" unicode="&#x2013;" horiz-adv-x="500" d="M508.925 237 L528.201 341 L98.2006 341 L78.9253 237 L508.925 237 Z " />
<glyph glyph-name="emdash" unicode="&#x2014;" horiz-adv-x="1000" d="M1008.93 237 L1028.2 341 L98.2006 341 L78.9253 237 L1008.93 237 Z " />
<glyph glyph-name="quoteleft" unicode="&#x2018;" horiz-adv-x="277" d="M176.816 490 L280.816 490 L303.427 612 L266.427 612 L268.096 621 C275.88 663 299.548 672 315.475 677 L327.151 740 C223.259 719 204.432 639 197.389 601 L176.816 490 Z " />
<glyph glyph-name="quoteright" unicode="&#x2019;" horiz-adv-x="277" d="M328.151 740 L224.151 740 L201.54 618 L238.54 618 L236.871 609 C229.087 567 205.419 558 189.492 553 L177.816 490 C281.708 511 300.535 591 307.578 629 L328.151 740 Z " />
<glyph glyph-name="quotesinglbase" unicode="&#x201a;" horiz-adv-x="277" d="M213.611 122 L109.611 122 L87 0 L124 0 L122.332 -9 C114.548 -51 90.8797 -60 74.953 -65 L63.2766 -128 C167.169 -107 185.996 -27 193.039 11 L213.611 122 Z " />
<glyph glyph-name="quotedblleft" unicode="&#x201c;" horiz-adv-x="425" d="M329.816 490 L433.816 490 L456.427 612 L419.427 612 L421.096 621 C428.88 663 452.548 672 468.475 677 L480.151 740 C376.259 719 357.432 639 350.389 601 L329.816 490 Z M173.816 490 L277.816 490 L300.427 612 L263.427 612 L265.096 621 C272.88 663 296.548 672 312.475 677 L324.151 740 C220.259 719 201.432 639 194.389 601 L173.816 490 Z " />
<glyph glyph-name="quotedblright" unicode="&#x201d;" horiz-adv-x="425" d="M323.151 740 L219.151 740 L196.54 618 L233.54 618 L231.871 609 C224.087 567 200.419 558 184.492 553 L172.816 490 C276.708 511 295.535 591 302.578 629 L323.151 740 Z M479.151 740 L375.151 740 L352.54 618 L389.54 618 L387.871 609 C380.087 567 356.419 558 340.492 553 L328.816 490 C432.708 511 451.535 591 458.578 629 L479.151 740 Z " />
<glyph glyph-name="quotedblbase" unicode="&#x201e;" horiz-adv-x="425" d="M208.611 122 L104.611 122 L82 0 L119 0 L117.332 -9 C109.548 -51 85.8797 -60 69.953 -65 L58.2766 -128 C162.169 -107 180.996 -27 188.039 11 L208.611 122 Z M364.611 122 L260.611 122 L238 0 L275 0 L273.332 -9 C265.548 -51 241.88 -60 225.953 -65 L214.277 -128 C318.169 -107 336.996 -27 344.039 11 L364.611 122 Z " />
<glyph glyph-name="dagger" unicode="&#x2020;" horiz-adv-x="573" d="M476.151 740 L372.151 740 L336.38 547 L166.38 547 L148.773 452 L318.773 452 L193.855 -222 L297.855 -222 L422.773 452 L592.773 452 L610.38 547 L440.38 547 L476.151 740 Z " />
<glyph glyph-name="daggerdbl" unicode="&#x2021;" horiz-adv-x="573" d="M476.151 740 L372.151 740 L342.126 578 L172.126 578 L154.519 483 L324.519 483 L258.167 125 L88.1674 125 L70.5602 30 L240.56 30 L193.855 -222 L297.855 -222 L344.56 30 L514.56 30 L532.167 125 L362.167 125 L428.519 483 L598.519 483 L616.126 578 L446.126 578 L476.151 740 Z " />
<glyph glyph-name="bullet" unicode="&#x2022;" horiz-adv-x="606" d="M402.6 532 C313.6 532 235.071 459 219.873 377 C204.304 293 259.145 222 344.145 222 C427.145 222 508.934 291 524.873 377 C540.627 462 485.6 532 402.6 532 L402.6 532 Z " />
<glyph glyph-name="ellipsis" unicode="&#x2026;" horiz-adv-x="1000" d="M219 0 L241.611 122 L137.611 122 L115 0 L219 0 Z M552 0 L574.611 122 L470.611 122 L448 0 L552 0 Z M885 0 L907.611 122 L803.611 122 L781 0 L885 0 Z " />
<glyph glyph-name="perthousand" unicode="&#x2030;" horiz-adv-x="1228" d="M542.766 166 C552.219 217 600.003 259 651.003 259 C702.003 259 734.219 217 724.766 166 C715.314 115 667.53 73 616.53 73 C565.53 73 533.314 115 542.766 166 L542.766 166 Z M452.766 166 C434.418 67 501.591 -13 600.591 -13 C699.591 -13 796.418 67 814.766 166 C833.115 265 765.942 345 666.942 345 C567.942 345 471.115 265 452.766 166 L452.766 166 Z M843.766 166 C825.418 67 892.591 -13 991.591 -13 C1090.59 -13 1187.42 67 1205.77 166 C1224.11 265 1156.94 345 1057.94 345 C958.942 345 862.115 265 843.766 166 L843.766 166 Z M933.766 166 C943.219 217 991.003 259 1042 259 C1093 259 1125.22 217 1115.77 166 C1106.31 115 1058.53 73 1007.53 73 C956.53 73 924.314 115 933.766 166 L933.766 166 Z M158.014 572 C139.665 473 206.838 393 305.838 393 C404.838 393 501.665 473 520.014 572 C538.362 671 471.19 751 372.19 751 C273.19 751 176.362 671 158.014 572 L158.014 572 Z M248.014 572 C257.466 623 305.25 665 356.25 665 C407.25 665 439.466 623 430.014 572 C420.562 521 372.777 479 321.777 479 C270.777 479 238.562 521 248.014 572 L248.014 572 Z M797.151 740 L730.151 740 L169 0 L236 0 L797.151 740 Z " />
<glyph glyph-name="guilsinglleft" unicode="&#x2039;" horiz-adv-x="205" d="M259.036 475 L96.8299 339 L77.74 236 L189.905 102 L210.663 214 L149.378 288 L238.093 362 L259.036 475 Z " />
<glyph glyph-name="guilsinglright" unicode="&#x203a;" horiz-adv-x="205" d="M101.093 362 L162.378 288 L73.6625 214 L52.9046 102 L214.74 236 L233.83 339 L122.036 475 L101.093 362 Z " />
<glyph glyph-name="fraction" unicode="&#x2044;" horiz-adv-x="186" d="M-25 0 L420.151 740 L347.151 740 L-98 0 L-25 0 Z " />
<glyph glyph-name="trademark" unicode="&#x2122;" horiz-adv-x="990" d="M692.737 700 L549.737 700 L473.378 288 L571.378 288 L625.497 580 L627.497 580 L677.378 288 L752.378 288 L910.497 580 L912.497 580 L858.378 288 L956.378 288 L1032.74 700 L889.737 700 L743.549 440 L692.737 700 Z M467.737 700 L129.737 700 L115.096 621 L235.096 621 L173.378 288 L271.378 288 L333.096 621 L453.096 621 L467.737 700 Z " />
<glyph glyph-name="minus" unicode="&#x2212;" horiz-adv-x="600" d="M589.253 201 L608.528 305 L104.528 305 L85.2531 201 L589.253 201 Z " />
<glyph glyph-name="fi" unicode="&#xfb01;" horiz-adv-x="486" d="M556.151 740 L452.151 740 L429.54 618 L533.54 618 L556.151 740 Z M408.151 740 C347.151 740 317.595 737 267.591 710 C219.216 681 188.617 640 177.682 581 L172.678 554 L123.678 554 L106.071 459 L155.071 459 L70 0 L174 0 L259.071 459 L400.071 459 L315 0 L419 0 L521.678 554 L276.678 554 L281.682 581 C288.91 620 321.544 645 390.544 645 L408.151 740 Z " />
<glyph glyph-name="fl" unicode="&#xfb02;" horiz-adv-x="486" d="M408.151 740 C347.151 740 317.595 737 267.591 710 C219.216 681 188.617 640 177.682 581 L172.678 554 L123.678 554 L106.071 459 L155.071 459 L70 0 L174 0 L259.071 459 L400.071 459 L315 0 L419 0 L556.151 740 L452.151 740 L417.678 554 L276.678 554 L281.682 581 C288.91 620 321.544 645 390.544 645 L408.151 740 Z " />
</font>
</svg>
