<?xml version="1.0" encoding="UTF-8"?>
<svg xmlns="http://www.w3.org/2000/svg" xmlns:xlink="http://www.w3.org/1999/xlink" version="1.2" >
<font id="ITC Avant Garde Gothic Extra Light">
<font-face  font-family="ITC Avant Garde Gothic" units-per-em="1000" ascent="750" descent="-250" font-style="normal" font-weight="200" font-stretch="normal" cap-height="750" x-height="500" underline-position="-75" underline-thickness="50" />
<missing-glyph  horiz-adv-x="277" d="" />
<glyph glyph-name="NULL" d="" />
<glyph glyph-name="CR" unicode="&#xd;" horiz-adv-x="250" d="" />
<glyph glyph-name="space" unicode="&#x20;" horiz-adv-x="277" d="" />
<glyph glyph-name="exclam" unicode="&#x21;" horiz-adv-x="259" d="M145 740 L115 740 L115 166 L145 166 L145 740 Z M145 81 L115 81 L115 0 L145 0 L145 81 Z " />
<glyph glyph-name="quotedbl" unicode="&#x22;" horiz-adv-x="333" d="M124 444 L124 740 L94 740 L94 444 L124 444 Z M239 444 L239 740 L209 740 L209 444 L239 444 Z " />
<glyph glyph-name="numbersign" unicode="&#x23;" horiz-adv-x="555" d="M361 271 L512 271 L515 294 L363 294 L382 431 L534 431 L537 454 L386 454 L417 675 L393 675 L362 454 L219 454 L250 675 L226 675 L195 454 L44 454 L40 431 L191 431 L172 294 L21 294 L18 271 L169 271 L135 31 L160 31 L193 271 L336 271 L303 31 L327 31 L361 271 Z M339 294 L196 294 L216 431 L359 431 L339 294 Z " />
<glyph glyph-name="dollar" unicode="&#x24;" horiz-adv-x="555" d="M296 810 L266 810 L266 730 C174 718 112 649 112 559 C112 446 202 410 260 394 C352 368 443 343 443 226 C443 138 373 67 283 67 C210 67 123 113 113 227 L83 227 C89 122 165 47 266 38 L266 -57 L296 -57 L296 38 C402 45 473 134 473 225 C473 365 357 397 305 412 C219 436 142 458 142 559 C142 648 215 703 283 703 C330 703 415 671 427 568 L457 568 C451 636 409 716 296 730 L296 810 Z " />
<glyph glyph-name="percent" unicode="&#x25;" horiz-adv-x="719" d="M22 590 C22 496 91 427 185 427 C279 427 348 496 348 590 C348 684 279 753 185 753 C91 753 22 684 22 590 L22 590 Z M320 590 C320 510 265 452 185 452 C105 452 50 510 50 590 C50 670 105 728 185 728 C265 728 320 670 320 590 L320 590 Z M371 150 C371 56 440 -13 534 -13 C628 -13 697 56 697 150 C697 244 628 313 534 313 C440 313 371 244 371 150 L371 150 Z M669 150 C669 70 614 12 534 12 C454 12 399 70 399 150 C399 230 454 288 534 288 C614 288 669 230 669 150 L669 150 Z M603 740 L571 740 L114 0 L146 0 L603 740 Z " />
<glyph glyph-name="ampersand" unicode="&#x26;" horiz-adv-x="721" d="M643 467 L610 467 L485 228 L301 416 C388 455 470 490 470 592 C470 678 398 753 306 753 C216 753 150 679 150 596 C152 539 176 510 215 466 L253 425 C170 392 55 323 55 194 C55 92 135 -13 267 -13 C393 -13 435 67 469 131 L493 178 L678 -11 L699 9 L507 206 L643 467 Z M470 200 L443 144 C394 45 345 15 270 15 C154 15 86 102 85 193 C86 263 118 336 273 404 L470 200 Z M231 491 C207 516 180 551 180 600 C180 655 224 723 307 725 C386 723 440 660 440 593 C440 512 390 486 281 438 L231 491 Z " />
<glyph glyph-name="quotesingle" unicode="&#x27;" horiz-adv-x="222" d="M126 444 L126 740 L96 740 L96 444 L126 444 Z " />
<glyph glyph-name="parenleft" unicode="&#x28;" horiz-adv-x="425" d="M393 753 C222 653 103 453 103 241 C103 90 162 -52 254 -158 C305 -216 353 -248 393 -274 L393 -237 C251 -149 135 32 135 241 C135 449 251 630 393 718 L393 753 Z " />
<glyph glyph-name="parenright" unicode="&#x29;" horiz-adv-x="425" d="M32 -274 C203 -175 322 26 322 238 C322 389 264 530 171 637 C120 695 72 727 32 753 L32 716 C174 628 290 446 290 238 C290 30 174 -151 32 -240 L32 -274 Z " />
<glyph glyph-name="asterisk" unicode="&#x2a;" horiz-adv-x="573" d="M301 740 L272 740 L272 617 L166 679 L151 653 L258 593 L151 531 L166 506 L272 568 L272 444 L301 444 L301 567 L409 506 L423 530 L316 593 L421 654 L407 679 L301 617 L301 740 Z " />
<glyph glyph-name="plus" unicode="&#x2b;" horiz-adv-x="600" d="M314 501 L286 501 L286 264 L50 264 L50 236 L286 236 L286 0 L314 0 L314 236 L550 236 L550 264 L314 264 L314 501 Z " />
<glyph glyph-name="comma" unicode="&#x2c;" horiz-adv-x="277" d="M156 82 L124 82 L61 -72 L93 -72 L156 82 Z " />
<glyph glyph-name="hyphen" unicode="&#x2d;" horiz-adv-x="266" d="M0 291 L0 262 L266 262 L266 291 L0 291 Z " />
<glyph glyph-name="period" unicode="&#x2e;" horiz-adv-x="277" d="M154 81 L124 81 L124 0 L154 0 L154 81 Z " />
<glyph glyph-name="slash" unicode="&#x2f;" horiz-adv-x="518" d="M451 740 L418 740 L67 -100 L100 -100 L451 740 Z " />
<glyph glyph-name="zero" unicode="0" horiz-adv-x="555" d="M39 222 C39 41 193 -13 279 -13 C344 -13 515 32 515 222 L515 518 C515 660 405 753 274 753 C220 753 39 723 39 509 L39 222 Z M69 512 C69 653 167 726 274 726 C420 726 485 616 485 518 L485 222 C485 61 350 14 277 14 C171 14 69 88 69 222 L69 512 Z " />
<glyph glyph-name="one" unicode="1" horiz-adv-x="555" d="M305 740 L111 740 L111 713 L275 713 L275 0 L305 0 L305 740 Z " />
<glyph glyph-name="two" unicode="2" horiz-adv-x="555" d="M504 27 L97 27 L395 330 C458 400 499 452 504 526 C506 657 413 753 290 753 C189 753 72 684 69 514 L99 514 C102 657 190 726 286 726 C393 726 475 646 474 531 C471 469 439 417 375 352 L57 27 L57 0 L504 0 L504 27 Z " />
<glyph glyph-name="three" unicode="3" horiz-adv-x="555" d="M39 215 C40 71 153 -13 264 -13 C398 -13 492 79 492 217 C492 273 465 380 339 424 L339 426 C412 451 443 525 443 581 C443 694 358 753 270 753 C190 753 103 698 96 585 L126 585 C131 661 185 726 273 726 C355 726 413 666 413 582 C413 552 400 437 250 437 L211 437 L211 410 L251 410 C402 410 462 294 462 211 C462 104 387 14 267 14 C179 14 73 75 69 215 L39 215 Z " />
<glyph glyph-name="four" unicode="4" horiz-adv-x="555" d="M434 740 L393 740 L17 170 L17 144 L404 144 L404 0 L434 0 L434 144 L509 144 L509 171 L434 171 L434 740 Z M402 704 L404 704 L404 171 L52 171 L402 704 Z " />
<glyph glyph-name="five" unicode="5" horiz-adv-x="555" d="M141 740 L73 386 L99 379 C164 459 237 465 268 465 C382 465 485 367 485 238 C485 115 384 14 268 14 C173 14 66 85 51 217 L21 217 C38 57 172 -13 267 -13 C398 -13 515 96 515 241 C515 372 413 492 270 492 C188 492 139 455 111 434 L165 713 L473 713 L473 740 L141 740 Z " />
<glyph glyph-name="six" unicode="6" horiz-adv-x="555" d="M354 740 L320 740 L96 414 C66 370 33 315 33 229 C33 125 106 -13 277 -13 C419 -13 521 106 521 240 C521 388 409 489 280 489 C228 489 185 469 158 451 L156 452 L354 740 Z M63 231 C63 400 195 462 281 462 C376 462 491 389 491 237 C491 117 403 14 276 14 C142 14 63 117 63 231 L63 231 Z " />
<glyph glyph-name="seven" unicode="7" horiz-adv-x="555" d="M87 740 L87 713 L448 713 L119 0 L150 0 L480 713 L480 740 L87 740 Z " />
<glyph glyph-name="eight" unicode="8" horiz-adv-x="555" d="M99 579 C99 510 144 446 207 419 C117 390 54 308 52 209 C55 85 153 -13 277 -13 C401 -13 499 85 502 209 C500 309 436 391 347 419 C410 446 455 510 455 579 C455 676 375 753 277 753 C179 753 99 672 99 579 L99 579 Z M129 578 C129 661 194 726 277 726 C360 726 425 661 425 578 C425 496 360 431 277 431 C194 431 129 496 129 578 L129 578 Z M82 209 C82 318 168 404 277 404 C386 404 472 318 472 209 C472 100 386 14 277 14 C168 14 82 100 82 209 L82 209 Z " />
<glyph glyph-name="nine" unicode="9" horiz-adv-x="555" d="M201 0 L235 0 L459 326 C489 370 522 425 522 511 C522 615 449 753 278 753 C136 753 34 634 34 500 C34 352 146 251 275 251 C301 251 324 256 345 263 C366 271 384 280 397 289 L399 288 L201 0 Z M492 509 C492 340 360 278 274 278 C179 278 64 351 64 503 C64 623 152 726 279 726 C413 726 492 623 492 509 L492 509 Z " />
<glyph glyph-name="colon" unicode="&#x3a;" horiz-adv-x="277" d="M154 81 L124 81 L124 0 L154 0 L154 81 Z M154 530 L124 530 L124 449 L154 449 L154 530 Z " />
<glyph glyph-name="semicolon" unicode="&#x3b;" horiz-adv-x="277" d="M156 82 L124 82 L61 -72 L93 -72 L156 82 Z M153 530 L123 530 L123 449 L153 449 L153 530 Z " />
<glyph glyph-name="less" unicode="&#x3c;" horiz-adv-x="600" d="M50 267 L50 235 L550 0 L550 31 L83 251 L550 471 L550 502 L50 267 Z " />
<glyph glyph-name="equal" unicode="&#x3d;" horiz-adv-x="600" d="M50 361 L50 333 L550 333 L550 361 L50 361 Z M50 167 L50 139 L550 139 L550 167 L50 167 Z " />
<glyph glyph-name="greater" unicode="&#x3e;" horiz-adv-x="600" d="M50 31 L50 0 L550 235 L550 267 L50 502 L50 471 L517 251 L50 31 Z " />
<glyph glyph-name="question" unicode="&#x3f;" horiz-adv-x="536" d="M273 166 C273 211 272 275 348 350 C404 404 467 462 467 542 C467 667 366 752 255 752 C177 752 47 703 40 543 L70 543 C75 674 179 721 256 721 C361 721 437 640 437 544 C434 468 386 432 334 378 C247 295 245 231 243 166 L273 166 Z M272 81 L243 81 L243 0 L272 0 L272 81 Z " />
<glyph glyph-name="at" unicode="&#x40;" horiz-adv-x="796" d="M723 187 C660 65 523 13 417 13 C238 13 69 150 69 365 C69 581 236 727 427 727 C572 727 740 635 740 440 C740 272 606 187 534 187 C516 187 477 190 479 237 C479 257 491 284 492 288 L588 560 L560 560 L537 493 L535 493 C530 521 508 576 429 576 C319 576 217 434 217 295 C217 186 291 165 325 165 C396 165 434 208 452 236 L454 236 C454 165 516 161 533 161 C605 161 768 244 768 441 C768 646 587 753 425 753 C208 753 41 579 41 365 C41 154 206 -13 418 -13 C528 -13 687 42 748 187 L723 187 Z M475 324 C462 283 425 191 327 191 C294 191 245 210 245 295 C245 436 349 550 431 550 C461 550 517 530 519 462 C519 440 514 429 503 397 L475 324 Z " />
<glyph glyph-name="A" unicode="A" horiz-adv-x="687" d="M150 258 L537 258 L648 0 L680 0 L363 740 L324 740 L7 0 L39 0 L150 258 Z M343 712 L524 285 L163 285 L343 712 Z " />
<glyph glyph-name="B" unicode="B" horiz-adv-x="540" d="M77 740 L77 0 L262 0 C309 0 348 6 380 17 C452 48 496 106 497 197 C497 232 486 352 349 391 L349 393 C451 438 451 534 451 554 C451 609 432 677 364 713 C335 730 297 740 234 740 L77 740 Z M107 713 L234 713 C298 712 325 703 346 691 C384 674 421 625 421 558 C421 506 408 455 346 420 C320 406 285 401 241 401 L107 401 L107 713 Z M107 374 L241 374 C301 374 327 373 367 356 C428 329 467 271 467 197 C466 115 425 67 369 43 C339 32 302 27 263 27 L107 27 L107 374 Z " />
<glyph glyph-name="C" unicode="C" horiz-adv-x="786" d="M714 161 C693 132 598 14 425 14 C229 14 71 165 71 370 C71 575 229 726 425 726 C589 725 686 614 714 575 L749 575 C695 659 583 752 425 753 C213 753 41 592 41 370 C41 148 213 -13 425 -13 C580 -13 698 76 748 161 L714 161 Z " />
<glyph glyph-name="D" unicode="D" horiz-adv-x="701" d="M77 0 L286 0 C519 0 659 137 659 370 C659 603 519 740 286 740 L77 740 L77 0 Z M107 713 L286 713 C503 713 629 584 629 368 C629 154 500 27 286 27 L107 27 L107 713 Z " />
<glyph glyph-name="E" unicode="E" horiz-adv-x="547" d="M77 740 L77 0 L483 0 L483 27 L107 27 L107 359 L483 359 L483 386 L107 386 L107 713 L483 713 L483 740 L77 740 Z " />
<glyph glyph-name="F" unicode="F" horiz-adv-x="477" d="M77 740 L77 0 L107 0 L107 359 L440 359 L440 386 L107 386 L107 713 L440 713 L440 740 L77 740 Z " />
<glyph glyph-name="G" unicode="G" horiz-adv-x="853" d="M342 313 L342 286 L783 286 C756 148 613 14 425 14 C229 14 71 165 71 370 C71 575 229 726 425 726 C546 726 651 673 725 576 L761 576 C694 686 561 753 425 753 C213 753 41 592 41 370 C41 148 213 -13 425 -13 C632 -13 798 134 819 313 L342 313 Z " />
<glyph glyph-name="H" unicode="H" horiz-adv-x="628" d="M107 740 L77 740 L77 0 L107 0 L107 359 L521 359 L521 0 L551 0 L551 740 L521 740 L521 386 L107 386 L107 740 Z " />
<glyph glyph-name="I" unicode="I" horiz-adv-x="185" d="M107 740 L77 740 L77 0 L107 0 L107 740 Z " />
<glyph glyph-name="J" unicode="J" horiz-adv-x="453" d="M377 740 L347 740 L347 212 C347 168 344 134 331 101 C316 60 269 16 192 14 C160 14 66 27 39 141 L6 141 C24 39 108 -13 190 -13 C229 -13 272 -2 308 25 C333 44 348 67 359 90 C376 132 377 177 377 212 L377 740 Z " />
<glyph glyph-name="K" unicode="K" horiz-adv-x="536" d="M121 740 L91 740 L91 0 L121 0 L121 193 L241 351 L500 0 L536 0 L260 375 L536 740 L500 740 L123 240 L121 240 L121 740 Z " />
<glyph glyph-name="L" unicode="L" horiz-adv-x="423" d="M107 740 L77 740 L77 0 L420 0 L420 27 L107 27 L107 740 Z " />
<glyph glyph-name="M" unicode="M" horiz-adv-x="933" d="M125 740 L77 740 L77 0 L107 0 L107 710 L109 710 L458 0 L475 0 L823 710 L825 710 L824 710 L825 710 L825 0 L855 0 L855 740 L808 740 L467 48 L125 740 Z " />
<glyph glyph-name="N" unicode="N" horiz-adv-x="738" d="M122 740 L77 740 L77 0 L107 0 L107 710 L109 710 L623 0 L661 0 L661 740 L631 740 L631 40 L629 40 L122 740 Z " />
<glyph glyph-name="O" unicode="O" horiz-adv-x="851" d="M41 370 C41 148 213 -13 425 -13 C637 -13 809 148 809 370 C809 592 637 753 425 753 C213 753 41 592 41 370 L41 370 Z M71 370 C71 575 229 726 425 726 C621 726 779 575 779 370 C779 165 621 14 425 14 C229 14 71 165 71 370 L71 370 Z " />
<glyph glyph-name="P" unicode="P" horiz-adv-x="511" d="M67 740 L67 0 L97 0 L97 320 L239 320 C325 320 375 328 424 364 C468 396 499 463 499 530 C499 597 468 664 424 696 C375 732 327 740 239 740 L67 740 Z M97 713 L240 713 C324 713 366 703 408 672 C444 646 469 587 469 529 C469 473 444 414 408 388 C366 357 323 347 240 347 L97 347 L97 713 Z " />
<glyph glyph-name="Q" unicode="Q" horiz-adv-x="882" d="M885 18 C797 30 752 47 696 80 C737 120 824 208 824 370 C824 592 652 753 440 753 C228 753 56 592 56 370 C56 167 207 -13 443 -13 C554 -13 635 35 671 61 C732 25 768 2 885 -13 L885 18 Z M107 246 C98 270 86 308 86 370 C86 575 244 726 440 726 C636 726 794 575 794 370 C794 265 753 168 672 98 C545 195 531 205 499 222 C436 256 360 276 279 276 C200 276 147 259 107 246 L107 246 Z M119 217 C159 232 203 249 275 249 C367 249 447 224 526 172 C527 171 629 93 648 80 C610 51 535 14 444 14 C372 14 207 35 119 217 L119 217 Z " />
<glyph glyph-name="R" unicode="R" horiz-adv-x="554" d="M67 740 L67 0 L97 0 L97 713 L236 713 C323 713 377 712 422 683 C479 646 510 575 510 511 C510 453 494 402 447 353 C398 312 353 306 283 306 L237 306 L454 0 L492 0 L293 279 L322 280 C483 281 544 420 540 512 C540 598 493 679 433 709 C397 730 351 740 236 740 L67 740 Z " />
<glyph glyph-name="S" unicode="S" horiz-adv-x="518" d="M45 187 C55 47 170 -13 259 -13 C369 -13 474 72 474 194 C474 355 326 382 290 392 C188 418 90 447 91 564 C91 661 166 725 260 725 C379 725 412 639 423 580 L453 580 C437 701 349 752 262 752 C155 752 58 682 61 559 C61 420 190 389 255 373 C326 354 444 326 444 190 C444 84 351 14 258 14 C201 14 93 45 75 187 L45 187 Z " />
<glyph glyph-name="T" unicode="T" horiz-adv-x="443" d="M5 740 L5 713 L206 713 L206 0 L236 0 L236 713 L437 713 L437 740 L5 740 Z " />
<glyph glyph-name="U" unicode="U" horiz-adv-x="605" d="M76 260 C75 193 78 93 165 32 C203 4 252 -13 302 -13 C353 -13 402 4 440 32 C527 93 530 193 529 260 L529 740 L499 740 L499 260 C499 188 499 142 453 82 C421 40 360 14 304 14 C245 14 184 40 152 82 C106 142 106 188 106 260 L106 740 L76 740 L76 260 Z " />
<glyph glyph-name="V" unicode="V" horiz-adv-x="666" d="M41 740 L7 740 L322 0 L343 0 L659 740 L626 740 L333 50 L41 740 Z " />
<glyph glyph-name="W" unicode="W" horiz-adv-x="888" d="M44 740 L12 740 L223 0 L263 0 L442 661 L444 661 L625 0 L664 0 L876 740 L845 740 L647 41 L645 41 L454 740 L433 740 L244 41 L242 41 L44 740 Z " />
<glyph glyph-name="X" unicode="X" horiz-adv-x="555" d="M53 740 L17 740 L260 376 L8 0 L41 0 L276 350 L512 0 L547 0 L293 376 L536 740 L501 740 L276 404 L53 740 Z " />
<glyph glyph-name="Y" unicode="Y" horiz-adv-x="554" d="M48 740 L15 740 L262 255 L262 0 L292 0 L292 255 L539 740 L505 740 L277 289 L48 740 Z " />
<glyph glyph-name="Z" unicode="Z" horiz-adv-x="499" d="M493 0 L493 27 L69 27 L472 740 L6 740 L6 713 L423 713 L20 0 L493 0 Z " />
<glyph glyph-name="bracketleft" unicode="&#x5b;" horiz-adv-x="425" d="M344 753 C178 674 178 544 178 495 L178 -15 C178 -131 227 -216 344 -272 L344 -236 C216 -173 210 -66 210 -15 L210 495 C210 591 247 669 344 717 L344 753 Z " />
<glyph glyph-name="backslash" unicode="&#x5c;" horiz-adv-x="518" d="M418 -100 L451 -100 L100 740 L67 740 L418 -100 Z " />
<glyph glyph-name="bracketright" unicode="&#x5d;" horiz-adv-x="425" d="M81 -272 C247 -193 247 -63 247 -15 L247 495 C247 612 198 696 81 753 L81 717 C209 654 215 547 215 495 L215 -15 C215 -110 178 -188 81 -236 L81 -272 Z " />
<glyph glyph-name="asciicircum" unicode="&#x5e;" horiz-adv-x="600" d="M456 375 L488 375 L316 740 L284 740 L112 375 L144 375 L300 707 L456 375 Z " />
<glyph glyph-name="underscore" unicode="&#x5f;" horiz-adv-x="500" d="M500 -125 L500 -75 L0 -75 L0 -125 L500 -125 Z " />
<glyph glyph-name="grave" unicode="&#x60;" horiz-adv-x="555" d="M158 766 L144 743 L382 605 L395 628 L158 766 Z " />
<glyph glyph-name="a" unicode="a" horiz-adv-x="674" d="M596 530 L568 530 L568 395 L566 395 C540 464 448 543 320 543 C149 543 41 411 41 265 C41 122 146 -13 320 -13 C432 -13 520 42 566 132 L568 132 L568 0 L596 0 L596 530 Z M323 13 C152 13 70 145 69 265 C69 414 182 517 320 517 C462 517 571 410 571 265 C571 128 469 13 323 13 L323 13 Z " />
<glyph glyph-name="b" unicode="b" horiz-adv-x="674" d="M78 0 L106 0 L106 132 L108 132 C154 42 242 -13 354 -13 C528 -13 633 122 633 265 C633 411 525 543 354 543 C226 541 145 472 108 395 L106 395 L106 740 L78 740 L78 0 Z M351 13 C205 13 103 128 103 265 C103 410 212 517 354 517 C492 517 605 414 605 265 C604 145 522 13 351 13 L351 13 Z " />
<glyph glyph-name="c" unicode="c" horiz-adv-x="619" d="M552 167 C526 88 440 14 320 13 C185 13 69 115 69 265 C69 337 99 407 142 446 C197 495 246 516 321 517 C401 518 512 475 553 358 L584 358 C542 483 428 543 320 543 C159 543 41 421 41 264 L41 265 C41 99 166 -13 320 -13 C446 -11 546 59 583 167 L552 167 Z " />
<glyph glyph-name="d" unicode="d" horiz-adv-x="677" d="M596 740 L568 740 L568 395 L566 395 C540 464 448 543 320 543 C149 543 41 411 41 265 C41 122 146 -13 320 -13 C432 -13 520 42 566 132 L568 132 L568 0 L596 0 L596 740 Z M323 13 C152 13 70 145 69 265 C69 414 182 517 320 517 C462 517 571 410 571 265 C571 128 469 13 323 13 L323 13 Z " />
<glyph glyph-name="e" unicode="e" horiz-adv-x="619" d="M588 262 L589 277 C582 441 453 543 311 543 C153 543 31 423 31 264 L31 265 C31 107 148 -13 310 -13 C417 -14 519 40 568 153 L537 153 C495 63 409 13 311 13 C207 12 62 89 60 262 L588 262 Z M61 288 C69 422 180 517 311 517 C435 522 554 416 560 288 L61 288 Z " />
<glyph glyph-name="f" unicode="f" horiz-adv-x="263" d="M94 0 L122 0 L122 504 L260 504 L260 530 L122 530 L122 585 C120 718 224 723 260 726 L260 753 C94 745 94 619 94 582 L94 530 L7 530 L7 504 L94 504 L94 0 Z " />
<glyph glyph-name="g" unicode="g" horiz-adv-x="675" d="M68 -63 C114 -168 223 -226 329 -226 C411 -226 597 -163 598 59 L598 530 L570 530 L570 395 L568 395 C542 464 450 543 322 543 C148 543 40 411 40 265 C40 122 145 -13 322 -13 C434 -13 522 42 567 132 L570 132 L570 54 C570 -100 449 -200 325 -200 C277 -200 218 -184 169 -145 C131 -116 113 -84 100 -63 L68 -63 Z M573 265 C573 128 471 13 325 13 C152 13 69 145 68 265 C68 414 181 517 322 517 C464 517 573 410 573 265 L573 265 Z " />
<glyph glyph-name="h" unicode="h" horiz-adv-x="640" d="M106 740 L78 740 L78 0 L106 0 L106 305 C106 438 188 515 321 517 C375 517 430 504 471 467 C511 431 536 372 536 280 L536 0 L564 0 L564 280 C564 375 539 446 487 490 C445 525 389 543 321 543 C237 545 141 505 108 428 L106 428 L106 740 Z " />
<glyph glyph-name="i" unicode="i" horiz-adv-x="184" d="M106 530 L78 530 L78 0 L106 0 L106 530 Z M106 740 L78 740 L78 649 L106 649 L106 740 Z " />
<glyph glyph-name="j" unicode="j" horiz-adv-x="219" d="M123 530 L95 530 L95 6 C95 -98 84 -168 -14 -183 L-14 -213 C123 -197 123 -77 123 6 L123 530 Z M123 740 L95 740 L95 648 L123 648 L123 740 Z " />
<glyph glyph-name="k" unicode="k" horiz-adv-x="467" d="M106 740 L78 740 L78 0 L106 0 L106 97 L220 249 L414 0 L451 0 L238 271 L434 530 L397 530 L108 145 L106 145 L106 740 Z " />
<glyph glyph-name="l" unicode="l" horiz-adv-x="183" d="M106 740 L78 740 L78 0 L106 0 L106 740 Z " />
<glyph glyph-name="m" unicode="m" horiz-adv-x="949" d="M106 530 L78 530 L78 0 L106 0 L106 302 C106 379 126 426 155 459 C181 493 232 519 284 517 C346 515 393 494 424 454 C451 418 464 380 462 297 L462 0 L490 0 L490 297 C490 380 497 412 531 456 C564 499 621 517 668 517 C723 517 764 501 792 472 C832 432 846 370 846 297 L846 0 L874 0 L874 297 C874 378 857 447 813 490 C780 523 732 543 668 543 C608 543 551 519 514 478 C492 454 482 431 477 416 L475 416 C468 440 455 462 440 478 C404 521 348 543 284 543 C250 543 157 533 108 436 L106 436 L106 530 Z " />
<glyph glyph-name="n" unicode="n" horiz-adv-x="641" d="M106 530 L78 530 L78 0 L106 0 L106 305 C106 438 188 515 321 517 C375 517 430 504 471 467 C511 431 536 372 536 280 L536 0 L564 0 L564 280 C564 375 539 446 487 490 C445 525 389 543 321 543 C237 545 141 505 108 428 L106 428 L106 530 Z " />
<glyph glyph-name="o" unicode="o" horiz-adv-x="641" d="M41 265 C41 106 161 -13 320 -13 C479 -13 599 106 599 265 C599 423 479 543 320 543 C161 543 41 423 41 265 L41 265 Z M69 265 C69 409 177 517 320 517 C463 517 571 409 571 265 C571 121 463 13 320 13 C177 13 69 121 69 265 L69 265 Z " />
<glyph glyph-name="p" unicode="p" horiz-adv-x="677" d="M78 -213 L106 -213 L106 135 L108 135 C134 66 226 -13 354 -13 C525 -13 633 119 633 265 C633 408 528 543 354 543 C242 543 154 488 108 398 L106 398 L106 530 L78 530 L78 -213 Z M351 517 C522 517 604 385 605 265 C605 116 492 13 354 13 C212 13 103 120 103 265 C103 402 205 517 351 517 L351 517 Z " />
<glyph glyph-name="q" unicode="q" horiz-adv-x="674" d="M596 530 L568 530 L568 398 L566 398 C520 488 432 543 320 543 C146 543 41 408 41 265 C41 119 149 -13 320 -13 C448 -13 540 66 566 135 L568 135 L568 -213 L596 -213 L596 530 Z M323 517 C469 517 571 402 571 265 C571 120 462 13 320 13 C182 13 69 116 69 265 C70 385 152 517 323 517 L323 517 Z " />
<glyph glyph-name="r" unicode="r" horiz-adv-x="302" d="M106 530 L78 530 L78 0 L106 0 L106 287 C106 360 114 422 177 479 C225 513 261 515 293 516 L293 543 C247 540 156 534 108 434 L106 434 L106 530 Z " />
<glyph glyph-name="s" unicode="s" horiz-adv-x="426" d="M48 147 C42 50 123 -13 211 -13 C302 -13 371 59 366 146 C360 259 281 278 211 297 C136 318 98 342 95 406 C92 469 140 517 211 517 C268 518 323 485 323 405 L351 405 C351 496 288 542 211 543 C132 543 67 494 67 406 C70 315 130 292 210 269 C296 250 336 215 338 142 C340 73 290 13 211 13 C134 13 76 62 76 147 L48 147 Z " />
<glyph glyph-name="t" unicode="t" horiz-adv-x="296" d="M124 530 L7 530 L7 504 L124 504 L124 0 L152 0 L152 504 L288 504 L288 530 L152 530 L152 740 L124 740 L124 530 Z " />
<glyph glyph-name="u" unicode="u" horiz-adv-x="641" d="M536 0 L564 0 L564 530 L536 530 L536 229 C536 92 454 14 321 13 C267 13 212 26 171 63 C131 99 106 158 106 250 L106 530 L78 530 L78 250 C78 155 103 84 155 40 C197 5 253 -13 321 -13 C409 -15 501 25 534 107 L536 107 L536 0 Z " />
<glyph glyph-name="v" unicode="v" horiz-adv-x="481" d="M222 0 L258 0 L476 530 L444 530 L240 33 L33 530 L4 530 L222 0 Z " />
<glyph glyph-name="w" unicode="w" horiz-adv-x="758" d="M41 530 L10 530 L205 0 L237 0 L377 402 L379 402 L521 0 L553 0 L749 530 L717 530 L539 42 L537 42 L390 458 L369 458 L222 42 L220 42 L41 530 Z " />
<glyph glyph-name="x" unicode="x" horiz-adv-x="407" d="M46 530 L10 530 L187 266 L10 0 L46 0 L204 239 L363 0 L397 0 L221 266 L397 530 L363 530 L204 293 L46 530 Z " />
<glyph glyph-name="y" unicode="y" horiz-adv-x="481" d="M42 530 L11 530 L221 1 L127 -213 L159 -213 L480 530 L447 530 L238 39 L42 530 Z " />
<glyph glyph-name="z" unicode="z" horiz-adv-x="407" d="M30 530 L30 504 L341 504 L12 24 L12 0 L394 0 L394 26 L48 26 L377 503 L377 530 L30 530 Z " />
<glyph glyph-name="braceleft" unicode="&#x7b;" horiz-adv-x="425" d="M344 -272 L344 -246 L290 -246 C239 -246 228 -230 228 -129 L228 54 C228 139 197 215 147 237 C205 269 228 361 228 427 L228 612 C228 705 237 727 290 727 L344 727 L344 753 L278 753 C215 753 196 715 196 630 L196 443 C196 339 163 263 115 251 L115 223 C181 190 196 129 196 37 L196 -146 C196 -232 215 -272 278 -272 L344 -272 Z " />
<glyph glyph-name="bar" unicode="&#x7c;" horiz-adv-x="555" d="M263 740 L263 -100 L293 -100 L293 740 L263 740 Z " />
<glyph glyph-name="braceright" unicode="&#x7d;" horiz-adv-x="425" d="M81 -272 L147 -272 C210 -272 229 -232 229 -146 L229 37 C229 129 244 190 310 223 L310 251 C262 263 229 339 229 443 L229 630 C229 715 210 753 147 753 L81 753 L81 727 L135 727 C188 727 197 705 197 612 L197 427 C197 361 220 269 278 237 C228 215 197 139 197 54 L197 -129 C197 -230 186 -246 135 -246 L81 -246 L81 -272 Z " />
<glyph glyph-name="asciitilde" unicode="&#x7e;" horiz-adv-x="600" d="M95 211 C127 265 163 275 198 273 C231 273 271 254 310 236 C349 218 386 200 424 200 C461 200 499 227 523 271 L504 290 C485 261 461 228 422 228 C391 228 355 246 316 264 C278 281 238 301 198 301 C149 305 102 278 76 229 L95 211 Z " />
<glyph glyph-name="exclamdown" unicode="&#xa1;" horiz-adv-x="259" d="M115 -209 L145 -209 L145 365 L115 365 L115 -209 Z M115 450 L145 450 L145 531 L115 531 L115 450 Z " />
<glyph glyph-name="cent" unicode="&#xa2;" horiz-adv-x="555" d="M487 469 C440 565 364 584 307 591 L307 687 L277 687 L277 592 C127 579 68 460 68 369 C68 275 134 156 277 147 L277 39 L307 39 L307 147 C341 149 436 164 488 265 L454 265 C437 232 386 176 290 176 C163 176 98 274 98 372 C98 473 171 563 291 563 C334 563 409 552 454 469 L487 469 Z " />
<glyph glyph-name="sterling" unicode="&#xa3;" horiz-adv-x="555" d="M404 393 L131 393 C91 437 82 481 81 515 C85 640 168 723 289 725 C385 725 464 660 490 569 L521 569 C491 688 391 752 289 752 C150 752 51 648 51 515 C52 460 73 417 92 393 L6 393 L6 366 L118 366 C193 307 234 252 234 171 C234 87 194 43 184 27 L36 27 L36 0 L306 0 C405 0 437 11 485 53 C507 75 545 127 545 200 C545 227 542 235 539 249 L508 249 C511 237 515 223 515 199 C515 160 502 115 462 72 C431 43 401 27 311 27 L219 27 C264 96 264 154 264 172 C264 271 198 337 160 364 L160 366 L404 366 L404 393 Z " />
<glyph glyph-name="currency" unicode="&#xa4;" horiz-adv-x="555" d="M492 105 L513 126 L436 203 C472 242 492 290 492 343 C492 397 472 444 439 481 L515 558 L493 579 L417 503 C378 537 329 556 277 556 C226 556 177 537 137 502 L60 579 L39 558 L116 481 C82 444 62 396 62 343 C62 291 82 243 118 203 L41 126 L61 105 L138 181 C176 150 225 130 277 130 C328 130 376 149 416 181 L492 105 Z M92 343 C92 447 180 526 277 526 C376 526 462 446 462 343 C462 242 376 160 277 160 C180 160 92 242 92 343 L92 343 Z " />
<glyph glyph-name="yen" unicode="&#xa5;" horiz-adv-x="555" d="M509 409 L320 409 L524 740 L492 740 L276 390 L64 740 L32 740 L232 409 L47 409 L47 383 L247 383 L261 357 L261 275 L47 275 L47 249 L261 249 L261 0 L291 0 L291 249 L509 249 L509 275 L291 275 L291 357 L304 383 L509 383 L509 409 Z " />
<glyph glyph-name="brokenbar" unicode="&#xa6;" horiz-adv-x="555" d="M263 740 L263 404 L293 404 L293 740 L263 740 Z M263 236 L263 -100 L293 -100 L293 236 L263 236 Z " />
<glyph glyph-name="section" unicode="&#xa7;" horiz-adv-x="573" d="M476 586 C476 693 402 753 294 753 C194 753 115 690 115 584 C115 527 143 494 161 477 C90 441 60 378 60 324 C60 215 137 183 161 170 L356 80 C435 44 457 7 460 -47 C457 -138 390 -193 288 -193 C196 -194 106 -148 105 -30 L105 1 L77 1 L77 -31 C77 -223 272 -223 289 -223 C406 -223 488 -148 488 -47 C488 -13 479 37 418 80 C475 113 513 171 513 235 C513 334 420 377 394 389 L244 460 C201 480 145 507 143 587 C144 668 204 723 294 723 C371 723 438 699 448 586 L476 586 Z M380 363 C422 342 484 314 485 233 C484 166 427 112 390 97 L165 201 C118 224 89 266 88 321 C89 386 128 432 182 458 L380 363 Z " />
<glyph glyph-name="dieresis" unicode="&#xa8;" horiz-adv-x="555" d="M232 734 L203 734 L203 618 L232 618 L232 734 Z M352 734 L323 734 L323 618 L352 618 L352 734 Z " />
<glyph glyph-name="copyright" unicode="&#xa9;" horiz-adv-x="800" d="M600 451 C589 539 507 601 407 601 C277 601 190 506 190 369 C190 210 301 140 404 140 C506 140 600 208 609 328 L581 328 C564 177 437 166 405 166 C321 166 218 220 218 370 C218 500 302 575 406 575 C474 575 554 542 572 451 L600 451 Z M400 751 C179 751 18 579 18 370 C18 151 186 -11 400 -11 C611 -11 781 153 781 370 C781 581 618 751 400 751 L400 751 Z M400 725 C605 725 753 564 753 370 C753 169 597 15 400 15 C200 15 46 171 46 370 C46 563 194 725 400 725 L400 725 Z " />
<glyph glyph-name="ordfeminine" unicode="&#xaa;" horiz-adv-x="439" d="M360 495 L360 412 L388 412 L388 745 L360 745 L360 660 L358 660 C350 679 336 697 321 711 C292 738 249 753 207 753 C105 753 26 675 26 579 C26 488 98 404 207 404 C225 404 262 405 299 428 C336 452 351 477 358 495 L360 495 Z M54 575 C54 672 131 727 207 727 C289 727 360 662 360 578 C360 500 299 430 208 430 C109 430 54 510 54 575 L54 575 Z " />
<glyph glyph-name="guillemotleft" unicode="&#xab;" horiz-adv-x="351" d="M49 276 L160 84 L180 110 L84 276 L180 443 L160 469 L49 276 Z M160 276 L272 84 L291 110 L195 276 L291 443 L272 469 L160 276 Z " />
<glyph glyph-name="logicalnot" unicode="&#xac;" horiz-adv-x="600" d="M50 361 L50 333 L522 333 L522 139 L550 139 L550 361 L50 361 Z " />
<glyph glyph-name="registered" unicode="&#xae;" horiz-adv-x="800" d="M235 589 L235 146 L263 146 L263 347 L405 347 C528 347 534 308 538 246 C543 164 543 157 550 146 L579 146 C570 162 570 171 564 260 C561 307 550 345 487 360 L487 362 C534 375 573 411 573 470 C573 589 446 589 420 589 L235 589 Z M415 563 C448 563 545 563 545 470 C545 375 435 377 403 373 L263 373 L263 563 L415 563 Z M400 751 C179 751 18 579 18 370 C18 151 186 -11 400 -11 C611 -11 781 153 781 370 C781 581 618 751 400 751 L400 751 Z M400 725 C605 725 753 564 753 370 C753 169 597 15 400 15 C200 15 46 171 46 370 C46 563 194 725 400 725 L400 725 Z " />
<glyph glyph-name="macron" unicode="&#xaf;" horiz-adv-x="555" d="M455 690 L99 690 L99 660 L455 660 L455 690 Z " />
<glyph glyph-name="degree" unicode="&#xb0;" horiz-adv-x="400" d="M343 566 C343 646 280 709 200 709 C120 709 57 646 57 566 C57 486 120 423 200 423 C280 423 343 486 343 566 L343 566 Z M85 566 C85 630 135 681 200 681 C265 681 315 630 315 566 C315 502 265 451 200 451 C135 451 85 502 85 566 L85 566 Z " />
<glyph glyph-name="plusminus" unicode="&#xb1;" horiz-adv-x="600" d="M286 309 L48 309 L48 281 L286 281 L286 84 L314 84 L314 281 L552 281 L552 309 L314 309 L314 506 L286 506 L286 309 Z M48 0 L552 0 L552 28 L48 28 L48 0 Z " />
<glyph glyph-name="twosuperior" unicode="&#xb2;" horiz-adv-x="351" d="M307 321 L75 321 L240 494 C279 536 304 572 304 616 C304 698 252 748 176 748 C114 748 43 707 43 600 L71 600 C71 677 112 723 174 723 C252 723 276 666 276 616 C276 583 259 554 221 512 L36 319 L36 296 L307 296 L307 321 Z " />
<glyph glyph-name="threesuperior" unicode="&#xb3;" horiz-adv-x="351" d="M33 430 C34 335 105 288 172 288 C253 288 311 346 311 427 C311 483 275 531 226 551 C243 560 283 585 283 643 C283 706 231 748 177 748 C131 748 71 719 67 642 L95 642 C97 690 129 724 177 723 C226 722 255 685 255 642 C255 628 249 562 164 562 L137 562 L137 537 L164 537 C250 537 283 471 283 425 C283 361 242 313 172 313 C128 313 63 342 61 430 L33 430 Z " />
<glyph glyph-name="acute" unicode="&#xb4;" horiz-adv-x="555" d="M160 628 L173 605 L411 743 L397 766 L160 628 Z " />
<glyph glyph-name="mu" unicode="&#xb5;" horiz-adv-x="561" d="M73 -181 L101 -181 L101 77 L103 77 C121 45 161 -13 273 -13 C400 -13 440 76 454 119 L456 119 L456 0 L484 0 L484 530 L456 530 L456 278 C456 97 382 13 273 13 C238 13 182 19 140 69 C102 113 101 176 101 230 L101 530 L73 530 L73 -181 Z " />
<glyph glyph-name="paragraph" unicode="&#xb6;" horiz-adv-x="561" d="M239 -126 L269 -126 L269 710 L398 710 L398 -126 L428 -126 L428 712 L492 712 L492 740 L246 740 C176 740 126 723 102 708 C54 678 12 618 12 540 C12 436 87 343 219 343 L239 343 L239 -126 Z " />
<glyph glyph-name="periodcentered" unicode="&#xb7;" horiz-adv-x="277" d="M154 296 L124 296 L124 215 L154 215 L154 296 Z " />
<glyph glyph-name="cedilla" unicode="&#xb8;" horiz-adv-x="555" d="M290 0 L261 0 L215 -100 L237 -105 C247 -88 261 -80 278 -80 C302 -80 323 -98 324 -125 C323 -158 300 -174 278 -174 C271 -174 240 -174 231 -139 L204 -139 C214 -198 265 -201 278 -201 C327 -201 351 -161 351 -125 C351 -91 326 -54 279 -54 C273 -54 268 -56 266 -57 L264 -56 L290 0 Z " />
<glyph glyph-name="onesuperior" unicode="&#xb9;" horiz-adv-x="351" d="M197 740 L74 740 L74 715 L169 715 L169 296 L197 296 L197 740 Z " />
<glyph glyph-name="ordmasculine" unicode="&#xba;" horiz-adv-x="439" d="M44 575 C44 480 124 404 218 404 C307 404 395 473 395 579 C395 672 323 753 218 753 C119 752 44 676 44 575 L44 575 Z M72 576 C72 668 142 727 220 727 C305 727 366 659 367 579 C366 492 296 430 218 430 C137 430 72 498 72 576 L72 576 Z " />
<glyph glyph-name="guillemotright" unicode="&#xbb;" horiz-adv-x="351" d="M191 469 L171 443 L267 276 L171 110 L191 84 L302 276 L191 469 Z M79 469 L60 443 L156 276 L60 110 L79 84 L191 276 L79 469 Z " />
<glyph glyph-name="onequarter" unicode="&#xbc;" horiz-adv-x="700" d="M502 740 L472 740 L143 0 L172 0 L502 740 Z M586 407 L588 405 L587 407 L587 110 L393 110 L586 407 Z M167 740 L44 740 L44 715 L139 715 L139 296 L167 296 L167 740 Z M615 444 L582 444 L359 106 L359 85 L587 85 L587 0 L615 0 L615 85 L657 85 L657 110 L615 110 L615 444 Z " />
<glyph glyph-name="onehalf" unicode="&#xbd;" horiz-adv-x="750" d="M167 740 L44 740 L44 715 L139 715 L139 296 L167 296 L167 740 Z M502 740 L472 740 L143 0 L172 0 L502 740 Z M707 25 L475 25 L640 198 C679 240 704 276 704 320 C704 402 652 452 576 452 C514 452 443 411 443 304 L471 304 C471 381 512 427 574 427 C652 427 676 370 676 320 C676 287 659 258 621 216 L436 23 L436 0 L707 0 L707 25 Z " />
<glyph glyph-name="threequarters" unicode="&#xbe;" horiz-adv-x="807" d="M694 407 L696 405 L695 407 L695 110 L501 110 L694 407 Z M610 740 L580 740 L251 0 L280 0 L610 740 Z M723 444 L690 444 L467 106 L467 85 L695 85 L695 0 L723 0 L723 85 L765 85 L765 110 L723 110 L723 444 Z M40 430 C41 335 112 288 179 288 C260 288 318 346 318 427 C318 483 282 531 233 551 C250 560 290 585 290 643 C290 706 238 748 184 748 C138 748 78 719 74 642 L102 642 C104 690 136 724 184 723 C233 722 262 685 262 642 C262 628 256 562 171 562 L144 562 L144 537 L171 537 C257 537 290 471 290 425 C290 361 249 313 179 313 C135 313 70 342 68 430 L40 430 Z " />
<glyph glyph-name="questiondown" unicode="&#xbf;" horiz-adv-x="536" d="M263 364 C263 319 264 255 188 180 C132 126 69 68 69 -12 C69 -137 170 -222 281 -222 C359 -222 489 -173 496 -13 L466 -13 C461 -144 357 -191 280 -191 C175 -191 99 -110 99 -14 C102 62 150 98 202 152 C289 235 291 299 293 364 L263 364 Z M264 449 L293 449 L293 530 L264 530 L264 449 Z " />
<glyph glyph-name="Agrave" unicode="&#xc0;" horiz-adv-x="687" d="M150 258 L537 258 L648 0 L680 0 L363 740 L324 740 L7 0 L39 0 L150 258 Z M343 712 L524 285 L163 285 L343 712 Z M224 951 L210 928 L448 790 L461 813 L224 951 Z " />
<glyph glyph-name="Aacute" unicode="&#xc1;" horiz-adv-x="687" d="M150 258 L537 258 L648 0 L680 0 L363 740 L324 740 L7 0 L39 0 L150 258 Z M343 712 L524 285 L163 285 L343 712 Z M226 813 L239 790 L477 928 L463 951 L226 813 Z " />
<glyph glyph-name="Acircumflex" unicode="&#xc2;" horiz-adv-x="687" d="M150 258 L537 258 L648 0 L680 0 L363 740 L324 740 L7 0 L39 0 L150 258 Z M343 712 L524 285 L163 285 L343 712 Z M343 933 L148 823 L173 808 L343 902 L513 808 L539 823 L343 933 Z " />
<glyph glyph-name="Atilde" unicode="&#xc3;" horiz-adv-x="687" d="M150 258 L537 258 L648 0 L680 0 L363 740 L324 740 L7 0 L39 0 L150 258 Z M343 712 L524 285 L163 285 L343 712 Z M504 881 C477 865 460 858 434 858 C400 858 382 865 345 885 C300 906 281 909 260 909 C213 909 184 892 162 874 L182 854 C197 866 225 881 260 881 C286 881 300 876 344 853 C380 832 408 828 435 828 C468 828 500 844 524 860 L504 881 Z " />
<glyph glyph-name="Adieresis" unicode="&#xc4;" horiz-adv-x="687" d="M150 258 L537 258 L648 0 L680 0 L363 740 L324 740 L7 0 L39 0 L150 258 Z M343 712 L524 285 L163 285 L343 712 Z M298 919 L269 919 L269 803 L298 803 L298 919 Z M418 919 L389 919 L389 803 L418 803 L418 919 Z " />
<glyph glyph-name="Aring" unicode="&#xc5;" horiz-adv-x="687" d="M150 258 L537 258 L648 0 L680 0 L363 740 L324 740 L7 0 L39 0 L150 258 Z M343 712 L524 285 L163 285 L343 712 Z M343 937 C294 937 252 897 252 846 C252 796 293 755 343 755 C394 755 435 796 435 846 C435 896 394 937 343 937 L343 937 Z M343 911 C379 911 407 882 407 847 C407 813 379 784 343 784 C308 784 280 813 280 847 C280 882 308 911 343 911 L343 911 Z " />
<glyph glyph-name="AE" unicode="&#xc6;" horiz-adv-x="944" d="M504 740 L-8 0 L26 0 L209 264 L524 264 L524 0 L870 0 L870 27 L554 27 L554 359 L870 359 L870 386 L554 386 L554 713 L870 713 L870 740 L504 740 Z M522 722 L524 722 L524 291 L231 291 L522 722 Z " />
<glyph glyph-name="Ccedilla" unicode="&#xc7;" horiz-adv-x="786" d="M714 161 C693 132 598 14 425 14 C229 14 71 165 71 370 C71 575 229 726 425 726 C589 725 686 614 714 575 L749 575 C695 659 583 752 425 753 C213 753 41 592 41 370 C41 159 196 4 392 -11 L351 -100 L373 -105 C383 -88 397 -80 414 -80 C438 -80 459 -98 460 -125 C459 -158 436 -174 414 -174 C407 -174 376 -174 367 -139 L340 -139 C350 -198 401 -201 414 -201 C463 -201 487 -161 487 -125 C487 -91 462 -54 415 -54 C409 -54 404 -56 402 -57 L400 -56 L420 -13 L425 -13 C580 -13 698 76 748 161 L714 161 Z " />
<glyph glyph-name="Egrave" unicode="&#xc8;" horiz-adv-x="547" d="M77 740 L77 0 L483 0 L483 27 L107 27 L107 359 L483 359 L483 386 L107 386 L107 713 L483 713 L483 740 L77 740 Z M154 951 L140 928 L378 790 L391 813 L154 951 Z " />
<glyph glyph-name="Eacute" unicode="&#xc9;" horiz-adv-x="547" d="M77 740 L77 0 L483 0 L483 27 L107 27 L107 359 L483 359 L483 386 L107 386 L107 713 L483 713 L483 740 L77 740 Z M156 813 L169 790 L407 928 L393 951 L156 813 Z " />
<glyph glyph-name="Ecircumflex" unicode="&#xca;" horiz-adv-x="547" d="M77 740 L77 0 L483 0 L483 27 L107 27 L107 359 L483 359 L483 386 L107 386 L107 713 L483 713 L483 740 L77 740 Z M273 933 L78 823 L103 808 L273 902 L443 808 L469 823 L273 933 Z " />
<glyph glyph-name="Edieresis" unicode="&#xcb;" horiz-adv-x="547" d="M77 740 L77 0 L483 0 L483 27 L107 27 L107 359 L483 359 L483 386 L107 386 L107 713 L483 713 L483 740 L77 740 Z M228 919 L199 919 L199 803 L228 803 L228 919 Z M348 919 L319 919 L319 803 L348 803 L348 919 Z " />
<glyph glyph-name="Igrave" unicode="&#xcc;" horiz-adv-x="185" d="M107 740 L77 740 L77 0 L107 0 L107 740 Z M-47 951 L-61 928 L177 790 L190 813 L-47 951 Z " />
<glyph glyph-name="Iacute" unicode="&#xcd;" horiz-adv-x="185" d="M107 740 L77 740 L77 0 L107 0 L107 740 Z M-5 813 L8 790 L246 928 L232 951 L-5 813 Z " />
<glyph glyph-name="Icircumflex" unicode="&#xce;" horiz-adv-x="185" d="M107 740 L77 740 L77 0 L107 0 L107 740 Z M92 933 L-103 823 L-78 808 L92 902 L262 808 L288 823 L92 933 Z " />
<glyph glyph-name="Idieresis" unicode="&#xcf;" horiz-adv-x="185" d="M107 740 L77 740 L77 0 L107 0 L107 740 Z M47 919 L18 919 L18 803 L47 803 L47 919 Z M167 919 L138 919 L138 803 L167 803 L167 919 Z " />
<glyph glyph-name="Eth" unicode="&#xd0;" horiz-adv-x="701" d="M77 359 L77 0 L286 0 C519 0 659 137 659 370 C659 603 519 740 286 740 L77 740 L77 386 L0 386 L0 359 L77 359 Z M358 386 L107 386 L107 713 L286 713 C503 713 629 584 629 368 C629 154 500 27 286 27 L107 27 L107 359 L358 359 L358 386 Z " />
<glyph glyph-name="Ntilde" unicode="&#xd1;" horiz-adv-x="738" d="M122 740 L77 740 L77 0 L107 0 L107 710 L109 710 L623 0 L661 0 L661 740 L631 740 L631 40 L629 40 L122 740 Z M530 881 C503 865 486 858 460 858 C426 858 408 865 371 885 C326 906 307 909 286 909 C239 909 210 892 188 874 L208 854 C223 866 251 881 286 881 C312 881 326 876 370 853 C406 832 434 828 461 828 C494 828 526 844 550 860 L530 881 Z " />
<glyph glyph-name="Ograve" unicode="&#xd2;" horiz-adv-x="851" d="M41 370 C41 148 213 -13 425 -13 C637 -13 809 148 809 370 C809 592 637 753 425 753 C213 753 41 592 41 370 L41 370 Z M71 370 C71 575 229 726 425 726 C621 726 779 575 779 370 C779 165 621 14 425 14 C229 14 71 165 71 370 L71 370 Z M306 951 L292 928 L530 790 L543 813 L306 951 Z " />
<glyph glyph-name="Oacute" unicode="&#xd3;" horiz-adv-x="851" d="M41 370 C41 148 213 -13 425 -13 C637 -13 809 148 809 370 C809 592 637 753 425 753 C213 753 41 592 41 370 L41 370 Z M71 370 C71 575 229 726 425 726 C621 726 779 575 779 370 C779 165 621 14 425 14 C229 14 71 165 71 370 L71 370 Z M308 813 L321 790 L559 928 L545 951 L308 813 Z " />
<glyph glyph-name="Ocircumflex" unicode="&#xd4;" horiz-adv-x="851" d="M41 370 C41 148 213 -13 425 -13 C637 -13 809 148 809 370 C809 592 637 753 425 753 C213 753 41 592 41 370 L41 370 Z M71 370 C71 575 229 726 425 726 C621 726 779 575 779 370 C779 165 621 14 425 14 C229 14 71 165 71 370 L71 370 Z M425 933 L230 823 L255 808 L425 902 L595 808 L621 823 L425 933 Z " />
<glyph glyph-name="Otilde" unicode="&#xd5;" horiz-adv-x="851" d="M41 370 C41 148 213 -13 425 -13 C637 -13 809 148 809 370 C809 592 637 753 425 753 C213 753 41 592 41 370 L41 370 Z M71 370 C71 575 229 726 425 726 C621 726 779 575 779 370 C779 165 621 14 425 14 C229 14 71 165 71 370 L71 370 Z M586 881 C559 865 542 858 516 858 C482 858 464 865 427 885 C382 906 363 909 342 909 C295 909 266 892 244 874 L264 854 C279 866 307 881 342 881 C368 881 382 876 426 853 C462 832 490 828 517 828 C550 828 582 844 606 860 L586 881 Z " />
<glyph glyph-name="Odieresis" unicode="&#xd6;" horiz-adv-x="851" d="M41 370 C41 148 213 -13 425 -13 C637 -13 809 148 809 370 C809 592 637 753 425 753 C213 753 41 592 41 370 L41 370 Z M71 370 C71 575 229 726 425 726 C621 726 779 575 779 370 C779 165 621 14 425 14 C229 14 71 165 71 370 L71 370 Z M380 919 L351 919 L351 803 L380 803 L380 919 Z M500 919 L471 919 L471 803 L500 803 L500 919 Z " />
<glyph glyph-name="multiply" unicode="&#xd7;" horiz-adv-x="600" d="M70 499 L50 477 L279 251 L50 23 L70 2 L300 231 L530 2 L550 23 L321 251 L550 477 L530 499 L300 271 L70 499 Z " />
<glyph glyph-name="Oslash" unicode="&#xd8;" horiz-adv-x="851" d="M207 87 C124 150 71 251 71 370 C71 575 229 726 425 726 C500 726 569 704 627 665 L207 87 Z M651 647 C729 584 779 485 779 370 C779 165 621 14 425 14 C354 14 288 34 232 71 L651 647 Z M644 688 C583 729 507 753 425 753 C213 753 41 592 41 370 C41 241 100 132 190 64 L94 -68 L117 -86 L215 48 C274 9 347 -13 425 -13 C637 -13 809 148 809 370 C809 495 755 600 668 670 L756 791 L732 809 L644 688 Z " />
<glyph glyph-name="Ugrave" unicode="&#xd9;" horiz-adv-x="605" d="M76 260 C75 193 78 93 165 32 C203 4 252 -13 302 -13 C353 -13 402 4 440 32 C527 93 530 193 529 260 L529 740 L499 740 L499 260 C499 188 499 142 453 82 C421 40 360 14 304 14 C245 14 184 40 152 82 C106 142 106 188 106 260 L106 740 L76 740 L76 260 Z M183 951 L169 928 L407 790 L420 813 L183 951 Z " />
<glyph glyph-name="Uacute" unicode="&#xda;" horiz-adv-x="605" d="M76 260 C75 193 78 93 165 32 C203 4 252 -13 302 -13 C353 -13 402 4 440 32 C527 93 530 193 529 260 L529 740 L499 740 L499 260 C499 188 499 142 453 82 C421 40 360 14 304 14 C245 14 184 40 152 82 C106 142 106 188 106 260 L106 740 L76 740 L76 260 Z M185 813 L198 790 L436 928 L422 951 L185 813 Z " />
<glyph glyph-name="Ucircumflex" unicode="&#xdb;" horiz-adv-x="605" d="M76 260 C75 193 78 93 165 32 C203 4 252 -13 302 -13 C353 -13 402 4 440 32 C527 93 530 193 529 260 L529 740 L499 740 L499 260 C499 188 499 142 453 82 C421 40 360 14 304 14 C245 14 184 40 152 82 C106 142 106 188 106 260 L106 740 L76 740 L76 260 Z M302 933 L107 823 L132 808 L302 902 L472 808 L498 823 L302 933 Z " />
<glyph glyph-name="Udieresis" unicode="&#xdc;" horiz-adv-x="605" d="M76 260 C75 193 78 93 165 32 C203 4 252 -13 302 -13 C353 -13 402 4 440 32 C527 93 530 193 529 260 L529 740 L499 740 L499 260 C499 188 499 142 453 82 C421 40 360 14 304 14 C245 14 184 40 152 82 C106 142 106 188 106 260 L106 740 L76 740 L76 260 Z M257 919 L228 919 L228 803 L257 803 L257 919 Z M377 919 L348 919 L348 803 L377 803 L377 919 Z " />
<glyph glyph-name="Yacute" unicode="&#xdd;" horiz-adv-x="554" d="M48 740 L15 740 L262 255 L262 0 L292 0 L292 255 L539 740 L505 740 L277 289 L48 740 Z M160 813 L173 790 L411 928 L397 951 L160 813 Z " />
<glyph glyph-name="Thorn" unicode="&#xde;" horiz-adv-x="511" d="M67 740 L67 0 L97 0 L97 164 L239 164 C335 164 375 172 424 208 C468 240 499 307 499 374 C499 441 468 508 424 540 C375 576 335 584 239 584 L97 584 L97 740 L67 740 Z M97 557 L240 557 C327 557 366 547 408 516 C443 489 469 431 469 373 C469 317 443 259 408 232 C366 201 327 191 240 191 L97 191 L97 557 Z " />
<glyph glyph-name="germandbls" unicode="&#xdf;" horiz-adv-x="559" d="M76 0 L104 0 L104 472 C104 566 107 613 141 663 C166 701 218 726 268 726 C366 726 435 665 435 555 C435 455 356 383 274 383 L247 383 L247 357 L275 357 C366 356 395 340 426 318 C484 270 489 206 489 180 C489 82 410 13 324 13 C259 14 156 48 150 191 L122 191 C130 34 234 -12 321 -13 C422 -13 517 66 517 185 C517 269 465 361 352 376 L352 378 C448 417 463 513 463 555 C463 671 389 752 267 752 C209 752 148 724 115 673 C85 632 76 586 76 472 L76 0 Z " />
<glyph glyph-name="agrave" unicode="&#xe0;" horiz-adv-x="674" d="M596 530 L568 530 L568 395 L566 395 C540 464 448 543 320 543 C149 543 41 411 41 265 C41 122 146 -13 320 -13 C432 -13 520 42 566 132 L568 132 L568 0 L596 0 L596 530 Z M323 13 C152 13 70 145 69 265 C69 414 182 517 320 517 C462 517 571 410 571 265 C571 128 469 13 323 13 L323 13 Z M218 766 L204 743 L442 605 L455 628 L218 766 Z " />
<glyph glyph-name="aacute" unicode="&#xe1;" horiz-adv-x="674" d="M596 530 L568 530 L568 395 L566 395 C540 464 448 543 320 543 C149 543 41 411 41 265 C41 122 146 -13 320 -13 C432 -13 520 42 566 132 L568 132 L568 0 L596 0 L596 530 Z M323 13 C152 13 70 145 69 265 C69 414 182 517 320 517 C462 517 571 410 571 265 C571 128 469 13 323 13 L323 13 Z M215 628 L228 605 L466 743 L452 766 L215 628 Z " />
<glyph glyph-name="acircumflex" unicode="&#xe2;" horiz-adv-x="674" d="M596 530 L568 530 L568 395 L566 395 C540 464 448 543 320 543 C149 543 41 411 41 265 C41 122 146 -13 320 -13 C432 -13 520 42 566 132 L568 132 L568 0 L596 0 L596 530 Z M323 13 C152 13 70 145 69 265 C69 414 182 517 320 517 C462 517 571 410 571 265 C571 128 469 13 323 13 L323 13 Z M337 748 L142 638 L167 623 L337 717 L507 623 L533 638 L337 748 Z " />
<glyph glyph-name="atilde" unicode="&#xe3;" horiz-adv-x="674" d="M596 530 L568 530 L568 395 L566 395 C540 464 448 543 320 543 C149 543 41 411 41 265 C41 122 146 -13 320 -13 C432 -13 520 42 566 132 L568 132 L568 0 L596 0 L596 530 Z M323 13 C152 13 70 145 69 265 C69 414 182 517 320 517 C462 517 571 410 571 265 C571 128 469 13 323 13 L323 13 Z M498 686 C471 670 454 663 428 663 C394 663 376 670 339 690 C294 711 275 714 254 714 C207 714 178 697 156 679 L176 659 C191 671 219 686 254 686 C280 686 294 681 338 658 C374 637 402 633 429 633 C462 633 494 649 518 665 L498 686 Z " />
<glyph glyph-name="adieresis" unicode="&#xe4;" horiz-adv-x="674" d="M596 530 L568 530 L568 395 L566 395 C540 464 448 543 320 543 C149 543 41 411 41 265 C41 122 146 -13 320 -13 C432 -13 520 42 566 132 L568 132 L568 0 L596 0 L596 530 Z M323 13 C152 13 70 145 69 265 C69 414 182 517 320 517 C462 517 571 410 571 265 C571 128 469 13 323 13 L323 13 Z M292 734 L263 734 L263 618 L292 618 L292 734 Z M412 734 L383 734 L383 618 L412 618 L412 734 Z " />
<glyph glyph-name="aring" unicode="&#xe5;" horiz-adv-x="674" d="M596 530 L568 530 L568 395 L566 395 C540 464 448 543 320 543 C149 543 41 411 41 265 C41 122 146 -13 320 -13 C432 -13 520 42 566 132 L568 132 L568 0 L596 0 L596 530 Z M323 13 C152 13 70 145 69 265 C69 414 182 517 320 517 C462 517 571 410 571 265 C571 128 469 13 323 13 L323 13 Z M337 775 C288 775 246 735 246 684 C246 634 287 593 337 593 C388 593 429 634 429 684 C429 734 388 775 337 775 L337 775 Z M337 749 C373 749 401 720 401 685 C401 651 373 622 337 622 C302 622 274 651 274 685 C274 720 302 749 337 749 L337 749 Z " />
<glyph glyph-name="ae" unicode="&#xe6;" horiz-adv-x="1154" d="M595 530 L567 530 L567 375 L565 375 C559 390 555 405 545 421 C493 504 407 543 318 543 C161 543 41 423 41 264 L41 265 C41 106 161 -13 320 -13 C366 -12 474 5 539 101 C552 118 558 137 565 162 L567 162 L567 0 L595 0 L595 162 L597 162 C604 138 611 120 623 102 C674 27 755 -14 846 -13 C972 -13 1062 76 1097 153 L1064 153 C1026 87 952 13 843 13 C769 13 613 57 595 262 L1113 262 C1110 408 1009 543 835 543 C774 543 685 528 617 422 C609 408 605 395 597 376 L595 376 L595 530 Z M596 288 C604 335 612 382 659 435 C717 502 781 517 837 517 C962 517 1058 439 1082 288 L596 288 Z M568 265 C568 128 454 13 321 13 C177 13 69 121 69 265 C69 409 177 517 321 517 C458 517 568 398 568 265 L568 265 Z " />
<glyph glyph-name="ccedilla" unicode="&#xe7;" horiz-adv-x="619" d="M552 167 C526 88 440 14 320 13 C185 13 69 115 69 265 C69 337 99 407 142 446 C197 495 246 516 321 517 C401 518 512 475 553 358 L584 358 C542 483 428 543 320 543 C160 543 42 422 41 265 C41 110 150 2 290 -10 L249 -100 L271 -105 C281 -88 295 -80 312 -80 C336 -80 357 -98 358 -125 C357 -158 334 -174 312 -174 C305 -174 274 -174 265 -139 L238 -139 C248 -198 299 -201 312 -201 C361 -201 385 -161 385 -125 C385 -91 360 -54 313 -54 C307 -54 302 -56 300 -57 L298 -56 L318 -13 L320 -13 C446 -11 546 59 583 167 L552 167 Z " />
<glyph glyph-name="egrave" unicode="&#xe8;" horiz-adv-x="619" d="M588 262 L589 277 C582 441 453 543 311 543 C153 543 31 423 31 264 L31 265 C31 107 148 -13 310 -13 C417 -14 519 40 568 153 L537 153 C495 63 409 13 311 13 C207 12 62 89 60 262 L588 262 Z M61 288 C69 422 180 517 311 517 C435 522 554 416 560 288 L61 288 Z M190 766 L176 743 L414 605 L427 628 L190 766 Z " />
<glyph glyph-name="eacute" unicode="&#xe9;" horiz-adv-x="619" d="M588 262 L589 277 C582 441 453 543 311 543 C153 543 31 423 31 264 L31 265 C31 107 148 -13 310 -13 C417 -14 519 40 568 153 L537 153 C495 63 409 13 311 13 C207 12 62 89 60 262 L588 262 Z M61 288 C69 422 180 517 311 517 C435 522 554 416 560 288 L61 288 Z M187 628 L200 605 L438 743 L424 766 L187 628 Z " />
<glyph glyph-name="ecircumflex" unicode="&#xea;" horiz-adv-x="619" d="M588 262 L589 277 C582 441 453 543 311 543 C153 543 31 423 31 264 L31 265 C31 107 148 -13 310 -13 C417 -14 519 40 568 153 L537 153 C495 63 409 13 311 13 C207 12 62 89 60 262 L588 262 Z M61 288 C69 422 180 517 311 517 C435 522 554 416 560 288 L61 288 Z M309 748 L114 638 L139 623 L309 717 L479 623 L505 638 L309 748 Z " />
<glyph glyph-name="edieresis" unicode="&#xeb;" horiz-adv-x="619" d="M588 262 L589 277 C582 441 453 543 311 543 C153 543 31 423 31 264 L31 265 C31 107 148 -13 310 -13 C417 -14 519 40 568 153 L537 153 C495 63 409 13 311 13 C207 12 62 89 60 262 L588 262 Z M61 288 C69 422 180 517 311 517 C435 522 554 416 560 288 L61 288 Z M259 734 L230 734 L230 618 L259 618 L259 734 Z M379 734 L350 734 L350 618 L379 618 L379 734 Z " />
<glyph glyph-name="igrave" unicode="&#xec;" horiz-adv-x="184" d="M106 530 L78 530 L78 0 L106 0 L106 530 Z M-47 766 L-61 743 L177 605 L190 628 L-47 766 Z " />
<glyph glyph-name="iacute" unicode="&#xed;" horiz-adv-x="184" d="M106 530 L78 530 L78 0 L106 0 L106 530 Z M-5 628 L8 605 L246 743 L232 766 L-5 628 Z " />
<glyph glyph-name="icircumflex" unicode="&#xee;" horiz-adv-x="184" d="M106 530 L78 530 L78 0 L106 0 L106 530 Z M92 748 L-103 638 L-78 623 L92 717 L262 623 L288 638 L92 748 Z " />
<glyph glyph-name="idieresis" unicode="&#xef;" horiz-adv-x="184" d="M106 530 L78 530 L78 0 L106 0 L106 530 Z M47 734 L18 734 L18 618 L47 618 L47 734 Z M167 734 L138 734 L138 618 L167 618 L167 734 Z " />
<glyph glyph-name="eth" unicode="&#xf0;" horiz-adv-x="641" d="M69 265 C68 408 176 516 322 517 C455 517 572 406 572 266 C572 123 466 13 320 13 C176 13 68 121 69 265 L69 265 Z M308 641 C395 595 470 535 522 455 L520 453 C473 510 396 543 321 543 C162 540 44 432 41 264 C43 82 179 -13 320 -13 C456 -10 600 86 600 266 C600 410 540 538 342 654 L505 719 L486 740 L311 670 C265 694 210 718 145 740 L111 725 C178 702 228 681 277 657 L97 584 L117 564 L308 641 Z " />
<glyph glyph-name="ntilde" unicode="&#xf1;" horiz-adv-x="641" d="M106 530 L78 530 L78 0 L106 0 L106 305 C106 438 188 515 321 517 C375 517 430 504 471 467 C511 431 536 372 536 280 L536 0 L564 0 L564 280 C564 375 539 446 487 490 C445 525 389 543 321 543 C237 545 141 505 108 428 L106 428 L106 530 Z M481 686 C454 670 437 663 411 663 C377 663 359 670 322 690 C277 711 258 714 237 714 C190 714 161 697 139 679 L159 659 C174 671 202 686 237 686 C263 686 277 681 321 658 C357 637 385 633 412 633 C445 633 477 649 501 665 L481 686 Z " />
<glyph glyph-name="ograve" unicode="&#xf2;" horiz-adv-x="641" d="M41 265 C41 106 161 -13 320 -13 C479 -13 599 106 599 265 C599 423 479 543 320 543 C161 543 41 423 41 265 L41 265 Z M69 265 C69 409 177 517 320 517 C463 517 571 409 571 265 C571 121 463 13 320 13 C177 13 69 121 69 265 L69 265 Z M201 766 L187 743 L425 605 L438 628 L201 766 Z " />
<glyph glyph-name="oacute" unicode="&#xf3;" horiz-adv-x="641" d="M41 265 C41 106 161 -13 320 -13 C479 -13 599 106 599 265 C599 423 479 543 320 543 C161 543 41 423 41 265 L41 265 Z M69 265 C69 409 177 517 320 517 C463 517 571 409 571 265 C571 121 463 13 320 13 C177 13 69 121 69 265 L69 265 Z M198 628 L211 605 L449 743 L435 766 L198 628 Z " />
<glyph glyph-name="ocircumflex" unicode="&#xf4;" horiz-adv-x="641" d="M41 265 C41 106 161 -13 320 -13 C479 -13 599 106 599 265 C599 423 479 543 320 543 C161 543 41 423 41 265 L41 265 Z M69 265 C69 409 177 517 320 517 C463 517 571 409 571 265 C571 121 463 13 320 13 C177 13 69 121 69 265 L69 265 Z M320 748 L125 638 L150 623 L320 717 L490 623 L516 638 L320 748 Z " />
<glyph glyph-name="otilde" unicode="&#xf5;" horiz-adv-x="641" d="M41 265 C41 106 161 -13 320 -13 C479 -13 599 106 599 265 C599 423 479 543 320 543 C161 543 41 423 41 265 L41 265 Z M69 265 C69 409 177 517 320 517 C463 517 571 409 571 265 C571 121 463 13 320 13 C177 13 69 121 69 265 L69 265 Z M481 686 C454 670 437 663 411 663 C377 663 359 670 322 690 C277 711 258 714 237 714 C190 714 161 697 139 679 L159 659 C174 671 202 686 237 686 C263 686 277 681 321 658 C357 637 385 633 412 633 C445 633 477 649 501 665 L481 686 Z " />
<glyph glyph-name="odieresis" unicode="&#xf6;" horiz-adv-x="641" d="M41 265 C41 106 161 -13 320 -13 C479 -13 599 106 599 265 C599 423 479 543 320 543 C161 543 41 423 41 265 L41 265 Z M69 265 C69 409 177 517 320 517 C463 517 571 409 571 265 C571 121 463 13 320 13 C177 13 69 121 69 265 L69 265 Z M275 734 L246 734 L246 618 L275 618 L275 734 Z M395 734 L366 734 L366 618 L395 618 L395 734 Z " />
<glyph glyph-name="divide" unicode="&#xf7;" horiz-adv-x="600" d="M50 264 L50 236 L550 236 L550 264 L50 264 Z M315 81 L285 81 L285 0 L315 0 L315 81 Z M315 500 L285 500 L285 419 L315 419 L315 500 Z " />
<glyph glyph-name="oslash" unicode="&#xf8;" horiz-adv-x="641" d="M69 265 C69 409 177 517 320 517 C372 517 418 503 457 477 L160 68 C104 113 69 184 69 265 L69 265 Z M571 265 C571 121 463 13 320 13 C269 13 222 27 182 52 L480 462 C537 416 571 346 571 265 L571 265 Z M41 265 C41 174 81 96 145 47 L85 -35 L107 -52 L167 31 C210 3 262 -13 320 -13 C479 -13 599 106 599 265 C599 355 560 432 496 484 L556 568 L535 585 L473 499 C431 527 378 543 320 543 C161 543 41 423 41 265 L41 265 Z " />
<glyph glyph-name="ugrave" unicode="&#xf9;" horiz-adv-x="641" d="M536 0 L564 0 L564 530 L536 530 L536 229 C536 92 454 14 321 13 C267 13 212 26 171 63 C131 99 106 158 106 250 L106 530 L78 530 L78 250 C78 155 103 84 155 40 C197 5 253 -13 321 -13 C409 -15 501 25 534 107 L536 107 L536 0 Z M201 766 L187 743 L425 605 L438 628 L201 766 Z " />
<glyph glyph-name="uacute" unicode="&#xfa;" horiz-adv-x="641" d="M536 0 L564 0 L564 530 L536 530 L536 229 C536 92 454 14 321 13 C267 13 212 26 171 63 C131 99 106 158 106 250 L106 530 L78 530 L78 250 C78 155 103 84 155 40 C197 5 253 -13 321 -13 C409 -15 501 25 534 107 L536 107 L536 0 Z M203 628 L216 605 L454 743 L440 766 L203 628 Z " />
<glyph glyph-name="ucircumflex" unicode="&#xfb;" horiz-adv-x="641" d="M536 0 L564 0 L564 530 L536 530 L536 229 C536 92 454 14 321 13 C267 13 212 26 171 63 C131 99 106 158 106 250 L106 530 L78 530 L78 250 C78 155 103 84 155 40 C197 5 253 -13 321 -13 C409 -15 501 25 534 107 L536 107 L536 0 Z M320 748 L125 638 L150 623 L320 717 L490 623 L516 638 L320 748 Z " />
<glyph glyph-name="udieresis" unicode="&#xfc;" horiz-adv-x="641" d="M536 0 L564 0 L564 530 L536 530 L536 229 C536 92 454 14 321 13 C267 13 212 26 171 63 C131 99 106 158 106 250 L106 530 L78 530 L78 250 C78 155 103 84 155 40 C197 5 253 -13 321 -13 C409 -15 501 25 534 107 L536 107 L536 0 Z M275 734 L246 734 L246 618 L275 618 L275 734 Z M395 734 L366 734 L366 618 L395 618 L395 734 Z " />
<glyph glyph-name="yacute" unicode="&#xfd;" horiz-adv-x="481" d="M42 530 L11 530 L221 1 L127 -213 L159 -213 L480 530 L447 530 L238 39 L42 530 Z M123 628 L136 605 L374 743 L360 766 L123 628 Z " />
<glyph glyph-name="thorn" unicode="&#xfe;" horiz-adv-x="681" d="M106 740 L78 740 L78 -213 L106 -213 L106 140 L108 140 C151 53 244 -13 359 -13 C518 -13 639 106 639 265 C639 423 518 543 359 543 C301 543 170 520 108 387 L106 387 L106 740 Z M106 262 C106 416 229 517 360 517 C504 517 611 409 611 265 C611 121 504 13 360 13 C213 13 106 137 106 262 L106 262 Z " />
<glyph glyph-name="ydieresis" unicode="&#xff;" horiz-adv-x="481" d="M42 530 L11 530 L221 1 L127 -213 L159 -213 L480 530 L447 530 L238 39 L42 530 Z M195 734 L166 734 L166 618 L195 618 L195 734 Z M315 734 L286 734 L286 618 L315 618 L315 734 Z " />
<glyph glyph-name="dotlessi" unicode="&#x131;" horiz-adv-x="184" d="M106 530 L78 530 L78 0 L106 0 L106 530 Z " />
<glyph glyph-name="Lslash" unicode="&#x141;" horiz-adv-x="423" d="M0 280 L81 340 L81 0 L424 0 L424 27 L111 27 L111 359 L111 362 L268 477 L268 512 L111 397 L111 740 L81 740 L81 375 L0 315 L0 280 Z " />
<glyph glyph-name="lslash" unicode="&#x142;" horiz-adv-x="219" d="M123 428 L123 740 L95 740 L95 412 L16 354 L16 324 L95 382 L95 0 L123 0 L123 398 L220 470 L220 499 L123 428 Z " />
<glyph glyph-name="OE" unicode="&#x152;" horiz-adv-x="1178" d="M1117 713 L1117 740 L772 740 L772 511 L770 511 C728 653 587 753 418 753 C209 753 41 596 41 370 C41 144 209 -13 422 -13 C588 -13 729 88 770 229 L772 229 L772 0 L1117 0 L1117 27 L802 27 L802 359 L1117 359 L1117 386 L802 386 L802 713 L1117 713 Z M71 370 C71 579 225 726 420 726 C649 726 768 538 772 382 L772 360 C767 196 643 14 420 14 C225 14 71 161 71 370 L71 370 Z " />
<glyph glyph-name="oe" unicode="&#x153;" horiz-adv-x="1156" d="M1116 263 C1116 409 1000 539 841 539 C765 539 635 505 583 353 L581 349 C572 376 560 406 531 444 C480 505 404 543 320 543 C161 543 41 423 41 264 L41 265 C41 106 161 -13 320 -13 C412 -13 525 32 583 178 L585 178 C624 36 760 -13 845 -13 C895 -13 945 -1 996 29 C1059 71 1080 120 1095 155 L1064 155 C1030 59 934 13 845 13 C729 13 606 94 598 263 L1116 263 Z M568 263 C568 137 465 13 320 13 C177 13 69 121 69 265 C69 409 177 517 320 517 C472 517 568 384 568 263 L568 263 Z M599 289 C614 420 715 513 840 513 C1003 513 1079 371 1083 289 L599 289 Z " />
<glyph glyph-name="Scaron" unicode="&#x160;" horiz-adv-x="518" d="M45 187 C55 47 170 -13 259 -13 C369 -13 474 72 474 194 C474 355 326 382 290 392 C188 418 90 447 91 564 C91 661 166 725 260 725 C379 725 412 639 423 580 L453 580 C437 701 349 752 262 752 C155 752 58 682 61 559 C61 420 190 389 255 373 C326 354 444 326 444 190 C444 84 351 14 258 14 C201 14 93 45 75 187 L45 187 Z M260 808 L455 919 L430 933 L260 839 L90 933 L64 918 L260 808 Z " />
<glyph glyph-name="scaron" unicode="&#x161;" horiz-adv-x="426" d="M48 147 C42 50 123 -13 211 -13 C302 -13 371 59 366 146 C360 259 281 278 211 297 C136 318 98 342 95 406 C92 469 140 517 211 517 C268 518 323 485 323 405 L351 405 C351 496 288 542 211 543 C132 543 67 494 67 406 C70 315 130 292 210 269 C296 250 336 215 338 142 C340 73 290 13 211 13 C134 13 76 62 76 147 L48 147 Z M214 623 L409 734 L384 748 L214 654 L44 748 L18 733 L214 623 Z " />
<glyph glyph-name="Ydieresis" unicode="&#x178;" horiz-adv-x="554" d="M48 740 L15 740 L262 255 L262 0 L292 0 L292 255 L539 740 L505 740 L277 289 L48 740 Z M232 919 L203 919 L203 803 L232 803 L232 919 Z M352 919 L323 919 L323 803 L352 803 L352 919 Z " />
<glyph glyph-name="Zcaron" unicode="&#x17d;" horiz-adv-x="499" d="M493 0 L493 27 L69 27 L472 740 L6 740 L6 713 L423 713 L20 0 L493 0 Z M245 808 L440 919 L415 933 L245 839 L75 933 L49 918 L245 808 Z " />
<glyph glyph-name="zcaron" unicode="&#x17e;" horiz-adv-x="407" d="M30 530 L30 504 L341 504 L12 24 L12 0 L394 0 L394 26 L48 26 L377 503 L377 530 L30 530 Z M204 623 L399 734 L374 748 L204 654 L34 748 L8 733 L204 623 Z " />
<glyph glyph-name="florin" unicode="&#x192;" horiz-adv-x="555" d="M356 562 L365 613 C374 650 382 711 422 750 C444 772 473 783 512 786 C524 786 529 785 536 784 L542 810 C534 812 528 813 515 813 C477 813 436 798 405 773 C366 737 349 694 335 613 L325 562 L183 562 L177 535 L321 535 L226 31 C214 -35 197 -125 75 -125 C51 -125 37 -120 21 -116 L15 -144 C35 -150 55 -152 75 -152 C222 -152 243 -44 258 37 L352 535 L490 535 L497 562 L356 562 Z " />
<glyph glyph-name="circumflex" unicode="&#x2c6;" horiz-adv-x="555" d="M277 748 L82 638 L107 623 L277 717 L447 623 L473 638 L277 748 Z " />
<glyph glyph-name="caron" unicode="&#x2c7;" horiz-adv-x="555" d="M278 623 L473 734 L448 748 L278 654 L108 748 L82 733 L278 623 Z " />
<glyph glyph-name="breve" unicode="&#x2d8;" horiz-adv-x="555" d="M86 716 C124 648 199 634 277 634 C420 634 451 686 469 716 L431 716 C417 697 392 663 277 663 C172 663 141 691 124 716 L86 716 Z " />
<glyph glyph-name="dotaccent" unicode="&#x2d9;" horiz-adv-x="555" d="M293 734 L262 734 L262 618 L293 618 L293 734 Z " />
<glyph glyph-name="ring" unicode="&#x2da;" horiz-adv-x="555" d="M277 777 C228 777 186 737 186 686 C186 636 227 595 277 595 C328 595 369 636 369 686 C369 736 328 777 277 777 L277 777 Z M277 751 C313 751 341 722 341 687 C341 653 313 624 277 624 C242 624 214 653 214 687 C214 722 242 751 277 751 L277 751 Z " />
<glyph glyph-name="ogonek" unicode="&#x2db;" horiz-adv-x="555" d="M285 0 C256 -13 197 -42 197 -109 C197 -167 238 -206 301 -206 C333 -206 346 -199 357 -193 L357 -164 C339 -171 322 -177 301 -177 C262 -177 228 -149 228 -106 C228 -63 254 -44 314 0 L285 0 Z " />
<glyph glyph-name="tilde" unicode="&#x2dc;" horiz-adv-x="555" d="M438 686 C411 670 394 663 368 663 C334 663 316 670 279 690 C234 711 215 714 194 714 C147 714 118 697 96 679 L116 659 C131 671 159 686 194 686 C220 686 234 681 278 658 C314 637 342 633 369 633 C402 633 434 649 458 665 L438 686 Z " />
<glyph glyph-name="hungarumlaut" unicode="&#x2dd;" horiz-adv-x="555" d="M144 628 L160 605 L386 766 L370 788 L144 628 Z M255 628 L271 605 L497 766 L481 788 L255 628 Z " />
<glyph glyph-name="endash" unicode="&#x2013;" horiz-adv-x="500" d="M35 291 L35 262 L465 262 L465 291 L35 291 Z " />
<glyph glyph-name="emdash" unicode="&#x2014;" horiz-adv-x="1000" d="M35 291 L35 262 L965 262 L965 291 L35 291 Z " />
<glyph glyph-name="quoteleft" unicode="&#x2018;" horiz-adv-x="277" d="M123 740 L90 740 L154 586 L187 586 L123 740 Z " />
<glyph glyph-name="quoteright" unicode="&#x2019;" horiz-adv-x="277" d="M90 586 L123 586 L187 740 L154 740 L90 586 Z " />
<glyph glyph-name="quotesinglbase" unicode="&#x201a;" horiz-adv-x="277" d="M90 -72 L123 -72 L187 82 L154 82 L90 -72 Z " />
<glyph glyph-name="quotedblleft" unicode="&#x201c;" horiz-adv-x="370" d="M125 740 L92 740 L156 586 L189 586 L125 740 Z M214 740 L181 740 L245 586 L278 586 L214 740 Z " />
<glyph glyph-name="quotedblright" unicode="&#x201d;" horiz-adv-x="370" d="M181 586 L214 586 L278 740 L245 740 L181 586 Z M92 586 L125 586 L189 740 L156 740 L92 586 Z " />
<glyph glyph-name="quotedblbase" unicode="&#x201e;" horiz-adv-x="370" d="M181 -72 L214 -72 L278 82 L245 82 L181 -72 Z M92 -72 L125 -72 L189 82 L156 82 L92 -72 Z " />
<glyph glyph-name="dagger" unicode="&#x2020;" horiz-adv-x="573" d="M301 740 L271 740 L271 526 L83 526 L83 496 L271 496 L271 -100 L301 -100 L301 496 L491 496 L491 526 L301 526 L301 740 Z " />
<glyph glyph-name="daggerdbl" unicode="&#x2021;" horiz-adv-x="573" d="M303 740 L273 740 L273 555 L83 555 L83 525 L273 525 L273 115 L83 115 L83 85 L273 85 L273 -100 L303 -100 L303 85 L491 85 L491 115 L303 115 L303 525 L491 525 L491 555 L303 555 L303 740 Z " />
<glyph glyph-name="bullet" unicode="&#x2022;" horiz-adv-x="375" d="M189 532 C100 532 35 459 35 377 C35 293 103 222 188 222 C271 222 340 291 340 377 C340 462 272 532 189 532 L189 532 Z " />
<glyph glyph-name="ellipsis" unicode="&#x2026;" horiz-adv-x="1000" d="M182 82 L152 82 L152 0 L182 0 L182 82 Z M515 82 L485 82 L485 0 L515 0 L515 82 Z M848 82 L818 82 L818 0 L848 0 L848 82 Z " />
<glyph glyph-name="perthousand" unicode="&#x2030;" horiz-adv-x="1089" d="M20 590 C20 496 89 427 183 427 C277 427 346 496 346 590 C346 684 277 753 183 753 C89 753 20 684 20 590 L20 590 Z M318 590 C318 510 263 452 183 452 C103 452 48 510 48 590 C48 670 103 728 183 728 C263 728 318 670 318 590 L318 590 Z M369 150 C369 56 438 -13 532 -13 C626 -13 695 56 695 150 C695 244 626 313 532 313 C438 313 369 244 369 150 L369 150 Z M667 150 C667 70 612 12 532 12 C452 12 397 70 397 150 C397 230 452 288 532 288 C612 288 667 230 667 150 L667 150 Z M744 150 C744 56 813 -13 907 -13 C1001 -13 1070 56 1070 150 C1070 244 1001 313 907 313 C813 313 744 244 744 150 L744 150 Z M1042 150 C1042 70 987 12 907 12 C827 12 772 70 772 150 C772 230 827 288 907 288 C987 288 1042 230 1042 150 L1042 150 Z M601 740 L569 740 L112 0 L144 0 L601 740 Z " />
<glyph glyph-name="guilsinglleft" unicode="&#x2039;" horiz-adv-x="248" d="M53 275 L164 84 L184 110 L88 275 L184 443 L164 469 L53 275 Z " />
<glyph glyph-name="guilsinglright" unicode="&#x203a;" horiz-adv-x="248" d="M84 469 L64 443 L160 275 L64 110 L84 84 L195 275 L84 469 Z " />
<glyph glyph-name="fraction" unicode="&#x2044;" horiz-adv-x="86" d="M222 740 L192 740 L-137 0 L-108 0 L222 740 Z " />
<glyph glyph-name="trademark" unicode="&#x2122;" horiz-adv-x="990" d="M10 740 L9 716 L133 716 L133 296 L160 296 L160 716 L285 716 L285 740 L10 740 Z M385 740 L348 740 L348 296 L375 296 L375 700 L377 700 L585 296 L601 296 L809 701 L811 701 L811 296 L838 296 L838 740 L802 740 L593 338 L385 740 Z " />
<glyph glyph-name="minus" unicode="&#x2212;" horiz-adv-x="600" d="M50 264 L50 236 L550 236 L550 264 L50 264 Z " />
<glyph glyph-name="fi" unicode="&#xfb01;" horiz-adv-x="393" d="M315 740 L287 740 L287 649 L315 649 L315 740 Z M94 504 L94 0 L122 0 L122 504 L287 504 L287 0 L315 0 L315 530 L122 530 L122 585 C120 718 224 723 260 726 L260 753 C94 745 94 619 94 582 L94 530 L7 530 L7 504 L94 504 Z " />
<glyph glyph-name="fl" unicode="&#xfb02;" horiz-adv-x="393" d="M94 504 L94 0 L122 0 L122 504 L287 504 L287 0 L315 0 L315 740 L287 740 L287 530 L122 530 L122 585 C120 718 224 723 260 726 L260 753 C94 745 94 619 94 582 L94 530 L7 530 L7 504 L94 504 Z " />
</font>
</svg>
