<?xml version="1.0" encoding="utf-8"?>
<!-- Generator: Adobe Illustrator 16.0.0, SVG Export Plug-In . SVG Version: 6.00 Build 0)  -->
<!DOCTYPE svg PUBLIC "-//W3C//DTD SVG 1.1 Tiny//EN" "http://www.w3.org/Graphics/SVG/1.1/DTD/svg11-tiny.dtd">
<svg version="1.1" baseProfile="tiny" id="Ebene_1" xmlns="http://www.w3.org/2000/svg" xmlns:xlink="http://www.w3.org/1999/xlink"
	 x="0px" y="0px" width="105px" height="86px" viewBox="0 0 105 86" xml:space="preserve">
<g>
	<path fill="#BBDFDB" d="M59.963,0l-17.3,36.832l-0.016-0.034l-0.025,0.054h6.832l1.711-3.662h17.56l1.713,3.662h6.832L59.963,0z
		 M65.947,27.282H53.925l6.007-12.856L65.947,27.282L65.947,27.282z"/>
	<path fill="#10A0CB" d="M59.963,48.78l-17.3,36.832l-0.016-0.035l-0.025,0.055h6.832l1.711-3.662h17.56l1.713,3.662h6.832
		L59.963,48.78z M65.947,76.062H53.925l6.007-12.856L65.947,76.062L65.947,76.062z"/>
	<polygon fill="#FCC975" points="94.168,15.38 94.168,36.852 101,36.852 101,15.38 94.168,15.38 	"/>
	<polygon fill="#FCC975" points="101,1.716 94.168,1.716 94.168,8.548 101,8.548 101,1.716 	"/>
	<polygon fill="#10A0CB" points="16.538,36.852 0,1.716 6.83,1.716 16.507,22.426 26.209,1.716 33.04,1.716 	"/>
	<polygon fill="#FCC975" points="22.118,50.496 9.566,65.082 9.566,50.496 2.734,50.496 2.734,85.632 9.566,85.632 9.566,74.787 
		11.382,72.66 21.305,85.632 30.035,85.632 15.986,67.268 30.306,50.496 22.118,50.496 	"/>
	<polygon fill="#BBDFDB" points="94.168,64.159 94.168,85.632 101,85.632 101,64.159 94.168,64.159 	"/>
	<polygon fill="#BBDFDB" points="101,50.496 94.168,50.496 94.168,57.327 101,57.327 101,50.496 	"/>
</g>
</svg>
