<?xml version="1.0" encoding="utf-8"?>
<!-- Generator: Adobe Illustrator 16.0.0, SVG Export Plug-In . SVG Version: 6.00 Build 0)  -->
<!DOCTYPE svg PUBLIC "-//W3C//DTD SVG 1.1//EN" "http://www.w3.org/Graphics/SVG/1.1/DTD/svg11.dtd">
<svg version="1.1" id="Calque_1" xmlns="http://www.w3.org/2000/svg" xmlns:xlink="http://www.w3.org/1999/xlink" x="0px" y="0px"
	 width="138px" height="82px" viewBox="435.05 259.7 138 82" enable-background="new 435.05 259.7 138 82" xml:space="preserve">
<g id="Background" display="none">
</g>
<g id="Guides" display="none">
</g>
<g id="Foreground" display="none">
</g>
<g id="Primo_piano">
	
		<text transform="matrix(1.0964 0 0 1 466.1611 314.9258)" display="none" fill="#7C3B00" enable-background="new    " font-family="'Helvetica'" font-size="3.0657">modern finds for hip kids and parents</text>
	<path fill="#6D3416" d="M435.05,299.871c0,2.013,0.698,3.724,2.094,5.12c1.396,1.396,3.107,2.094,5.12,2.094
		c1.999,0,3.696-0.698,5.092-2.094c1.396-1.424,2.094-3.121,2.094-5.12c0-1.999-0.698-3.696-2.094-5.092
		c-1.396-1.396-3.094-2.094-5.092-2.094c-1.287,0-2.492,0.315-3.587,0.944v-8.268h-3.627V299.871z M438.691,299.871
		c0-0.985,0.356-1.82,1.054-2.505c0.698-0.698,1.547-1.054,2.533-1.054c0.972,0,1.807,0.356,2.505,1.054s1.054,1.533,1.054,2.505
		c0,0.986-0.356,1.835-1.054,2.533c-0.685,0.697-1.52,1.054-2.505,1.054c-0.986,0-1.834-0.356-2.533-1.054
		C439.033,301.692,438.691,300.857,438.691,299.871z"/>
	<path fill="#6D3416" d="M464.81,306.675l-0.78-2.095c-1.438,1.684-3.272,2.533-5.489,2.533c-1.533,0-2.916-0.425-4.148-1.287
		c-1.218-0.862-2.094-2.013-2.615-3.45c-0.288-0.767-0.424-1.587-0.424-2.45c0-1.533,0.424-2.902,1.287-4.121
		c0.863-1.246,2.013-2.122,3.45-2.642c0.821-0.301,1.657-0.452,2.478-0.452c1.52,0,2.902,0.438,4.12,1.314
		c1.232,0.863,2.122,2.013,2.642,3.45l3.34,9.213h-3.86V306.675L464.81,306.675z M456.514,302.828
		c0.616,0.425,1.287,0.644,2.026,0.644c0.985,0,1.834-0.343,2.532-1.026c0.698-0.698,1.054-1.547,1.054-2.533
		c0-1.246-0.506-2.218-1.533-2.93c-0.616-0.411-1.287-0.616-2.053-0.616c-1.26,0-2.231,0.507-2.916,1.506
		c-0.424,0.63-0.644,1.314-0.644,2.054C454.981,301.158,455.501,302.13,456.514,302.828z"/>
	<path fill="#6D3416" d="M469.752,299.871c0,2.013,0.698,3.724,2.094,5.12c1.396,1.396,3.107,2.094,5.12,2.094
		c1.999,0,3.696-0.698,5.092-2.094c1.396-1.424,2.095-3.121,2.095-5.12c0-1.999-0.698-3.696-2.095-5.092
		c-1.396-1.396-3.094-2.094-5.092-2.094c-1.287,0-2.491,0.315-3.586,0.944v-8.268h-3.642v14.51H469.752L469.752,299.871z
		 M473.379,299.871c0-0.985,0.356-1.82,1.054-2.505c0.698-0.698,1.547-1.054,2.532-1.054c0.972,0,1.807,0.356,2.505,1.054
		c0.698,0.698,1.054,1.533,1.054,2.505c0,0.986-0.356,1.835-1.054,2.533c-0.685,0.697-1.52,1.054-2.505,1.054
		c-0.985,0-1.834-0.356-2.532-1.054C473.735,301.692,473.379,300.857,473.379,299.871z"/>
	<path fill="#6D3416" d="M500.457,306.812c0,2.013-0.698,3.71-2.095,5.093c-1.41,1.396-3.121,2.107-5.133,2.107v-3.641
		c0.986,0,1.834-0.356,2.533-1.055c0.698-0.684,1.054-1.519,1.054-2.505v-0.644c-1.109,0.63-2.313,0.945-3.586,0.945
		c-1.999,0-3.696-0.698-5.12-2.095c-1.396-1.424-2.095-3.121-2.095-5.12v-7.214h3.642l0.027,7.214c0,0.986,0.342,1.834,1.026,2.532
		c0.698,0.698,1.547,1.055,2.533,1.055s1.834-0.356,2.532-1.055c0.699-0.698,1.054-1.546,1.054-2.532v-7.214h3.642v14.127H500.457
		L500.457,306.812z"/>
	<g>
		<path fill="#E2C9B4" d="M535.446,297.366c0.465,0.465,0.767,0.986,0.931,1.574l28.542-23.942l-1.753-2.094l-28.473,23.874
			C534.967,296.928,535.213,297.12,535.446,297.366z"/>
		<path fill="#E2C9B4" d="M530.408,297.366c0.685-0.685,1.506-1.027,2.45-1.054l-10.691-28.336l-2.56,0.931l10.746,28.5
			C530.381,297.394,530.395,297.38,530.408,297.366z"/>
		<path fill="#E2C9B4" d="M529.354,299.871c0-0.452,0.082-0.876,0.219-1.273h-15.141v2.724h15.223
			C529.464,300.884,529.354,300.392,529.354,299.871z"/>
		<path fill="#E2C9B4" d="M532.94,303.444c-0.109,0-0.205,0-0.301-0.014l9.966,26.42l2.56-0.931l-9.925-26.324
			C534.597,303.17,533.83,303.444,532.94,303.444z"/>
	</g>
	<path fill="#EF4135" d="M538.033,294.779c-1.396-1.396-3.094-2.094-5.093-2.094c-1.998,0-3.696,0.698-5.119,2.094
		c-1.396,1.396-2.095,3.094-2.095,5.092c0,2.013,0.698,3.724,2.095,5.12c1.396,1.396,3.107,2.094,5.119,2.094
		c1.999,0,3.696-0.698,5.093-2.094c1.396-1.424,2.095-3.121,2.095-5.12C540.128,297.873,539.43,296.175,538.033,294.779z
		 M535.446,302.404c-0.685,0.697-1.521,1.054-2.506,1.054s-1.834-0.356-2.532-1.054c-0.698-0.698-1.054-1.547-1.054-2.533
		c0-0.985,0.355-1.82,1.054-2.505c0.698-0.698,1.547-1.054,2.532-1.054c0.973,0,1.807,0.356,2.506,1.054
		c0.697,0.698,1.054,1.533,1.054,2.505C536.5,300.857,536.144,301.692,535.446,302.404z"/>
	<path fill="#6D3416" d="M556.432,299.871c0,2.054-0.739,3.778-2.204,5.175c1.492,1.424,2.231,3.162,2.231,5.229
		c0,2.587-1.055,4.586-3.176,5.981c-1.246,0.808-2.574,1.219-4.012,1.219c-2.573,0-4.559-1.068-5.981-3.203
		c-0.821-1.219-1.246-2.547-1.246-3.984c0-0.931,0.178-1.834,0.534-2.696l3.367,1.342c-0.178,0.438-0.273,0.876-0.273,1.342
		c0,0.985,0.355,1.82,1.054,2.505c0.712,0.698,1.561,1.054,2.532,1.054c0.973,0,1.808-0.355,2.505-1.054
		c0.699-0.698,1.055-1.533,1.055-2.505c0-1.574-0.739-2.684-2.231-3.313c-0.452,0.097-0.903,0.138-1.342,0.138
		c-2.012,0-3.724-0.698-5.119-2.095c-1.396-1.396-2.095-3.107-2.095-5.12c0-1.999,0.698-3.696,2.095-5.092
		c1.423-1.396,3.121-2.094,5.119-2.094l2.095-4.983l2.861,1.218l-1.89,4.477c1.26,0.616,2.259,1.506,2.984,2.669
		C556.048,297.202,556.432,298.489,556.432,299.871z M552.79,299.871c0-0.972-0.356-1.807-1.054-2.505
		c-0.698-0.698-1.533-1.054-2.506-1.054c-0.985,0-1.834,0.356-2.532,1.054c-0.698,0.685-1.054,1.52-1.054,2.505
		c0,0.986,0.355,1.835,1.054,2.533c0.698,0.697,1.547,1.054,2.532,1.054c0.986,0,1.821-0.356,2.506-1.054
		C552.447,301.692,552.79,300.857,552.79,299.871z"/>
	<path fill="#6D3416" d="M572.749,306.812c0,2.013-0.698,3.71-2.095,5.093c-1.396,1.396-3.107,2.095-5.12,2.095v-3.642
		c0.986,0,1.835-0.356,2.533-1.055c0.697-0.684,1.054-1.52,1.054-2.505v-0.644c-1.109,0.63-2.313,0.945-3.587,0.945
		c-1.998,0-3.695-0.698-5.119-2.095c-1.396-1.424-2.108-3.121-2.108-5.12v-7.214h3.642l0.027,7.214c0,0.986,0.342,1.835,1.026,2.532
		c0.698,0.698,1.547,1.055,2.532,1.055c0.986,0,1.835-0.356,2.533-1.055c0.697-0.697,1.054-1.546,1.054-2.532v-7.214h3.642v14.141
		H572.749z"/>
	<g>
		<circle fill="#68C8C6" cx="546.15" cy="334.998" r="6.94"/>
		<path fill="#68C8C6" d="M546.15,334.998"/>
	</g>
	<g>
		<circle fill="#A98BC0" cx="520.333" cy="266.703" r="6.94"/>
		<path fill="#A98BC0" d="M520.333,266.703"/>
	</g>
	<g>
		<circle fill="#7A3F1B" cx="566.109" cy="271.398" r="6.94"/>
		<path fill="#7A3F1B" d="M566.109,271.398"/>
	</g>
	<g>
		<circle fill="#6D3416" cx="509.519" cy="299.885" r="2.368"/>
		<path fill="#6D3416" d="M509.519,299.885"/>
	</g>
	<g>
		<circle fill="#6D3416" cx="532.927" cy="299.885" r="2.354"/>
		<path fill="#6D3416" d="M532.927,299.885"/>
	</g>
	<path fill="#FBB040" d="M514.625,294.779c-1.396-1.396-3.094-2.094-5.093-2.094c-1.998,0-3.696,0.698-5.12,2.094
		c-1.396,1.396-2.108,3.094-2.108,5.092c0,2.013,0.698,3.724,2.108,5.12c1.396,1.396,3.108,2.094,5.12,2.094
		c1.999,0,3.696-0.698,5.093-2.094c1.396-1.424,2.094-3.121,2.094-5.12C516.719,297.873,516.021,296.175,514.625,294.779z
		 M512.037,302.404c-0.685,0.697-1.52,1.054-2.505,1.054s-1.834-0.356-2.532-1.054c-0.698-0.698-1.054-1.547-1.054-2.533
		c0-0.985,0.355-1.82,1.054-2.505c0.698-0.698,1.547-1.054,2.532-1.054c0.972,0,1.807,0.356,2.505,1.054s1.054,1.533,1.054,2.505
		C513.092,300.857,512.735,301.692,512.037,302.404z"/>
	<rect x="519.416" y="285.347" fill="#6D3416" width="3.642" height="21.341"/>
</g>
</svg>
