<?xml version="1.0" encoding="utf-8"?>
<!-- Generator: Adobe Illustrator 16.0.0, SVG Export Plug-In . SVG Version: 6.00 Build 0)  -->
<!DOCTYPE svg PUBLIC "-//W3C//DTD SVG 1.1//EN" "http://www.w3.org/Graphics/SVG/1.1/DTD/svg11.dtd">
<svg version="1.1" id="Calque_1" xmlns="http://www.w3.org/2000/svg" xmlns:xlink="http://www.w3.org/1999/xlink" x="0px" y="0px"
	 width="1008.1px" height="601.4px" viewBox="0 0 1008.1 601.4" enable-background="new 0 0 1008.1 601.4" xml:space="preserve">
<g id="Background" display="none">
</g>
<g id="Guides" display="none">
</g>
<g id="Foreground" display="none">
</g>
<g id="Primo_piano">
	
		<text transform="matrix(1.0964 0 0 1 227.2734 403.6748)" display="none" fill="#7C3B00" enable-background="new    " font-family="'Helvetica'" font-size="22.3953">modern finds for hip kids and parents</text>
	<path fill="#6D3416" d="M0,293.7c0,14.699,5.1,27.199,15.3,37.4C25.5,341.3,38,346.399,52.7,346.399c14.6,0,27-5.1,37.2-15.299
		c10.2-10.4,15.3-22.801,15.3-37.4c0-14.6-5.1-27-15.3-37.2c-10.2-10.2-22.6-15.3-37.2-15.3c-9.4,0-18.2,2.3-26.2,6.9v-60.4H0V293.7
		z M26.6,293.7c0-7.2,2.6-13.3,7.7-18.3c5.1-5.1,11.3-7.7,18.5-7.7c7.1,0,13.2,2.6,18.3,7.7s7.7,11.2,7.7,18.3
		c0,7.2-2.6,13.4-7.7,18.5c-5,5.1-11.1,7.699-18.3,7.699c-7.2,0-13.4-2.6-18.5-7.699C29.1,307,26.6,300.9,26.6,293.7z"/>
	<path fill="#6D3416" d="M217.4,343.399l-5.7-15.299c-10.5,12.299-23.9,18.5-40.1,18.5c-11.2,0-21.3-3.101-30.3-9.4
		c-8.9-6.301-15.3-14.7-19.1-25.2c-2.1-5.601-3.1-11.6-3.1-17.9c0-11.2,3.1-21.2,9.4-30.1c6.3-9.1,14.7-15.5,25.2-19.3
		c6-2.2,12.1-3.3,18.1-3.3c11.1,0,21.2,3.2,30.1,9.6c9,6.3,15.5,14.7,19.3,25.2l24.4,67.3h-28.2V343.399z M156.8,315.3
		c4.5,3.1,9.4,4.7,14.8,4.7c7.2,0,13.4-2.5,18.5-7.5c5.1-5.101,7.7-11.3,7.7-18.5c0-9.1-3.7-16.2-11.2-21.4c-4.5-3-9.4-4.5-15-4.5
		c-9.2,0-16.3,3.7-21.3,11c-3.1,4.6-4.7,9.6-4.7,15C145.6,303.101,149.4,310.2,156.8,315.3z"/>
	<path fill="#6D3416" d="M253.5,293.7c0,14.699,5.1,27.199,15.3,37.4c10.2,10.199,22.7,15.299,37.4,15.299
		c14.6,0,27-5.1,37.2-15.299c10.199-10.4,15.3-22.801,15.3-37.4c0-14.6-5.101-27-15.3-37.2c-10.2-10.2-22.601-15.3-37.2-15.3
		c-9.4,0-18.2,2.3-26.2,6.9v-60.4h-26.6v106H253.5z M280,293.7c0-7.2,2.6-13.3,7.7-18.3c5.1-5.1,11.3-7.7,18.5-7.7
		c7.1,0,13.2,2.6,18.3,7.7s7.7,11.2,7.7,18.3c0,7.2-2.601,13.4-7.7,18.5c-5,5.1-11.1,7.699-18.3,7.699s-13.4-2.6-18.5-7.699
		C282.6,307,280,300.9,280,293.7z"/>
	<path fill="#6D3416" d="M477.8,344.399c0,14.701-5.1,27.101-15.3,37.201C452.2,391.8,439.7,397,425,397v-26.601
		c7.2,0,13.4-2.6,18.5-7.699c5.1-5,7.7-11.1,7.7-18.301V339.7c-8.101,4.6-16.9,6.9-26.2,6.9c-14.6,0-27-5.101-37.4-15.301
		c-10.199-10.4-15.3-22.8-15.3-37.4v-52.7H398.9l0.199,52.7c0,7.2,2.5,13.4,7.5,18.5c5.101,5.101,11.301,7.701,18.5,7.701
		c7.2,0,13.4-2.601,18.5-7.701c5.101-5.1,7.7-11.299,7.7-18.5v-52.7H477.9v103.199H477.8z"/>
	<g>
		<path fill="#E2C9B4" d="M733.4,275.4c3.399,3.4,5.6,7.2,6.8,11.5L948.7,112l-12.8-15.3l-208,174.4
			C729.9,272.2,731.7,273.6,733.4,275.4z"/>
		<path fill="#E2C9B4" d="M696.6,275.4c5-5,11-7.5,17.9-7.7l-78.1-207l-18.7,6.8l78.5,208.2C696.4,275.6,696.5,275.5,696.6,275.4z"
			/>
		<path fill="#E2C9B4" d="M688.9,293.7c0-3.3,0.6-6.4,1.6-9.3H579.9v19.9H691.1C689.7,301.1,688.9,297.5,688.9,293.7z"/>
		<path fill="#E2C9B4" d="M715.1,319.8c-0.8,0-1.5,0-2.199-0.1l72.8,193l18.7-6.8l-72.5-192.3C727.2,317.8,721.6,319.8,715.1,319.8z
			"/>
	</g>
	<path fill="#EF4135" d="M752.3,256.5c-10.2-10.2-22.6-15.3-37.2-15.3c-14.6,0-27,5.1-37.399,15.3c-10.2,10.2-15.3,22.6-15.3,37.2
		c0,14.699,5.1,27.199,15.3,37.4c10.2,10.199,22.7,15.299,37.399,15.299c14.601,0,27-5.1,37.2-15.299
		c10.2-10.4,15.3-22.801,15.3-37.4C767.6,279.1,762.5,266.7,752.3,256.5z M733.4,312.2c-5,5.1-11.101,7.699-18.301,7.699
		c-7.199,0-13.399-2.6-18.5-7.699c-5.1-5.1-7.699-11.3-7.699-18.5c0-7.2,2.6-13.3,7.699-18.3c5.101-5.1,11.301-7.7,18.5-7.7
		c7.101,0,13.2,2.6,18.301,7.7c5.1,5.1,7.699,11.2,7.699,18.3C741.1,300.9,738.5,307,733.4,312.2z"/>
	<path fill="#6D3416" d="M886.7,293.7c0,15-5.4,27.6-16.101,37.8c10.9,10.399,16.301,23.101,16.301,38.2c0,18.9-7.7,33.5-23.2,43.7
		c-9.101,5.899-18.8,8.899-29.3,8.899c-18.801,0-33.301-7.8-43.7-23.399c-6-8.9-9.101-18.601-9.101-29.101
		c0-6.8,1.301-13.4,3.9-19.699l24.6,9.799c-1.3,3.201-2,6.4-2,9.801c0,7.199,2.601,13.3,7.7,18.3c5.2,5.101,11.4,7.7,18.5,7.7
		c7.101,0,13.2-2.6,18.3-7.7c5.101-5.101,7.7-11.2,7.7-18.3c0-11.5-5.399-19.6-16.3-24.2c-3.3,0.7-6.6,1-9.8,1
		c-14.7,0-27.2-5.101-37.4-15.3c-10.2-10.2-15.3-22.7-15.3-37.4c0-14.6,5.1-27,15.3-37.2c10.4-10.2,22.8-15.3,37.4-15.3l15.3-36.4
		l20.9,8.9L856.6,246.5c9.2,4.5,16.5,11,21.801,19.5C883.9,274.2,886.7,283.6,886.7,293.7z M860.1,293.7c0-7.1-2.6-13.2-7.699-18.3
		c-5.101-5.1-11.2-7.7-18.301-7.7c-7.199,0-13.399,2.6-18.5,7.7c-5.1,5-7.699,11.1-7.699,18.3c0,7.2,2.6,13.4,7.699,18.5
		c5.101,5.1,11.301,7.699,18.5,7.699c7.2,0,13.301-2.6,18.301-7.699C857.6,307,860.1,300.9,860.1,293.7z"/>
	<path fill="#6D3416" d="M1005.9,344.399c0,14.701-5.101,27.101-15.301,37.201C980.4,391.8,967.9,396.9,953.2,396.9V370.3
		c7.2,0,13.399-2.6,18.5-7.699c5.1-5,7.7-11.101,7.7-18.301v-4.699c-8.101,4.6-16.9,6.899-26.2,6.899c-14.601,0-27-5.101-37.4-15.3
		c-10.2-10.4-15.399-22.801-15.399-37.4v-52.7H927l0.2,52.7c0,7.2,2.5,13.4,7.5,18.5c5.1,5.1,11.3,7.7,18.5,7.7
		s13.399-2.601,18.5-7.7c5.1-5.1,7.7-11.3,7.7-18.5v-52.7h26.6v103.299H1005.9z"/>
	<g>
		<circle fill="#68C8C6" cx="811.6" cy="550.3" r="50.7"/>
		<path fill="#68C8C6" d="M811.6,550.3"/>
	</g>
	<g>
		<circle fill="#A98BC0" cx="623" cy="51.4" r="50.7"/>
		<path fill="#A98BC0" d="M623,51.4"/>
	</g>
	<g>
		<circle fill="#7A3F1B" cx="957.4" cy="85.7" r="50.7"/>
		<path fill="#7A3F1B" d="M957.4,85.7"/>
	</g>
	<g>
		<circle fill="#6D3416" cx="544" cy="293.8" r="17.3"/>
		<path fill="#6D3416" d="M544,293.8"/>
	</g>
	<g>
		<circle fill="#6D3416" cx="715" cy="293.8" r="17.2"/>
		<path fill="#6D3416" d="M715,293.8"/>
	</g>
	<path fill="#FBB040" d="M581.3,256.5c-10.2-10.2-22.6-15.3-37.2-15.3c-14.6,0-27,5.1-37.399,15.3c-10.2,10.2-15.4,22.6-15.4,37.2
		c0,14.699,5.101,27.199,15.4,37.4c10.2,10.199,22.7,15.299,37.399,15.299c14.601,0,27-5.1,37.2-15.299
		c10.2-10.4,15.3-22.801,15.3-37.4C596.6,279.1,591.5,266.7,581.3,256.5z M562.4,312.2c-5,5.1-11.101,7.699-18.301,7.699
		c-7.199,0-13.399-2.6-18.5-7.699c-5.1-5.1-7.699-11.3-7.699-18.5c0-7.2,2.6-13.3,7.699-18.3c5.101-5.1,11.301-7.7,18.5-7.7
		c7.101,0,13.2,2.6,18.301,7.7c5.1,5.1,7.699,11.2,7.699,18.3C570.1,300.9,567.5,307,562.4,312.2z"/>
	<rect x="616.3" y="187.6" fill="#6D3416" width="26.601" height="155.9"/>
</g>
</svg>
