<?xml version="1.0" encoding="utf-8"?>
<!-- Generator: Adobe Illustrator 16.0.0, SVG Export Plug-In . SVG Version: 6.00 Build 0)  -->
<!DOCTYPE svg PUBLIC "-//W3C//DTD SVG 1.1//EN" "http://www.w3.org/Graphics/SVG/1.1/DTD/svg11.dtd">
<svg version="1.1" id="Layer_1" xmlns="http://www.w3.org/2000/svg" xmlns:xlink="http://www.w3.org/1999/xlink" x="0px" y="0px"
	 width="220px" height="160px" viewBox="0 0 220 160" enable-background="new 0 0 220 160" xml:space="preserve">
<g>
	<path fill-rule="evenodd" clip-rule="evenodd" fill="#29A3CC" d="M77.473,100.82c0.009-1.63-2.238-8.919-2.248-11.229
		c-0.012-2.809-0.559-5.61-0.772-8.424c-0.184-2.427,0.232-8.943,0.156-9.77c-0.181-1.96,0.125-3.878,0.562-5.767
		c0.192-0.829,3.18-13.393,3.722-14.267c0.545-0.882,1.01-1.804,1.081-2.833c0.041-0.582,0.367-0.91,0.747-0.765
		c0.86,0.331,7.592-1.332,9.916-1.798c3.643-0.73,7.283-1.709,11.124-1.504c2.358,0.126,4.781-0.254,7.165-0.161
		c4.699,0.185,9.389,0.592,14.079,0.955c3.547,0.275,20.405,4.847,21.595,5.21c0.715,0.218,0.647,4.918,0.771,6.617
		c0.167,2.287,0.332,4.606,0.134,6.88c-0.244,2.807-0.431,5.617-0.501,8.425c-0.098,3.839-0.475,7.666-0.523,11.499
		c-0.074,5.73-0.572,11.445-0.416,17.188c0.067,2.472-0.254,4.98-0.436,7.47c-0.093,1.289-0.518,2.545-1.942,3.177
		c-0.894,0.397-13.761,0.446-17.931,1.368c-3.562,0.787-7.123,1.383-10.738,1.586c-3.259,0.184-6.46,0.842-9.743,0.869
		c-2.988,0.022-5.927,0.358-8.966-0.015c-4.049-0.498-7.936-1.47-11.797-2.658c-0.496-0.153-0.959-0.516-1.231-1.093
		C80.104,109.285,77.695,101.926,77.473,100.82z M80.989,95.773c0.51,2.29,3.732,9.598,3.687,11.206
		c-0.041,1.437,0.706,1.865,1.734,2.346c1.537,0.717,3.203,0.877,4.812,1.287c3.374,0.861,14.182-0.014,16.191-0.127
		c2.759-0.155,5.552-0.37,8.232-0.814c2.919-0.483,5.915-0.709,8.784-1.58c4.015-1.217,8.218-1.504,12.318-2.314
		c1.047-0.207,1.303-0.711,1.474-1.689c0.433-2.487,0.376-4.98,0.447-7.482c0.103-3.612,0.521-7.219,0.532-10.83
		c0.008-2.625,0.46-5.205,0.447-7.832c-0.014-2.898,0.963-5.728,0.77-8.677c-0.104-1.569,0.153-3.161,0.165-4.742
		c0.021-2.779-0.098-5.561,0.002-8.336c0.035-0.978-0.234-1.565-1.051-1.916c-0.822-0.354-8.629-2.683-11.752-3.338
		c-2.25-0.473-4.443-1.415-6.745-1.473c-3.174-0.079-21.572-0.144-25.486,0.627c-3.471,0.683-6.931,1.404-10.457,1.786
		c-1.024,0.112-2.221,0.322-2.741,1.469c-1.441,3.179-2.917,6.371-3.175,9.908c-0.275,3.756-0.341,7.525-0.562,11.284
		c-0.202,3.44,0.277,6.832,0.54,10.243C79.359,87.436,80.755,94.727,80.989,95.773z"/>
	<path fill-rule="evenodd" clip-rule="evenodd" fill="#2AA4CC" d="M85.056,80.974c-0.271-7.381,1.871-12.621,5.589-17.324
		c0.67-0.848,1.417-1.66,1.975-2.576c1.836-3.014,4.999-3.835,8.011-4.55c2.193-0.52,4.556-0.633,6.875-0.635
		c1.717,0,3.304,0.612,4.971,0.73c6.669,0.476,11.794,10.076,13.104,11.694c1.604,1.979,2.596,4.213,3.413,6.57
		c0.992,2.865,1.095,5.864,1.458,8.835c0.321,2.62-0.167,5.196-0.662,7.623c-0.555,2.724-2.58,4.985-4.877,6.754
		c-3.568,2.749-7.682,4.217-12.068,4.975c-1.763,0.305-3.589,0.793-5.321,0.601c-2.961-0.33-5.953-0.585-8.728-2.08
		c-5.933-3.197-10.619-7.481-12.964-13.935C84.904,85.097,85.259,82.328,85.056,80.974z M128.277,86.119
		c-0.004-3.336-0.196-6.674-1.348-9.832c-0.762-2.089-1.202-4.324-2.691-6.136c-4.745-5.769-5.62-6.393-8.127-9.341
		c-2.758-3.243-6.448-3.8-10.31-3.987c-0.884-0.043-1.76,0.501-2.676,0.326c-2.22-0.427-4.046,0.825-5.709,1.787
		c-1.541,0.893-3.25,2.075-3.848,4.091c-0.132,0.442-0.466,0.84-0.76,1.217c-1.568,2.017-3.211,3.954-3.989,6.491
		c-0.61,1.991-1.086,3.99-1.515,6.024c-0.386,1.83,0.037,3.591-0.025,5.382c-0.146,4.158,1.09,7.895,3.908,11.18
		c1.972,2.299,4.655,3.566,6.832,5.541c1.227,1.112,2.857,2.042,4.457,2.433c3.96,0.965,7.938,0.534,11.854-0.591
		c3.32-0.955,6.489-2.159,9.304-4.252c1.952-1.451,3.601-3.107,4.043-5.529C127.963,89.351,128.338,87.756,128.277,86.119z"/>
	<path fill-rule="evenodd" clip-rule="evenodd" fill="#29A3CC" d="M96.893,70.805c1.729-0.115,3.457-0.26,5.188-0.34
		c3.046-0.141,6.047,0.676,9.089,0.509c3.02-0.166,5.816,0.662,8.593,1.667c0.721,0.261,1.601,5.387,2.078,7.296
		c0.55,2.195-0.503,4.241-0.947,6.339c-1.084,5.122-4.622,7.928-9.161,9.904c-2.533,1.102-5.091,1.241-7.703,0.724
		c-3.052-0.606-5.181-2.711-7.281-4.813c-2.701-2.704-3.317-6.18-3.805-9.773c-0.336-2.479-0.343-4.903,0.216-7.313
		c0.228-0.982,0.504-1.96,0.744-2.932C94.229,70.742,95.718,70.848,96.893,70.805z M103.376,71.956
		c-2.093,0.238-4.201,0.467-6.307,0.723c-1.002,0.121-1.582,0.677-1.927,1.67c-0.684,1.964-0.25,3.934-0.341,5.89
		c-0.11,2.395,0.448,4.563,1.087,6.693c1.064,3.548,3.668,5.802,7.036,7.357c2.318,1.071,4.364,1.106,6.518-0.25
		c0.862-0.543,1.961-0.722,2.791-1.3c2.011-1.399,4.468-2.367,5.449-4.888c1.225-3.15,2.314-6.355,2.095-9.805
		c-0.159-2.483-1.893-4.48-4.271-4.98C111.518,72.224,107.406,72.836,103.376,71.956z"/>
	<circle fill-rule="evenodd" clip-rule="evenodd" fill="#2EA6CD" cx="101.784" cy="79.999" r="1.894"/>
	<circle fill-rule="evenodd" clip-rule="evenodd" fill="#2EA6CD" cx="111.894" cy="80.378" r="1.895"/>
</g>
</svg>
