<?xml version="1.0" encoding="utf-8"?>
<!-- Generator: Adobe Illustrator 16.0.0, SVG Export Plug-In . SVG Version: 6.00 Build 0)  -->
<!DOCTYPE svg PUBLIC "-//W3C//DTD SVG 1.1//EN" "http://www.w3.org/Graphics/SVG/1.1/DTD/svg11.dtd">
<svg version="1.1" id="Layer_1" xmlns="http://www.w3.org/2000/svg" xmlns:xlink="http://www.w3.org/1999/xlink" x="0px" y="0px"
	 width="220px" height="160px" viewBox="0 0 220 160" enable-background="new 0 0 220 160" xml:space="preserve">
<g>
	<path fill-rule="evenodd" clip-rule="evenodd" fill="#29A3CC" d="M107.297,108.979c-5.312,0.337-10.976,0.747-16.646,1.032
		c-3.318,0.168-6.647,0.197-9.971,0.172c-2.211-0.018-4.401,0.221-6.601,0.322c-3.224,0.15-6.444,0.054-9.665-0.041
		c-0.836-0.023-1.656,0.064-2.437,0.363c-1.298,0.496-4.048-0.595-4.247-1.776c-0.141-0.835-0.067-1.697,0.095-2.553
		c0.435-2.303-0.036-4.61-0.063-6.916c-0.037-3.198-0.186-6.396-0.261-9.596c-0.082-3.488-0.155-6.976-0.191-10.465
		c-0.035-3.31,0.084-6.623-0.054-9.927c-0.119-2.864-0.465-5.723-0.787-8.575c-0.183-1.627-0.195-3.273-0.581-4.878
		c-0.082-0.34,0.04-0.731,0.324-0.996c0.471-0.44,0.52-0.976,0.359-1.547c-0.244-0.867,0.291-1.039,0.914-0.913
		c3.469,0.702,6.943,0.157,10.417,0.167c2.423,0.007,4.84-0.194,7.244-0.293c3.376-0.138,6.759,0.069,10.133-0.27
		c1.847-0.184,3.725-0.046,5.589-0.065c3.46-0.037,6.922-0.099,10.383-0.118c2.646-0.015,5.292-0.213,7.942,0.067
		c0.725,0.076,1.491-0.326,2.231-0.3c4.336,0.146,8.663-0.271,12.996-0.189c4.476,0.084,8.944-0.432,13.409-0.241
		c1.817,0.077,3.615-0.143,5.433-0.044c1.064,0.058,2.208-0.105,3.314-0.189c0.517-0.039,0.86-0.325,1.069-0.83
		c0.593-1.429,2.792-1.857,3.57-0.544c0.771,1.3,1.916,1.421,3.015,1.378c1.135-0.044,1.301,0.709,1.535,1.341
		c0.278,0.748-0.287,1.373-0.909,1.637c-0.678,0.286-1.284,0.772-2.091,0.796c-0.727,0.021-0.675,0.685-0.719,1.182
		c-0.182,2.084,0.144,4.158,0.137,6.24c-0.001,0.561,0.034,1.121,0.061,1.682c0.046,0.926,0.557,1.299,1.44,1.132
		c1.054-0.2,2.147-0.32,3.139-0.697c1.442-0.548,2.901-0.048,4.335-0.281c0.443-0.071,0.573,0.313,0.667,0.696
		c0.483,1.974,0.606,3.987,0.71,6.003c0.102,1.979,0.197,3.959,0.284,5.938c0.086,1.949,0.205,3.899,0.267,5.843
		c0.04,1.242,0.684,2.139,0.994,3.209c0.011,0.037,0.057,0.069,0.056,0.105c-0.036,1.827,0.071,3.674-0.168,5.476
		c-0.146,1.101-1.96,1.562-2.835,0.828c-0.66-0.554-1.339-1.142-1.428-2.133c-0.08-0.889-0.762-1.239-1.463-0.932
		c-1.315,0.579-2.746,0.463-4.082,0.891c-0.797,0.256-1.272,0.549-1.227,1.46c0.156,3.071,0.371,6.145,0.374,9.218
		c0.001,1.198,0.3,2.352,0.229,3.551c-0.087,1.503-1.474,2.805-2.967,2.604c-3.307-0.446-6.625-0.145-9.937-0.139
		c-2.749,0.003-5.5,0.057-8.246,0.182c-2.195,0.101-4.399,0.239-6.572,0.552c-2.22,0.321-4.454,0.376-6.678,0.595
		C115.32,108.568,111.495,108.913,107.297,108.979z M61.856,97.278c0.305,2.406,0.552,5.159,0.625,7.921
		c0.023,0.892,0.358,1.178,1.202,1.234c1.468,0.1,2.901-0.05,4.36-0.204c1.563-0.165,3.13,0.333,4.758,0.197
		c1.669-0.139,3.419-0.137,5.05-0.027c2.333,0.157,4.664-0.917,6.956,0.06c0.127,0.054,0.327,0.032,0.455-0.032
		c1.089-0.546,2.31-0.475,3.433-0.493c2.761-0.046,5.518-0.151,8.271-0.302c1.975-0.107,3.938-0.455,5.913-0.566
		c2.401-0.137,4.823-0.007,7.212-0.234c1.913-0.182,3.814-0.532,5.74-0.417c1.395,0.084,2.737-0.059,4.058-0.49
		c0.184-0.061,0.396-0.174,0.562-0.131c1.77,0.451,3.557-0.069,5.231-0.298c2.226-0.305,4.444-0.636,6.689-0.712
		c1.849-0.062,3.713-0.145,5.547,0.028c1.162,0.109,2.197-0.356,3.347-0.293c1.935,0.104,3.879-0.039,5.822,0.191
		c1.152,0.137,1.926-0.479,1.743-1.42c-0.219-1.132,0.008-2.211-0.003-3.312c-0.035-3.553-0.283-7.115-0.09-10.653
		c0.128-2.341,0.197-4.667,0.156-7.007c-0.062-3.425-0.223-6.856-0.057-10.272c0.077-1.597-1.234-3.131-0.136-4.725
		c0.033-0.048-0.03-0.154-0.03-0.233c0.001-2.478-0.419-4.939-0.421-7.404c-0.002-2.396-0.121-2.697-2.397-2.768
		c-3.931-0.121-7.866-0.041-11.792-0.009c-3.446,0.028-6.907,0.132-10.357,0.203c-3.113,0.067-6.228,0.244-9.35,0.229
		c-3.132-0.015-6.268,0.276-9.414,0.224c-3.216-0.055-6.438,0.195-9.65,0.093c-3.755-0.122-7.504,0.027-11.245,0.157
		c-3.931,0.137-7.873,0.037-11.796,0.427c-1.849,0.185-3.698,0.338-5.571,0.272c-1.693-0.057-3.396,0.13-5.093,0.205
		c-0.664,0.029-1.379,0.07-1.371,0.953c0.01,1.057,0.05,2.129,0.242,3.164c0.612,3.293,0.55,6.643,0.924,9.954
		c0.094,0.83,0.212,1.676,0.156,2.504c-0.291,4.307-0.043,8.617-0.087,12.925C61.409,89.792,62.155,93.344,61.856,97.278z
		 M158.491,70.871c-0.014,0-0.027,0.001-0.041,0.001c0-0.28,0-0.561,0-0.842c0.006-1.391-0.586-1.834-1.848-1.326
		c-0.385,0.155-0.7,0.151-1.111,0.09c-1.57-0.234-2.894,0.798-2.852,2.275c0.131,4.624,0.548,9.241,0.341,13.875
		c-0.033,0.73,0.41,1.088,1.182,0.925c1.288-0.271,2.583-0.514,3.866-0.805c0.604-0.138,0.915-0.518,0.946-1.2
		c0.052-1.146-0.104-2.282-0.09-3.431C158.919,77.248,158.644,74.06,158.491,70.871z"/>
	<path fill-rule="evenodd" clip-rule="evenodd" fill="#25A2CA" d="M99.086,79.552c-4.832,0.214-9.663,0.461-14.498,0.63
		c-1.901,0.065-3.811-0.009-5.714-0.083c-0.949-0.037-1.265-0.855-1.367-1.591c-0.192-1.377,0.892-2.989,2.254-3.442
		c0.568-0.188,1.059-0.636,1.802-0.386c0.513,0.172,0.68-0.687,1.249-0.8c2.23-0.445,4.217-1.682,6.445-2.092
		c1.823-0.335,3.507-1.088,5.297-1.492c2.06-0.467,3.847-1.608,5.808-2.322c0.234-0.085,0.548-0.383,0.554-0.592
		c0.039-1.249,1.053-1.205,1.834-1.438c0.663-0.198,1.633,0.806,1.729,1.728c0.24,2.281,0.508,4.559,0.712,6.843
		c0.081,0.897,0.456,1.324,1.37,1.239c0.568-0.053,1.129,0.024,1.653,0.241c0.421,0.176,0.805,0.358,1.189-0.058
		c0.075-0.082,0.236-0.176,0.316-0.148c1.978,0.685,3.924-0.314,5.928-0.07c1.975,0.238,4.003,0.052,6.007,0.018
		c1.197-0.021,2.407-0.242,3.587-0.126c1.217,0.12,2.544,0.051,3.559,0.987c0.922,0.851,1.027,1.386,0.049,2.16
		c-1.416,1.124-2.989,2.006-4.748,2.577c-5.807,1.888-11.847,2.951-17.598,5.025c-0.332,0.119-0.727,0.292-0.905,0.563
		c-0.506,0.776-1.147,0.762-2.007,0.83c-1.978,0.156-2.875-1.453-2.014-3.446c0.238-0.552,0.64-1.026,0.592-1.767
		C101.983,79.621,102.03,79.618,99.086,79.552z"/>
</g>
</svg>
