<?xml version="1.0" encoding="utf-8"?>
<!-- Generator: Adobe Illustrator 16.0.0, SVG Export Plug-In . SVG Version: 6.00 Build 0)  -->
<!DOCTYPE svg PUBLIC "-//W3C//DTD SVG 1.1//EN" "http://www.w3.org/Graphics/SVG/1.1/DTD/svg11.dtd">
<svg version="1.1" id="Layer_1" xmlns="http://www.w3.org/2000/svg" xmlns:xlink="http://www.w3.org/1999/xlink" x="0px" y="0px"
	 width="180px" height="80px" viewBox="3.746 7.454 180 80" enable-background="new 3.746 7.454 180 80" xml:space="preserve">
<g>
	<path fill="#8BC2BC" d="M12.548,83.233c-0.014,0.326-0.187,0.387-0.469,0.229c-0.556-0.283-1.218-1.145-1.168-3.094
		c0.095-3.094,2.034-12.376,3.643-17.679c0.125-0.463,0.373-0.68,0.859-0.496c1.469,0.571,2.142,1.459,2.199,3.98
		c0.059,3.072,0.215,6.782,0.548,11.171c1.32-6.198,4.002-11.946,5.424-17.957c0.116-0.491,0.335-0.603,0.803-0.382
		c1.569,0.766,1.842,2.438,1.574,4.143c-0.688,4.429-1.505,11.223-1.476,15.848c-0.014,0.325-0.129,0.366-0.43,0.249
		c-0.592-0.209-1.243-0.943-1.427-3.002c-0.17-1.84,0.245-6.493,0.841-10.729c-1.874,5.106-3.651,10.664-4.356,15.228
		c-0.042,0.336-0.154,0.476-0.446,0.384c-1.194-0.35-1.983-1.195-2.327-3.07c-0.322-1.72-0.779-6-0.869-10.248
		C14.275,72.542,12.878,78.801,12.548,83.233z"/>
	<path fill="#8BC2BC" d="M35.068,62.428c0.127-0.464,0.335-0.603,0.628-0.417c0.616,0.361,1.285,1.508,1.103,3.182
		c-0.176,1.511-0.848,4.163-0.998,5.923c-0.148,1.855,0.261,3.095,1.218,2.69c1.159-0.476,2.048-2.981,2.351-5.311
		c0.052-0.307,0.243-0.406,0.45-0.19c0.207,0.217,0.462,0.932,0.373,1.862c-0.188,1.837-1.438,4.055-3.052,4.526
		c-1.583,0.468-2.715-0.162-3.194-1.504c-0.503,1.498-1.421,3.016-2.801,3.506c-2.675,0.949-4.516-2.486-3.362-6.791
		c1.127-4.2,2.94-6.292,4.378-6.803c1.237-0.438,2.147,0.298,2.489,1.436C34.784,63.722,34.914,62.997,35.068,62.428z
		 M33.185,64.416c-0.952,0.24-2.389,2.845-3.063,5.948c-0.649,2.998-0.125,5.646,1.006,5.277c1.189-0.392,2.033-2.751,2.604-5.785
		C34.422,66.069,34.051,64.206,33.185,64.416z"/>
	<path fill="#8BC2BC" d="M48.379,69.778c1.16-0.478,2.031-2.943,2.334-5.271c0.052-0.309,0.252-0.38,0.449-0.191
		c0.207,0.217,0.502,0.949,0.404,1.854c-0.218,1.848-1.461,3.994-3.074,4.471c-1.582,0.465-2.666-0.116-3.145-1.459
		c-0.512,1.47-1.432,2.984-2.781,3.466c-2.675,0.949-4.487-2.496-3.353-6.763c1.09-4.121,2.933-6.224,4.371-6.733
		c1.181-0.418,2.072,0.264,2.42,1.33c0.504-3.494,1.303-8.156,1.818-9.981c0.146-0.503,0.414-0.564,0.69-0.246
		c0.739,0.804,1.092,2.062,0.647,4.634c-0.506,2.945-1.584,8.643-1.941,12.182C47.033,68.998,47.422,70.178,48.379,69.778z
		 M41.519,66.35c-0.676,3.009-0.104,5.608,1.027,5.237c1.16-0.381,2.115-2.616,2.539-5.695c0.537-3.766,0.326-5.719-0.519-5.451
		C43.664,60.729,42.206,63.275,41.519,66.35z"/>
	<path fill="#8BC2BC" d="M55.693,67.116c2.428-0.73,3.713-3.763,4.276-6.088c0.062-0.28,0.293-0.362,0.5-0.146
		c0.196,0.189,0.396,1.019,0.142,1.946c-0.585,2.171-2.332,4.271-4.537,5.086c-3.631,1.354-6.17-1.77-5.617-6.118
		c0.555-4.35,2.959-6.878,4.693-6.559c0.871,0.172,1.542,0.417,2.229,0.885c0.761,0.501,1.154,2.325,0.465,4.211
		c-0.799,2.215-2.459,3.644-5.055,2.729C52.805,66.017,54.139,67.572,55.693,67.116z M55.735,59.696
		c0.493-1.526,0.597-3.234,0.081-3.408c-0.777-0.27-2.554,2.29-2.938,5.485c-0.024,0.203-0.051,0.404-0.057,0.568
		C54.549,62.727,55.289,61.078,55.735,59.696z"/>
	<path fill="#8BC2BC" d="M79.518,46.025c0.355-0.188,0.68,0.18,0.773,0.821c0.172,1.227,0.135,2.684-0.596,6.313
		c-0.81,3.949-2.082,6.868-4.031,7.486c-1.25,0.404-2.334-0.471-2.68-1.729c-0.51,1.493-1.316,3.062-2.73,3.461
		c-1.825,0.512-2.797-1.238-2.793-3.619c0-2.119,0.424-5.421,1.439-8.698c0.12-0.396,0.418-0.468,0.68-0.271
		c1.024,0.704,1.312,1.983,0.842,4.045c-0.465,1.995-0.741,3.603-0.834,5.177c-0.082,1.604,0.299,2.597,0.951,2.337
		c1.143-0.432,1.535-2.724,2.215-5.759c0.816-3.563,0.959-5.83,1.477-7.395c0.156-0.471,0.309-0.591,0.66-0.422
		c0.585,0.372,1.258,1.554,1.068,3.225c-0.183,1.51-0.856,4.188-1.043,5.959c-0.205,1.903,0.225,2.848,1.07,2.58
		c1.018-0.322,2.082-2.815,2.692-6.052C77.627,48.937,78.953,46.351,79.518,46.025z"/>
	<path fill="#8BC2BC" d="M81.672,53.82c-0.014-2.343,0.701-6.382,1.244-8.244c0.139-0.435,0.31-0.592,0.631-0.415
		c0.594,0.307,1.255,1.458,1.068,3.129c-0.164,1.473-0.688,3.841-0.791,5.483c-0.107,1.901,0.354,3.026,1.244,2.619
		c1.286-0.484,2.196-2.956,2.366-5.231c0.056-0.309,0.267-0.35,0.461-0.16c0.394,0.375,0.517,1.007,0.424,1.844
		c-0.241,2.077-1.633,3.914-3.247,4.479C82.883,58.089,81.69,56.45,81.672,53.82z M85.471,44.103
		c-0.232,0.531-1.069,0.726-1.764,0.132c-0.733-0.609-0.891-1.519-0.602-2.165c0.291-0.648,1.247-0.597,1.893,0.045
		C85.635,42.727,85.705,43.571,85.471,44.103z"/>
	<path fill="#8BC2BC" d="M86.276,43.081c-0.431-0.299-0.327-0.559,0.114-0.684c0.816-0.252,1.605-0.592,2.352-0.951
		c0.34-1.886,0.674-3.514,0.942-4.314c0.129-0.462,0.429-0.533,0.692-0.24c0.599,0.689,0.931,1.635,0.762,3.364
		c1.115-0.422,1.729-0.058,2.088,0.234c0.324,0.272,0.277,0.513-0.154,0.665c-0.664,0.136-1.527,0.535-2.207,0.899
		c-0.449,2.312-1.115,5.663-1.365,8.446c-0.215,2.425,0.726,4.088,1.955,3.723c1.316-0.396,2.246-3.005,2.556-5.523
		c0.052-0.403,0.348-0.571,0.606-0.213c0.305,0.41,0.342,0.975,0.284,1.733c-0.081,0.96-1.099,4.146-3.433,4.863
		c-1.921,0.609-4.194-0.975-3.968-4.749c0.102-1.644,0.467-4.468,0.91-7.165C87.431,43.514,86.617,43.316,86.276,43.081z"/>
	<path fill="#8BC2BC" d="M102.279,51.335c-2.421,0.845-3.639-0.688-3.65-3.479c-0.024-3.11,1.435-6.963,0.884-7.059
		c-0.483-0.089-2.938,2.954-3.654,6.259c-0.442,2.052-0.807,4.428-0.883,6.416c-0.024,0.298-0.207,0.426-0.449,0.286
		c-0.642-0.354-1.184-1.064-1.182-2.993c0.002-3.216,2.451-15.387,3.769-19.094c0.139-0.435,0.438-0.507,0.702-0.213
		c0.666,0.698,1.083,2.161,0.623,4.348c-0.29,1.386-1.002,4.238-1.565,6.589c0.778-1.559,1.943-3.024,2.752-3.213
		c1.021-0.229,2.418,0.893,2.182,2.613c-0.191,1.48-0.84,4.055-0.979,5.772c-0.137,1.912,0.479,3.207,1.527,2.777
		c1.159-0.473,2.021-3.086,2.27-5.229c0.024-0.3,0.312-0.399,0.51-0.212c0.254,0.265,0.466,0.866,0.335,1.876
		C105.232,48.695,103.978,50.741,102.279,51.335z"/>
	<path fill="#8BC2BC" d="M159.941,32.174c-1.554,0.449-2.779-0.052-3.68-1.18c-0.086,0.688-0.207,1.48-0.291,2.171
		c-0.033,0.323-0.2,0.403-0.444,0.221c-0.608-0.455-1.149-1.217-1.079-3.162c0.088-2.646,2.695-15.085,3.904-18.465
		c0.154-0.456,0.389-0.523,0.741-0.184c0.677,0.69,1.06,2,0.493,4.531c-0.202,0.944-0.877,3.317-1.32,5.184
		c0.629-1.006,1.402-1.732,2.166-1.953c2.492-0.72,3.609,2.684,3.031,6.703C162.976,29.498,161.642,31.683,159.941,32.174z
		 M158.539,22.442c-0.922,1.751-1.625,4.576-2.057,7.129c0.307,0.829,0.958,1.652,1.799,1.6c1.096-0.063,2.188-1.327,2.906-5.198
		c0.712-3.775-0.156-5.448-0.85-5.313C159.707,20.78,159.154,21.286,158.539,22.442z"/>
	<path fill="#8BC2BC" d="M171.917,29.538c-0.504,4.379-1.221,9.668-3.381,11.305c-0.5,0.364-1.057,0.523-1.853-0.13
		c-0.839-0.705-1.724-1.555-1.638-3.441c0.115-2.877,2.1-5.346,4.672-7.319c0.098-0.754,0.178-1.567,0.297-2.36
		c-0.637,1.194-1.531,2.273-2.729,2.525c-2.162,0.435-2.84-1.676-2.726-3.794c0.103-2.051,0.699-5.347,1.842-8.521
		c0.142-0.388,0.442-0.443,0.729-0.211c0.978,0.728,1.156,2.001,0.572,4.033c-0.563,1.996-0.857,3.378-1.018,4.906
		c-0.172,1.597,0.184,2.6,0.875,2.463c1.169-0.244,2.092-2.53,2.85-5.495c0.633-2.52,1.129-5.509,1.724-7.29
		c0.155-0.453,0.343-0.57,0.676-0.414c0.562,0.407,1.16,1.592,0.832,3.297c-0.39,1.943-1.159,5.954-1.567,9.137
		c1.932-1.884,3.178-4.046,3.885-5.985c0.086-0.246,0.342-0.353,0.486-0.078c0.133,0.245,0.239,0.942-0.037,1.842
		C175.794,26.143,174.063,27.844,171.917,29.538z M166.984,39.554c0.541,0.441,2.021-3.429,2.592-8.235
		C166.4,34.605,166.244,38.977,166.984,39.554z"/>
	<path fill="#FFC881" d="M124.539,25.801c0.854-2.009,1.502-3.714,2.295-5.352c0.781-1.612,1.774-3.082,3.193-4.261
		c1.383-1.147,2.998-0.074,3.34,1.345c0.5,2.077,0.244,4.119-0.061,6.191c-0.842,5.714-3.062,10.882-6.025,15.781
		c-0.906,1.496-1.734,3.039-2.582,4.569c-0.402,0.725-0.936,1.113-1.728,0.644c-0.712-0.423-1.644-0.913-0.953-1.923
		c0.748-1.092,0.299-1.945-0.228-2.858c-2.758-4.774-5.824-9.348-8.898-13.918c-1.725-2.562-3.057-5.33-3.486-8.432
		c-0.111-0.811-0.084-1.697,0.125-2.483c0.252-0.938,0.984-1.506,2.027-1.574c5.811-0.375,9.576,2.586,11.413,7.733
		C123.468,22.654,123.936,24.055,124.539,25.801z M122.611,28.993c-0.117-3.074-0.697-5.851-1.82-8.469
		c-1.662-3.877-3.744-5.396-7.487-5.221c-1.12,0.053-1.581,0.539-1.634,1.596c-0.103,2.119,0.652,4.006,1.572,5.839
		c1.262,2.51,2.955,4.745,4.521,7.063c1.938,2.87,3.84,5.764,5.729,8.664c0.434,0.666,0.707,0.718,1.099-0.017
		c0.433-0.812,0.93-1.588,1.401-2.377c2.83-4.725,4.549-9.821,5.047-15.308c0.045-0.499,0.498-1.349-0.211-1.525
		c-0.512-0.128-0.802,0.717-1.088,1.216c-2.306,3.997-3.619,8.381-4.967,12.75c-0.197,0.642-0.51,0.955-1.178,0.703
		c-1.133-0.427-1.53-1.246-1.207-2.392C122.642,30.62,122.617,29.698,122.611,28.993z"/>
	<path fill="#FFC881" d="M132.267,39.696c-0.062-2.711,2.033-4.102,4.422-3.052c1.018,0.446,1.833,1.161,2.512,2.021
		c0.498,0.629,0.826,0.604,1.103-0.154c0.431-1.182,1.334-1.882,2.438-2.378c2.178-0.979,3.641-0.204,4.154,2.203
		c0.487,2.281-0.421,4.231-1.432,6.171c-1.379,2.654-2.739,5.32-4.081,7.995c-0.566,1.13-2.294,1.355-2.962,0.2
		c-2.102-3.633-4.535-7.102-5.827-11.158C132.391,40.907,132.244,40.252,132.267,39.696z M144.794,38.775
		c-0.006-0.032,0.148-0.429-0.155-0.65c-0.39-0.284-0.692,0.104-1.019,0.251c-1.445,0.653-1.894,1.974-2.271,3.361
		c-0.122,0.449-0.032,1.095-0.675,1.223c-0.564,0.114-0.871-0.386-1.25-0.693c-0.305-0.247-0.416-0.561-0.521-0.944
		c-0.281-1.031-0.898-1.894-1.768-2.513c-0.536-0.382-1.241-0.754-1.855-0.375c-0.627,0.385-0.84,1.172-0.765,1.889
		c0.073,0.691,0.301,1.381,0.544,2.039c0.932,2.512,2.645,4.6,3.836,6.971c0.316,0.628,0.607,0.73,1.01,0.017
		c1.545-2.757,3.174-5.469,4.467-8.359C144.648,40.376,144.853,39.748,144.794,38.775z"/>
</g>
</svg>
